<?xml version="1.0" encoding="utf-8"?>
<svg xmlns="http://www.w3.org/2000/svg" xmlns:xlink="http://www.w3.org/1999/xlink" width="600" height="400" viewBox="0 0 2400 1600">
<defs>
  <clipPath id="clip420">
    <rect x="0" y="0" width="2400" height="1600"/>
  </clipPath>
</defs>
<path clip-path="url(#clip420)" d="M0 1600 L2400 1600 L2400 0 L0 0  Z" fill="#ffffff" fill-rule="evenodd" fill-opacity="1"/>
<defs>
  <clipPath id="clip421">
    <rect x="480" y="0" width="1681" height="1600"/>
  </clipPath>
</defs>
<path clip-path="url(#clip420)" d="M275.136 1486.45 L2352.76 1486.45 L2352.76 47.2441 L275.136 47.2441  Z" fill="#ffffff" fill-rule="evenodd" fill-opacity="1"/>
<defs>
  <clipPath id="clip422">
    <rect x="275" y="47" width="2079" height="1440"/>
  </clipPath>
</defs>
<polyline clip-path="url(#clip422)" style="stroke:#000000; stroke-linecap:round; stroke-linejoin:round; stroke-width:2; stroke-opacity:0.1; fill:none" points="314.337,1486.45 314.337,47.2441 "/>
<polyline clip-path="url(#clip422)" style="stroke:#000000; stroke-linecap:round; stroke-linejoin:round; stroke-width:2; stroke-opacity:0.1; fill:none" points="804.341,1486.45 804.341,47.2441 "/>
<polyline clip-path="url(#clip422)" style="stroke:#000000; stroke-linecap:round; stroke-linejoin:round; stroke-width:2; stroke-opacity:0.1; fill:none" points="1294.35,1486.45 1294.35,47.2441 "/>
<polyline clip-path="url(#clip422)" style="stroke:#000000; stroke-linecap:round; stroke-linejoin:round; stroke-width:2; stroke-opacity:0.1; fill:none" points="1784.35,1486.45 1784.35,47.2441 "/>
<polyline clip-path="url(#clip422)" style="stroke:#000000; stroke-linecap:round; stroke-linejoin:round; stroke-width:2; stroke-opacity:0.1; fill:none" points="2274.36,1486.45 2274.36,47.2441 "/>
<polyline clip-path="url(#clip422)" style="stroke:#000000; stroke-linecap:round; stroke-linejoin:round; stroke-width:2; stroke-opacity:0.1; fill:none" points="275.136,1446.45 2352.76,1446.45 "/>
<polyline clip-path="url(#clip422)" style="stroke:#000000; stroke-linecap:round; stroke-linejoin:round; stroke-width:2; stroke-opacity:0.1; fill:none" points="275.136,1091.06 2352.76,1091.06 "/>
<polyline clip-path="url(#clip422)" style="stroke:#000000; stroke-linecap:round; stroke-linejoin:round; stroke-width:2; stroke-opacity:0.1; fill:none" points="275.136,735.672 2352.76,735.672 "/>
<polyline clip-path="url(#clip422)" style="stroke:#000000; stroke-linecap:round; stroke-linejoin:round; stroke-width:2; stroke-opacity:0.1; fill:none" points="275.136,380.283 2352.76,380.283 "/>
<polyline clip-path="url(#clip420)" style="stroke:#000000; stroke-linecap:round; stroke-linejoin:round; stroke-width:4; stroke-opacity:1; fill:none" points="275.136,1486.45 2352.76,1486.45 "/>
<polyline clip-path="url(#clip420)" style="stroke:#000000; stroke-linecap:round; stroke-linejoin:round; stroke-width:4; stroke-opacity:1; fill:none" points="314.337,1486.45 314.337,1467.55 "/>
<polyline clip-path="url(#clip420)" style="stroke:#000000; stroke-linecap:round; stroke-linejoin:round; stroke-width:4; stroke-opacity:1; fill:none" points="804.341,1486.45 804.341,1467.55 "/>
<polyline clip-path="url(#clip420)" style="stroke:#000000; stroke-linecap:round; stroke-linejoin:round; stroke-width:4; stroke-opacity:1; fill:none" points="1294.35,1486.45 1294.35,1467.55 "/>
<polyline clip-path="url(#clip420)" style="stroke:#000000; stroke-linecap:round; stroke-linejoin:round; stroke-width:4; stroke-opacity:1; fill:none" points="1784.35,1486.45 1784.35,1467.55 "/>
<polyline clip-path="url(#clip420)" style="stroke:#000000; stroke-linecap:round; stroke-linejoin:round; stroke-width:4; stroke-opacity:1; fill:none" points="2274.36,1486.45 2274.36,1467.55 "/>
<path clip-path="url(#clip420)" d="M314.337 1517.37 Q310.726 1517.37 308.897 1520.93 Q307.091 1524.47 307.091 1531.6 Q307.091 1538.71 308.897 1542.27 Q310.726 1545.82 314.337 1545.82 Q317.971 1545.82 319.777 1542.27 Q321.605 1538.71 321.605 1531.6 Q321.605 1524.47 319.777 1520.93 Q317.971 1517.37 314.337 1517.37 M314.337 1513.66 Q320.147 1513.66 323.202 1518.27 Q326.281 1522.85 326.281 1531.6 Q326.281 1540.33 323.202 1544.94 Q320.147 1549.52 314.337 1549.52 Q308.527 1549.52 305.448 1544.94 Q302.392 1540.33 302.392 1531.6 Q302.392 1522.85 305.448 1518.27 Q308.527 1513.66 314.337 1513.66 Z" fill="#000000" fill-rule="nonzero" fill-opacity="1" /><path clip-path="url(#clip420)" d="M783.612 1544.91 L799.932 1544.91 L799.932 1548.85 L777.987 1548.85 L777.987 1544.91 Q780.649 1542.16 785.233 1537.53 Q789.839 1532.88 791.02 1531.53 Q793.265 1529.01 794.145 1527.27 Q795.047 1525.51 795.047 1523.82 Q795.047 1521.07 793.103 1519.33 Q791.182 1517.6 788.08 1517.6 Q785.881 1517.6 783.427 1518.36 Q780.997 1519.13 778.219 1520.68 L778.219 1515.95 Q781.043 1514.82 783.497 1514.24 Q785.95 1513.66 787.987 1513.66 Q793.358 1513.66 796.552 1516.35 Q799.746 1519.03 799.746 1523.52 Q799.746 1525.65 798.936 1527.57 Q798.149 1529.47 796.043 1532.07 Q795.464 1532.74 792.362 1535.95 Q789.26 1539.15 783.612 1544.91 Z" fill="#000000" fill-rule="nonzero" fill-opacity="1" /><path clip-path="url(#clip420)" d="M809.793 1514.29 L828.149 1514.29 L828.149 1518.22 L814.075 1518.22 L814.075 1526.7 Q815.094 1526.35 816.112 1526.19 Q817.131 1526 818.149 1526 Q823.936 1526 827.316 1529.17 Q830.695 1532.34 830.695 1537.76 Q830.695 1543.34 827.223 1546.44 Q823.751 1549.52 817.432 1549.52 Q815.256 1549.52 812.987 1549.15 Q810.742 1548.78 808.334 1548.04 L808.334 1543.34 Q810.418 1544.47 812.64 1545.03 Q814.862 1545.58 817.339 1545.58 Q821.344 1545.58 823.682 1543.48 Q826.019 1541.37 826.019 1537.76 Q826.019 1534.15 823.682 1532.04 Q821.344 1529.94 817.339 1529.94 Q815.464 1529.94 813.589 1530.35 Q811.737 1530.77 809.793 1531.65 L809.793 1514.29 Z" fill="#000000" fill-rule="nonzero" fill-opacity="1" /><path clip-path="url(#clip420)" d="M1269.05 1514.29 L1287.4 1514.29 L1287.4 1518.22 L1273.33 1518.22 L1273.33 1526.7 Q1274.35 1526.35 1275.36 1526.19 Q1276.38 1526 1277.4 1526 Q1283.19 1526 1286.57 1529.17 Q1289.95 1532.34 1289.95 1537.76 Q1289.95 1543.34 1286.48 1546.44 Q1283 1549.52 1276.68 1549.52 Q1274.51 1549.52 1272.24 1549.15 Q1269.99 1548.78 1267.59 1548.04 L1267.59 1543.34 Q1269.67 1544.47 1271.89 1545.03 Q1274.11 1545.58 1276.59 1545.58 Q1280.6 1545.58 1282.93 1543.48 Q1285.27 1541.37 1285.27 1537.76 Q1285.27 1534.15 1282.93 1532.04 Q1280.6 1529.94 1276.59 1529.94 Q1274.72 1529.94 1272.84 1530.35 Q1270.99 1530.77 1269.05 1531.65 L1269.05 1514.29 Z" fill="#000000" fill-rule="nonzero" fill-opacity="1" /><path clip-path="url(#clip420)" d="M1309.16 1517.37 Q1305.55 1517.37 1303.72 1520.93 Q1301.92 1524.47 1301.92 1531.6 Q1301.92 1538.71 1303.72 1542.27 Q1305.55 1545.82 1309.16 1545.82 Q1312.79 1545.82 1314.6 1542.27 Q1316.43 1538.71 1316.43 1531.6 Q1316.43 1524.47 1314.6 1520.93 Q1312.79 1517.37 1309.16 1517.37 M1309.16 1513.66 Q1314.97 1513.66 1318.03 1518.27 Q1321.11 1522.85 1321.11 1531.6 Q1321.11 1540.33 1318.03 1544.94 Q1314.97 1549.52 1309.16 1549.52 Q1303.35 1549.52 1300.27 1544.94 Q1297.22 1540.33 1297.22 1531.6 Q1297.22 1522.85 1300.27 1518.27 Q1303.35 1513.66 1309.16 1513.66 Z" fill="#000000" fill-rule="nonzero" fill-opacity="1" /><path clip-path="url(#clip420)" d="M1758.2 1514.29 L1780.43 1514.29 L1780.43 1516.28 L1767.88 1548.85 L1763 1548.85 L1774.8 1518.22 L1758.2 1518.22 L1758.2 1514.29 Z" fill="#000000" fill-rule="nonzero" fill-opacity="1" /><path clip-path="url(#clip420)" d="M1789.59 1514.29 L1807.95 1514.29 L1807.95 1518.22 L1793.88 1518.22 L1793.88 1526.7 Q1794.89 1526.35 1795.91 1526.19 Q1796.93 1526 1797.95 1526 Q1803.74 1526 1807.12 1529.17 Q1810.5 1532.34 1810.5 1537.76 Q1810.5 1543.34 1807.02 1546.44 Q1803.55 1549.52 1797.23 1549.52 Q1795.06 1549.52 1792.79 1549.15 Q1790.54 1548.78 1788.14 1548.04 L1788.14 1543.34 Q1790.22 1544.47 1792.44 1545.03 Q1794.66 1545.58 1797.14 1545.58 Q1801.14 1545.58 1803.48 1543.48 Q1805.82 1541.37 1805.82 1537.76 Q1805.82 1534.15 1803.48 1532.04 Q1801.14 1529.94 1797.14 1529.94 Q1795.26 1529.94 1793.39 1530.35 Q1791.54 1530.77 1789.59 1531.65 L1789.59 1514.29 Z" fill="#000000" fill-rule="nonzero" fill-opacity="1" /><path clip-path="url(#clip420)" d="M2233.96 1544.91 L2241.6 1544.91 L2241.6 1518.55 L2233.29 1520.21 L2233.29 1515.95 L2241.55 1514.29 L2246.23 1514.29 L2246.23 1544.91 L2253.87 1544.91 L2253.87 1548.85 L2233.96 1548.85 L2233.96 1544.91 Z" fill="#000000" fill-rule="nonzero" fill-opacity="1" /><path clip-path="url(#clip420)" d="M2273.31 1517.37 Q2269.7 1517.37 2267.87 1520.93 Q2266.07 1524.47 2266.07 1531.6 Q2266.07 1538.71 2267.87 1542.27 Q2269.7 1545.82 2273.31 1545.82 Q2276.95 1545.82 2278.75 1542.27 Q2280.58 1538.71 2280.58 1531.6 Q2280.58 1524.47 2278.75 1520.93 Q2276.95 1517.37 2273.31 1517.37 M2273.31 1513.66 Q2279.12 1513.66 2282.18 1518.27 Q2285.26 1522.85 2285.26 1531.6 Q2285.26 1540.33 2282.18 1544.94 Q2279.12 1549.52 2273.31 1549.52 Q2267.5 1549.52 2264.42 1544.94 Q2261.37 1540.33 2261.37 1531.6 Q2261.37 1522.85 2264.42 1518.27 Q2267.5 1513.66 2273.31 1513.66 Z" fill="#000000" fill-rule="nonzero" fill-opacity="1" /><path clip-path="url(#clip420)" d="M2303.48 1517.37 Q2299.86 1517.37 2298.04 1520.93 Q2296.23 1524.47 2296.23 1531.6 Q2296.23 1538.71 2298.04 1542.27 Q2299.86 1545.82 2303.48 1545.82 Q2307.11 1545.82 2308.92 1542.27 Q2310.74 1538.71 2310.74 1531.6 Q2310.74 1524.47 2308.92 1520.93 Q2307.11 1517.37 2303.48 1517.37 M2303.48 1513.66 Q2309.29 1513.66 2312.34 1518.27 Q2315.42 1522.85 2315.42 1531.6 Q2315.42 1540.33 2312.34 1544.94 Q2309.29 1549.52 2303.48 1549.52 Q2297.67 1549.52 2294.59 1544.94 Q2291.53 1540.33 2291.53 1531.6 Q2291.53 1522.85 2294.59 1518.27 Q2297.67 1513.66 2303.48 1513.66 Z" fill="#000000" fill-rule="nonzero" fill-opacity="1" /><polyline clip-path="url(#clip420)" style="stroke:#000000; stroke-linecap:round; stroke-linejoin:round; stroke-width:4; stroke-opacity:1; fill:none" points="275.136,1486.45 275.136,47.2441 "/>
<polyline clip-path="url(#clip420)" style="stroke:#000000; stroke-linecap:round; stroke-linejoin:round; stroke-width:4; stroke-opacity:1; fill:none" points="275.136,1446.45 294.034,1446.45 "/>
<polyline clip-path="url(#clip420)" style="stroke:#000000; stroke-linecap:round; stroke-linejoin:round; stroke-width:4; stroke-opacity:1; fill:none" points="275.136,1091.06 294.034,1091.06 "/>
<polyline clip-path="url(#clip420)" style="stroke:#000000; stroke-linecap:round; stroke-linejoin:round; stroke-width:4; stroke-opacity:1; fill:none" points="275.136,735.672 294.034,735.672 "/>
<polyline clip-path="url(#clip420)" style="stroke:#000000; stroke-linecap:round; stroke-linejoin:round; stroke-width:4; stroke-opacity:1; fill:none" points="275.136,380.283 294.034,380.283 "/>
<path clip-path="url(#clip420)" d="M227.192 1432.25 Q223.581 1432.25 221.752 1435.81 Q219.947 1439.35 219.947 1446.48 Q219.947 1453.59 221.752 1457.16 Q223.581 1460.7 227.192 1460.7 Q230.826 1460.7 232.632 1457.16 Q234.46 1453.59 234.46 1446.48 Q234.46 1439.35 232.632 1435.81 Q230.826 1432.25 227.192 1432.25 M227.192 1428.54 Q233.002 1428.54 236.058 1433.15 Q239.136 1437.73 239.136 1446.48 Q239.136 1455.21 236.058 1459.82 Q233.002 1464.4 227.192 1464.4 Q221.382 1464.4 218.303 1459.82 Q215.248 1455.21 215.248 1446.48 Q215.248 1437.73 218.303 1433.15 Q221.382 1428.54 227.192 1428.54 Z" fill="#000000" fill-rule="nonzero" fill-opacity="1" /><path clip-path="url(#clip420)" d="M57.7745 1110.85 L74.0939 1110.85 L74.0939 1114.79 L52.1495 1114.79 L52.1495 1110.85 Q54.8115 1108.1 59.3949 1103.47 Q64.0013 1098.82 65.1819 1097.47 Q67.4272 1094.95 68.3068 1093.21 Q69.2096 1091.46 69.2096 1089.77 Q69.2096 1087.01 67.2652 1085.27 Q65.3439 1083.54 62.2421 1083.54 Q60.043 1083.54 57.5893 1084.3 Q55.1588 1085.07 52.381 1086.62 L52.381 1081.9 Q55.2051 1080.76 57.6588 1080.18 Q60.1124 1079.6 62.1495 1079.6 Q67.5198 1079.6 70.7142 1082.29 Q73.9087 1084.97 73.9087 1089.46 Q73.9087 1091.59 73.0985 1093.52 Q72.3115 1095.41 70.205 1098.01 Q69.6263 1098.68 66.5245 1101.9 Q63.4226 1105.09 57.7745 1110.85 Z" fill="#000000" fill-rule="nonzero" fill-opacity="1" /><path clip-path="url(#clip420)" d="M83.9086 1108.91 L88.7928 1108.91 L88.7928 1114.79 L83.9086 1114.79 L83.9086 1108.91 Z" fill="#000000" fill-rule="nonzero" fill-opacity="1" /><path clip-path="url(#clip420)" d="M108.978 1083.31 Q105.367 1083.31 103.538 1086.87 Q101.733 1090.41 101.733 1097.54 Q101.733 1104.65 103.538 1108.21 Q105.367 1111.76 108.978 1111.76 Q112.612 1111.76 114.418 1108.21 Q116.246 1104.65 116.246 1097.54 Q116.246 1090.41 114.418 1086.87 Q112.612 1083.31 108.978 1083.31 M108.978 1079.6 Q114.788 1079.6 117.844 1084.21 Q120.922 1088.79 120.922 1097.54 Q120.922 1106.27 117.844 1110.88 Q114.788 1115.46 108.978 1115.46 Q103.168 1115.46 100.089 1110.88 Q97.0335 1106.27 97.0335 1097.54 Q97.0335 1088.79 100.089 1084.21 Q103.168 1079.6 108.978 1079.6 Z" fill="#000000" fill-rule="nonzero" fill-opacity="1" /><path clip-path="url(#clip420)" d="M157.311 1089.33 L146.732 1099.95 L157.311 1110.53 L154.556 1113.33 L143.931 1102.71 L133.306 1113.33 L130.575 1110.53 L141.131 1099.95 L130.575 1089.33 L133.306 1086.52 L143.931 1097.15 L154.556 1086.52 L157.311 1089.33 Z" fill="#000000" fill-rule="nonzero" fill-opacity="1" /><path clip-path="url(#clip420)" d="M169.672 1110.85 L177.311 1110.85 L177.311 1084.49 L169.001 1086.15 L169.001 1081.9 L177.265 1080.23 L181.94 1080.23 L181.94 1110.85 L189.579 1110.85 L189.579 1114.79 L169.672 1114.79 L169.672 1110.85 Z" fill="#000000" fill-rule="nonzero" fill-opacity="1" /><path clip-path="url(#clip420)" d="M209.024 1083.31 Q205.413 1083.31 203.584 1086.87 Q201.778 1090.41 201.778 1097.54 Q201.778 1104.65 203.584 1108.21 Q205.413 1111.76 209.024 1111.76 Q212.658 1111.76 214.463 1108.21 Q216.292 1104.65 216.292 1097.54 Q216.292 1090.41 214.463 1086.87 Q212.658 1083.31 209.024 1083.31 M209.024 1079.6 Q214.834 1079.6 217.889 1084.21 Q220.968 1088.79 220.968 1097.54 Q220.968 1106.27 217.889 1110.88 Q214.834 1115.46 209.024 1115.46 Q203.214 1115.46 200.135 1110.88 Q197.079 1106.27 197.079 1097.54 Q197.079 1088.79 200.135 1084.21 Q203.214 1079.6 209.024 1079.6 Z" fill="#000000" fill-rule="nonzero" fill-opacity="1" /><path clip-path="url(#clip420)" d="M222.153 1059.3 L237.068 1059.3 L237.068 1062.5 L225.632 1062.5 L225.632 1069.38 Q226.46 1069.1 227.287 1068.97 Q228.115 1068.81 228.943 1068.81 Q233.645 1068.81 236.39 1071.39 Q239.136 1073.97 239.136 1078.37 Q239.136 1082.9 236.315 1085.42 Q233.494 1087.92 228.36 1087.92 Q226.592 1087.92 224.748 1087.62 Q222.924 1087.32 220.968 1086.72 L220.968 1082.9 Q222.661 1083.82 224.466 1084.27 Q226.272 1084.73 228.284 1084.73 Q231.538 1084.73 233.438 1083.01 Q235.337 1081.3 235.337 1078.37 Q235.337 1075.44 233.438 1073.72 Q231.538 1072.01 228.284 1072.01 Q226.761 1072.01 225.237 1072.35 Q223.733 1072.69 222.153 1073.4 L222.153 1059.3 Z" fill="#000000" fill-rule="nonzero" fill-opacity="1" /><path clip-path="url(#clip420)" d="M66.5939 728.914 L54.7884 747.363 L66.5939 747.363 L66.5939 728.914 M65.367 724.84 L71.2466 724.84 L71.2466 747.363 L76.1772 747.363 L76.1772 751.252 L71.2466 751.252 L71.2466 759.4 L66.5939 759.4 L66.5939 751.252 L50.9921 751.252 L50.9921 746.738 L65.367 724.84 Z" fill="#000000" fill-rule="nonzero" fill-opacity="1" /><path clip-path="url(#clip420)" d="M83.9086 753.52 L88.7928 753.52 L88.7928 759.4 L83.9086 759.4 L83.9086 753.52 Z" fill="#000000" fill-rule="nonzero" fill-opacity="1" /><path clip-path="url(#clip420)" d="M108.978 727.919 Q105.367 727.919 103.538 731.483 Q101.733 735.025 101.733 742.155 Q101.733 749.261 103.538 752.826 Q105.367 756.367 108.978 756.367 Q112.612 756.367 114.418 752.826 Q116.246 749.261 116.246 742.155 Q116.246 735.025 114.418 731.483 Q112.612 727.919 108.978 727.919 M108.978 724.215 Q114.788 724.215 117.844 728.821 Q120.922 733.405 120.922 742.155 Q120.922 750.881 117.844 755.488 Q114.788 760.071 108.978 760.071 Q103.168 760.071 100.089 755.488 Q97.0335 750.881 97.0335 742.155 Q97.0335 733.405 100.089 728.821 Q103.168 724.215 108.978 724.215 Z" fill="#000000" fill-rule="nonzero" fill-opacity="1" /><path clip-path="url(#clip420)" d="M157.311 733.937 L146.732 744.562 L157.311 755.141 L154.556 757.941 L143.931 747.317 L133.306 757.941 L130.575 755.141 L141.131 744.562 L130.575 733.937 L133.306 731.136 L143.931 741.761 L154.556 731.136 L157.311 733.937 Z" fill="#000000" fill-rule="nonzero" fill-opacity="1" /><path clip-path="url(#clip420)" d="M169.672 755.465 L177.311 755.465 L177.311 729.099 L169.001 730.766 L169.001 726.506 L177.265 724.84 L181.94 724.84 L181.94 755.465 L189.579 755.465 L189.579 759.4 L169.672 759.4 L169.672 755.465 Z" fill="#000000" fill-rule="nonzero" fill-opacity="1" /><path clip-path="url(#clip420)" d="M209.024 727.919 Q205.413 727.919 203.584 731.483 Q201.778 735.025 201.778 742.155 Q201.778 749.261 203.584 752.826 Q205.413 756.367 209.024 756.367 Q212.658 756.367 214.463 752.826 Q216.292 749.261 216.292 742.155 Q216.292 735.025 214.463 731.483 Q212.658 727.919 209.024 727.919 M209.024 724.215 Q214.834 724.215 217.889 728.821 Q220.968 733.405 220.968 742.155 Q220.968 750.881 217.889 755.488 Q214.834 760.071 209.024 760.071 Q203.214 760.071 200.135 755.488 Q197.079 750.881 197.079 742.155 Q197.079 733.405 200.135 728.821 Q203.214 724.215 209.024 724.215 Z" fill="#000000" fill-rule="nonzero" fill-opacity="1" /><path clip-path="url(#clip420)" d="M222.153 703.909 L237.068 703.909 L237.068 707.107 L225.632 707.107 L225.632 713.99 Q226.46 713.708 227.287 713.577 Q228.115 713.426 228.943 713.426 Q233.645 713.426 236.39 716.003 Q239.136 718.579 239.136 722.98 Q239.136 727.513 236.315 730.033 Q233.494 732.535 228.36 732.535 Q226.592 732.535 224.748 732.234 Q222.924 731.933 220.968 731.331 L220.968 727.513 Q222.661 728.435 224.466 728.886 Q226.272 729.338 228.284 729.338 Q231.538 729.338 233.438 727.626 Q235.337 725.915 235.337 722.98 Q235.337 720.046 233.438 718.335 Q231.538 716.623 228.284 716.623 Q226.761 716.623 225.237 716.962 Q223.733 717.301 222.153 718.015 L222.153 703.909 Z" fill="#000000" fill-rule="nonzero" fill-opacity="1" /><path clip-path="url(#clip420)" d="M64.3254 384.868 Q61.1773 384.868 59.3254 387.02 Q57.4967 389.173 57.4967 392.923 Q57.4967 396.65 59.3254 398.826 Q61.1773 400.979 64.3254 400.979 Q67.4735 400.979 69.3022 398.826 Q71.1541 396.65 71.1541 392.923 Q71.1541 389.173 69.3022 387.02 Q67.4735 384.868 64.3254 384.868 M73.6077 370.215 L73.6077 374.474 Q71.8485 373.641 70.0429 373.201 Q68.2606 372.761 66.5013 372.761 Q61.8717 372.761 59.418 375.886 Q56.9875 379.011 56.6402 385.331 Q58.006 383.317 60.0662 382.252 Q62.1263 381.164 64.6032 381.164 Q69.8115 381.164 72.8207 384.335 Q75.8531 387.483 75.8531 392.923 Q75.8531 398.247 72.705 401.465 Q69.5568 404.682 64.3254 404.682 Q58.33 404.682 55.1588 400.099 Q51.9875 395.493 51.9875 386.766 Q51.9875 378.571 55.8764 373.71 Q59.7652 368.826 66.3161 368.826 Q68.0754 368.826 69.8578 369.173 Q71.6633 369.521 73.6077 370.215 Z" fill="#000000" fill-rule="nonzero" fill-opacity="1" /><path clip-path="url(#clip420)" d="M83.9086 398.132 L88.7928 398.132 L88.7928 404.011 L83.9086 404.011 L83.9086 398.132 Z" fill="#000000" fill-rule="nonzero" fill-opacity="1" /><path clip-path="url(#clip420)" d="M108.978 372.53 Q105.367 372.53 103.538 376.095 Q101.733 379.636 101.733 386.766 Q101.733 393.872 103.538 397.437 Q105.367 400.979 108.978 400.979 Q112.612 400.979 114.418 397.437 Q116.246 393.872 116.246 386.766 Q116.246 379.636 114.418 376.095 Q112.612 372.53 108.978 372.53 M108.978 368.826 Q114.788 368.826 117.844 373.433 Q120.922 378.016 120.922 386.766 Q120.922 395.493 117.844 400.099 Q114.788 404.682 108.978 404.682 Q103.168 404.682 100.089 400.099 Q97.0335 395.493 97.0335 386.766 Q97.0335 378.016 100.089 373.433 Q103.168 368.826 108.978 368.826 Z" fill="#000000" fill-rule="nonzero" fill-opacity="1" /><path clip-path="url(#clip420)" d="M157.311 378.548 L146.732 389.173 L157.311 399.752 L154.556 402.553 L143.931 391.928 L133.306 402.553 L130.575 399.752 L141.131 389.173 L130.575 378.548 L133.306 375.747 L143.931 386.372 L154.556 375.747 L157.311 378.548 Z" fill="#000000" fill-rule="nonzero" fill-opacity="1" /><path clip-path="url(#clip420)" d="M169.672 400.076 L177.311 400.076 L177.311 373.71 L169.001 375.377 L169.001 371.118 L177.265 369.451 L181.94 369.451 L181.94 400.076 L189.579 400.076 L189.579 404.011 L169.672 404.011 L169.672 400.076 Z" fill="#000000" fill-rule="nonzero" fill-opacity="1" /><path clip-path="url(#clip420)" d="M209.024 372.53 Q205.413 372.53 203.584 376.095 Q201.778 379.636 201.778 386.766 Q201.778 393.872 203.584 397.437 Q205.413 400.979 209.024 400.979 Q212.658 400.979 214.463 397.437 Q216.292 393.872 216.292 386.766 Q216.292 379.636 214.463 376.095 Q212.658 372.53 209.024 372.53 M209.024 368.826 Q214.834 368.826 217.889 373.433 Q220.968 378.016 220.968 386.766 Q220.968 395.493 217.889 400.099 Q214.834 404.682 209.024 404.682 Q203.214 404.682 200.135 400.099 Q197.079 395.493 197.079 386.766 Q197.079 378.016 200.135 373.433 Q203.214 368.826 209.024 368.826 Z" fill="#000000" fill-rule="nonzero" fill-opacity="1" /><path clip-path="url(#clip420)" d="M222.153 348.521 L237.068 348.521 L237.068 351.718 L225.632 351.718 L225.632 358.602 Q226.46 358.32 227.287 358.188 Q228.115 358.037 228.943 358.037 Q233.645 358.037 236.39 360.614 Q239.136 363.191 239.136 367.592 Q239.136 372.124 236.315 374.645 Q233.494 377.146 228.36 377.146 Q226.592 377.146 224.748 376.845 Q222.924 376.544 220.968 375.942 L220.968 372.124 Q222.661 373.046 224.466 373.497 Q226.272 373.949 228.284 373.949 Q231.538 373.949 233.438 372.237 Q235.337 370.526 235.337 367.592 Q235.337 364.658 233.438 362.946 Q231.538 361.235 228.284 361.235 Q226.761 361.235 225.237 361.573 Q223.733 361.912 222.153 362.627 L222.153 348.521 Z" fill="#000000" fill-rule="nonzero" fill-opacity="1" /><polyline clip-path="url(#clip422)" style="stroke:#009af9; stroke-linecap:round; stroke-linejoin:round; stroke-width:4; stroke-opacity:1; fill:none" points="333.937,87.9763 353.537,92.6608 373.137,97.6624 392.737,103.211 412.338,109.31 431.938,115.946 451.538,123.101 471.138,130.76 490.738,138.907 510.339,147.526 529.939,156.601 549.539,166.12 569.139,176.067 588.739,186.43 608.34,197.196 627.94,208.352 647.54,219.885 667.14,231.783 686.74,244.034 706.34,256.626 725.941,269.548 745.541,282.788 765.141,296.334 784.741,310.175 804.341,324.298 823.942,338.694 843.542,353.351 863.142,368.257 882.742,383.4 902.342,398.771 921.942,414.357 941.543,430.148 961.143,446.131 980.743,462.296 1000.34,478.632 1019.94,495.126 1039.54,511.769 1059.14,528.548 1078.74,545.453 1098.34,562.471 1117.94,579.591 1137.54,596.802 1157.14,614.093 1176.74,631.451 1196.35,648.866 1215.95,666.325 1235.55,683.816 1255.15,701.329 1274.75,718.851 1294.35,736.371 1313.95,753.876 1333.55,771.354 1353.15,788.793 1372.75,806.182 1392.35,823.508 1411.95,840.758 1431.55,857.92 1451.15,874.982 1470.75,891.931 1490.35,908.755 1509.95,925.44 1529.55,941.974 1549.15,958.344 1568.75,974.536 1588.35,990.537 1607.95,1006.33 1627.55,1021.91 1647.15,1037.26 1666.75,1052.36 1686.35,1067.21 1705.95,1081.78 1725.55,1096.06 1745.15,1110.04 1764.75,1123.7 1784.35,1137.02 1803.95,1150 1823.55,1162.61 1843.15,1174.84 1862.75,1186.68 1882.35,1198.1 1901.95,1209.08 1921.55,1219.62 1941.15,1229.68 1960.75,1239.26 1980.35,1248.32 1999.95,1256.86 2019.55,1264.85 2039.15,1272.28 2058.75,1279.14 2078.35,1285.47 2097.95,1291.33 2117.55,1296.96 2137.15,1302.83 2156.75,1310 2176.35,1320.51 2195.95,1337.5 2215.55,1363.45 2235.15,1396.13 2254.75,1424.17 2274.36,1439.76 2293.96,1445.72 "/>
<path clip-path="url(#clip420)" d="M2023.31 198.898 L2283.5 198.898 L2283.5 95.2176 L2023.31 95.2176  Z" fill="#ffffff" fill-rule="evenodd" fill-opacity="1"/>
<polyline clip-path="url(#clip420)" style="stroke:#000000; stroke-linecap:round; stroke-linejoin:round; stroke-width:4; stroke-opacity:1; fill:none" points="2023.31,198.898 2283.5,198.898 2283.5,95.2176 2023.31,95.2176 2023.31,198.898 "/>
<polyline clip-path="url(#clip420)" style="stroke:#009af9; stroke-linecap:round; stroke-linejoin:round; stroke-width:4; stroke-opacity:1; fill:none" points="2046.39,147.058 2184.9,147.058 "/>
<path clip-path="url(#clip420)" d="M2221.83 166.745 Q2220.02 171.375 2218.31 172.787 Q2216.6 174.199 2213.73 174.199 L2210.32 174.199 L2210.32 170.634 L2212.82 170.634 Q2214.58 170.634 2215.56 169.8 Q2216.53 168.967 2217.71 165.865 L2218.47 163.921 L2207.99 138.412 L2212.5 138.412 L2220.6 158.689 L2228.7 138.412 L2233.22 138.412 L2221.83 166.745 Z" fill="#000000" fill-rule="nonzero" fill-opacity="1" /><path clip-path="url(#clip420)" d="M2240.51 160.402 L2248.15 160.402 L2248.15 134.037 L2239.84 135.703 L2239.84 131.444 L2248.1 129.778 L2252.78 129.778 L2252.78 160.402 L2260.42 160.402 L2260.42 164.338 L2240.51 164.338 L2240.51 160.402 Z" fill="#000000" fill-rule="nonzero" fill-opacity="1" /></svg>
