<?xml version="1.0" encoding="UTF-8" standalone="no"?>
<!DOCTYPE svg PUBLIC "-//W3C//DTD SVG 1.1//EN"
 "http://www.w3.org/Graphics/SVG/1.1/DTD/svg11.dtd">
<!-- Generated by graphviz version 12.1.2 (20240928.0832)
 -->
<!-- Title: G Pages: 1 -->
<svg width="1246pt" height="599pt"
 viewBox="0.00 0.00 1246.03 598.86" xmlns="http://www.w3.org/2000/svg" xmlns:xlink="http://www.w3.org/1999/xlink">
<g id="graph0" class="graph" transform="scale(1 1) rotate(0) translate(4 594.86)">
<title>G</title>
<polygon fill="white" stroke="none" points="-4,4 -4,-594.86 1242.03,-594.86 1242.03,4 -4,4"/>
<!-- VacuumFields -->
<g id="node1" class="node">
<title>VacuumFields</title>
<ellipse fill="none" stroke="black" stroke-width="3" cx="363.01" cy="-293" rx="56.14" ry="18"/>
<text text-anchor="middle" x="363.01" y="-287.98" font-family="Helvetica,sans-Serif" font-size="12.00">VacuumFields</text>
</g>
<!-- FusionMaterials -->
<g id="node2" class="node">
<title>FusionMaterials</title>
<ellipse fill="none" stroke="black" stroke-width="3" cx="540.54" cy="-454" rx="62.1" ry="18"/>
<text text-anchor="middle" x="540.54" y="-448.98" font-family="Helvetica,sans-Serif" font-size="12.00">FusionMaterials</text>
</g>
<!-- VacuumFields&#45;&gt;FusionMaterials -->
<g id="edge1" class="edge">
<title>VacuumFields&#45;&gt;FusionMaterials</title>
<path fill="none" stroke="#a718be" stroke-width="2" d="M376.1,-311.67C391.46,-334.42 419.7,-373.13 450.45,-400 464.01,-411.85 480.51,-422.66 495.61,-431.44"/>
<polygon fill="#a718be" stroke="#a718be" stroke-width="2" points="493.74,-434.4 504.17,-436.25 497.17,-428.3 493.74,-434.4"/>
</g>
<!-- MXHEquilibrium -->
<g id="node3" class="node">
<title>MXHEquilibrium</title>
<ellipse fill="none" stroke="black" stroke-width="3" cx="741.94" cy="-249" rx="63.48" ry="18"/>
<text text-anchor="middle" x="741.94" y="-243.97" font-family="Helvetica,sans-Serif" font-size="12.00">MXHEquilibrium</text>
</g>
<!-- VacuumFields&#45;&gt;MXHEquilibrium -->
<g id="edge2" class="edge">
<title>VacuumFields&#45;&gt;MXHEquilibrium</title>
<path fill="none" stroke="#cf45f1" stroke-width="2" d="M394.73,-276.96C410.85,-269.39 431.21,-261.12 450.45,-257 522.45,-241.57 606.78,-241.13 665.97,-243.61"/>
<polygon fill="#cf45f1" stroke="#cf45f1" stroke-width="2" points="665.78,-247.11 675.93,-244.08 666.11,-240.11 665.78,-247.11"/>
</g>
<!-- IMAS -->
<g id="node6" class="node">
<title>IMAS</title>
<ellipse fill="none" stroke="black" stroke-width="3" cx="741.94" cy="-467" rx="27.69" ry="18"/>
<text text-anchor="middle" x="741.94" y="-461.98" font-family="Helvetica,sans-Serif" font-size="12.00">IMAS</text>
</g>
<!-- VacuumFields&#45;&gt;IMAS -->
<g id="edge14" class="edge">
<title>VacuumFields&#45;&gt;IMAS</title>
<path fill="none" stroke="#5aacc3" stroke-width="2" d="M375.81,-311.92C390.48,-333.73 417.64,-368.9 450.45,-387 521.73,-426.34 557.2,-384.86 630.64,-420 645.99,-427.34 644.61,-437.02 659.64,-445 672.46,-451.8 687.57,-456.64 701.25,-460.01"/>
<polygon fill="#5aacc3" stroke="#5aacc3" stroke-width="2" points="700.34,-463.39 710.86,-462.15 701.86,-456.56 700.34,-463.39"/>
</g>
<!-- MillerExtendedHarmonic -->
<g id="node17" class="node">
<title>MillerExtendedHarmonic</title>
<ellipse fill="none" stroke="black" stroke-width="3" cx="943.79" cy="-278" rx="90.56" ry="18"/>
<text text-anchor="middle" x="943.79" y="-272.98" font-family="Helvetica,sans-Serif" font-size="12.00">MillerExtendedHarmonic</text>
</g>
<!-- VacuumFields&#45;&gt;MillerExtendedHarmonic -->
<g id="edge26" class="edge">
<title>VacuumFields&#45;&gt;MillerExtendedHarmonic</title>
<path fill="none" stroke="#c59c50" stroke-width="2" d="M418.85,-297.38C429.33,-298.06 440.22,-298.65 450.45,-299 530.49,-301.77 550.6,-301.69 630.64,-299 702.73,-296.58 784.03,-291.02 845.58,-286.23"/>
<polygon fill="#c59c50" stroke="#c59c50" stroke-width="2" points="845.69,-289.73 855.39,-285.45 845.15,-282.75 845.69,-289.73"/>
</g>
<!-- TEQUILA -->
<g id="node19" class="node">
<title>TEQUILA</title>
<ellipse fill="none" stroke="black" stroke-width="3" cx="540.54" cy="-205" rx="41.45" ry="18"/>
<text text-anchor="middle" x="540.54" y="-199.97" font-family="Helvetica,sans-Serif" font-size="12.00">TEQUILA</text>
</g>
<!-- VacuumFields&#45;&gt;TEQUILA -->
<g id="edge27" class="edge">
<title>VacuumFields&#45;&gt;TEQUILA</title>
<path fill="none" stroke="#14196a" stroke-width="2" d="M391.65,-276.37C408.42,-266.52 430.4,-254.04 450.45,-244 465.19,-236.62 481.65,-229.19 496.37,-222.83"/>
<polygon fill="#14196a" stroke="#14196a" stroke-width="2" points="497.65,-226.09 505.47,-218.95 494.9,-219.66 497.65,-226.09"/>
</g>
<!-- FusionMaterials&#45;&gt;IMAS -->
<g id="edge24" class="edge">
<title>FusionMaterials&#45;&gt;IMAS</title>
<path fill="none" stroke="#60a83a" stroke-width="2" d="M602.72,-457.99C634.3,-460.05 671.98,-462.5 700.01,-464.33"/>
<polygon fill="#60a83a" stroke="#60a83a" stroke-width="2" points="699.7,-467.82 709.91,-464.98 700.15,-460.83 699.7,-467.82"/>
</g>
<!-- CoordinateConventions -->
<g id="node16" class="node">
<title>CoordinateConventions</title>
<ellipse fill="none" stroke="black" stroke-width="3" cx="1150.69" cy="-459" rx="87.34" ry="18"/>
<text text-anchor="middle" x="1150.69" y="-453.98" font-family="Helvetica,sans-Serif" font-size="12.00">CoordinateConventions</text>
</g>
<!-- MXHEquilibrium&#45;&gt;CoordinateConventions -->
<g id="edge17" class="edge">
<title>MXHEquilibrium&#45;&gt;CoordinateConventions</title>
<path fill="none" stroke="#37c0ad" stroke-width="2" d="M792.08,-236.62C853.48,-224.07 959.56,-212.2 1034.34,-257 1097.23,-294.67 1128.92,-380.47 1142.05,-427.21"/>
<polygon fill="#37c0ad" stroke="#37c0ad" stroke-width="2" points="1138.6,-427.87 1144.55,-436.63 1145.36,-426.07 1138.6,-427.87"/>
</g>
<!-- MXHEquilibrium&#45;&gt;MillerExtendedHarmonic -->
<g id="edge44" class="edge">
<title>MXHEquilibrium&#45;&gt;MillerExtendedHarmonic</title>
<path fill="none" stroke="#822393" stroke-width="2" d="M800.47,-257.35C817.53,-259.82 836.6,-262.59 855.1,-265.28"/>
<polygon fill="#822393" stroke="#822393" stroke-width="2" points="854.4,-268.71 864.8,-266.68 855.4,-261.78 854.4,-268.71"/>
</g>
<!-- FUSE -->
<g id="node4" class="node">
<title>FUSE</title>
<ellipse fill="none" stroke="black" stroke-width="3" cx="29.98" cy="-293" rx="29.98" ry="18"/>
<text text-anchor="middle" x="29.98" y="-287.98" font-family="Helvetica,sans-Serif" font-size="12.00">FUSE</text>
</g>
<!-- FUSE&#45;&gt;VacuumFields -->
<g id="edge32" class="edge">
<title>FUSE&#45;&gt;VacuumFields</title>
<path fill="none" stroke="#47211a" stroke-width="2" d="M61.24,-293C113.3,-293 221.11,-293 292.5,-293"/>
<polygon fill="#47211a" stroke="#47211a" stroke-width="2" points="292.36,-296.5 302.36,-293 292.36,-289.5 292.36,-296.5"/>
</g>
<!-- FUSE&#45;&gt;FusionMaterials -->
<g id="edge46" class="edge">
<title>FUSE&#45;&gt;FusionMaterials</title>
<path fill="none" stroke="#122617" stroke-width="2" d="M34.02,-312.05C39.55,-339.83 54.09,-390.8 88.96,-415 104.17,-425.55 341.47,-441.72 465.41,-449.51"/>
<polygon fill="#122617" stroke="#122617" stroke-width="2" points="464.9,-452.98 475.1,-450.11 465.34,-445.99 464.9,-452.98"/>
</g>
<!-- FUSE&#45;&gt;MXHEquilibrium -->
<g id="edge45" class="edge">
<title>FUSE&#45;&gt;MXHEquilibrium</title>
<path fill="none" stroke="#5470d7" stroke-width="2" d="M55.95,-282.32C66.03,-278.44 77.88,-274.42 88.96,-272 324.52,-220.52 389.65,-234.36 630.64,-242 642.12,-242.36 654.26,-242.94 666.12,-243.61"/>
<polygon fill="#5470d7" stroke="#5470d7" stroke-width="2" points="665.63,-247.09 675.82,-244.19 666.05,-240.1 665.63,-247.09"/>
</g>
<!-- QED -->
<g id="node5" class="node">
<title>QED</title>
<ellipse fill="none" stroke="black" stroke-width="3" cx="363.01" cy="-191" rx="27" ry="18"/>
<text text-anchor="middle" x="363.01" y="-185.97" font-family="Helvetica,sans-Serif" font-size="12.00">QED</text>
</g>
<!-- FUSE&#45;&gt;QED -->
<g id="edge3" class="edge">
<title>FUSE&#45;&gt;QED</title>
<path fill="none" stroke="#a961a5" stroke-width="2" d="M41.83,-274.96C51.98,-259.87 68.6,-239.23 88.96,-229 126.19,-210.3 234.46,-217.71 275.58,-211 291.57,-208.39 309.01,-204.55 324.01,-200.93"/>
<polygon fill="#a961a5" stroke="#a961a5" stroke-width="2" points="324.67,-204.37 333.53,-198.57 322.98,-197.58 324.67,-204.37"/>
</g>
<!-- FUSE&#45;&gt;IMAS -->
<g id="edge4" class="edge">
<title>FUSE&#45;&gt;IMAS</title>
<path fill="none" stroke="#a3a804" stroke-width="2" d="M30.91,-312.23C31.91,-349.4 39.92,-430.88 88.96,-470 136.02,-507.54 570.66,-486.09 630.64,-481 654.1,-479.01 680.25,-475.74 701.19,-472.86"/>
<polygon fill="#a3a804" stroke="#a3a804" stroke-width="2" points="701.39,-476.36 710.81,-471.5 700.42,-469.43 701.39,-476.36"/>
</g>
<!-- TGLFNN -->
<g id="node7" class="node">
<title>TGLFNN</title>
<ellipse fill="none" stroke="black" stroke-width="3" cx="540.54" cy="-542" rx="39.62" ry="18"/>
<text text-anchor="middle" x="540.54" y="-536.98" font-family="Helvetica,sans-Serif" font-size="12.00">TGLFNN</text>
</g>
<!-- FUSE&#45;&gt;TGLFNN -->
<g id="edge5" class="edge">
<title>FUSE&#45;&gt;TGLFNN</title>
<path fill="none" stroke="#df8e6e" stroke-width="2" d="M32.86,-312.13C38.28,-363.15 55.74,-500.5 88.96,-529 204.89,-628.42 405.92,-583.82 494.93,-557"/>
<polygon fill="#df8e6e" stroke="#df8e6e" stroke-width="2" points="495.82,-560.39 504.33,-554.08 493.74,-553.7 495.82,-560.39"/>
</g>
<!-- NEO -->
<g id="node8" class="node">
<title>NEO</title>
<ellipse fill="none" stroke="black" stroke-width="3" cx="363.01" cy="-469" rx="27" ry="18"/>
<text text-anchor="middle" x="363.01" y="-463.98" font-family="Helvetica,sans-Serif" font-size="12.00">NEO</text>
</g>
<!-- FUSE&#45;&gt;NEO -->
<g id="edge6" class="edge">
<title>FUSE&#45;&gt;NEO</title>
<path fill="none" stroke="#8d476e" stroke-width="2" d="M32.09,-312.44C35.13,-345.66 46.48,-412.91 88.96,-445 157.68,-496.92 265.72,-487.42 323.12,-477.4"/>
<polygon fill="#8d476e" stroke="#8d476e" stroke-width="2" points="323.75,-480.84 332.93,-475.57 322.46,-473.96 323.75,-480.84"/>
</g>
<!-- TJLF -->
<g id="node9" class="node">
<title>TJLF</title>
<ellipse fill="none" stroke="black" stroke-width="3" cx="182.27" cy="-190" rx="27" ry="18"/>
<text text-anchor="middle" x="182.27" y="-184.97" font-family="Helvetica,sans-Serif" font-size="12.00">TJLF</text>
</g>
<!-- FUSE&#45;&gt;TJLF -->
<g id="edge7" class="edge">
<title>FUSE&#45;&gt;TJLF</title>
<path fill="none" stroke="#d52d9c" stroke-width="2" d="M39.64,-274.79C49.21,-256.66 66.29,-229.38 88.96,-214 104.47,-203.48 124.3,-197.57 141.61,-194.25"/>
<polygon fill="#d52d9c" stroke="#d52d9c" stroke-width="2" points="141.95,-197.75 151.25,-192.68 140.81,-190.84 141.95,-197.75"/>
</g>
<!-- CHEASE -->
<g id="node10" class="node">
<title>CHEASE</title>
<ellipse fill="none" stroke="black" stroke-width="3" cx="540.54" cy="-278" rx="40.99" ry="18"/>
<text text-anchor="middle" x="540.54" y="-272.98" font-family="Helvetica,sans-Serif" font-size="12.00">CHEASE</text>
</g>
<!-- FUSE&#45;&gt;CHEASE -->
<g id="edge36" class="edge">
<title>FUSE&#45;&gt;CHEASE</title>
<path fill="none" stroke="#7ac6b1" stroke-width="2" d="M60.9,-289.95C111.17,-284.99 215.8,-275.4 304.58,-272 356.48,-270.01 369.52,-270.68 421.45,-272 442.49,-272.53 465.62,-273.6 485.8,-274.69"/>
<polygon fill="#7ac6b1" stroke="#7ac6b1" stroke-width="2" points="485.37,-278.17 495.55,-275.24 485.76,-271.19 485.37,-278.17"/>
</g>
<!-- IMASutils -->
<g id="node11" class="node">
<title>IMASutils</title>
<ellipse fill="none" stroke="black" stroke-width="3" cx="943.79" cy="-366" rx="40.99" ry="18"/>
<text text-anchor="middle" x="943.79" y="-360.98" font-family="Helvetica,sans-Serif" font-size="12.00">IMASutils</text>
</g>
<!-- FUSE&#45;&gt;IMASutils -->
<g id="edge9" class="edge">
<title>FUSE&#45;&gt;IMASutils</title>
<path fill="none" stroke="#f779fe" stroke-width="2" d="M61.07,-295.66C70.04,-296.44 79.9,-297.27 88.96,-298 184.75,-305.68 208.7,-307.58 304.58,-314 535.43,-329.45 594.46,-317.89 824.23,-345 846.75,-347.66 871.48,-351.83 892.49,-355.76"/>
<polygon fill="#f779fe" stroke="#f779fe" stroke-width="2" points="891.59,-359.16 902.07,-357.6 892.91,-352.28 891.59,-359.16"/>
</g>
<!-- BoundaryPlasmaModels -->
<g id="node13" class="node">
<title>BoundaryPlasmaModels</title>
<ellipse fill="none" stroke="black" stroke-width="3" cx="540.54" cy="-366" rx="90.1" ry="18"/>
<text text-anchor="middle" x="540.54" y="-360.98" font-family="Helvetica,sans-Serif" font-size="12.00">BoundaryPlasmaModels</text>
</g>
<!-- FUSE&#45;&gt;BoundaryPlasmaModels -->
<g id="edge40" class="edge">
<title>FUSE&#45;&gt;BoundaryPlasmaModels</title>
<path fill="none" stroke="#27be57" stroke-width="2" d="M41.18,-311.11C51.11,-326.74 67.8,-348.29 88.96,-358 210.88,-413.92 371.57,-398.53 464.44,-382.26"/>
<polygon fill="#27be57" stroke="#27be57" stroke-width="2" points="464.89,-385.74 474.1,-380.51 463.64,-378.85 464.89,-385.74"/>
</g>
<!-- SimulationParameters -->
<g id="node14" class="node">
<title>SimulationParameters</title>
<ellipse fill="none" stroke="black" stroke-width="3" cx="741.94" cy="-424" rx="82.3" ry="18"/>
<text text-anchor="middle" x="741.94" y="-418.98" font-family="Helvetica,sans-Serif" font-size="12.00">SimulationParameters</text>
</g>
<!-- FUSE&#45;&gt;SimulationParameters -->
<g id="edge28" class="edge">
<title>FUSE&#45;&gt;SimulationParameters</title>
<path fill="none" stroke="#e17a0d" stroke-width="2" d="M37.37,-311.73C45.66,-332.83 62.29,-366.24 88.96,-382 135.63,-409.57 476.08,-419.39 645.59,-422.59"/>
<polygon fill="#e17a0d" stroke="#e17a0d" stroke-width="2" points="645.39,-426.09 655.46,-422.77 645.52,-419.09 645.39,-426.09"/>
</g>
<!-- FRESCO -->
<g id="node15" class="node">
<title>FRESCO</title>
<ellipse fill="none" stroke="black" stroke-width="3" cx="182.27" cy="-337" rx="40.99" ry="18"/>
<text text-anchor="middle" x="182.27" y="-331.98" font-family="Helvetica,sans-Serif" font-size="12.00">FRESCO</text>
</g>
<!-- FUSE&#45;&gt;FRESCO -->
<g id="edge19" class="edge">
<title>FUSE&#45;&gt;FRESCO</title>
<path fill="none" stroke="#25f5c7" stroke-width="2" d="M57.11,-302.5C67.03,-305.97 78.46,-309.83 88.96,-313 102.92,-317.21 118.2,-321.37 132.23,-325.01"/>
<polygon fill="#25f5c7" stroke="#25f5c7" stroke-width="2" points="131.21,-328.36 141.77,-327.44 132.94,-321.58 131.21,-328.36"/>
</g>
<!-- RABBIT -->
<g id="node18" class="node">
<title>RABBIT</title>
<ellipse fill="none" stroke="black" stroke-width="3" cx="182.27" cy="-147" rx="36.86" ry="18"/>
<text text-anchor="middle" x="182.27" y="-141.97" font-family="Helvetica,sans-Serif" font-size="12.00">RABBIT</text>
</g>
<!-- FUSE&#45;&gt;RABBIT -->
<g id="edge22" class="edge">
<title>FUSE&#45;&gt;RABBIT</title>
<path fill="none" stroke="#4f18a1" stroke-width="2" d="M34.51,-273.85C40.61,-246.35 55.8,-196.02 88.96,-169 100.92,-159.26 116.47,-153.7 131.39,-150.57"/>
<polygon fill="#4f18a1" stroke="#4f18a1" stroke-width="2" points="131.97,-154.02 141.24,-148.9 130.8,-147.12 131.97,-154.02"/>
</g>
<!-- FUSE&#45;&gt;TEQUILA -->
<g id="edge25" class="edge">
<title>FUSE&#45;&gt;TEQUILA</title>
<path fill="none" stroke="#1edddb" stroke-width="2" d="M45.41,-276.3C56.18,-265.07 71.93,-251.08 88.96,-244 98.03,-240.23 368.05,-218.54 485.67,-209.24"/>
<polygon fill="#1edddb" stroke="#1edddb" stroke-width="2" points="485.85,-212.73 495.54,-208.46 485.3,-205.75 485.85,-212.73"/>
</g>
<!-- TroyonBetaNN -->
<g id="node20" class="node">
<title>TroyonBetaNN</title>
<ellipse fill="none" stroke="black" stroke-width="3" cx="363.01" cy="-527" rx="58.43" ry="18"/>
<text text-anchor="middle" x="363.01" y="-521.98" font-family="Helvetica,sans-Serif" font-size="12.00">TroyonBetaNN</text>
</g>
<!-- FUSE&#45;&gt;TroyonBetaNN -->
<g id="edge31" class="edge">
<title>FUSE&#45;&gt;TroyonBetaNN</title>
<path fill="none" stroke="#206cf1" stroke-width="2" d="M33.47,-312.07C40.01,-359.03 59.25,-478.25 88.96,-503 147.55,-551.81 239.78,-548.92 300.58,-539.92"/>
<polygon fill="#206cf1" stroke="#206cf1" stroke-width="2" points="301.12,-543.38 310.44,-538.34 300.01,-536.47 301.12,-543.38"/>
</g>
<!-- EPEDNN -->
<g id="node21" class="node">
<title>EPEDNN</title>
<ellipse fill="none" stroke="black" stroke-width="3" cx="182.27" cy="-104" rx="41.45" ry="18"/>
<text text-anchor="middle" x="182.27" y="-98.97" font-family="Helvetica,sans-Serif" font-size="12.00">EPEDNN</text>
</g>
<!-- FUSE&#45;&gt;EPEDNN -->
<g id="edge30" class="edge">
<title>FUSE&#45;&gt;EPEDNN</title>
<path fill="none" stroke="#75d23a" stroke-width="2" d="M31.89,-273.77C34.61,-238.93 45.49,-165.32 88.96,-126 99.44,-116.52 113.26,-110.93 127,-107.67"/>
<polygon fill="#75d23a" stroke="#75d23a" stroke-width="2" points="127.35,-111.17 136.52,-105.87 126.05,-104.29 127.35,-111.17"/>
</g>
<!-- BalanceOfPlantSurrogate -->
<g id="node23" class="node">
<title>BalanceOfPlantSurrogate</title>
<ellipse fill="none" stroke="black" stroke-width="3" cx="182.27" cy="-61" rx="93.31" ry="18"/>
<text text-anchor="middle" x="182.27" y="-55.98" font-family="Helvetica,sans-Serif" font-size="12.00">BalanceOfPlantSurrogate</text>
</g>
<!-- FUSE&#45;&gt;BalanceOfPlantSurrogate -->
<g id="edge38" class="edge">
<title>FUSE&#45;&gt;BalanceOfPlantSurrogate</title>
<path fill="none" stroke="#137077" stroke-width="2" d="M30.26,-273.55C29.86,-232.19 35.08,-135.01 88.96,-83 90.55,-81.47 92.23,-80.03 93.98,-78.69"/>
<polygon fill="#137077" stroke="#137077" stroke-width="2" points="95.5,-81.87 102.13,-73.61 91.8,-75.93 95.5,-81.87"/>
</g>
<!-- NNeutronics -->
<g id="node25" class="node">
<title>NNeutronics</title>
<ellipse fill="none" stroke="black" stroke-width="3" cx="182.27" cy="-18" rx="50.63" ry="18"/>
<text text-anchor="middle" x="182.27" y="-12.97" font-family="Helvetica,sans-Serif" font-size="12.00">NNeutronics</text>
</g>
<!-- FUSE&#45;&gt;NNeutronics -->
<g id="edge43" class="edge">
<title>FUSE&#45;&gt;NNeutronics</title>
<path fill="none" stroke="#790520" stroke-width="2" d="M32.77,-273.93C38.14,-220.91 55.81,-73.44 88.96,-40 96.97,-31.92 107.37,-26.6 118.29,-23.14"/>
<polygon fill="#790520" stroke="#790520" stroke-width="2" points="118.98,-26.58 127.8,-20.72 117.25,-19.79 118.98,-26.58"/>
</g>
<!-- FiniteElementHermite -->
<g id="node12" class="node">
<title>FiniteElementHermite</title>
<ellipse fill="none" stroke="black" stroke-width="3" cx="741.94" cy="-180" rx="80.92" ry="18"/>
<text text-anchor="middle" x="741.94" y="-174.97" font-family="Helvetica,sans-Serif" font-size="12.00">FiniteElementHermite</text>
</g>
<!-- QED&#45;&gt;FiniteElementHermite -->
<g id="edge11" class="edge">
<title>QED&#45;&gt;FiniteElementHermite</title>
<path fill="none" stroke="#baeb9e" stroke-width="2" d="M391.23,-188.33C408.24,-186.77 430.6,-184.94 450.45,-184 516,-180.9 589.96,-179.92 646.84,-179.7"/>
<polygon fill="#baeb9e" stroke="#baeb9e" stroke-width="2" points="646.8,-183.2 656.79,-179.67 646.78,-176.2 646.8,-183.2"/>
</g>
<!-- IMAS&#45;&gt;IMASutils -->
<g id="edge10" class="edge">
<title>IMAS&#45;&gt;IMASutils</title>
<path fill="none" stroke="#63a5f5" stroke-width="2" d="M770.9,-464.79C787.79,-462.24 808.92,-456.75 824.23,-445 844.61,-429.36 833.24,-411.14 853.23,-395 864.23,-386.12 878.03,-379.93 891.47,-375.62"/>
<polygon fill="#63a5f5" stroke="#63a5f5" stroke-width="2" points="892.05,-379.1 900.71,-373 890.14,-372.36 892.05,-379.1"/>
</g>
<!-- IMAS&#45;&gt;CoordinateConventions -->
<g id="edge50" class="edge">
<title>IMAS&#45;&gt;CoordinateConventions</title>
<path fill="none" stroke="#ce03a0" stroke-width="2" d="M770.05,-471.1C792.33,-474.24 824.75,-478.33 853.23,-480 933.59,-484.72 954.18,-487.24 1034.34,-480 1047.4,-478.82 1061.19,-476.91 1074.52,-474.7"/>
<polygon fill="#ce03a0" stroke="#ce03a0" stroke-width="2" points="1074.88,-478.19 1084.13,-473.03 1073.68,-471.29 1074.88,-478.19"/>
</g>
<!-- IMAS&#45;&gt;MillerExtendedHarmonic -->
<g id="edge18" class="edge">
<title>IMAS&#45;&gt;MillerExtendedHarmonic</title>
<path fill="none" stroke="#27fa44" stroke-width="2" d="M770.82,-466.17C788.31,-464.19 810.15,-458.83 824.23,-445 857.25,-412.57 826.9,-383.05 853.23,-345 864.93,-328.1 882.25,-313.73 898.56,-302.68"/>
<polygon fill="#27fa44" stroke="#27fa44" stroke-width="2" points="900.01,-305.9 906.52,-297.54 896.22,-300.02 900.01,-305.9"/>
</g>
<!-- FuseExchangeProtocol -->
<g id="node24" class="node">
<title>FuseExchangeProtocol</title>
<ellipse fill="none" stroke="black" stroke-width="3" cx="943.79" cy="-416" rx="86.43" ry="18"/>
<text text-anchor="middle" x="943.79" y="-410.98" font-family="Helvetica,sans-Serif" font-size="12.00">FuseExchangeProtocol</text>
</g>
<!-- IMAS&#45;&gt;FuseExchangeProtocol -->
<g id="edge39" class="edge">
<title>IMAS&#45;&gt;FuseExchangeProtocol</title>
<path fill="none" stroke="#9fe97f" stroke-width="2" d="M768.76,-460.08C791.09,-454.13 824.26,-445.37 853.23,-438 859.38,-436.44 865.77,-434.83 872.17,-433.23"/>
<polygon fill="#9fe97f" stroke="#9fe97f" stroke-width="2" points="872.66,-436.72 881.53,-430.91 870.98,-429.92 872.66,-436.72"/>
</g>
<!-- IMASdd -->
<g id="node26" class="node">
<title>IMASdd</title>
<ellipse fill="none" stroke="black" stroke-width="3" cx="943.79" cy="-459" rx="35.95" ry="18"/>
<text text-anchor="middle" x="943.79" y="-453.98" font-family="Helvetica,sans-Serif" font-size="12.00">IMASdd</text>
</g>
<!-- IMAS&#45;&gt;IMASdd -->
<g id="edge51" class="edge">
<title>IMAS&#45;&gt;IMASdd</title>
<path fill="none" stroke="#b250cc" stroke-width="2" d="M770.73,-465.89C802.55,-464.61 855.28,-462.5 894,-460.95"/>
<polygon fill="#b250cc" stroke="#b250cc" stroke-width="2" points="893.91,-464.46 903.77,-460.56 893.63,-457.46 893.91,-464.46"/>
</g>
<!-- TGLFNN&#45;&gt;IMAS -->
<g id="edge41" class="edge">
<title>TGLFNN&#45;&gt;IMAS</title>
<path fill="none" stroke="#e80140" stroke-width="2" d="M577.53,-533.79C593.93,-529.67 613.47,-524.23 630.64,-518 656.96,-508.45 685.62,-495.1 707.14,-484.45"/>
<polygon fill="#e80140" stroke="#e80140" stroke-width="2" points="708.52,-487.67 715.89,-480.06 705.38,-481.41 708.52,-487.67"/>
</g>
<!-- TGLFNN&#45;&gt;IMASutils -->
<g id="edge16" class="edge">
<title>TGLFNN&#45;&gt;IMASutils</title>
<path fill="none" stroke="#9464cb" stroke-width="2" d="M580.27,-546.33C640.26,-550.78 755.86,-550 824.23,-489 856.86,-459.89 822.53,-426.13 853.23,-395 863.25,-384.84 876.84,-378.24 890.42,-373.95"/>
<polygon fill="#9464cb" stroke="#9464cb" stroke-width="2" points="891.1,-377.39 899.85,-371.41 889.28,-370.63 891.1,-377.39"/>
</g>
<!-- NEO&#45;&gt;IMAS -->
<g id="edge23" class="edge">
<title>NEO&#45;&gt;IMAS</title>
<path fill="none" stroke="#8a3522" stroke-width="2" d="M391.24,-471.38C408.24,-472.74 430.6,-474.31 450.45,-475 530.49,-477.77 550.61,-477.9 630.64,-475 653.78,-474.16 679.59,-472.34 700.42,-470.64"/>
<polygon fill="#8a3522" stroke="#8a3522" stroke-width="2" points="700.63,-474.14 710.3,-469.81 700.04,-467.16 700.63,-474.14"/>
</g>
<!-- CHEASE&#45;&gt;MXHEquilibrium -->
<g id="edge8" class="edge">
<title>CHEASE&#45;&gt;MXHEquilibrium</title>
<path fill="none" stroke="#d25e7b" stroke-width="2" d="M580.94,-272.27C606.56,-268.54 640.69,-263.58 670.85,-259.19"/>
<polygon fill="#d25e7b" stroke="#d25e7b" stroke-width="2" points="671.11,-262.69 680.5,-257.79 670.1,-255.77 671.11,-262.69"/>
</g>
<!-- CHEASE&#45;&gt;MillerExtendedHarmonic -->
<g id="edge48" class="edge">
<title>CHEASE&#45;&gt;MillerExtendedHarmonic</title>
<path fill="none" stroke="#ee65be" stroke-width="2" d="M582.97,-278C642.9,-278 755.73,-278 839.13,-278"/>
<polygon fill="#ee65be" stroke="#ee65be" stroke-width="2" points="838.96,-281.5 848.96,-278 838.96,-274.5 838.96,-281.5"/>
</g>
<!-- BoundaryPlasmaModels&#45;&gt;IMAS -->
<g id="edge12" class="edge">
<title>BoundaryPlasmaModels&#45;&gt;IMAS</title>
<path fill="none" stroke="#772f23" stroke-width="2" d="M610.52,-378.28C617.75,-381.35 624.63,-385.2 630.64,-390 652.23,-407.25 638.07,-427.73 659.64,-445 671.27,-454.3 686.5,-459.69 700.64,-462.8"/>
<polygon fill="#772f23" stroke="#772f23" stroke-width="2" points="699.74,-466.19 710.21,-464.52 700.99,-459.3 699.74,-466.19"/>
</g>
<!-- BoundaryPlasmaModels&#45;&gt;IMASutils -->
<g id="edge20" class="edge">
<title>BoundaryPlasmaModels&#45;&gt;IMASutils</title>
<path fill="none" stroke="#451590" stroke-width="2" d="M628.91,-361.06C639.27,-360.62 649.69,-360.25 659.64,-360 732.77,-358.14 751.1,-358.15 824.23,-360 845.44,-360.54 868.77,-361.61 889.07,-362.71"/>
<polygon fill="#451590" stroke="#451590" stroke-width="2" points="888.73,-366.19 898.91,-363.25 889.12,-359.2 888.73,-366.19"/>
</g>
<!-- BoundaryPlasmaModels&#45;&gt;SimulationParameters -->
<g id="edge13" class="edge">
<title>BoundaryPlasmaModels&#45;&gt;SimulationParameters</title>
<path fill="none" stroke="#3ac727" stroke-width="2" d="M600.34,-380.68C610.51,-383.55 620.93,-386.7 630.64,-390 643.85,-394.49 646.44,-397.5 659.64,-402 663.78,-403.41 668.06,-404.79 672.4,-406.13"/>
<polygon fill="#3ac727" stroke="#3ac727" stroke-width="2" points="671.19,-409.42 681.77,-408.92 673.19,-402.71 671.19,-409.42"/>
</g>
<!-- ADAS -->
<g id="node22" class="node">
<title>ADAS</title>
<ellipse fill="none" stroke="black" stroke-width="3" cx="741.94" cy="-381" rx="30.44" ry="18"/>
<text text-anchor="middle" x="741.94" y="-375.98" font-family="Helvetica,sans-Serif" font-size="12.00">ADAS</text>
</g>
<!-- BoundaryPlasmaModels&#45;&gt;ADAS -->
<g id="edge37" class="edge">
<title>BoundaryPlasmaModels&#45;&gt;ADAS</title>
<path fill="none" stroke="#4ff859" stroke-width="2" d="M626.97,-372.43C651.42,-374.27 677.04,-376.19 697.79,-377.75"/>
<polygon fill="#4ff859" stroke="#4ff859" stroke-width="2" points="697.4,-381.23 707.63,-378.49 697.92,-374.25 697.4,-381.23"/>
</g>
<!-- SimulationParameters&#45;&gt;IMASutils -->
<g id="edge49" class="edge">
<title>SimulationParameters&#45;&gt;IMASutils</title>
<path fill="none" stroke="#a27984" stroke-width="2" d="M797.22,-409.56C806.26,-407.08 815.52,-404.5 824.23,-402 848,-395.18 874.32,-387.22 896.12,-380.53"/>
<polygon fill="#a27984" stroke="#a27984" stroke-width="2" points="896.95,-383.94 905.48,-377.65 894.89,-377.25 896.95,-383.94"/>
</g>
<!-- FRESCO&#45;&gt;VacuumFields -->
<g id="edge35" class="edge">
<title>FRESCO&#45;&gt;VacuumFields</title>
<path fill="none" stroke="#20601b" stroke-width="2" d="M219.87,-327.99C244.05,-322.04 276.26,-314.11 303.91,-307.3"/>
<polygon fill="#20601b" stroke="#20601b" stroke-width="2" points="304.43,-310.78 313.3,-304.99 302.75,-303.98 304.43,-310.78"/>
</g>
<!-- FRESCO&#45;&gt;IMAS -->
<g id="edge15" class="edge">
<title>FRESCO&#45;&gt;IMAS</title>
<path fill="none" stroke="#48c99a" stroke-width="2" d="M217.52,-347.78C268.02,-363.31 365.66,-392.01 450.45,-409 529.66,-424.88 552.61,-412.04 630.64,-433 644.11,-436.62 646.44,-440.5 659.64,-445 673.28,-449.64 688.46,-453.97 701.97,-457.54"/>
<polygon fill="#48c99a" stroke="#48c99a" stroke-width="2" points="700.83,-460.86 711.39,-459.96 702.57,-454.08 700.83,-460.86"/>
</g>
<!-- FRESCO&#45;&gt;IMASutils -->
<g id="edge21" class="edge">
<title>FRESCO&#45;&gt;IMASutils</title>
<path fill="none" stroke="#7706f6" stroke-width="2" d="M224.62,-337.06C303.57,-337.33 481.24,-338.65 630.64,-345 716.8,-348.66 738.19,-352.21 824.23,-358 845.42,-359.43 868.74,-361 889.05,-362.37"/>
<polygon fill="#7706f6" stroke="#7706f6" stroke-width="2" points="888.68,-365.85 898.89,-363.03 889.15,-358.87 888.68,-365.85"/>
</g>
<!-- TEQUILA&#45;&gt;MXHEquilibrium -->
<g id="edge33" class="edge">
<title>TEQUILA&#45;&gt;MXHEquilibrium</title>
<path fill="none" stroke="#38da28" stroke-width="2" d="M579.05,-213.28C606.54,-219.34 644.52,-227.72 676.79,-234.85"/>
<polygon fill="#38da28" stroke="#38da28" stroke-width="2" points="675.83,-238.22 686.35,-236.95 677.34,-231.38 675.83,-238.22"/>
</g>
<!-- TEQUILA&#45;&gt;FiniteElementHermite -->
<g id="edge42" class="edge">
<title>TEQUILA&#45;&gt;FiniteElementHermite</title>
<path fill="none" stroke="#9aafe7" stroke-width="2" d="M581.89,-199.94C603.31,-197.26 630.47,-193.85 656.26,-190.62"/>
<polygon fill="#9aafe7" stroke="#9aafe7" stroke-width="2" points="656.69,-194.09 666.18,-189.37 655.82,-187.14 656.69,-194.09"/>
</g>
<!-- TEQUILA&#45;&gt;MillerExtendedHarmonic -->
<g id="edge34" class="edge">
<title>TEQUILA&#45;&gt;MillerExtendedHarmonic</title>
<path fill="none" stroke="#3cb5ea" stroke-width="2" d="M583.4,-204.3C639.17,-204.28 740.53,-207.5 824.23,-228 849.01,-234.07 875.28,-244.68 896.78,-254.56"/>
<polygon fill="#3cb5ea" stroke="#3cb5ea" stroke-width="2" points="895.24,-257.71 905.77,-258.81 898.23,-251.38 895.24,-257.71"/>
</g>
<!-- TroyonBetaNN&#45;&gt;IMAS -->
<g id="edge29" class="edge">
<title>TroyonBetaNN&#45;&gt;IMAS</title>
<path fill="none" stroke="#ae01d3" stroke-width="2" d="M421.22,-522.54C493.44,-516.8 610.72,-507.09 630.64,-503 655.92,-497.81 683.53,-488.79 704.8,-481.08"/>
<polygon fill="#ae01d3" stroke="#ae01d3" stroke-width="2" points="705.84,-484.43 713.99,-477.67 703.4,-477.87 705.84,-484.43"/>
</g>
<!-- IMASdd&#45;&gt;CoordinateConventions -->
<g id="edge47" class="edge">
<title>IMASdd&#45;&gt;CoordinateConventions</title>
<path fill="none" stroke="#0e9041" stroke-width="2" d="M980.95,-459C1000.12,-459 1024.73,-459 1049.19,-459"/>
<polygon fill="#0e9041" stroke="#0e9041" stroke-width="2" points="1048.91,-462.5 1058.91,-459 1048.91,-455.5 1048.91,-462.5"/>
</g>
</g>
</svg>
