<?xml version="1.0" encoding="utf-8"?>
<svg xmlns="http://www.w3.org/2000/svg" xmlns:xlink="http://www.w3.org/1999/xlink" width="600" height="400" viewBox="0 0 2400 1600">
<defs>
  <clipPath id="clip690">
    <rect x="0" y="0" width="2400" height="1600"/>
  </clipPath>
</defs>
<path clip-path="url(#clip690)" d="M0 1600 L2400 1600 L2400 0 L0 0  Z" fill="#ffffff" fill-rule="evenodd" fill-opacity="1"/>
<defs>
  <clipPath id="clip691">
    <rect x="480" y="0" width="1681" height="1600"/>
  </clipPath>
</defs>
<path clip-path="url(#clip690)" d="M275.136 1486.45 L2352.76 1486.45 L2352.76 47.2441 L275.136 47.2441  Z" fill="#ffffff" fill-rule="evenodd" fill-opacity="1"/>
<defs>
  <clipPath id="clip692">
    <rect x="275" y="47" width="2079" height="1440"/>
  </clipPath>
</defs>
<polyline clip-path="url(#clip692)" style="stroke:#000000; stroke-linecap:round; stroke-linejoin:round; stroke-width:2; stroke-opacity:0.1; fill:none" points="314.337,1486.45 314.337,47.2441 "/>
<polyline clip-path="url(#clip692)" style="stroke:#000000; stroke-linecap:round; stroke-linejoin:round; stroke-width:2; stroke-opacity:0.1; fill:none" points="804.341,1486.45 804.341,47.2441 "/>
<polyline clip-path="url(#clip692)" style="stroke:#000000; stroke-linecap:round; stroke-linejoin:round; stroke-width:2; stroke-opacity:0.1; fill:none" points="1294.35,1486.45 1294.35,47.2441 "/>
<polyline clip-path="url(#clip692)" style="stroke:#000000; stroke-linecap:round; stroke-linejoin:round; stroke-width:2; stroke-opacity:0.1; fill:none" points="1784.35,1486.45 1784.35,47.2441 "/>
<polyline clip-path="url(#clip692)" style="stroke:#000000; stroke-linecap:round; stroke-linejoin:round; stroke-width:2; stroke-opacity:0.1; fill:none" points="2274.36,1486.45 2274.36,47.2441 "/>
<polyline clip-path="url(#clip692)" style="stroke:#000000; stroke-linecap:round; stroke-linejoin:round; stroke-width:2; stroke-opacity:0.1; fill:none" points="275.136,1446.49 2352.76,1446.49 "/>
<polyline clip-path="url(#clip692)" style="stroke:#000000; stroke-linecap:round; stroke-linejoin:round; stroke-width:2; stroke-opacity:0.1; fill:none" points="275.136,1231.86 2352.76,1231.86 "/>
<polyline clip-path="url(#clip692)" style="stroke:#000000; stroke-linecap:round; stroke-linejoin:round; stroke-width:2; stroke-opacity:0.1; fill:none" points="275.136,1017.22 2352.76,1017.22 "/>
<polyline clip-path="url(#clip692)" style="stroke:#000000; stroke-linecap:round; stroke-linejoin:round; stroke-width:2; stroke-opacity:0.1; fill:none" points="275.136,802.587 2352.76,802.587 "/>
<polyline clip-path="url(#clip692)" style="stroke:#000000; stroke-linecap:round; stroke-linejoin:round; stroke-width:2; stroke-opacity:0.1; fill:none" points="275.136,587.953 2352.76,587.953 "/>
<polyline clip-path="url(#clip692)" style="stroke:#000000; stroke-linecap:round; stroke-linejoin:round; stroke-width:2; stroke-opacity:0.1; fill:none" points="275.136,373.318 2352.76,373.318 "/>
<polyline clip-path="url(#clip692)" style="stroke:#000000; stroke-linecap:round; stroke-linejoin:round; stroke-width:2; stroke-opacity:0.1; fill:none" points="275.136,158.683 2352.76,158.683 "/>
<polyline clip-path="url(#clip690)" style="stroke:#000000; stroke-linecap:round; stroke-linejoin:round; stroke-width:4; stroke-opacity:1; fill:none" points="275.136,1486.45 2352.76,1486.45 "/>
<polyline clip-path="url(#clip690)" style="stroke:#000000; stroke-linecap:round; stroke-linejoin:round; stroke-width:4; stroke-opacity:1; fill:none" points="314.337,1486.45 314.337,1467.55 "/>
<polyline clip-path="url(#clip690)" style="stroke:#000000; stroke-linecap:round; stroke-linejoin:round; stroke-width:4; stroke-opacity:1; fill:none" points="804.341,1486.45 804.341,1467.55 "/>
<polyline clip-path="url(#clip690)" style="stroke:#000000; stroke-linecap:round; stroke-linejoin:round; stroke-width:4; stroke-opacity:1; fill:none" points="1294.35,1486.45 1294.35,1467.55 "/>
<polyline clip-path="url(#clip690)" style="stroke:#000000; stroke-linecap:round; stroke-linejoin:round; stroke-width:4; stroke-opacity:1; fill:none" points="1784.35,1486.45 1784.35,1467.55 "/>
<polyline clip-path="url(#clip690)" style="stroke:#000000; stroke-linecap:round; stroke-linejoin:round; stroke-width:4; stroke-opacity:1; fill:none" points="2274.36,1486.45 2274.36,1467.55 "/>
<path clip-path="url(#clip690)" d="M314.337 1517.37 Q310.726 1517.37 308.897 1520.93 Q307.091 1524.47 307.091 1531.6 Q307.091 1538.71 308.897 1542.27 Q310.726 1545.82 314.337 1545.82 Q317.971 1545.82 319.777 1542.27 Q321.605 1538.71 321.605 1531.6 Q321.605 1524.47 319.777 1520.93 Q317.971 1517.37 314.337 1517.37 M314.337 1513.66 Q320.147 1513.66 323.202 1518.27 Q326.281 1522.85 326.281 1531.6 Q326.281 1540.33 323.202 1544.94 Q320.147 1549.52 314.337 1549.52 Q308.527 1549.52 305.448 1544.94 Q302.392 1540.33 302.392 1531.6 Q302.392 1522.85 305.448 1518.27 Q308.527 1513.66 314.337 1513.66 Z" fill="#000000" fill-rule="nonzero" fill-opacity="1" /><path clip-path="url(#clip690)" d="M783.612 1544.91 L799.932 1544.91 L799.932 1548.85 L777.987 1548.85 L777.987 1544.91 Q780.649 1542.16 785.233 1537.53 Q789.839 1532.88 791.02 1531.53 Q793.265 1529.01 794.145 1527.27 Q795.047 1525.51 795.047 1523.82 Q795.047 1521.07 793.103 1519.33 Q791.182 1517.6 788.08 1517.6 Q785.881 1517.6 783.427 1518.36 Q780.997 1519.13 778.219 1520.68 L778.219 1515.95 Q781.043 1514.82 783.497 1514.24 Q785.95 1513.66 787.987 1513.66 Q793.358 1513.66 796.552 1516.35 Q799.746 1519.03 799.746 1523.52 Q799.746 1525.65 798.936 1527.57 Q798.149 1529.47 796.043 1532.07 Q795.464 1532.74 792.362 1535.95 Q789.26 1539.15 783.612 1544.91 Z" fill="#000000" fill-rule="nonzero" fill-opacity="1" /><path clip-path="url(#clip690)" d="M809.793 1514.29 L828.149 1514.29 L828.149 1518.22 L814.075 1518.22 L814.075 1526.7 Q815.094 1526.35 816.112 1526.19 Q817.131 1526 818.149 1526 Q823.936 1526 827.316 1529.17 Q830.695 1532.34 830.695 1537.76 Q830.695 1543.34 827.223 1546.44 Q823.751 1549.52 817.432 1549.52 Q815.256 1549.52 812.987 1549.15 Q810.742 1548.78 808.334 1548.04 L808.334 1543.34 Q810.418 1544.47 812.64 1545.03 Q814.862 1545.58 817.339 1545.58 Q821.344 1545.58 823.682 1543.48 Q826.019 1541.37 826.019 1537.76 Q826.019 1534.15 823.682 1532.04 Q821.344 1529.94 817.339 1529.94 Q815.464 1529.94 813.589 1530.35 Q811.737 1530.77 809.793 1531.65 L809.793 1514.29 Z" fill="#000000" fill-rule="nonzero" fill-opacity="1" /><path clip-path="url(#clip690)" d="M1269.05 1514.29 L1287.4 1514.29 L1287.4 1518.22 L1273.33 1518.22 L1273.33 1526.7 Q1274.35 1526.35 1275.36 1526.19 Q1276.38 1526 1277.4 1526 Q1283.19 1526 1286.57 1529.17 Q1289.95 1532.34 1289.95 1537.76 Q1289.95 1543.34 1286.48 1546.44 Q1283 1549.52 1276.68 1549.52 Q1274.51 1549.52 1272.24 1549.15 Q1269.99 1548.78 1267.59 1548.04 L1267.59 1543.34 Q1269.67 1544.47 1271.89 1545.03 Q1274.11 1545.58 1276.59 1545.58 Q1280.6 1545.58 1282.93 1543.48 Q1285.27 1541.37 1285.27 1537.76 Q1285.27 1534.15 1282.93 1532.04 Q1280.6 1529.94 1276.59 1529.94 Q1274.72 1529.94 1272.84 1530.35 Q1270.99 1530.77 1269.05 1531.65 L1269.05 1514.29 Z" fill="#000000" fill-rule="nonzero" fill-opacity="1" /><path clip-path="url(#clip690)" d="M1309.16 1517.37 Q1305.55 1517.37 1303.72 1520.93 Q1301.92 1524.47 1301.92 1531.6 Q1301.92 1538.71 1303.72 1542.27 Q1305.55 1545.82 1309.16 1545.82 Q1312.79 1545.82 1314.6 1542.27 Q1316.43 1538.71 1316.43 1531.6 Q1316.43 1524.47 1314.6 1520.93 Q1312.79 1517.37 1309.16 1517.37 M1309.16 1513.66 Q1314.97 1513.66 1318.03 1518.27 Q1321.11 1522.85 1321.11 1531.6 Q1321.11 1540.33 1318.03 1544.94 Q1314.97 1549.52 1309.16 1549.52 Q1303.35 1549.52 1300.27 1544.94 Q1297.22 1540.33 1297.22 1531.6 Q1297.22 1522.85 1300.27 1518.27 Q1303.35 1513.66 1309.16 1513.66 Z" fill="#000000" fill-rule="nonzero" fill-opacity="1" /><path clip-path="url(#clip690)" d="M1758.2 1514.29 L1780.43 1514.29 L1780.43 1516.28 L1767.88 1548.85 L1763 1548.85 L1774.8 1518.22 L1758.2 1518.22 L1758.2 1514.29 Z" fill="#000000" fill-rule="nonzero" fill-opacity="1" /><path clip-path="url(#clip690)" d="M1789.59 1514.29 L1807.95 1514.29 L1807.95 1518.22 L1793.88 1518.22 L1793.88 1526.7 Q1794.89 1526.35 1795.91 1526.19 Q1796.93 1526 1797.95 1526 Q1803.74 1526 1807.12 1529.17 Q1810.5 1532.34 1810.5 1537.76 Q1810.5 1543.34 1807.02 1546.44 Q1803.55 1549.52 1797.23 1549.52 Q1795.06 1549.52 1792.79 1549.15 Q1790.54 1548.78 1788.14 1548.04 L1788.14 1543.34 Q1790.22 1544.47 1792.44 1545.03 Q1794.66 1545.58 1797.14 1545.58 Q1801.14 1545.58 1803.48 1543.48 Q1805.82 1541.37 1805.82 1537.76 Q1805.82 1534.15 1803.48 1532.04 Q1801.14 1529.94 1797.14 1529.94 Q1795.26 1529.94 1793.39 1530.35 Q1791.54 1530.77 1789.59 1531.65 L1789.59 1514.29 Z" fill="#000000" fill-rule="nonzero" fill-opacity="1" /><path clip-path="url(#clip690)" d="M2233.96 1544.91 L2241.6 1544.91 L2241.6 1518.55 L2233.29 1520.21 L2233.29 1515.95 L2241.55 1514.29 L2246.23 1514.29 L2246.23 1544.91 L2253.87 1544.91 L2253.87 1548.85 L2233.96 1548.85 L2233.96 1544.91 Z" fill="#000000" fill-rule="nonzero" fill-opacity="1" /><path clip-path="url(#clip690)" d="M2273.31 1517.37 Q2269.7 1517.37 2267.87 1520.93 Q2266.07 1524.47 2266.07 1531.6 Q2266.07 1538.71 2267.87 1542.27 Q2269.7 1545.82 2273.31 1545.82 Q2276.95 1545.82 2278.75 1542.27 Q2280.58 1538.71 2280.58 1531.6 Q2280.58 1524.47 2278.75 1520.93 Q2276.95 1517.37 2273.31 1517.37 M2273.31 1513.66 Q2279.12 1513.66 2282.18 1518.27 Q2285.26 1522.85 2285.26 1531.6 Q2285.26 1540.33 2282.18 1544.94 Q2279.12 1549.52 2273.31 1549.52 Q2267.5 1549.52 2264.42 1544.94 Q2261.37 1540.33 2261.37 1531.6 Q2261.37 1522.85 2264.42 1518.27 Q2267.5 1513.66 2273.31 1513.66 Z" fill="#000000" fill-rule="nonzero" fill-opacity="1" /><path clip-path="url(#clip690)" d="M2303.48 1517.37 Q2299.86 1517.37 2298.04 1520.93 Q2296.23 1524.47 2296.23 1531.6 Q2296.23 1538.71 2298.04 1542.27 Q2299.86 1545.82 2303.48 1545.82 Q2307.11 1545.82 2308.92 1542.27 Q2310.74 1538.71 2310.74 1531.6 Q2310.74 1524.47 2308.92 1520.93 Q2307.11 1517.37 2303.48 1517.37 M2303.48 1513.66 Q2309.29 1513.66 2312.34 1518.27 Q2315.42 1522.85 2315.42 1531.6 Q2315.42 1540.33 2312.34 1544.94 Q2309.29 1549.52 2303.48 1549.52 Q2297.67 1549.52 2294.59 1544.94 Q2291.53 1540.33 2291.53 1531.6 Q2291.53 1522.85 2294.59 1518.27 Q2297.67 1513.66 2303.48 1513.66 Z" fill="#000000" fill-rule="nonzero" fill-opacity="1" /><polyline clip-path="url(#clip690)" style="stroke:#000000; stroke-linecap:round; stroke-linejoin:round; stroke-width:4; stroke-opacity:1; fill:none" points="275.136,1486.45 275.136,47.2441 "/>
<polyline clip-path="url(#clip690)" style="stroke:#000000; stroke-linecap:round; stroke-linejoin:round; stroke-width:4; stroke-opacity:1; fill:none" points="275.136,1446.49 294.034,1446.49 "/>
<polyline clip-path="url(#clip690)" style="stroke:#000000; stroke-linecap:round; stroke-linejoin:round; stroke-width:4; stroke-opacity:1; fill:none" points="275.136,1231.86 294.034,1231.86 "/>
<polyline clip-path="url(#clip690)" style="stroke:#000000; stroke-linecap:round; stroke-linejoin:round; stroke-width:4; stroke-opacity:1; fill:none" points="275.136,1017.22 294.034,1017.22 "/>
<polyline clip-path="url(#clip690)" style="stroke:#000000; stroke-linecap:round; stroke-linejoin:round; stroke-width:4; stroke-opacity:1; fill:none" points="275.136,802.587 294.034,802.587 "/>
<polyline clip-path="url(#clip690)" style="stroke:#000000; stroke-linecap:round; stroke-linejoin:round; stroke-width:4; stroke-opacity:1; fill:none" points="275.136,587.953 294.034,587.953 "/>
<polyline clip-path="url(#clip690)" style="stroke:#000000; stroke-linecap:round; stroke-linejoin:round; stroke-width:4; stroke-opacity:1; fill:none" points="275.136,373.318 294.034,373.318 "/>
<polyline clip-path="url(#clip690)" style="stroke:#000000; stroke-linecap:round; stroke-linejoin:round; stroke-width:4; stroke-opacity:1; fill:none" points="275.136,158.683 294.034,158.683 "/>
<path clip-path="url(#clip690)" d="M227.192 1432.29 Q223.581 1432.29 221.752 1435.86 Q219.947 1439.4 219.947 1446.53 Q219.947 1453.63 221.752 1457.2 Q223.581 1460.74 227.192 1460.74 Q230.826 1460.74 232.632 1457.2 Q234.46 1453.63 234.46 1446.53 Q234.46 1439.4 232.632 1435.86 Q230.826 1432.29 227.192 1432.29 M227.192 1428.59 Q233.002 1428.59 236.058 1433.19 Q239.136 1437.78 239.136 1446.53 Q239.136 1455.25 236.058 1459.86 Q233.002 1464.44 227.192 1464.44 Q221.382 1464.44 218.303 1459.86 Q215.248 1455.25 215.248 1446.53 Q215.248 1437.78 218.303 1433.19 Q221.382 1428.59 227.192 1428.59 Z" fill="#000000" fill-rule="nonzero" fill-opacity="1" /><path clip-path="url(#clip690)" d="M54.5569 1251.65 L62.1958 1251.65 L62.1958 1225.28 L53.8856 1226.95 L53.8856 1222.69 L62.1495 1221.02 L66.8254 1221.02 L66.8254 1251.65 L74.4642 1251.65 L74.4642 1255.58 L54.5569 1255.58 L54.5569 1251.65 Z" fill="#000000" fill-rule="nonzero" fill-opacity="1" /><path clip-path="url(#clip690)" d="M83.9086 1249.71 L88.7928 1249.71 L88.7928 1255.58 L83.9086 1255.58 L83.9086 1249.71 Z" fill="#000000" fill-rule="nonzero" fill-opacity="1" /><path clip-path="url(#clip690)" d="M108.978 1224.1 Q105.367 1224.1 103.538 1227.67 Q101.733 1231.21 101.733 1238.34 Q101.733 1245.45 103.538 1249.01 Q105.367 1252.55 108.978 1252.55 Q112.612 1252.55 114.418 1249.01 Q116.246 1245.45 116.246 1238.34 Q116.246 1231.21 114.418 1227.67 Q112.612 1224.1 108.978 1224.1 M108.978 1220.4 Q114.788 1220.4 117.844 1225.01 Q120.922 1229.59 120.922 1238.34 Q120.922 1247.07 117.844 1251.67 Q114.788 1256.26 108.978 1256.26 Q103.168 1256.26 100.089 1251.67 Q97.0335 1247.07 97.0335 1238.34 Q97.0335 1229.59 100.089 1225.01 Q103.168 1220.4 108.978 1220.4 Z" fill="#000000" fill-rule="nonzero" fill-opacity="1" /><path clip-path="url(#clip690)" d="M157.311 1230.12 L146.732 1240.75 L157.311 1251.33 L154.556 1254.13 L143.931 1243.5 L133.306 1254.13 L130.575 1251.33 L141.131 1240.75 L130.575 1230.12 L133.306 1227.32 L143.931 1237.95 L154.556 1227.32 L157.311 1230.12 Z" fill="#000000" fill-rule="nonzero" fill-opacity="1" /><path clip-path="url(#clip690)" d="M169.672 1251.65 L177.311 1251.65 L177.311 1225.28 L169.001 1226.95 L169.001 1222.69 L177.265 1221.02 L181.94 1221.02 L181.94 1251.65 L189.579 1251.65 L189.579 1255.58 L169.672 1255.58 L169.672 1251.65 Z" fill="#000000" fill-rule="nonzero" fill-opacity="1" /><path clip-path="url(#clip690)" d="M209.024 1224.1 Q205.413 1224.1 203.584 1227.67 Q201.778 1231.21 201.778 1238.34 Q201.778 1245.45 203.584 1249.01 Q205.413 1252.55 209.024 1252.55 Q212.658 1252.55 214.463 1249.01 Q216.292 1245.45 216.292 1238.34 Q216.292 1231.21 214.463 1227.67 Q212.658 1224.1 209.024 1224.1 M209.024 1220.4 Q214.834 1220.4 217.889 1225.01 Q220.968 1229.59 220.968 1238.34 Q220.968 1247.07 217.889 1251.67 Q214.834 1256.26 209.024 1256.26 Q203.214 1256.26 200.135 1251.67 Q197.079 1247.07 197.079 1238.34 Q197.079 1229.59 200.135 1225.01 Q203.214 1220.4 209.024 1220.4 Z" fill="#000000" fill-rule="nonzero" fill-opacity="1" /><path clip-path="url(#clip690)" d="M222.153 1200.09 L237.068 1200.09 L237.068 1203.29 L225.632 1203.29 L225.632 1210.18 Q226.46 1209.89 227.287 1209.76 Q228.115 1209.61 228.943 1209.61 Q233.645 1209.61 236.39 1212.19 Q239.136 1214.76 239.136 1219.17 Q239.136 1223.7 236.315 1226.22 Q233.494 1228.72 228.36 1228.72 Q226.592 1228.72 224.748 1228.42 Q222.924 1228.12 220.968 1227.52 L220.968 1223.7 Q222.661 1224.62 224.466 1225.07 Q226.272 1225.52 228.284 1225.52 Q231.538 1225.52 233.438 1223.81 Q235.337 1222.1 235.337 1219.17 Q235.337 1216.23 233.438 1214.52 Q231.538 1212.81 228.284 1212.81 Q226.761 1212.81 225.237 1213.15 Q223.733 1213.49 222.153 1214.2 L222.153 1200.09 Z" fill="#000000" fill-rule="nonzero" fill-opacity="1" /><path clip-path="url(#clip690)" d="M57.7745 1037.01 L74.0939 1037.01 L74.0939 1040.95 L52.1495 1040.95 L52.1495 1037.01 Q54.8115 1034.26 59.3949 1029.63 Q64.0013 1024.98 65.1819 1023.64 Q67.4272 1021.11 68.3068 1019.38 Q69.2096 1017.62 69.2096 1015.93 Q69.2096 1013.17 67.2652 1011.44 Q65.3439 1009.7 62.2421 1009.7 Q60.043 1009.7 57.5893 1010.46 Q55.1588 1011.23 52.381 1012.78 L52.381 1008.06 Q55.2051 1006.92 57.6588 1006.34 Q60.1124 1005.76 62.1495 1005.76 Q67.5198 1005.76 70.7142 1008.45 Q73.9087 1011.14 73.9087 1015.63 Q73.9087 1017.76 73.0985 1019.68 Q72.3115 1021.58 70.205 1024.17 Q69.6263 1024.84 66.5245 1028.06 Q63.4226 1031.25 57.7745 1037.01 Z" fill="#000000" fill-rule="nonzero" fill-opacity="1" /><path clip-path="url(#clip690)" d="M83.9086 1035.07 L88.7928 1035.07 L88.7928 1040.95 L83.9086 1040.95 L83.9086 1035.07 Z" fill="#000000" fill-rule="nonzero" fill-opacity="1" /><path clip-path="url(#clip690)" d="M108.978 1009.47 Q105.367 1009.47 103.538 1013.03 Q101.733 1016.58 101.733 1023.7 Q101.733 1030.81 103.538 1034.38 Q105.367 1037.92 108.978 1037.92 Q112.612 1037.92 114.418 1034.38 Q116.246 1030.81 116.246 1023.7 Q116.246 1016.58 114.418 1013.03 Q112.612 1009.47 108.978 1009.47 M108.978 1005.76 Q114.788 1005.76 117.844 1010.37 Q120.922 1014.95 120.922 1023.7 Q120.922 1032.43 117.844 1037.04 Q114.788 1041.62 108.978 1041.62 Q103.168 1041.62 100.089 1037.04 Q97.0335 1032.43 97.0335 1023.7 Q97.0335 1014.95 100.089 1010.37 Q103.168 1005.76 108.978 1005.76 Z" fill="#000000" fill-rule="nonzero" fill-opacity="1" /><path clip-path="url(#clip690)" d="M157.311 1015.49 L146.732 1026.11 L157.311 1036.69 L154.556 1039.49 L143.931 1028.87 L133.306 1039.49 L130.575 1036.69 L141.131 1026.11 L130.575 1015.49 L133.306 1012.69 L143.931 1023.31 L154.556 1012.69 L157.311 1015.49 Z" fill="#000000" fill-rule="nonzero" fill-opacity="1" /><path clip-path="url(#clip690)" d="M169.672 1037.01 L177.311 1037.01 L177.311 1010.65 L169.001 1012.32 L169.001 1008.06 L177.265 1006.39 L181.94 1006.39 L181.94 1037.01 L189.579 1037.01 L189.579 1040.95 L169.672 1040.95 L169.672 1037.01 Z" fill="#000000" fill-rule="nonzero" fill-opacity="1" /><path clip-path="url(#clip690)" d="M209.024 1009.47 Q205.413 1009.47 203.584 1013.03 Q201.778 1016.58 201.778 1023.7 Q201.778 1030.81 203.584 1034.38 Q205.413 1037.92 209.024 1037.92 Q212.658 1037.92 214.463 1034.38 Q216.292 1030.81 216.292 1023.7 Q216.292 1016.58 214.463 1013.03 Q212.658 1009.47 209.024 1009.47 M209.024 1005.76 Q214.834 1005.76 217.889 1010.37 Q220.968 1014.95 220.968 1023.7 Q220.968 1032.43 217.889 1037.04 Q214.834 1041.62 209.024 1041.62 Q203.214 1041.62 200.135 1037.04 Q197.079 1032.43 197.079 1023.7 Q197.079 1014.95 200.135 1010.37 Q203.214 1005.76 209.024 1005.76 Z" fill="#000000" fill-rule="nonzero" fill-opacity="1" /><path clip-path="url(#clip690)" d="M222.153 985.46 L237.068 985.46 L237.068 988.657 L225.632 988.657 L225.632 995.54 Q226.46 995.258 227.287 995.127 Q228.115 994.976 228.943 994.976 Q233.645 994.976 236.39 997.553 Q239.136 1000.13 239.136 1004.53 Q239.136 1009.06 236.315 1011.58 Q233.494 1014.08 228.36 1014.08 Q226.592 1014.08 224.748 1013.78 Q222.924 1013.48 220.968 1012.88 L220.968 1009.06 Q222.661 1009.98 224.466 1010.44 Q226.272 1010.89 228.284 1010.89 Q231.538 1010.89 233.438 1009.18 Q235.337 1007.46 235.337 1004.53 Q235.337 1001.6 233.438 999.885 Q231.538 998.174 228.284 998.174 Q226.761 998.174 225.237 998.512 Q223.733 998.851 222.153 999.565 L222.153 985.46 Z" fill="#000000" fill-rule="nonzero" fill-opacity="1" /><path clip-path="url(#clip690)" d="M67.9133 807.681 Q71.2698 808.398 73.1448 810.667 Q75.0429 812.936 75.0429 816.269 Q75.0429 821.385 71.5244 824.185 Q68.0059 826.986 61.5245 826.986 Q59.3486 826.986 57.0338 826.547 Q54.7421 826.13 52.2884 825.273 L52.2884 820.76 Q54.2328 821.894 56.5477 822.472 Q58.8625 823.051 61.3856 823.051 Q65.7837 823.051 68.0754 821.315 Q70.3902 819.579 70.3902 816.269 Q70.3902 813.213 68.2374 811.5 Q66.1078 809.764 62.2884 809.764 L58.2606 809.764 L58.2606 805.922 L62.4735 805.922 Q65.9226 805.922 67.7513 804.556 Q69.58 803.167 69.58 800.574 Q69.58 797.912 67.6819 796.5 Q65.8069 795.065 62.2884 795.065 Q60.3671 795.065 58.168 795.482 Q55.969 795.899 53.3301 796.778 L53.3301 792.612 Q55.9921 791.871 58.3069 791.5 Q60.6449 791.13 62.705 791.13 Q68.0291 791.13 71.1309 793.561 Q74.2327 795.968 74.2327 800.088 Q74.2327 802.959 72.5892 804.949 Q70.9457 806.917 67.9133 807.681 Z" fill="#000000" fill-rule="nonzero" fill-opacity="1" /><path clip-path="url(#clip690)" d="M83.9086 820.435 L88.7928 820.435 L88.7928 826.315 L83.9086 826.315 L83.9086 820.435 Z" fill="#000000" fill-rule="nonzero" fill-opacity="1" /><path clip-path="url(#clip690)" d="M108.978 794.834 Q105.367 794.834 103.538 798.399 Q101.733 801.94 101.733 809.07 Q101.733 816.176 103.538 819.741 Q105.367 823.283 108.978 823.283 Q112.612 823.283 114.418 819.741 Q116.246 816.176 116.246 809.07 Q116.246 801.94 114.418 798.399 Q112.612 794.834 108.978 794.834 M108.978 791.13 Q114.788 791.13 117.844 795.737 Q120.922 800.32 120.922 809.07 Q120.922 817.797 117.844 822.403 Q114.788 826.986 108.978 826.986 Q103.168 826.986 100.089 822.403 Q97.0335 817.797 97.0335 809.07 Q97.0335 800.32 100.089 795.737 Q103.168 791.13 108.978 791.13 Z" fill="#000000" fill-rule="nonzero" fill-opacity="1" /><path clip-path="url(#clip690)" d="M157.311 800.852 L146.732 811.477 L157.311 822.056 L154.556 824.857 L143.931 814.232 L133.306 824.857 L130.575 822.056 L141.131 811.477 L130.575 800.852 L133.306 798.051 L143.931 808.676 L154.556 798.051 L157.311 800.852 Z" fill="#000000" fill-rule="nonzero" fill-opacity="1" /><path clip-path="url(#clip690)" d="M169.672 822.38 L177.311 822.38 L177.311 796.014 L169.001 797.681 L169.001 793.422 L177.265 791.755 L181.94 791.755 L181.94 822.38 L189.579 822.38 L189.579 826.315 L169.672 826.315 L169.672 822.38 Z" fill="#000000" fill-rule="nonzero" fill-opacity="1" /><path clip-path="url(#clip690)" d="M209.024 794.834 Q205.413 794.834 203.584 798.399 Q201.778 801.94 201.778 809.07 Q201.778 816.176 203.584 819.741 Q205.413 823.283 209.024 823.283 Q212.658 823.283 214.463 819.741 Q216.292 816.176 216.292 809.07 Q216.292 801.94 214.463 798.399 Q212.658 794.834 209.024 794.834 M209.024 791.13 Q214.834 791.13 217.889 795.737 Q220.968 800.32 220.968 809.07 Q220.968 817.797 217.889 822.403 Q214.834 826.986 209.024 826.986 Q203.214 826.986 200.135 822.403 Q197.079 817.797 197.079 809.07 Q197.079 800.32 200.135 795.737 Q203.214 791.13 209.024 791.13 Z" fill="#000000" fill-rule="nonzero" fill-opacity="1" /><path clip-path="url(#clip690)" d="M222.153 770.825 L237.068 770.825 L237.068 774.022 L225.632 774.022 L225.632 780.906 Q226.46 780.624 227.287 780.492 Q228.115 780.341 228.943 780.341 Q233.645 780.341 236.39 782.918 Q239.136 785.495 239.136 789.896 Q239.136 794.428 236.315 796.949 Q233.494 799.45 228.36 799.45 Q226.592 799.45 224.748 799.149 Q222.924 798.848 220.968 798.246 L220.968 794.428 Q222.661 795.35 224.466 795.801 Q226.272 796.253 228.284 796.253 Q231.538 796.253 233.438 794.541 Q235.337 792.83 235.337 789.896 Q235.337 786.962 233.438 785.25 Q231.538 783.539 228.284 783.539 Q226.761 783.539 225.237 783.877 Q223.733 784.216 222.153 784.93 L222.153 770.825 Z" fill="#000000" fill-rule="nonzero" fill-opacity="1" /><path clip-path="url(#clip690)" d="M66.5939 581.194 L54.7884 599.643 L66.5939 599.643 L66.5939 581.194 M65.367 577.12 L71.2466 577.12 L71.2466 599.643 L76.1772 599.643 L76.1772 603.532 L71.2466 603.532 L71.2466 611.68 L66.5939 611.68 L66.5939 603.532 L50.9921 603.532 L50.9921 599.018 L65.367 577.12 Z" fill="#000000" fill-rule="nonzero" fill-opacity="1" /><path clip-path="url(#clip690)" d="M83.9086 605.801 L88.7928 605.801 L88.7928 611.68 L83.9086 611.68 L83.9086 605.801 Z" fill="#000000" fill-rule="nonzero" fill-opacity="1" /><path clip-path="url(#clip690)" d="M108.978 580.199 Q105.367 580.199 103.538 583.764 Q101.733 587.305 101.733 594.435 Q101.733 601.541 103.538 605.106 Q105.367 608.648 108.978 608.648 Q112.612 608.648 114.418 605.106 Q116.246 601.541 116.246 594.435 Q116.246 587.305 114.418 583.764 Q112.612 580.199 108.978 580.199 M108.978 576.495 Q114.788 576.495 117.844 581.102 Q120.922 585.685 120.922 594.435 Q120.922 603.162 117.844 607.768 Q114.788 612.352 108.978 612.352 Q103.168 612.352 100.089 607.768 Q97.0335 603.162 97.0335 594.435 Q97.0335 585.685 100.089 581.102 Q103.168 576.495 108.978 576.495 Z" fill="#000000" fill-rule="nonzero" fill-opacity="1" /><path clip-path="url(#clip690)" d="M157.311 586.217 L146.732 596.842 L157.311 607.421 L154.556 610.222 L143.931 599.597 L133.306 610.222 L130.575 607.421 L141.131 596.842 L130.575 586.217 L133.306 583.416 L143.931 594.041 L154.556 583.416 L157.311 586.217 Z" fill="#000000" fill-rule="nonzero" fill-opacity="1" /><path clip-path="url(#clip690)" d="M169.672 607.745 L177.311 607.745 L177.311 581.379 L169.001 583.046 L169.001 578.787 L177.265 577.12 L181.94 577.12 L181.94 607.745 L189.579 607.745 L189.579 611.68 L169.672 611.68 L169.672 607.745 Z" fill="#000000" fill-rule="nonzero" fill-opacity="1" /><path clip-path="url(#clip690)" d="M209.024 580.199 Q205.413 580.199 203.584 583.764 Q201.778 587.305 201.778 594.435 Q201.778 601.541 203.584 605.106 Q205.413 608.648 209.024 608.648 Q212.658 608.648 214.463 605.106 Q216.292 601.541 216.292 594.435 Q216.292 587.305 214.463 583.764 Q212.658 580.199 209.024 580.199 M209.024 576.495 Q214.834 576.495 217.889 581.102 Q220.968 585.685 220.968 594.435 Q220.968 603.162 217.889 607.768 Q214.834 612.352 209.024 612.352 Q203.214 612.352 200.135 607.768 Q197.079 603.162 197.079 594.435 Q197.079 585.685 200.135 581.102 Q203.214 576.495 209.024 576.495 Z" fill="#000000" fill-rule="nonzero" fill-opacity="1" /><path clip-path="url(#clip690)" d="M222.153 556.19 L237.068 556.19 L237.068 559.387 L225.632 559.387 L225.632 566.271 Q226.46 565.989 227.287 565.857 Q228.115 565.707 228.943 565.707 Q233.645 565.707 236.39 568.283 Q239.136 570.86 239.136 575.261 Q239.136 579.794 236.315 582.314 Q233.494 584.815 228.36 584.815 Q226.592 584.815 224.748 584.514 Q222.924 584.213 220.968 583.612 L220.968 579.794 Q222.661 580.715 224.466 581.167 Q226.272 581.618 228.284 581.618 Q231.538 581.618 233.438 579.906 Q235.337 578.195 235.337 575.261 Q235.337 572.327 233.438 570.615 Q231.538 568.904 228.284 568.904 Q226.761 568.904 225.237 569.242 Q223.733 569.581 222.153 570.296 L222.153 556.19 Z" fill="#000000" fill-rule="nonzero" fill-opacity="1" /><path clip-path="url(#clip690)" d="M53.793 362.485 L72.1494 362.485 L72.1494 366.421 L58.0754 366.421 L58.0754 374.893 Q59.0939 374.545 60.1124 374.383 Q61.131 374.198 62.1495 374.198 Q67.9365 374.198 71.3161 377.37 Q74.6957 380.541 74.6957 385.957 Q74.6957 391.536 71.2235 394.638 Q67.7513 397.717 61.4319 397.717 Q59.256 397.717 56.9875 397.346 Q54.7421 396.976 52.3347 396.235 L52.3347 391.536 Q54.418 392.67 56.6402 393.226 Q58.8625 393.782 61.3393 393.782 Q65.3439 393.782 67.6819 391.675 Q70.0198 389.569 70.0198 385.957 Q70.0198 382.346 67.6819 380.24 Q65.3439 378.133 61.3393 378.133 Q59.4643 378.133 57.5893 378.55 Q55.7375 378.967 53.793 379.846 L53.793 362.485 Z" fill="#000000" fill-rule="nonzero" fill-opacity="1" /><path clip-path="url(#clip690)" d="M83.9086 391.166 L88.7928 391.166 L88.7928 397.045 L83.9086 397.045 L83.9086 391.166 Z" fill="#000000" fill-rule="nonzero" fill-opacity="1" /><path clip-path="url(#clip690)" d="M108.978 365.564 Q105.367 365.564 103.538 369.129 Q101.733 372.671 101.733 379.8 Q101.733 386.907 103.538 390.471 Q105.367 394.013 108.978 394.013 Q112.612 394.013 114.418 390.471 Q116.246 386.907 116.246 379.8 Q116.246 372.671 114.418 369.129 Q112.612 365.564 108.978 365.564 M108.978 361.86 Q114.788 361.86 117.844 366.467 Q120.922 371.05 120.922 379.8 Q120.922 388.527 117.844 393.133 Q114.788 397.717 108.978 397.717 Q103.168 397.717 100.089 393.133 Q97.0335 388.527 97.0335 379.8 Q97.0335 371.05 100.089 366.467 Q103.168 361.86 108.978 361.86 Z" fill="#000000" fill-rule="nonzero" fill-opacity="1" /><path clip-path="url(#clip690)" d="M157.311 371.583 L146.732 382.207 L157.311 392.786 L154.556 395.587 L143.931 384.962 L133.306 395.587 L130.575 392.786 L141.131 382.207 L130.575 371.583 L133.306 368.782 L143.931 379.407 L154.556 368.782 L157.311 371.583 Z" fill="#000000" fill-rule="nonzero" fill-opacity="1" /><path clip-path="url(#clip690)" d="M169.672 393.11 L177.311 393.11 L177.311 366.745 L169.001 368.411 L169.001 364.152 L177.265 362.485 L181.94 362.485 L181.94 393.11 L189.579 393.11 L189.579 397.045 L169.672 397.045 L169.672 393.11 Z" fill="#000000" fill-rule="nonzero" fill-opacity="1" /><path clip-path="url(#clip690)" d="M209.024 365.564 Q205.413 365.564 203.584 369.129 Q201.778 372.671 201.778 379.8 Q201.778 386.907 203.584 390.471 Q205.413 394.013 209.024 394.013 Q212.658 394.013 214.463 390.471 Q216.292 386.907 216.292 379.8 Q216.292 372.671 214.463 369.129 Q212.658 365.564 209.024 365.564 M209.024 361.86 Q214.834 361.86 217.889 366.467 Q220.968 371.05 220.968 379.8 Q220.968 388.527 217.889 393.133 Q214.834 397.717 209.024 397.717 Q203.214 397.717 200.135 393.133 Q197.079 388.527 197.079 379.8 Q197.079 371.05 200.135 366.467 Q203.214 361.86 209.024 361.86 Z" fill="#000000" fill-rule="nonzero" fill-opacity="1" /><path clip-path="url(#clip690)" d="M222.153 341.555 L237.068 341.555 L237.068 344.752 L225.632 344.752 L225.632 351.636 Q226.46 351.354 227.287 351.222 Q228.115 351.072 228.943 351.072 Q233.645 351.072 236.39 353.648 Q239.136 356.225 239.136 360.626 Q239.136 365.159 236.315 367.679 Q233.494 370.18 228.36 370.18 Q226.592 370.18 224.748 369.879 Q222.924 369.579 220.968 368.977 L220.968 365.159 Q222.661 366.08 224.466 366.532 Q226.272 366.983 228.284 366.983 Q231.538 366.983 233.438 365.272 Q235.337 363.56 235.337 360.626 Q235.337 357.692 233.438 355.981 Q231.538 354.269 228.284 354.269 Q226.761 354.269 225.237 354.608 Q223.733 354.946 222.153 355.661 L222.153 341.555 Z" fill="#000000" fill-rule="nonzero" fill-opacity="1" /><path clip-path="url(#clip690)" d="M64.3254 163.267 Q61.1773 163.267 59.3254 165.42 Q57.4967 167.573 57.4967 171.323 Q57.4967 175.049 59.3254 177.225 Q61.1773 179.378 64.3254 179.378 Q67.4735 179.378 69.3022 177.225 Q71.1541 175.049 71.1541 171.323 Q71.1541 167.573 69.3022 165.42 Q67.4735 163.267 64.3254 163.267 M73.6077 148.614 L73.6077 152.874 Q71.8485 152.04 70.0429 151.601 Q68.2606 151.161 66.5013 151.161 Q61.8717 151.161 59.418 154.286 Q56.9875 157.411 56.6402 163.73 Q58.006 161.716 60.0662 160.651 Q62.1263 159.563 64.6032 159.563 Q69.8115 159.563 72.8207 162.735 Q75.8531 165.883 75.8531 171.323 Q75.8531 176.647 72.705 179.864 Q69.5568 183.082 64.3254 183.082 Q58.33 183.082 55.1588 178.499 Q51.9875 173.892 51.9875 165.165 Q51.9875 156.971 55.8764 152.11 Q59.7652 147.226 66.3161 147.226 Q68.0754 147.226 69.8578 147.573 Q71.6633 147.92 73.6077 148.614 Z" fill="#000000" fill-rule="nonzero" fill-opacity="1" /><path clip-path="url(#clip690)" d="M83.9086 176.531 L88.7928 176.531 L88.7928 182.411 L83.9086 182.411 L83.9086 176.531 Z" fill="#000000" fill-rule="nonzero" fill-opacity="1" /><path clip-path="url(#clip690)" d="M108.978 150.929 Q105.367 150.929 103.538 154.494 Q101.733 158.036 101.733 165.165 Q101.733 172.272 103.538 175.836 Q105.367 179.378 108.978 179.378 Q112.612 179.378 114.418 175.836 Q116.246 172.272 116.246 165.165 Q116.246 158.036 114.418 154.494 Q112.612 150.929 108.978 150.929 M108.978 147.226 Q114.788 147.226 117.844 151.832 Q120.922 156.415 120.922 165.165 Q120.922 173.892 117.844 178.499 Q114.788 183.082 108.978 183.082 Q103.168 183.082 100.089 178.499 Q97.0335 173.892 97.0335 165.165 Q97.0335 156.415 100.089 151.832 Q103.168 147.226 108.978 147.226 Z" fill="#000000" fill-rule="nonzero" fill-opacity="1" /><path clip-path="url(#clip690)" d="M157.311 156.948 L146.732 167.573 L157.311 178.151 L154.556 180.952 L143.931 170.327 L133.306 180.952 L130.575 178.151 L141.131 167.573 L130.575 156.948 L133.306 154.147 L143.931 164.772 L154.556 154.147 L157.311 156.948 Z" fill="#000000" fill-rule="nonzero" fill-opacity="1" /><path clip-path="url(#clip690)" d="M169.672 178.475 L177.311 178.475 L177.311 152.11 L169.001 153.776 L169.001 149.517 L177.265 147.851 L181.94 147.851 L181.94 178.475 L189.579 178.475 L189.579 182.411 L169.672 182.411 L169.672 178.475 Z" fill="#000000" fill-rule="nonzero" fill-opacity="1" /><path clip-path="url(#clip690)" d="M209.024 150.929 Q205.413 150.929 203.584 154.494 Q201.778 158.036 201.778 165.165 Q201.778 172.272 203.584 175.836 Q205.413 179.378 209.024 179.378 Q212.658 179.378 214.463 175.836 Q216.292 172.272 216.292 165.165 Q216.292 158.036 214.463 154.494 Q212.658 150.929 209.024 150.929 M209.024 147.226 Q214.834 147.226 217.889 151.832 Q220.968 156.415 220.968 165.165 Q220.968 173.892 217.889 178.499 Q214.834 183.082 209.024 183.082 Q203.214 183.082 200.135 178.499 Q197.079 173.892 197.079 165.165 Q197.079 156.415 200.135 151.832 Q203.214 147.226 209.024 147.226 Z" fill="#000000" fill-rule="nonzero" fill-opacity="1" /><path clip-path="url(#clip690)" d="M222.153 126.92 L237.068 126.92 L237.068 130.117 L225.632 130.117 L225.632 137.001 Q226.46 136.719 227.287 136.587 Q228.115 136.437 228.943 136.437 Q233.645 136.437 236.39 139.014 Q239.136 141.59 239.136 145.991 Q239.136 150.524 236.315 153.044 Q233.494 155.546 228.36 155.546 Q226.592 155.546 224.748 155.245 Q222.924 154.944 220.968 154.342 L220.968 150.524 Q222.661 151.445 224.466 151.897 Q226.272 152.348 228.284 152.348 Q231.538 152.348 233.438 150.637 Q235.337 148.925 235.337 145.991 Q235.337 143.057 233.438 141.346 Q231.538 139.634 228.284 139.634 Q226.761 139.634 225.237 139.973 Q223.733 140.311 222.153 141.026 L222.153 126.92 Z" fill="#000000" fill-rule="nonzero" fill-opacity="1" /><polyline clip-path="url(#clip692)" style="stroke:#009af9; stroke-linecap:round; stroke-linejoin:round; stroke-width:4; stroke-opacity:1; fill:none" points="333.937,87.9763 353.537,92.7069 373.137,97.8225 392.737,103.542 412.338,109.864 431.938,116.771 451.538,124.243 471.138,132.262 490.738,140.811 510.339,149.871 529.939,159.426 549.539,169.462 569.139,179.962 588.739,190.911 608.34,202.297 627.94,214.104 647.54,226.32 667.14,238.931 686.74,251.924 706.34,265.285 725.941,279.003 745.541,293.065 765.141,307.457 784.741,322.169 804.341,337.186 823.942,352.497 843.542,368.09 863.142,383.953 882.742,400.073 902.342,416.437 921.942,433.035 941.543,449.853 961.143,466.88 980.743,484.104 1000.34,501.511 1019.94,519.091 1039.54,536.83 1059.14,554.716 1078.74,572.738 1098.34,590.883 1117.94,609.138 1137.54,627.492 1157.14,645.931 1176.74,664.443 1196.35,683.016 1215.95,701.637 1235.55,720.293 1255.15,738.972 1274.75,757.661 1294.35,776.348 1313.95,795.018 1333.55,813.66 1353.15,832.259 1372.75,850.804 1392.35,869.281 1411.95,887.676 1431.55,905.976 1451.15,924.168 1470.75,942.238 1490.35,960.172 1509.95,977.957 1529.55,995.578 1549.15,1013.02 1568.75,1030.27 1588.35,1047.32 1607.95,1064.14 1627.55,1080.73 1647.15,1097.07 1666.75,1113.15 1686.35,1128.94 1705.95,1144.44 1725.55,1159.63 1745.15,1174.49 1764.75,1189 1784.35,1203.16 1803.95,1216.93 1823.55,1230.32 1843.15,1243.29 1862.75,1255.83 1882.35,1267.92 1901.95,1279.55 1921.55,1290.68 1941.15,1301.31 1960.75,1311.41 1980.35,1320.95 1999.95,1329.92 2019.55,1338.29 2039.15,1346.05 2058.75,1353.16 2078.35,1359.64 2097.95,1365.48 2117.55,1370.77 2137.15,1375.71 2156.75,1380.73 2176.35,1386.72 2195.95,1395.02 2215.55,1407.06 2235.15,1422.26 2254.75,1435.4 2274.36,1442.8 2293.96,1445.72 "/>
<path clip-path="url(#clip690)" d="M2023.31 198.898 L2283.5 198.898 L2283.5 95.2176 L2023.31 95.2176  Z" fill="#ffffff" fill-rule="evenodd" fill-opacity="1"/>
<polyline clip-path="url(#clip690)" style="stroke:#000000; stroke-linecap:round; stroke-linejoin:round; stroke-width:4; stroke-opacity:1; fill:none" points="2023.31,198.898 2283.5,198.898 2283.5,95.2176 2023.31,95.2176 2023.31,198.898 "/>
<polyline clip-path="url(#clip690)" style="stroke:#009af9; stroke-linecap:round; stroke-linejoin:round; stroke-width:4; stroke-opacity:1; fill:none" points="2046.39,147.058 2184.9,147.058 "/>
<path clip-path="url(#clip690)" d="M2221.83 166.745 Q2220.02 171.375 2218.31 172.787 Q2216.6 174.199 2213.73 174.199 L2210.32 174.199 L2210.32 170.634 L2212.82 170.634 Q2214.58 170.634 2215.56 169.8 Q2216.53 168.967 2217.71 165.865 L2218.47 163.921 L2207.99 138.412 L2212.5 138.412 L2220.6 158.689 L2228.7 138.412 L2233.22 138.412 L2221.83 166.745 Z" fill="#000000" fill-rule="nonzero" fill-opacity="1" /><path clip-path="url(#clip690)" d="M2240.51 160.402 L2248.15 160.402 L2248.15 134.037 L2239.84 135.703 L2239.84 131.444 L2248.1 129.778 L2252.78 129.778 L2252.78 160.402 L2260.42 160.402 L2260.42 164.338 L2240.51 164.338 L2240.51 160.402 Z" fill="#000000" fill-rule="nonzero" fill-opacity="1" /></svg>
