<?xml version="1.0" encoding="UTF-8" standalone="no"?>
<!DOCTYPE svg PUBLIC "-//W3C//DTD SVG 1.1//EN"
 "http://www.w3.org/Graphics/SVG/1.1/DTD/svg11.dtd">
<!-- Generated by graphviz version 12.1.2 (20240928.0832)
 -->
<!-- Title: G Pages: 1 -->
<svg width="896pt" height="612pt"
 viewBox="0.00 0.00 896.48 612.38" xmlns="http://www.w3.org/2000/svg" xmlns:xlink="http://www.w3.org/1999/xlink">
<g id="graph0" class="graph" transform="scale(1 1) rotate(0) translate(4 608.38)">
<title>G</title>
<polygon fill="white" stroke="none" points="-4,4 -4,-608.38 892.48,-608.38 892.48,4 -4,4"/>
<!-- VacuumFields -->
<g id="node1" class="node">
<title>VacuumFields</title>
<ellipse fill="none" stroke="black" stroke-width="3" cx="182.27" cy="-336" rx="56.14" ry="18"/>
<text text-anchor="middle" x="182.27" y="-330.98" font-family="Helvetica,sans-Serif" font-size="12.00">VacuumFields</text>
</g>
<!-- FusionMaterials -->
<g id="node2" class="node">
<title>FusionMaterials</title>
<ellipse fill="none" stroke="black" stroke-width="3" cx="394.68" cy="-380" rx="62.1" ry="18"/>
<text text-anchor="middle" x="394.68" y="-374.98" font-family="Helvetica,sans-Serif" font-size="12.00">FusionMaterials</text>
</g>
<!-- VacuumFields&#45;&gt;FusionMaterials -->
<g id="edge1" class="edge">
<title>VacuumFields&#45;&gt;FusionMaterials</title>
<path fill="none" stroke="#cf74f5" stroke-width="2" d="M231.54,-346.09C260.55,-352.16 297.81,-359.95 329.3,-366.54"/>
<polygon fill="#cf74f5" stroke="#cf74f5" stroke-width="2" points="328.49,-369.94 338.99,-368.56 329.92,-363.09 328.49,-369.94"/>
</g>
<!-- MXHEquilibrium -->
<g id="node3" class="node">
<title>MXHEquilibrium</title>
<ellipse fill="none" stroke="black" stroke-width="3" cx="596.07" cy="-306" rx="63.48" ry="18"/>
<text text-anchor="middle" x="596.07" y="-300.98" font-family="Helvetica,sans-Serif" font-size="12.00">MXHEquilibrium</text>
</g>
<!-- VacuumFields&#45;&gt;MXHEquilibrium -->
<g id="edge2" class="edge">
<title>VacuumFields&#45;&gt;MXHEquilibrium</title>
<path fill="none" stroke="#fbba99" stroke-width="2" d="M238.38,-331.99C310.91,-326.7 438.7,-317.39 520.01,-311.47"/>
<polygon fill="#fbba99" stroke="#fbba99" stroke-width="2" points="520.15,-314.97 529.87,-310.75 519.64,-307.99 520.15,-314.97"/>
</g>
<!-- IMAS -->
<g id="node6" class="node">
<title>IMAS</title>
<ellipse fill="none" stroke="black" stroke-width="3" cx="596.07" cy="-409" rx="27.69" ry="18"/>
<text text-anchor="middle" x="596.07" y="-403.98" font-family="Helvetica,sans-Serif" font-size="12.00">IMAS</text>
</g>
<!-- VacuumFields&#45;&gt;IMAS -->
<g id="edge14" class="edge">
<title>VacuumFields&#45;&gt;IMAS</title>
<path fill="none" stroke="#f4a88a" stroke-width="2" d="M238.82,-339.19C319.4,-343.97 461.67,-353.08 484.77,-359 512.14,-366.01 541.17,-379.44 562.57,-390.62"/>
<polygon fill="#f4a88a" stroke="#f4a88a" stroke-width="2" points="560.79,-393.63 571.25,-395.27 564.09,-387.46 560.79,-393.63"/>
</g>
<!-- MillerExtendedHarmonic -->
<g id="node16" class="node">
<title>MillerExtendedHarmonic</title>
<ellipse fill="none" stroke="black" stroke-width="3" cx="797.92" cy="-306" rx="90.56" ry="18"/>
<text text-anchor="middle" x="797.92" y="-300.98" font-family="Helvetica,sans-Serif" font-size="12.00">MillerExtendedHarmonic</text>
</g>
<!-- VacuumFields&#45;&gt;MillerExtendedHarmonic -->
<g id="edge23" class="edge">
<title>VacuumFields&#45;&gt;MillerExtendedHarmonic</title>
<path fill="none" stroke="#14fa16" stroke-width="2" d="M239.51,-338.14C331.53,-340.96 519.91,-343.87 678.37,-328 692.08,-326.63 706.58,-324.5 720.56,-322.11"/>
<polygon fill="#14fa16" stroke="#14fa16" stroke-width="2" points="721.01,-325.59 730.23,-320.38 719.77,-318.69 721.01,-325.59"/>
</g>
<!-- TEQUILA -->
<g id="node18" class="node">
<title>TEQUILA</title>
<ellipse fill="none" stroke="black" stroke-width="3" cx="394.68" cy="-234" rx="41.45" ry="18"/>
<text text-anchor="middle" x="394.68" y="-228.97" font-family="Helvetica,sans-Serif" font-size="12.00">TEQUILA</text>
</g>
<!-- VacuumFields&#45;&gt;TEQUILA -->
<g id="edge24" class="edge">
<title>VacuumFields&#45;&gt;TEQUILA</title>
<path fill="none" stroke="#fec2d5" stroke-width="2" d="M214.17,-319.97C232.58,-309.93 256.08,-296.22 275.58,-282 289.57,-271.8 289.28,-264.09 304.58,-256 315.77,-250.08 328.59,-245.72 340.95,-242.52"/>
<polygon fill="#fec2d5" stroke="#fec2d5" stroke-width="2" points="341.68,-245.94 350.63,-240.27 340.1,-239.12 341.68,-245.94"/>
</g>
<!-- FusionMaterials&#45;&gt;IMAS -->
<g id="edge21" class="edge">
<title>FusionMaterials&#45;&gt;IMAS</title>
<path fill="none" stroke="#e37229" stroke-width="2" d="M452.28,-388.23C485.03,-393 525.46,-398.88 554.93,-403.16"/>
<polygon fill="#e37229" stroke="#e37229" stroke-width="2" points="554.24,-406.6 564.64,-404.57 555.25,-399.67 554.24,-406.6"/>
</g>
<!-- CoordinateConventions -->
<g id="node15" class="node">
<title>CoordinateConventions</title>
<ellipse fill="none" stroke="black" stroke-width="3" cx="797.92" cy="-350" rx="87.34" ry="18"/>
<text text-anchor="middle" x="797.92" y="-344.98" font-family="Helvetica,sans-Serif" font-size="12.00">CoordinateConventions</text>
</g>
<!-- MXHEquilibrium&#45;&gt;CoordinateConventions -->
<g id="edge16" class="edge">
<title>MXHEquilibrium&#45;&gt;CoordinateConventions</title>
<path fill="none" stroke="#f822c8" stroke-width="2" d="M648.8,-317.39C671.15,-322.31 697.74,-328.16 722.18,-333.55"/>
<polygon fill="#f822c8" stroke="#f822c8" stroke-width="2" points="721.26,-336.93 731.78,-335.66 722.76,-330.09 721.26,-336.93"/>
</g>
<!-- MXHEquilibrium&#45;&gt;MillerExtendedHarmonic -->
<g id="edge40" class="edge">
<title>MXHEquilibrium&#45;&gt;MillerExtendedHarmonic</title>
<path fill="none" stroke="#4a7b9b" stroke-width="2" d="M660.85,-306C671.2,-306 682.14,-306 693.15,-306"/>
<polygon fill="#4a7b9b" stroke="#4a7b9b" stroke-width="2" points="693.04,-309.5 703.04,-306 693.04,-302.5 693.04,-309.5"/>
</g>
<!-- MeshTools -->
<g id="node20" class="node">
<title>MeshTools</title>
<ellipse fill="none" stroke="black" stroke-width="3" cx="797.92" cy="-263" rx="45.12" ry="18"/>
<text text-anchor="middle" x="797.92" y="-257.98" font-family="Helvetica,sans-Serif" font-size="12.00">MeshTools</text>
</g>
<!-- MXHEquilibrium&#45;&gt;MeshTools -->
<g id="edge31" class="edge">
<title>MXHEquilibrium&#45;&gt;MeshTools</title>
<path fill="none" stroke="#f1a576" stroke-width="2" d="M649.06,-294.81C678.27,-288.53 714.66,-280.7 744.02,-274.38"/>
<polygon fill="#f1a576" stroke="#f1a576" stroke-width="2" points="744.55,-277.85 753.59,-272.32 743.08,-271.01 744.55,-277.85"/>
</g>
<!-- FUSE -->
<g id="node4" class="node">
<title>FUSE</title>
<ellipse fill="none" stroke="black" stroke-width="3" cx="29.98" cy="-299" rx="29.98" ry="18"/>
<text text-anchor="middle" x="29.98" y="-293.98" font-family="Helvetica,sans-Serif" font-size="12.00">FUSE</text>
</g>
<!-- FUSE&#45;&gt;VacuumFields -->
<g id="edge27" class="edge">
<title>FUSE&#45;&gt;VacuumFields</title>
<path fill="none" stroke="#ff3a30" stroke-width="2" d="M59.25,-305.96C77.16,-310.37 100.99,-316.24 122.84,-321.61"/>
<polygon fill="#ff3a30" stroke="#ff3a30" stroke-width="2" points="121.92,-324.99 132.47,-323.99 123.6,-318.2 121.92,-324.99"/>
</g>
<!-- FUSE&#45;&gt;FusionMaterials -->
<g id="edge42" class="edge">
<title>FUSE&#45;&gt;FusionMaterials</title>
<path fill="none" stroke="#376f7e" stroke-width="2" d="M42.72,-316.6C53.08,-330.51 69.54,-349.02 88.96,-358 163.5,-392.47 259.34,-393.29 323.45,-388.56"/>
<polygon fill="#376f7e" stroke="#376f7e" stroke-width="2" points="323.53,-392.06 333.21,-387.75 322.96,-385.08 323.53,-392.06"/>
</g>
<!-- FUSE&#45;&gt;MXHEquilibrium -->
<g id="edge41" class="edge">
<title>FUSE&#45;&gt;MXHEquilibrium</title>
<path fill="none" stroke="#4bbe86" stroke-width="2" d="M61.31,-299.38C146.95,-300.44 392.59,-303.49 518.56,-305.05"/>
<polygon fill="#4bbe86" stroke="#4bbe86" stroke-width="2" points="518.4,-308.55 528.44,-305.17 518.48,-301.55 518.4,-308.55"/>
</g>
<!-- QED -->
<g id="node5" class="node">
<title>QED</title>
<ellipse fill="none" stroke="black" stroke-width="3" cx="394.68" cy="-191" rx="27" ry="18"/>
<text text-anchor="middle" x="394.68" y="-185.97" font-family="Helvetica,sans-Serif" font-size="12.00">QED</text>
</g>
<!-- FUSE&#45;&gt;QED -->
<g id="edge3" class="edge">
<title>FUSE&#45;&gt;QED</title>
<path fill="none" stroke="#ab95fa" stroke-width="2" d="M52.76,-285.64C63.31,-279.83 76.4,-273.54 88.96,-270 129.03,-258.71 239.47,-274.69 275.58,-254 294.95,-242.9 286.14,-225.58 304.58,-213 319.02,-203.15 337.44,-197.7 353.78,-194.69"/>
<polygon fill="#ab95fa" stroke="#ab95fa" stroke-width="2" points="353.98,-198.21 363.33,-193.23 352.91,-191.29 353.98,-198.21"/>
</g>
<!-- FUSE&#45;&gt;IMAS -->
<g id="edge4" class="edge">
<title>FUSE&#45;&gt;IMAS</title>
<path fill="none" stroke="#7bc4fc" stroke-width="2" d="M38.79,-317.48C47.85,-336.43 64.74,-365.04 88.96,-379 167.69,-424.36 448.59,-416.07 554.38,-411.16"/>
<polygon fill="#7bc4fc" stroke="#7bc4fc" stroke-width="2" points="554.4,-414.66 564.22,-410.69 554.07,-407.67 554.4,-414.66"/>
</g>
<!-- TGLFNN -->
<g id="node7" class="node">
<title>TGLFNN</title>
<ellipse fill="none" stroke="black" stroke-width="3" cx="394.68" cy="-481" rx="39.62" ry="18"/>
<text text-anchor="middle" x="394.68" y="-475.98" font-family="Helvetica,sans-Serif" font-size="12.00">TGLFNN</text>
</g>
<!-- FUSE&#45;&gt;TGLFNN -->
<g id="edge5" class="edge">
<title>FUSE&#45;&gt;TGLFNN</title>
<path fill="none" stroke="#7d0900" stroke-width="2" d="M32.91,-318.37C37.11,-349.45 50.09,-410.01 88.96,-440 162.6,-496.82 277.16,-495.29 342.83,-488.51"/>
<polygon fill="#7d0900" stroke="#7d0900" stroke-width="2" points="343.12,-492 352.66,-487.39 342.33,-485.04 343.12,-492"/>
</g>
<!-- NEO -->
<g id="node8" class="node">
<title>NEO</title>
<ellipse fill="none" stroke="black" stroke-width="3" cx="394.68" cy="-438" rx="27" ry="18"/>
<text text-anchor="middle" x="394.68" y="-432.98" font-family="Helvetica,sans-Serif" font-size="12.00">NEO</text>
</g>
<!-- FUSE&#45;&gt;NEO -->
<g id="edge6" class="edge">
<title>FUSE&#45;&gt;NEO</title>
<path fill="none" stroke="#626770" stroke-width="2" d="M34.54,-317.9C40.63,-344.36 55.73,-391.69 88.96,-414 170.44,-468.7 293.21,-456.89 355.1,-446.12"/>
<polygon fill="#626770" stroke="#626770" stroke-width="2" points="355.53,-449.61 364.73,-444.35 354.26,-442.72 355.53,-449.61"/>
</g>
<!-- TJLF -->
<g id="node9" class="node">
<title>TJLF</title>
<ellipse fill="none" stroke="black" stroke-width="3" cx="182.27" cy="-233" rx="27" ry="18"/>
<text text-anchor="middle" x="182.27" y="-227.97" font-family="Helvetica,sans-Serif" font-size="12.00">TJLF</text>
</g>
<!-- FUSE&#45;&gt;TJLF -->
<g id="edge7" class="edge">
<title>FUSE&#45;&gt;TJLF</title>
<path fill="none" stroke="#58faee" stroke-width="2" d="M48.67,-283.5C59.62,-274.61 74.35,-263.89 88.96,-257 105.67,-249.12 125.35,-243.55 142.23,-239.77"/>
<polygon fill="#58faee" stroke="#58faee" stroke-width="2" points="142.46,-243.3 151.54,-237.84 141.04,-236.45 142.46,-243.3"/>
</g>
<!-- CHEASE -->
<g id="node10" class="node">
<title>CHEASE</title>
<ellipse fill="none" stroke="black" stroke-width="3" cx="394.68" cy="-277" rx="40.99" ry="18"/>
<text text-anchor="middle" x="394.68" y="-271.98" font-family="Helvetica,sans-Serif" font-size="12.00">CHEASE</text>
</g>
<!-- FUSE&#45;&gt;CHEASE -->
<g id="edge30" class="edge">
<title>FUSE&#45;&gt;CHEASE</title>
<path fill="none" stroke="#f97eb7" stroke-width="2" d="M61.28,-297.16C122.68,-293.44 262.5,-284.96 339.8,-280.27"/>
<polygon fill="#f97eb7" stroke="#f97eb7" stroke-width="2" points="339.77,-283.78 349.54,-279.68 339.35,-276.79 339.77,-283.78"/>
</g>
<!-- IMASutils -->
<g id="node11" class="node">
<title>IMASutils</title>
<ellipse fill="none" stroke="black" stroke-width="3" cx="797.92" cy="-481" rx="40.99" ry="18"/>
<text text-anchor="middle" x="797.92" y="-475.98" font-family="Helvetica,sans-Serif" font-size="12.00">IMASutils</text>
</g>
<!-- FUSE&#45;&gt;IMASutils -->
<g id="edge9" class="edge">
<title>FUSE&#45;&gt;IMASutils</title>
<path fill="none" stroke="#bd35f2" stroke-width="2" d="M32.92,-318.07C38.48,-368.92 56.26,-505.9 88.96,-535 187.02,-622.27 554.29,-616.86 678.37,-574 715.84,-561.05 750.5,-530.84 772.54,-508.34"/>
<polygon fill="#bd35f2" stroke="#bd35f2" stroke-width="2" points="775.03,-510.8 779.38,-501.13 769.96,-505.98 775.03,-510.8"/>
</g>
<!-- BoundaryPlasmaModels -->
<g id="node13" class="node">
<title>BoundaryPlasmaModels</title>
<ellipse fill="none" stroke="black" stroke-width="3" cx="394.68" cy="-524" rx="90.1" ry="18"/>
<text text-anchor="middle" x="394.68" y="-518.98" font-family="Helvetica,sans-Serif" font-size="12.00">BoundaryPlasmaModels</text>
</g>
<!-- FUSE&#45;&gt;BoundaryPlasmaModels -->
<g id="edge36" class="edge">
<title>FUSE&#45;&gt;BoundaryPlasmaModels</title>
<path fill="none" stroke="#290263" stroke-width="2" d="M31.41,-318.21C33.34,-354.15 42.92,-431.51 88.96,-471 145.8,-519.75 231.14,-531.11 297.06,-531.36"/>
<polygon fill="#290263" stroke="#290263" stroke-width="2" points="296.97,-534.86 306.94,-531.29 296.92,-527.86 296.97,-534.86"/>
</g>
<!-- SimulationParameters -->
<g id="node14" class="node">
<title>SimulationParameters</title>
<ellipse fill="none" stroke="black" stroke-width="3" cx="596.07" cy="-553" rx="82.3" ry="18"/>
<text text-anchor="middle" x="596.07" y="-547.98" font-family="Helvetica,sans-Serif" font-size="12.00">SimulationParameters</text>
</g>
<!-- FUSE&#45;&gt;SimulationParameters -->
<g id="edge25" class="edge">
<title>FUSE&#45;&gt;SimulationParameters</title>
<path fill="none" stroke="#0b23d0" stroke-width="2" d="M30.15,-318.4C29.51,-359.64 34.31,-456.27 88.96,-506 147.37,-559.15 371.49,-560.95 501.06,-557.23"/>
<polygon fill="#0b23d0" stroke="#0b23d0" stroke-width="2" points="501.15,-560.73 511.04,-556.92 500.94,-553.73 501.15,-560.73"/>
</g>
<!-- RABBIT -->
<g id="node17" class="node">
<title>RABBIT</title>
<ellipse fill="none" stroke="black" stroke-width="3" cx="182.27" cy="-190" rx="36.86" ry="18"/>
<text text-anchor="middle" x="182.27" y="-184.97" font-family="Helvetica,sans-Serif" font-size="12.00">RABBIT</text>
</g>
<!-- FUSE&#45;&gt;RABBIT -->
<g id="edge19" class="edge">
<title>FUSE&#45;&gt;RABBIT</title>
<path fill="none" stroke="#c7fa24" stroke-width="2" d="M38.44,-280.33C47.41,-260.31 64.39,-229.12 88.96,-212 101.51,-203.26 117.09,-197.97 131.86,-194.77"/>
<polygon fill="#c7fa24" stroke="#c7fa24" stroke-width="2" points="132.34,-198.24 141.55,-193 131.09,-191.35 132.34,-198.24"/>
</g>
<!-- FUSE&#45;&gt;TEQUILA -->
<g id="edge22" class="edge">
<title>FUSE&#45;&gt;TEQUILA</title>
<path fill="none" stroke="#989401" stroke-width="2" d="M58.83,-291.43C68.33,-289.08 79.06,-286.67 88.96,-285 171.14,-271.19 194.44,-285.94 275.58,-267 289.01,-263.87 291.42,-260.1 304.58,-256 317.13,-252.09 330.84,-248.41 343.67,-245.23"/>
<polygon fill="#989401" stroke="#989401" stroke-width="2" points="344.28,-248.68 353.18,-242.93 342.64,-241.87 344.28,-248.68"/>
</g>
<!-- EPEDNN -->
<g id="node19" class="node">
<title>EPEDNN</title>
<ellipse fill="none" stroke="black" stroke-width="3" cx="182.27" cy="-147" rx="41.45" ry="18"/>
<text text-anchor="middle" x="182.27" y="-141.97" font-family="Helvetica,sans-Serif" font-size="12.00">EPEDNN</text>
</g>
<!-- FUSE&#45;&gt;EPEDNN -->
<g id="edge26" class="edge">
<title>FUSE&#45;&gt;EPEDNN</title>
<path fill="none" stroke="#f4ab73" stroke-width="2" d="M34.04,-279.89C39.65,-251.31 54.35,-197.72 88.96,-169 99.83,-159.98 113.78,-154.53 127.52,-151.28"/>
<polygon fill="#f4ab73" stroke="#f4ab73" stroke-width="2" points="127.86,-154.78 137.02,-149.44 126.53,-147.91 127.86,-154.78"/>
</g>
<!-- BalanceOfPlantSurrogate -->
<g id="node22" class="node">
<title>BalanceOfPlantSurrogate</title>
<ellipse fill="none" stroke="black" stroke-width="3" cx="182.27" cy="-104" rx="93.31" ry="18"/>
<text text-anchor="middle" x="182.27" y="-98.97" font-family="Helvetica,sans-Serif" font-size="12.00">BalanceOfPlantSurrogate</text>
</g>
<!-- FUSE&#45;&gt;BalanceOfPlantSurrogate -->
<g id="edge33" class="edge">
<title>FUSE&#45;&gt;BalanceOfPlantSurrogate</title>
<path fill="none" stroke="#a4976b" stroke-width="2" d="M31.62,-279.66C33.91,-243.83 44.08,-167.04 88.96,-126 90.59,-124.51 92.31,-123.11 94.09,-121.81"/>
<polygon fill="#a4976b" stroke="#a4976b" stroke-width="2" points="95.59,-124.99 102.36,-116.84 91.99,-118.99 95.59,-124.99"/>
</g>
<!-- ThermalSystemModels -->
<g id="node23" class="node">
<title>ThermalSystemModels</title>
<ellipse fill="none" stroke="black" stroke-width="3" cx="182.27" cy="-61" rx="85.05" ry="18"/>
<text text-anchor="middle" x="182.27" y="-55.98" font-family="Helvetica,sans-Serif" font-size="12.00">ThermalSystemModels</text>
</g>
<!-- FUSE&#45;&gt;ThermalSystemModels -->
<g id="edge34" class="edge">
<title>FUSE&#45;&gt;ThermalSystemModels</title>
<path fill="none" stroke="#c64704" stroke-width="2" d="M30.08,-279.65C29.25,-237.5 33.56,-136.86 88.96,-83 91.21,-80.82 93.62,-78.84 96.18,-77.05"/>
<polygon fill="#c64704" stroke="#c64704" stroke-width="2" points="97.77,-80.17 104.72,-72.17 94.3,-74.09 97.77,-80.17"/>
</g>
<!-- NNeutronics -->
<g id="node25" class="node">
<title>NNeutronics</title>
<ellipse fill="none" stroke="black" stroke-width="3" cx="182.27" cy="-18" rx="50.63" ry="18"/>
<text text-anchor="middle" x="182.27" y="-12.97" font-family="Helvetica,sans-Serif" font-size="12.00">NNeutronics</text>
</g>
<!-- FUSE&#45;&gt;NNeutronics -->
<g id="edge39" class="edge">
<title>FUSE&#45;&gt;NNeutronics</title>
<path fill="none" stroke="#113b95" stroke-width="2" d="M32.67,-279.87C37.82,-225.94 55.07,-74.36 88.96,-40 96.95,-31.9 107.34,-26.57 118.26,-23.11"/>
<polygon fill="#113b95" stroke="#113b95" stroke-width="2" points="118.94,-26.54 127.77,-20.69 117.22,-19.76 118.94,-26.54"/>
</g>
<!-- FiniteElementHermite -->
<g id="node12" class="node">
<title>FiniteElementHermite</title>
<ellipse fill="none" stroke="black" stroke-width="3" cx="596.07" cy="-198" rx="80.92" ry="18"/>
<text text-anchor="middle" x="596.07" y="-192.97" font-family="Helvetica,sans-Serif" font-size="12.00">FiniteElementHermite</text>
</g>
<!-- QED&#45;&gt;FiniteElementHermite -->
<g id="edge11" class="edge">
<title>QED&#45;&gt;FiniteElementHermite</title>
<path fill="none" stroke="#6c1519" stroke-width="2" d="M422.98,-191.96C443.61,-192.68 473.2,-193.72 502.05,-194.73"/>
<polygon fill="#6c1519" stroke="#6c1519" stroke-width="2" points="501.63,-198.22 511.75,-195.07 501.88,-191.23 501.63,-198.22"/>
</g>
<!-- IMAS&#45;&gt;IMASutils -->
<g id="edge10" class="edge">
<title>IMAS&#45;&gt;IMASutils</title>
<path fill="none" stroke="#c6bd57" stroke-width="2" d="M619.38,-420.59C641.32,-431.63 675.98,-448.13 707.37,-459 719.85,-463.32 733.59,-467.14 746.47,-470.34"/>
<polygon fill="#c6bd57" stroke="#c6bd57" stroke-width="2" points="745.52,-473.71 756.06,-472.62 747.14,-466.9 745.52,-473.71"/>
</g>
<!-- IMAS&#45;&gt;CoordinateConventions -->
<g id="edge45" class="edge">
<title>IMAS&#45;&gt;CoordinateConventions</title>
<path fill="none" stroke="#23315b" stroke-width="2" d="M621.9,-400.39C644.16,-392.79 677.78,-381.62 707.37,-373 713.47,-371.22 719.83,-369.44 726.22,-367.71"/>
<polygon fill="#23315b" stroke="#23315b" stroke-width="2" points="726.8,-371.17 735.56,-365.21 725,-364.41 726.8,-371.17"/>
</g>
<!-- IMAS&#45;&gt;MillerExtendedHarmonic -->
<g id="edge17" class="edge">
<title>IMAS&#45;&gt;MillerExtendedHarmonic</title>
<path fill="none" stroke="#031880" stroke-width="2" d="M613.73,-393.77C634.28,-375.77 670.97,-346.11 707.37,-329 711.53,-327.04 715.89,-325.23 720.35,-323.56"/>
<polygon fill="#031880" stroke="#031880" stroke-width="2" points="721.1,-327 729.43,-320.45 718.83,-320.38 721.1,-327"/>
</g>
<!-- FuseExchangeProtocol -->
<g id="node24" class="node">
<title>FuseExchangeProtocol</title>
<ellipse fill="none" stroke="black" stroke-width="3" cx="797.92" cy="-437" rx="86.43" ry="18"/>
<text text-anchor="middle" x="797.92" y="-431.98" font-family="Helvetica,sans-Serif" font-size="12.00">FuseExchangeProtocol</text>
</g>
<!-- IMAS&#45;&gt;FuseExchangeProtocol -->
<g id="edge35" class="edge">
<title>IMAS&#45;&gt;FuseExchangeProtocol</title>
<path fill="none" stroke="#22ac77" stroke-width="2" d="M624.44,-412.83C646.8,-415.97 679.68,-420.57 710.75,-424.93"/>
<polygon fill="#22ac77" stroke="#22ac77" stroke-width="2" points="710.07,-428.37 720.46,-426.29 711.04,-421.43 710.07,-428.37"/>
</g>
<!-- IMASdd -->
<g id="node26" class="node">
<title>IMASdd</title>
<ellipse fill="none" stroke="black" stroke-width="3" cx="797.92" cy="-394" rx="35.95" ry="18"/>
<text text-anchor="middle" x="797.92" y="-388.98" font-family="Helvetica,sans-Serif" font-size="12.00">IMASdd</text>
</g>
<!-- IMAS&#45;&gt;IMASdd -->
<g id="edge46" class="edge">
<title>IMAS&#45;&gt;IMASdd</title>
<path fill="none" stroke="#ddfd18" stroke-width="2" d="M624.86,-406.91C656.69,-404.53 709.42,-400.57 748.13,-397.66"/>
<polygon fill="#ddfd18" stroke="#ddfd18" stroke-width="2" points="748.2,-401.17 757.91,-396.93 747.67,-394.19 748.2,-401.17"/>
</g>
<!-- TGLFNN&#45;&gt;IMAS -->
<g id="edge37" class="edge">
<title>TGLFNN&#45;&gt;IMAS</title>
<path fill="none" stroke="#ca25ac" stroke-width="2" d="M432.53,-473.5C448.75,-469.79 467.92,-464.85 484.77,-459 511.13,-449.86 539.8,-436.76 561.3,-426.26"/>
<polygon fill="#ca25ac" stroke="#ca25ac" stroke-width="2" points="562.64,-429.51 570.04,-421.93 559.53,-423.24 562.64,-429.51"/>
</g>
<!-- TGLFNN&#45;&gt;IMASutils -->
<g id="edge15" class="edge">
<title>TGLFNN&#45;&gt;IMASutils</title>
<path fill="none" stroke="#9e26cf" stroke-width="2" d="M435.3,-478.9C458.22,-477.8 487.62,-476.55 513.77,-476 586.91,-474.45 605.23,-474.46 678.37,-476 699.49,-476.45 722.71,-477.34 742.96,-478.24"/>
<polygon fill="#9e26cf" stroke="#9e26cf" stroke-width="2" points="742.61,-481.73 752.76,-478.7 742.93,-474.74 742.61,-481.73"/>
</g>
<!-- NEO&#45;&gt;IMAS -->
<g id="edge20" class="edge">
<title>NEO&#45;&gt;IMAS</title>
<path fill="none" stroke="#114325" stroke-width="2" d="M422.57,-434.09C456.59,-429.14 515.48,-420.58 554.86,-414.85"/>
<polygon fill="#114325" stroke="#114325" stroke-width="2" points="555.26,-418.33 564.65,-413.42 554.25,-411.4 555.26,-418.33"/>
</g>
<!-- CHEASE&#45;&gt;MXHEquilibrium -->
<g id="edge8" class="edge">
<title>CHEASE&#45;&gt;MXHEquilibrium</title>
<path fill="none" stroke="#a1f35a" stroke-width="2" d="M435.07,-282.73C460.69,-286.46 494.83,-291.42 524.98,-295.81"/>
<polygon fill="#a1f35a" stroke="#a1f35a" stroke-width="2" points="524.23,-299.23 534.63,-297.21 525.24,-292.31 524.23,-299.23"/>
</g>
<!-- CHEASE&#45;&gt;MillerExtendedHarmonic -->
<g id="edge43" class="edge">
<title>CHEASE&#45;&gt;MillerExtendedHarmonic</title>
<path fill="none" stroke="#add328" stroke-width="2" d="M437,-276.27C492.18,-275.74 592.89,-276.27 678.37,-285 691.45,-286.34 705.26,-288.28 718.65,-290.46"/>
<polygon fill="#add328" stroke="#add328" stroke-width="2" points="717.89,-293.88 728.33,-292.1 719.06,-286.98 717.89,-293.88"/>
</g>
<!-- BoundaryPlasmaModels&#45;&gt;IMAS -->
<g id="edge12" class="edge">
<title>BoundaryPlasmaModels&#45;&gt;IMAS</title>
<path fill="none" stroke="#949bcb" stroke-width="2" d="M463.16,-511.11C470.66,-508.58 478.01,-505.58 484.77,-502 500.08,-493.91 500.65,-487.28 513.77,-476 531.41,-460.84 551.58,-444.21 567.42,-431.31"/>
<polygon fill="#949bcb" stroke="#949bcb" stroke-width="2" points="569.22,-434.36 574.78,-425.34 564.81,-428.92 569.22,-434.36"/>
</g>
<!-- BoundaryPlasmaModels&#45;&gt;IMASutils -->
<g id="edge18" class="edge">
<title>BoundaryPlasmaModels&#45;&gt;IMASutils</title>
<path fill="none" stroke="#f88798" stroke-width="2" d="M458.4,-510.02C467.33,-507.59 476.34,-504.91 484.77,-502 498.13,-497.4 500.01,-492.15 513.77,-489 592.27,-471.05 686.19,-472.79 743.69,-476.37"/>
<polygon fill="#f88798" stroke="#f88798" stroke-width="2" points="743.21,-479.85 753.42,-477.03 743.68,-472.86 743.21,-479.85"/>
</g>
<!-- BoundaryPlasmaModels&#45;&gt;SimulationParameters -->
<g id="edge13" class="edge">
<title>BoundaryPlasmaModels&#45;&gt;SimulationParameters</title>
<path fill="none" stroke="#3e2df7" stroke-width="2" d="M470.49,-534.88C484.11,-536.86 498.4,-538.94 512.23,-540.95"/>
<polygon fill="#3e2df7" stroke="#3e2df7" stroke-width="2" points="511.39,-544.37 521.79,-542.34 512.4,-537.44 511.39,-544.37"/>
</g>
<!-- ADAS -->
<g id="node21" class="node">
<title>ADAS</title>
<ellipse fill="none" stroke="black" stroke-width="3" cx="596.07" cy="-510" rx="30.44" ry="18"/>
<text text-anchor="middle" x="596.07" y="-504.98" font-family="Helvetica,sans-Serif" font-size="12.00">ADAS</text>
</g>
<!-- BoundaryPlasmaModels&#45;&gt;ADAS -->
<g id="edge32" class="edge">
<title>BoundaryPlasmaModels&#45;&gt;ADAS</title>
<path fill="none" stroke="#511453" stroke-width="2" d="M481.69,-517.96C505.89,-516.26 531.2,-514.48 551.75,-513.04"/>
<polygon fill="#511453" stroke="#511453" stroke-width="2" points="551.76,-516.55 561.49,-512.36 551.27,-509.57 551.76,-516.55"/>
</g>
<!-- SimulationParameters&#45;&gt;IMASutils -->
<g id="edge44" class="edge">
<title>SimulationParameters&#45;&gt;IMASutils</title>
<path fill="none" stroke="#098cdf" stroke-width="2" d="M653.35,-538.83C661.79,-536.4 670.35,-533.76 678.37,-531 704.56,-521.98 733.2,-509.96 755.77,-499.97"/>
<polygon fill="#098cdf" stroke="#098cdf" stroke-width="2" points="757.17,-503.18 764.87,-495.9 754.31,-496.79 757.17,-503.18"/>
</g>
<!-- TEQUILA&#45;&gt;MXHEquilibrium -->
<g id="edge28" class="edge">
<title>TEQUILA&#45;&gt;MXHEquilibrium</title>
<path fill="none" stroke="#258a03" stroke-width="2" d="M433.84,-241.8C449.78,-245.48 468.37,-250.31 484.77,-256 507.25,-263.8 531.41,-274.47 551.37,-283.95"/>
<polygon fill="#258a03" stroke="#258a03" stroke-width="2" points="549.64,-287.01 560.17,-288.2 552.68,-280.7 549.64,-287.01"/>
</g>
<!-- TEQUILA&#45;&gt;FiniteElementHermite -->
<g id="edge38" class="edge">
<title>TEQUILA&#45;&gt;FiniteElementHermite</title>
<path fill="none" stroke="#8b261c" stroke-width="2" d="M434.6,-226.97C458.29,-222.7 489.39,-217.08 517.9,-211.93"/>
<polygon fill="#8b261c" stroke="#8b261c" stroke-width="2" points="518.15,-215.44 527.37,-210.22 516.91,-208.56 518.15,-215.44"/>
</g>
<!-- TEQUILA&#45;&gt;MillerExtendedHarmonic -->
<g id="edge29" class="edge">
<title>TEQUILA&#45;&gt;MillerExtendedHarmonic</title>
<path fill="none" stroke="#cf015e" stroke-width="2" d="M436.21,-238.45C491.35,-244.86 592.93,-257.94 678.37,-276 691.45,-278.77 694.43,-280.63 707.37,-284 713.07,-285.49 718.98,-287 724.93,-288.5"/>
<polygon fill="#cf015e" stroke="#cf015e" stroke-width="2" points="723.64,-291.79 734.19,-290.82 725.34,-285 723.64,-291.79"/>
</g>
</g>
</svg>
