<?xml version="1.0" encoding="utf-8"?>
<svg xmlns="http://www.w3.org/2000/svg" xmlns:xlink="http://www.w3.org/1999/xlink" width="600" height="400" viewBox="0 0 2400 1600">
<defs>
  <clipPath id="clip880">
    <rect x="0" y="0" width="2400" height="1600"/>
  </clipPath>
</defs>
<path clip-path="url(#clip880)" d="M0 1600 L2400 1600 L2400 0 L0 0  Z" fill="#ffffff" fill-rule="evenodd" fill-opacity="1"/>
<defs>
  <clipPath id="clip881">
    <rect x="480" y="0" width="1681" height="1600"/>
  </clipPath>
</defs>
<path clip-path="url(#clip880)" d="M275.136 1486.45 L2352.76 1486.45 L2352.76 47.2441 L275.136 47.2441  Z" fill="#ffffff" fill-rule="evenodd" fill-opacity="1"/>
<defs>
  <clipPath id="clip882">
    <rect x="275" y="47" width="2079" height="1440"/>
  </clipPath>
</defs>
<polyline clip-path="url(#clip882)" style="stroke:#000000; stroke-linecap:round; stroke-linejoin:round; stroke-width:2; stroke-opacity:0.1; fill:none" points="314.337,1486.45 314.337,47.2441 "/>
<polyline clip-path="url(#clip882)" style="stroke:#000000; stroke-linecap:round; stroke-linejoin:round; stroke-width:2; stroke-opacity:0.1; fill:none" points="804.341,1486.45 804.341,47.2441 "/>
<polyline clip-path="url(#clip882)" style="stroke:#000000; stroke-linecap:round; stroke-linejoin:round; stroke-width:2; stroke-opacity:0.1; fill:none" points="1294.35,1486.45 1294.35,47.2441 "/>
<polyline clip-path="url(#clip882)" style="stroke:#000000; stroke-linecap:round; stroke-linejoin:round; stroke-width:2; stroke-opacity:0.1; fill:none" points="1784.35,1486.45 1784.35,47.2441 "/>
<polyline clip-path="url(#clip882)" style="stroke:#000000; stroke-linecap:round; stroke-linejoin:round; stroke-width:2; stroke-opacity:0.1; fill:none" points="2274.36,1486.45 2274.36,47.2441 "/>
<polyline clip-path="url(#clip882)" style="stroke:#000000; stroke-linecap:round; stroke-linejoin:round; stroke-width:2; stroke-opacity:0.1; fill:none" points="275.136,1446.49 2352.76,1446.49 "/>
<polyline clip-path="url(#clip882)" style="stroke:#000000; stroke-linecap:round; stroke-linejoin:round; stroke-width:2; stroke-opacity:0.1; fill:none" points="275.136,1231.87 2352.76,1231.87 "/>
<polyline clip-path="url(#clip882)" style="stroke:#000000; stroke-linecap:round; stroke-linejoin:round; stroke-width:2; stroke-opacity:0.1; fill:none" points="275.136,1017.24 2352.76,1017.24 "/>
<polyline clip-path="url(#clip882)" style="stroke:#000000; stroke-linecap:round; stroke-linejoin:round; stroke-width:2; stroke-opacity:0.1; fill:none" points="275.136,802.614 2352.76,802.614 "/>
<polyline clip-path="url(#clip882)" style="stroke:#000000; stroke-linecap:round; stroke-linejoin:round; stroke-width:2; stroke-opacity:0.1; fill:none" points="275.136,587.988 2352.76,587.988 "/>
<polyline clip-path="url(#clip882)" style="stroke:#000000; stroke-linecap:round; stroke-linejoin:round; stroke-width:2; stroke-opacity:0.1; fill:none" points="275.136,373.362 2352.76,373.362 "/>
<polyline clip-path="url(#clip882)" style="stroke:#000000; stroke-linecap:round; stroke-linejoin:round; stroke-width:2; stroke-opacity:0.1; fill:none" points="275.136,158.736 2352.76,158.736 "/>
<polyline clip-path="url(#clip880)" style="stroke:#000000; stroke-linecap:round; stroke-linejoin:round; stroke-width:4; stroke-opacity:1; fill:none" points="275.136,1486.45 2352.76,1486.45 "/>
<polyline clip-path="url(#clip880)" style="stroke:#000000; stroke-linecap:round; stroke-linejoin:round; stroke-width:4; stroke-opacity:1; fill:none" points="314.337,1486.45 314.337,1467.55 "/>
<polyline clip-path="url(#clip880)" style="stroke:#000000; stroke-linecap:round; stroke-linejoin:round; stroke-width:4; stroke-opacity:1; fill:none" points="804.341,1486.45 804.341,1467.55 "/>
<polyline clip-path="url(#clip880)" style="stroke:#000000; stroke-linecap:round; stroke-linejoin:round; stroke-width:4; stroke-opacity:1; fill:none" points="1294.35,1486.45 1294.35,1467.55 "/>
<polyline clip-path="url(#clip880)" style="stroke:#000000; stroke-linecap:round; stroke-linejoin:round; stroke-width:4; stroke-opacity:1; fill:none" points="1784.35,1486.45 1784.35,1467.55 "/>
<polyline clip-path="url(#clip880)" style="stroke:#000000; stroke-linecap:round; stroke-linejoin:round; stroke-width:4; stroke-opacity:1; fill:none" points="2274.36,1486.45 2274.36,1467.55 "/>
<path clip-path="url(#clip880)" d="M314.337 1517.37 Q310.726 1517.37 308.897 1520.93 Q307.091 1524.47 307.091 1531.6 Q307.091 1538.71 308.897 1542.27 Q310.726 1545.82 314.337 1545.82 Q317.971 1545.82 319.777 1542.27 Q321.605 1538.71 321.605 1531.6 Q321.605 1524.47 319.777 1520.93 Q317.971 1517.37 314.337 1517.37 M314.337 1513.66 Q320.147 1513.66 323.202 1518.27 Q326.281 1522.85 326.281 1531.6 Q326.281 1540.33 323.202 1544.94 Q320.147 1549.52 314.337 1549.52 Q308.527 1549.52 305.448 1544.94 Q302.392 1540.33 302.392 1531.6 Q302.392 1522.85 305.448 1518.27 Q308.527 1513.66 314.337 1513.66 Z" fill="#000000" fill-rule="nonzero" fill-opacity="1" /><path clip-path="url(#clip880)" d="M783.612 1544.91 L799.932 1544.91 L799.932 1548.85 L777.987 1548.85 L777.987 1544.91 Q780.649 1542.16 785.233 1537.53 Q789.839 1532.88 791.02 1531.53 Q793.265 1529.01 794.145 1527.27 Q795.047 1525.51 795.047 1523.82 Q795.047 1521.07 793.103 1519.33 Q791.182 1517.6 788.08 1517.6 Q785.881 1517.6 783.427 1518.36 Q780.997 1519.13 778.219 1520.68 L778.219 1515.95 Q781.043 1514.82 783.497 1514.24 Q785.95 1513.66 787.987 1513.66 Q793.358 1513.66 796.552 1516.35 Q799.746 1519.03 799.746 1523.52 Q799.746 1525.65 798.936 1527.57 Q798.149 1529.47 796.043 1532.07 Q795.464 1532.74 792.362 1535.95 Q789.26 1539.15 783.612 1544.91 Z" fill="#000000" fill-rule="nonzero" fill-opacity="1" /><path clip-path="url(#clip880)" d="M809.793 1514.29 L828.149 1514.29 L828.149 1518.22 L814.075 1518.22 L814.075 1526.7 Q815.094 1526.35 816.112 1526.19 Q817.131 1526 818.149 1526 Q823.936 1526 827.316 1529.17 Q830.695 1532.34 830.695 1537.76 Q830.695 1543.34 827.223 1546.44 Q823.751 1549.52 817.432 1549.52 Q815.256 1549.52 812.987 1549.15 Q810.742 1548.78 808.334 1548.04 L808.334 1543.34 Q810.418 1544.47 812.64 1545.03 Q814.862 1545.58 817.339 1545.58 Q821.344 1545.58 823.682 1543.48 Q826.019 1541.37 826.019 1537.76 Q826.019 1534.15 823.682 1532.04 Q821.344 1529.94 817.339 1529.94 Q815.464 1529.94 813.589 1530.35 Q811.737 1530.77 809.793 1531.65 L809.793 1514.29 Z" fill="#000000" fill-rule="nonzero" fill-opacity="1" /><path clip-path="url(#clip880)" d="M1269.05 1514.29 L1287.4 1514.29 L1287.4 1518.22 L1273.33 1518.22 L1273.33 1526.7 Q1274.35 1526.35 1275.36 1526.19 Q1276.38 1526 1277.4 1526 Q1283.19 1526 1286.57 1529.17 Q1289.95 1532.34 1289.95 1537.76 Q1289.95 1543.34 1286.48 1546.44 Q1283 1549.52 1276.68 1549.52 Q1274.51 1549.52 1272.24 1549.15 Q1269.99 1548.78 1267.59 1548.04 L1267.59 1543.34 Q1269.67 1544.47 1271.89 1545.03 Q1274.11 1545.58 1276.59 1545.58 Q1280.6 1545.58 1282.93 1543.48 Q1285.27 1541.37 1285.27 1537.76 Q1285.27 1534.15 1282.93 1532.04 Q1280.6 1529.94 1276.59 1529.94 Q1274.72 1529.94 1272.84 1530.35 Q1270.99 1530.77 1269.05 1531.65 L1269.05 1514.29 Z" fill="#000000" fill-rule="nonzero" fill-opacity="1" /><path clip-path="url(#clip880)" d="M1309.16 1517.37 Q1305.55 1517.37 1303.72 1520.93 Q1301.92 1524.47 1301.92 1531.6 Q1301.92 1538.71 1303.72 1542.27 Q1305.55 1545.82 1309.16 1545.82 Q1312.79 1545.82 1314.6 1542.27 Q1316.43 1538.71 1316.43 1531.6 Q1316.43 1524.47 1314.6 1520.93 Q1312.79 1517.37 1309.16 1517.37 M1309.16 1513.66 Q1314.97 1513.66 1318.03 1518.27 Q1321.11 1522.85 1321.11 1531.6 Q1321.11 1540.33 1318.03 1544.94 Q1314.97 1549.52 1309.16 1549.52 Q1303.35 1549.52 1300.27 1544.94 Q1297.22 1540.33 1297.22 1531.6 Q1297.22 1522.85 1300.27 1518.27 Q1303.35 1513.66 1309.16 1513.66 Z" fill="#000000" fill-rule="nonzero" fill-opacity="1" /><path clip-path="url(#clip880)" d="M1758.2 1514.29 L1780.43 1514.29 L1780.43 1516.28 L1767.88 1548.85 L1763 1548.85 L1774.8 1518.22 L1758.2 1518.22 L1758.2 1514.29 Z" fill="#000000" fill-rule="nonzero" fill-opacity="1" /><path clip-path="url(#clip880)" d="M1789.59 1514.29 L1807.95 1514.29 L1807.95 1518.22 L1793.88 1518.22 L1793.88 1526.7 Q1794.89 1526.35 1795.91 1526.19 Q1796.93 1526 1797.95 1526 Q1803.74 1526 1807.12 1529.17 Q1810.5 1532.34 1810.5 1537.76 Q1810.5 1543.34 1807.02 1546.44 Q1803.55 1549.52 1797.23 1549.52 Q1795.06 1549.52 1792.79 1549.15 Q1790.54 1548.78 1788.14 1548.04 L1788.14 1543.34 Q1790.22 1544.47 1792.44 1545.03 Q1794.66 1545.58 1797.14 1545.58 Q1801.14 1545.58 1803.48 1543.48 Q1805.82 1541.37 1805.82 1537.76 Q1805.82 1534.15 1803.48 1532.04 Q1801.14 1529.94 1797.14 1529.94 Q1795.26 1529.94 1793.39 1530.35 Q1791.54 1530.77 1789.59 1531.65 L1789.59 1514.29 Z" fill="#000000" fill-rule="nonzero" fill-opacity="1" /><path clip-path="url(#clip880)" d="M2233.96 1544.91 L2241.6 1544.91 L2241.6 1518.55 L2233.29 1520.21 L2233.29 1515.95 L2241.55 1514.29 L2246.23 1514.29 L2246.23 1544.91 L2253.87 1544.91 L2253.87 1548.85 L2233.96 1548.85 L2233.96 1544.91 Z" fill="#000000" fill-rule="nonzero" fill-opacity="1" /><path clip-path="url(#clip880)" d="M2273.31 1517.37 Q2269.7 1517.37 2267.87 1520.93 Q2266.07 1524.47 2266.07 1531.6 Q2266.07 1538.71 2267.87 1542.27 Q2269.7 1545.82 2273.31 1545.82 Q2276.95 1545.82 2278.75 1542.27 Q2280.58 1538.71 2280.58 1531.6 Q2280.58 1524.47 2278.75 1520.93 Q2276.95 1517.37 2273.31 1517.37 M2273.31 1513.66 Q2279.12 1513.66 2282.18 1518.27 Q2285.26 1522.85 2285.26 1531.6 Q2285.26 1540.33 2282.18 1544.94 Q2279.12 1549.52 2273.31 1549.52 Q2267.5 1549.52 2264.42 1544.94 Q2261.37 1540.33 2261.37 1531.6 Q2261.37 1522.85 2264.42 1518.27 Q2267.5 1513.66 2273.31 1513.66 Z" fill="#000000" fill-rule="nonzero" fill-opacity="1" /><path clip-path="url(#clip880)" d="M2303.48 1517.37 Q2299.86 1517.37 2298.04 1520.93 Q2296.23 1524.47 2296.23 1531.6 Q2296.23 1538.71 2298.04 1542.27 Q2299.86 1545.82 2303.48 1545.82 Q2307.11 1545.82 2308.92 1542.27 Q2310.74 1538.71 2310.74 1531.6 Q2310.74 1524.47 2308.92 1520.93 Q2307.11 1517.37 2303.48 1517.37 M2303.48 1513.66 Q2309.29 1513.66 2312.34 1518.27 Q2315.42 1522.85 2315.42 1531.6 Q2315.42 1540.33 2312.34 1544.94 Q2309.29 1549.52 2303.48 1549.52 Q2297.67 1549.52 2294.59 1544.94 Q2291.53 1540.33 2291.53 1531.6 Q2291.53 1522.85 2294.59 1518.27 Q2297.67 1513.66 2303.48 1513.66 Z" fill="#000000" fill-rule="nonzero" fill-opacity="1" /><polyline clip-path="url(#clip880)" style="stroke:#000000; stroke-linecap:round; stroke-linejoin:round; stroke-width:4; stroke-opacity:1; fill:none" points="275.136,1486.45 275.136,47.2441 "/>
<polyline clip-path="url(#clip880)" style="stroke:#000000; stroke-linecap:round; stroke-linejoin:round; stroke-width:4; stroke-opacity:1; fill:none" points="275.136,1446.49 294.034,1446.49 "/>
<polyline clip-path="url(#clip880)" style="stroke:#000000; stroke-linecap:round; stroke-linejoin:round; stroke-width:4; stroke-opacity:1; fill:none" points="275.136,1231.87 294.034,1231.87 "/>
<polyline clip-path="url(#clip880)" style="stroke:#000000; stroke-linecap:round; stroke-linejoin:round; stroke-width:4; stroke-opacity:1; fill:none" points="275.136,1017.24 294.034,1017.24 "/>
<polyline clip-path="url(#clip880)" style="stroke:#000000; stroke-linecap:round; stroke-linejoin:round; stroke-width:4; stroke-opacity:1; fill:none" points="275.136,802.614 294.034,802.614 "/>
<polyline clip-path="url(#clip880)" style="stroke:#000000; stroke-linecap:round; stroke-linejoin:round; stroke-width:4; stroke-opacity:1; fill:none" points="275.136,587.988 294.034,587.988 "/>
<polyline clip-path="url(#clip880)" style="stroke:#000000; stroke-linecap:round; stroke-linejoin:round; stroke-width:4; stroke-opacity:1; fill:none" points="275.136,373.362 294.034,373.362 "/>
<polyline clip-path="url(#clip880)" style="stroke:#000000; stroke-linecap:round; stroke-linejoin:round; stroke-width:4; stroke-opacity:1; fill:none" points="275.136,158.736 294.034,158.736 "/>
<path clip-path="url(#clip880)" d="M227.192 1432.29 Q223.581 1432.29 221.752 1435.86 Q219.947 1439.4 219.947 1446.53 Q219.947 1453.63 221.752 1457.2 Q223.581 1460.74 227.192 1460.74 Q230.826 1460.74 232.632 1457.2 Q234.46 1453.63 234.46 1446.53 Q234.46 1439.4 232.632 1435.86 Q230.826 1432.29 227.192 1432.29 M227.192 1428.59 Q233.002 1428.59 236.058 1433.19 Q239.136 1437.78 239.136 1446.53 Q239.136 1455.25 236.058 1459.86 Q233.002 1464.44 227.192 1464.44 Q221.382 1464.44 218.303 1459.86 Q215.248 1455.25 215.248 1446.53 Q215.248 1437.78 218.303 1433.19 Q221.382 1428.59 227.192 1428.59 Z" fill="#000000" fill-rule="nonzero" fill-opacity="1" /><path clip-path="url(#clip880)" d="M54.5569 1251.66 L62.1958 1251.66 L62.1958 1225.29 L53.8856 1226.96 L53.8856 1222.7 L62.1495 1221.03 L66.8254 1221.03 L66.8254 1251.66 L74.4642 1251.66 L74.4642 1255.59 L54.5569 1255.59 L54.5569 1251.66 Z" fill="#000000" fill-rule="nonzero" fill-opacity="1" /><path clip-path="url(#clip880)" d="M83.9086 1249.71 L88.7928 1249.71 L88.7928 1255.59 L83.9086 1255.59 L83.9086 1249.71 Z" fill="#000000" fill-rule="nonzero" fill-opacity="1" /><path clip-path="url(#clip880)" d="M108.978 1224.11 Q105.367 1224.11 103.538 1227.68 Q101.733 1231.22 101.733 1238.35 Q101.733 1245.45 103.538 1249.02 Q105.367 1252.56 108.978 1252.56 Q112.612 1252.56 114.418 1249.02 Q116.246 1245.45 116.246 1238.35 Q116.246 1231.22 114.418 1227.68 Q112.612 1224.11 108.978 1224.11 M108.978 1220.41 Q114.788 1220.41 117.844 1225.01 Q120.922 1229.6 120.922 1238.35 Q120.922 1247.08 117.844 1251.68 Q114.788 1256.26 108.978 1256.26 Q103.168 1256.26 100.089 1251.68 Q97.0335 1247.08 97.0335 1238.35 Q97.0335 1229.6 100.089 1225.01 Q103.168 1220.41 108.978 1220.41 Z" fill="#000000" fill-rule="nonzero" fill-opacity="1" /><path clip-path="url(#clip880)" d="M157.311 1230.13 L146.732 1240.76 L157.311 1251.33 L154.556 1254.14 L143.931 1243.51 L133.306 1254.14 L130.575 1251.33 L141.131 1240.76 L130.575 1230.13 L133.306 1227.33 L143.931 1237.95 L154.556 1227.33 L157.311 1230.13 Z" fill="#000000" fill-rule="nonzero" fill-opacity="1" /><path clip-path="url(#clip880)" d="M169.672 1251.66 L177.311 1251.66 L177.311 1225.29 L169.001 1226.96 L169.001 1222.7 L177.265 1221.03 L181.94 1221.03 L181.94 1251.66 L189.579 1251.66 L189.579 1255.59 L169.672 1255.59 L169.672 1251.66 Z" fill="#000000" fill-rule="nonzero" fill-opacity="1" /><path clip-path="url(#clip880)" d="M209.024 1224.11 Q205.413 1224.11 203.584 1227.68 Q201.778 1231.22 201.778 1238.35 Q201.778 1245.45 203.584 1249.02 Q205.413 1252.56 209.024 1252.56 Q212.658 1252.56 214.463 1249.02 Q216.292 1245.45 216.292 1238.35 Q216.292 1231.22 214.463 1227.68 Q212.658 1224.11 209.024 1224.11 M209.024 1220.41 Q214.834 1220.41 217.889 1225.01 Q220.968 1229.6 220.968 1238.35 Q220.968 1247.08 217.889 1251.68 Q214.834 1256.26 209.024 1256.26 Q203.214 1256.26 200.135 1251.68 Q197.079 1247.08 197.079 1238.35 Q197.079 1229.6 200.135 1225.01 Q203.214 1220.41 209.024 1220.41 Z" fill="#000000" fill-rule="nonzero" fill-opacity="1" /><path clip-path="url(#clip880)" d="M222.153 1200.1 L237.068 1200.1 L237.068 1203.3 L225.632 1203.3 L225.632 1210.18 Q226.46 1209.9 227.287 1209.77 Q228.115 1209.62 228.943 1209.62 Q233.645 1209.62 236.39 1212.2 Q239.136 1214.77 239.136 1219.17 Q239.136 1223.71 236.315 1226.23 Q233.494 1228.73 228.36 1228.73 Q226.592 1228.73 224.748 1228.43 Q222.924 1228.13 220.968 1227.52 L220.968 1223.71 Q222.661 1224.63 224.466 1225.08 Q226.272 1225.53 228.284 1225.53 Q231.538 1225.53 233.438 1223.82 Q235.337 1222.11 235.337 1219.17 Q235.337 1216.24 233.438 1214.53 Q231.538 1212.82 228.284 1212.82 Q226.761 1212.82 225.237 1213.16 Q223.733 1213.49 222.153 1214.21 L222.153 1200.1 Z" fill="#000000" fill-rule="nonzero" fill-opacity="1" /><path clip-path="url(#clip880)" d="M57.7745 1037.03 L74.0939 1037.03 L74.0939 1040.97 L52.1495 1040.97 L52.1495 1037.03 Q54.8115 1034.28 59.3949 1029.65 Q64.0013 1025 65.1819 1023.65 Q67.4272 1021.13 68.3068 1019.39 Q69.2096 1017.63 69.2096 1015.94 Q69.2096 1013.19 67.2652 1011.45 Q65.3439 1009.72 62.2421 1009.72 Q60.043 1009.72 57.5893 1010.48 Q55.1588 1011.25 52.381 1012.8 L52.381 1008.07 Q55.2051 1006.94 57.6588 1006.36 Q60.1124 1005.78 62.1495 1005.78 Q67.5198 1005.78 70.7142 1008.47 Q73.9087 1011.15 73.9087 1015.64 Q73.9087 1017.77 73.0985 1019.69 Q72.3115 1021.59 70.205 1024.19 Q69.6263 1024.86 66.5245 1028.07 Q63.4226 1031.27 57.7745 1037.03 Z" fill="#000000" fill-rule="nonzero" fill-opacity="1" /><path clip-path="url(#clip880)" d="M83.9086 1035.09 L88.7928 1035.09 L88.7928 1040.97 L83.9086 1040.97 L83.9086 1035.09 Z" fill="#000000" fill-rule="nonzero" fill-opacity="1" /><path clip-path="url(#clip880)" d="M108.978 1009.49 Q105.367 1009.49 103.538 1013.05 Q101.733 1016.59 101.733 1023.72 Q101.733 1030.83 103.538 1034.39 Q105.367 1037.94 108.978 1037.94 Q112.612 1037.94 114.418 1034.39 Q116.246 1030.83 116.246 1023.72 Q116.246 1016.59 114.418 1013.05 Q112.612 1009.49 108.978 1009.49 M108.978 1005.78 Q114.788 1005.78 117.844 1010.39 Q120.922 1014.97 120.922 1023.72 Q120.922 1032.45 117.844 1037.06 Q114.788 1041.64 108.978 1041.64 Q103.168 1041.64 100.089 1037.06 Q97.0335 1032.45 97.0335 1023.72 Q97.0335 1014.97 100.089 1010.39 Q103.168 1005.78 108.978 1005.78 Z" fill="#000000" fill-rule="nonzero" fill-opacity="1" /><path clip-path="url(#clip880)" d="M157.311 1015.5 L146.732 1026.13 L157.311 1036.71 L154.556 1039.51 L143.931 1028.88 L133.306 1039.51 L130.575 1036.71 L141.131 1026.13 L130.575 1015.5 L133.306 1012.7 L143.931 1023.33 L154.556 1012.7 L157.311 1015.5 Z" fill="#000000" fill-rule="nonzero" fill-opacity="1" /><path clip-path="url(#clip880)" d="M169.672 1037.03 L177.311 1037.03 L177.311 1010.67 L169.001 1012.33 L169.001 1008.07 L177.265 1006.41 L181.94 1006.41 L181.94 1037.03 L189.579 1037.03 L189.579 1040.97 L169.672 1040.97 L169.672 1037.03 Z" fill="#000000" fill-rule="nonzero" fill-opacity="1" /><path clip-path="url(#clip880)" d="M209.024 1009.49 Q205.413 1009.49 203.584 1013.05 Q201.778 1016.59 201.778 1023.72 Q201.778 1030.83 203.584 1034.39 Q205.413 1037.94 209.024 1037.94 Q212.658 1037.94 214.463 1034.39 Q216.292 1030.83 216.292 1023.72 Q216.292 1016.59 214.463 1013.05 Q212.658 1009.49 209.024 1009.49 M209.024 1005.78 Q214.834 1005.78 217.889 1010.39 Q220.968 1014.97 220.968 1023.72 Q220.968 1032.45 217.889 1037.06 Q214.834 1041.64 209.024 1041.64 Q203.214 1041.64 200.135 1037.06 Q197.079 1032.45 197.079 1023.72 Q197.079 1014.97 200.135 1010.39 Q203.214 1005.78 209.024 1005.78 Z" fill="#000000" fill-rule="nonzero" fill-opacity="1" /><path clip-path="url(#clip880)" d="M222.153 985.477 L237.068 985.477 L237.068 988.674 L225.632 988.674 L225.632 995.558 Q226.46 995.276 227.287 995.144 Q228.115 994.994 228.943 994.994 Q233.645 994.994 236.39 997.57 Q239.136 1000.15 239.136 1004.55 Q239.136 1009.08 236.315 1011.6 Q233.494 1014.1 228.36 1014.1 Q226.592 1014.1 224.748 1013.8 Q222.924 1013.5 220.968 1012.9 L220.968 1009.08 Q222.661 1010 224.466 1010.45 Q226.272 1010.91 228.284 1010.91 Q231.538 1010.91 233.438 1009.19 Q235.337 1007.48 235.337 1004.55 Q235.337 1001.61 233.438 999.903 Q231.538 998.191 228.284 998.191 Q226.761 998.191 225.237 998.53 Q223.733 998.868 222.153 999.583 L222.153 985.477 Z" fill="#000000" fill-rule="nonzero" fill-opacity="1" /><path clip-path="url(#clip880)" d="M67.9133 807.707 Q71.2698 808.425 73.1448 810.693 Q75.0429 812.962 75.0429 816.295 Q75.0429 821.411 71.5244 824.212 Q68.0059 827.013 61.5245 827.013 Q59.3486 827.013 57.0338 826.573 Q54.7421 826.156 52.2884 825.3 L52.2884 820.786 Q54.2328 821.92 56.5477 822.499 Q58.8625 823.078 61.3856 823.078 Q65.7837 823.078 68.0754 821.341 Q70.3902 819.605 70.3902 816.295 Q70.3902 813.24 68.2374 811.527 Q66.1078 809.791 62.2884 809.791 L58.2606 809.791 L58.2606 805.948 L62.4735 805.948 Q65.9226 805.948 67.7513 804.582 Q69.58 803.193 69.58 800.601 Q69.58 797.939 67.6819 796.527 Q65.8069 795.092 62.2884 795.092 Q60.3671 795.092 58.168 795.508 Q55.969 795.925 53.3301 796.805 L53.3301 792.638 Q55.9921 791.897 58.3069 791.527 Q60.6449 791.156 62.705 791.156 Q68.0291 791.156 71.1309 793.587 Q74.2327 795.994 74.2327 800.115 Q74.2327 802.985 72.5892 804.976 Q70.9457 806.943 67.9133 807.707 Z" fill="#000000" fill-rule="nonzero" fill-opacity="1" /><path clip-path="url(#clip880)" d="M83.9086 820.462 L88.7928 820.462 L88.7928 826.341 L83.9086 826.341 L83.9086 820.462 Z" fill="#000000" fill-rule="nonzero" fill-opacity="1" /><path clip-path="url(#clip880)" d="M108.978 794.86 Q105.367 794.86 103.538 798.425 Q101.733 801.967 101.733 809.096 Q101.733 816.203 103.538 819.767 Q105.367 823.309 108.978 823.309 Q112.612 823.309 114.418 819.767 Q116.246 816.203 116.246 809.096 Q116.246 801.967 114.418 798.425 Q112.612 794.86 108.978 794.86 M108.978 791.156 Q114.788 791.156 117.844 795.763 Q120.922 800.346 120.922 809.096 Q120.922 817.823 117.844 822.429 Q114.788 827.013 108.978 827.013 Q103.168 827.013 100.089 822.429 Q97.0335 817.823 97.0335 809.096 Q97.0335 800.346 100.089 795.763 Q103.168 791.156 108.978 791.156 Z" fill="#000000" fill-rule="nonzero" fill-opacity="1" /><path clip-path="url(#clip880)" d="M157.311 800.879 L146.732 811.504 L157.311 822.082 L154.556 824.883 L143.931 814.258 L133.306 824.883 L130.575 822.082 L141.131 811.504 L130.575 800.879 L133.306 798.078 L143.931 808.703 L154.556 798.078 L157.311 800.879 Z" fill="#000000" fill-rule="nonzero" fill-opacity="1" /><path clip-path="url(#clip880)" d="M169.672 822.406 L177.311 822.406 L177.311 796.041 L169.001 797.707 L169.001 793.448 L177.265 791.781 L181.94 791.781 L181.94 822.406 L189.579 822.406 L189.579 826.341 L169.672 826.341 L169.672 822.406 Z" fill="#000000" fill-rule="nonzero" fill-opacity="1" /><path clip-path="url(#clip880)" d="M209.024 794.86 Q205.413 794.86 203.584 798.425 Q201.778 801.967 201.778 809.096 Q201.778 816.203 203.584 819.767 Q205.413 823.309 209.024 823.309 Q212.658 823.309 214.463 819.767 Q216.292 816.203 216.292 809.096 Q216.292 801.967 214.463 798.425 Q212.658 794.86 209.024 794.86 M209.024 791.156 Q214.834 791.156 217.889 795.763 Q220.968 800.346 220.968 809.096 Q220.968 817.823 217.889 822.429 Q214.834 827.013 209.024 827.013 Q203.214 827.013 200.135 822.429 Q197.079 817.823 197.079 809.096 Q197.079 800.346 200.135 795.763 Q203.214 791.156 209.024 791.156 Z" fill="#000000" fill-rule="nonzero" fill-opacity="1" /><path clip-path="url(#clip880)" d="M222.153 770.851 L237.068 770.851 L237.068 774.048 L225.632 774.048 L225.632 780.932 Q226.46 780.65 227.287 780.518 Q228.115 780.368 228.943 780.368 Q233.645 780.368 236.39 782.944 Q239.136 785.521 239.136 789.922 Q239.136 794.455 236.315 796.975 Q233.494 799.476 228.36 799.476 Q226.592 799.476 224.748 799.176 Q222.924 798.875 220.968 798.273 L220.968 794.455 Q222.661 795.376 224.466 795.828 Q226.272 796.279 228.284 796.279 Q231.538 796.279 233.438 794.568 Q235.337 792.856 235.337 789.922 Q235.337 786.988 233.438 785.277 Q231.538 783.565 228.284 783.565 Q226.761 783.565 225.237 783.904 Q223.733 784.242 222.153 784.957 L222.153 770.851 Z" fill="#000000" fill-rule="nonzero" fill-opacity="1" /><path clip-path="url(#clip880)" d="M66.5939 581.229 L54.7884 599.678 L66.5939 599.678 L66.5939 581.229 M65.367 577.155 L71.2466 577.155 L71.2466 599.678 L76.1772 599.678 L76.1772 603.567 L71.2466 603.567 L71.2466 611.715 L66.5939 611.715 L66.5939 603.567 L50.9921 603.567 L50.9921 599.053 L65.367 577.155 Z" fill="#000000" fill-rule="nonzero" fill-opacity="1" /><path clip-path="url(#clip880)" d="M83.9086 605.836 L88.7928 605.836 L88.7928 611.715 L83.9086 611.715 L83.9086 605.836 Z" fill="#000000" fill-rule="nonzero" fill-opacity="1" /><path clip-path="url(#clip880)" d="M108.978 580.234 Q105.367 580.234 103.538 583.799 Q101.733 587.34 101.733 594.47 Q101.733 601.577 103.538 605.141 Q105.367 608.683 108.978 608.683 Q112.612 608.683 114.418 605.141 Q116.246 601.577 116.246 594.47 Q116.246 587.34 114.418 583.799 Q112.612 580.234 108.978 580.234 M108.978 576.53 Q114.788 576.53 117.844 581.137 Q120.922 585.72 120.922 594.47 Q120.922 603.197 117.844 607.803 Q114.788 612.387 108.978 612.387 Q103.168 612.387 100.089 607.803 Q97.0335 603.197 97.0335 594.47 Q97.0335 585.72 100.089 581.137 Q103.168 576.53 108.978 576.53 Z" fill="#000000" fill-rule="nonzero" fill-opacity="1" /><path clip-path="url(#clip880)" d="M157.311 586.253 L146.732 596.877 L157.311 607.456 L154.556 610.257 L143.931 599.632 L133.306 610.257 L130.575 607.456 L141.131 596.877 L130.575 586.253 L133.306 583.452 L143.931 594.077 L154.556 583.452 L157.311 586.253 Z" fill="#000000" fill-rule="nonzero" fill-opacity="1" /><path clip-path="url(#clip880)" d="M169.672 607.78 L177.311 607.78 L177.311 581.415 L169.001 583.081 L169.001 578.822 L177.265 577.155 L181.94 577.155 L181.94 607.78 L189.579 607.78 L189.579 611.715 L169.672 611.715 L169.672 607.78 Z" fill="#000000" fill-rule="nonzero" fill-opacity="1" /><path clip-path="url(#clip880)" d="M209.024 580.234 Q205.413 580.234 203.584 583.799 Q201.778 587.34 201.778 594.47 Q201.778 601.577 203.584 605.141 Q205.413 608.683 209.024 608.683 Q212.658 608.683 214.463 605.141 Q216.292 601.577 216.292 594.47 Q216.292 587.34 214.463 583.799 Q212.658 580.234 209.024 580.234 M209.024 576.53 Q214.834 576.53 217.889 581.137 Q220.968 585.72 220.968 594.47 Q220.968 603.197 217.889 607.803 Q214.834 612.387 209.024 612.387 Q203.214 612.387 200.135 607.803 Q197.079 603.197 197.079 594.47 Q197.079 585.72 200.135 581.137 Q203.214 576.53 209.024 576.53 Z" fill="#000000" fill-rule="nonzero" fill-opacity="1" /><path clip-path="url(#clip880)" d="M222.153 556.225 L237.068 556.225 L237.068 559.422 L225.632 559.422 L225.632 566.306 Q226.46 566.024 227.287 565.892 Q228.115 565.742 228.943 565.742 Q233.645 565.742 236.39 568.318 Q239.136 570.895 239.136 575.296 Q239.136 579.829 236.315 582.349 Q233.494 584.85 228.36 584.85 Q226.592 584.85 224.748 584.549 Q222.924 584.249 220.968 583.647 L220.968 579.829 Q222.661 580.75 224.466 581.202 Q226.272 581.653 228.284 581.653 Q231.538 581.653 233.438 579.942 Q235.337 578.23 235.337 575.296 Q235.337 572.362 233.438 570.65 Q231.538 568.939 228.284 568.939 Q226.761 568.939 225.237 569.278 Q223.733 569.616 222.153 570.331 L222.153 556.225 Z" fill="#000000" fill-rule="nonzero" fill-opacity="1" /><path clip-path="url(#clip880)" d="M53.793 362.529 L72.1494 362.529 L72.1494 366.464 L58.0754 366.464 L58.0754 374.937 Q59.0939 374.589 60.1124 374.427 Q61.131 374.242 62.1495 374.242 Q67.9365 374.242 71.3161 377.413 Q74.6957 380.585 74.6957 386.001 Q74.6957 391.58 71.2235 394.682 Q67.7513 397.761 61.4319 397.761 Q59.256 397.761 56.9875 397.39 Q54.7421 397.02 52.3347 396.279 L52.3347 391.58 Q54.418 392.714 56.6402 393.27 Q58.8625 393.825 61.3393 393.825 Q65.3439 393.825 67.6819 391.719 Q70.0198 389.612 70.0198 386.001 Q70.0198 382.39 67.6819 380.284 Q65.3439 378.177 61.3393 378.177 Q59.4643 378.177 57.5893 378.594 Q55.7375 379.011 53.793 379.89 L53.793 362.529 Z" fill="#000000" fill-rule="nonzero" fill-opacity="1" /><path clip-path="url(#clip880)" d="M83.9086 391.21 L88.7928 391.21 L88.7928 397.089 L83.9086 397.089 L83.9086 391.21 Z" fill="#000000" fill-rule="nonzero" fill-opacity="1" /><path clip-path="url(#clip880)" d="M108.978 365.608 Q105.367 365.608 103.538 369.173 Q101.733 372.714 101.733 379.844 Q101.733 386.95 103.538 390.515 Q105.367 394.057 108.978 394.057 Q112.612 394.057 114.418 390.515 Q116.246 386.95 116.246 379.844 Q116.246 372.714 114.418 369.173 Q112.612 365.608 108.978 365.608 M108.978 361.904 Q114.788 361.904 117.844 366.511 Q120.922 371.094 120.922 379.844 Q120.922 388.571 117.844 393.177 Q114.788 397.761 108.978 397.761 Q103.168 397.761 100.089 393.177 Q97.0335 388.571 97.0335 379.844 Q97.0335 371.094 100.089 366.511 Q103.168 361.904 108.978 361.904 Z" fill="#000000" fill-rule="nonzero" fill-opacity="1" /><path clip-path="url(#clip880)" d="M157.311 371.626 L146.732 382.251 L157.311 392.83 L154.556 395.631 L143.931 385.006 L133.306 395.631 L130.575 392.83 L141.131 382.251 L130.575 371.626 L133.306 368.826 L143.931 379.45 L154.556 368.826 L157.311 371.626 Z" fill="#000000" fill-rule="nonzero" fill-opacity="1" /><path clip-path="url(#clip880)" d="M169.672 393.154 L177.311 393.154 L177.311 366.789 L169.001 368.455 L169.001 364.196 L177.265 362.529 L181.94 362.529 L181.94 393.154 L189.579 393.154 L189.579 397.089 L169.672 397.089 L169.672 393.154 Z" fill="#000000" fill-rule="nonzero" fill-opacity="1" /><path clip-path="url(#clip880)" d="M209.024 365.608 Q205.413 365.608 203.584 369.173 Q201.778 372.714 201.778 379.844 Q201.778 386.95 203.584 390.515 Q205.413 394.057 209.024 394.057 Q212.658 394.057 214.463 390.515 Q216.292 386.95 216.292 379.844 Q216.292 372.714 214.463 369.173 Q212.658 365.608 209.024 365.608 M209.024 361.904 Q214.834 361.904 217.889 366.511 Q220.968 371.094 220.968 379.844 Q220.968 388.571 217.889 393.177 Q214.834 397.761 209.024 397.761 Q203.214 397.761 200.135 393.177 Q197.079 388.571 197.079 379.844 Q197.079 371.094 200.135 366.511 Q203.214 361.904 209.024 361.904 Z" fill="#000000" fill-rule="nonzero" fill-opacity="1" /><path clip-path="url(#clip880)" d="M222.153 341.599 L237.068 341.599 L237.068 344.796 L225.632 344.796 L225.632 351.68 Q226.46 351.398 227.287 351.266 Q228.115 351.116 228.943 351.116 Q233.645 351.116 236.39 353.692 Q239.136 356.269 239.136 360.67 Q239.136 365.203 236.315 367.723 Q233.494 370.224 228.36 370.224 Q226.592 370.224 224.748 369.923 Q222.924 369.622 220.968 369.021 L220.968 365.203 Q222.661 366.124 224.466 366.576 Q226.272 367.027 228.284 367.027 Q231.538 367.027 233.438 365.315 Q235.337 363.604 235.337 360.67 Q235.337 357.736 233.438 356.024 Q231.538 354.313 228.284 354.313 Q226.761 354.313 225.237 354.651 Q223.733 354.99 222.153 355.705 L222.153 341.599 Z" fill="#000000" fill-rule="nonzero" fill-opacity="1" /><path clip-path="url(#clip880)" d="M64.3254 163.32 Q61.1773 163.32 59.3254 165.473 Q57.4967 167.625 57.4967 171.375 Q57.4967 175.102 59.3254 177.278 Q61.1773 179.431 64.3254 179.431 Q67.4735 179.431 69.3022 177.278 Q71.1541 175.102 71.1541 171.375 Q71.1541 167.625 69.3022 165.473 Q67.4735 163.32 64.3254 163.32 M73.6077 148.667 L73.6077 152.926 Q71.8485 152.093 70.0429 151.653 Q68.2606 151.213 66.5013 151.213 Q61.8717 151.213 59.418 154.338 Q56.9875 157.463 56.6402 163.783 Q58.006 161.769 60.0662 160.704 Q62.1263 159.616 64.6032 159.616 Q69.8115 159.616 72.8207 162.787 Q75.8531 165.936 75.8531 171.375 Q75.8531 176.699 72.705 179.917 Q69.5568 183.135 64.3254 183.135 Q58.33 183.135 55.1588 178.551 Q51.9875 173.945 51.9875 165.218 Q51.9875 157.024 55.8764 152.162 Q59.7652 147.278 66.3161 147.278 Q68.0754 147.278 69.8578 147.625 Q71.6633 147.973 73.6077 148.667 Z" fill="#000000" fill-rule="nonzero" fill-opacity="1" /><path clip-path="url(#clip880)" d="M83.9086 176.584 L88.7928 176.584 L88.7928 182.463 L83.9086 182.463 L83.9086 176.584 Z" fill="#000000" fill-rule="nonzero" fill-opacity="1" /><path clip-path="url(#clip880)" d="M108.978 150.982 Q105.367 150.982 103.538 154.547 Q101.733 158.088 101.733 165.218 Q101.733 172.324 103.538 175.889 Q105.367 179.431 108.978 179.431 Q112.612 179.431 114.418 175.889 Q116.246 172.324 116.246 165.218 Q116.246 158.088 114.418 154.547 Q112.612 150.982 108.978 150.982 M108.978 147.278 Q114.788 147.278 117.844 151.885 Q120.922 156.468 120.922 165.218 Q120.922 173.945 117.844 178.551 Q114.788 183.135 108.978 183.135 Q103.168 183.135 100.089 178.551 Q97.0335 173.945 97.0335 165.218 Q97.0335 156.468 100.089 151.885 Q103.168 147.278 108.978 147.278 Z" fill="#000000" fill-rule="nonzero" fill-opacity="1" /><path clip-path="url(#clip880)" d="M157.311 157 L146.732 167.625 L157.311 178.204 L154.556 181.005 L143.931 170.38 L133.306 181.005 L130.575 178.204 L141.131 167.625 L130.575 157 L133.306 154.199 L143.931 164.824 L154.556 154.199 L157.311 157 Z" fill="#000000" fill-rule="nonzero" fill-opacity="1" /><path clip-path="url(#clip880)" d="M169.672 178.528 L177.311 178.528 L177.311 152.162 L169.001 153.829 L169.001 149.57 L177.265 147.903 L181.94 147.903 L181.94 178.528 L189.579 178.528 L189.579 182.463 L169.672 182.463 L169.672 178.528 Z" fill="#000000" fill-rule="nonzero" fill-opacity="1" /><path clip-path="url(#clip880)" d="M209.024 150.982 Q205.413 150.982 203.584 154.547 Q201.778 158.088 201.778 165.218 Q201.778 172.324 203.584 175.889 Q205.413 179.431 209.024 179.431 Q212.658 179.431 214.463 175.889 Q216.292 172.324 216.292 165.218 Q216.292 158.088 214.463 154.547 Q212.658 150.982 209.024 150.982 M209.024 147.278 Q214.834 147.278 217.889 151.885 Q220.968 156.468 220.968 165.218 Q220.968 173.945 217.889 178.551 Q214.834 183.135 209.024 183.135 Q203.214 183.135 200.135 178.551 Q197.079 173.945 197.079 165.218 Q197.079 156.468 200.135 151.885 Q203.214 147.278 209.024 147.278 Z" fill="#000000" fill-rule="nonzero" fill-opacity="1" /><path clip-path="url(#clip880)" d="M222.153 126.973 L237.068 126.973 L237.068 130.17 L225.632 130.17 L225.632 137.054 Q226.46 136.772 227.287 136.64 Q228.115 136.49 228.943 136.49 Q233.645 136.49 236.39 139.066 Q239.136 141.643 239.136 146.044 Q239.136 150.577 236.315 153.097 Q233.494 155.598 228.36 155.598 Q226.592 155.598 224.748 155.297 Q222.924 154.996 220.968 154.395 L220.968 150.577 Q222.661 151.498 224.466 151.95 Q226.272 152.401 228.284 152.401 Q231.538 152.401 233.438 150.689 Q235.337 148.978 235.337 146.044 Q235.337 143.11 233.438 141.398 Q231.538 139.687 228.284 139.687 Q226.761 139.687 225.237 140.025 Q223.733 140.364 222.153 141.079 L222.153 126.973 Z" fill="#000000" fill-rule="nonzero" fill-opacity="1" /><polyline clip-path="url(#clip882)" style="stroke:#009af9; stroke-linecap:round; stroke-linejoin:round; stroke-width:4; stroke-opacity:1; fill:none" points="333.937,87.9763 353.537,92.7069 373.137,97.8225 392.737,103.542 412.338,109.864 431.938,116.771 451.538,124.243 471.138,132.262 490.738,140.811 510.339,149.871 529.939,159.426 549.539,169.462 569.139,179.962 588.739,190.911 608.34,202.297 627.94,214.104 647.54,226.32 667.14,238.931 686.74,251.924 706.34,265.285 725.941,279.003 745.541,293.065 765.141,307.457 784.741,322.169 804.341,337.186 823.942,352.497 843.542,368.09 863.142,383.953 882.742,400.073 902.342,416.437 921.942,433.035 941.543,449.853 961.143,466.88 980.743,484.104 1000.34,501.511 1019.94,519.091 1039.54,536.83 1059.14,554.716 1078.74,572.738 1098.34,590.883 1117.94,609.138 1137.54,627.492 1157.14,645.931 1176.74,664.443 1196.35,683.016 1215.95,701.637 1235.55,720.293 1255.15,738.972 1274.75,757.661 1294.35,776.348 1313.95,795.018 1333.55,813.66 1353.15,832.259 1372.75,850.804 1392.35,869.281 1411.95,887.676 1431.55,905.976 1451.15,924.168 1470.75,942.238 1490.35,960.172 1509.95,977.957 1529.55,995.578 1549.15,1013.02 1568.75,1030.27 1588.35,1047.32 1607.95,1064.14 1627.55,1080.73 1647.15,1097.07 1666.75,1113.15 1686.35,1128.94 1705.95,1144.44 1725.55,1159.63 1745.15,1174.49 1764.75,1189 1784.35,1203.16 1803.95,1216.93 1823.55,1230.32 1843.15,1243.29 1862.75,1255.83 1882.35,1267.92 1901.95,1279.55 1921.55,1290.68 1941.15,1301.31 1960.75,1311.41 1980.35,1320.95 1999.95,1329.92 2019.55,1338.29 2039.15,1346.05 2058.75,1353.16 2078.35,1359.64 2097.95,1365.48 2117.55,1370.77 2137.15,1375.71 2156.75,1380.73 2176.35,1386.72 2195.95,1395.02 2215.55,1407.06 2235.15,1422.26 2254.75,1435.4 2274.36,1442.8 2293.96,1445.72 "/>
<path clip-path="url(#clip880)" d="M2023.31 198.898 L2283.5 198.898 L2283.5 95.2176 L2023.31 95.2176  Z" fill="#ffffff" fill-rule="evenodd" fill-opacity="1"/>
<polyline clip-path="url(#clip880)" style="stroke:#000000; stroke-linecap:round; stroke-linejoin:round; stroke-width:4; stroke-opacity:1; fill:none" points="2023.31,198.898 2283.5,198.898 2283.5,95.2176 2023.31,95.2176 2023.31,198.898 "/>
<polyline clip-path="url(#clip880)" style="stroke:#009af9; stroke-linecap:round; stroke-linejoin:round; stroke-width:4; stroke-opacity:1; fill:none" points="2046.39,147.058 2184.9,147.058 "/>
<path clip-path="url(#clip880)" d="M2221.83 166.745 Q2220.02 171.375 2218.31 172.787 Q2216.6 174.199 2213.73 174.199 L2210.32 174.199 L2210.32 170.634 L2212.82 170.634 Q2214.58 170.634 2215.56 169.8 Q2216.53 168.967 2217.71 165.865 L2218.47 163.921 L2207.99 138.412 L2212.5 138.412 L2220.6 158.689 L2228.7 138.412 L2233.22 138.412 L2221.83 166.745 Z" fill="#000000" fill-rule="nonzero" fill-opacity="1" /><path clip-path="url(#clip880)" d="M2240.51 160.402 L2248.15 160.402 L2248.15 134.037 L2239.84 135.703 L2239.84 131.444 L2248.1 129.778 L2252.78 129.778 L2252.78 160.402 L2260.42 160.402 L2260.42 164.338 L2240.51 164.338 L2240.51 160.402 Z" fill="#000000" fill-rule="nonzero" fill-opacity="1" /></svg>
