<?xml version="1.0" encoding="UTF-8" standalone="no"?>
<!DOCTYPE svg PUBLIC "-//W3C//DTD SVG 1.1//EN"
 "http://www.w3.org/Graphics/SVG/1.1/DTD/svg11.dtd">
<!-- Generated by graphviz version 12.2.1 (20241206.2353)
 -->
<!-- Title: G Pages: 1 -->
<svg width="1246pt" height="655pt"
 viewBox="0.00 0.00 1246.03 655.30" xmlns="http://www.w3.org/2000/svg" xmlns:xlink="http://www.w3.org/1999/xlink">
<g id="graph0" class="graph" transform="scale(1 1) rotate(0) translate(4 651.3)">
<title>G</title>
<polygon fill="white" stroke="none" points="-4,4 -4,-651.3 1242.03,-651.3 1242.03,4 -4,4"/>
<!-- FUSE -->
<g id="node1" class="node">
<title>FUSE</title>
<ellipse fill="none" stroke="black" stroke-width="3" cx="29.98" cy="-338" rx="29.98" ry="18"/>
<text text-anchor="middle" x="29.98" y="-332.98" font-family="Helvetica,sans-Serif" font-size="12.00">FUSE</text>
</g>
<!-- HelpPlots -->
<g id="node2" class="node">
<title>HelpPlots</title>
<ellipse fill="none" stroke="black" stroke-width="3" cx="943.79" cy="-587" rx="41.91" ry="18"/>
<text text-anchor="middle" x="943.79" y="-581.98" font-family="Helvetica,sans-Serif" font-size="12.00">HelpPlots</text>
</g>
<!-- FUSE&#45;&gt;HelpPlots -->
<g id="edge1" class="edge">
<title>FUSE&#45;&gt;HelpPlots</title>
<path fill="none" stroke="#c32d63" stroke-width="2" d="M32.39,-357.25C36.82,-412.24 52.43,-568.2 88.96,-601 179.81,-682.56 239.93,-631 362.01,-631 362.01,-631 362.01,-631 541.54,-631 667.56,-631 699.29,-625.41 824.23,-609 846.58,-606.07 871.09,-601.71 892.01,-597.64"/>
<polygon fill="#c32d63" stroke="#c32d63" stroke-width="2" points="892.41,-601.13 901.54,-595.76 891.05,-594.27 892.41,-601.13"/>
</g>
<!-- VacuumFields -->
<g id="node3" class="node">
<title>VacuumFields</title>
<ellipse fill="none" stroke="black" stroke-width="3" cx="363.01" cy="-338" rx="56.14" ry="18"/>
<text text-anchor="middle" x="363.01" y="-332.98" font-family="Helvetica,sans-Serif" font-size="12.00">VacuumFields</text>
</g>
<!-- FUSE&#45;&gt;VacuumFields -->
<g id="edge38" class="edge">
<title>FUSE&#45;&gt;VacuumFields</title>
<path fill="none" stroke="#fcb747" stroke-width="2" d="M61.24,-338C113.3,-338 221.11,-338 292.5,-338"/>
<polygon fill="#fcb747" stroke="#fcb747" stroke-width="2" points="292.36,-341.5 302.36,-338 292.36,-334.5 292.36,-341.5"/>
</g>
<!-- FusionMaterials -->
<g id="node4" class="node">
<title>FusionMaterials</title>
<ellipse fill="none" stroke="black" stroke-width="3" cx="540.54" cy="-383" rx="62.1" ry="18"/>
<text text-anchor="middle" x="540.54" y="-377.98" font-family="Helvetica,sans-Serif" font-size="12.00">FusionMaterials</text>
</g>
<!-- FUSE&#45;&gt;FusionMaterials -->
<g id="edge56" class="edge">
<title>FUSE&#45;&gt;FusionMaterials</title>
<path fill="none" stroke="#4a05cb" stroke-width="2" d="M54.63,-349.97C64.92,-354.59 77.27,-359.39 88.96,-362 219,-391.01 375.2,-390.74 465.36,-387.29"/>
<polygon fill="#4a05cb" stroke="#4a05cb" stroke-width="2" points="465.3,-390.79 475.15,-386.89 465.01,-383.8 465.3,-390.79"/>
</g>
<!-- MXHEquilibrium -->
<g id="node5" class="node">
<title>MXHEquilibrium</title>
<ellipse fill="none" stroke="black" stroke-width="3" cx="540.54" cy="-221" rx="63.48" ry="18"/>
<text text-anchor="middle" x="540.54" y="-215.97" font-family="Helvetica,sans-Serif" font-size="12.00">MXHEquilibrium</text>
</g>
<!-- FUSE&#45;&gt;MXHEquilibrium -->
<g id="edge55" class="edge">
<title>FUSE&#45;&gt;MXHEquilibrium</title>
<path fill="none" stroke="#47cd61" stroke-width="2" d="M36.58,-319.12C44.35,-296.56 60.74,-259.66 88.96,-242 159.56,-197.82 202.94,-265.74 275.58,-225 294.42,-214.43 285.28,-195.7 304.58,-186 350.99,-162.68 370.66,-175.14 421.45,-186 435.26,-188.95 437.09,-194.4 450.45,-199 458.44,-201.75 466.95,-204.31 475.42,-206.64"/>
<polygon fill="#47cd61" stroke="#47cd61" stroke-width="2" points="474.24,-209.95 484.8,-209.1 476.02,-203.18 474.24,-209.95"/>
</g>
<!-- TORBEAM -->
<g id="node6" class="node">
<title>TORBEAM</title>
<ellipse fill="none" stroke="black" stroke-width="3" cx="540.54" cy="-587" rx="46.5" ry="18"/>
<text text-anchor="middle" x="540.54" y="-581.98" font-family="Helvetica,sans-Serif" font-size="12.00">TORBEAM</text>
</g>
<!-- FUSE&#45;&gt;TORBEAM -->
<g id="edge60" class="edge">
<title>FUSE&#45;&gt;TORBEAM</title>
<path fill="none" stroke="#1c9661" stroke-width="2" d="M33.57,-357.13C40.27,-403.65 59.73,-520.61 88.96,-545 146.87,-593.32 371.35,-592.78 479.99,-589.5"/>
<polygon fill="#1c9661" stroke="#1c9661" stroke-width="2" points="480.05,-593 489.93,-589.17 479.82,-586 480.05,-593"/>
</g>
<!-- IMAS -->
<g id="node7" class="node">
<title>IMAS</title>
<ellipse fill="none" stroke="black" stroke-width="3" cx="741.94" cy="-432" rx="27.69" ry="18"/>
<text text-anchor="middle" x="741.94" y="-426.98" font-family="Helvetica,sans-Serif" font-size="12.00">IMAS</text>
</g>
<!-- FUSE&#45;&gt;IMAS -->
<g id="edge7" class="edge">
<title>FUSE&#45;&gt;IMAS</title>
<path fill="none" stroke="#b919ee" stroke-width="2" d="M47.84,-353.66C58.71,-362.76 73.65,-373.49 88.96,-379 145.75,-399.44 570.54,-414.46 630.64,-420 653.77,-422.13 679.58,-424.92 700.42,-427.27"/>
<polygon fill="#b919ee" stroke="#b919ee" stroke-width="2" points="699.97,-430.74 710.3,-428.4 700.77,-423.79 699.97,-430.74"/>
</g>
<!-- GACODE -->
<g id="node8" class="node">
<title>GACODE</title>
<ellipse fill="none" stroke="black" stroke-width="3" cx="540.54" cy="-514" rx="41.91" ry="18"/>
<text text-anchor="middle" x="540.54" y="-508.98" font-family="Helvetica,sans-Serif" font-size="12.00">GACODE</text>
</g>
<!-- FUSE&#45;&gt;GACODE -->
<g id="edge5" class="edge">
<title>FUSE&#45;&gt;GACODE</title>
<path fill="none" stroke="#ae65a1" stroke-width="2" d="M33.62,-357.22C38.72,-386.51 52.81,-441.87 88.96,-470 149.27,-516.92 377.89,-517.95 484.36,-515.73"/>
<polygon fill="#ae65a1" stroke="#ae65a1" stroke-width="2" points="484.39,-519.23 494.3,-515.5 484.23,-512.23 484.39,-519.23"/>
</g>
<!-- QED -->
<g id="node9" class="node">
<title>QED</title>
<ellipse fill="none" stroke="black" stroke-width="3" cx="363.01" cy="-250" rx="27" ry="18"/>
<text text-anchor="middle" x="363.01" y="-244.97" font-family="Helvetica,sans-Serif" font-size="12.00">QED</text>
</g>
<!-- FUSE&#45;&gt;QED -->
<g id="edge6" class="edge">
<title>FUSE&#45;&gt;QED</title>
<path fill="none" stroke="#398d49" stroke-width="2" d="M41.61,-320.21C51.72,-305.07 68.42,-284.21 88.96,-274 109.33,-263.88 251.56,-255.49 322.28,-251.89"/>
<polygon fill="#398d49" stroke="#398d49" stroke-width="2" points="322.17,-255.4 331.99,-251.41 321.82,-248.41 322.17,-255.4"/>
</g>
<!-- TGLFNN -->
<g id="node10" class="node">
<title>TGLFNN</title>
<ellipse fill="none" stroke="black" stroke-width="3" cx="363.01" cy="-543" rx="39.62" ry="18"/>
<text text-anchor="middle" x="363.01" y="-537.98" font-family="Helvetica,sans-Serif" font-size="12.00">TGLFNN</text>
</g>
<!-- FUSE&#45;&gt;TGLFNN -->
<g id="edge9" class="edge">
<title>FUSE&#45;&gt;TGLFNN</title>
<path fill="none" stroke="#274d62" stroke-width="2" d="M30.73,-357.38C31.4,-395.27 38.83,-478.93 88.96,-519 152.73,-569.96 253.63,-563.4 313.27,-553.53"/>
<polygon fill="#274d62" stroke="#274d62" stroke-width="2" points="313.85,-556.98 323.08,-551.79 312.62,-550.09 313.85,-556.98"/>
</g>
<!-- NEO -->
<g id="node11" class="node">
<title>NEO</title>
<ellipse fill="none" stroke="black" stroke-width="3" cx="363.01" cy="-485" rx="27" ry="18"/>
<text text-anchor="middle" x="363.01" y="-479.98" font-family="Helvetica,sans-Serif" font-size="12.00">NEO</text>
</g>
<!-- FUSE&#45;&gt;NEO -->
<g id="edge10" class="edge">
<title>FUSE&#45;&gt;NEO</title>
<path fill="none" stroke="#108be3" stroke-width="2" d="M36.2,-356.86C43.74,-380.35 60.05,-419.85 88.96,-440 159.76,-489.33 265.61,-491.59 322.49,-488.55"/>
<polygon fill="#108be3" stroke="#108be3" stroke-width="2" points="322.4,-492.06 332.16,-487.93 321.96,-485.08 322.4,-492.06"/>
</g>
<!-- TJLF -->
<g id="node12" class="node">
<title>TJLF</title>
<ellipse fill="none" stroke="black" stroke-width="3" cx="182.27" cy="-190" rx="27" ry="18"/>
<text text-anchor="middle" x="182.27" y="-184.97" font-family="Helvetica,sans-Serif" font-size="12.00">TJLF</text>
</g>
<!-- FUSE&#45;&gt;TJLF -->
<g id="edge11" class="edge">
<title>FUSE&#45;&gt;TJLF</title>
<path fill="none" stroke="#4100f3" stroke-width="2" d="M34.58,-318.94C40.77,-291.55 56.08,-241.36 88.96,-214 103.47,-201.93 123.35,-195.85 140.95,-192.82"/>
<polygon fill="#4100f3" stroke="#4100f3" stroke-width="2" points="141.41,-196.29 150.83,-191.46 140.45,-189.36 141.41,-196.29"/>
</g>
<!-- CHEASE -->
<g id="node13" class="node">
<title>CHEASE</title>
<ellipse fill="none" stroke="black" stroke-width="3" cx="363.01" cy="-207" rx="40.99" ry="18"/>
<text text-anchor="middle" x="363.01" y="-201.97" font-family="Helvetica,sans-Serif" font-size="12.00">CHEASE</text>
</g>
<!-- FUSE&#45;&gt;CHEASE -->
<g id="edge44" class="edge">
<title>FUSE&#45;&gt;CHEASE</title>
<path fill="none" stroke="#780967" stroke-width="2" d="M38.71,-319.27C47.71,-300.07 64.54,-271.08 88.96,-257 125.06,-236.2 234.97,-248.31 275.58,-239 280.21,-237.94 299.12,-230.98 318.08,-223.83"/>
<polygon fill="#780967" stroke="#780967" stroke-width="2" points="319.14,-227.17 327.25,-220.35 316.66,-220.62 319.14,-227.17"/>
</g>
<!-- IMASutils -->
<g id="node14" class="node">
<title>IMASutils</title>
<ellipse fill="none" stroke="black" stroke-width="3" cx="943.79" cy="-346" rx="40.99" ry="18"/>
<text text-anchor="middle" x="943.79" y="-340.98" font-family="Helvetica,sans-Serif" font-size="12.00">IMASutils</text>
</g>
<!-- FUSE&#45;&gt;IMASutils -->
<g id="edge14" class="edge">
<title>FUSE&#45;&gt;IMASutils</title>
<path fill="none" stroke="#0ebb2e" stroke-width="2" d="M44.73,-321.04C55.39,-309.31 71.3,-294.65 88.96,-288 127.19,-273.61 784.53,-275.39 824.23,-285 854.83,-292.41 886.38,-309.17 909.24,-323.25"/>
<polygon fill="#0ebb2e" stroke="#0ebb2e" stroke-width="2" points="907.16,-326.07 917.47,-328.47 910.91,-320.16 907.16,-326.07"/>
</g>
<!-- BoundaryPlasmaModels -->
<g id="node16" class="node">
<title>BoundaryPlasmaModels</title>
<ellipse fill="none" stroke="black" stroke-width="3" cx="540.54" cy="-325" rx="90.1" ry="18"/>
<text text-anchor="middle" x="540.54" y="-319.98" font-family="Helvetica,sans-Serif" font-size="12.00">BoundaryPlasmaModels</text>
</g>
<!-- FUSE&#45;&gt;BoundaryPlasmaModels -->
<g id="edge49" class="edge">
<title>FUSE&#45;&gt;BoundaryPlasmaModels</title>
<path fill="none" stroke="#2e9219" stroke-width="2" d="M60.05,-343.38C125.12,-354.6 287.34,-377.92 421.45,-359 441.11,-356.23 462.08,-350.98 480.82,-345.41"/>
<polygon fill="#2e9219" stroke="#2e9219" stroke-width="2" points="481.66,-348.82 490.18,-342.53 479.6,-342.13 481.66,-348.82"/>
</g>
<!-- SimulationParameters -->
<g id="node17" class="node">
<title>SimulationParameters</title>
<ellipse fill="none" stroke="black" stroke-width="3" cx="741.94" cy="-587" rx="82.3" ry="18"/>
<text text-anchor="middle" x="741.94" y="-581.98" font-family="Helvetica,sans-Serif" font-size="12.00">SimulationParameters</text>
</g>
<!-- FUSE&#45;&gt;SimulationParameters -->
<g id="edge34" class="edge">
<title>FUSE&#45;&gt;SimulationParameters</title>
<path fill="none" stroke="#ce34ef" stroke-width="2" d="M32.97,-357.22C38.62,-407.78 56.49,-542.59 88.96,-571 179.76,-650.46 510.52,-619.33 630.64,-608 643.09,-606.83 656.22,-604.92 668.91,-602.73"/>
<polygon fill="#ce34ef" stroke="#ce34ef" stroke-width="2" points="669.22,-606.23 678.43,-601 667.97,-599.34 669.22,-606.23"/>
</g>
<!-- FRESCO -->
<g id="node18" class="node">
<title>FRESCO</title>
<ellipse fill="none" stroke="black" stroke-width="3" cx="182.27" cy="-309" rx="40.99" ry="18"/>
<text text-anchor="middle" x="182.27" y="-303.98" font-family="Helvetica,sans-Serif" font-size="12.00">FRESCO</text>
</g>
<!-- FUSE&#45;&gt;FRESCO -->
<g id="edge25" class="edge">
<title>FUSE&#45;&gt;FRESCO</title>
<path fill="none" stroke="#c32a7e" stroke-width="2" d="M59.96,-332.41C79.89,-328.56 106.91,-323.35 130.38,-318.82"/>
<polygon fill="#c32a7e" stroke="#c32a7e" stroke-width="2" points="130.87,-322.29 140.02,-316.96 129.54,-315.42 130.87,-322.29"/>
</g>
<!-- RABBIT -->
<g id="node21" class="node">
<title>RABBIT</title>
<ellipse fill="none" stroke="black" stroke-width="3" cx="182.27" cy="-147" rx="36.86" ry="18"/>
<text text-anchor="middle" x="182.27" y="-141.97" font-family="Helvetica,sans-Serif" font-size="12.00">RABBIT</text>
</g>
<!-- FUSE&#45;&gt;RABBIT -->
<g id="edge28" class="edge">
<title>FUSE&#45;&gt;RABBIT</title>
<path fill="none" stroke="#26c625" stroke-width="2" d="M31.81,-318.55C34.41,-283.3 45.1,-208.82 88.96,-169 100.59,-158.45 116.35,-152.7 131.56,-149.65"/>
<polygon fill="#26c625" stroke="#26c625" stroke-width="2" points="131.78,-153.16 141.12,-148.14 130.69,-146.24 131.78,-153.16"/>
</g>
<!-- TEQUILA -->
<g id="node22" class="node">
<title>TEQUILA</title>
<ellipse fill="none" stroke="black" stroke-width="3" cx="363.01" cy="-149" rx="41.45" ry="18"/>
<text text-anchor="middle" x="363.01" y="-143.97" font-family="Helvetica,sans-Serif" font-size="12.00">TEQUILA</text>
</g>
<!-- FUSE&#45;&gt;TEQUILA -->
<g id="edge31" class="edge">
<title>FUSE&#45;&gt;TEQUILA</title>
<path fill="none" stroke="#64e010" stroke-width="2" d="M35.24,-318.86C41.95,-293.62 57.6,-249.96 88.96,-229 158.25,-182.71 202.76,-251.5 275.58,-211 294.15,-200.67 287.76,-185.98 304.58,-173 308.11,-170.28 311.99,-167.81 316.02,-165.58"/>
<polygon fill="#64e010" stroke="#64e010" stroke-width="2" points="317.42,-168.79 324.88,-161.27 314.36,-162.5 317.42,-168.79"/>
</g>
<!-- TroyonBetaNN -->
<g id="node23" class="node">
<title>TroyonBetaNN</title>
<ellipse fill="none" stroke="black" stroke-width="3" cx="363.01" cy="-442" rx="58.43" ry="18"/>
<text text-anchor="middle" x="363.01" y="-436.98" font-family="Helvetica,sans-Serif" font-size="12.00">TroyonBetaNN</text>
</g>
<!-- FUSE&#45;&gt;TroyonBetaNN -->
<g id="edge37" class="edge">
<title>FUSE&#45;&gt;TroyonBetaNN</title>
<path fill="none" stroke="#a878d6" stroke-width="2" d="M38.75,-356.54C47.78,-375.55 64.64,-404.21 88.96,-418 152.18,-453.83 237.13,-455.46 295.4,-450.93"/>
<polygon fill="#a878d6" stroke="#a878d6" stroke-width="2" points="295.47,-454.44 305.12,-450.08 294.85,-447.47 295.47,-454.44"/>
</g>
<!-- EPEDNN -->
<g id="node24" class="node">
<title>EPEDNN</title>
<ellipse fill="none" stroke="black" stroke-width="3" cx="182.27" cy="-104" rx="41.45" ry="18"/>
<text text-anchor="middle" x="182.27" y="-98.97" font-family="Helvetica,sans-Serif" font-size="12.00">EPEDNN</text>
</g>
<!-- FUSE&#45;&gt;EPEDNN -->
<g id="edge36" class="edge">
<title>FUSE&#45;&gt;EPEDNN</title>
<path fill="none" stroke="#6f8a50" stroke-width="2" d="M30.2,-318.69C29.65,-277.12 34.53,-178.67 88.96,-126 99.21,-116.09 113.07,-110.36 126.93,-107.13"/>
<polygon fill="#6f8a50" stroke="#6f8a50" stroke-width="2" points="127.39,-110.6 136.59,-105.35 126.12,-103.72 127.39,-110.6"/>
</g>
<!-- EGGO -->
<g id="node25" class="node">
<title>EGGO</title>
<ellipse fill="none" stroke="black" stroke-width="3" cx="540.54" cy="-441" rx="31.36" ry="18"/>
<text text-anchor="middle" x="540.54" y="-435.98" font-family="Helvetica,sans-Serif" font-size="12.00">EGGO</text>
</g>
<!-- FUSE&#45;&gt;EGGO -->
<g id="edge45" class="edge">
<title>FUSE&#45;&gt;EGGO</title>
<path fill="none" stroke="#881a13" stroke-width="2" d="M41.27,-355.93C51.26,-371.44 67.98,-392.91 88.96,-403 122.3,-419.03 384.68,-416.9 421.45,-421 446.55,-423.8 474.42,-428.44 496.78,-432.55"/>
<polygon fill="#881a13" stroke="#881a13" stroke-width="2" points="496.13,-435.99 506.61,-434.4 497.43,-429.11 496.13,-435.99"/>
</g>
<!-- BalanceOfPlantSurrogate -->
<g id="node27" class="node">
<title>BalanceOfPlantSurrogate</title>
<ellipse fill="none" stroke="black" stroke-width="3" cx="182.27" cy="-61" rx="93.31" ry="18"/>
<text text-anchor="middle" x="182.27" y="-55.98" font-family="Helvetica,sans-Serif" font-size="12.00">BalanceOfPlantSurrogate</text>
</g>
<!-- FUSE&#45;&gt;BalanceOfPlantSurrogate -->
<g id="edge47" class="edge">
<title>FUSE&#45;&gt;BalanceOfPlantSurrogate</title>
<path fill="none" stroke="#dfbd63" stroke-width="2" d="M32.75,-318.78C38.06,-265.34 55.59,-116.72 88.96,-83 90.34,-81.61 91.79,-80.3 93.29,-79.07"/>
<polygon fill="#dfbd63" stroke="#dfbd63" stroke-width="2" points="95.07,-82.09 101.51,-73.67 91.23,-76.24 95.07,-82.09"/>
</g>
<!-- NNeutronics -->
<g id="node29" class="node">
<title>NNeutronics</title>
<ellipse fill="none" stroke="black" stroke-width="3" cx="182.27" cy="-18" rx="50.63" ry="18"/>
<text text-anchor="middle" x="182.27" y="-12.97" font-family="Helvetica,sans-Serif" font-size="12.00">NNeutronics</text>
</g>
<!-- FUSE&#45;&gt;NNeutronics -->
<g id="edge53" class="edge">
<title>FUSE&#45;&gt;NNeutronics</title>
<path fill="none" stroke="#340908" stroke-width="2" d="M32.08,-318.61C35.84,-259.07 50.2,-80.42 88.96,-40 96.83,-31.79 107.17,-26.41 118.07,-22.93"/>
<polygon fill="#340908" stroke="#340908" stroke-width="2" points="118.76,-26.37 127.59,-20.5 117.03,-19.58 118.76,-26.37"/>
</g>
<!-- VacuumFields&#45;&gt;FusionMaterials -->
<g id="edge2" class="edge">
<title>VacuumFields&#45;&gt;FusionMaterials</title>
<path fill="none" stroke="#9b5a68" stroke-width="2" d="M409.22,-349.59C430.47,-355.04 456.12,-361.61 479.02,-367.48"/>
<polygon fill="#9b5a68" stroke="#9b5a68" stroke-width="2" points="477.93,-370.82 488.49,-369.91 479.67,-364.04 477.93,-370.82"/>
</g>
<!-- VacuumFields&#45;&gt;MXHEquilibrium -->
<g id="edge3" class="edge">
<title>VacuumFields&#45;&gt;MXHEquilibrium</title>
<path fill="none" stroke="#e6f550" stroke-width="2" d="M381.23,-319.73C397.8,-302.91 424.14,-278.05 450.45,-261 461.99,-253.52 475.15,-246.77 487.76,-241.03"/>
<polygon fill="#e6f550" stroke="#e6f550" stroke-width="2" points="489.07,-244.28 496.83,-237.07 486.27,-237.87 489.07,-244.28"/>
</g>
<!-- VacuumFields&#45;&gt;IMAS -->
<g id="edge19" class="edge">
<title>VacuumFields&#45;&gt;IMAS</title>
<path fill="none" stroke="#11338a" stroke-width="2" d="M418.42,-343.07C429.04,-344.05 440.09,-345.06 450.45,-346 530.52,-353.26 554.5,-336.17 630.64,-362 661.37,-372.42 692.2,-393.06 713.42,-409.24"/>
<polygon fill="#11338a" stroke="#11338a" stroke-width="2" points="711.18,-411.93 721.21,-415.34 715.5,-406.42 711.18,-411.93"/>
</g>
<!-- MillerExtendedHarmonic -->
<g id="node20" class="node">
<title>MillerExtendedHarmonic</title>
<ellipse fill="none" stroke="black" stroke-width="3" cx="943.79" cy="-251" rx="90.56" ry="18"/>
<text text-anchor="middle" x="943.79" y="-245.97" font-family="Helvetica,sans-Serif" font-size="12.00">MillerExtendedHarmonic</text>
</g>
<!-- VacuumFields&#45;&gt;MillerExtendedHarmonic -->
<g id="edge33" class="edge">
<title>VacuumFields&#45;&gt;MillerExtendedHarmonic</title>
<path fill="none" stroke="#103edc" stroke-width="2" d="M397.4,-322.45C413.17,-315.74 432.44,-308.43 450.45,-304 582.41,-271.56 739.12,-258.98 839.7,-254.09"/>
<polygon fill="#103edc" stroke="#103edc" stroke-width="2" points="839.75,-257.6 849.58,-253.64 839.42,-250.6 839.75,-257.6"/>
</g>
<!-- FusionMaterials&#45;&gt;IMAS -->
<g id="edge30" class="edge">
<title>FusionMaterials&#45;&gt;IMAS</title>
<path fill="none" stroke="#d9e07e" stroke-width="2" d="M590.32,-394.99C624.77,-403.45 670.32,-414.65 702.27,-422.5"/>
<polygon fill="#d9e07e" stroke="#d9e07e" stroke-width="2" points="701.15,-425.83 711.7,-424.81 702.82,-419.03 701.15,-425.83"/>
</g>
<!-- CoordinateConventions -->
<g id="node19" class="node">
<title>CoordinateConventions</title>
<ellipse fill="none" stroke="black" stroke-width="3" cx="1150.69" cy="-389" rx="87.34" ry="18"/>
<text text-anchor="middle" x="1150.69" y="-383.98" font-family="Helvetica,sans-Serif" font-size="12.00">CoordinateConventions</text>
</g>
<!-- MXHEquilibrium&#45;&gt;CoordinateConventions -->
<g id="edge23" class="edge">
<title>MXHEquilibrium&#45;&gt;CoordinateConventions</title>
<path fill="none" stroke="#47774c" stroke-width="2" d="M590.14,-208.41C682.71,-187.21 888.1,-153.73 1034.34,-230 1086.5,-257.2 1120.74,-319.94 1137.53,-357.97"/>
<polygon fill="#47774c" stroke="#47774c" stroke-width="2" points="1134.25,-359.2 1141.37,-367.05 1140.69,-356.47 1134.25,-359.2"/>
</g>
<!-- MXHEquilibrium&#45;&gt;MillerExtendedHarmonic -->
<g id="edge54" class="edge">
<title>MXHEquilibrium&#45;&gt;MillerExtendedHarmonic</title>
<path fill="none" stroke="#b38290" stroke-width="2" d="M603.36,-225.62C667.57,-230.42 768.99,-238.01 844.27,-243.63"/>
<polygon fill="#b38290" stroke="#b38290" stroke-width="2" points="843.81,-247.11 854.04,-244.36 844.33,-240.13 843.81,-247.11"/>
</g>
<!-- TORBEAM&#45;&gt;IMAS -->
<g id="edge4" class="edge">
<title>TORBEAM&#45;&gt;IMAS</title>
<path fill="none" stroke="#05e1a2" stroke-width="2" d="M577.95,-574.86C594.81,-568.31 614.6,-559.25 630.64,-548 666.48,-522.87 699.96,-484.75 720.43,-459.14"/>
<polygon fill="#05e1a2" stroke="#05e1a2" stroke-width="2" points="723.09,-461.42 726.51,-451.39 717.58,-457.1 723.09,-461.42"/>
</g>
<!-- IMAS&#45;&gt;HelpPlots -->
<g id="edge8" class="edge">
<title>IMAS&#45;&gt;HelpPlots</title>
<path fill="none" stroke="#a49e31" stroke-width="2" d="M761.38,-446.3C795.51,-472.78 868.9,-529.7 911.13,-562.45"/>
<polygon fill="#a49e31" stroke="#a49e31" stroke-width="2" points="908.96,-565.19 919.01,-568.56 913.25,-559.66 908.96,-565.19"/>
</g>
<!-- IMAS&#45;&gt;IMASutils -->
<g id="edge15" class="edge">
<title>IMAS&#45;&gt;IMASutils</title>
<path fill="none" stroke="#c68cf0" stroke-width="2" d="M762.39,-418.41C783.76,-404.03 819.56,-381.58 853.23,-368 865.37,-363.1 878.89,-359.09 891.67,-355.9"/>
<polygon fill="#c68cf0" stroke="#c68cf0" stroke-width="2" points="892.24,-359.36 901.18,-353.67 890.64,-352.54 892.24,-359.36"/>
</g>
<!-- IMAS&#45;&gt;CoordinateConventions -->
<g id="edge59" class="edge">
<title>IMAS&#45;&gt;CoordinateConventions</title>
<path fill="none" stroke="#5d7000" stroke-width="2" d="M768.77,-439.33C820.24,-452.76 938.84,-477.72 1034.34,-453 1063.23,-445.52 1092.59,-429.08 1114.46,-414.73"/>
<polygon fill="#5d7000" stroke="#5d7000" stroke-width="2" points="1116.35,-417.68 1122.66,-409.18 1112.42,-411.89 1116.35,-417.68"/>
</g>
<!-- IMAS&#45;&gt;MillerExtendedHarmonic -->
<g id="edge24" class="edge">
<title>IMAS&#45;&gt;MillerExtendedHarmonic</title>
<path fill="none" stroke="#79d1ab" stroke-width="2" d="M758.27,-416.36C779.24,-395.15 818.26,-356.33 853.23,-325 871.27,-308.84 892.09,-291.56 909.12,-277.77"/>
<polygon fill="#79d1ab" stroke="#79d1ab" stroke-width="2" points="911.22,-280.57 916.81,-271.57 906.83,-275.12 911.22,-280.57"/>
</g>
<!-- FuseExchangeProtocol -->
<g id="node28" class="node">
<title>FuseExchangeProtocol</title>
<ellipse fill="none" stroke="black" stroke-width="3" cx="943.79" cy="-432" rx="86.43" ry="18"/>
<text text-anchor="middle" x="943.79" y="-426.98" font-family="Helvetica,sans-Serif" font-size="12.00">FuseExchangeProtocol</text>
</g>
<!-- IMAS&#45;&gt;FuseExchangeProtocol -->
<g id="edge48" class="edge">
<title>IMAS&#45;&gt;FuseExchangeProtocol</title>
<path fill="none" stroke="#b502d0" stroke-width="2" d="M770.73,-432C789.8,-432 816.4,-432 842.98,-432"/>
<polygon fill="#b502d0" stroke="#b502d0" stroke-width="2" points="842.97,-435.5 852.97,-432 842.97,-428.5 842.97,-435.5"/>
</g>
<!-- IMASdd -->
<g id="node30" class="node">
<title>IMASdd</title>
<ellipse fill="none" stroke="black" stroke-width="3" cx="943.79" cy="-389" rx="35.95" ry="18"/>
<text text-anchor="middle" x="943.79" y="-383.98" font-family="Helvetica,sans-Serif" font-size="12.00">IMASdd</text>
</g>
<!-- IMAS&#45;&gt;IMASdd -->
<g id="edge61" class="edge">
<title>IMAS&#45;&gt;IMASdd</title>
<path fill="none" stroke="#af75cc" stroke-width="2" d="M769.48,-426.29C801.81,-419.33 857.01,-407.46 896.42,-398.98"/>
<polygon fill="#af75cc" stroke="#af75cc" stroke-width="2" points="897.13,-402.4 906.17,-396.88 895.66,-395.56 897.13,-402.4"/>
</g>
<!-- GACODE&#45;&gt;IMAS -->
<g id="edge13" class="edge">
<title>GACODE&#45;&gt;IMAS</title>
<path fill="none" stroke="#83b405" stroke-width="2" d="M579.42,-505.76C595.48,-501.77 614.24,-496.43 630.64,-490 658,-479.27 687.38,-463.6 708.93,-451.25"/>
<polygon fill="#83b405" stroke="#83b405" stroke-width="2" points="710.54,-454.36 717.42,-446.3 707.02,-448.31 710.54,-454.36"/>
</g>
<!-- FiniteElementHermite -->
<g id="node15" class="node">
<title>FiniteElementHermite</title>
<ellipse fill="none" stroke="black" stroke-width="3" cx="540.54" cy="-178" rx="80.92" ry="18"/>
<text text-anchor="middle" x="540.54" y="-172.97" font-family="Helvetica,sans-Serif" font-size="12.00">FiniteElementHermite</text>
</g>
<!-- QED&#45;&gt;FiniteElementHermite -->
<g id="edge16" class="edge">
<title>QED&#45;&gt;FiniteElementHermite</title>
<path fill="none" stroke="#377f85" stroke-width="2" d="M389.37,-242.75C399.76,-239.17 411.63,-234.25 421.45,-228 436.56,-218.38 434.77,-208.67 450.45,-200 454.33,-197.85 458.42,-195.91 462.63,-194.16"/>
<polygon fill="#377f85" stroke="#377f85" stroke-width="2" points="463.72,-197.49 471.89,-190.75 461.3,-190.92 463.72,-197.49"/>
</g>
<!-- TGLFNN&#45;&gt;IMAS -->
<g id="edge50" class="edge">
<title>TGLFNN&#45;&gt;IMAS</title>
<path fill="none" stroke="#5545e7" stroke-width="2" d="M403.73,-545.2C467.78,-548.18 590.76,-551.42 630.64,-535 668.63,-519.36 701.46,-484.24 721.2,-459.37"/>
<polygon fill="#5545e7" stroke="#5545e7" stroke-width="2" points="723.92,-461.56 727.23,-451.5 718.37,-457.3 723.92,-461.56"/>
</g>
<!-- TGLFNN&#45;&gt;GACODE -->
<g id="edge43" class="edge">
<title>TGLFNN&#45;&gt;GACODE</title>
<path fill="none" stroke="#e8d604" stroke-width="2" d="M401.67,-536.78C426.63,-532.66 459.72,-527.19 487.22,-522.64"/>
<polygon fill="#e8d604" stroke="#e8d604" stroke-width="2" points="487.53,-526.14 496.83,-521.06 486.39,-519.23 487.53,-526.14"/>
</g>
<!-- TGLFNN&#45;&gt;IMASutils -->
<g id="edge22" class="edge">
<title>TGLFNN&#45;&gt;IMASutils</title>
<path fill="none" stroke="#7827ac" stroke-width="2" d="M402.12,-548.89C454.4,-555.74 550.94,-563.98 630.64,-546 723.57,-525.04 760.98,-525.23 824.23,-454 851.02,-423.84 823.53,-395.29 853.23,-368 863.15,-358.89 876.22,-353.39 889.3,-350.11"/>
<polygon fill="#7827ac" stroke="#7827ac" stroke-width="2" points="889.66,-353.61 898.77,-348.2 888.27,-346.75 889.66,-353.61"/>
</g>
<!-- NEO&#45;&gt;IMAS -->
<g id="edge29" class="edge">
<title>NEO&#45;&gt;IMAS</title>
<path fill="none" stroke="#fb2261" stroke-width="2" d="M391.2,-486.12C439.78,-487.57 544.49,-488.12 630.64,-471 656.33,-465.89 684.13,-456.04 705.39,-447.51"/>
<polygon fill="#fb2261" stroke="#fb2261" stroke-width="2" points="706.69,-450.76 714.6,-443.71 704.02,-444.29 706.69,-450.76"/>
</g>
<!-- NEO&#45;&gt;GACODE -->
<g id="edge20" class="edge">
<title>NEO&#45;&gt;GACODE</title>
<path fill="none" stroke="#5b43e7" stroke-width="2" d="M390.67,-489.4C416.21,-493.62 455.46,-500.11 487.25,-505.36"/>
<polygon fill="#5b43e7" stroke="#5b43e7" stroke-width="2" points="486.48,-508.78 496.92,-506.96 487.62,-501.87 486.48,-508.78"/>
</g>
<!-- CHEASE&#45;&gt;MXHEquilibrium -->
<g id="edge12" class="edge">
<title>CHEASE&#45;&gt;MXHEquilibrium</title>
<path fill="none" stroke="#f6016a" stroke-width="2" d="M404.73,-210.25C422.67,-211.68 444.35,-213.41 465.02,-215.06"/>
<polygon fill="#f6016a" stroke="#f6016a" stroke-width="2" points="464.46,-218.52 474.7,-215.83 465.01,-211.54 464.46,-218.52"/>
</g>
<!-- BoundaryPlasmaModels&#45;&gt;IMAS -->
<g id="edge17" class="edge">
<title>BoundaryPlasmaModels&#45;&gt;IMAS</title>
<path fill="none" stroke="#48052d" stroke-width="2" d="M604.95,-338.85C613.78,-341.7 622.58,-345.06 630.64,-349 662.29,-364.45 693.95,-389.51 715.17,-408.06"/>
<polygon fill="#48052d" stroke="#48052d" stroke-width="2" points="712.66,-410.51 722.45,-414.56 717.32,-405.29 712.66,-410.51"/>
</g>
<!-- BoundaryPlasmaModels&#45;&gt;IMASutils -->
<g id="edge26" class="edge">
<title>BoundaryPlasmaModels&#45;&gt;IMASutils</title>
<path fill="none" stroke="#4f1975" stroke-width="2" d="M620.23,-334.56C633.38,-335.9 646.88,-337.12 659.64,-338 739.12,-343.49 831.41,-345.23 888.46,-345.78"/>
<polygon fill="#4f1975" stroke="#4f1975" stroke-width="2" points="888.42,-349.28 898.44,-345.86 888.47,-342.28 888.42,-349.28"/>
</g>
<!-- BoundaryPlasmaModels&#45;&gt;SimulationParameters -->
<g id="edge18" class="edge">
<title>BoundaryPlasmaModels&#45;&gt;SimulationParameters</title>
<path fill="none" stroke="#bb8063" stroke-width="2" d="M598.54,-340.02C610.4,-345.35 621.93,-352.49 630.64,-362 659.59,-393.62 641.89,-414.98 659.64,-454 676.63,-491.34 702,-531.08 719.87,-557.3"/>
<polygon fill="#bb8063" stroke="#bb8063" stroke-width="2" points="716.98,-559.27 725.54,-565.51 722.74,-555.29 716.98,-559.27"/>
</g>
<!-- ADAS -->
<g id="node26" class="node">
<title>ADAS</title>
<ellipse fill="none" stroke="black" stroke-width="3" cx="741.94" cy="-317" rx="30.44" ry="18"/>
<text text-anchor="middle" x="741.94" y="-311.98" font-family="Helvetica,sans-Serif" font-size="12.00">ADAS</text>
</g>
<!-- BoundaryPlasmaModels&#45;&gt;ADAS -->
<g id="edge46" class="edge">
<title>BoundaryPlasmaModels&#45;&gt;ADAS</title>
<path fill="none" stroke="#7adb82" stroke-width="2" d="M630.45,-321.43C653.74,-320.5 677.82,-319.53 697.54,-318.74"/>
<polygon fill="#7adb82" stroke="#7adb82" stroke-width="2" points="697.55,-322.24 707.4,-318.35 697.27,-315.25 697.55,-322.24"/>
</g>
<!-- SimulationParameters&#45;&gt;HelpPlots -->
<g id="edge40" class="edge">
<title>SimulationParameters&#45;&gt;HelpPlots</title>
<path fill="none" stroke="#47e740" stroke-width="2" d="M825.67,-587C846.61,-587 868.58,-587 887.77,-587"/>
<polygon fill="#47e740" stroke="#47e740" stroke-width="2" points="887.54,-590.5 897.54,-587 887.54,-583.5 887.54,-590.5"/>
</g>
<!-- SimulationParameters&#45;&gt;IMASutils -->
<g id="edge58" class="edge">
<title>SimulationParameters&#45;&gt;IMASutils</title>
<path fill="none" stroke="#d66ef5" stroke-width="2" d="M808.33,-575.36C814.32,-572.16 819.79,-568.11 824.23,-563 881.72,-496.88 794.23,-432.78 853.23,-368 862.46,-357.86 875.54,-352.05 888.86,-348.8"/>
<polygon fill="#d66ef5" stroke="#d66ef5" stroke-width="2" points="889.42,-352.25 898.6,-346.96 888.13,-345.37 889.42,-352.25"/>
</g>
<!-- FRESCO&#45;&gt;VacuumFields -->
<g id="edge42" class="edge">
<title>FRESCO&#45;&gt;VacuumFields</title>
<path fill="none" stroke="#1b1c5b" stroke-width="2" d="M222.06,-315.29C244.37,-318.91 272.95,-323.55 298.46,-327.69"/>
<polygon fill="#1b1c5b" stroke="#1b1c5b" stroke-width="2" points="297.66,-331.1 308.09,-329.25 298.78,-324.2 297.66,-331.1"/>
</g>
<!-- FRESCO&#45;&gt;IMAS -->
<g id="edge21" class="edge">
<title>FRESCO&#45;&gt;IMAS</title>
<path fill="none" stroke="#f9f90c" stroke-width="2" d="M224.56,-307.57C331.86,-303.98 612.47,-295.46 630.64,-304 648.92,-312.59 646.55,-323.62 659.64,-339 679.11,-361.87 701.61,-387.56 718,-406.13"/>
<polygon fill="#f9f90c" stroke="#f9f90c" stroke-width="2" points="715.16,-408.21 724.41,-413.38 720.41,-403.57 715.16,-408.21"/>
</g>
<!-- FRESCO&#45;&gt;QED -->
<g id="edge32" class="edge">
<title>FRESCO&#45;&gt;QED</title>
<path fill="none" stroke="#151382" stroke-width="2" d="M216.89,-297.9C247.64,-287.75 293.06,-272.76 324.87,-262.26"/>
<polygon fill="#151382" stroke="#151382" stroke-width="2" points="325.9,-265.61 334.3,-259.15 323.71,-258.96 325.9,-265.61"/>
</g>
<!-- FRESCO&#45;&gt;IMASutils -->
<g id="edge27" class="edge">
<title>FRESCO&#45;&gt;IMASutils</title>
<path fill="none" stroke="#38b04f" stroke-width="2" d="M224.18,-305.84C346.63,-296.76 708.87,-272.67 824.23,-296 852.44,-301.71 882.29,-314.33 904.98,-325.47"/>
<polygon fill="#38b04f" stroke="#38b04f" stroke-width="2" points="903.26,-328.52 913.76,-329.91 906.42,-322.28 903.26,-328.52"/>
</g>
<!-- TEQUILA&#45;&gt;MXHEquilibrium -->
<g id="edge39" class="edge">
<title>TEQUILA&#45;&gt;MXHEquilibrium</title>
<path fill="none" stroke="#94ff93" stroke-width="2" d="M397.16,-160.63C405.37,-164.1 413.96,-168.27 421.45,-173 436.08,-182.24 435.14,-190.91 450.45,-199 457.03,-202.48 464.19,-205.43 471.48,-207.92"/>
<polygon fill="#94ff93" stroke="#94ff93" stroke-width="2" points="470.33,-211.22 480.92,-210.8 472.38,-204.53 470.33,-211.22"/>
</g>
<!-- TEQUILA&#45;&gt;FiniteElementHermite -->
<g id="edge51" class="edge">
<title>TEQUILA&#45;&gt;FiniteElementHermite</title>
<path fill="none" stroke="#150029" stroke-width="2" d="M403.41,-155.51C420.16,-158.28 440.32,-161.61 459.94,-164.85"/>
<polygon fill="#150029" stroke="#150029" stroke-width="2" points="459.29,-168.29 469.73,-166.47 460.43,-161.38 459.29,-168.29"/>
</g>
<!-- TEQUILA&#45;&gt;MillerExtendedHarmonic -->
<g id="edge41" class="edge">
<title>TEQUILA&#45;&gt;MillerExtendedHarmonic</title>
<path fill="none" stroke="#16bf8e" stroke-width="2" d="M405.44,-146.9C458.14,-145 551.79,-144.17 630.64,-157 722.75,-171.98 825.7,-206.66 887.32,-229.45"/>
<polygon fill="#16bf8e" stroke="#16bf8e" stroke-width="2" points="886.02,-232.7 896.61,-232.92 888.47,-226.14 886.02,-232.7"/>
</g>
<!-- TroyonBetaNN&#45;&gt;IMAS -->
<g id="edge35" class="edge">
<title>TroyonBetaNN&#45;&gt;IMAS</title>
<path fill="none" stroke="#919c94" stroke-width="2" d="M408.98,-454.44C422.23,-457.55 436.83,-460.44 450.45,-462 530.02,-471.09 551.26,-472.6 630.64,-462 655.56,-458.67 682.83,-451.29 704.02,-444.68"/>
<polygon fill="#919c94" stroke="#919c94" stroke-width="2" points="705.03,-448.03 713.47,-441.64 702.88,-441.37 705.03,-448.03"/>
</g>
<!-- EGGO&#45;&gt;IMAS -->
<g id="edge52" class="edge">
<title>EGGO&#45;&gt;IMAS</title>
<path fill="none" stroke="#bd25b5" stroke-width="2" d="M573.14,-439.57C607.47,-438.02 662.43,-435.54 700.03,-433.85"/>
<polygon fill="#bd25b5" stroke="#bd25b5" stroke-width="2" points="700.17,-437.34 710,-433.4 699.86,-430.35 700.17,-437.34"/>
</g>
<!-- IMASdd&#45;&gt;CoordinateConventions -->
<g id="edge57" class="edge">
<title>IMASdd&#45;&gt;CoordinateConventions</title>
<path fill="none" stroke="#12fb2f" stroke-width="2" d="M980.95,-389C1000.12,-389 1024.73,-389 1049.19,-389"/>
<polygon fill="#12fb2f" stroke="#12fb2f" stroke-width="2" points="1048.91,-392.5 1058.91,-389 1048.91,-385.5 1048.91,-392.5"/>
</g>
</g>
</svg>
