<?xml version="1.0" encoding="utf-8"?>
<svg xmlns="http://www.w3.org/2000/svg" xmlns:xlink="http://www.w3.org/1999/xlink" width="600" height="400" viewBox="0 0 2400 1600">
<defs>
  <clipPath id="clip030">
    <rect x="0" y="0" width="2400" height="1600"/>
  </clipPath>
</defs>
<path clip-path="url(#clip030)" d="M0 1600 L2400 1600 L2400 0 L0 0  Z" fill="#ffffff" fill-rule="evenodd" fill-opacity="1"/>
<defs>
  <clipPath id="clip031">
    <rect x="480" y="0" width="1681" height="1600"/>
  </clipPath>
</defs>
<path clip-path="url(#clip030)" d="M338.404 1423.18 L2352.76 1423.18 L2352.76 47.2441 L338.404 47.2441  Z" fill="#ffffff" fill-rule="evenodd" fill-opacity="1"/>
<defs>
  <clipPath id="clip032">
    <rect x="338" y="47" width="2015" height="1377"/>
  </clipPath>
</defs>
<polyline clip-path="url(#clip032)" style="stroke:#000000; stroke-linecap:round; stroke-linejoin:round; stroke-width:2; stroke-opacity:0.1; fill:none" points="338.404,1423.18 338.404,47.2441 "/>
<polyline clip-path="url(#clip032)" style="stroke:#000000; stroke-linecap:round; stroke-linejoin:round; stroke-width:2; stroke-opacity:0.1; fill:none" points="741.275,1423.18 741.275,47.2441 "/>
<polyline clip-path="url(#clip032)" style="stroke:#000000; stroke-linecap:round; stroke-linejoin:round; stroke-width:2; stroke-opacity:0.1; fill:none" points="1144.15,1423.18 1144.15,47.2441 "/>
<polyline clip-path="url(#clip032)" style="stroke:#000000; stroke-linecap:round; stroke-linejoin:round; stroke-width:2; stroke-opacity:0.1; fill:none" points="1547.02,1423.18 1547.02,47.2441 "/>
<polyline clip-path="url(#clip032)" style="stroke:#000000; stroke-linecap:round; stroke-linejoin:round; stroke-width:2; stroke-opacity:0.1; fill:none" points="1949.89,1423.18 1949.89,47.2441 "/>
<polyline clip-path="url(#clip032)" style="stroke:#000000; stroke-linecap:round; stroke-linejoin:round; stroke-width:2; stroke-opacity:0.1; fill:none" points="2352.76,1423.18 2352.76,47.2441 "/>
<polyline clip-path="url(#clip032)" style="stroke:#000000; stroke-linecap:round; stroke-linejoin:round; stroke-width:2; stroke-opacity:0.1; fill:none" points="338.404,1385.29 2352.76,1385.29 "/>
<polyline clip-path="url(#clip032)" style="stroke:#000000; stroke-linecap:round; stroke-linejoin:round; stroke-width:2; stroke-opacity:0.1; fill:none" points="338.404,1139.13 2352.76,1139.13 "/>
<polyline clip-path="url(#clip032)" style="stroke:#000000; stroke-linecap:round; stroke-linejoin:round; stroke-width:2; stroke-opacity:0.1; fill:none" points="338.404,892.98 2352.76,892.98 "/>
<polyline clip-path="url(#clip032)" style="stroke:#000000; stroke-linecap:round; stroke-linejoin:round; stroke-width:2; stroke-opacity:0.1; fill:none" points="338.404,646.826 2352.76,646.826 "/>
<polyline clip-path="url(#clip032)" style="stroke:#000000; stroke-linecap:round; stroke-linejoin:round; stroke-width:2; stroke-opacity:0.1; fill:none" points="338.404,400.671 2352.76,400.671 "/>
<polyline clip-path="url(#clip032)" style="stroke:#000000; stroke-linecap:round; stroke-linejoin:round; stroke-width:2; stroke-opacity:0.1; fill:none" points="338.404,154.517 2352.76,154.517 "/>
<polyline clip-path="url(#clip030)" style="stroke:#000000; stroke-linecap:round; stroke-linejoin:round; stroke-width:4; stroke-opacity:1; fill:none" points="338.404,1423.18 2352.76,1423.18 "/>
<polyline clip-path="url(#clip030)" style="stroke:#000000; stroke-linecap:round; stroke-linejoin:round; stroke-width:4; stroke-opacity:1; fill:none" points="338.404,1423.18 338.404,1404.28 "/>
<polyline clip-path="url(#clip030)" style="stroke:#000000; stroke-linecap:round; stroke-linejoin:round; stroke-width:4; stroke-opacity:1; fill:none" points="741.275,1423.18 741.275,1404.28 "/>
<polyline clip-path="url(#clip030)" style="stroke:#000000; stroke-linecap:round; stroke-linejoin:round; stroke-width:4; stroke-opacity:1; fill:none" points="1144.15,1423.18 1144.15,1404.28 "/>
<polyline clip-path="url(#clip030)" style="stroke:#000000; stroke-linecap:round; stroke-linejoin:round; stroke-width:4; stroke-opacity:1; fill:none" points="1547.02,1423.18 1547.02,1404.28 "/>
<polyline clip-path="url(#clip030)" style="stroke:#000000; stroke-linecap:round; stroke-linejoin:round; stroke-width:4; stroke-opacity:1; fill:none" points="1949.89,1423.18 1949.89,1404.28 "/>
<polyline clip-path="url(#clip030)" style="stroke:#000000; stroke-linecap:round; stroke-linejoin:round; stroke-width:4; stroke-opacity:1; fill:none" points="2352.76,1423.18 2352.76,1404.28 "/>
<path clip-path="url(#clip030)" d="M315.789 1454.1 Q312.178 1454.1 310.349 1457.66 Q308.543 1461.2 308.543 1468.33 Q308.543 1475.44 310.349 1479.01 Q312.178 1482.55 315.789 1482.55 Q319.423 1482.55 321.229 1479.01 Q323.057 1475.44 323.057 1468.33 Q323.057 1461.2 321.229 1457.66 Q319.423 1454.1 315.789 1454.1 M315.789 1450.39 Q321.599 1450.39 324.654 1455 Q327.733 1459.58 327.733 1468.33 Q327.733 1477.06 324.654 1481.67 Q321.599 1486.25 315.789 1486.25 Q309.979 1486.25 306.9 1481.67 Q303.844 1477.06 303.844 1468.33 Q303.844 1459.58 306.9 1455 Q309.979 1450.39 315.789 1450.39 Z" fill="#000000" fill-rule="nonzero" fill-opacity="1" /><path clip-path="url(#clip030)" d="M335.951 1479.7 L340.835 1479.7 L340.835 1485.58 L335.951 1485.58 L335.951 1479.7 Z" fill="#000000" fill-rule="nonzero" fill-opacity="1" /><path clip-path="url(#clip030)" d="M361.02 1454.1 Q357.409 1454.1 355.58 1457.66 Q353.775 1461.2 353.775 1468.33 Q353.775 1475.44 355.58 1479.01 Q357.409 1482.55 361.02 1482.55 Q364.654 1482.55 366.46 1479.01 Q368.289 1475.44 368.289 1468.33 Q368.289 1461.2 366.46 1457.66 Q364.654 1454.1 361.02 1454.1 M361.02 1450.39 Q366.83 1450.39 369.886 1455 Q372.964 1459.58 372.964 1468.33 Q372.964 1477.06 369.886 1481.67 Q366.83 1486.25 361.02 1486.25 Q355.21 1486.25 352.131 1481.67 Q349.076 1477.06 349.076 1468.33 Q349.076 1459.58 352.131 1455 Q355.21 1450.39 361.02 1450.39 Z" fill="#000000" fill-rule="nonzero" fill-opacity="1" /><path clip-path="url(#clip030)" d="M719.458 1454.1 Q715.847 1454.1 714.018 1457.66 Q712.212 1461.2 712.212 1468.33 Q712.212 1475.44 714.018 1479.01 Q715.847 1482.55 719.458 1482.55 Q723.092 1482.55 724.897 1479.01 Q726.726 1475.44 726.726 1468.33 Q726.726 1461.2 724.897 1457.66 Q723.092 1454.1 719.458 1454.1 M719.458 1450.39 Q725.268 1450.39 728.323 1455 Q731.402 1459.58 731.402 1468.33 Q731.402 1477.06 728.323 1481.67 Q725.268 1486.25 719.458 1486.25 Q713.648 1486.25 710.569 1481.67 Q707.513 1477.06 707.513 1468.33 Q707.513 1459.58 710.569 1455 Q713.648 1450.39 719.458 1450.39 Z" fill="#000000" fill-rule="nonzero" fill-opacity="1" /><path clip-path="url(#clip030)" d="M739.62 1479.7 L744.504 1479.7 L744.504 1485.58 L739.62 1485.58 L739.62 1479.7 Z" fill="#000000" fill-rule="nonzero" fill-opacity="1" /><path clip-path="url(#clip030)" d="M758.717 1481.64 L775.036 1481.64 L775.036 1485.58 L753.092 1485.58 L753.092 1481.64 Q755.754 1478.89 760.337 1474.26 Q764.944 1469.61 766.124 1468.27 Q768.369 1465.74 769.249 1464.01 Q770.152 1462.25 770.152 1460.56 Q770.152 1457.8 768.207 1456.07 Q766.286 1454.33 763.184 1454.33 Q760.985 1454.33 758.532 1455.09 Q756.101 1455.86 753.323 1457.41 L753.323 1452.69 Q756.147 1451.55 758.601 1450.97 Q761.055 1450.39 763.092 1450.39 Q768.462 1450.39 771.656 1453.08 Q774.851 1455.77 774.851 1460.26 Q774.851 1462.39 774.041 1464.31 Q773.254 1466.2 771.147 1468.8 Q770.569 1469.47 767.467 1472.69 Q764.365 1475.88 758.717 1481.64 Z" fill="#000000" fill-rule="nonzero" fill-opacity="1" /><path clip-path="url(#clip030)" d="M1121.29 1454.1 Q1117.68 1454.1 1115.85 1457.66 Q1114.04 1461.2 1114.04 1468.33 Q1114.04 1475.44 1115.85 1479.01 Q1117.68 1482.55 1121.29 1482.55 Q1124.92 1482.55 1126.73 1479.01 Q1128.55 1475.44 1128.55 1468.33 Q1128.55 1461.2 1126.73 1457.66 Q1124.92 1454.1 1121.29 1454.1 M1121.29 1450.39 Q1127.1 1450.39 1130.15 1455 Q1133.23 1459.58 1133.23 1468.33 Q1133.23 1477.06 1130.15 1481.67 Q1127.1 1486.25 1121.29 1486.25 Q1115.48 1486.25 1112.4 1481.67 Q1109.34 1477.06 1109.34 1468.33 Q1109.34 1459.58 1112.4 1455 Q1115.48 1450.39 1121.29 1450.39 Z" fill="#000000" fill-rule="nonzero" fill-opacity="1" /><path clip-path="url(#clip030)" d="M1141.45 1479.7 L1146.33 1479.7 L1146.33 1485.58 L1141.45 1485.58 L1141.45 1479.7 Z" fill="#000000" fill-rule="nonzero" fill-opacity="1" /><path clip-path="url(#clip030)" d="M1169.36 1455.09 L1157.56 1473.54 L1169.36 1473.54 L1169.36 1455.09 M1168.14 1451.02 L1174.02 1451.02 L1174.02 1473.54 L1178.95 1473.54 L1178.95 1477.43 L1174.02 1477.43 L1174.02 1485.58 L1169.36 1485.58 L1169.36 1477.43 L1153.76 1477.43 L1153.76 1472.92 L1168.14 1451.02 Z" fill="#000000" fill-rule="nonzero" fill-opacity="1" /><path clip-path="url(#clip030)" d="M1524.32 1454.1 Q1520.71 1454.1 1518.88 1457.66 Q1517.07 1461.2 1517.07 1468.33 Q1517.07 1475.44 1518.88 1479.01 Q1520.71 1482.55 1524.32 1482.55 Q1527.95 1482.55 1529.76 1479.01 Q1531.59 1475.44 1531.59 1468.33 Q1531.59 1461.2 1529.76 1457.66 Q1527.95 1454.1 1524.32 1454.1 M1524.32 1450.39 Q1530.13 1450.39 1533.18 1455 Q1536.26 1459.58 1536.26 1468.33 Q1536.26 1477.06 1533.18 1481.67 Q1530.13 1486.25 1524.32 1486.25 Q1518.51 1486.25 1515.43 1481.67 Q1512.37 1477.06 1512.37 1468.33 Q1512.37 1459.58 1515.43 1455 Q1518.51 1450.39 1524.32 1450.39 Z" fill="#000000" fill-rule="nonzero" fill-opacity="1" /><path clip-path="url(#clip030)" d="M1544.48 1479.7 L1549.36 1479.7 L1549.36 1485.58 L1544.48 1485.58 L1544.48 1479.7 Z" fill="#000000" fill-rule="nonzero" fill-opacity="1" /><path clip-path="url(#clip030)" d="M1570.13 1466.44 Q1566.98 1466.44 1565.13 1468.59 Q1563.3 1470.74 1563.3 1474.49 Q1563.3 1478.22 1565.13 1480.39 Q1566.98 1482.55 1570.13 1482.55 Q1573.28 1482.55 1575.11 1480.39 Q1576.96 1478.22 1576.96 1474.49 Q1576.96 1470.74 1575.11 1468.59 Q1573.28 1466.44 1570.13 1466.44 M1579.41 1451.78 L1579.41 1456.04 Q1577.65 1455.21 1575.85 1454.77 Q1574.06 1454.33 1572.3 1454.33 Q1567.67 1454.33 1565.22 1457.45 Q1562.79 1460.58 1562.44 1466.9 Q1563.81 1464.89 1565.87 1463.82 Q1567.93 1462.73 1570.41 1462.73 Q1575.61 1462.73 1578.62 1465.9 Q1581.66 1469.05 1581.66 1474.49 Q1581.66 1479.82 1578.51 1483.03 Q1575.36 1486.25 1570.13 1486.25 Q1564.13 1486.25 1560.96 1481.67 Q1557.79 1477.06 1557.79 1468.33 Q1557.79 1460.14 1561.68 1455.28 Q1565.57 1450.39 1572.12 1450.39 Q1573.88 1450.39 1575.66 1450.74 Q1577.47 1451.09 1579.41 1451.78 Z" fill="#000000" fill-rule="nonzero" fill-opacity="1" /><path clip-path="url(#clip030)" d="M1927.32 1454.1 Q1923.71 1454.1 1921.88 1457.66 Q1920.07 1461.2 1920.07 1468.33 Q1920.07 1475.44 1921.88 1479.01 Q1923.71 1482.55 1927.32 1482.55 Q1930.95 1482.55 1932.76 1479.01 Q1934.58 1475.44 1934.58 1468.33 Q1934.58 1461.2 1932.76 1457.66 Q1930.95 1454.1 1927.32 1454.1 M1927.32 1450.39 Q1933.13 1450.39 1936.18 1455 Q1939.26 1459.58 1939.26 1468.33 Q1939.26 1477.06 1936.18 1481.67 Q1933.13 1486.25 1927.32 1486.25 Q1921.51 1486.25 1918.43 1481.67 Q1915.37 1477.06 1915.37 1468.33 Q1915.37 1459.58 1918.43 1455 Q1921.51 1450.39 1927.32 1450.39 Z" fill="#000000" fill-rule="nonzero" fill-opacity="1" /><path clip-path="url(#clip030)" d="M1947.48 1479.7 L1952.36 1479.7 L1952.36 1485.58 L1947.48 1485.58 L1947.48 1479.7 Z" fill="#000000" fill-rule="nonzero" fill-opacity="1" /><path clip-path="url(#clip030)" d="M1972.55 1469.17 Q1969.21 1469.17 1967.29 1470.95 Q1965.39 1472.73 1965.39 1475.86 Q1965.39 1478.98 1967.29 1480.77 Q1969.21 1482.55 1972.55 1482.55 Q1975.88 1482.55 1977.8 1480.77 Q1979.72 1478.96 1979.72 1475.86 Q1979.72 1472.73 1977.8 1470.95 Q1975.9 1469.17 1972.55 1469.17 M1967.87 1467.18 Q1964.86 1466.44 1963.17 1464.38 Q1961.51 1462.32 1961.51 1459.35 Q1961.51 1455.21 1964.45 1452.8 Q1967.41 1450.39 1972.55 1450.39 Q1977.71 1450.39 1980.65 1452.8 Q1983.59 1455.21 1983.59 1459.35 Q1983.59 1462.32 1981.9 1464.38 Q1980.23 1466.44 1977.25 1467.18 Q1980.63 1467.96 1982.5 1470.26 Q1984.4 1472.55 1984.4 1475.86 Q1984.4 1480.88 1981.32 1483.57 Q1978.27 1486.25 1972.55 1486.25 Q1966.83 1486.25 1963.75 1483.57 Q1960.7 1480.88 1960.7 1475.86 Q1960.7 1472.55 1962.59 1470.26 Q1964.49 1467.96 1967.87 1467.18 M1966.16 1459.79 Q1966.16 1462.48 1967.83 1463.98 Q1969.52 1465.49 1972.55 1465.49 Q1975.56 1465.49 1977.25 1463.98 Q1978.96 1462.48 1978.96 1459.79 Q1978.96 1457.11 1977.25 1455.6 Q1975.56 1454.1 1972.55 1454.1 Q1969.52 1454.1 1967.83 1455.6 Q1966.16 1457.11 1966.16 1459.79 Z" fill="#000000" fill-rule="nonzero" fill-opacity="1" /><path clip-path="url(#clip030)" d="M2319.91 1481.64 L2327.55 1481.64 L2327.55 1455.28 L2319.24 1456.95 L2319.24 1452.69 L2327.5 1451.02 L2332.18 1451.02 L2332.18 1481.64 L2339.82 1481.64 L2339.82 1485.58 L2319.91 1485.58 L2319.91 1481.64 Z" fill="#000000" fill-rule="nonzero" fill-opacity="1" /><path clip-path="url(#clip030)" d="M2349.26 1479.7 L2354.14 1479.7 L2354.14 1485.58 L2349.26 1485.58 L2349.26 1479.7 Z" fill="#000000" fill-rule="nonzero" fill-opacity="1" /><path clip-path="url(#clip030)" d="M2374.33 1454.1 Q2370.72 1454.1 2368.89 1457.66 Q2367.08 1461.2 2367.08 1468.33 Q2367.08 1475.44 2368.89 1479.01 Q2370.72 1482.55 2374.33 1482.55 Q2377.96 1482.55 2379.77 1479.01 Q2381.6 1475.44 2381.6 1468.33 Q2381.6 1461.2 2379.77 1457.66 Q2377.96 1454.1 2374.33 1454.1 M2374.33 1450.39 Q2380.14 1450.39 2383.2 1455 Q2386.27 1459.58 2386.27 1468.33 Q2386.27 1477.06 2383.2 1481.67 Q2380.14 1486.25 2374.33 1486.25 Q2368.52 1486.25 2365.44 1481.67 Q2362.39 1477.06 2362.39 1468.33 Q2362.39 1459.58 2365.44 1455 Q2368.52 1450.39 2374.33 1450.39 Z" fill="#000000" fill-rule="nonzero" fill-opacity="1" /><path clip-path="url(#clip030)" d="M1359.85 1528.53 Q1359.85 1533.3 1357.4 1537.78 Q1354.99 1542.25 1351.19 1544.96 Q1347.42 1547.66 1343.62 1547.66 Q1339.33 1547.66 1337.11 1543.22 Q1333.09 1559.35 1332.86 1559.77 Q1331.93 1561.16 1330.57 1561.16 Q1329.74 1561.16 1329.22 1560.64 Q1328.71 1560.16 1328.71 1559.39 Q1328.74 1559.13 1328.93 1558.32 L1335.37 1532.4 Q1336.85 1526.38 1341.33 1522.09 Q1345.84 1517.78 1350.67 1517.78 Q1354.5 1517.78 1357.18 1520.64 Q1359.85 1523.51 1359.85 1528.53 M1355.11 1525.7 Q1355.11 1522.48 1353.83 1520.87 Q1352.54 1519.23 1350.54 1519.23 Q1348.71 1519.23 1346.48 1520.71 Q1344.29 1522.19 1342.36 1525.47 Q1341.33 1527.37 1340.59 1529.72 Q1339.85 1532.08 1338.4 1537.87 Q1337.88 1540.19 1337.88 1540.32 Q1337.88 1540.58 1338.01 1541.16 Q1338.17 1541.74 1338.56 1542.64 Q1338.98 1543.51 1339.56 1544.28 Q1340.14 1545.05 1341.2 1545.63 Q1342.26 1546.18 1343.55 1546.18 Q1345.55 1546.18 1347.68 1544.57 Q1349.83 1542.93 1351.41 1539.93 Q1352.73 1537.52 1353.92 1532.98 Q1355.11 1528.4 1355.11 1525.7 Z" fill="#000000" fill-rule="nonzero" fill-opacity="1" /><polyline clip-path="url(#clip030)" style="stroke:#000000; stroke-linecap:round; stroke-linejoin:round; stroke-width:4; stroke-opacity:1; fill:none" points="338.404,1423.18 338.404,47.2441 "/>
<polyline clip-path="url(#clip030)" style="stroke:#000000; stroke-linecap:round; stroke-linejoin:round; stroke-width:4; stroke-opacity:1; fill:none" points="338.404,1385.29 357.302,1385.29 "/>
<polyline clip-path="url(#clip030)" style="stroke:#000000; stroke-linecap:round; stroke-linejoin:round; stroke-width:4; stroke-opacity:1; fill:none" points="338.404,1139.13 357.302,1139.13 "/>
<polyline clip-path="url(#clip030)" style="stroke:#000000; stroke-linecap:round; stroke-linejoin:round; stroke-width:4; stroke-opacity:1; fill:none" points="338.404,892.98 357.302,892.98 "/>
<polyline clip-path="url(#clip030)" style="stroke:#000000; stroke-linecap:round; stroke-linejoin:round; stroke-width:4; stroke-opacity:1; fill:none" points="338.404,646.826 357.302,646.826 "/>
<polyline clip-path="url(#clip030)" style="stroke:#000000; stroke-linecap:round; stroke-linejoin:round; stroke-width:4; stroke-opacity:1; fill:none" points="338.404,400.671 357.302,400.671 "/>
<polyline clip-path="url(#clip030)" style="stroke:#000000; stroke-linecap:round; stroke-linejoin:round; stroke-width:4; stroke-opacity:1; fill:none" points="338.404,154.517 357.302,154.517 "/>
<path clip-path="url(#clip030)" d="M290.46 1371.09 Q286.849 1371.09 285.02 1374.65 Q283.215 1378.19 283.215 1385.32 Q283.215 1392.43 285.02 1395.99 Q286.849 1399.54 290.46 1399.54 Q294.094 1399.54 295.9 1395.99 Q297.729 1392.43 297.729 1385.32 Q297.729 1378.19 295.9 1374.65 Q294.094 1371.09 290.46 1371.09 M290.46 1367.38 Q296.27 1367.38 299.326 1371.99 Q302.404 1376.57 302.404 1385.32 Q302.404 1394.05 299.326 1398.66 Q296.27 1403.24 290.46 1403.24 Q284.65 1403.24 281.571 1398.66 Q278.516 1394.05 278.516 1385.32 Q278.516 1376.57 281.571 1371.99 Q284.65 1367.38 290.46 1367.38 Z" fill="#000000" fill-rule="nonzero" fill-opacity="1" /><path clip-path="url(#clip030)" d="M117.825 1158.93 L125.464 1158.93 L125.464 1132.56 L117.154 1134.23 L117.154 1129.97 L125.418 1128.3 L130.093 1128.3 L130.093 1158.93 L137.732 1158.93 L137.732 1162.86 L117.825 1162.86 L117.825 1158.93 Z" fill="#000000" fill-rule="nonzero" fill-opacity="1" /><path clip-path="url(#clip030)" d="M147.177 1156.98 L152.061 1156.98 L152.061 1162.86 L147.177 1162.86 L147.177 1156.98 Z" fill="#000000" fill-rule="nonzero" fill-opacity="1" /><path clip-path="url(#clip030)" d="M172.246 1131.38 Q168.635 1131.38 166.806 1134.95 Q165.001 1138.49 165.001 1145.62 Q165.001 1152.72 166.806 1156.29 Q168.635 1159.83 172.246 1159.83 Q175.88 1159.83 177.686 1156.29 Q179.514 1152.72 179.514 1145.62 Q179.514 1138.49 177.686 1134.95 Q175.88 1131.38 172.246 1131.38 M172.246 1127.68 Q178.056 1127.68 181.112 1132.28 Q184.19 1136.87 184.19 1145.62 Q184.19 1154.34 181.112 1158.95 Q178.056 1163.53 172.246 1163.53 Q166.436 1163.53 163.357 1158.95 Q160.302 1154.34 160.302 1145.62 Q160.302 1136.87 163.357 1132.28 Q166.436 1127.68 172.246 1127.68 Z" fill="#000000" fill-rule="nonzero" fill-opacity="1" /><path clip-path="url(#clip030)" d="M220.579 1137.4 L210 1148.02 L220.579 1158.6 L217.824 1161.4 L207.199 1150.78 L196.575 1161.4 L193.843 1158.6 L204.399 1148.02 L193.843 1137.4 L196.575 1134.6 L207.199 1145.22 L217.824 1134.6 L220.579 1137.4 Z" fill="#000000" fill-rule="nonzero" fill-opacity="1" /><path clip-path="url(#clip030)" d="M232.94 1158.93 L240.579 1158.93 L240.579 1132.56 L232.269 1134.23 L232.269 1129.97 L240.533 1128.3 L245.209 1128.3 L245.209 1158.93 L252.847 1158.93 L252.847 1162.86 L232.94 1162.86 L232.94 1158.93 Z" fill="#000000" fill-rule="nonzero" fill-opacity="1" /><path clip-path="url(#clip030)" d="M272.292 1131.38 Q268.681 1131.38 266.852 1134.95 Q265.046 1138.49 265.046 1145.62 Q265.046 1152.72 266.852 1156.29 Q268.681 1159.83 272.292 1159.83 Q275.926 1159.83 277.732 1156.29 Q279.56 1152.72 279.56 1145.62 Q279.56 1138.49 277.732 1134.95 Q275.926 1131.38 272.292 1131.38 M272.292 1127.68 Q278.102 1127.68 281.157 1132.28 Q284.236 1136.87 284.236 1145.62 Q284.236 1154.34 281.157 1158.95 Q278.102 1163.53 272.292 1163.53 Q266.482 1163.53 263.403 1158.95 Q260.347 1154.34 260.347 1145.62 Q260.347 1136.87 263.403 1132.28 Q266.482 1127.68 272.292 1127.68 Z" fill="#000000" fill-rule="nonzero" fill-opacity="1" /><path clip-path="url(#clip030)" d="M285.421 1107.37 L300.336 1107.37 L300.336 1110.57 L288.9 1110.57 L288.9 1117.45 Q289.728 1117.17 290.556 1117.04 Q291.383 1116.89 292.211 1116.89 Q296.913 1116.89 299.658 1119.46 Q302.404 1122.04 302.404 1126.44 Q302.404 1130.98 299.583 1133.5 Q296.762 1136 291.628 1136 Q289.86 1136 288.016 1135.7 Q286.192 1135.4 284.236 1134.79 L284.236 1130.98 Q285.929 1131.9 287.734 1132.35 Q289.54 1132.8 291.552 1132.8 Q294.806 1132.8 296.706 1131.09 Q298.605 1129.38 298.605 1126.44 Q298.605 1123.51 296.706 1121.8 Q294.806 1120.09 291.552 1120.09 Q290.029 1120.09 288.505 1120.42 Q287.001 1120.76 285.421 1121.48 L285.421 1107.37 Z" fill="#000000" fill-rule="nonzero" fill-opacity="1" /><path clip-path="url(#clip030)" d="M121.043 912.772 L137.362 912.772 L137.362 916.708 L115.418 916.708 L115.418 912.772 Q118.08 910.018 122.663 905.388 Q127.269 900.736 128.45 899.393 Q130.695 896.87 131.575 895.134 Q132.478 893.374 132.478 891.685 Q132.478 888.93 130.533 887.194 Q128.612 885.458 125.51 885.458 Q123.311 885.458 120.857 886.222 Q118.427 886.986 115.649 888.537 L115.649 883.814 Q118.473 882.68 120.927 882.101 Q123.38 881.523 125.418 881.523 Q130.788 881.523 133.982 884.208 Q137.177 886.893 137.177 891.384 Q137.177 893.513 136.367 895.435 Q135.579 897.333 133.473 899.925 Q132.894 900.597 129.792 903.814 Q126.691 907.009 121.043 912.772 Z" fill="#000000" fill-rule="nonzero" fill-opacity="1" /><path clip-path="url(#clip030)" d="M147.177 910.828 L152.061 910.828 L152.061 916.708 L147.177 916.708 L147.177 910.828 Z" fill="#000000" fill-rule="nonzero" fill-opacity="1" /><path clip-path="url(#clip030)" d="M172.246 885.226 Q168.635 885.226 166.806 888.791 Q165.001 892.333 165.001 899.462 Q165.001 906.569 166.806 910.134 Q168.635 913.675 172.246 913.675 Q175.88 913.675 177.686 910.134 Q179.514 906.569 179.514 899.462 Q179.514 892.333 177.686 888.791 Q175.88 885.226 172.246 885.226 M172.246 881.523 Q178.056 881.523 181.112 886.129 Q184.19 890.712 184.19 899.462 Q184.19 908.189 181.112 912.796 Q178.056 917.379 172.246 917.379 Q166.436 917.379 163.357 912.796 Q160.302 908.189 160.302 899.462 Q160.302 890.712 163.357 886.129 Q166.436 881.523 172.246 881.523 Z" fill="#000000" fill-rule="nonzero" fill-opacity="1" /><path clip-path="url(#clip030)" d="M220.579 891.245 L210 901.87 L220.579 912.448 L217.824 915.249 L207.199 904.624 L196.575 915.249 L193.843 912.448 L204.399 901.87 L193.843 891.245 L196.575 888.444 L207.199 899.069 L217.824 888.444 L220.579 891.245 Z" fill="#000000" fill-rule="nonzero" fill-opacity="1" /><path clip-path="url(#clip030)" d="M232.94 912.772 L240.579 912.772 L240.579 886.407 L232.269 888.074 L232.269 883.814 L240.533 882.148 L245.209 882.148 L245.209 912.772 L252.847 912.772 L252.847 916.708 L232.94 916.708 L232.94 912.772 Z" fill="#000000" fill-rule="nonzero" fill-opacity="1" /><path clip-path="url(#clip030)" d="M272.292 885.226 Q268.681 885.226 266.852 888.791 Q265.046 892.333 265.046 899.462 Q265.046 906.569 266.852 910.134 Q268.681 913.675 272.292 913.675 Q275.926 913.675 277.732 910.134 Q279.56 906.569 279.56 899.462 Q279.56 892.333 277.732 888.791 Q275.926 885.226 272.292 885.226 M272.292 881.523 Q278.102 881.523 281.157 886.129 Q284.236 890.712 284.236 899.462 Q284.236 908.189 281.157 912.796 Q278.102 917.379 272.292 917.379 Q266.482 917.379 263.403 912.796 Q260.347 908.189 260.347 899.462 Q260.347 890.712 263.403 886.129 Q266.482 881.523 272.292 881.523 Z" fill="#000000" fill-rule="nonzero" fill-opacity="1" /><path clip-path="url(#clip030)" d="M285.421 861.217 L300.336 861.217 L300.336 864.415 L288.9 864.415 L288.9 871.298 Q289.728 871.016 290.556 870.884 Q291.383 870.734 292.211 870.734 Q296.913 870.734 299.658 873.311 Q302.404 875.887 302.404 880.288 Q302.404 884.821 299.583 887.341 Q296.762 889.843 291.628 889.843 Q289.86 889.843 288.016 889.542 Q286.192 889.241 284.236 888.639 L284.236 884.821 Q285.929 885.743 287.734 886.194 Q289.54 886.645 291.552 886.645 Q294.806 886.645 296.706 884.934 Q298.605 883.222 298.605 880.288 Q298.605 877.354 296.706 875.643 Q294.806 873.931 291.552 873.931 Q290.029 873.931 288.505 874.27 Q287.001 874.608 285.421 875.323 L285.421 861.217 Z" fill="#000000" fill-rule="nonzero" fill-opacity="1" /><path clip-path="url(#clip030)" d="M131.181 651.919 Q134.538 652.637 136.413 654.905 Q138.311 657.174 138.311 660.507 Q138.311 665.623 134.792 668.424 Q131.274 671.225 124.793 671.225 Q122.617 671.225 120.302 670.785 Q118.01 670.368 115.556 669.512 L115.556 664.998 Q117.501 666.132 119.816 666.711 Q122.13 667.289 124.654 667.289 Q129.052 667.289 131.343 665.553 Q133.658 663.817 133.658 660.507 Q133.658 657.452 131.505 655.739 Q129.376 654.002 125.556 654.002 L121.529 654.002 L121.529 650.16 L125.742 650.16 Q129.191 650.16 131.019 648.794 Q132.848 647.405 132.848 644.813 Q132.848 642.151 130.95 640.739 Q129.075 639.303 125.556 639.303 Q123.635 639.303 121.436 639.72 Q119.237 640.137 116.598 641.016 L116.598 636.85 Q119.26 636.109 121.575 635.739 Q123.913 635.368 125.973 635.368 Q131.297 635.368 134.399 637.799 Q137.501 640.206 137.501 644.327 Q137.501 647.197 135.857 649.188 Q134.214 651.155 131.181 651.919 Z" fill="#000000" fill-rule="nonzero" fill-opacity="1" /><path clip-path="url(#clip030)" d="M147.177 664.674 L152.061 664.674 L152.061 670.553 L147.177 670.553 L147.177 664.674 Z" fill="#000000" fill-rule="nonzero" fill-opacity="1" /><path clip-path="url(#clip030)" d="M172.246 639.072 Q168.635 639.072 166.806 642.637 Q165.001 646.178 165.001 653.308 Q165.001 660.414 166.806 663.979 Q168.635 667.521 172.246 667.521 Q175.88 667.521 177.686 663.979 Q179.514 660.414 179.514 653.308 Q179.514 646.178 177.686 642.637 Q175.88 639.072 172.246 639.072 M172.246 635.368 Q178.056 635.368 181.112 639.975 Q184.19 644.558 184.19 653.308 Q184.19 662.035 181.112 666.641 Q178.056 671.225 172.246 671.225 Q166.436 671.225 163.357 666.641 Q160.302 662.035 160.302 653.308 Q160.302 644.558 163.357 639.975 Q166.436 635.368 172.246 635.368 Z" fill="#000000" fill-rule="nonzero" fill-opacity="1" /><path clip-path="url(#clip030)" d="M220.579 645.09 L210 655.715 L220.579 666.294 L217.824 669.095 L207.199 658.47 L196.575 669.095 L193.843 666.294 L204.399 655.715 L193.843 645.09 L196.575 642.29 L207.199 652.915 L217.824 642.29 L220.579 645.09 Z" fill="#000000" fill-rule="nonzero" fill-opacity="1" /><path clip-path="url(#clip030)" d="M232.94 666.618 L240.579 666.618 L240.579 640.253 L232.269 641.919 L232.269 637.66 L240.533 635.993 L245.209 635.993 L245.209 666.618 L252.847 666.618 L252.847 670.553 L232.94 670.553 L232.94 666.618 Z" fill="#000000" fill-rule="nonzero" fill-opacity="1" /><path clip-path="url(#clip030)" d="M272.292 639.072 Q268.681 639.072 266.852 642.637 Q265.046 646.178 265.046 653.308 Q265.046 660.414 266.852 663.979 Q268.681 667.521 272.292 667.521 Q275.926 667.521 277.732 663.979 Q279.56 660.414 279.56 653.308 Q279.56 646.178 277.732 642.637 Q275.926 639.072 272.292 639.072 M272.292 635.368 Q278.102 635.368 281.157 639.975 Q284.236 644.558 284.236 653.308 Q284.236 662.035 281.157 666.641 Q278.102 671.225 272.292 671.225 Q266.482 671.225 263.403 666.641 Q260.347 662.035 260.347 653.308 Q260.347 644.558 263.403 639.975 Q266.482 635.368 272.292 635.368 Z" fill="#000000" fill-rule="nonzero" fill-opacity="1" /><path clip-path="url(#clip030)" d="M285.421 615.063 L300.336 615.063 L300.336 618.26 L288.9 618.26 L288.9 625.144 Q289.728 624.862 290.556 624.73 Q291.383 624.58 292.211 624.58 Q296.913 624.58 299.658 627.156 Q302.404 629.733 302.404 634.134 Q302.404 638.667 299.583 641.187 Q296.762 643.688 291.628 643.688 Q289.86 643.688 288.016 643.387 Q286.192 643.086 284.236 642.485 L284.236 638.667 Q285.929 639.588 287.734 640.04 Q289.54 640.491 291.552 640.491 Q294.806 640.491 296.706 638.78 Q298.605 637.068 298.605 634.134 Q298.605 631.2 296.706 629.488 Q294.806 627.777 291.552 627.777 Q290.029 627.777 288.505 628.116 Q287.001 628.454 285.421 629.169 L285.421 615.063 Z" fill="#000000" fill-rule="nonzero" fill-opacity="1" /><path clip-path="url(#clip030)" d="M129.862 393.913 L118.056 412.362 L129.862 412.362 L129.862 393.913 M128.635 389.839 L134.515 389.839 L134.515 412.362 L139.445 412.362 L139.445 416.251 L134.515 416.251 L134.515 424.399 L129.862 424.399 L129.862 416.251 L114.26 416.251 L114.26 411.737 L128.635 389.839 Z" fill="#000000" fill-rule="nonzero" fill-opacity="1" /><path clip-path="url(#clip030)" d="M147.177 418.519 L152.061 418.519 L152.061 424.399 L147.177 424.399 L147.177 418.519 Z" fill="#000000" fill-rule="nonzero" fill-opacity="1" /><path clip-path="url(#clip030)" d="M172.246 392.918 Q168.635 392.918 166.806 396.482 Q165.001 400.024 165.001 407.154 Q165.001 414.26 166.806 417.825 Q168.635 421.367 172.246 421.367 Q175.88 421.367 177.686 417.825 Q179.514 414.26 179.514 407.154 Q179.514 400.024 177.686 396.482 Q175.88 392.918 172.246 392.918 M172.246 389.214 Q178.056 389.214 181.112 393.82 Q184.19 398.404 184.19 407.154 Q184.19 415.881 181.112 420.487 Q178.056 425.07 172.246 425.07 Q166.436 425.07 163.357 420.487 Q160.302 415.881 160.302 407.154 Q160.302 398.404 163.357 393.82 Q166.436 389.214 172.246 389.214 Z" fill="#000000" fill-rule="nonzero" fill-opacity="1" /><path clip-path="url(#clip030)" d="M220.579 398.936 L210 409.561 L220.579 420.14 L217.824 422.941 L207.199 412.316 L196.575 422.941 L193.843 420.14 L204.399 409.561 L193.843 398.936 L196.575 396.135 L207.199 406.76 L217.824 396.135 L220.579 398.936 Z" fill="#000000" fill-rule="nonzero" fill-opacity="1" /><path clip-path="url(#clip030)" d="M232.94 420.464 L240.579 420.464 L240.579 394.098 L232.269 395.765 L232.269 391.506 L240.533 389.839 L245.209 389.839 L245.209 420.464 L252.847 420.464 L252.847 424.399 L232.94 424.399 L232.94 420.464 Z" fill="#000000" fill-rule="nonzero" fill-opacity="1" /><path clip-path="url(#clip030)" d="M272.292 392.918 Q268.681 392.918 266.852 396.482 Q265.046 400.024 265.046 407.154 Q265.046 414.26 266.852 417.825 Q268.681 421.367 272.292 421.367 Q275.926 421.367 277.732 417.825 Q279.56 414.26 279.56 407.154 Q279.56 400.024 277.732 396.482 Q275.926 392.918 272.292 392.918 M272.292 389.214 Q278.102 389.214 281.157 393.82 Q284.236 398.404 284.236 407.154 Q284.236 415.881 281.157 420.487 Q278.102 425.07 272.292 425.07 Q266.482 425.07 263.403 420.487 Q260.347 415.881 260.347 407.154 Q260.347 398.404 263.403 393.82 Q266.482 389.214 272.292 389.214 Z" fill="#000000" fill-rule="nonzero" fill-opacity="1" /><path clip-path="url(#clip030)" d="M285.421 368.909 L300.336 368.909 L300.336 372.106 L288.9 372.106 L288.9 378.99 Q289.728 378.707 290.556 378.576 Q291.383 378.425 292.211 378.425 Q296.913 378.425 299.658 381.002 Q302.404 383.579 302.404 387.98 Q302.404 392.512 299.583 395.033 Q296.762 397.534 291.628 397.534 Q289.86 397.534 288.016 397.233 Q286.192 396.932 284.236 396.33 L284.236 392.512 Q285.929 393.434 287.734 393.885 Q289.54 394.337 291.552 394.337 Q294.806 394.337 296.706 392.625 Q298.605 390.914 298.605 387.98 Q298.605 385.046 296.706 383.334 Q294.806 381.623 291.552 381.623 Q290.029 381.623 288.505 381.961 Q287.001 382.3 285.421 383.014 L285.421 368.909 Z" fill="#000000" fill-rule="nonzero" fill-opacity="1" /><path clip-path="url(#clip030)" d="M117.061 143.685 L135.417 143.685 L135.417 147.62 L121.343 147.62 L121.343 156.092 Q122.362 155.745 123.38 155.583 Q124.399 155.398 125.418 155.398 Q131.205 155.398 134.584 158.569 Q137.964 161.74 137.964 167.157 Q137.964 172.735 134.492 175.837 Q131.019 178.916 124.7 178.916 Q122.524 178.916 120.255 178.546 Q118.01 178.175 115.603 177.434 L115.603 172.735 Q117.686 173.87 119.908 174.425 Q122.13 174.981 124.607 174.981 Q128.612 174.981 130.95 172.874 Q133.288 170.768 133.288 167.157 Q133.288 163.546 130.95 161.439 Q128.612 159.333 124.607 159.333 Q122.732 159.333 120.857 159.749 Q119.006 160.166 117.061 161.046 L117.061 143.685 Z" fill="#000000" fill-rule="nonzero" fill-opacity="1" /><path clip-path="url(#clip030)" d="M147.177 172.365 L152.061 172.365 L152.061 178.245 L147.177 178.245 L147.177 172.365 Z" fill="#000000" fill-rule="nonzero" fill-opacity="1" /><path clip-path="url(#clip030)" d="M172.246 146.763 Q168.635 146.763 166.806 150.328 Q165.001 153.87 165.001 160.999 Q165.001 168.106 166.806 171.671 Q168.635 175.212 172.246 175.212 Q175.88 175.212 177.686 171.671 Q179.514 168.106 179.514 160.999 Q179.514 153.87 177.686 150.328 Q175.88 146.763 172.246 146.763 M172.246 143.06 Q178.056 143.06 181.112 147.666 Q184.19 152.249 184.19 160.999 Q184.19 169.726 181.112 174.333 Q178.056 178.916 172.246 178.916 Q166.436 178.916 163.357 174.333 Q160.302 169.726 160.302 160.999 Q160.302 152.249 163.357 147.666 Q166.436 143.06 172.246 143.06 Z" fill="#000000" fill-rule="nonzero" fill-opacity="1" /><path clip-path="url(#clip030)" d="M220.579 152.782 L210 163.407 L220.579 173.985 L217.824 176.786 L207.199 166.161 L196.575 176.786 L193.843 173.985 L204.399 163.407 L193.843 152.782 L196.575 149.981 L207.199 160.606 L217.824 149.981 L220.579 152.782 Z" fill="#000000" fill-rule="nonzero" fill-opacity="1" /><path clip-path="url(#clip030)" d="M232.94 174.309 L240.579 174.309 L240.579 147.944 L232.269 149.611 L232.269 145.351 L240.533 143.685 L245.209 143.685 L245.209 174.309 L252.847 174.309 L252.847 178.245 L232.94 178.245 L232.94 174.309 Z" fill="#000000" fill-rule="nonzero" fill-opacity="1" /><path clip-path="url(#clip030)" d="M272.292 146.763 Q268.681 146.763 266.852 150.328 Q265.046 153.87 265.046 160.999 Q265.046 168.106 266.852 171.671 Q268.681 175.212 272.292 175.212 Q275.926 175.212 277.732 171.671 Q279.56 168.106 279.56 160.999 Q279.56 153.87 277.732 150.328 Q275.926 146.763 272.292 146.763 M272.292 143.06 Q278.102 143.06 281.157 147.666 Q284.236 152.249 284.236 160.999 Q284.236 169.726 281.157 174.333 Q278.102 178.916 272.292 178.916 Q266.482 178.916 263.403 174.333 Q260.347 169.726 260.347 160.999 Q260.347 152.249 263.403 147.666 Q266.482 143.06 272.292 143.06 Z" fill="#000000" fill-rule="nonzero" fill-opacity="1" /><path clip-path="url(#clip030)" d="M285.421 122.754 L300.336 122.754 L300.336 125.952 L288.9 125.952 L288.9 132.835 Q289.728 132.553 290.556 132.421 Q291.383 132.271 292.211 132.271 Q296.913 132.271 299.658 134.848 Q302.404 137.424 302.404 141.825 Q302.404 146.358 299.583 148.878 Q296.762 151.38 291.628 151.38 Q289.86 151.38 288.016 151.079 Q286.192 150.778 284.236 150.176 L284.236 146.358 Q285.929 147.28 287.734 147.731 Q289.54 148.182 291.552 148.182 Q294.806 148.182 296.706 146.471 Q298.605 144.759 298.605 141.825 Q298.605 138.891 296.706 137.18 Q294.806 135.468 291.552 135.468 Q290.029 135.468 288.505 135.807 Q287.001 136.145 285.421 136.86 L285.421 122.754 Z" fill="#000000" fill-rule="nonzero" fill-opacity="1" /><path clip-path="url(#clip030)" d="M82.5735 784.322 L16.6159 784.322 L16.6159 774.37 L18.1296 774.37 L18.1296 779.91 L81.0598 779.91 L81.0598 774.37 L82.5735 774.37 L82.5735 784.322 Z" fill="#000000" fill-rule="nonzero" fill-opacity="1" /><path clip-path="url(#clip030)" d="M66.0841 766.172 L64.0551 766.172 L64.0551 764.594 Q64.0551 761.019 63.4754 760.214 Q62.8635 759.376 60.9312 759.376 L26.181 759.376 Q24.2809 759.376 23.7012 760.214 Q23.0893 761.051 23.0893 764.594 L23.0893 766.172 L21.0281 766.172 L21.0281 742.887 Q21.0281 736.22 24.6996 731.776 Q28.371 727.331 33.2985 727.331 Q38.1938 727.331 41.7365 731.872 Q45.2469 736.381 45.2469 742.372 L45.2469 753.515 L60.9312 753.515 Q62.8313 753.515 63.4432 752.71 Q64.0551 751.872 64.0551 748.297 L64.0551 746.719 L66.0841 746.719 Q65.8909 749.038 65.8909 756.478 Q65.8909 763.853 66.0841 766.172 M43.54 753.708 L43.54 744.626 Q43.54 741.663 42.7026 739.505 Q41.8653 737.347 40.8669 736.381 Q39.8363 735.383 38.1938 734.835 Q36.5191 734.256 35.6174 734.191 Q34.6834 734.127 33.2985 734.127 Q31.8493 734.127 30.9475 734.191 Q30.0135 734.256 28.371 734.835 Q26.6963 735.383 25.6979 736.381 Q24.6674 737.347 23.8944 739.505 Q23.0893 741.631 23.0893 744.626 L23.0893 750.487 Q23.0893 752.742 23.5402 753.225 Q23.991 753.708 25.7302 753.708 L43.54 753.708 Z" fill="#000000" fill-rule="nonzero" fill-opacity="1" /><path clip-path="url(#clip030)" d="M59.804 716.196 Q54.2001 716.196 51.2372 709.594 Q49.337 705.632 48.854 697.452 L46.4385 697.452 Q42.3484 697.452 40.1906 699.61 Q38.0006 701.736 38.0006 704.441 Q38.0006 709.272 41.0279 711.591 Q41.0923 709.626 42.0907 708.917 Q43.0569 708.209 44.0553 708.209 Q45.3757 708.209 46.2453 709.046 Q47.0826 709.851 47.0826 711.236 Q47.0826 712.557 46.2775 713.426 Q45.4401 714.296 43.9909 714.296 Q40.7703 714.296 38.6447 711.397 Q36.5191 708.467 36.5191 704.312 Q36.5191 698.901 40.1584 695.294 Q41.2856 694.167 42.7348 693.62 Q44.1841 693.04 45.1503 692.976 Q46.0843 692.911 47.9522 692.911 L61.1244 692.911 Q61.5109 692.911 62.155 692.782 Q62.7991 692.653 63.6364 692.074 Q64.4416 691.462 64.4416 690.463 Q64.4416 688.08 60.2226 688.112 L56.519 688.112 L56.519 686.438 L60.2226 686.438 Q63.7331 686.438 65.1179 688.306 Q66.4706 690.141 66.4706 691.848 Q66.4706 694.038 64.8603 695.423 Q63.25 696.808 61.06 697.001 Q63.572 698 65.2145 700.286 Q66.8248 702.541 66.8248 705.632 Q66.8248 708.016 66.2129 710.27 Q65.6332 712.492 63.9907 714.36 Q62.316 716.196 59.804 716.196 M59.7395 711.107 Q62.1872 711.107 63.7653 709.368 Q65.3434 707.629 65.3434 705.182 Q65.3434 702.412 63.2178 699.932 Q61.06 697.452 56.841 697.452 L50.2388 697.452 Q50.4965 704.763 53.4272 707.951 Q56.3257 711.107 59.7395 711.107 Z" fill="#000000" fill-rule="nonzero" fill-opacity="1" /><path clip-path="url(#clip030)" d="M81.0598 683.532 L81.0598 677.992 L18.1296 677.992 L18.1296 683.532 L16.6159 683.532 L16.6159 673.58 L82.5735 673.58 L82.5735 683.532 L81.0598 683.532 Z" fill="#000000" fill-rule="nonzero" fill-opacity="1" /><polyline clip-path="url(#clip032)" style="stroke:#009af9; stroke-linecap:round; stroke-linejoin:round; stroke-width:4; stroke-opacity:1; fill:none" points="338.404,86.1857 358.548,86.7927 378.691,88.6122 398.835,91.639 418.978,95.8647 439.122,101.277 459.265,107.862 479.409,115.6 499.553,124.47 519.696,134.448 539.84,145.506 559.983,157.615 580.127,170.74 600.27,184.847 620.414,199.899 640.557,215.855 660.701,232.673 680.844,250.31 700.988,268.721 721.131,287.858 741.275,307.674 761.418,328.12 781.562,349.145 801.705,370.7 821.849,392.733 841.992,415.194 862.136,438.03 882.279,461.191 902.423,484.627 922.566,508.286 942.71,532.12 962.853,555.558 982.997,578.092 1003.14,599.759 1023.28,620.597 1043.43,640.641 1063.57,659.926 1083.71,678.482 1103.86,696.341 1124,713.532 1144.15,730.081 1164.29,745.15 1184.43,757.971 1204.58,768.664 1224.72,777.325 1244.86,784.032 1265.01,788.841 1285.15,791.791 1305.29,792.902 1325.44,792.176 1345.58,789.599 1365.72,786.695 1385.87,785.033 1406.01,784.637 1426.15,785.522 1446.3,787.689 1466.44,791.13 1486.58,795.823 1506.73,801.735 1526.87,808.823 1547.02,817.033 1567.16,825.807 1587.3,834.623 1607.45,843.474 1627.59,852.355 1647.73,861.258 1667.88,870.179 1688.02,879.111 1708.16,888.049 1728.31,896.986 1748.45,905.917 1768.59,914.709 1788.74,923.239 1808.88,931.517 1829.02,939.553 1849.17,947.355 1869.31,954.932 1889.46,962.293 1909.6,969.446 1929.74,976.397 1949.89,983.154 1970.03,989.826 1990.17,996.523 2010.32,1003.44 2030.46,1010.89 2050.6,1019.28 2070.75,1029.21 2090.89,1041.5 2111.03,1057.16 2131.18,1077.34 2151.32,1102.56 2171.46,1134.11 2191.61,1171.9 2211.75,1214.24 2231.89,1257.57 2252.04,1297.43 2272.18,1330.12 2292.33,1353.98 2312.47,1369.62 2332.61,1378.99 2352.76,1384.24 "/>
<path clip-path="url(#clip030)" d="M1688.23 196.789 L2285.61 196.789 L2285.61 93.1086 L1688.23 93.1086  Z" fill="#ffffff" fill-rule="evenodd" fill-opacity="0.6"/>
<polyline clip-path="url(#clip030)" style="stroke:#000000; stroke-linecap:round; stroke-linejoin:round; stroke-width:4; stroke-opacity:1; fill:none" points="1688.23,196.789 2285.61,196.789 2285.61,93.1086 1688.23,93.1086 1688.23,196.789 "/>
<polyline clip-path="url(#clip030)" style="stroke:#009af9; stroke-linecap:round; stroke-linejoin:round; stroke-width:4; stroke-opacity:1; fill:none" points="1710.61,144.949 1844.9,144.949 "/>
<path clip-path="url(#clip030)" d="M1871.56 158.34 L1871.56 172.09 L1867.28 172.09 L1867.28 136.303 L1871.56 136.303 L1871.56 140.238 Q1872.91 137.923 1874.94 136.812 Q1877 135.678 1879.85 135.678 Q1884.57 135.678 1887.51 139.428 Q1890.48 143.178 1890.48 149.289 Q1890.48 155.4 1887.51 159.15 Q1884.57 162.9 1879.85 162.9 Q1877 162.9 1874.94 161.789 Q1872.91 160.655 1871.56 158.34 M1886.06 149.289 Q1886.06 144.59 1884.11 141.928 Q1882.19 139.243 1878.81 139.243 Q1875.43 139.243 1873.49 141.928 Q1871.56 144.59 1871.56 149.289 Q1871.56 153.988 1873.49 156.673 Q1875.43 159.335 1878.81 159.335 Q1882.19 159.335 1884.11 156.673 Q1886.06 153.988 1886.06 149.289 Z" fill="#000000" fill-rule="nonzero" fill-opacity="1" /><path clip-path="url(#clip030)" d="M1912.56 140.284 Q1911.84 139.868 1910.99 139.682 Q1910.15 139.474 1909.13 139.474 Q1905.52 139.474 1903.58 141.835 Q1901.66 144.173 1901.66 148.571 L1901.66 162.229 L1897.37 162.229 L1897.37 136.303 L1901.66 136.303 L1901.66 140.331 Q1903 137.969 1905.15 136.835 Q1907.31 135.678 1910.38 135.678 Q1910.82 135.678 1911.36 135.747 Q1911.89 135.794 1912.54 135.909 L1912.56 140.284 Z" fill="#000000" fill-rule="nonzero" fill-opacity="1" /><path clip-path="url(#clip030)" d="M1938.16 148.201 L1938.16 150.284 L1918.58 150.284 Q1918.86 154.682 1921.22 156.997 Q1923.6 159.289 1927.84 159.289 Q1930.29 159.289 1932.58 158.687 Q1934.9 158.085 1937.17 156.881 L1937.17 160.909 Q1934.87 161.881 1932.47 162.391 Q1930.06 162.9 1927.58 162.9 Q1921.38 162.9 1917.74 159.289 Q1914.13 155.678 1914.13 149.52 Q1914.13 143.155 1917.56 139.428 Q1921.01 135.678 1926.84 135.678 Q1932.07 135.678 1935.11 139.057 Q1938.16 142.414 1938.16 148.201 M1933.9 146.951 Q1933.86 143.456 1931.93 141.372 Q1930.04 139.289 1926.89 139.289 Q1923.32 139.289 1921.17 141.303 Q1919.04 143.317 1918.72 146.974 L1933.9 146.951 Z" fill="#000000" fill-rule="nonzero" fill-opacity="1" /><path clip-path="url(#clip030)" d="M1961.68 137.067 L1961.68 141.094 Q1959.87 140.169 1957.93 139.706 Q1955.99 139.243 1953.9 139.243 Q1950.73 139.243 1949.13 140.215 Q1947.56 141.187 1947.56 143.131 Q1947.56 144.613 1948.69 145.469 Q1949.83 146.303 1953.25 147.067 L1954.71 147.391 Q1959.25 148.363 1961.15 150.145 Q1963.07 151.905 1963.07 155.076 Q1963.07 158.687 1960.2 160.793 Q1957.35 162.9 1952.35 162.9 Q1950.27 162.9 1948 162.483 Q1945.75 162.09 1943.25 161.28 L1943.25 156.881 Q1945.62 158.108 1947.91 158.733 Q1950.2 159.335 1952.44 159.335 Q1955.45 159.335 1957.07 158.317 Q1958.69 157.275 1958.69 155.4 Q1958.69 153.664 1957.51 152.738 Q1956.36 151.812 1952.4 150.956 L1950.92 150.608 Q1946.96 149.775 1945.2 148.062 Q1943.44 146.326 1943.44 143.317 Q1943.44 139.659 1946.03 137.669 Q1948.62 135.678 1953.39 135.678 Q1955.75 135.678 1957.84 136.025 Q1959.92 136.372 1961.68 137.067 Z" fill="#000000" fill-rule="nonzero" fill-opacity="1" /><path clip-path="url(#clip030)" d="M1986.38 137.067 L1986.38 141.094 Q1984.57 140.169 1982.63 139.706 Q1980.68 139.243 1978.6 139.243 Q1975.43 139.243 1973.83 140.215 Q1972.26 141.187 1972.26 143.131 Q1972.26 144.613 1973.39 145.469 Q1974.53 146.303 1977.95 147.067 L1979.41 147.391 Q1983.95 148.363 1985.85 150.145 Q1987.77 151.905 1987.77 155.076 Q1987.77 158.687 1984.9 160.793 Q1982.05 162.9 1977.05 162.9 Q1974.97 162.9 1972.7 162.483 Q1970.45 162.09 1967.95 161.28 L1967.95 156.881 Q1970.31 158.108 1972.61 158.733 Q1974.9 159.335 1977.14 159.335 Q1980.15 159.335 1981.77 158.317 Q1983.39 157.275 1983.39 155.4 Q1983.39 153.664 1982.21 152.738 Q1981.05 151.812 1977.1 150.956 L1975.61 150.608 Q1971.66 149.775 1969.9 148.062 Q1968.14 146.326 1968.14 143.317 Q1968.14 139.659 1970.73 137.669 Q1973.32 135.678 1978.09 135.678 Q1980.45 135.678 1982.54 136.025 Q1984.62 136.372 1986.38 137.067 Z" fill="#000000" fill-rule="nonzero" fill-opacity="1" /><path clip-path="url(#clip030)" d="M1994.11 151.997 L1994.11 136.303 L1998.37 136.303 L1998.37 151.835 Q1998.37 155.516 1999.8 157.368 Q2001.24 159.196 2004.11 159.196 Q2007.56 159.196 2009.55 156.997 Q2011.56 154.798 2011.56 151.002 L2011.56 136.303 L2015.82 136.303 L2015.82 162.229 L2011.56 162.229 L2011.56 158.247 Q2010.01 160.608 2007.95 161.766 Q2005.92 162.9 2003.21 162.9 Q1998.74 162.9 1996.43 160.122 Q1994.11 157.344 1994.11 151.997 M2004.83 135.678 L2004.83 135.678 Z" fill="#000000" fill-rule="nonzero" fill-opacity="1" /><path clip-path="url(#clip030)" d="M2039.62 140.284 Q2038.9 139.868 2038.05 139.682 Q2037.21 139.474 2036.19 139.474 Q2032.58 139.474 2030.64 141.835 Q2028.72 144.173 2028.72 148.571 L2028.72 162.229 L2024.43 162.229 L2024.43 136.303 L2028.72 136.303 L2028.72 140.331 Q2030.06 137.969 2032.21 136.835 Q2034.36 135.678 2037.44 135.678 Q2037.88 135.678 2038.42 135.747 Q2038.95 135.794 2039.6 135.909 L2039.62 140.284 Z" fill="#000000" fill-rule="nonzero" fill-opacity="1" /><path clip-path="url(#clip030)" d="M2065.22 148.201 L2065.22 150.284 L2045.64 150.284 Q2045.92 154.682 2048.28 156.997 Q2050.66 159.289 2054.9 159.289 Q2057.35 159.289 2059.64 158.687 Q2061.96 158.085 2064.23 156.881 L2064.23 160.909 Q2061.93 161.881 2059.53 162.391 Q2057.12 162.9 2054.64 162.9 Q2048.44 162.9 2044.8 159.289 Q2041.19 155.678 2041.19 149.52 Q2041.19 143.155 2044.62 139.428 Q2048.07 135.678 2053.9 135.678 Q2059.13 135.678 2062.17 139.057 Q2065.22 142.414 2065.22 148.201 M2060.96 146.951 Q2060.92 143.456 2058.99 141.372 Q2057.1 139.289 2053.95 139.289 Q2050.38 139.289 2048.23 141.303 Q2046.1 143.317 2045.78 146.974 L2060.96 146.951 Z" fill="#000000" fill-rule="nonzero" fill-opacity="1" /><path clip-path="url(#clip030)" d="M2091.49 128.942 L2091.49 136.303 L2100.27 136.303 L2100.27 139.613 L2091.49 139.613 L2091.49 153.687 Q2091.49 156.858 2092.35 157.761 Q2093.23 158.664 2095.89 158.664 L2100.27 158.664 L2100.27 162.229 L2095.89 162.229 Q2090.96 162.229 2089.09 160.4 Q2087.21 158.548 2087.21 153.687 L2087.21 139.613 L2084.09 139.613 L2084.09 136.303 L2087.21 136.303 L2087.21 128.942 L2091.49 128.942 Z" fill="#000000" fill-rule="nonzero" fill-opacity="1" /><path clip-path="url(#clip030)" d="M2127.42 146.581 L2127.42 162.229 L2123.16 162.229 L2123.16 146.719 Q2123.16 143.039 2121.73 141.21 Q2120.29 139.382 2117.42 139.382 Q2113.97 139.382 2111.98 141.581 Q2109.99 143.78 2109.99 147.576 L2109.99 162.229 L2105.71 162.229 L2105.71 126.21 L2109.99 126.21 L2109.99 140.331 Q2111.52 137.993 2113.58 136.835 Q2115.66 135.678 2118.37 135.678 Q2122.84 135.678 2125.13 138.456 Q2127.42 141.21 2127.42 146.581 Z" fill="#000000" fill-rule="nonzero" fill-opacity="1" /><path clip-path="url(#clip030)" d="M2158.09 148.201 L2158.09 150.284 L2138.51 150.284 Q2138.79 154.682 2141.15 156.997 Q2143.53 159.289 2147.77 159.289 Q2150.22 159.289 2152.51 158.687 Q2154.83 158.085 2157.1 156.881 L2157.1 160.909 Q2154.8 161.881 2152.4 162.391 Q2149.99 162.9 2147.51 162.9 Q2141.31 162.9 2137.67 159.289 Q2134.06 155.678 2134.06 149.52 Q2134.06 143.155 2137.49 139.428 Q2140.94 135.678 2146.77 135.678 Q2152 135.678 2155.04 139.057 Q2158.09 142.414 2158.09 148.201 M2153.83 146.951 Q2153.79 143.456 2151.86 141.372 Q2149.97 139.289 2146.82 139.289 Q2143.25 139.289 2141.1 141.303 Q2138.97 143.317 2138.65 146.974 L2153.83 146.951 Z" fill="#000000" fill-rule="nonzero" fill-opacity="1" /><path clip-path="url(#clip030)" d="M2180.1 140.284 Q2179.39 139.868 2178.53 139.682 Q2177.7 139.474 2176.68 139.474 Q2173.07 139.474 2171.12 141.835 Q2169.2 144.173 2169.2 148.571 L2169.2 162.229 L2164.92 162.229 L2164.92 136.303 L2169.2 136.303 L2169.2 140.331 Q2170.54 137.969 2172.7 136.835 Q2174.85 135.678 2177.93 135.678 Q2178.37 135.678 2178.9 135.747 Q2179.43 135.794 2180.08 135.909 L2180.1 140.284 Z" fill="#000000" fill-rule="nonzero" fill-opacity="1" /><path clip-path="url(#clip030)" d="M2203.92 141.28 Q2205.52 138.409 2207.74 137.044 Q2209.97 135.678 2212.97 135.678 Q2217.03 135.678 2219.22 138.525 Q2221.42 141.349 2221.42 146.581 L2221.42 162.229 L2217.14 162.229 L2217.14 146.719 Q2217.14 142.993 2215.82 141.187 Q2214.5 139.382 2211.79 139.382 Q2208.48 139.382 2206.56 141.581 Q2204.64 143.78 2204.64 147.576 L2204.64 162.229 L2200.36 162.229 L2200.36 146.719 Q2200.36 142.969 2199.04 141.187 Q2197.72 139.382 2194.97 139.382 Q2191.7 139.382 2189.78 141.604 Q2187.86 143.803 2187.86 147.576 L2187.86 162.229 L2183.58 162.229 L2183.58 136.303 L2187.86 136.303 L2187.86 140.331 Q2189.32 137.946 2191.35 136.812 Q2193.39 135.678 2196.19 135.678 Q2199.02 135.678 2200.98 137.113 Q2202.97 138.548 2203.92 141.28 Z" fill="#000000" fill-rule="nonzero" fill-opacity="1" /><path clip-path="url(#clip030)" d="M2241.7 149.196 Q2236.54 149.196 2234.55 150.377 Q2232.56 151.557 2232.56 154.405 Q2232.56 156.673 2234.04 158.016 Q2235.54 159.335 2238.11 159.335 Q2241.66 159.335 2243.78 156.835 Q2245.94 154.312 2245.94 150.145 L2245.94 149.196 L2241.7 149.196 M2250.2 147.437 L2250.2 162.229 L2245.94 162.229 L2245.94 158.293 Q2244.48 160.655 2242.3 161.789 Q2240.13 162.9 2236.98 162.9 Q2233 162.9 2230.64 160.678 Q2228.3 158.432 2228.3 154.682 Q2228.3 150.307 2231.22 148.085 Q2234.16 145.863 2239.97 145.863 L2245.94 145.863 L2245.94 145.446 Q2245.94 142.507 2243.99 140.909 Q2242.07 139.289 2238.58 139.289 Q2236.35 139.289 2234.25 139.821 Q2232.14 140.354 2230.2 141.419 L2230.2 137.483 Q2232.53 136.581 2234.73 136.141 Q2236.93 135.678 2239.02 135.678 Q2244.64 135.678 2247.42 138.594 Q2250.2 141.511 2250.2 147.437 Z" fill="#000000" fill-rule="nonzero" fill-opacity="1" /><path clip-path="url(#clip030)" d="M2258.97 126.21 L2263.23 126.21 L2263.23 162.229 L2258.97 162.229 L2258.97 126.21 Z" fill="#000000" fill-rule="nonzero" fill-opacity="1" /></svg>
