<svg xmlns="http://www.w3.org/2000/svg" xmlns:xlink="http://www.w3.org/1999/xlink" xmlns:lucid="lucid" width="995.06" height="834.22"><g transform="translate(-64.89585702541407 29.474351851851907)" lucid:page-tab-id="0_0"><path d="M292 697.74a6 6 0 0 1 6-6h184a6 6 0 0 1 6 6v81a6 6 0 0 1-6 6H298a6 6 0 0 1-6-6z" stroke="#333" stroke-width="5" fill="#f1f1f1"/><use xlink:href="#a" transform="matrix(1,0,0,1,304,703.7430864197529) translate(86 23.604166666666668)"/><use xlink:href="#b" transform="matrix(1,0,0,1,304,703.7430864197529) translate(22.543209876543223 46.71527777777778)"/><path d="M267-3.47a6 6 0 0 1 6-6h760.95a6 6 0 0 1 6 6V566.6a6 6 0 0 1-6 6H273a6 6 0 0 1-6-6z" stroke="#5e5e5e" stroke-width="3" fill="#f1f1f1"/><path d="M267 46.53h772.95" stroke="#5e5e5e" stroke-width="3" fill="none"/><use xlink:href="#c" transform="matrix(1,0,0,1,291,6.525648148148093) translate(145.75925925925924 21.333333333333336)"/><use xlink:href="#d" transform="matrix(1,0,0,1,291,6.525648148148093) translate(224.12962962962962 21.333333333333336)"/><use xlink:href="#e" transform="matrix(1,0,0,1,291,6.525648148148093) translate(398.94444444444446 21.333333333333336)"/><path d="M488 78a6 6 0 0 1 6-6h523a6 6 0 0 1 6 6v469a6 6 0 0 1-6 6H494a6 6 0 0 1-6-6z" stroke="#5e5e5e" stroke-width="3" fill="#e2e2e2"/><path d="M488 128h535" stroke="#5e5e5e" stroke-width="3" fill="none"/><use xlink:href="#c" transform="matrix(1,0,0,1,512,88) translate(165.87037037037038 21.333333333333336)"/><use xlink:href="#f" transform="matrix(1,0,0,1,512,88) translate(244.24074074074076 21.333333333333336)"/><path d="M454.54 298.42c0 6.56-29.56 11.87-66.04 11.87-36.47 0-66.04-5.32-66.04-11.88v-95c0-6.57 29.57-11.88 66.04-11.88 36.48 0 66.04 5.3 66.04 11.87z" stroke="#e81313" stroke-width="5" fill="#fcb3b3"/><path d="M454.54 203.4c0 6.57-29.56 11.9-66.04 11.9-36.47 0-66.04-5.33-66.04-11.9" stroke="#e81313" stroke-width="5" fill="none"/><path d="M317.68 206.95a6 6 0 0 1 6-6h131.64a6 6 0 0 1 6 6v106a6 6 0 0 1-6 6H323.68a6 6 0 0 1-6-6z" fill="none"/><use xlink:href="#g" transform="matrix(1,0,0,1,329.6801851851853,212.9487037037037) translate(22.743658371913583 25.27777777777778)"/><use xlink:href="#h" transform="matrix(1,0,0,1,329.6801851851853,212.9487037037037) translate(68.92300829475309 25.27777777777778)"/><use xlink:href="#i" transform="matrix(1,0,0,1,329.6801851851853,212.9487037037037) translate(25.462962962962962 51.94444444444445)"/><use xlink:href="#j" transform="matrix(1,0,0,1,329.6801851851853,212.9487037037037) translate(0.18518518518517624 78.61111111111111)"/><path d="M942.4 266.3c0 6.55-29.55 11.87-66.03 11.87-36.47 0-66.04-5.32-66.04-11.87v-95c0-6.57 29.57-11.9 66.04-11.9 36.48 0 66.04 5.33 66.04 11.9z" stroke="#1071e5" stroke-width="5" fill="#bddbff"/><path d="M942.4 171.3c0 6.55-29.55 11.87-66.03 11.87-36.47 0-66.04-5.32-66.04-11.88" stroke="#1071e5" stroke-width="5" fill="none"/><path d="M804.55 197.54a6 6 0 0 1 6-6H942.2a6 6 0 0 1 6 6v65.34a6 6 0 0 1-6 6H810.54a6 6 0 0 1-6-6z" fill="none"/><use xlink:href="#k" transform="matrix(1,0,0,1,816.5523148148147,203.53512345679013) translate(3.638720100308639 18.111111111111114)"/><use xlink:href="#l" transform="matrix(1,0,0,1,816.5523148148147,203.53512345679013) translate(49.818070023148145 18.111111111111114)"/><use xlink:href="#m" transform="matrix(1,0,0,1,816.5523148148147,203.53512345679013) translate(0.18518518518517624 44.777777777777786)"/><path d="M334 419.8a6 6 0 0 1 6-6h99a6 6 0 0 1 6 6v45a6 6 0 0 1-6 6h-99a6 6 0 0 1-6-6z" stroke="#fa7811" stroke-width="5" fill="#fccea8"/><use xlink:href="#n" transform="matrix(1,0,0,1,346,425.7932098765432) translate(19.549382716049386 21.90277777777778)"/><path d="M673.1 489.8c0 6.55-29.58 11.87-66.06 11.87-36.47 0-66.04-5.32-66.04-11.87v-95c0-6.57 29.57-11.9 66.04-11.9 36.48 0 66.05 5.33 66.05 11.9z" stroke="#f7c729" stroke-width="5" fill="#fff6c7"/><path d="M673.1 394.8c0 6.55-29.58 11.87-66.06 11.87-36.47 0-66.04-5.32-66.04-11.88" stroke="#f7c729" stroke-width="5" fill="none"/><path d="M541 413.92a6 6 0 0 1 6-6h120.1a6 6 0 0 1 6 6v92a6 6 0 0 1-6 6H547a6 6 0 0 1-6-6z" fill="none"/><use xlink:href="#o" transform="matrix(1,0,0,1,553,419.92401234567905) translate(10.362027391975317 18.27777777777778)"/><use xlink:href="#p" transform="matrix(1,0,0,1,553,419.92401234567905) translate(43.2058738425926 18.27777777777778)"/><use xlink:href="#q" transform="matrix(1,0,0,1,553,419.92401234567905) translate(31.722222222222225 44.94444444444444)"/><use xlink:href="#r" transform="matrix(1,0,0,1,553,419.92401234567905) translate(6.47530864197531 71.61111111111111)"/><path d="M757.5 379.23a6 6 0 0 1 6-6h99a6 6 0 0 1 6 6v45a6 6 0 0 1-6 6h-99a6 6 0 0 1-6-6z" stroke="#008a0e" stroke-width="5" fill="#87d68d"/><use xlink:href="#s" transform="matrix(1,0,0,1,769.5,385.2324382716049) translate(34.24074074074074 21.90277777777778)"/><path d="M810.3 489.98l-5.2-.33-10.3-1.07-9.24-1.37-9.04-1.7-10.84-2.57-33.57-8.68-9.04-1.73-9.23-1.36-10.3-1.08-5.22-.33" stroke="#5e5e5e" stroke-width="4" stroke-linejoin="round" fill="none"/><path d="M826.57 490.52l-14.42 4.16.3-9.27zM682.05 469.2l14.42-4.14-.3 9.26z" stroke="#5e5e5e" stroke-width="4" fill="#5e5e5e"/><path d="M778.8 443.03h-80.48" stroke="#5e5e5e" stroke-width="4" stroke-linejoin="round" fill="none"/><path d="M795.06 443.03l-14.26 4.63v-9.27zM682.06 443.03l14.26-4.64v9.26z" stroke="#5e5e5e" stroke-width="4" fill="#5e5e5e"/><path d="M732.48 404.2l-.8.17-4.54 1.32-5.36 1.94-18.3 7.4-4.55 1.32-.8.18" stroke="#5e5e5e" stroke-width="4" stroke-linejoin="round" fill="none"/><path d="M748.6 402.43l-13.68 6.16-1-9.23zM682.02 418.3l13.68-6.15 1 9.2z" stroke="#5e5e5e" stroke-width="4" fill="#5e5e5e"/><path d="M363.05 313.87l-.08 5.23.24 6.9.6 6.88 1 7.34 1.74 9.1 8.48 37.62.24 1.75" stroke="#5e5e5e" stroke-width="4" stroke-linejoin="round" fill="none"/><path d="M362.67 311.86l2.4.1-.02 2-4-.07.03-2.22z" stroke="#5e5e5e" stroke-width=".05" fill="#5e5e5e"/><path d="M376.5 404.9L370.8 391l9.23-.7z" stroke="#5e5e5e" stroke-width="4" fill="#5e5e5e"/><path d="M449.47 442.3h66.3" stroke="#5e5e5e" stroke-width="4" stroke-linejoin="round" fill="none"/><path d="M449.52 444.3h-2.05v-4h2.05z" stroke="#5e5e5e" stroke-width=".05" fill="#5e5e5e"/><path d="M532.03 442.3l-14.27 4.63v-9.27z" stroke="#5e5e5e" stroke-width="4" fill="#5e5e5e"/><path d="M896.76 282.1l.42 8.14.9 9.8 1.33 9.74 1.8 10 2.42 10.87 3.56 13.32 18.42 60.74 2.33 10.47 1.7 9.56 1.26 9.22.27 3.1" stroke="#5e5e5e" stroke-width="4" stroke-linejoin="round" fill="none"/><path d="M898.76 282.05l-4 .2-.1-2.08 1.7-.05 2.3-.2z" stroke="#5e5e5e" stroke-width=".05" fill="#5e5e5e"/><path d="M932 453.27l-5.35-14 9.25-.48z" stroke="#5e5e5e" stroke-width="4" fill="#5e5e5e"/><path d="M882.44 282.5l.53 106.8" stroke="#5e5e5e" stroke-width="4" stroke-linejoin="round" fill="none"/><path d="M884.44 282.55l-4 .02v-2l3.98-.12z" stroke="#5e5e5e" stroke-width=".05" fill="#5e5e5e"/><path d="M883.06 405.57l-4.7-14.24 9.26-.05z" stroke="#5e5e5e" stroke-width="4" fill="#5e5e5e"/><path d="M867.18 282.34l-.14 2.06-.48 3.88-.68 3.78-.9 3.76-1.13 3.83-1.45 4.04-1.9 4.48-2.74 5.57-15.16 27.56-1.84 4.36-1 2.78" stroke="#5e5e5e" stroke-width="4" stroke-linejoin="round" fill="none"/><path d="M869.3 280.42l-.13 2.1-4-.26.15-2z" stroke="#5e5e5e" stroke-width=".05" fill="#5e5e5e"/><path d="M837.08 364.37l-2.2-14.84 9.14 1.54z" stroke="#5e5e5e" stroke-width="4" fill="#5e5e5e"/><path d="M804 420.53a6 6 0 0 1 6-6h99a6 6 0 0 1 6 6v45a6 6 0 0 1-6 6h-99a6 6 0 0 1-6-6z" stroke="#008a0e" stroke-width="5" fill="#87d68d"/><use xlink:href="#t" transform="matrix(1,0,0,1,816,426.5256481481481) translate(7.234567901234563 21.90277777777778)"/><path d="M835.5 468.23a6 6 0 0 1 6-6h99a6 6 0 0 1 6 6v45a6 6 0 0 1-6 6h-99a6 6 0 0 1-6-6z" stroke="#008a0e" stroke-width="5" fill="#87d68d"/><use xlink:href="#t" transform="matrix(1,0,0,1,847.5,474.2324382716049) translate(7.234567901234563 21.90277777777778)"/><path d="M221.07 449.24c0 6.55-29.57 11.87-66.05 11.87-36.47 0-66.04-5.3-66.04-11.86v-95c0-6.57 29.57-11.9 66.04-11.9 36.48 0 66.05 5.33 66.05 11.9z" stroke="#333" stroke-width="5" fill="#f1f1f1"/><path d="M221.07 354.23c0 6.56-29.57 11.88-66.05 11.88-36.47 0-66.04-5.3-66.04-11.87" stroke="#333" stroke-width="5" fill="none"/><use xlink:href="#u" transform="matrix(1,0,0,1,100.9811039389943,378.10536419753083) translate(22.462962962962962 26.77777777777778)"/><use xlink:href="#v" transform="matrix(1,0,0,1,100.9811039389943,378.10536419753083) translate(20.117283950617285 53.44444444444445)"/><path d="M84.9 237.45a6 6 0 0 1 6-6h124.17a6 6 0 0 1 6 6v45a6 6 0 0 1-6 6H90.9a6 6 0 0 1-6-6z" stroke="#ef5f9e" stroke-width="5" fill="#f6bbd5"/><use xlink:href="#w" transform="matrix(1,0,0,1,96.89585702541407,243.4537037037037) translate(24.462962962962962 21.90277777777778)"/><path d="M217.2 164.54c0 6.56-29.56 11.87-66.04 11.87-36.47 0-66.04-5.3-66.04-11.86v-95c0-6.57 29.57-11.88 66.04-11.88 36.48 0 66.05 5.3 66.05 11.87z" stroke="#c094c1" stroke-width="5" fill="#fdcdff"/><path d="M217.2 69.53c0 6.56-29.56 11.88-66.04 11.88-36.47 0-66.04-5.3-66.04-11.87" stroke="#c094c1" stroke-width="5" fill="none"/><use xlink:href="#x" transform="matrix(1,0,0,1,97.12140144190747,93.40922222222225) translate(34.160493827160494 26.77777777777778)"/><use xlink:href="#y" transform="matrix(1,0,0,1,97.12140144190747,93.40922222222225) translate(21.814814814814817 53.44444444444445)"/><path d="M221.7 136.48l.78.05 1.33.14 1.3.2 1.27.26 1.25.3 1.24.36 1.23.4 1.22.5 1.23.53 1.23.6 1.26.7 1.27.77 1.3.87 1.35 1 1.38 1.1 1.44 1.26 1.5 1.45 1.6 1.67 1.7 1.94 1.84 2.3 2.03 2.74 2.26 3.4 2.6 4.33 3.24 5.9 4.67 9.57 17.93 39.2 3.23 5.9 2.62 4.35 2.26 3.38 2 2.76 1.85 2.3 1.7 1.93 1.58 1.67 1.5 1.45 1.3 1.13" stroke="#5e5e5e" stroke-width="4" stroke-linejoin="round" fill="none"/><path d="M221.8 134.45l-.08 4-2-.04v-4z" stroke="#5e5e5e" stroke-width=".05" fill="#5e5e5e"/><path d="M313.92 248.6l-14.98-.8 3.32-8.65z" stroke="#5e5e5e" stroke-width="4" fill="#5e5e5e"/><path d="M151.18 227v-25.35" stroke="#5e5e5e" stroke-width="4" stroke-linejoin="round" fill="none"/><path d="M153.18 229h-4v-2.06h4z" stroke="#5e5e5e" stroke-width=".05" fill="#5e5e5e"/><path d="M151.18 185.4l4.63 14.25h-9.26z" stroke="#5e5e5e" stroke-width="4" fill="#5e5e5e"/><path d="M152.02 337.94l.06-24.28" stroke="#5e5e5e" stroke-width="4" stroke-linejoin="round" fill="none"/><path d="M154.02 337.9v1.98l-4 .1v-2.1z" stroke="#5e5e5e" stroke-width=".05" fill="#5e5e5e"/><path d="M152.1 297.4l4.6 14.27-9.26-.02z" stroke="#5e5e5e" stroke-width="4" fill="#5e5e5e"/><path d="M676.1 699c0 6.56-29.58 11.88-66.06 11.88-36.47 0-66.04-5.32-66.04-11.88v-95c0-6.56 29.57-11.88 66.04-11.88 36.48 0 66.05 5.32 66.05 11.88z" stroke="#333" stroke-width="5" fill="#f1f1f1"/><path d="M676.1 604c0 6.56-29.58 11.87-66.06 11.87-36.47 0-66.04-5.3-66.04-11.87" stroke="#333" stroke-width="5" fill="none"/><use xlink:href="#z" transform="matrix(1,0,0,1,556,627.872925925926) translate(36.01234567901235 26.77777777777778)"/><use xlink:href="#A" transform="matrix(1,0,0,1,556,627.872925925926) translate(9.53086419753086 53.44444444444445)"/><use xlink:href="#B" transform="matrix(1,0,0,1,556,627.872925925926) translate(67.4320987654321 53.44444444444445)"/><path d="M607.04 566.96V526.9" stroke="#5e5e5e" stroke-width="4" stroke-linejoin="round" fill="none"/><path d="M607.04 583.23l-4.63-14.27h9.28zM607.04 510.64l4.64 14.27h-9.27z" stroke="#5e5e5e" stroke-width="4" fill="#5e5e5e"/><path d="M322.5 644.74a6 6 0 0 1 6-6h124.17a6 6 0 0 1 6 6v55a6 6 0 0 1-6 6H328.5a6 6 0 0 1-6-6z" stroke="#333" stroke-width="5" fill="#f1f1f1"/><use xlink:href="#C" transform="matrix(1,0,0,1,334.5,650.7430864197529) translate(23.2283950617284 25.84027777777778)"/><path d="M518.76 669h-34.9" stroke="#5e5e5e" stroke-width="4" stroke-linejoin="round" fill="none"/><path d="M535.03 669l-14.27 4.64v-9.27zM467.6 669l14.27-4.63v9.27z" stroke="#5e5e5e" stroke-width="4" fill="#5e5e5e"/><path d="M86.94 521a6 6 0 0 1 6-6H217.1a6 6 0 0 1 6 6v45a6 6 0 0 1-6 6H92.95a6 6 0 0 1-6-6z" stroke="#333" stroke-width="5" fill="#f1f1f1"/><use xlink:href="#D" transform="matrix(1,0,0,1,98.93848048220417,527.0111728395061) translate(24.462962962962962 21.90277777777778)"/><path d="M539.5 635.96l-4.7-.1-6.52-.4-6.38-.68-6.25-.92-6.1-1.17-6-1.4-5.88-1.65-5.76-1.88-5.63-2.1-5.54-2.32-5.43-2.56-5.32-2.8-5.2-3-5.12-3.24-4.98-3.46-4.88-3.7-4.74-3.93-4.62-4.16-4.5-4.4-4.33-4.6-4.2-4.87-4.02-5.08-3.86-5.32-3.68-5.54-3.5-5.77-3.27-5.97-3.07-6.2-2.84-6.38-2.6-6.58-2.37-6.77-2.1-6.95-1.83-7.1-1.55-7.3-1.25-7.4-.55-4.35" stroke="#5e5e5e" stroke-width="4" stroke-linejoin="round" fill="none"/><path d="M541.5 634v4l-2.1-.04.1-4z" stroke="#5e5e5e" stroke-width=".05" fill="#5e5e5e"/><path d="M389.9 479.72l5.52 13.94-9.25.58z" stroke="#5e5e5e" stroke-width="4" fill="#5e5e5e"/><path d="M155.02 510.55v-24.2" stroke="#5e5e5e" stroke-width="4" stroke-linejoin="round" fill="none"/><path d="M157.02 512.55h-4v-2.05h4z" stroke="#5e5e5e" stroke-width=".05" fill="#5e5e5e"/><path d="M155.02 470.08l4.64 14.27h-9.27z" stroke="#5e5e5e" stroke-width="4" fill="#5e5e5e"/><path d="M219.48 115.84l102.9 17.9 278.72 56 56.34 7.37 54.58 4.8 58.02 2.64 15.05.18" stroke="#5e5e5e" stroke-width="4" stroke-linejoin="round" fill="none"/><path d="M219.53 115.85l-2.02-.35" stroke="#5e5e5e" stroke-width="4" fill="none"/><path d="M801.36 204.92l-14.32 4.46.1-9.27z" stroke="#5e5e5e" stroke-width="4" fill="#5e5e5e"/><path d="M223.1 745.62c0 6.56-29.56 11.88-66.03 11.88-36.48 0-66.05-5.32-66.05-11.88v-95c0-6.56 29.57-11.88 66.05-11.88 36.47 0 66.04 5.32 66.04 11.88z" stroke="#333" stroke-width="5" fill="#f1f1f1"/><path d="M223.1 650.62c0 6.56-29.56 11.87-66.03 11.87-36.48 0-66.05-5.32-66.05-11.88" stroke="#333" stroke-width="5" fill="none"/><g><use xlink:href="#E" transform="matrix(1,0,0,1,103.02372739578442,674.4944691358023) translate(26.783950617283956 40.27777777777778)"/></g><path d="M248.35 672.24h48.95" stroke="#5e5e5e" stroke-width="4" stroke-linejoin="round" fill="none"/><path d="M232.08 672.24l14.27-4.63v9.28zM313.56 672.24l-14.26 4.64v-9.27z" stroke="#5e5e5e" stroke-width="4" fill="#5e5e5e"/><path d="M797.9 605.5a6 6 0 0 1 6-6h124.2a6 6 0 0 1 6 6v55a6 6 0 0 1-6 6H803.9a6 6 0 0 1-6-6z" stroke="#333" stroke-width="5" fill="#f1f1f1"/><g><use xlink:href="#F" transform="matrix(1,0,0,1,809.9147530864198,611.5) translate(10.944444444444443 25.84027777777778)"/></g><path d="M680.6 633h92.1" stroke="#5e5e5e" stroke-width="4" stroke-linejoin="round" fill="none"/><path d="M680.64 635h-2.05v-4h2.04z" stroke="#5e5e5e" stroke-width=".05" fill="#5e5e5e"/><path d="M788.98 633l-14.27 4.64v-9.28z" stroke="#5e5e5e" stroke-width="4" fill="#5e5e5e"/><path d="M809.13 242.74l-9.74 3.84-13.03 4.5-14.84 4.47-17.32 4.4-21 4.44-27.38 4.56-45.03 5.52-111.5 11.74-21.14 3.52-15.2 3.2-11.93 3.04-9.8 2.94-8.26 2.86-7.14 2.8-6.25 2.8-5.55 2.73-4.98 2.74-4.5 2.72-4.1 2.72-3.77 2.72-3.47 2.75-3.2 2.77-3 2.8-2.8 2.85-2.6 2.9-2.47 2.97-2.32 3.04-2.17 3.13-2.06 3.25-1.94 3.36-1.84 3.5-1.73 3.67-1.62 3.84-1.5 4.06-1.4 4.3-1.3 4.56-1.14 4.88-1 5.27-.56 3.78" stroke="#5e5e5e" stroke-width="4" stroke-linejoin="round" fill="none"/><path d="M809.1 242.75l1.9-.75" stroke="#5e5e5e" stroke-width="4" fill="none"/><path d="M407.44 404.86l-3.66-14.55 9.25.64z" stroke="#5e5e5e" stroke-width="4" fill="#5e5e5e"/><defs><path fill="#333" d="M140-251c80 0 125 45 125 126S219 4 139 4C58 4 15-44 15-125s44-126 125-126zm-1 214c52 0 73-35 73-88 0-50-21-86-72-86-52 0-73 35-73 86s22 88 72 88" id="G"/><path fill="#333" d="M230 0l2-204L168 0h-37L68-204 70 0H24v-248h70l56 185 57-185h69V0h-46" id="H"/><path fill="#333" d="M76-208v77h127v40H76V0H24v-248h183v40H76" id="I"/><path fill="#333" d="M24 0v-248h52V0H24" id="J"/><path fill="#333" d="M136-208V0H84v-208H4v-40h212v40h-80" id="K"/><path fill="#333" d="M169-182c-1-43-94-46-97-3 18 66 151 10 154 114 3 95-165 93-204 36-6-8-10-19-12-30l50-8c3 46 112 56 116 5-17-69-150-10-154-114-4-87 153-88 188-35 5 8 8 18 10 28" id="L"/><path fill="#333" d="M24 0v-248h195v40H76v63h132v40H76v65h150V0H24" id="M"/><path fill="#333" d="M24-248c93 1 206-16 204 79-1 75-69 88-152 82V0H24v-248zm52 121c47 0 100 7 100-41 0-47-54-39-100-39v80" id="N"/><g id="b"><use transform="matrix(0.06172839506172839,0,0,0.06172839506172839,0,0)" xlink:href="#G"/><use transform="matrix(0.06172839506172839,0,0,0.06172839506172839,17.28395061728395,0)" xlink:href="#H"/><use transform="matrix(0.06172839506172839,0,0,0.06172839506172839,35.74074074074073,0)" xlink:href="#I"/><use transform="matrix(0.06172839506172839,0,0,0.06172839506172839,49.25925925925925,0)" xlink:href="#J"/><use transform="matrix(0.06172839506172839,0,0,0.06172839506172839,55.432098765432094,0)" xlink:href="#K"/><use transform="matrix(0.06172839506172839,0,0,0.06172839506172839,68.9506172839506,0)" xlink:href="#L"/><use transform="matrix(0.06172839506172839,0,0,0.06172839506172839,83.76543209876542,0)" xlink:href="#K"/><use transform="matrix(0.06172839506172839,0,0,0.06172839506172839,97.28395061728394,0)" xlink:href="#M"/><use transform="matrix(0.06172839506172839,0,0,0.06172839506172839,112.09876543209874,0)" xlink:href="#N"/></g><path fill="#333" d="M238-95c0 69-44 99-111 99C63 4 22-25 22-93v-155h51v151c-1 38 19 59 55 60 90 1 49-130 58-211h52v153" id="O"/><g id="c"><use transform="matrix(0.07407407407407408,0,0,0.07407407407407408,0,0)" xlink:href="#I"/><use transform="matrix(0.07407407407407408,0,0,0.07407407407407408,16.222222222222225,0)" xlink:href="#O"/><use transform="matrix(0.07407407407407408,0,0,0.07407407407407408,35.40740740740741,0)" xlink:href="#L"/><use transform="matrix(0.07407407407407408,0,0,0.07407407407407408,53.18518518518519,0)" xlink:href="#M"/></g><path fill="#333" d="M199 0l-22-63H83L61 0H9l90-248h61L250 0h-51zm-33-102l-36-108c-10 38-24 72-36 108h72" id="P"/><path fill="#333" d="M175 0L67-191c6 58 2 128 3 191H24v-248h59L193-55c-6-58-2-129-3-193h46V0h-61" id="Q"/><path fill="#333" d="M240-174c0 40-23 61-54 70L253 0h-59l-57-94H76V0H24v-248c93 4 217-23 216 74zM76-134c48-2 112 12 112-38 0-48-66-32-112-35v73" id="R"/><path fill="#333" d="M146-102V0H94v-102L6-248h54l60 105 60-105h54" id="S"/><g id="d"><use transform="matrix(0.07407407407407408,0,0,0.07407407407407408,0,0)" xlink:href="#L"/><use transform="matrix(0.07407407407407408,0,0,0.07407407407407408,17.77777777777778,0)" xlink:href="#K"/><use transform="matrix(0.07407407407407408,0,0,0.07407407407407408,32,0)" xlink:href="#P"/><use transform="matrix(0.07407407407407408,0,0,0.07407407407407408,49.18518518518519,0)" xlink:href="#K"/><use transform="matrix(0.07407407407407408,0,0,0.07407407407407408,65.40740740740742,0)" xlink:href="#J"/><use transform="matrix(0.07407407407407408,0,0,0.07407407407407408,72.81481481481482,0)" xlink:href="#G"/><use transform="matrix(0.07407407407407408,0,0,0.07407407407407408,93.55555555555557,0)" xlink:href="#Q"/><use transform="matrix(0.07407407407407408,0,0,0.07407407407407408,112.74074074074076,0)" xlink:href="#P"/><use transform="matrix(0.07407407407407408,0,0,0.07407407407407408,131.92592592592595,0)" xlink:href="#R"/><use transform="matrix(0.07407407407407408,0,0,0.07407407407407408,150.14814814814818,0)" xlink:href="#S"/></g><path fill="#333" d="M275 0h-61l-44-196L126 0H64L0-248h53L97-49l45-199h58l43 199 44-199h52" id="T"/><path fill="#333" d="M195 0l-88-114-31 24V0H24v-248h52v113l112-113h60L142-143 257 0h-62" id="U"/><path fill="#333" d="M24 0v-248h52v208h133V0H24" id="V"/><g id="e"><use transform="matrix(0.07407407407407408,0,0,0.07407407407407408,0,0)" xlink:href="#T"/><use transform="matrix(0.07407407407407408,0,0,0.07407407407407408,25.111111111111114,0)" xlink:href="#G"/><use transform="matrix(0.07407407407407408,0,0,0.07407407407407408,45.851851851851855,0)" xlink:href="#R"/><use transform="matrix(0.07407407407407408,0,0,0.07407407407407408,65.03703703703705,0)" xlink:href="#U"/><use transform="matrix(0.07407407407407408,0,0,0.07407407407407408,84.22222222222226,0)" xlink:href="#I"/><use transform="matrix(0.07407407407407408,0,0,0.07407407407407408,100.44444444444447,0)" xlink:href="#V"/><use transform="matrix(0.07407407407407408,0,0,0.07407407407407408,116.6666666666667,0)" xlink:href="#G"/><use transform="matrix(0.07407407407407408,0,0,0.07407407407407408,137.40740740740745,0)" xlink:href="#T"/><use transform="matrix(0.07407407407407408,0,0,0.07407407407407408,162.51851851851856,0)" xlink:href="#L"/></g><path fill="#333" d="M67-125c0 53 21 87 73 88 37 1 54-22 65-47l45 17C233-25 199 4 140 4 58 4 20-42 15-125 8-235 124-281 211-232c18 10 29 29 36 50l-46 12c-8-25-30-41-62-41-52 0-71 34-72 86" id="W"/><g id="f"><use transform="matrix(0.07407407407407408,0,0,0.07407407407407408,0,0)" xlink:href="#W"/><use transform="matrix(0.07407407407407408,0,0,0.07407407407407408,19.185185185185187,0)" xlink:href="#G"/><use transform="matrix(0.07407407407407408,0,0,0.07407407407407408,39.92592592592593,0)" xlink:href="#R"/><use transform="matrix(0.07407407407407408,0,0,0.07407407407407408,59.11111111111111,0)" xlink:href="#M"/></g><path fill="#333" d="M745-142h380V0H143v-142h422v-798H246v-142h499v940zM545-1292v-192h200v192H545" id="X"/><path fill="#333" d="M706-1102c241 0 344 136 343 381V0H868v-695c1-168-57-273-220-268-190 6-283 138-283 336V0H185c-3-360 6-732-6-1082h170c4 54 7 126 8 185h3c63-121 164-204 346-205" id="Y"/><g id="g"><use transform="matrix(0.010850694444444444,0,0,0.010850694444444444,0,0)" xlink:href="#X"/><use transform="matrix(0.010850694444444444,0,0,0.010850694444444444,13.335503472222221,0)" xlink:href="#Y"/><use transform="matrix(0.010850694444444444,0,0,0.010850694444444444,26.671006944444443,0)" xlink:href="#X"/></g><path fill="#333" d="M101-251c68 0 84 54 84 127C185-50 166 4 99 4S15-52 14-124c-1-75 17-127 87-127zm-1 216c37-5 36-46 36-89s4-89-36-89c-39 0-36 45-36 89 0 43-3 85 36 89" id="Z"/><path fill="#333" d="M24-248c120-7 223 5 221 122C244-46 201 0 124 0H24v-248zM76-40c74 7 117-18 117-86 0-67-45-88-117-82v168" id="aa"/><g id="h"><use transform="matrix(0.06172839506172839,0,0,0.06172839506172839,0,0)" xlink:href="#Z"/><use transform="matrix(0.06172839506172839,0,0,0.06172839506172839,12.345679012345679,0)" xlink:href="#aa"/></g><path fill="#333" d="M88-194c31-1 46 15 58 34l-1-101h50l1 261h-48c-2-10 0-23-3-31C134-8 116 4 84 4 32 4 16-41 15-95c0-56 19-97 73-99zm17 164c33 0 40-30 41-66 1-37-9-64-41-64s-38 30-39 65c0 43 13 65 39 65" id="ab"/><path fill="#333" d="M185-48c-13 30-37 53-82 52C43 2 14-33 14-96s30-98 90-98c62 0 83 45 84 108H66c0 31 8 55 39 56 18 0 30-7 34-22zm-45-69c5-46-57-63-70-21-2 6-4 13-4 21h74" id="ac"/><path fill="#333" d="M128 0H69L1-190h53L99-40l48-150h52" id="ad"/><path fill="#333" d="M25-224v-37h50v37H25zM25 0v-190h50V0H25" id="ae"/><path fill="#333" d="M190-63c-7 42-38 67-86 67-59 0-84-38-90-98-12-110 154-137 174-36l-49 2c-2-19-15-32-35-32-30 0-35 28-38 64-6 74 65 87 74 30" id="af"/><g id="i"><use transform="matrix(0.06172839506172839,0,0,0.06172839506172839,0,0)" xlink:href="#ab"/><use transform="matrix(0.06172839506172839,0,0,0.06172839506172839,13.518518518518517,0)" xlink:href="#ac"/><use transform="matrix(0.06172839506172839,0,0,0.06172839506172839,25.864197530864196,0)" xlink:href="#ad"/><use transform="matrix(0.06172839506172839,0,0,0.06172839506172839,38.20987654320987,0)" xlink:href="#ae"/><use transform="matrix(0.06172839506172839,0,0,0.06172839506172839,44.382716049382715,0)" xlink:href="#af"/><use transform="matrix(0.06172839506172839,0,0,0.06172839506172839,56.72839506172839,0)" xlink:href="#ac"/></g><path fill="#333" d="M135-194c53 0 70 44 70 98 0 56-19 98-73 100-31 1-45-17-59-34 3 33 2 69 2 105H25l-1-265h48c2 10 0 23 3 31 11-24 29-35 60-35zM114-30c33 0 39-31 40-66 0-38-9-64-40-64-56 0-55 130 0 130" id="ag"/><path fill="#333" d="M133-34C117-15 103 5 69 4 32 3 11-16 11-54c-1-60 55-63 116-61 1-26-3-47-28-47-18 1-26 9-28 27l-52-2c7-38 36-58 82-57s74 22 75 68l1 82c-1 14 12 18 25 15v27c-30 8-71 5-69-32zm-48 3c29 0 43-24 42-57-32 0-66-3-65 30 0 17 8 27 23 27" id="ah"/><path fill="#333" d="M135-150c-39-12-60 13-60 57V0H25l-1-190h47c2 13-1 29 3 40 6-28 27-53 61-41v41" id="ai"/><path fill="#333" d="M220-157c-53 9-28 100-34 157h-49v-107c1-27-5-49-29-50C55-147 81-57 75 0H25l-1-190h47c2 12-1 28 3 38 10-53 101-56 108 0 13-22 24-43 59-42 82 1 51 116 57 194h-49v-107c-1-25-5-48-29-50" id="aj"/><path fill="#333" d="M115-3C79 11 28 4 28-45v-112H4v-33h27l15-45h31v45h36v33H77v99c-1 23 16 31 38 25v30" id="ak"/><path fill="#333" d="M137-138c1-29-70-34-71-4 15 46 118 7 119 86 1 83-164 76-172 9l43-7c4 19 20 25 44 25 33 8 57-30 24-41C81-84 22-81 20-136c-2-80 154-74 161-7" id="al"/><g id="j"><use transform="matrix(0.06172839506172839,0,0,0.06172839506172839,0,0)" xlink:href="#ag"/><use transform="matrix(0.06172839506172839,0,0,0.06172839506172839,13.518518518518517,0)" xlink:href="#ah"/><use transform="matrix(0.06172839506172839,0,0,0.06172839506172839,25.864197530864196,0)" xlink:href="#ai"/><use transform="matrix(0.06172839506172839,0,0,0.06172839506172839,34.50617283950617,0)" xlink:href="#ah"/><use transform="matrix(0.06172839506172839,0,0,0.06172839506172839,46.85185185185185,0)" xlink:href="#aj"/><use transform="matrix(0.06172839506172839,0,0,0.06172839506172839,66.60493827160494,0)" xlink:href="#ac"/><use transform="matrix(0.06172839506172839,0,0,0.06172839506172839,78.95061728395062,0)" xlink:href="#ak"/><use transform="matrix(0.06172839506172839,0,0,0.06172839506172839,86.2962962962963,0)" xlink:href="#ac"/><use transform="matrix(0.06172839506172839,0,0,0.06172839506172839,98.64197530864199,0)" xlink:href="#ai"/><use transform="matrix(0.06172839506172839,0,0,0.06172839506172839,107.28395061728396,0)" xlink:href="#al"/></g><path fill="#333" d="M1000-272c3 95 12 159 101 161 21 0 41-3 59-7V-6c-44 10-86 16-139 16-141 2-191-84-197-217h-6C748-76 648 20 446 20c-207 0-318-120-318-322 0-266 194-348 454-354l236-4c12-191-40-305-222-305-140 0-220 47-232 172l-188-17c33-204 181-292 423-292 255 0 401 118 401 364v466zm-683-27c0 109 63 184 175 182 166-3 259-96 306-217 24-65 20-120 20-200-232 7-501-28-501 235" id="am"/><path fill="#333" d="M631 20c-350 0-501-215-501-562 0-355 162-560 502-560 250 0 399 118 446 323l-192 14c-23-124-109-196-262-196-242 0-305 171-305 415 1 245 61 427 304 427 151 0 248-77 267-215l190 12C1039-107 883 20 631 20" id="an"/><path fill="#333" d="M682 16c-209 0-323-80-324-285v-671H190v-142h170l58-282h120v282h432v142H538v652c2 114 60 155 182 155 106 0 209-16 297-34v137C921-4 806 16 682 16" id="ao"/><g id="k"><use transform="matrix(0.010850694444444444,0,0,0.010850694444444444,0,0)" xlink:href="#am"/><use transform="matrix(0.010850694444444444,0,0,0.010850694444444444,13.335503472222221,0)" xlink:href="#an"/><use transform="matrix(0.010850694444444444,0,0,0.010850694444444444,26.671006944444443,0)" xlink:href="#ao"/></g><path fill="#333" d="M110-194c64 0 96 36 96 99 0 64-35 99-97 99-61 0-95-36-95-99 0-62 34-99 96-99zm-1 164c35 0 45-28 45-65 0-40-10-65-43-65-34 0-45 26-45 65 0 36 10 65 43 65" id="ap"/><g id="l"><use transform="matrix(0.06172839506172839,0,0,0.06172839506172839,0,0)" xlink:href="#ah"/><use transform="matrix(0.06172839506172839,0,0,0.06172839506172839,12.345679012345679,0)" xlink:href="#af"/><use transform="matrix(0.06172839506172839,0,0,0.06172839506172839,24.691358024691358,0)" xlink:href="#ak"/><use transform="matrix(0.06172839506172839,0,0,0.06172839506172839,32.03703703703704,0)" xlink:href="#ap"/><use transform="matrix(0.06172839506172839,0,0,0.06172839506172839,45.55555555555556,0)" xlink:href="#ai"/><use transform="matrix(0.06172839506172839,0,0,0.06172839506172839,54.19753086419753,0)" xlink:href="#al"/></g><g id="m"><use transform="matrix(0.06172839506172839,0,0,0.06172839506172839,0,0)" xlink:href="#ag"/><use transform="matrix(0.06172839506172839,0,0,0.06172839506172839,13.518518518518517,0)" xlink:href="#ah"/><use transform="matrix(0.06172839506172839,0,0,0.06172839506172839,25.864197530864196,0)" xlink:href="#ai"/><use transform="matrix(0.06172839506172839,0,0,0.06172839506172839,34.50617283950617,0)" xlink:href="#ah"/><use transform="matrix(0.06172839506172839,0,0,0.06172839506172839,46.85185185185185,0)" xlink:href="#aj"/><use transform="matrix(0.06172839506172839,0,0,0.06172839506172839,66.60493827160494,0)" xlink:href="#ac"/><use transform="matrix(0.06172839506172839,0,0,0.06172839506172839,78.95061728395062,0)" xlink:href="#ak"/><use transform="matrix(0.06172839506172839,0,0,0.06172839506172839,86.2962962962963,0)" xlink:href="#ac"/><use transform="matrix(0.06172839506172839,0,0,0.06172839506172839,98.64197530864199,0)" xlink:href="#ai"/><use transform="matrix(0.06172839506172839,0,0,0.06172839506172839,107.28395061728396,0)" xlink:href="#al"/></g><path fill="#333" d="M135-194c87-1 58 113 63 194h-50c-7-57 23-157-34-157-59 0-34 97-39 157H25l-1-190h47c2 12-1 28 3 38 12-26 28-41 61-42" id="aq"/><path fill="#333" d="M67-93c0 74 22 123 53 168H70C40 30 18-18 18-93s22-123 52-168h50c-32 44-53 94-53 168" id="ar"/><path fill="#333" d="M102-93c0 74-22 123-52 168H0C30 29 54-18 53-93c0-74-22-123-53-168h50c30 45 52 94 52 168" id="as"/><g id="n"><use transform="matrix(0.06172839506172839,0,0,0.06172839506172839,0,0)" xlink:href="#ae"/><use transform="matrix(0.06172839506172839,0,0,0.06172839506172839,6.172839506172839,0)" xlink:href="#aq"/><use transform="matrix(0.06172839506172839,0,0,0.06172839506172839,19.691358024691358,0)" xlink:href="#ae"/><use transform="matrix(0.06172839506172839,0,0,0.06172839506172839,25.864197530864196,0)" xlink:href="#ak"/><use transform="matrix(0.06172839506172839,0,0,0.06172839506172839,33.20987654320987,0)" xlink:href="#ar"/><use transform="matrix(0.06172839506172839,0,0,0.06172839506172839,40.55555555555555,0)" xlink:href="#as"/></g><path fill="#333" d="M865-914c-3-187-2-380-2-570h180v1261c0 76 1 155 6 223H877c-8-49-9-116-10-174h-5C801-44 708 26 530 26c-135 0-234-46-297-139s-95-232-95-419c0-377 131-566 392-566 176 0 271 63 335 184zm-286-51c-222 0-255 197-255 427 0 229 31 425 253 425 237 0 286-195 286-441 0-238-52-411-284-411" id="at"/><g id="o"><use transform="matrix(0.010850694444444444,0,0,0.010850694444444444,0,0)" xlink:href="#at"/><use transform="matrix(0.010850694444444444,0,0,0.010850694444444444,13.335503472222221,0)" xlink:href="#at"/></g><g id="p"><use transform="matrix(0.06172839506172839,0,0,0.06172839506172839,0,0)" xlink:href="#J"/><use transform="matrix(0.06172839506172839,0,0,0.06172839506172839,6.172839506172839,0)" xlink:href="#H"/><use transform="matrix(0.06172839506172839,0,0,0.06172839506172839,24.629629629629626,0)" xlink:href="#P"/><use transform="matrix(0.06172839506172839,0,0,0.06172839506172839,40.61728395061728,0)" xlink:href="#L"/></g><g id="q"><use transform="matrix(0.06172839506172839,0,0,0.06172839506172839,0,0)" xlink:href="#ab"/><use transform="matrix(0.06172839506172839,0,0,0.06172839506172839,13.518518518518517,0)" xlink:href="#ah"/><use transform="matrix(0.06172839506172839,0,0,0.06172839506172839,25.864197530864196,0)" xlink:href="#ak"/><use transform="matrix(0.06172839506172839,0,0,0.06172839506172839,33.20987654320987,0)" xlink:href="#ah"/></g><path fill="#333" d="M85 4C-2 5 27-109 22-190h50c7 57-23 150 33 157 60-5 35-97 40-157h50l1 190h-47c-2-12 1-28-3-38-12 25-28 42-61 42" id="au"/><g id="r"><use transform="matrix(0.06172839506172839,0,0,0.06172839506172839,0,0)" xlink:href="#al"/><use transform="matrix(0.06172839506172839,0,0,0.06172839506172839,12.345679012345679,0)" xlink:href="#ak"/><use transform="matrix(0.06172839506172839,0,0,0.06172839506172839,19.691358024691358,0)" xlink:href="#ai"/><use transform="matrix(0.06172839506172839,0,0,0.06172839506172839,28.333333333333332,0)" xlink:href="#au"/><use transform="matrix(0.06172839506172839,0,0,0.06172839506172839,41.85185185185185,0)" xlink:href="#af"/><use transform="matrix(0.06172839506172839,0,0,0.06172839506172839,54.197530864197525,0)" xlink:href="#ak"/><use transform="matrix(0.06172839506172839,0,0,0.06172839506172839,61.5432098765432,0)" xlink:href="#au"/><use transform="matrix(0.06172839506172839,0,0,0.06172839506172839,75.06172839506172,0)" xlink:href="#ai"/><use transform="matrix(0.06172839506172839,0,0,0.06172839506172839,83.7037037037037,0)" xlink:href="#ac"/></g><path fill="#333" d="M24 0v-54h51V0H24" id="av"/><g id="s"><use transform="matrix(0.06172839506172839,0,0,0.06172839506172839,0,0)" xlink:href="#av"/><use transform="matrix(0.06172839506172839,0,0,0.06172839506172839,6.172839506172839,0)" xlink:href="#av"/><use transform="matrix(0.06172839506172839,0,0,0.06172839506172839,12.345679012345679,0)" xlink:href="#av"/></g><g id="t"><use transform="matrix(0.06172839506172839,0,0,0.06172839506172839,0,0)" xlink:href="#P"/><use transform="matrix(0.06172839506172839,0,0,0.06172839506172839,15.987654320987653,0)" xlink:href="#af"/><use transform="matrix(0.06172839506172839,0,0,0.06172839506172839,28.333333333333332,0)" xlink:href="#ak"/><use transform="matrix(0.06172839506172839,0,0,0.06172839506172839,35.67901234567901,0)" xlink:href="#ap"/><use transform="matrix(0.06172839506172839,0,0,0.06172839506172839,49.19753086419753,0)" xlink:href="#ai"/><use transform="matrix(0.06172839506172839,0,0,0.06172839506172839,57.839506172839506,0)" xlink:href="#ar"/><use transform="matrix(0.06172839506172839,0,0,0.06172839506172839,65.18518518518519,0)" xlink:href="#as"/></g><path fill="#333" d="M67-125c0 54 23 88 75 88 28 0 53-7 68-21v-34h-60v-39h108v91C232-14 192 4 140 4 58 4 20-42 15-125 8-236 126-280 215-234c19 10 29 26 37 47l-47 15c-11-23-29-39-63-39-53 1-75 33-75 86" id="aw"/><g id="u"><use transform="matrix(0.06172839506172839,0,0,0.06172839506172839,0,0)" xlink:href="#aw"/><use transform="matrix(0.06172839506172839,0,0,0.06172839506172839,17.28395061728395,0)" xlink:href="#P"/><use transform="matrix(0.06172839506172839,0,0,0.06172839506172839,33.2716049382716,0)" xlink:href="#L"/><use transform="matrix(0.06172839506172839,0,0,0.06172839506172839,48.08641975308642,0)" xlink:href="#W"/></g><g id="v"><use transform="matrix(0.06172839506172839,0,0,0.06172839506172839,0,0)" xlink:href="#ap"/><use transform="matrix(0.06172839506172839,0,0,0.06172839506172839,13.518518518518517,0)" xlink:href="#au"/><use transform="matrix(0.06172839506172839,0,0,0.06172839506172839,27.037037037037035,0)" xlink:href="#ak"/><use transform="matrix(0.06172839506172839,0,0,0.06172839506172839,34.382716049382715,0)" xlink:href="#ag"/><use transform="matrix(0.06172839506172839,0,0,0.06172839506172839,47.901234567901234,0)" xlink:href="#au"/><use transform="matrix(0.06172839506172839,0,0,0.06172839506172839,61.41975308641975,0)" xlink:href="#ak"/></g><g id="w"><use transform="matrix(0.06172839506172839,0,0,0.06172839506172839,0,0)" xlink:href="#af"/><use transform="matrix(0.06172839506172839,0,0,0.06172839506172839,12.345679012345679,0)" xlink:href="#ah"/><use transform="matrix(0.06172839506172839,0,0,0.06172839506172839,24.691358024691358,0)" xlink:href="#al"/><use transform="matrix(0.06172839506172839,0,0,0.06172839506172839,37.03703703703704,0)" xlink:href="#ac"/><use transform="matrix(0.06172839506172839,0,0,0.06172839506172839,49.382716049382715,0)" xlink:href="#ar"/><use transform="matrix(0.06172839506172839,0,0,0.06172839506172839,56.72839506172839,0)" xlink:href="#as"/></g><g id="x"><use transform="matrix(0.06172839506172839,0,0,0.06172839506172839,0,0)" xlink:href="#O"/><use transform="matrix(0.06172839506172839,0,0,0.06172839506172839,15.987654320987653,0)" xlink:href="#al"/><use transform="matrix(0.06172839506172839,0,0,0.06172839506172839,28.333333333333332,0)" xlink:href="#ac"/></g><g id="y"><use transform="matrix(0.06172839506172839,0,0,0.06172839506172839,0,0)" xlink:href="#W"/><use transform="matrix(0.06172839506172839,0,0,0.06172839506172839,15.987654320987653,0)" xlink:href="#ah"/><use transform="matrix(0.06172839506172839,0,0,0.06172839506172839,28.333333333333332,0)" xlink:href="#al"/><use transform="matrix(0.06172839506172839,0,0,0.06172839506172839,40.67901234567901,0)" xlink:href="#ac"/><use transform="matrix(0.06172839506172839,0,0,0.06172839506172839,53.02469135802469,0)" xlink:href="#al"/></g><g id="z"><use transform="matrix(0.06172839506172839,0,0,0.06172839506172839,0,0)" xlink:href="#J"/><use transform="matrix(0.06172839506172839,0,0,0.06172839506172839,6.172839506172839,0)" xlink:href="#aa"/><use transform="matrix(0.06172839506172839,0,0,0.06172839506172839,22.160493827160494,0)" xlink:href="#L"/></g><path fill="#333" d="M176-78C186 10 51 31 16-35c-5-9-9-19-11-32l52-8c4 21 12 37 35 38 23 0 32-16 32-40v-130H75v-41h101v170" id="ax"/><g id="A"><use transform="matrix(0.06172839506172839,0,0,0.06172839506172839,0,0)" xlink:href="#ax"/><use transform="matrix(0.06172839506172839,0,0,0.06172839506172839,12.345679012345679,0)" xlink:href="#al"/><use transform="matrix(0.06172839506172839,0,0,0.06172839506172839,24.691358024691358,0)" xlink:href="#ap"/><use transform="matrix(0.06172839506172839,0,0,0.06172839506172839,38.20987654320987,0)" xlink:href="#aq"/></g><path fill="#333" d="M121-226c-27-7-43 5-38 36h38v33H83V0H34v-157H6v-33h28c-9-59 32-81 87-68v32" id="ay"/><path fill="#333" d="M25 0v-261h50V0H25" id="az"/><g id="B"><use transform="matrix(0.06172839506172839,0,0,0.06172839506172839,0,0)" xlink:href="#ay"/><use transform="matrix(0.06172839506172839,0,0,0.06172839506172839,7.345679012345679,0)" xlink:href="#ae"/><use transform="matrix(0.06172839506172839,0,0,0.06172839506172839,13.518518518518519,0)" xlink:href="#az"/><use transform="matrix(0.06172839506172839,0,0,0.06172839506172839,19.691358024691358,0)" xlink:href="#ac"/></g><g id="C"><use transform="matrix(0.06172839506172839,0,0,0.06172839506172839,0,0)" xlink:href="#G"/><use transform="matrix(0.06172839506172839,0,0,0.06172839506172839,17.28395061728395,0)" xlink:href="#H"/><use transform="matrix(0.06172839506172839,0,0,0.06172839506172839,35.74074074074073,0)" xlink:href="#P"/><use transform="matrix(0.06172839506172839,0,0,0.06172839506172839,51.728395061728385,0)" xlink:href="#L"/></g><g id="D"><use transform="matrix(0.06172839506172839,0,0,0.06172839506172839,0,0)" xlink:href="#aw"/><use transform="matrix(0.06172839506172839,0,0,0.06172839506172839,17.28395061728395,0)" xlink:href="#P"/><use transform="matrix(0.06172839506172839,0,0,0.06172839506172839,33.2716049382716,0)" xlink:href="#L"/><use transform="matrix(0.06172839506172839,0,0,0.06172839506172839,48.08641975308642,0)" xlink:href="#W"/></g><g id="E"><use transform="matrix(0.06172839506172839,0,0,0.06172839506172839,0,0)" xlink:href="#J"/><use transform="matrix(0.06172839506172839,0,0,0.06172839506172839,6.172839506172839,0)" xlink:href="#H"/><use transform="matrix(0.06172839506172839,0,0,0.06172839506172839,24.629629629629626,0)" xlink:href="#P"/><use transform="matrix(0.06172839506172839,0,0,0.06172839506172839,40.61728395061728,0)" xlink:href="#L"/></g><g id="F"><use transform="matrix(0.06172839506172839,0,0,0.06172839506172839,0,0)" xlink:href="#G"/><use transform="matrix(0.06172839506172839,0,0,0.06172839506172839,17.28395061728395,0)" xlink:href="#ag"/><use transform="matrix(0.06172839506172839,0,0,0.06172839506172839,30.80246913580247,0)" xlink:href="#ac"/><use transform="matrix(0.06172839506172839,0,0,0.06172839506172839,43.148148148148145,0)" xlink:href="#aq"/><use transform="matrix(0.06172839506172839,0,0,0.06172839506172839,56.666666666666664,0)" xlink:href="#H"/><use transform="matrix(0.06172839506172839,0,0,0.06172839506172839,75.12345679012346,0)" xlink:href="#W"/></g></defs></g></svg>