<?xml version="1.0" encoding="utf-8"?>
<svg xmlns="http://www.w3.org/2000/svg" xmlns:xlink="http://www.w3.org/1999/xlink" width="600" height="400" viewBox="0 0 2400 1600">
<defs>
  <clipPath id="clip540">
    <rect x="0" y="0" width="2400" height="1600"/>
  </clipPath>
</defs>
<path clip-path="url(#clip540)" d="M0 1600 L2400 1600 L2400 0 L0 0  Z" fill="#ffffff" fill-rule="evenodd" fill-opacity="1"/>
<defs>
  <clipPath id="clip541">
    <rect x="480" y="0" width="1681" height="1600"/>
  </clipPath>
</defs>
<path clip-path="url(#clip540)" d="M275.136 1486.45 L2352.76 1486.45 L2352.76 47.2441 L275.136 47.2441  Z" fill="#ffffff" fill-rule="evenodd" fill-opacity="1"/>
<defs>
  <clipPath id="clip542">
    <rect x="275" y="47" width="2079" height="1440"/>
  </clipPath>
</defs>
<polyline clip-path="url(#clip542)" style="stroke:#000000; stroke-linecap:round; stroke-linejoin:round; stroke-width:2; stroke-opacity:0.1; fill:none" points="314.337,1486.45 314.337,47.2441 "/>
<polyline clip-path="url(#clip542)" style="stroke:#000000; stroke-linecap:round; stroke-linejoin:round; stroke-width:2; stroke-opacity:0.1; fill:none" points="804.341,1486.45 804.341,47.2441 "/>
<polyline clip-path="url(#clip542)" style="stroke:#000000; stroke-linecap:round; stroke-linejoin:round; stroke-width:2; stroke-opacity:0.1; fill:none" points="1294.35,1486.45 1294.35,47.2441 "/>
<polyline clip-path="url(#clip542)" style="stroke:#000000; stroke-linecap:round; stroke-linejoin:round; stroke-width:2; stroke-opacity:0.1; fill:none" points="1784.35,1486.45 1784.35,47.2441 "/>
<polyline clip-path="url(#clip542)" style="stroke:#000000; stroke-linecap:round; stroke-linejoin:round; stroke-width:2; stroke-opacity:0.1; fill:none" points="2274.36,1486.45 2274.36,47.2441 "/>
<polyline clip-path="url(#clip542)" style="stroke:#000000; stroke-linecap:round; stroke-linejoin:round; stroke-width:2; stroke-opacity:0.1; fill:none" points="275.136,1446.49 2352.76,1446.49 "/>
<polyline clip-path="url(#clip542)" style="stroke:#000000; stroke-linecap:round; stroke-linejoin:round; stroke-width:2; stroke-opacity:0.1; fill:none" points="275.136,1070.74 2352.76,1070.74 "/>
<polyline clip-path="url(#clip542)" style="stroke:#000000; stroke-linecap:round; stroke-linejoin:round; stroke-width:2; stroke-opacity:0.1; fill:none" points="275.136,694.993 2352.76,694.993 "/>
<polyline clip-path="url(#clip542)" style="stroke:#000000; stroke-linecap:round; stroke-linejoin:round; stroke-width:2; stroke-opacity:0.1; fill:none" points="275.136,319.243 2352.76,319.243 "/>
<polyline clip-path="url(#clip540)" style="stroke:#000000; stroke-linecap:round; stroke-linejoin:round; stroke-width:4; stroke-opacity:1; fill:none" points="275.136,1486.45 2352.76,1486.45 "/>
<polyline clip-path="url(#clip540)" style="stroke:#000000; stroke-linecap:round; stroke-linejoin:round; stroke-width:4; stroke-opacity:1; fill:none" points="314.337,1486.45 314.337,1467.55 "/>
<polyline clip-path="url(#clip540)" style="stroke:#000000; stroke-linecap:round; stroke-linejoin:round; stroke-width:4; stroke-opacity:1; fill:none" points="804.341,1486.45 804.341,1467.55 "/>
<polyline clip-path="url(#clip540)" style="stroke:#000000; stroke-linecap:round; stroke-linejoin:round; stroke-width:4; stroke-opacity:1; fill:none" points="1294.35,1486.45 1294.35,1467.55 "/>
<polyline clip-path="url(#clip540)" style="stroke:#000000; stroke-linecap:round; stroke-linejoin:round; stroke-width:4; stroke-opacity:1; fill:none" points="1784.35,1486.45 1784.35,1467.55 "/>
<polyline clip-path="url(#clip540)" style="stroke:#000000; stroke-linecap:round; stroke-linejoin:round; stroke-width:4; stroke-opacity:1; fill:none" points="2274.36,1486.45 2274.36,1467.55 "/>
<path clip-path="url(#clip540)" d="M314.337 1517.37 Q310.726 1517.37 308.897 1520.93 Q307.091 1524.47 307.091 1531.6 Q307.091 1538.71 308.897 1542.27 Q310.726 1545.82 314.337 1545.82 Q317.971 1545.82 319.777 1542.27 Q321.605 1538.71 321.605 1531.6 Q321.605 1524.47 319.777 1520.93 Q317.971 1517.37 314.337 1517.37 M314.337 1513.66 Q320.147 1513.66 323.202 1518.27 Q326.281 1522.85 326.281 1531.6 Q326.281 1540.33 323.202 1544.94 Q320.147 1549.52 314.337 1549.52 Q308.527 1549.52 305.448 1544.94 Q302.392 1540.33 302.392 1531.6 Q302.392 1522.85 305.448 1518.27 Q308.527 1513.66 314.337 1513.66 Z" fill="#000000" fill-rule="nonzero" fill-opacity="1" /><path clip-path="url(#clip540)" d="M783.612 1544.91 L799.932 1544.91 L799.932 1548.85 L777.987 1548.85 L777.987 1544.91 Q780.649 1542.16 785.233 1537.53 Q789.839 1532.88 791.02 1531.53 Q793.265 1529.01 794.145 1527.27 Q795.047 1525.51 795.047 1523.82 Q795.047 1521.07 793.103 1519.33 Q791.182 1517.6 788.08 1517.6 Q785.881 1517.6 783.427 1518.36 Q780.997 1519.13 778.219 1520.68 L778.219 1515.95 Q781.043 1514.82 783.497 1514.24 Q785.95 1513.66 787.987 1513.66 Q793.358 1513.66 796.552 1516.35 Q799.746 1519.03 799.746 1523.52 Q799.746 1525.65 798.936 1527.57 Q798.149 1529.47 796.043 1532.07 Q795.464 1532.74 792.362 1535.95 Q789.26 1539.15 783.612 1544.91 Z" fill="#000000" fill-rule="nonzero" fill-opacity="1" /><path clip-path="url(#clip540)" d="M809.793 1514.29 L828.149 1514.29 L828.149 1518.22 L814.075 1518.22 L814.075 1526.7 Q815.094 1526.35 816.112 1526.19 Q817.131 1526 818.149 1526 Q823.936 1526 827.316 1529.17 Q830.695 1532.34 830.695 1537.76 Q830.695 1543.34 827.223 1546.44 Q823.751 1549.52 817.432 1549.52 Q815.256 1549.52 812.987 1549.15 Q810.742 1548.78 808.334 1548.04 L808.334 1543.34 Q810.418 1544.47 812.64 1545.03 Q814.862 1545.58 817.339 1545.58 Q821.344 1545.58 823.682 1543.48 Q826.019 1541.37 826.019 1537.76 Q826.019 1534.15 823.682 1532.04 Q821.344 1529.94 817.339 1529.94 Q815.464 1529.94 813.589 1530.35 Q811.737 1530.77 809.793 1531.65 L809.793 1514.29 Z" fill="#000000" fill-rule="nonzero" fill-opacity="1" /><path clip-path="url(#clip540)" d="M1269.05 1514.29 L1287.4 1514.29 L1287.4 1518.22 L1273.33 1518.22 L1273.33 1526.7 Q1274.35 1526.35 1275.36 1526.19 Q1276.38 1526 1277.4 1526 Q1283.19 1526 1286.57 1529.17 Q1289.95 1532.34 1289.95 1537.76 Q1289.95 1543.34 1286.48 1546.44 Q1283 1549.52 1276.68 1549.52 Q1274.51 1549.52 1272.24 1549.15 Q1269.99 1548.78 1267.59 1548.04 L1267.59 1543.34 Q1269.67 1544.47 1271.89 1545.03 Q1274.11 1545.58 1276.59 1545.58 Q1280.6 1545.58 1282.93 1543.48 Q1285.27 1541.37 1285.27 1537.76 Q1285.27 1534.15 1282.93 1532.04 Q1280.6 1529.94 1276.59 1529.94 Q1274.72 1529.94 1272.84 1530.35 Q1270.99 1530.77 1269.05 1531.65 L1269.05 1514.29 Z" fill="#000000" fill-rule="nonzero" fill-opacity="1" /><path clip-path="url(#clip540)" d="M1309.16 1517.37 Q1305.55 1517.37 1303.72 1520.93 Q1301.92 1524.47 1301.92 1531.6 Q1301.92 1538.71 1303.72 1542.27 Q1305.55 1545.82 1309.16 1545.82 Q1312.79 1545.82 1314.6 1542.27 Q1316.43 1538.71 1316.43 1531.6 Q1316.43 1524.47 1314.6 1520.93 Q1312.79 1517.37 1309.16 1517.37 M1309.16 1513.66 Q1314.97 1513.66 1318.03 1518.27 Q1321.11 1522.85 1321.11 1531.6 Q1321.11 1540.33 1318.03 1544.94 Q1314.97 1549.52 1309.16 1549.52 Q1303.35 1549.52 1300.27 1544.94 Q1297.22 1540.33 1297.22 1531.6 Q1297.22 1522.85 1300.27 1518.27 Q1303.35 1513.66 1309.16 1513.66 Z" fill="#000000" fill-rule="nonzero" fill-opacity="1" /><path clip-path="url(#clip540)" d="M1758.2 1514.29 L1780.43 1514.29 L1780.43 1516.28 L1767.88 1548.85 L1763 1548.85 L1774.8 1518.22 L1758.2 1518.22 L1758.2 1514.29 Z" fill="#000000" fill-rule="nonzero" fill-opacity="1" /><path clip-path="url(#clip540)" d="M1789.59 1514.29 L1807.95 1514.29 L1807.95 1518.22 L1793.88 1518.22 L1793.88 1526.7 Q1794.89 1526.35 1795.91 1526.19 Q1796.93 1526 1797.95 1526 Q1803.74 1526 1807.12 1529.17 Q1810.5 1532.34 1810.5 1537.76 Q1810.5 1543.34 1807.02 1546.44 Q1803.55 1549.52 1797.23 1549.52 Q1795.06 1549.52 1792.79 1549.15 Q1790.54 1548.78 1788.14 1548.04 L1788.14 1543.34 Q1790.22 1544.47 1792.44 1545.03 Q1794.66 1545.58 1797.14 1545.58 Q1801.14 1545.58 1803.48 1543.48 Q1805.82 1541.37 1805.82 1537.76 Q1805.82 1534.15 1803.48 1532.04 Q1801.14 1529.94 1797.14 1529.94 Q1795.26 1529.94 1793.39 1530.35 Q1791.54 1530.77 1789.59 1531.65 L1789.59 1514.29 Z" fill="#000000" fill-rule="nonzero" fill-opacity="1" /><path clip-path="url(#clip540)" d="M2233.96 1544.91 L2241.6 1544.91 L2241.6 1518.55 L2233.29 1520.21 L2233.29 1515.95 L2241.55 1514.29 L2246.23 1514.29 L2246.23 1544.91 L2253.87 1544.91 L2253.87 1548.85 L2233.96 1548.85 L2233.96 1544.91 Z" fill="#000000" fill-rule="nonzero" fill-opacity="1" /><path clip-path="url(#clip540)" d="M2273.31 1517.37 Q2269.7 1517.37 2267.87 1520.93 Q2266.07 1524.47 2266.07 1531.6 Q2266.07 1538.71 2267.87 1542.27 Q2269.7 1545.82 2273.31 1545.82 Q2276.95 1545.82 2278.75 1542.27 Q2280.58 1538.71 2280.58 1531.6 Q2280.58 1524.47 2278.75 1520.93 Q2276.95 1517.37 2273.31 1517.37 M2273.31 1513.66 Q2279.12 1513.66 2282.18 1518.27 Q2285.26 1522.85 2285.26 1531.6 Q2285.26 1540.33 2282.18 1544.94 Q2279.12 1549.52 2273.31 1549.52 Q2267.5 1549.52 2264.42 1544.94 Q2261.37 1540.33 2261.37 1531.6 Q2261.37 1522.85 2264.42 1518.27 Q2267.5 1513.66 2273.31 1513.66 Z" fill="#000000" fill-rule="nonzero" fill-opacity="1" /><path clip-path="url(#clip540)" d="M2303.48 1517.37 Q2299.86 1517.37 2298.04 1520.93 Q2296.23 1524.47 2296.23 1531.6 Q2296.23 1538.71 2298.04 1542.27 Q2299.86 1545.82 2303.48 1545.82 Q2307.11 1545.82 2308.92 1542.27 Q2310.74 1538.71 2310.74 1531.6 Q2310.74 1524.47 2308.92 1520.93 Q2307.11 1517.37 2303.48 1517.37 M2303.48 1513.66 Q2309.29 1513.66 2312.34 1518.27 Q2315.42 1522.85 2315.42 1531.6 Q2315.42 1540.33 2312.34 1544.94 Q2309.29 1549.52 2303.48 1549.52 Q2297.67 1549.52 2294.59 1544.94 Q2291.53 1540.33 2291.53 1531.6 Q2291.53 1522.85 2294.59 1518.27 Q2297.67 1513.66 2303.48 1513.66 Z" fill="#000000" fill-rule="nonzero" fill-opacity="1" /><polyline clip-path="url(#clip540)" style="stroke:#000000; stroke-linecap:round; stroke-linejoin:round; stroke-width:4; stroke-opacity:1; fill:none" points="275.136,1486.45 275.136,47.2441 "/>
<polyline clip-path="url(#clip540)" style="stroke:#000000; stroke-linecap:round; stroke-linejoin:round; stroke-width:4; stroke-opacity:1; fill:none" points="275.136,1446.49 294.034,1446.49 "/>
<polyline clip-path="url(#clip540)" style="stroke:#000000; stroke-linecap:round; stroke-linejoin:round; stroke-width:4; stroke-opacity:1; fill:none" points="275.136,1070.74 294.034,1070.74 "/>
<polyline clip-path="url(#clip540)" style="stroke:#000000; stroke-linecap:round; stroke-linejoin:round; stroke-width:4; stroke-opacity:1; fill:none" points="275.136,694.993 294.034,694.993 "/>
<polyline clip-path="url(#clip540)" style="stroke:#000000; stroke-linecap:round; stroke-linejoin:round; stroke-width:4; stroke-opacity:1; fill:none" points="275.136,319.243 294.034,319.243 "/>
<path clip-path="url(#clip540)" d="M227.192 1432.29 Q223.581 1432.29 221.752 1435.86 Q219.947 1439.4 219.947 1446.53 Q219.947 1453.63 221.752 1457.2 Q223.581 1460.74 227.192 1460.74 Q230.826 1460.74 232.632 1457.2 Q234.46 1453.63 234.46 1446.53 Q234.46 1439.4 232.632 1435.86 Q230.826 1432.29 227.192 1432.29 M227.192 1428.59 Q233.002 1428.59 236.058 1433.19 Q239.136 1437.78 239.136 1446.53 Q239.136 1455.25 236.058 1459.86 Q233.002 1464.44 227.192 1464.44 Q221.382 1464.44 218.303 1459.86 Q215.248 1455.25 215.248 1446.53 Q215.248 1437.78 218.303 1433.19 Q221.382 1428.59 227.192 1428.59 Z" fill="#000000" fill-rule="nonzero" fill-opacity="1" /><path clip-path="url(#clip540)" d="M57.7745 1090.53 L74.0939 1090.53 L74.0939 1094.47 L52.1495 1094.47 L52.1495 1090.53 Q54.8115 1087.78 59.3949 1083.15 Q64.0013 1078.5 65.1819 1077.16 Q67.4272 1074.63 68.3068 1072.9 Q69.2096 1071.14 69.2096 1069.45 Q69.2096 1066.69 67.2652 1064.96 Q65.3439 1063.22 62.2421 1063.22 Q60.043 1063.22 57.5893 1063.98 Q55.1588 1064.75 52.381 1066.3 L52.381 1061.58 Q55.2051 1060.44 57.6588 1059.86 Q60.1124 1059.29 62.1495 1059.29 Q67.5198 1059.29 70.7142 1061.97 Q73.9087 1064.66 73.9087 1069.15 Q73.9087 1071.28 73.0985 1073.2 Q72.3115 1075.1 70.205 1077.69 Q69.6263 1078.36 66.5245 1081.58 Q63.4226 1084.77 57.7745 1090.53 Z" fill="#000000" fill-rule="nonzero" fill-opacity="1" /><path clip-path="url(#clip540)" d="M83.9086 1088.59 L88.7928 1088.59 L88.7928 1094.47 L83.9086 1094.47 L83.9086 1088.59 Z" fill="#000000" fill-rule="nonzero" fill-opacity="1" /><path clip-path="url(#clip540)" d="M108.978 1062.99 Q105.367 1062.99 103.538 1066.55 Q101.733 1070.1 101.733 1077.22 Q101.733 1084.33 103.538 1087.9 Q105.367 1091.44 108.978 1091.44 Q112.612 1091.44 114.418 1087.9 Q116.246 1084.33 116.246 1077.22 Q116.246 1070.1 114.418 1066.55 Q112.612 1062.99 108.978 1062.99 M108.978 1059.29 Q114.788 1059.29 117.844 1063.89 Q120.922 1068.47 120.922 1077.22 Q120.922 1085.95 117.844 1090.56 Q114.788 1095.14 108.978 1095.14 Q103.168 1095.14 100.089 1090.56 Q97.0335 1085.95 97.0335 1077.22 Q97.0335 1068.47 100.089 1063.89 Q103.168 1059.29 108.978 1059.29 Z" fill="#000000" fill-rule="nonzero" fill-opacity="1" /><path clip-path="url(#clip540)" d="M157.311 1069.01 L146.732 1079.63 L157.311 1090.21 L154.556 1093.01 L143.931 1082.39 L133.306 1093.01 L130.575 1090.21 L141.131 1079.63 L130.575 1069.01 L133.306 1066.21 L143.931 1076.83 L154.556 1066.21 L157.311 1069.01 Z" fill="#000000" fill-rule="nonzero" fill-opacity="1" /><path clip-path="url(#clip540)" d="M169.672 1090.53 L177.311 1090.53 L177.311 1064.17 L169.001 1065.84 L169.001 1061.58 L177.265 1059.91 L181.94 1059.91 L181.94 1090.53 L189.579 1090.53 L189.579 1094.47 L169.672 1094.47 L169.672 1090.53 Z" fill="#000000" fill-rule="nonzero" fill-opacity="1" /><path clip-path="url(#clip540)" d="M209.024 1062.99 Q205.413 1062.99 203.584 1066.55 Q201.778 1070.1 201.778 1077.22 Q201.778 1084.33 203.584 1087.9 Q205.413 1091.44 209.024 1091.44 Q212.658 1091.44 214.463 1087.9 Q216.292 1084.33 216.292 1077.22 Q216.292 1070.1 214.463 1066.55 Q212.658 1062.99 209.024 1062.99 M209.024 1059.29 Q214.834 1059.29 217.889 1063.89 Q220.968 1068.47 220.968 1077.22 Q220.968 1085.95 217.889 1090.56 Q214.834 1095.14 209.024 1095.14 Q203.214 1095.14 200.135 1090.56 Q197.079 1085.95 197.079 1077.22 Q197.079 1068.47 200.135 1063.89 Q203.214 1059.29 209.024 1059.29 Z" fill="#000000" fill-rule="nonzero" fill-opacity="1" /><path clip-path="url(#clip540)" d="M222.153 1038.98 L237.068 1038.98 L237.068 1042.18 L225.632 1042.18 L225.632 1049.06 Q226.46 1048.78 227.287 1048.65 Q228.115 1048.5 228.943 1048.5 Q233.645 1048.5 236.39 1051.07 Q239.136 1053.65 239.136 1058.05 Q239.136 1062.58 236.315 1065.1 Q233.494 1067.61 228.36 1067.61 Q226.592 1067.61 224.748 1067.3 Q222.924 1067 220.968 1066.4 L220.968 1062.58 Q222.661 1063.5 224.466 1063.96 Q226.272 1064.41 228.284 1064.41 Q231.538 1064.41 233.438 1062.7 Q235.337 1060.98 235.337 1058.05 Q235.337 1055.12 233.438 1053.41 Q231.538 1051.69 228.284 1051.69 Q226.761 1051.69 225.237 1052.03 Q223.733 1052.37 222.153 1053.09 L222.153 1038.98 Z" fill="#000000" fill-rule="nonzero" fill-opacity="1" /><path clip-path="url(#clip540)" d="M66.5939 688.234 L54.7884 706.683 L66.5939 706.683 L66.5939 688.234 M65.367 684.16 L71.2466 684.16 L71.2466 706.683 L76.1772 706.683 L76.1772 710.572 L71.2466 710.572 L71.2466 718.72 L66.5939 718.72 L66.5939 710.572 L50.9921 710.572 L50.9921 706.058 L65.367 684.16 Z" fill="#000000" fill-rule="nonzero" fill-opacity="1" /><path clip-path="url(#clip540)" d="M83.9086 712.841 L88.7928 712.841 L88.7928 718.72 L83.9086 718.72 L83.9086 712.841 Z" fill="#000000" fill-rule="nonzero" fill-opacity="1" /><path clip-path="url(#clip540)" d="M108.978 687.239 Q105.367 687.239 103.538 690.804 Q101.733 694.346 101.733 701.475 Q101.733 708.582 103.538 712.146 Q105.367 715.688 108.978 715.688 Q112.612 715.688 114.418 712.146 Q116.246 708.582 116.246 701.475 Q116.246 694.346 114.418 690.804 Q112.612 687.239 108.978 687.239 M108.978 683.535 Q114.788 683.535 117.844 688.142 Q120.922 692.725 120.922 701.475 Q120.922 710.202 117.844 714.808 Q114.788 719.392 108.978 719.392 Q103.168 719.392 100.089 714.808 Q97.0335 710.202 97.0335 701.475 Q97.0335 692.725 100.089 688.142 Q103.168 683.535 108.978 683.535 Z" fill="#000000" fill-rule="nonzero" fill-opacity="1" /><path clip-path="url(#clip540)" d="M157.311 693.258 L146.732 703.883 L157.311 714.461 L154.556 717.262 L143.931 706.637 L133.306 717.262 L130.575 714.461 L141.131 703.883 L130.575 693.258 L133.306 690.457 L143.931 701.082 L154.556 690.457 L157.311 693.258 Z" fill="#000000" fill-rule="nonzero" fill-opacity="1" /><path clip-path="url(#clip540)" d="M169.672 714.785 L177.311 714.785 L177.311 688.42 L169.001 690.086 L169.001 685.827 L177.265 684.16 L181.94 684.16 L181.94 714.785 L189.579 714.785 L189.579 718.72 L169.672 718.72 L169.672 714.785 Z" fill="#000000" fill-rule="nonzero" fill-opacity="1" /><path clip-path="url(#clip540)" d="M209.024 687.239 Q205.413 687.239 203.584 690.804 Q201.778 694.346 201.778 701.475 Q201.778 708.582 203.584 712.146 Q205.413 715.688 209.024 715.688 Q212.658 715.688 214.463 712.146 Q216.292 708.582 216.292 701.475 Q216.292 694.346 214.463 690.804 Q212.658 687.239 209.024 687.239 M209.024 683.535 Q214.834 683.535 217.889 688.142 Q220.968 692.725 220.968 701.475 Q220.968 710.202 217.889 714.808 Q214.834 719.392 209.024 719.392 Q203.214 719.392 200.135 714.808 Q197.079 710.202 197.079 701.475 Q197.079 692.725 200.135 688.142 Q203.214 683.535 209.024 683.535 Z" fill="#000000" fill-rule="nonzero" fill-opacity="1" /><path clip-path="url(#clip540)" d="M222.153 663.23 L237.068 663.23 L237.068 666.427 L225.632 666.427 L225.632 673.311 Q226.46 673.029 227.287 672.897 Q228.115 672.747 228.943 672.747 Q233.645 672.747 236.39 675.323 Q239.136 677.9 239.136 682.301 Q239.136 686.834 236.315 689.354 Q233.494 691.855 228.36 691.855 Q226.592 691.855 224.748 691.555 Q222.924 691.254 220.968 690.652 L220.968 686.834 Q222.661 687.755 224.466 688.207 Q226.272 688.658 228.284 688.658 Q231.538 688.658 233.438 686.947 Q235.337 685.235 235.337 682.301 Q235.337 679.367 233.438 677.656 Q231.538 675.944 228.284 675.944 Q226.761 675.944 225.237 676.283 Q223.733 676.621 222.153 677.336 L222.153 663.23 Z" fill="#000000" fill-rule="nonzero" fill-opacity="1" /><path clip-path="url(#clip540)" d="M64.3254 323.827 Q61.1773 323.827 59.3254 325.98 Q57.4967 328.133 57.4967 331.883 Q57.4967 335.61 59.3254 337.786 Q61.1773 339.938 64.3254 339.938 Q67.4735 339.938 69.3022 337.786 Q71.1541 335.61 71.1541 331.883 Q71.1541 328.133 69.3022 325.98 Q67.4735 323.827 64.3254 323.827 M73.6077 309.175 L73.6077 313.434 Q71.8485 312.601 70.0429 312.161 Q68.2606 311.721 66.5013 311.721 Q61.8717 311.721 59.418 314.846 Q56.9875 317.971 56.6402 324.29 Q58.006 322.277 60.0662 321.212 Q62.1263 320.124 64.6032 320.124 Q69.8115 320.124 72.8207 323.295 Q75.8531 326.443 75.8531 331.883 Q75.8531 337.207 72.705 340.425 Q69.5568 343.642 64.3254 343.642 Q58.33 343.642 55.1588 339.059 Q51.9875 334.452 51.9875 325.726 Q51.9875 317.531 55.8764 312.67 Q59.7652 307.786 66.3161 307.786 Q68.0754 307.786 69.8578 308.133 Q71.6633 308.48 73.6077 309.175 Z" fill="#000000" fill-rule="nonzero" fill-opacity="1" /><path clip-path="url(#clip540)" d="M83.9086 337.091 L88.7928 337.091 L88.7928 342.971 L83.9086 342.971 L83.9086 337.091 Z" fill="#000000" fill-rule="nonzero" fill-opacity="1" /><path clip-path="url(#clip540)" d="M108.978 311.49 Q105.367 311.49 103.538 315.054 Q101.733 318.596 101.733 325.726 Q101.733 332.832 103.538 336.397 Q105.367 339.938 108.978 339.938 Q112.612 339.938 114.418 336.397 Q116.246 332.832 116.246 325.726 Q116.246 318.596 114.418 315.054 Q112.612 311.49 108.978 311.49 M108.978 307.786 Q114.788 307.786 117.844 312.392 Q120.922 316.976 120.922 325.726 Q120.922 334.452 117.844 339.059 Q114.788 343.642 108.978 343.642 Q103.168 343.642 100.089 339.059 Q97.0335 334.452 97.0335 325.726 Q97.0335 316.976 100.089 312.392 Q103.168 307.786 108.978 307.786 Z" fill="#000000" fill-rule="nonzero" fill-opacity="1" /><path clip-path="url(#clip540)" d="M157.311 317.508 L146.732 328.133 L157.311 338.712 L154.556 341.513 L143.931 330.888 L133.306 341.513 L130.575 338.712 L141.131 328.133 L130.575 317.508 L133.306 314.707 L143.931 325.332 L154.556 314.707 L157.311 317.508 Z" fill="#000000" fill-rule="nonzero" fill-opacity="1" /><path clip-path="url(#clip540)" d="M169.672 339.036 L177.311 339.036 L177.311 312.67 L169.001 314.337 L169.001 310.078 L177.265 308.411 L181.94 308.411 L181.94 339.036 L189.579 339.036 L189.579 342.971 L169.672 342.971 L169.672 339.036 Z" fill="#000000" fill-rule="nonzero" fill-opacity="1" /><path clip-path="url(#clip540)" d="M209.024 311.49 Q205.413 311.49 203.584 315.054 Q201.778 318.596 201.778 325.726 Q201.778 332.832 203.584 336.397 Q205.413 339.938 209.024 339.938 Q212.658 339.938 214.463 336.397 Q216.292 332.832 216.292 325.726 Q216.292 318.596 214.463 315.054 Q212.658 311.49 209.024 311.49 M209.024 307.786 Q214.834 307.786 217.889 312.392 Q220.968 316.976 220.968 325.726 Q220.968 334.452 217.889 339.059 Q214.834 343.642 209.024 343.642 Q203.214 343.642 200.135 339.059 Q197.079 334.452 197.079 325.726 Q197.079 316.976 200.135 312.392 Q203.214 307.786 209.024 307.786 Z" fill="#000000" fill-rule="nonzero" fill-opacity="1" /><path clip-path="url(#clip540)" d="M222.153 287.48 L237.068 287.48 L237.068 290.678 L225.632 290.678 L225.632 297.561 Q226.46 297.279 227.287 297.148 Q228.115 296.997 228.943 296.997 Q233.645 296.997 236.39 299.574 Q239.136 302.151 239.136 306.552 Q239.136 311.084 236.315 313.604 Q233.494 316.106 228.36 316.106 Q226.592 316.106 224.748 315.805 Q222.924 315.504 220.968 314.902 L220.968 311.084 Q222.661 312.006 224.466 312.457 Q226.272 312.909 228.284 312.909 Q231.538 312.909 233.438 311.197 Q235.337 309.486 235.337 306.552 Q235.337 303.618 233.438 301.906 Q231.538 300.195 228.284 300.195 Q226.761 300.195 225.237 300.533 Q223.733 300.872 222.153 301.586 L222.153 287.48 Z" fill="#000000" fill-rule="nonzero" fill-opacity="1" /><polyline clip-path="url(#clip542)" style="stroke:#009af9; stroke-linecap:round; stroke-linejoin:round; stroke-width:4; stroke-opacity:1; fill:none" points="333.937,87.9763 353.537,92.7069 373.137,97.8225 392.737,103.542 412.338,109.864 431.938,116.771 451.538,124.243 471.138,132.262 490.738,140.811 510.339,149.871 529.939,159.426 549.539,169.462 569.139,179.962 588.739,190.911 608.34,202.297 627.94,214.104 647.54,226.32 667.14,238.931 686.74,251.924 706.34,265.285 725.941,279.003 745.541,293.065 765.141,307.457 784.741,322.169 804.341,337.186 823.942,352.497 843.542,368.09 863.142,383.953 882.742,400.073 902.342,416.437 921.942,433.035 941.543,449.853 961.143,466.88 980.743,484.104 1000.34,501.511 1019.94,519.091 1039.54,536.83 1059.14,554.716 1078.74,572.738 1098.34,590.883 1117.94,609.138 1137.54,627.492 1157.14,645.931 1176.74,664.443 1196.35,683.016 1215.95,701.637 1235.55,720.293 1255.15,738.972 1274.75,757.661 1294.35,776.348 1313.95,795.018 1333.55,813.66 1353.15,832.259 1372.75,850.804 1392.35,869.281 1411.95,887.676 1431.55,905.976 1451.15,924.168 1470.75,942.238 1490.35,960.172 1509.95,977.957 1529.55,995.578 1549.15,1013.02 1568.75,1030.27 1588.35,1047.32 1607.95,1064.14 1627.55,1080.73 1647.15,1097.07 1666.75,1113.15 1686.35,1128.94 1705.95,1144.44 1725.55,1159.63 1745.15,1174.49 1764.75,1189 1784.35,1203.16 1803.95,1216.93 1823.55,1230.32 1843.15,1243.29 1862.75,1255.83 1882.35,1267.92 1901.95,1279.55 1921.55,1290.68 1941.15,1301.31 1960.75,1311.41 1980.35,1320.95 1999.95,1329.92 2019.55,1338.29 2039.15,1346.05 2058.75,1353.16 2078.35,1359.64 2097.95,1365.48 2117.55,1370.77 2137.15,1375.71 2156.75,1380.73 2176.35,1386.72 2195.95,1395.02 2215.55,1407.06 2235.15,1422.26 2254.75,1435.4 2274.36,1442.8 2293.96,1445.72 "/>
<path clip-path="url(#clip540)" d="M2023.31 198.898 L2283.5 198.898 L2283.5 95.2176 L2023.31 95.2176  Z" fill="#ffffff" fill-rule="evenodd" fill-opacity="1"/>
<polyline clip-path="url(#clip540)" style="stroke:#000000; stroke-linecap:round; stroke-linejoin:round; stroke-width:4; stroke-opacity:1; fill:none" points="2023.31,198.898 2283.5,198.898 2283.5,95.2176 2023.31,95.2176 2023.31,198.898 "/>
<polyline clip-path="url(#clip540)" style="stroke:#009af9; stroke-linecap:round; stroke-linejoin:round; stroke-width:4; stroke-opacity:1; fill:none" points="2046.39,147.058 2184.9,147.058 "/>
<path clip-path="url(#clip540)" d="M2221.83 166.745 Q2220.02 171.375 2218.31 172.787 Q2216.6 174.199 2213.73 174.199 L2210.32 174.199 L2210.32 170.634 L2212.82 170.634 Q2214.58 170.634 2215.56 169.8 Q2216.53 168.967 2217.71 165.865 L2218.47 163.921 L2207.99 138.412 L2212.5 138.412 L2220.6 158.689 L2228.7 138.412 L2233.22 138.412 L2221.83 166.745 Z" fill="#000000" fill-rule="nonzero" fill-opacity="1" /><path clip-path="url(#clip540)" d="M2240.51 160.402 L2248.15 160.402 L2248.15 134.037 L2239.84 135.703 L2239.84 131.444 L2248.1 129.778 L2252.78 129.778 L2252.78 160.402 L2260.42 160.402 L2260.42 164.338 L2240.51 164.338 L2240.51 160.402 Z" fill="#000000" fill-rule="nonzero" fill-opacity="1" /></svg>
