<?xml version="1.0" encoding="utf-8"?>
<svg xmlns="http://www.w3.org/2000/svg" xmlns:xlink="http://www.w3.org/1999/xlink" width="600" height="400" viewBox="0 0 2400 1600">
<defs>
  <clipPath id="clip870">
    <rect x="0" y="0" width="2400" height="1600"/>
  </clipPath>
</defs>
<path clip-path="url(#clip870)" d="M0 1600 L2400 1600 L2400 0 L0 0  Z" fill="#ffffff" fill-rule="evenodd" fill-opacity="1"/>
<defs>
  <clipPath id="clip871">
    <rect x="480" y="0" width="1681" height="1600"/>
  </clipPath>
</defs>
<path clip-path="url(#clip870)" d="M193.936 1486.45 L2352.76 1486.45 L2352.76 47.2441 L193.936 47.2441  Z" fill="#ffffff" fill-rule="evenodd" fill-opacity="1"/>
<defs>
  <clipPath id="clip872">
    <rect x="193" y="47" width="2160" height="1440"/>
  </clipPath>
</defs>
<polyline clip-path="url(#clip872)" style="stroke:#000000; stroke-linecap:round; stroke-linejoin:round; stroke-width:2; stroke-opacity:0.1; fill:none" points="529.049,1486.45 529.049,47.2441 "/>
<polyline clip-path="url(#clip872)" style="stroke:#000000; stroke-linecap:round; stroke-linejoin:round; stroke-width:2; stroke-opacity:0.1; fill:none" points="1055.86,1486.45 1055.86,47.2441 "/>
<polyline clip-path="url(#clip872)" style="stroke:#000000; stroke-linecap:round; stroke-linejoin:round; stroke-width:2; stroke-opacity:0.1; fill:none" points="1582.67,1486.45 1582.67,47.2441 "/>
<polyline clip-path="url(#clip872)" style="stroke:#000000; stroke-linecap:round; stroke-linejoin:round; stroke-width:2; stroke-opacity:0.1; fill:none" points="2109.48,1486.45 2109.48,47.2441 "/>
<polyline clip-path="url(#clip872)" style="stroke:#000000; stroke-linecap:round; stroke-linejoin:round; stroke-width:2; stroke-opacity:0.1; fill:none" points="193.936,1269.42 2352.76,1269.42 "/>
<polyline clip-path="url(#clip872)" style="stroke:#000000; stroke-linecap:round; stroke-linejoin:round; stroke-width:2; stroke-opacity:0.1; fill:none" points="193.936,1006.02 2352.76,1006.02 "/>
<polyline clip-path="url(#clip872)" style="stroke:#000000; stroke-linecap:round; stroke-linejoin:round; stroke-width:2; stroke-opacity:0.1; fill:none" points="193.936,742.612 2352.76,742.612 "/>
<polyline clip-path="url(#clip872)" style="stroke:#000000; stroke-linecap:round; stroke-linejoin:round; stroke-width:2; stroke-opacity:0.1; fill:none" points="193.936,479.207 2352.76,479.207 "/>
<polyline clip-path="url(#clip872)" style="stroke:#000000; stroke-linecap:round; stroke-linejoin:round; stroke-width:2; stroke-opacity:0.1; fill:none" points="193.936,215.803 2352.76,215.803 "/>
<polyline clip-path="url(#clip870)" style="stroke:#000000; stroke-linecap:round; stroke-linejoin:round; stroke-width:4; stroke-opacity:1; fill:none" points="193.936,1486.45 2352.76,1486.45 "/>
<polyline clip-path="url(#clip870)" style="stroke:#000000; stroke-linecap:round; stroke-linejoin:round; stroke-width:4; stroke-opacity:1; fill:none" points="529.049,1486.45 529.049,1467.55 "/>
<polyline clip-path="url(#clip870)" style="stroke:#000000; stroke-linecap:round; stroke-linejoin:round; stroke-width:4; stroke-opacity:1; fill:none" points="1055.86,1486.45 1055.86,1467.55 "/>
<polyline clip-path="url(#clip870)" style="stroke:#000000; stroke-linecap:round; stroke-linejoin:round; stroke-width:4; stroke-opacity:1; fill:none" points="1582.67,1486.45 1582.67,1467.55 "/>
<polyline clip-path="url(#clip870)" style="stroke:#000000; stroke-linecap:round; stroke-linejoin:round; stroke-width:4; stroke-opacity:1; fill:none" points="2109.48,1486.45 2109.48,1467.55 "/>
<path clip-path="url(#clip870)" d="M529.049 1517.37 Q525.438 1517.37 523.609 1520.93 Q521.804 1524.47 521.804 1531.6 Q521.804 1538.71 523.609 1542.27 Q525.438 1545.82 529.049 1545.82 Q532.683 1545.82 534.489 1542.27 Q536.317 1538.71 536.317 1531.6 Q536.317 1524.47 534.489 1520.93 Q532.683 1517.37 529.049 1517.37 M529.049 1513.66 Q534.859 1513.66 537.915 1518.27 Q540.993 1522.85 540.993 1531.6 Q540.993 1540.33 537.915 1544.94 Q534.859 1549.52 529.049 1549.52 Q523.239 1549.52 520.16 1544.94 Q517.105 1540.33 517.105 1531.6 Q517.105 1522.85 520.16 1518.27 Q523.239 1513.66 529.049 1513.66 Z" fill="#000000" fill-rule="nonzero" fill-opacity="1" /><path clip-path="url(#clip870)" d="M1046.14 1514.29 L1064.49 1514.29 L1064.49 1518.22 L1050.42 1518.22 L1050.42 1526.7 Q1051.44 1526.35 1052.46 1526.19 Q1053.47 1526 1054.49 1526 Q1060.28 1526 1063.66 1529.17 Q1067.04 1532.34 1067.04 1537.76 Q1067.04 1543.34 1063.57 1546.44 Q1060.09 1549.52 1053.78 1549.52 Q1051.6 1549.52 1049.33 1549.15 Q1047.09 1548.78 1044.68 1548.04 L1044.68 1543.34 Q1046.76 1544.47 1048.98 1545.03 Q1051.21 1545.58 1053.68 1545.58 Q1057.69 1545.58 1060.03 1543.48 Q1062.36 1541.37 1062.36 1537.76 Q1062.36 1534.15 1060.03 1532.04 Q1057.69 1529.94 1053.68 1529.94 Q1051.81 1529.94 1049.93 1530.35 Q1048.08 1530.77 1046.14 1531.65 L1046.14 1514.29 Z" fill="#000000" fill-rule="nonzero" fill-opacity="1" /><path clip-path="url(#clip870)" d="M1557.36 1544.91 L1564.99 1544.91 L1564.99 1518.55 L1556.68 1520.21 L1556.68 1515.95 L1564.95 1514.29 L1569.62 1514.29 L1569.62 1544.91 L1577.26 1544.91 L1577.26 1548.85 L1557.36 1548.85 L1557.36 1544.91 Z" fill="#000000" fill-rule="nonzero" fill-opacity="1" /><path clip-path="url(#clip870)" d="M1596.71 1517.37 Q1593.1 1517.37 1591.27 1520.93 Q1589.46 1524.47 1589.46 1531.6 Q1589.46 1538.71 1591.27 1542.27 Q1593.1 1545.82 1596.71 1545.82 Q1600.34 1545.82 1602.15 1542.27 Q1603.98 1538.71 1603.98 1531.6 Q1603.98 1524.47 1602.15 1520.93 Q1600.34 1517.37 1596.71 1517.37 M1596.71 1513.66 Q1602.52 1513.66 1605.57 1518.27 Q1608.65 1522.85 1608.65 1531.6 Q1608.65 1540.33 1605.57 1544.94 Q1602.52 1549.52 1596.71 1549.52 Q1590.9 1549.52 1587.82 1544.94 Q1584.76 1540.33 1584.76 1531.6 Q1584.76 1522.85 1587.82 1518.27 Q1590.9 1513.66 1596.71 1513.66 Z" fill="#000000" fill-rule="nonzero" fill-opacity="1" /><path clip-path="url(#clip870)" d="M2084.66 1544.91 L2092.3 1544.91 L2092.3 1518.55 L2083.99 1520.21 L2083.99 1515.95 L2092.26 1514.29 L2096.93 1514.29 L2096.93 1544.91 L2104.57 1544.91 L2104.57 1548.85 L2084.66 1548.85 L2084.66 1544.91 Z" fill="#000000" fill-rule="nonzero" fill-opacity="1" /><path clip-path="url(#clip870)" d="M2114.06 1514.29 L2132.42 1514.29 L2132.42 1518.22 L2118.34 1518.22 L2118.34 1526.7 Q2119.36 1526.35 2120.38 1526.19 Q2121.4 1526 2122.42 1526 Q2128.2 1526 2131.58 1529.17 Q2134.96 1532.34 2134.96 1537.76 Q2134.96 1543.34 2131.49 1546.44 Q2128.02 1549.52 2121.7 1549.52 Q2119.52 1549.52 2117.26 1549.15 Q2115.01 1548.78 2112.6 1548.04 L2112.6 1543.34 Q2114.69 1544.47 2116.91 1545.03 Q2119.13 1545.58 2121.61 1545.58 Q2125.61 1545.58 2127.95 1543.48 Q2130.29 1541.37 2130.29 1537.76 Q2130.29 1534.15 2127.95 1532.04 Q2125.61 1529.94 2121.61 1529.94 Q2119.73 1529.94 2117.86 1530.35 Q2116.01 1530.77 2114.06 1531.65 L2114.06 1514.29 Z" fill="#000000" fill-rule="nonzero" fill-opacity="1" /><polyline clip-path="url(#clip870)" style="stroke:#000000; stroke-linecap:round; stroke-linejoin:round; stroke-width:4; stroke-opacity:1; fill:none" points="193.936,1486.45 193.936,47.2441 "/>
<polyline clip-path="url(#clip870)" style="stroke:#000000; stroke-linecap:round; stroke-linejoin:round; stroke-width:4; stroke-opacity:1; fill:none" points="193.936,1269.42 212.834,1269.42 "/>
<polyline clip-path="url(#clip870)" style="stroke:#000000; stroke-linecap:round; stroke-linejoin:round; stroke-width:4; stroke-opacity:1; fill:none" points="193.936,1006.02 212.834,1006.02 "/>
<polyline clip-path="url(#clip870)" style="stroke:#000000; stroke-linecap:round; stroke-linejoin:round; stroke-width:4; stroke-opacity:1; fill:none" points="193.936,742.612 212.834,742.612 "/>
<polyline clip-path="url(#clip870)" style="stroke:#000000; stroke-linecap:round; stroke-linejoin:round; stroke-width:4; stroke-opacity:1; fill:none" points="193.936,479.207 212.834,479.207 "/>
<polyline clip-path="url(#clip870)" style="stroke:#000000; stroke-linecap:round; stroke-linejoin:round; stroke-width:4; stroke-opacity:1; fill:none" points="193.936,215.803 212.834,215.803 "/>
<path clip-path="url(#clip870)" d="M50.9921 1269.87 L80.6679 1269.87 L80.6679 1273.81 L50.9921 1273.81 L50.9921 1269.87 Z" fill="#000000" fill-rule="nonzero" fill-opacity="1" /><path clip-path="url(#clip870)" d="M90.8067 1252.14 L109.163 1252.14 L109.163 1256.08 L95.0891 1256.08 L95.0891 1264.55 Q96.1076 1264.2 97.1261 1264.04 Q98.1447 1263.85 99.1632 1263.85 Q104.95 1263.85 108.33 1267.03 Q111.709 1270.2 111.709 1275.61 Q111.709 1281.19 108.237 1284.29 Q104.765 1287.37 98.4456 1287.37 Q96.2697 1287.37 94.0012 1287 Q91.7558 1286.63 89.3484 1285.89 L89.3484 1281.19 Q91.4317 1282.33 93.6539 1282.88 Q95.8761 1283.44 98.353 1283.44 Q102.358 1283.44 104.696 1281.33 Q107.033 1279.22 107.033 1275.61 Q107.033 1272 104.696 1269.9 Q102.358 1267.79 98.353 1267.79 Q96.478 1267.79 94.603 1268.21 Q92.7512 1268.62 90.8067 1269.5 L90.8067 1252.14 Z" fill="#000000" fill-rule="nonzero" fill-opacity="1" /><path clip-path="url(#clip870)" d="M120.922 1280.82 L125.807 1280.82 L125.807 1286.7 L120.922 1286.7 L120.922 1280.82 Z" fill="#000000" fill-rule="nonzero" fill-opacity="1" /><path clip-path="url(#clip870)" d="M145.992 1255.22 Q142.381 1255.22 140.552 1258.79 Q138.746 1262.33 138.746 1269.46 Q138.746 1276.56 140.552 1280.13 Q142.381 1283.67 145.992 1283.67 Q149.626 1283.67 151.431 1280.13 Q153.26 1276.56 153.26 1269.46 Q153.26 1262.33 151.431 1258.79 Q149.626 1255.22 145.992 1255.22 M145.992 1251.52 Q151.802 1251.52 154.857 1256.12 Q157.936 1260.71 157.936 1269.46 Q157.936 1278.18 154.857 1282.79 Q151.802 1287.37 145.992 1287.37 Q140.181 1287.37 137.103 1282.79 Q134.047 1278.18 134.047 1269.46 Q134.047 1260.71 137.103 1256.12 Q140.181 1251.52 145.992 1251.52 Z" fill="#000000" fill-rule="nonzero" fill-opacity="1" /><path clip-path="url(#clip870)" d="M51.9875 1006.47 L81.6633 1006.47 L81.6633 1010.4 L51.9875 1010.4 L51.9875 1006.47 Z" fill="#000000" fill-rule="nonzero" fill-opacity="1" /><path clip-path="url(#clip870)" d="M95.7836 1019.36 L112.103 1019.36 L112.103 1023.3 L90.1586 1023.3 L90.1586 1019.36 Q92.8206 1016.61 97.4039 1011.98 Q102.01 1007.32 103.191 1005.98 Q105.436 1003.46 106.316 1001.72 Q107.219 999.964 107.219 998.274 Q107.219 995.519 105.274 993.783 Q103.353 992.047 100.251 992.047 Q98.0521 992.047 95.5984 992.811 Q93.1678 993.575 90.3901 995.126 L90.3901 990.404 Q93.2141 989.269 95.6678 988.691 Q98.1215 988.112 100.159 988.112 Q105.529 988.112 108.723 990.797 Q111.918 993.482 111.918 997.973 Q111.918 1000.1 111.108 1002.02 Q110.321 1003.92 108.214 1006.51 Q107.635 1007.19 104.534 1010.4 Q101.432 1013.6 95.7836 1019.36 Z" fill="#000000" fill-rule="nonzero" fill-opacity="1" /><path clip-path="url(#clip870)" d="M121.918 1017.42 L126.802 1017.42 L126.802 1023.3 L121.918 1023.3 L121.918 1017.42 Z" fill="#000000" fill-rule="nonzero" fill-opacity="1" /><path clip-path="url(#clip870)" d="M137.033 988.737 L155.39 988.737 L155.39 992.672 L141.316 992.672 L141.316 1001.14 Q142.334 1000.8 143.353 1000.64 Q144.371 1000.45 145.39 1000.45 Q151.177 1000.45 154.556 1003.62 Q157.936 1006.79 157.936 1012.21 Q157.936 1017.79 154.464 1020.89 Q150.992 1023.97 144.672 1023.97 Q142.496 1023.97 140.228 1023.6 Q137.982 1023.23 135.575 1022.49 L135.575 1017.79 Q137.658 1018.92 139.881 1019.48 Q142.103 1020.03 144.58 1020.03 Q148.584 1020.03 150.922 1017.93 Q153.26 1015.82 153.26 1012.21 Q153.26 1008.6 150.922 1006.49 Q148.584 1004.39 144.58 1004.39 Q142.705 1004.39 140.83 1004.8 Q138.978 1005.22 137.033 1006.1 L137.033 988.737 Z" fill="#000000" fill-rule="nonzero" fill-opacity="1" /><path clip-path="url(#clip870)" d="M100.76 728.411 Q97.1493 728.411 95.3206 731.976 Q93.515 735.517 93.515 742.647 Q93.515 749.753 95.3206 753.318 Q97.1493 756.86 100.76 756.86 Q104.395 756.86 106.2 753.318 Q108.029 749.753 108.029 742.647 Q108.029 735.517 106.2 731.976 Q104.395 728.411 100.76 728.411 M100.76 724.707 Q106.571 724.707 109.626 729.314 Q112.705 733.897 112.705 742.647 Q112.705 751.374 109.626 755.98 Q106.571 760.563 100.76 760.563 Q94.9502 760.563 91.8715 755.98 Q88.816 751.374 88.816 742.647 Q88.816 733.897 91.8715 729.314 Q94.9502 724.707 100.76 724.707 Z" fill="#000000" fill-rule="nonzero" fill-opacity="1" /><path clip-path="url(#clip870)" d="M120.922 754.013 L125.807 754.013 L125.807 759.892 L120.922 759.892 L120.922 754.013 Z" fill="#000000" fill-rule="nonzero" fill-opacity="1" /><path clip-path="url(#clip870)" d="M145.992 728.411 Q142.381 728.411 140.552 731.976 Q138.746 735.517 138.746 742.647 Q138.746 749.753 140.552 753.318 Q142.381 756.86 145.992 756.86 Q149.626 756.86 151.431 753.318 Q153.26 749.753 153.26 742.647 Q153.26 735.517 151.431 731.976 Q149.626 728.411 145.992 728.411 M145.992 724.707 Q151.802 724.707 154.857 729.314 Q157.936 733.897 157.936 742.647 Q157.936 751.374 154.857 755.98 Q151.802 760.563 145.992 760.563 Q140.181 760.563 137.103 755.98 Q134.047 751.374 134.047 742.647 Q134.047 733.897 137.103 729.314 Q140.181 724.707 145.992 724.707 Z" fill="#000000" fill-rule="nonzero" fill-opacity="1" /><path clip-path="url(#clip870)" d="M95.7836 492.552 L112.103 492.552 L112.103 496.487 L90.1586 496.487 L90.1586 492.552 Q92.8206 489.798 97.4039 485.168 Q102.01 480.515 103.191 479.173 Q105.436 476.65 106.316 474.913 Q107.219 473.154 107.219 471.464 Q107.219 468.71 105.274 466.974 Q103.353 465.238 100.251 465.238 Q98.0521 465.238 95.5984 466.002 Q93.1678 466.765 90.3901 468.316 L90.3901 463.594 Q93.2141 462.46 95.6678 461.881 Q98.1215 461.302 100.159 461.302 Q105.529 461.302 108.723 463.988 Q111.918 466.673 111.918 471.164 Q111.918 473.293 111.108 475.214 Q110.321 477.113 108.214 479.705 Q107.635 480.376 104.534 483.594 Q101.432 486.788 95.7836 492.552 Z" fill="#000000" fill-rule="nonzero" fill-opacity="1" /><path clip-path="url(#clip870)" d="M121.918 490.608 L126.802 490.608 L126.802 496.487 L121.918 496.487 L121.918 490.608 Z" fill="#000000" fill-rule="nonzero" fill-opacity="1" /><path clip-path="url(#clip870)" d="M137.033 461.927 L155.39 461.927 L155.39 465.863 L141.316 465.863 L141.316 474.335 Q142.334 473.988 143.353 473.826 Q144.371 473.64 145.39 473.64 Q151.177 473.64 154.556 476.812 Q157.936 479.983 157.936 485.4 Q157.936 490.978 154.464 494.08 Q150.992 497.159 144.672 497.159 Q142.496 497.159 140.228 496.788 Q137.982 496.418 135.575 495.677 L135.575 490.978 Q137.658 492.112 139.881 492.668 Q142.103 493.224 144.58 493.224 Q148.584 493.224 150.922 491.117 Q153.26 489.011 153.26 485.4 Q153.26 481.788 150.922 479.682 Q148.584 477.576 144.58 477.576 Q142.705 477.576 140.83 477.992 Q138.978 478.409 137.033 479.288 L137.033 461.927 Z" fill="#000000" fill-rule="nonzero" fill-opacity="1" /><path clip-path="url(#clip870)" d="M90.8067 198.523 L109.163 198.523 L109.163 202.458 L95.0891 202.458 L95.0891 210.93 Q96.1076 210.583 97.1261 210.421 Q98.1447 210.236 99.1632 210.236 Q104.95 210.236 108.33 213.407 Q111.709 216.578 111.709 221.995 Q111.709 227.573 108.237 230.675 Q104.765 233.754 98.4456 233.754 Q96.2697 233.754 94.0012 233.384 Q91.7558 233.013 89.3484 232.273 L89.3484 227.573 Q91.4317 228.708 93.6539 229.263 Q95.8761 229.819 98.353 229.819 Q102.358 229.819 104.696 227.712 Q107.033 225.606 107.033 221.995 Q107.033 218.384 104.696 216.277 Q102.358 214.171 98.353 214.171 Q96.478 214.171 94.603 214.587 Q92.7512 215.004 90.8067 215.884 L90.8067 198.523 Z" fill="#000000" fill-rule="nonzero" fill-opacity="1" /><path clip-path="url(#clip870)" d="M120.922 227.203 L125.807 227.203 L125.807 233.083 L120.922 233.083 L120.922 227.203 Z" fill="#000000" fill-rule="nonzero" fill-opacity="1" /><path clip-path="url(#clip870)" d="M145.992 201.601 Q142.381 201.601 140.552 205.166 Q138.746 208.708 138.746 215.837 Q138.746 222.944 140.552 226.509 Q142.381 230.05 145.992 230.05 Q149.626 230.05 151.431 226.509 Q153.26 222.944 153.26 215.837 Q153.26 208.708 151.431 205.166 Q149.626 201.601 145.992 201.601 M145.992 197.898 Q151.802 197.898 154.857 202.504 Q157.936 207.087 157.936 215.837 Q157.936 224.564 154.857 229.171 Q151.802 233.754 145.992 233.754 Q140.181 233.754 137.103 229.171 Q134.047 224.564 134.047 215.837 Q134.047 207.087 137.103 202.504 Q140.181 197.898 145.992 197.898 Z" fill="#000000" fill-rule="nonzero" fill-opacity="1" /><path clip-path="url(#clip872)" d="M925.31 179.807 L940.722 194.469 L1045.2 126.092 L1038.04 106.067 L925.31 179.807  Z" fill="#009af9" fill-rule="evenodd" fill-opacity="1"/>
<polyline clip-path="url(#clip872)" style="stroke:#000000; stroke-linecap:round; stroke-linejoin:round; stroke-width:1; stroke-opacity:1; fill:none" points="925.31,179.807 940.722,194.469 1045.2,126.092 1038.04,106.067 925.31,179.807 "/>
<path clip-path="url(#clip872)" d="M1045.2 126.092 L1203.61 109.103 L1206.04 87.9763 L1038.04 106.067 L1045.2 126.092  Z" fill="#e26f46" fill-rule="evenodd" fill-opacity="1"/>
<polyline clip-path="url(#clip872)" style="stroke:#000000; stroke-linecap:round; stroke-linejoin:round; stroke-width:1; stroke-opacity:1; fill:none" points="1045.2,126.092 1203.61,109.103 1206.04,87.9763 1038.04,106.067 1045.2,126.092 "/>
<path clip-path="url(#clip872)" d="M1376.72 169.554 L1387.56 151.259 L1206.04 87.9763 L1203.61 109.103 L1376.72 169.554  Z" fill="#3da44d" fill-rule="evenodd" fill-opacity="1"/>
<polyline clip-path="url(#clip872)" style="stroke:#000000; stroke-linecap:round; stroke-linejoin:round; stroke-width:1; stroke-opacity:1; fill:none" points="1376.72,169.554 1387.56,151.259 1206.04,87.9763 1203.61,109.103 1376.72,169.554 "/>
<path clip-path="url(#clip872)" d="M1525.17 303.378 L1541.8 290.117 L1387.56 151.259 L1376.72 169.554 L1525.17 303.378  Z" fill="#c271d2" fill-rule="evenodd" fill-opacity="1"/>
<polyline clip-path="url(#clip872)" style="stroke:#000000; stroke-linecap:round; stroke-linejoin:round; stroke-width:1; stroke-opacity:1; fill:none" points="1525.17,303.378 1541.8,290.117 1387.56,151.259 1376.72,169.554 1525.17,303.378 "/>
<path clip-path="url(#clip872)" d="M1622.04 476.75 L1641.7 468.637 L1541.8 290.117 L1525.17 303.378 L1622.04 476.75  Z" fill="#ac8d18" fill-rule="evenodd" fill-opacity="1"/>
<polyline clip-path="url(#clip872)" style="stroke:#000000; stroke-linecap:round; stroke-linejoin:round; stroke-width:1; stroke-opacity:1; fill:none" points="1622.04,476.75 1641.7,468.637 1541.8,290.117 1525.17,303.378 1622.04,476.75 "/>
<path clip-path="url(#clip872)" d="M1661.61 617.85 L1682.5 613.872 L1641.7 468.637 L1622.04 476.75 L1661.61 617.85  Z" fill="#00a9ad" fill-rule="evenodd" fill-opacity="1"/>
<polyline clip-path="url(#clip872)" style="stroke:#000000; stroke-linecap:round; stroke-linejoin:round; stroke-width:1; stroke-opacity:1; fill:none" points="1661.61,617.85 1682.5,613.872 1641.7,468.637 1622.04,476.75 1661.61,617.85 "/>
<path clip-path="url(#clip872)" d="M1674.78 745.378 L1696.04 744.83 L1682.5 613.872 L1661.61 617.85 L1674.78 745.378  Z" fill="#ed5d92" fill-rule="evenodd" fill-opacity="1"/>
<polyline clip-path="url(#clip872)" style="stroke:#000000; stroke-linecap:round; stroke-linejoin:round; stroke-width:1; stroke-opacity:1; fill:none" points="1674.78,745.378 1696.04,744.83 1682.5,613.872 1661.61,617.85 1674.78,745.378 "/>
<path clip-path="url(#clip872)" d="M1668.18 873.746 L1689.25 876.625 L1696.04 744.83 L1674.78 745.378 L1668.18 873.746  Z" fill="#c68125" fill-rule="evenodd" fill-opacity="1"/>
<polyline clip-path="url(#clip872)" style="stroke:#000000; stroke-linecap:round; stroke-linejoin:round; stroke-width:1; stroke-opacity:1; fill:none" points="1668.18,873.746 1689.25,876.625 1696.04,744.83 1674.78,745.378 1668.18,873.746 "/>
<path clip-path="url(#clip872)" d="M1635.9 1017.89 L1656.17 1024.34 L1689.25 876.625 L1668.18 873.746 L1635.9 1017.89  Z" fill="#00a98d" fill-rule="evenodd" fill-opacity="1"/>
<polyline clip-path="url(#clip872)" style="stroke:#000000; stroke-linecap:round; stroke-linejoin:round; stroke-width:1; stroke-opacity:1; fill:none" points="1635.9,1017.89 1656.17,1024.34 1689.25,876.625 1668.18,873.746 1635.9,1017.89 "/>
<path clip-path="url(#clip872)" d="M1588.55 1131.15 L1607.32 1141.15 L1656.17 1024.34 L1635.9 1017.89 L1588.55 1131.15  Z" fill="#8e971d" fill-rule="evenodd" fill-opacity="1"/>
<polyline clip-path="url(#clip872)" style="stroke:#000000; stroke-linecap:round; stroke-linejoin:round; stroke-width:1; stroke-opacity:1; fill:none" points="1588.55,1131.15 1607.32,1141.15 1656.17,1024.34 1635.9,1017.89 1588.55,1131.15 "/>
<path clip-path="url(#clip872)" d="M1513.24 1245.22 L1529.58 1258.82 L1607.32 1141.15 L1588.55 1131.15 L1513.24 1245.22  Z" fill="#00a8cb" fill-rule="evenodd" fill-opacity="1"/>
<polyline clip-path="url(#clip872)" style="stroke:#000000; stroke-linecap:round; stroke-linejoin:round; stroke-width:1; stroke-opacity:1; fill:none" points="1513.24,1245.22 1529.58,1258.82 1607.32,1141.15 1588.55,1131.15 1513.24,1245.22 "/>
<path clip-path="url(#clip872)" d="M1420.52 1334.51 L1433.3 1351.51 L1529.58 1258.82 L1513.24 1245.22 L1420.52 1334.51  Z" fill="#9b7fe8" fill-rule="evenodd" fill-opacity="1"/>
<polyline clip-path="url(#clip872)" style="stroke:#000000; stroke-linecap:round; stroke-linejoin:round; stroke-width:1; stroke-opacity:1; fill:none" points="1420.52,1334.51 1433.3,1351.51 1529.58,1258.82 1513.24,1245.22 1420.52,1334.51 "/>
<path clip-path="url(#clip872)" d="M1315.55 1395.05 L1323.65 1414.71 L1433.3 1351.51 L1420.52 1334.51 L1315.55 1395.05  Z" fill="#608cf6" fill-rule="evenodd" fill-opacity="1"/>
<polyline clip-path="url(#clip872)" style="stroke:#000000; stroke-linecap:round; stroke-linejoin:round; stroke-width:1; stroke-opacity:1; fill:none" points="1315.55,1395.05 1323.65,1414.71 1433.3,1351.51 1420.52,1334.51 1315.55,1395.05 "/>
<path clip-path="url(#clip872)" d="M1203.61 1424.6 L1206.14 1445.72 L1323.65 1414.71 L1315.55 1395.05 L1203.61 1424.6  Z" fill="#f05f73" fill-rule="evenodd" fill-opacity="1"/>
<polyline clip-path="url(#clip872)" style="stroke:#000000; stroke-linecap:round; stroke-linejoin:round; stroke-width:1; stroke-opacity:1; fill:none" points="1203.61,1424.6 1206.14,1445.72 1323.65,1414.71 1315.55,1395.05 1203.61,1424.6 "/>
<path clip-path="url(#clip872)" d="M1094.78 1443.37 L1206.14 1445.72 L1203.61 1424.6 L1098.82 1422.48 L1094.78 1443.37  Z" fill="#dd64b5" fill-rule="evenodd" fill-opacity="1"/>
<polyline clip-path="url(#clip872)" style="stroke:#000000; stroke-linecap:round; stroke-linejoin:round; stroke-width:1; stroke-opacity:1; fill:none" points="1094.78,1443.37 1206.14,1445.72 1203.61,1424.6 1098.82,1422.48 1094.78,1443.37 "/>
<path clip-path="url(#clip872)" d="M1094.78 1443.37 L1098.82 1422.48 L996.037 1383.58 L984.9 1401.7 L1094.78 1443.37  Z" fill="#6b9e32" fill-rule="evenodd" fill-opacity="1"/>
<polyline clip-path="url(#clip872)" style="stroke:#000000; stroke-linecap:round; stroke-linejoin:round; stroke-width:1; stroke-opacity:1; fill:none" points="1094.78,1443.37 1098.82,1422.48 996.037,1383.58 984.9,1401.7 1094.78,1443.37 "/>
<path clip-path="url(#clip872)" d="M984.9 1401.7 L996.037 1383.58 L918.484 1312.73 L900.855 1324.62 L984.9 1401.7  Z" fill="#009af9" fill-rule="evenodd" fill-opacity="1"/>
<polyline clip-path="url(#clip872)" style="stroke:#000000; stroke-linecap:round; stroke-linejoin:round; stroke-width:1; stroke-opacity:1; fill:none" points="984.9,1401.7 996.037,1383.58 918.484,1312.73 900.855,1324.62 984.9,1401.7 "/>
<path clip-path="url(#clip872)" d="M900.855 1324.62 L918.484 1312.73 L872.529 1189.2 L851.551 1193 L900.855 1324.62  Z" fill="#e26f46" fill-rule="evenodd" fill-opacity="1"/>
<polyline clip-path="url(#clip872)" style="stroke:#000000; stroke-linecap:round; stroke-linejoin:round; stroke-width:1; stroke-opacity:1; fill:none" points="900.855,1324.62 918.484,1312.73 872.529,1189.2 851.551,1193 900.855,1324.62 "/>
<path clip-path="url(#clip872)" d="M851.551 1193 L872.529 1189.2 L871.913 994.909 L850.65 994.943 L851.551 1193  Z" fill="#3da44d" fill-rule="evenodd" fill-opacity="1"/>
<polyline clip-path="url(#clip872)" style="stroke:#000000; stroke-linecap:round; stroke-linejoin:round; stroke-width:1; stroke-opacity:1; fill:none" points="851.551,1193 872.529,1189.2 871.913,994.909 850.65,994.943 851.551,1193 "/>
<path clip-path="url(#clip872)" d="M850.65 994.943 L871.913 994.909 L871.913 800.613 L850.65 800.432 L850.65 994.943  Z" fill="#c271d2" fill-rule="evenodd" fill-opacity="1"/>
<polyline clip-path="url(#clip872)" style="stroke:#000000; stroke-linecap:round; stroke-linejoin:round; stroke-width:1; stroke-opacity:1; fill:none" points="850.65,994.943 871.913,994.909 871.913,800.613 850.65,800.432 850.65,994.943 "/>
<path clip-path="url(#clip872)" d="M850.65 800.432 L871.913 800.613 L871.913 632.348 L850.65 631.953 L850.65 800.432  Z" fill="#ac8d18" fill-rule="evenodd" fill-opacity="1"/>
<polyline clip-path="url(#clip872)" style="stroke:#000000; stroke-linecap:round; stroke-linejoin:round; stroke-width:1; stroke-opacity:1; fill:none" points="850.65,800.432 871.913,800.613 871.913,632.348 850.65,631.953 850.65,800.432 "/>
<path clip-path="url(#clip872)" d="M850.65 631.953 L871.913 632.348 L871.913 464.084 L850.65 463.689 L850.65 631.953  Z" fill="#00a9ad" fill-rule="evenodd" fill-opacity="1"/>
<polyline clip-path="url(#clip872)" style="stroke:#000000; stroke-linecap:round; stroke-linejoin:round; stroke-width:1; stroke-opacity:1; fill:none" points="850.65,631.953 871.913,632.348 871.913,464.084 850.65,463.689 850.65,631.953 "/>
<path clip-path="url(#clip872)" d="M850.65 463.689 L871.913 464.084 L881.287 295.993 L860.811 290.236 L850.65 463.689  Z" fill="#ed5d92" fill-rule="evenodd" fill-opacity="1"/>
<polyline clip-path="url(#clip872)" style="stroke:#000000; stroke-linecap:round; stroke-linejoin:round; stroke-width:1; stroke-opacity:1; fill:none" points="850.65,463.689 871.913,464.084 881.287,295.993 860.811,290.236 850.65,463.689 "/>
<path clip-path="url(#clip872)" d="M860.811 290.236 L881.287 295.993 L940.722 194.469 L925.31 179.807 L860.811 290.236  Z" fill="#c68125" fill-rule="evenodd" fill-opacity="1"/>
<polyline clip-path="url(#clip872)" style="stroke:#000000; stroke-linecap:round; stroke-linejoin:round; stroke-width:1; stroke-opacity:1; fill:none" points="860.811,290.236 881.287,295.993 940.722,194.469 925.31,179.807 860.811,290.236 "/>
</svg>
