<?xml version="1.0" encoding="utf-8"?>
<svg xmlns="http://www.w3.org/2000/svg" xmlns:xlink="http://www.w3.org/1999/xlink" width="600" height="400" viewBox="0 0 2400 1600">
<defs>
  <clipPath id="clip100">
    <rect x="0" y="0" width="2400" height="1600"/>
  </clipPath>
</defs>
<path clip-path="url(#clip100)" d="M0 1600 L2400 1600 L2400 0 L0 0  Z" fill="#ffffff" fill-rule="evenodd" fill-opacity="1"/>
<defs>
  <clipPath id="clip101">
    <rect x="480" y="0" width="1681" height="1600"/>
  </clipPath>
</defs>
<path clip-path="url(#clip100)" d="M398.884 1362.7 L2352.76 1362.7 L2352.76 47.2441 L398.884 47.2441  Z" fill="#ffffff" fill-rule="evenodd" fill-opacity="1"/>
<defs>
  <clipPath id="clip102">
    <rect x="398" y="47" width="1955" height="1316"/>
  </clipPath>
</defs>
<polyline clip-path="url(#clip102)" style="stroke:#000000; stroke-linecap:round; stroke-linejoin:round; stroke-width:2; stroke-opacity:0.1; fill:none" points="398.884,1362.7 398.884,47.2441 "/>
<polyline clip-path="url(#clip102)" style="stroke:#000000; stroke-linecap:round; stroke-linejoin:round; stroke-width:2; stroke-opacity:0.1; fill:none" points="789.659,1362.7 789.659,47.2441 "/>
<polyline clip-path="url(#clip102)" style="stroke:#000000; stroke-linecap:round; stroke-linejoin:round; stroke-width:2; stroke-opacity:0.1; fill:none" points="1180.43,1362.7 1180.43,47.2441 "/>
<polyline clip-path="url(#clip102)" style="stroke:#000000; stroke-linecap:round; stroke-linejoin:round; stroke-width:2; stroke-opacity:0.1; fill:none" points="1571.21,1362.7 1571.21,47.2441 "/>
<polyline clip-path="url(#clip102)" style="stroke:#000000; stroke-linecap:round; stroke-linejoin:round; stroke-width:2; stroke-opacity:0.1; fill:none" points="1961.98,1362.7 1961.98,47.2441 "/>
<polyline clip-path="url(#clip102)" style="stroke:#000000; stroke-linecap:round; stroke-linejoin:round; stroke-width:2; stroke-opacity:0.1; fill:none" points="2352.76,1362.7 2352.76,47.2441 "/>
<polyline clip-path="url(#clip102)" style="stroke:#000000; stroke-linecap:round; stroke-linejoin:round; stroke-width:2; stroke-opacity:0.1; fill:none" points="398.884,1326.53 2352.76,1326.53 "/>
<polyline clip-path="url(#clip102)" style="stroke:#000000; stroke-linecap:round; stroke-linejoin:round; stroke-width:2; stroke-opacity:0.1; fill:none" points="398.884,1079.79 2352.76,1079.79 "/>
<polyline clip-path="url(#clip102)" style="stroke:#000000; stroke-linecap:round; stroke-linejoin:round; stroke-width:2; stroke-opacity:0.1; fill:none" points="398.884,833.043 2352.76,833.043 "/>
<polyline clip-path="url(#clip102)" style="stroke:#000000; stroke-linecap:round; stroke-linejoin:round; stroke-width:2; stroke-opacity:0.1; fill:none" points="398.884,586.298 2352.76,586.298 "/>
<polyline clip-path="url(#clip102)" style="stroke:#000000; stroke-linecap:round; stroke-linejoin:round; stroke-width:2; stroke-opacity:0.1; fill:none" points="398.884,339.554 2352.76,339.554 "/>
<polyline clip-path="url(#clip102)" style="stroke:#000000; stroke-linecap:round; stroke-linejoin:round; stroke-width:2; stroke-opacity:0.1; fill:none" points="398.884,92.8096 2352.76,92.8096 "/>
<polyline clip-path="url(#clip100)" style="stroke:#000000; stroke-linecap:round; stroke-linejoin:round; stroke-width:4; stroke-opacity:1; fill:none" points="398.884,1362.7 2352.76,1362.7 "/>
<polyline clip-path="url(#clip100)" style="stroke:#000000; stroke-linecap:round; stroke-linejoin:round; stroke-width:4; stroke-opacity:1; fill:none" points="398.884,1362.7 398.884,1343.8 "/>
<polyline clip-path="url(#clip100)" style="stroke:#000000; stroke-linecap:round; stroke-linejoin:round; stroke-width:4; stroke-opacity:1; fill:none" points="789.659,1362.7 789.659,1343.8 "/>
<polyline clip-path="url(#clip100)" style="stroke:#000000; stroke-linecap:round; stroke-linejoin:round; stroke-width:4; stroke-opacity:1; fill:none" points="1180.43,1362.7 1180.43,1343.8 "/>
<polyline clip-path="url(#clip100)" style="stroke:#000000; stroke-linecap:round; stroke-linejoin:round; stroke-width:4; stroke-opacity:1; fill:none" points="1571.21,1362.7 1571.21,1343.8 "/>
<polyline clip-path="url(#clip100)" style="stroke:#000000; stroke-linecap:round; stroke-linejoin:round; stroke-width:4; stroke-opacity:1; fill:none" points="1961.98,1362.7 1961.98,1343.8 "/>
<polyline clip-path="url(#clip100)" style="stroke:#000000; stroke-linecap:round; stroke-linejoin:round; stroke-width:4; stroke-opacity:1; fill:none" points="2352.76,1362.7 2352.76,1343.8 "/>
<path clip-path="url(#clip100)" d="M376.269 1393.62 Q372.658 1393.62 370.829 1397.18 Q369.023 1400.72 369.023 1407.85 Q369.023 1414.96 370.829 1418.53 Q372.658 1422.07 376.269 1422.07 Q379.903 1422.07 381.709 1418.53 Q383.537 1414.96 383.537 1407.85 Q383.537 1400.72 381.709 1397.18 Q379.903 1393.62 376.269 1393.62 M376.269 1389.91 Q382.079 1389.91 385.134 1394.52 Q388.213 1399.1 388.213 1407.85 Q388.213 1416.58 385.134 1421.19 Q382.079 1425.77 376.269 1425.77 Q370.459 1425.77 367.38 1421.19 Q364.324 1416.58 364.324 1407.85 Q364.324 1399.1 367.38 1394.52 Q370.459 1389.91 376.269 1389.91 Z" fill="#000000" fill-rule="nonzero" fill-opacity="1" /><path clip-path="url(#clip100)" d="M396.431 1419.22 L401.315 1419.22 L401.315 1425.1 L396.431 1425.1 L396.431 1419.22 Z" fill="#000000" fill-rule="nonzero" fill-opacity="1" /><path clip-path="url(#clip100)" d="M421.5 1393.62 Q417.889 1393.62 416.06 1397.18 Q414.255 1400.72 414.255 1407.85 Q414.255 1414.96 416.06 1418.53 Q417.889 1422.07 421.5 1422.07 Q425.134 1422.07 426.94 1418.53 Q428.769 1414.96 428.769 1407.85 Q428.769 1400.72 426.94 1397.18 Q425.134 1393.62 421.5 1393.62 M421.5 1389.91 Q427.31 1389.91 430.366 1394.52 Q433.444 1399.1 433.444 1407.85 Q433.444 1416.58 430.366 1421.19 Q427.31 1425.77 421.5 1425.77 Q415.69 1425.77 412.611 1421.19 Q409.556 1416.58 409.556 1407.85 Q409.556 1399.1 412.611 1394.52 Q415.69 1389.91 421.5 1389.91 Z" fill="#000000" fill-rule="nonzero" fill-opacity="1" /><path clip-path="url(#clip100)" d="M767.842 1393.62 Q764.231 1393.62 762.402 1397.18 Q760.596 1400.72 760.596 1407.85 Q760.596 1414.96 762.402 1418.53 Q764.231 1422.07 767.842 1422.07 Q771.476 1422.07 773.281 1418.53 Q775.11 1414.96 775.11 1407.85 Q775.11 1400.72 773.281 1397.18 Q771.476 1393.62 767.842 1393.62 M767.842 1389.91 Q773.652 1389.91 776.707 1394.52 Q779.786 1399.1 779.786 1407.85 Q779.786 1416.58 776.707 1421.19 Q773.652 1425.77 767.842 1425.77 Q762.032 1425.77 758.953 1421.19 Q755.897 1416.58 755.897 1407.85 Q755.897 1399.1 758.953 1394.52 Q762.032 1389.91 767.842 1389.91 Z" fill="#000000" fill-rule="nonzero" fill-opacity="1" /><path clip-path="url(#clip100)" d="M788.004 1419.22 L792.888 1419.22 L792.888 1425.1 L788.004 1425.1 L788.004 1419.22 Z" fill="#000000" fill-rule="nonzero" fill-opacity="1" /><path clip-path="url(#clip100)" d="M807.101 1421.16 L823.42 1421.16 L823.42 1425.1 L801.476 1425.1 L801.476 1421.16 Q804.138 1418.41 808.721 1413.78 Q813.328 1409.13 814.508 1407.79 Q816.753 1405.26 817.633 1403.53 Q818.536 1401.77 818.536 1400.08 Q818.536 1397.32 816.591 1395.59 Q814.67 1393.85 811.568 1393.85 Q809.369 1393.85 806.916 1394.61 Q804.485 1395.38 801.707 1396.93 L801.707 1392.21 Q804.531 1391.07 806.985 1390.49 Q809.439 1389.91 811.476 1389.91 Q816.846 1389.91 820.04 1392.6 Q823.235 1395.29 823.235 1399.78 Q823.235 1401.91 822.425 1403.83 Q821.638 1405.72 819.531 1408.32 Q818.953 1408.99 815.851 1412.21 Q812.749 1415.4 807.101 1421.16 Z" fill="#000000" fill-rule="nonzero" fill-opacity="1" /><path clip-path="url(#clip100)" d="M1157.57 1393.62 Q1153.96 1393.62 1152.13 1397.18 Q1150.33 1400.72 1150.33 1407.85 Q1150.33 1414.96 1152.13 1418.53 Q1153.96 1422.07 1157.57 1422.07 Q1161.21 1422.07 1163.01 1418.53 Q1164.84 1414.96 1164.84 1407.85 Q1164.84 1400.72 1163.01 1397.18 Q1161.21 1393.62 1157.57 1393.62 M1157.57 1389.91 Q1163.38 1389.91 1166.44 1394.52 Q1169.52 1399.1 1169.52 1407.85 Q1169.52 1416.58 1166.44 1421.19 Q1163.38 1425.77 1157.57 1425.77 Q1151.76 1425.77 1148.69 1421.19 Q1145.63 1416.58 1145.63 1407.85 Q1145.63 1399.1 1148.69 1394.52 Q1151.76 1389.91 1157.57 1389.91 Z" fill="#000000" fill-rule="nonzero" fill-opacity="1" /><path clip-path="url(#clip100)" d="M1177.74 1419.22 L1182.62 1419.22 L1182.62 1425.1 L1177.74 1425.1 L1177.74 1419.22 Z" fill="#000000" fill-rule="nonzero" fill-opacity="1" /><path clip-path="url(#clip100)" d="M1205.65 1394.61 L1193.85 1413.06 L1205.65 1413.06 L1205.65 1394.61 M1204.43 1390.54 L1210.31 1390.54 L1210.31 1413.06 L1215.24 1413.06 L1215.24 1416.95 L1210.31 1416.95 L1210.31 1425.1 L1205.65 1425.1 L1205.65 1416.95 L1190.05 1416.95 L1190.05 1412.44 L1204.43 1390.54 Z" fill="#000000" fill-rule="nonzero" fill-opacity="1" /><path clip-path="url(#clip100)" d="M1548.51 1393.62 Q1544.9 1393.62 1543.07 1397.18 Q1541.27 1400.72 1541.27 1407.85 Q1541.27 1414.96 1543.07 1418.53 Q1544.9 1422.07 1548.51 1422.07 Q1552.14 1422.07 1553.95 1418.53 Q1555.78 1414.96 1555.78 1407.85 Q1555.78 1400.72 1553.95 1397.18 Q1552.14 1393.62 1548.51 1393.62 M1548.51 1389.91 Q1554.32 1389.91 1557.38 1394.52 Q1560.46 1399.1 1560.46 1407.85 Q1560.46 1416.58 1557.38 1421.19 Q1554.32 1425.77 1548.51 1425.77 Q1542.7 1425.77 1539.62 1421.19 Q1536.57 1416.58 1536.57 1407.85 Q1536.57 1399.1 1539.62 1394.52 Q1542.7 1389.91 1548.51 1389.91 Z" fill="#000000" fill-rule="nonzero" fill-opacity="1" /><path clip-path="url(#clip100)" d="M1568.67 1419.22 L1573.56 1419.22 L1573.56 1425.1 L1568.67 1425.1 L1568.67 1419.22 Z" fill="#000000" fill-rule="nonzero" fill-opacity="1" /><path clip-path="url(#clip100)" d="M1594.32 1405.96 Q1591.17 1405.96 1589.32 1408.11 Q1587.49 1410.26 1587.49 1414.01 Q1587.49 1417.74 1589.32 1419.91 Q1591.17 1422.07 1594.32 1422.07 Q1597.47 1422.07 1599.3 1419.91 Q1601.15 1417.74 1601.15 1414.01 Q1601.15 1410.26 1599.3 1408.11 Q1597.47 1405.96 1594.32 1405.96 M1603.6 1391.3 L1603.6 1395.56 Q1601.84 1394.73 1600.04 1394.29 Q1598.26 1393.85 1596.5 1393.85 Q1591.87 1393.85 1589.41 1396.97 Q1586.98 1400.1 1586.64 1406.42 Q1588 1404.41 1590.06 1403.34 Q1592.12 1402.25 1594.6 1402.25 Q1599.81 1402.25 1602.82 1405.42 Q1605.85 1408.57 1605.85 1414.01 Q1605.85 1419.34 1602.7 1422.55 Q1599.55 1425.77 1594.32 1425.77 Q1588.33 1425.77 1585.15 1421.19 Q1581.98 1416.58 1581.98 1407.85 Q1581.98 1399.66 1585.87 1394.8 Q1589.76 1389.91 1596.31 1389.91 Q1598.07 1389.91 1599.85 1390.26 Q1601.66 1390.61 1603.6 1391.3 Z" fill="#000000" fill-rule="nonzero" fill-opacity="1" /><path clip-path="url(#clip100)" d="M1939.41 1393.62 Q1935.8 1393.62 1933.97 1397.18 Q1932.17 1400.72 1932.17 1407.85 Q1932.17 1414.96 1933.97 1418.53 Q1935.8 1422.07 1939.41 1422.07 Q1943.05 1422.07 1944.85 1418.53 Q1946.68 1414.96 1946.68 1407.85 Q1946.68 1400.72 1944.85 1397.18 Q1943.05 1393.62 1939.41 1393.62 M1939.41 1389.91 Q1945.22 1389.91 1948.28 1394.52 Q1951.36 1399.1 1951.36 1407.85 Q1951.36 1416.58 1948.28 1421.19 Q1945.22 1425.77 1939.41 1425.77 Q1933.6 1425.77 1930.52 1421.19 Q1927.47 1416.58 1927.47 1407.85 Q1927.47 1399.1 1930.52 1394.52 Q1933.6 1389.91 1939.41 1389.91 Z" fill="#000000" fill-rule="nonzero" fill-opacity="1" /><path clip-path="url(#clip100)" d="M1959.57 1419.22 L1964.46 1419.22 L1964.46 1425.1 L1959.57 1425.1 L1959.57 1419.22 Z" fill="#000000" fill-rule="nonzero" fill-opacity="1" /><path clip-path="url(#clip100)" d="M1984.64 1408.69 Q1981.31 1408.69 1979.39 1410.47 Q1977.49 1412.25 1977.49 1415.38 Q1977.49 1418.5 1979.39 1420.29 Q1981.31 1422.07 1984.64 1422.07 Q1987.98 1422.07 1989.9 1420.29 Q1991.82 1418.48 1991.82 1415.38 Q1991.82 1412.25 1989.9 1410.47 Q1988 1408.69 1984.64 1408.69 M1979.97 1406.7 Q1976.96 1405.96 1975.27 1403.9 Q1973.6 1401.84 1973.6 1398.87 Q1973.6 1394.73 1976.54 1392.32 Q1979.5 1389.91 1984.64 1389.91 Q1989.81 1389.91 1992.75 1392.32 Q1995.69 1394.73 1995.69 1398.87 Q1995.69 1401.84 1994 1403.9 Q1992.33 1405.96 1989.34 1406.7 Q1992.72 1407.48 1994.6 1409.78 Q1996.5 1412.07 1996.5 1415.38 Q1996.5 1420.4 1993.42 1423.09 Q1990.36 1425.77 1984.64 1425.77 Q1978.93 1425.77 1975.85 1423.09 Q1972.79 1420.4 1972.79 1415.38 Q1972.79 1412.07 1974.69 1409.78 Q1976.59 1407.48 1979.97 1406.7 M1978.25 1399.31 Q1978.25 1402 1979.92 1403.5 Q1981.61 1405.01 1984.64 1405.01 Q1987.65 1405.01 1989.34 1403.5 Q1991.06 1402 1991.06 1399.31 Q1991.06 1396.63 1989.34 1395.12 Q1987.65 1393.62 1984.64 1393.62 Q1981.61 1393.62 1979.92 1395.12 Q1978.25 1396.63 1978.25 1399.31 Z" fill="#000000" fill-rule="nonzero" fill-opacity="1" /><path clip-path="url(#clip100)" d="M2319.91 1421.16 L2327.55 1421.16 L2327.55 1394.8 L2319.24 1396.47 L2319.24 1392.21 L2327.5 1390.54 L2332.18 1390.54 L2332.18 1421.16 L2339.82 1421.16 L2339.82 1425.1 L2319.91 1425.1 L2319.91 1421.16 Z" fill="#000000" fill-rule="nonzero" fill-opacity="1" /><path clip-path="url(#clip100)" d="M2349.26 1419.22 L2354.14 1419.22 L2354.14 1425.1 L2349.26 1425.1 L2349.26 1419.22 Z" fill="#000000" fill-rule="nonzero" fill-opacity="1" /><path clip-path="url(#clip100)" d="M2374.33 1393.62 Q2370.72 1393.62 2368.89 1397.18 Q2367.08 1400.72 2367.08 1407.85 Q2367.08 1414.96 2368.89 1418.53 Q2370.72 1422.07 2374.33 1422.07 Q2377.96 1422.07 2379.77 1418.53 Q2381.6 1414.96 2381.6 1407.85 Q2381.6 1400.72 2379.77 1397.18 Q2377.96 1393.62 2374.33 1393.62 M2374.33 1389.91 Q2380.14 1389.91 2383.2 1394.52 Q2386.27 1399.1 2386.27 1407.85 Q2386.27 1416.58 2383.2 1421.19 Q2380.14 1425.77 2374.33 1425.77 Q2368.52 1425.77 2365.44 1421.19 Q2362.39 1416.58 2362.39 1407.85 Q2362.39 1399.1 2365.44 1394.52 Q2368.52 1389.91 2374.33 1389.91 Z" fill="#000000" fill-rule="nonzero" fill-opacity="1" /><path clip-path="url(#clip100)" d="M1408.25 1490.33 Q1408.25 1501.16 1402.69 1511.33 Q1397.2 1521.51 1388.56 1527.66 Q1380 1533.8 1371.36 1533.8 Q1361.62 1533.8 1356.57 1523.7 Q1347.43 1560.37 1346.91 1561.33 Q1344.79 1564.47 1341.72 1564.47 Q1339.81 1564.47 1338.64 1563.3 Q1337.47 1562.2 1337.47 1560.45 Q1337.54 1559.86 1337.98 1558.03 L1352.62 1499.11 Q1355.99 1485.42 1366.16 1475.69 Q1376.41 1465.88 1387.39 1465.88 Q1396.1 1465.88 1402.18 1472.39 Q1408.25 1478.91 1408.25 1490.33 M1397.49 1483.89 Q1397.49 1476.57 1394.56 1472.91 Q1391.63 1469.17 1387.1 1469.17 Q1382.92 1469.17 1377.87 1472.54 Q1372.9 1475.91 1368.51 1483.37 Q1366.16 1487.69 1364.48 1493.03 Q1362.8 1498.38 1359.5 1511.55 Q1358.33 1516.82 1358.33 1517.12 Q1358.33 1517.7 1358.62 1519.02 Q1358.99 1520.34 1359.87 1522.39 Q1360.82 1524.36 1362.14 1526.12 Q1363.45 1527.88 1365.87 1529.19 Q1368.29 1530.44 1371.21 1530.44 Q1375.75 1530.44 1380.58 1526.78 Q1385.49 1523.04 1389.07 1516.24 Q1392.07 1510.75 1394.78 1500.43 Q1397.49 1490.03 1397.49 1483.89 Z" fill="#000000" fill-rule="nonzero" fill-opacity="1" /><polyline clip-path="url(#clip100)" style="stroke:#000000; stroke-linecap:round; stroke-linejoin:round; stroke-width:4; stroke-opacity:1; fill:none" points="398.884,1362.7 398.884,47.2441 "/>
<polyline clip-path="url(#clip100)" style="stroke:#000000; stroke-linecap:round; stroke-linejoin:round; stroke-width:4; stroke-opacity:1; fill:none" points="398.884,1326.53 417.782,1326.53 "/>
<polyline clip-path="url(#clip100)" style="stroke:#000000; stroke-linecap:round; stroke-linejoin:round; stroke-width:4; stroke-opacity:1; fill:none" points="398.884,1079.79 417.782,1079.79 "/>
<polyline clip-path="url(#clip100)" style="stroke:#000000; stroke-linecap:round; stroke-linejoin:round; stroke-width:4; stroke-opacity:1; fill:none" points="398.884,833.043 417.782,833.043 "/>
<polyline clip-path="url(#clip100)" style="stroke:#000000; stroke-linecap:round; stroke-linejoin:round; stroke-width:4; stroke-opacity:1; fill:none" points="398.884,586.298 417.782,586.298 "/>
<polyline clip-path="url(#clip100)" style="stroke:#000000; stroke-linecap:round; stroke-linejoin:round; stroke-width:4; stroke-opacity:1; fill:none" points="398.884,339.554 417.782,339.554 "/>
<polyline clip-path="url(#clip100)" style="stroke:#000000; stroke-linecap:round; stroke-linejoin:round; stroke-width:4; stroke-opacity:1; fill:none" points="398.884,92.8096 417.782,92.8096 "/>
<path clip-path="url(#clip100)" d="M350.94 1312.33 Q347.329 1312.33 345.5 1315.9 Q343.695 1319.44 343.695 1326.57 Q343.695 1333.67 345.5 1337.24 Q347.329 1340.78 350.94 1340.78 Q354.574 1340.78 356.38 1337.24 Q358.209 1333.67 358.209 1326.57 Q358.209 1319.44 356.38 1315.9 Q354.574 1312.33 350.94 1312.33 M350.94 1308.63 Q356.75 1308.63 359.806 1313.23 Q362.884 1317.82 362.884 1326.57 Q362.884 1335.29 359.806 1339.9 Q356.75 1344.48 350.94 1344.48 Q345.13 1344.48 342.051 1339.9 Q338.996 1335.29 338.996 1326.57 Q338.996 1317.82 342.051 1313.23 Q345.13 1308.63 350.94 1308.63 Z" fill="#000000" fill-rule="nonzero" fill-opacity="1" /><path clip-path="url(#clip100)" d="M178.305 1099.58 L185.944 1099.58 L185.944 1073.21 L177.634 1074.88 L177.634 1070.62 L185.898 1068.95 L190.573 1068.95 L190.573 1099.58 L198.212 1099.58 L198.212 1103.51 L178.305 1103.51 L178.305 1099.58 Z" fill="#000000" fill-rule="nonzero" fill-opacity="1" /><path clip-path="url(#clip100)" d="M207.657 1097.64 L212.541 1097.64 L212.541 1103.51 L207.657 1103.51 L207.657 1097.64 Z" fill="#000000" fill-rule="nonzero" fill-opacity="1" /><path clip-path="url(#clip100)" d="M232.726 1072.03 Q229.115 1072.03 227.286 1075.6 Q225.481 1079.14 225.481 1086.27 Q225.481 1093.38 227.286 1096.94 Q229.115 1100.48 232.726 1100.48 Q236.36 1100.48 238.166 1096.94 Q239.994 1093.38 239.994 1086.27 Q239.994 1079.14 238.166 1075.6 Q236.36 1072.03 232.726 1072.03 M232.726 1068.33 Q238.536 1068.33 241.592 1072.94 Q244.67 1077.52 244.67 1086.27 Q244.67 1095 241.592 1099.6 Q238.536 1104.19 232.726 1104.19 Q226.916 1104.19 223.837 1099.6 Q220.782 1095 220.782 1086.27 Q220.782 1077.52 223.837 1072.94 Q226.916 1068.33 232.726 1068.33 Z" fill="#000000" fill-rule="nonzero" fill-opacity="1" /><path clip-path="url(#clip100)" d="M281.059 1078.05 L270.48 1088.68 L281.059 1099.26 L278.304 1102.06 L267.679 1091.43 L257.055 1102.06 L254.323 1099.26 L264.879 1088.68 L254.323 1078.05 L257.055 1075.25 L267.679 1085.88 L278.304 1075.25 L281.059 1078.05 Z" fill="#000000" fill-rule="nonzero" fill-opacity="1" /><path clip-path="url(#clip100)" d="M293.42 1099.58 L301.059 1099.58 L301.059 1073.21 L292.749 1074.88 L292.749 1070.62 L301.013 1068.95 L305.689 1068.95 L305.689 1099.58 L313.327 1099.58 L313.327 1103.51 L293.42 1103.51 L293.42 1099.58 Z" fill="#000000" fill-rule="nonzero" fill-opacity="1" /><path clip-path="url(#clip100)" d="M332.772 1072.03 Q329.161 1072.03 327.332 1075.6 Q325.526 1079.14 325.526 1086.27 Q325.526 1093.38 327.332 1096.94 Q329.161 1100.48 332.772 1100.48 Q336.406 1100.48 338.212 1096.94 Q340.04 1093.38 340.04 1086.27 Q340.04 1079.14 338.212 1075.6 Q336.406 1072.03 332.772 1072.03 M332.772 1068.33 Q338.582 1068.33 341.637 1072.94 Q344.716 1077.52 344.716 1086.27 Q344.716 1095 341.637 1099.6 Q338.582 1104.19 332.772 1104.19 Q326.962 1104.19 323.883 1099.6 Q320.827 1095 320.827 1086.27 Q320.827 1077.52 323.883 1072.94 Q326.962 1068.33 332.772 1068.33 Z" fill="#000000" fill-rule="nonzero" fill-opacity="1" /><path clip-path="url(#clip100)" d="M345.901 1048.02 L360.816 1048.02 L360.816 1051.22 L349.38 1051.22 L349.38 1058.11 Q350.208 1057.82 351.036 1057.69 Q351.863 1057.54 352.691 1057.54 Q357.393 1057.54 360.138 1060.12 Q362.884 1062.69 362.884 1067.1 Q362.884 1071.63 360.063 1074.15 Q357.242 1076.65 352.108 1076.65 Q350.34 1076.65 348.496 1076.35 Q346.672 1076.05 344.716 1075.45 L344.716 1071.63 Q346.409 1072.55 348.214 1073 Q350.02 1073.45 352.032 1073.45 Q355.286 1073.45 357.186 1071.74 Q359.085 1070.03 359.085 1067.1 Q359.085 1064.16 357.186 1062.45 Q355.286 1060.74 352.032 1060.74 Q350.509 1060.74 348.985 1061.08 Q347.481 1061.42 345.901 1062.13 L345.901 1048.02 Z" fill="#000000" fill-rule="nonzero" fill-opacity="1" /><path clip-path="url(#clip100)" d="M181.523 852.835 L197.842 852.835 L197.842 856.77 L175.898 856.77 L175.898 852.835 Q178.56 850.081 183.143 845.451 Q187.749 840.798 188.93 839.456 Q191.175 836.933 192.055 835.197 Q192.958 833.437 192.958 831.747 Q192.958 828.993 191.013 827.257 Q189.092 825.521 185.99 825.521 Q183.791 825.521 181.337 826.285 Q178.907 827.048 176.129 828.599 L176.129 823.877 Q178.953 822.743 181.407 822.164 Q183.86 821.585 185.898 821.585 Q191.268 821.585 194.462 824.271 Q197.657 826.956 197.657 831.447 Q197.657 833.576 196.847 835.497 Q196.059 837.396 193.953 839.988 Q193.374 840.659 190.272 843.877 Q187.171 847.071 181.523 852.835 Z" fill="#000000" fill-rule="nonzero" fill-opacity="1" /><path clip-path="url(#clip100)" d="M207.657 850.891 L212.541 850.891 L212.541 856.77 L207.657 856.77 L207.657 850.891 Z" fill="#000000" fill-rule="nonzero" fill-opacity="1" /><path clip-path="url(#clip100)" d="M232.726 825.289 Q229.115 825.289 227.286 828.854 Q225.481 832.396 225.481 839.525 Q225.481 846.632 227.286 850.196 Q229.115 853.738 232.726 853.738 Q236.36 853.738 238.166 850.196 Q239.994 846.632 239.994 839.525 Q239.994 832.396 238.166 828.854 Q236.36 825.289 232.726 825.289 M232.726 821.585 Q238.536 821.585 241.592 826.192 Q244.67 830.775 244.67 839.525 Q244.67 848.252 241.592 852.858 Q238.536 857.442 232.726 857.442 Q226.916 857.442 223.837 852.858 Q220.782 848.252 220.782 839.525 Q220.782 830.775 223.837 826.192 Q226.916 821.585 232.726 821.585 Z" fill="#000000" fill-rule="nonzero" fill-opacity="1" /><path clip-path="url(#clip100)" d="M281.059 831.308 L270.48 841.933 L281.059 852.511 L278.304 855.312 L267.679 844.687 L257.055 855.312 L254.323 852.511 L264.879 841.933 L254.323 831.308 L257.055 828.507 L267.679 839.132 L278.304 828.507 L281.059 831.308 Z" fill="#000000" fill-rule="nonzero" fill-opacity="1" /><path clip-path="url(#clip100)" d="M293.42 852.835 L301.059 852.835 L301.059 826.47 L292.749 828.136 L292.749 823.877 L301.013 822.21 L305.689 822.21 L305.689 852.835 L313.327 852.835 L313.327 856.77 L293.42 856.77 L293.42 852.835 Z" fill="#000000" fill-rule="nonzero" fill-opacity="1" /><path clip-path="url(#clip100)" d="M332.772 825.289 Q329.161 825.289 327.332 828.854 Q325.526 832.396 325.526 839.525 Q325.526 846.632 327.332 850.196 Q329.161 853.738 332.772 853.738 Q336.406 853.738 338.212 850.196 Q340.04 846.632 340.04 839.525 Q340.04 832.396 338.212 828.854 Q336.406 825.289 332.772 825.289 M332.772 821.585 Q338.582 821.585 341.637 826.192 Q344.716 830.775 344.716 839.525 Q344.716 848.252 341.637 852.858 Q338.582 857.442 332.772 857.442 Q326.962 857.442 323.883 852.858 Q320.827 848.252 320.827 839.525 Q320.827 830.775 323.883 826.192 Q326.962 821.585 332.772 821.585 Z" fill="#000000" fill-rule="nonzero" fill-opacity="1" /><path clip-path="url(#clip100)" d="M345.901 801.28 L360.816 801.28 L360.816 804.477 L349.38 804.477 L349.38 811.361 Q350.208 811.079 351.036 810.947 Q351.863 810.797 352.691 810.797 Q357.393 810.797 360.138 813.373 Q362.884 815.95 362.884 820.351 Q362.884 824.884 360.063 827.404 Q357.242 829.906 352.108 829.906 Q350.34 829.906 348.496 829.605 Q346.672 829.304 344.716 828.702 L344.716 824.884 Q346.409 825.805 348.214 826.257 Q350.02 826.708 352.032 826.708 Q355.286 826.708 357.186 824.997 Q359.085 823.285 359.085 820.351 Q359.085 817.417 357.186 815.706 Q355.286 813.994 352.032 813.994 Q350.509 813.994 348.985 814.333 Q347.481 814.671 345.901 815.386 L345.901 801.28 Z" fill="#000000" fill-rule="nonzero" fill-opacity="1" /><path clip-path="url(#clip100)" d="M191.661 591.392 Q195.018 592.109 196.893 594.378 Q198.791 596.646 198.791 599.98 Q198.791 605.096 195.272 607.896 Q191.754 610.697 185.273 610.697 Q183.097 610.697 180.782 610.258 Q178.49 609.841 176.036 608.984 L176.036 604.471 Q177.981 605.605 180.296 606.183 Q182.61 606.762 185.134 606.762 Q189.532 606.762 191.823 605.026 Q194.138 603.29 194.138 599.98 Q194.138 596.924 191.985 595.211 Q189.856 593.475 186.036 593.475 L182.009 593.475 L182.009 589.633 L186.222 589.633 Q189.671 589.633 191.499 588.267 Q193.328 586.878 193.328 584.285 Q193.328 581.623 191.43 580.211 Q189.555 578.776 186.036 578.776 Q184.115 578.776 181.916 579.193 Q179.717 579.61 177.078 580.489 L177.078 576.323 Q179.74 575.582 182.055 575.211 Q184.393 574.841 186.453 574.841 Q191.777 574.841 194.879 577.272 Q197.981 579.679 197.981 583.799 Q197.981 586.67 196.337 588.66 Q194.694 590.628 191.661 591.392 Z" fill="#000000" fill-rule="nonzero" fill-opacity="1" /><path clip-path="url(#clip100)" d="M207.657 604.146 L212.541 604.146 L212.541 610.026 L207.657 610.026 L207.657 604.146 Z" fill="#000000" fill-rule="nonzero" fill-opacity="1" /><path clip-path="url(#clip100)" d="M232.726 578.545 Q229.115 578.545 227.286 582.11 Q225.481 585.651 225.481 592.781 Q225.481 599.887 227.286 603.452 Q229.115 606.994 232.726 606.994 Q236.36 606.994 238.166 603.452 Q239.994 599.887 239.994 592.781 Q239.994 585.651 238.166 582.11 Q236.36 578.545 232.726 578.545 M232.726 574.841 Q238.536 574.841 241.592 579.448 Q244.67 584.031 244.67 592.781 Q244.67 601.508 241.592 606.114 Q238.536 610.697 232.726 610.697 Q226.916 610.697 223.837 606.114 Q220.782 601.508 220.782 592.781 Q220.782 584.031 223.837 579.448 Q226.916 574.841 232.726 574.841 Z" fill="#000000" fill-rule="nonzero" fill-opacity="1" /><path clip-path="url(#clip100)" d="M281.059 584.563 L270.48 595.188 L281.059 605.767 L278.304 608.568 L267.679 597.943 L257.055 608.568 L254.323 605.767 L264.879 595.188 L254.323 584.563 L257.055 581.762 L267.679 592.387 L278.304 581.762 L281.059 584.563 Z" fill="#000000" fill-rule="nonzero" fill-opacity="1" /><path clip-path="url(#clip100)" d="M293.42 606.091 L301.059 606.091 L301.059 579.725 L292.749 581.392 L292.749 577.133 L301.013 575.466 L305.689 575.466 L305.689 606.091 L313.327 606.091 L313.327 610.026 L293.42 610.026 L293.42 606.091 Z" fill="#000000" fill-rule="nonzero" fill-opacity="1" /><path clip-path="url(#clip100)" d="M332.772 578.545 Q329.161 578.545 327.332 582.11 Q325.526 585.651 325.526 592.781 Q325.526 599.887 327.332 603.452 Q329.161 606.994 332.772 606.994 Q336.406 606.994 338.212 603.452 Q340.04 599.887 340.04 592.781 Q340.04 585.651 338.212 582.11 Q336.406 578.545 332.772 578.545 M332.772 574.841 Q338.582 574.841 341.637 579.448 Q344.716 584.031 344.716 592.781 Q344.716 601.508 341.637 606.114 Q338.582 610.697 332.772 610.697 Q326.962 610.697 323.883 606.114 Q320.827 601.508 320.827 592.781 Q320.827 584.031 323.883 579.448 Q326.962 574.841 332.772 574.841 Z" fill="#000000" fill-rule="nonzero" fill-opacity="1" /><path clip-path="url(#clip100)" d="M345.901 554.536 L360.816 554.536 L360.816 557.733 L349.38 557.733 L349.38 564.617 Q350.208 564.335 351.036 564.203 Q351.863 564.052 352.691 564.052 Q357.393 564.052 360.138 566.629 Q362.884 569.206 362.884 573.607 Q362.884 578.139 360.063 580.66 Q357.242 583.161 352.108 583.161 Q350.34 583.161 348.496 582.86 Q346.672 582.559 344.716 581.957 L344.716 578.139 Q346.409 579.061 348.214 579.512 Q350.02 579.964 352.032 579.964 Q355.286 579.964 357.186 578.252 Q359.085 576.541 359.085 573.607 Q359.085 570.673 357.186 568.961 Q355.286 567.25 352.032 567.25 Q350.509 567.25 348.985 567.588 Q347.481 567.927 345.901 568.641 L345.901 554.536 Z" fill="#000000" fill-rule="nonzero" fill-opacity="1" /><path clip-path="url(#clip100)" d="M190.342 332.796 L178.536 351.245 L190.342 351.245 L190.342 332.796 M189.115 328.722 L194.995 328.722 L194.995 351.245 L199.925 351.245 L199.925 355.134 L194.995 355.134 L194.995 363.282 L190.342 363.282 L190.342 355.134 L174.74 355.134 L174.74 350.62 L189.115 328.722 Z" fill="#000000" fill-rule="nonzero" fill-opacity="1" /><path clip-path="url(#clip100)" d="M207.657 357.402 L212.541 357.402 L212.541 363.282 L207.657 363.282 L207.657 357.402 Z" fill="#000000" fill-rule="nonzero" fill-opacity="1" /><path clip-path="url(#clip100)" d="M232.726 331.8 Q229.115 331.8 227.286 335.365 Q225.481 338.907 225.481 346.036 Q225.481 353.143 227.286 356.708 Q229.115 360.249 232.726 360.249 Q236.36 360.249 238.166 356.708 Q239.994 353.143 239.994 346.036 Q239.994 338.907 238.166 335.365 Q236.36 331.8 232.726 331.8 M232.726 328.097 Q238.536 328.097 241.592 332.703 Q244.67 337.286 244.67 346.036 Q244.67 354.763 241.592 359.37 Q238.536 363.953 232.726 363.953 Q226.916 363.953 223.837 359.37 Q220.782 354.763 220.782 346.036 Q220.782 337.286 223.837 332.703 Q226.916 328.097 232.726 328.097 Z" fill="#000000" fill-rule="nonzero" fill-opacity="1" /><path clip-path="url(#clip100)" d="M281.059 337.819 L270.48 348.444 L281.059 359.022 L278.304 361.823 L267.679 351.198 L257.055 361.823 L254.323 359.022 L264.879 348.444 L254.323 337.819 L257.055 335.018 L267.679 345.643 L278.304 335.018 L281.059 337.819 Z" fill="#000000" fill-rule="nonzero" fill-opacity="1" /><path clip-path="url(#clip100)" d="M293.42 359.346 L301.059 359.346 L301.059 332.981 L292.749 334.648 L292.749 330.388 L301.013 328.722 L305.689 328.722 L305.689 359.346 L313.327 359.346 L313.327 363.282 L293.42 363.282 L293.42 359.346 Z" fill="#000000" fill-rule="nonzero" fill-opacity="1" /><path clip-path="url(#clip100)" d="M332.772 331.8 Q329.161 331.8 327.332 335.365 Q325.526 338.907 325.526 346.036 Q325.526 353.143 327.332 356.708 Q329.161 360.249 332.772 360.249 Q336.406 360.249 338.212 356.708 Q340.04 353.143 340.04 346.036 Q340.04 338.907 338.212 335.365 Q336.406 331.8 332.772 331.8 M332.772 328.097 Q338.582 328.097 341.637 332.703 Q344.716 337.286 344.716 346.036 Q344.716 354.763 341.637 359.37 Q338.582 363.953 332.772 363.953 Q326.962 363.953 323.883 359.37 Q320.827 354.763 320.827 346.036 Q320.827 337.286 323.883 332.703 Q326.962 328.097 332.772 328.097 Z" fill="#000000" fill-rule="nonzero" fill-opacity="1" /><path clip-path="url(#clip100)" d="M345.901 307.791 L360.816 307.791 L360.816 310.989 L349.38 310.989 L349.38 317.872 Q350.208 317.59 351.036 317.458 Q351.863 317.308 352.691 317.308 Q357.393 317.308 360.138 319.885 Q362.884 322.461 362.884 326.862 Q362.884 331.395 360.063 333.915 Q357.242 336.417 352.108 336.417 Q350.34 336.417 348.496 336.116 Q346.672 335.815 344.716 335.213 L344.716 331.395 Q346.409 332.317 348.214 332.768 Q350.02 333.219 352.032 333.219 Q355.286 333.219 357.186 331.508 Q359.085 329.796 359.085 326.862 Q359.085 323.928 357.186 322.217 Q355.286 320.505 352.032 320.505 Q350.509 320.505 348.985 320.844 Q347.481 321.182 345.901 321.897 L345.901 307.791 Z" fill="#000000" fill-rule="nonzero" fill-opacity="1" /><path clip-path="url(#clip100)" d="M177.541 81.9772 L195.897 81.9772 L195.897 85.9124 L181.823 85.9124 L181.823 94.3846 Q182.842 94.0373 183.86 93.8753 Q184.879 93.6901 185.898 93.6901 Q191.685 93.6901 195.064 96.8614 Q198.444 100.033 198.444 105.449 Q198.444 111.028 194.972 114.13 Q191.499 117.209 185.18 117.209 Q183.004 117.209 180.735 116.838 Q178.49 116.468 176.083 115.727 L176.083 111.028 Q178.166 112.162 180.388 112.718 Q182.61 113.273 185.087 113.273 Q189.092 113.273 191.43 111.167 Q193.768 109.06 193.768 105.449 Q193.768 101.838 191.43 99.7318 Q189.092 97.6253 185.087 97.6253 Q183.212 97.6253 181.337 98.0419 Q179.486 98.4586 177.541 99.3382 L177.541 81.9772 Z" fill="#000000" fill-rule="nonzero" fill-opacity="1" /><path clip-path="url(#clip100)" d="M207.657 110.658 L212.541 110.658 L212.541 116.537 L207.657 116.537 L207.657 110.658 Z" fill="#000000" fill-rule="nonzero" fill-opacity="1" /><path clip-path="url(#clip100)" d="M232.726 85.0559 Q229.115 85.0559 227.286 88.6207 Q225.481 92.1624 225.481 99.2919 Q225.481 106.398 227.286 109.963 Q229.115 113.505 232.726 113.505 Q236.36 113.505 238.166 109.963 Q239.994 106.398 239.994 99.2919 Q239.994 92.1624 238.166 88.6207 Q236.36 85.0559 232.726 85.0559 M232.726 81.3522 Q238.536 81.3522 241.592 85.9587 Q244.67 90.542 244.67 99.2919 Q244.67 108.019 241.592 112.625 Q238.536 117.209 232.726 117.209 Q226.916 117.209 223.837 112.625 Q220.782 108.019 220.782 99.2919 Q220.782 90.542 223.837 85.9587 Q226.916 81.3522 232.726 81.3522 Z" fill="#000000" fill-rule="nonzero" fill-opacity="1" /><path clip-path="url(#clip100)" d="M281.059 91.0744 L270.48 101.699 L281.059 112.278 L278.304 115.079 L267.679 104.454 L257.055 115.079 L254.323 112.278 L264.879 101.699 L254.323 91.0744 L257.055 88.2735 L267.679 98.8984 L278.304 88.2735 L281.059 91.0744 Z" fill="#000000" fill-rule="nonzero" fill-opacity="1" /><path clip-path="url(#clip100)" d="M293.42 112.602 L301.059 112.602 L301.059 86.2365 L292.749 87.9031 L292.749 83.6439 L301.013 81.9772 L305.689 81.9772 L305.689 112.602 L313.327 112.602 L313.327 116.537 L293.42 116.537 L293.42 112.602 Z" fill="#000000" fill-rule="nonzero" fill-opacity="1" /><path clip-path="url(#clip100)" d="M332.772 85.0559 Q329.161 85.0559 327.332 88.6207 Q325.526 92.1624 325.526 99.2919 Q325.526 106.398 327.332 109.963 Q329.161 113.505 332.772 113.505 Q336.406 113.505 338.212 109.963 Q340.04 106.398 340.04 99.2919 Q340.04 92.1624 338.212 88.6207 Q336.406 85.0559 332.772 85.0559 M332.772 81.3522 Q338.582 81.3522 341.637 85.9587 Q344.716 90.542 344.716 99.2919 Q344.716 108.019 341.637 112.625 Q338.582 117.209 332.772 117.209 Q326.962 117.209 323.883 112.625 Q320.827 108.019 320.827 99.2919 Q320.827 90.542 323.883 85.9587 Q326.962 81.3522 332.772 81.3522 Z" fill="#000000" fill-rule="nonzero" fill-opacity="1" /><path clip-path="url(#clip100)" d="M345.901 61.0468 L360.816 61.0468 L360.816 64.2441 L349.38 64.2441 L349.38 71.1278 Q350.208 70.8457 351.036 70.714 Q351.863 70.5636 352.691 70.5636 Q357.393 70.5636 360.138 73.1402 Q362.884 75.7169 362.884 80.1179 Q362.884 84.6506 360.063 87.1708 Q357.242 89.6722 352.108 89.6722 Q350.34 89.6722 348.496 89.3713 Q346.672 89.0704 344.716 88.4685 L344.716 84.6506 Q346.409 85.5722 348.214 86.0235 Q350.02 86.4749 352.032 86.4749 Q355.286 86.4749 357.186 84.7634 Q359.085 83.0519 359.085 80.1179 Q359.085 77.1839 357.186 75.4724 Q355.286 73.7609 352.032 73.7609 Q350.509 73.7609 348.985 74.0994 Q347.481 74.438 345.901 75.1526 L345.901 61.0468 Z" fill="#000000" fill-rule="nonzero" fill-opacity="1" /><path clip-path="url(#clip100)" d="M148.533 816.536 L-1.37039 816.536 L-1.37039 793.919 L2.06978 793.919 L2.06978 806.509 L145.093 806.509 L145.093 793.919 L148.533 793.919 L148.533 816.536 Z" fill="#000000" fill-rule="nonzero" fill-opacity="1" /><path clip-path="url(#clip100)" d="M111.057 775.287 L106.446 775.287 L106.446 771.7 Q106.446 763.576 105.129 761.746 Q103.738 759.843 99.3461 759.843 L20.3686 759.843 Q16.0501 759.843 14.7325 761.746 Q13.3418 763.649 13.3418 771.7 L13.3418 775.287 L8.65734 775.287 L8.65734 722.367 Q8.65734 707.215 17.0016 697.115 Q25.3458 687.014 36.5447 687.014 Q47.6704 687.014 55.7218 697.334 Q63.7001 707.581 63.7001 721.196 L63.7001 746.521 L99.3461 746.521 Q103.665 746.521 105.055 744.691 Q106.446 742.788 106.446 734.664 L106.446 731.077 L111.057 731.077 Q110.618 736.347 110.618 753.255 Q110.618 770.017 111.057 775.287 M59.8207 746.96 L59.8207 726.319 Q59.8207 719.585 57.9177 714.681 Q56.0146 709.777 53.7456 707.581 Q51.4033 705.312 47.6704 704.068 Q43.8642 702.751 41.8147 702.604 Q39.6921 702.458 36.5447 702.458 Q33.2509 702.458 31.2014 702.604 Q29.0788 702.751 25.3458 704.068 Q21.5397 705.312 19.2706 707.581 Q16.9284 709.777 15.1717 714.681 Q13.3418 719.512 13.3418 726.319 L13.3418 739.641 Q13.3418 744.765 14.3666 745.863 Q15.3913 746.96 19.3438 746.96 L59.8207 746.96 Z" fill="#000000" fill-rule="nonzero" fill-opacity="1" /><path clip-path="url(#clip100)" d="M96.7843 661.8 Q84.0483 661.8 77.3144 646.795 Q72.9959 637.792 71.8979 619.2 L66.4083 619.2 Q57.1125 619.2 52.2085 624.104 Q47.2312 628.935 47.2312 635.083 Q47.2312 646.063 54.1115 651.333 Q54.2579 646.868 56.527 645.257 Q58.7228 643.647 60.9919 643.647 Q63.9929 643.647 65.9691 645.55 Q67.8722 647.38 67.8722 650.528 Q67.8722 653.529 66.0423 655.505 Q64.1393 657.481 60.8455 657.481 Q53.526 657.481 48.6951 650.894 Q43.8642 644.233 43.8642 634.791 Q43.8642 622.494 52.1353 614.296 Q54.6971 611.734 57.9909 610.49 Q61.2847 609.172 63.4805 609.026 Q65.6032 608.88 69.8485 608.88 L99.7853 608.88 Q100.664 608.88 102.128 608.587 Q103.591 608.294 105.495 606.976 Q107.324 605.586 107.324 603.317 Q107.324 597.9 97.7358 597.973 L89.3184 597.973 L89.3184 594.167 L97.7358 594.167 Q105.714 594.167 108.861 598.413 Q111.936 602.585 111.936 606.464 Q111.936 611.441 108.276 614.589 Q104.616 617.736 99.6389 618.175 Q105.348 620.444 109.081 625.641 Q112.741 630.765 112.741 637.792 Q112.741 643.208 111.35 648.332 Q110.033 653.382 106.3 657.627 Q102.494 661.8 96.7843 661.8 M96.6379 650.235 Q102.201 650.235 105.787 646.282 Q109.374 642.33 109.374 636.767 Q109.374 630.472 104.543 624.836 Q99.6389 619.2 90.0503 619.2 L75.0453 619.2 Q75.6309 635.815 82.2917 643.062 Q88.8792 650.235 96.6379 650.235 Z" fill="#000000" fill-rule="nonzero" fill-opacity="1" /><path clip-path="url(#clip100)" d="M145.093 587.565 L145.093 574.976 L2.06978 574.976 L2.06978 587.565 L-1.37039 587.565 L-1.37039 564.948 L148.533 564.948 L148.533 587.565 L145.093 587.565 Z" fill="#000000" fill-rule="nonzero" fill-opacity="1" /><polyline clip-path="url(#clip102)" style="stroke:#ff0000; stroke-linecap:round; stroke-linejoin:round; stroke-width:8; stroke-opacity:1; fill:none" points="398.884,84.474 418.423,85.0178 437.962,86.6477 457.501,89.3596 477.039,93.1461 496.578,97.9974 516.117,103.901 535.655,110.841 555.194,118.799 574.733,127.756 594.272,137.687 613.81,148.567 633.349,160.369 652.888,173.063 672.426,186.616 691.965,200.995 711.504,216.164 731.043,232.086 750.581,248.723 770.12,266.034 789.659,283.978 809.197,302.514 828.736,321.599 848.275,341.189 867.814,361.24 887.352,381.708 906.891,402.549 926.43,423.718 945.968,445.17 965.507,466.863 985.046,488.752 1004.58,510.408 1024.12,531.445 1043.66,551.881 1063.2,571.735 1082.74,591.026 1102.28,609.772 1121.82,627.988 1141.36,645.692 1160.89,662.898 1180.43,679.624 1199.97,694.877 1219.51,707.759 1239.05,718.398 1258.59,726.896 1278.13,733.335 1297.67,737.77 1317.2,740.24 1336.74,740.758 1356.28,739.321 1375.82,735.903 1395.36,732.123 1414.9,729.661 1434.44,728.552 1453.98,728.818 1473.51,730.466 1493.05,733.491 1512.59,737.874 1532.13,743.581 1551.67,750.568 1571.21,758.776 1590.75,767.579 1610.28,776.396 1629.82,785.219 1649.36,794.046 1668.9,802.872 1688.44,811.692 1707.98,820.501 1727.52,829.296 1747.06,838.073 1766.59,846.826 1786.13,855.381 1805.67,863.575 1825.21,871.423 1844.75,878.941 1864.29,886.142 1883.83,893.039 1903.37,899.645 1922.9,905.971 1942.44,912.028 1961.98,917.826 1981.52,923.55 2001.06,929.337 2020.6,935.426 2040.14,942.164 2059.68,950.04 2079.21,959.715 2098.75,972.058 2118.29,988.132 2137.83,1009.08 2157.37,1035.98 2176.91,1069.55 2196.45,1109.35 2215.98,1153.3 2235.52,1197.68 2255.06,1238.09 2274.6,1270.99 2294.14,1294.94 2313.68,1310.66 2333.22,1320.15 2352.76,1325.47 "/>
</svg>
