<?xml version="1.0" encoding="utf-8"?>
<svg xmlns="http://www.w3.org/2000/svg" xmlns:xlink="http://www.w3.org/1999/xlink" width="600" height="400" viewBox="0 0 2400 1600">
<defs>
  <clipPath id="clip040">
    <rect x="0" y="0" width="2400" height="1600"/>
  </clipPath>
</defs>
<path clip-path="url(#clip040)" d="M0 1600 L2400 1600 L2400 0 L0 0  Z" fill="#ffffff" fill-rule="evenodd" fill-opacity="1"/>
<defs>
  <clipPath id="clip041">
    <rect x="480" y="0" width="1681" height="1600"/>
  </clipPath>
</defs>
<path clip-path="url(#clip040)" d="M338.404 1423.18 L2352.76 1423.18 L2352.76 47.2441 L338.404 47.2441  Z" fill="#ffffff" fill-rule="evenodd" fill-opacity="1"/>
<defs>
  <clipPath id="clip042">
    <rect x="338" y="47" width="2015" height="1377"/>
  </clipPath>
</defs>
<polyline clip-path="url(#clip042)" style="stroke:#000000; stroke-linecap:round; stroke-linejoin:round; stroke-width:2; stroke-opacity:0.1; fill:none" points="338.404,1423.18 338.404,47.2441 "/>
<polyline clip-path="url(#clip042)" style="stroke:#000000; stroke-linecap:round; stroke-linejoin:round; stroke-width:2; stroke-opacity:0.1; fill:none" points="741.275,1423.18 741.275,47.2441 "/>
<polyline clip-path="url(#clip042)" style="stroke:#000000; stroke-linecap:round; stroke-linejoin:round; stroke-width:2; stroke-opacity:0.1; fill:none" points="1144.15,1423.18 1144.15,47.2441 "/>
<polyline clip-path="url(#clip042)" style="stroke:#000000; stroke-linecap:round; stroke-linejoin:round; stroke-width:2; stroke-opacity:0.1; fill:none" points="1547.02,1423.18 1547.02,47.2441 "/>
<polyline clip-path="url(#clip042)" style="stroke:#000000; stroke-linecap:round; stroke-linejoin:round; stroke-width:2; stroke-opacity:0.1; fill:none" points="1949.89,1423.18 1949.89,47.2441 "/>
<polyline clip-path="url(#clip042)" style="stroke:#000000; stroke-linecap:round; stroke-linejoin:round; stroke-width:2; stroke-opacity:0.1; fill:none" points="2352.76,1423.18 2352.76,47.2441 "/>
<polyline clip-path="url(#clip042)" style="stroke:#000000; stroke-linecap:round; stroke-linejoin:round; stroke-width:2; stroke-opacity:0.1; fill:none" points="338.404,1385.35 2352.76,1385.35 "/>
<polyline clip-path="url(#clip042)" style="stroke:#000000; stroke-linecap:round; stroke-linejoin:round; stroke-width:2; stroke-opacity:0.1; fill:none" points="338.404,1127.26 2352.76,1127.26 "/>
<polyline clip-path="url(#clip042)" style="stroke:#000000; stroke-linecap:round; stroke-linejoin:round; stroke-width:2; stroke-opacity:0.1; fill:none" points="338.404,869.171 2352.76,869.171 "/>
<polyline clip-path="url(#clip042)" style="stroke:#000000; stroke-linecap:round; stroke-linejoin:round; stroke-width:2; stroke-opacity:0.1; fill:none" points="338.404,611.082 2352.76,611.082 "/>
<polyline clip-path="url(#clip042)" style="stroke:#000000; stroke-linecap:round; stroke-linejoin:round; stroke-width:2; stroke-opacity:0.1; fill:none" points="338.404,352.993 2352.76,352.993 "/>
<polyline clip-path="url(#clip042)" style="stroke:#000000; stroke-linecap:round; stroke-linejoin:round; stroke-width:2; stroke-opacity:0.1; fill:none" points="338.404,94.9046 2352.76,94.9046 "/>
<polyline clip-path="url(#clip040)" style="stroke:#000000; stroke-linecap:round; stroke-linejoin:round; stroke-width:4; stroke-opacity:1; fill:none" points="338.404,1423.18 2352.76,1423.18 "/>
<polyline clip-path="url(#clip040)" style="stroke:#000000; stroke-linecap:round; stroke-linejoin:round; stroke-width:4; stroke-opacity:1; fill:none" points="338.404,1423.18 338.404,1404.28 "/>
<polyline clip-path="url(#clip040)" style="stroke:#000000; stroke-linecap:round; stroke-linejoin:round; stroke-width:4; stroke-opacity:1; fill:none" points="741.275,1423.18 741.275,1404.28 "/>
<polyline clip-path="url(#clip040)" style="stroke:#000000; stroke-linecap:round; stroke-linejoin:round; stroke-width:4; stroke-opacity:1; fill:none" points="1144.15,1423.18 1144.15,1404.28 "/>
<polyline clip-path="url(#clip040)" style="stroke:#000000; stroke-linecap:round; stroke-linejoin:round; stroke-width:4; stroke-opacity:1; fill:none" points="1547.02,1423.18 1547.02,1404.28 "/>
<polyline clip-path="url(#clip040)" style="stroke:#000000; stroke-linecap:round; stroke-linejoin:round; stroke-width:4; stroke-opacity:1; fill:none" points="1949.89,1423.18 1949.89,1404.28 "/>
<polyline clip-path="url(#clip040)" style="stroke:#000000; stroke-linecap:round; stroke-linejoin:round; stroke-width:4; stroke-opacity:1; fill:none" points="2352.76,1423.18 2352.76,1404.28 "/>
<path clip-path="url(#clip040)" d="M315.789 1454.1 Q312.178 1454.1 310.349 1457.66 Q308.543 1461.2 308.543 1468.33 Q308.543 1475.44 310.349 1479.01 Q312.178 1482.55 315.789 1482.55 Q319.423 1482.55 321.229 1479.01 Q323.057 1475.44 323.057 1468.33 Q323.057 1461.2 321.229 1457.66 Q319.423 1454.1 315.789 1454.1 M315.789 1450.39 Q321.599 1450.39 324.654 1455 Q327.733 1459.58 327.733 1468.33 Q327.733 1477.06 324.654 1481.67 Q321.599 1486.25 315.789 1486.25 Q309.979 1486.25 306.9 1481.67 Q303.844 1477.06 303.844 1468.33 Q303.844 1459.58 306.9 1455 Q309.979 1450.39 315.789 1450.39 Z" fill="#000000" fill-rule="nonzero" fill-opacity="1" /><path clip-path="url(#clip040)" d="M335.951 1479.7 L340.835 1479.7 L340.835 1485.58 L335.951 1485.58 L335.951 1479.7 Z" fill="#000000" fill-rule="nonzero" fill-opacity="1" /><path clip-path="url(#clip040)" d="M361.02 1454.1 Q357.409 1454.1 355.58 1457.66 Q353.775 1461.2 353.775 1468.33 Q353.775 1475.44 355.58 1479.01 Q357.409 1482.55 361.02 1482.55 Q364.654 1482.55 366.46 1479.01 Q368.289 1475.44 368.289 1468.33 Q368.289 1461.2 366.46 1457.66 Q364.654 1454.1 361.02 1454.1 M361.02 1450.39 Q366.83 1450.39 369.886 1455 Q372.964 1459.58 372.964 1468.33 Q372.964 1477.06 369.886 1481.67 Q366.83 1486.25 361.02 1486.25 Q355.21 1486.25 352.131 1481.67 Q349.076 1477.06 349.076 1468.33 Q349.076 1459.58 352.131 1455 Q355.21 1450.39 361.02 1450.39 Z" fill="#000000" fill-rule="nonzero" fill-opacity="1" /><path clip-path="url(#clip040)" d="M719.458 1454.1 Q715.847 1454.1 714.018 1457.66 Q712.212 1461.2 712.212 1468.33 Q712.212 1475.44 714.018 1479.01 Q715.847 1482.55 719.458 1482.55 Q723.092 1482.55 724.897 1479.01 Q726.726 1475.44 726.726 1468.33 Q726.726 1461.2 724.897 1457.66 Q723.092 1454.1 719.458 1454.1 M719.458 1450.39 Q725.268 1450.39 728.323 1455 Q731.402 1459.58 731.402 1468.33 Q731.402 1477.06 728.323 1481.67 Q725.268 1486.25 719.458 1486.25 Q713.648 1486.25 710.569 1481.67 Q707.513 1477.06 707.513 1468.33 Q707.513 1459.58 710.569 1455 Q713.648 1450.39 719.458 1450.39 Z" fill="#000000" fill-rule="nonzero" fill-opacity="1" /><path clip-path="url(#clip040)" d="M739.62 1479.7 L744.504 1479.7 L744.504 1485.58 L739.62 1485.58 L739.62 1479.7 Z" fill="#000000" fill-rule="nonzero" fill-opacity="1" /><path clip-path="url(#clip040)" d="M758.717 1481.64 L775.036 1481.64 L775.036 1485.58 L753.092 1485.58 L753.092 1481.64 Q755.754 1478.89 760.337 1474.26 Q764.944 1469.61 766.124 1468.27 Q768.369 1465.74 769.249 1464.01 Q770.152 1462.25 770.152 1460.56 Q770.152 1457.8 768.207 1456.07 Q766.286 1454.33 763.184 1454.33 Q760.985 1454.33 758.532 1455.09 Q756.101 1455.86 753.323 1457.41 L753.323 1452.69 Q756.147 1451.55 758.601 1450.97 Q761.055 1450.39 763.092 1450.39 Q768.462 1450.39 771.656 1453.08 Q774.851 1455.77 774.851 1460.26 Q774.851 1462.39 774.041 1464.31 Q773.254 1466.2 771.147 1468.8 Q770.569 1469.47 767.467 1472.69 Q764.365 1475.88 758.717 1481.64 Z" fill="#000000" fill-rule="nonzero" fill-opacity="1" /><path clip-path="url(#clip040)" d="M1121.29 1454.1 Q1117.68 1454.1 1115.85 1457.66 Q1114.04 1461.2 1114.04 1468.33 Q1114.04 1475.44 1115.85 1479.01 Q1117.68 1482.55 1121.29 1482.55 Q1124.92 1482.55 1126.73 1479.01 Q1128.55 1475.44 1128.55 1468.33 Q1128.55 1461.2 1126.73 1457.66 Q1124.92 1454.1 1121.29 1454.1 M1121.29 1450.39 Q1127.1 1450.39 1130.15 1455 Q1133.23 1459.58 1133.23 1468.33 Q1133.23 1477.06 1130.15 1481.67 Q1127.1 1486.25 1121.29 1486.25 Q1115.48 1486.25 1112.4 1481.67 Q1109.34 1477.06 1109.34 1468.33 Q1109.34 1459.58 1112.4 1455 Q1115.48 1450.39 1121.29 1450.39 Z" fill="#000000" fill-rule="nonzero" fill-opacity="1" /><path clip-path="url(#clip040)" d="M1141.45 1479.7 L1146.33 1479.7 L1146.33 1485.58 L1141.45 1485.58 L1141.45 1479.7 Z" fill="#000000" fill-rule="nonzero" fill-opacity="1" /><path clip-path="url(#clip040)" d="M1169.36 1455.09 L1157.56 1473.54 L1169.36 1473.54 L1169.36 1455.09 M1168.14 1451.02 L1174.02 1451.02 L1174.02 1473.54 L1178.95 1473.54 L1178.95 1477.43 L1174.02 1477.43 L1174.02 1485.58 L1169.36 1485.58 L1169.36 1477.43 L1153.76 1477.43 L1153.76 1472.92 L1168.14 1451.02 Z" fill="#000000" fill-rule="nonzero" fill-opacity="1" /><path clip-path="url(#clip040)" d="M1524.32 1454.1 Q1520.71 1454.1 1518.88 1457.66 Q1517.07 1461.2 1517.07 1468.33 Q1517.07 1475.44 1518.88 1479.01 Q1520.71 1482.55 1524.32 1482.55 Q1527.95 1482.55 1529.76 1479.01 Q1531.59 1475.44 1531.59 1468.33 Q1531.59 1461.2 1529.76 1457.66 Q1527.95 1454.1 1524.32 1454.1 M1524.32 1450.39 Q1530.13 1450.39 1533.18 1455 Q1536.26 1459.58 1536.26 1468.33 Q1536.26 1477.06 1533.18 1481.67 Q1530.13 1486.25 1524.32 1486.25 Q1518.51 1486.25 1515.43 1481.67 Q1512.37 1477.06 1512.37 1468.33 Q1512.37 1459.58 1515.43 1455 Q1518.51 1450.39 1524.32 1450.39 Z" fill="#000000" fill-rule="nonzero" fill-opacity="1" /><path clip-path="url(#clip040)" d="M1544.48 1479.7 L1549.36 1479.7 L1549.36 1485.58 L1544.48 1485.58 L1544.48 1479.7 Z" fill="#000000" fill-rule="nonzero" fill-opacity="1" /><path clip-path="url(#clip040)" d="M1570.13 1466.44 Q1566.98 1466.44 1565.13 1468.59 Q1563.3 1470.74 1563.3 1474.49 Q1563.3 1478.22 1565.13 1480.39 Q1566.98 1482.55 1570.13 1482.55 Q1573.28 1482.55 1575.11 1480.39 Q1576.96 1478.22 1576.96 1474.49 Q1576.96 1470.74 1575.11 1468.59 Q1573.28 1466.44 1570.13 1466.44 M1579.41 1451.78 L1579.41 1456.04 Q1577.65 1455.21 1575.85 1454.77 Q1574.06 1454.33 1572.3 1454.33 Q1567.67 1454.33 1565.22 1457.45 Q1562.79 1460.58 1562.44 1466.9 Q1563.81 1464.89 1565.87 1463.82 Q1567.93 1462.73 1570.41 1462.73 Q1575.61 1462.73 1578.62 1465.9 Q1581.66 1469.05 1581.66 1474.49 Q1581.66 1479.82 1578.51 1483.03 Q1575.36 1486.25 1570.13 1486.25 Q1564.13 1486.25 1560.96 1481.67 Q1557.79 1477.06 1557.79 1468.33 Q1557.79 1460.14 1561.68 1455.28 Q1565.57 1450.39 1572.12 1450.39 Q1573.88 1450.39 1575.66 1450.74 Q1577.47 1451.09 1579.41 1451.78 Z" fill="#000000" fill-rule="nonzero" fill-opacity="1" /><path clip-path="url(#clip040)" d="M1927.32 1454.1 Q1923.71 1454.1 1921.88 1457.66 Q1920.07 1461.2 1920.07 1468.33 Q1920.07 1475.44 1921.88 1479.01 Q1923.71 1482.55 1927.32 1482.55 Q1930.95 1482.55 1932.76 1479.01 Q1934.58 1475.44 1934.58 1468.33 Q1934.58 1461.2 1932.76 1457.66 Q1930.95 1454.1 1927.32 1454.1 M1927.32 1450.39 Q1933.13 1450.39 1936.18 1455 Q1939.26 1459.58 1939.26 1468.33 Q1939.26 1477.06 1936.18 1481.67 Q1933.13 1486.25 1927.32 1486.25 Q1921.51 1486.25 1918.43 1481.67 Q1915.37 1477.06 1915.37 1468.33 Q1915.37 1459.58 1918.43 1455 Q1921.51 1450.39 1927.32 1450.39 Z" fill="#000000" fill-rule="nonzero" fill-opacity="1" /><path clip-path="url(#clip040)" d="M1947.48 1479.7 L1952.36 1479.7 L1952.36 1485.58 L1947.48 1485.58 L1947.48 1479.7 Z" fill="#000000" fill-rule="nonzero" fill-opacity="1" /><path clip-path="url(#clip040)" d="M1972.55 1469.17 Q1969.21 1469.17 1967.29 1470.95 Q1965.39 1472.73 1965.39 1475.86 Q1965.39 1478.98 1967.29 1480.77 Q1969.21 1482.55 1972.55 1482.55 Q1975.88 1482.55 1977.8 1480.77 Q1979.72 1478.96 1979.72 1475.86 Q1979.72 1472.73 1977.8 1470.95 Q1975.9 1469.17 1972.55 1469.17 M1967.87 1467.18 Q1964.86 1466.44 1963.17 1464.38 Q1961.51 1462.32 1961.51 1459.35 Q1961.51 1455.21 1964.45 1452.8 Q1967.41 1450.39 1972.55 1450.39 Q1977.71 1450.39 1980.65 1452.8 Q1983.59 1455.21 1983.59 1459.35 Q1983.59 1462.32 1981.9 1464.38 Q1980.23 1466.44 1977.25 1467.18 Q1980.63 1467.96 1982.5 1470.26 Q1984.4 1472.55 1984.4 1475.86 Q1984.4 1480.88 1981.32 1483.57 Q1978.27 1486.25 1972.55 1486.25 Q1966.83 1486.25 1963.75 1483.57 Q1960.7 1480.88 1960.7 1475.86 Q1960.7 1472.55 1962.59 1470.26 Q1964.49 1467.96 1967.87 1467.18 M1966.16 1459.79 Q1966.16 1462.48 1967.83 1463.98 Q1969.52 1465.49 1972.55 1465.49 Q1975.56 1465.49 1977.25 1463.98 Q1978.96 1462.48 1978.96 1459.79 Q1978.96 1457.11 1977.25 1455.6 Q1975.56 1454.1 1972.55 1454.1 Q1969.52 1454.1 1967.83 1455.6 Q1966.16 1457.11 1966.16 1459.79 Z" fill="#000000" fill-rule="nonzero" fill-opacity="1" /><path clip-path="url(#clip040)" d="M2319.91 1481.64 L2327.55 1481.64 L2327.55 1455.28 L2319.24 1456.95 L2319.24 1452.69 L2327.5 1451.02 L2332.18 1451.02 L2332.18 1481.64 L2339.82 1481.64 L2339.82 1485.58 L2319.91 1485.58 L2319.91 1481.64 Z" fill="#000000" fill-rule="nonzero" fill-opacity="1" /><path clip-path="url(#clip040)" d="M2349.26 1479.7 L2354.14 1479.7 L2354.14 1485.58 L2349.26 1485.58 L2349.26 1479.7 Z" fill="#000000" fill-rule="nonzero" fill-opacity="1" /><path clip-path="url(#clip040)" d="M2374.33 1454.1 Q2370.72 1454.1 2368.89 1457.66 Q2367.08 1461.2 2367.08 1468.33 Q2367.08 1475.44 2368.89 1479.01 Q2370.72 1482.55 2374.33 1482.55 Q2377.96 1482.55 2379.77 1479.01 Q2381.6 1475.44 2381.6 1468.33 Q2381.6 1461.2 2379.77 1457.66 Q2377.96 1454.1 2374.33 1454.1 M2374.33 1450.39 Q2380.14 1450.39 2383.2 1455 Q2386.27 1459.58 2386.27 1468.33 Q2386.27 1477.06 2383.2 1481.67 Q2380.14 1486.25 2374.33 1486.25 Q2368.52 1486.25 2365.44 1481.67 Q2362.39 1477.06 2362.39 1468.33 Q2362.39 1459.58 2365.44 1455 Q2368.52 1450.39 2374.33 1450.39 Z" fill="#000000" fill-rule="nonzero" fill-opacity="1" /><path clip-path="url(#clip040)" d="M1359.85 1528.53 Q1359.85 1533.3 1357.4 1537.78 Q1354.99 1542.25 1351.19 1544.96 Q1347.42 1547.66 1343.62 1547.66 Q1339.33 1547.66 1337.11 1543.22 Q1333.09 1559.35 1332.86 1559.77 Q1331.93 1561.16 1330.57 1561.16 Q1329.74 1561.16 1329.22 1560.64 Q1328.71 1560.16 1328.71 1559.39 Q1328.74 1559.13 1328.93 1558.32 L1335.37 1532.4 Q1336.85 1526.38 1341.33 1522.09 Q1345.84 1517.78 1350.67 1517.78 Q1354.5 1517.78 1357.18 1520.64 Q1359.85 1523.51 1359.85 1528.53 M1355.11 1525.7 Q1355.11 1522.48 1353.83 1520.87 Q1352.54 1519.23 1350.54 1519.23 Q1348.71 1519.23 1346.48 1520.71 Q1344.29 1522.19 1342.36 1525.47 Q1341.33 1527.37 1340.59 1529.72 Q1339.85 1532.08 1338.4 1537.87 Q1337.88 1540.19 1337.88 1540.32 Q1337.88 1540.58 1338.01 1541.16 Q1338.17 1541.74 1338.56 1542.64 Q1338.98 1543.51 1339.56 1544.28 Q1340.14 1545.05 1341.2 1545.63 Q1342.26 1546.18 1343.55 1546.18 Q1345.55 1546.18 1347.68 1544.57 Q1349.83 1542.93 1351.41 1539.93 Q1352.73 1537.52 1353.92 1532.98 Q1355.11 1528.4 1355.11 1525.7 Z" fill="#000000" fill-rule="nonzero" fill-opacity="1" /><polyline clip-path="url(#clip040)" style="stroke:#000000; stroke-linecap:round; stroke-linejoin:round; stroke-width:4; stroke-opacity:1; fill:none" points="338.404,1423.18 338.404,47.2441 "/>
<polyline clip-path="url(#clip040)" style="stroke:#000000; stroke-linecap:round; stroke-linejoin:round; stroke-width:4; stroke-opacity:1; fill:none" points="338.404,1385.35 357.302,1385.35 "/>
<polyline clip-path="url(#clip040)" style="stroke:#000000; stroke-linecap:round; stroke-linejoin:round; stroke-width:4; stroke-opacity:1; fill:none" points="338.404,1127.26 357.302,1127.26 "/>
<polyline clip-path="url(#clip040)" style="stroke:#000000; stroke-linecap:round; stroke-linejoin:round; stroke-width:4; stroke-opacity:1; fill:none" points="338.404,869.171 357.302,869.171 "/>
<polyline clip-path="url(#clip040)" style="stroke:#000000; stroke-linecap:round; stroke-linejoin:round; stroke-width:4; stroke-opacity:1; fill:none" points="338.404,611.082 357.302,611.082 "/>
<polyline clip-path="url(#clip040)" style="stroke:#000000; stroke-linecap:round; stroke-linejoin:round; stroke-width:4; stroke-opacity:1; fill:none" points="338.404,352.993 357.302,352.993 "/>
<polyline clip-path="url(#clip040)" style="stroke:#000000; stroke-linecap:round; stroke-linejoin:round; stroke-width:4; stroke-opacity:1; fill:none" points="338.404,94.9046 357.302,94.9046 "/>
<path clip-path="url(#clip040)" d="M290.46 1371.15 Q286.849 1371.15 285.02 1374.71 Q283.215 1378.25 283.215 1385.38 Q283.215 1392.49 285.02 1396.05 Q286.849 1399.6 290.46 1399.6 Q294.094 1399.6 295.9 1396.05 Q297.729 1392.49 297.729 1385.38 Q297.729 1378.25 295.9 1374.71 Q294.094 1371.15 290.46 1371.15 M290.46 1367.44 Q296.27 1367.44 299.326 1372.05 Q302.404 1376.63 302.404 1385.38 Q302.404 1394.11 299.326 1398.72 Q296.27 1403.3 290.46 1403.3 Q284.65 1403.3 281.571 1398.72 Q278.516 1394.11 278.516 1385.38 Q278.516 1376.63 281.571 1372.05 Q284.65 1367.44 290.46 1367.44 Z" fill="#000000" fill-rule="nonzero" fill-opacity="1" /><path clip-path="url(#clip040)" d="M117.825 1147.05 L125.464 1147.05 L125.464 1120.69 L117.154 1122.35 L117.154 1118.09 L125.418 1116.43 L130.093 1116.43 L130.093 1147.05 L137.732 1147.05 L137.732 1150.99 L117.825 1150.99 L117.825 1147.05 Z" fill="#000000" fill-rule="nonzero" fill-opacity="1" /><path clip-path="url(#clip040)" d="M147.177 1145.11 L152.061 1145.11 L152.061 1150.99 L147.177 1150.99 L147.177 1145.11 Z" fill="#000000" fill-rule="nonzero" fill-opacity="1" /><path clip-path="url(#clip040)" d="M172.246 1119.51 Q168.635 1119.51 166.806 1123.07 Q165.001 1126.61 165.001 1133.74 Q165.001 1140.85 166.806 1144.41 Q168.635 1147.96 172.246 1147.96 Q175.88 1147.96 177.686 1144.41 Q179.514 1140.85 179.514 1133.74 Q179.514 1126.61 177.686 1123.07 Q175.88 1119.51 172.246 1119.51 M172.246 1115.8 Q178.056 1115.8 181.112 1120.41 Q184.19 1124.99 184.19 1133.74 Q184.19 1142.47 181.112 1147.08 Q178.056 1151.66 172.246 1151.66 Q166.436 1151.66 163.357 1147.08 Q160.302 1142.47 160.302 1133.74 Q160.302 1124.99 163.357 1120.41 Q166.436 1115.8 172.246 1115.8 Z" fill="#000000" fill-rule="nonzero" fill-opacity="1" /><path clip-path="url(#clip040)" d="M220.579 1125.52 L210 1136.15 L220.579 1146.73 L217.824 1149.53 L207.199 1138.9 L196.575 1149.53 L193.843 1146.73 L204.399 1136.15 L193.843 1125.52 L196.575 1122.72 L207.199 1133.35 L217.824 1122.72 L220.579 1125.52 Z" fill="#000000" fill-rule="nonzero" fill-opacity="1" /><path clip-path="url(#clip040)" d="M232.94 1147.05 L240.579 1147.05 L240.579 1120.69 L232.269 1122.35 L232.269 1118.09 L240.533 1116.43 L245.209 1116.43 L245.209 1147.05 L252.847 1147.05 L252.847 1150.99 L232.94 1150.99 L232.94 1147.05 Z" fill="#000000" fill-rule="nonzero" fill-opacity="1" /><path clip-path="url(#clip040)" d="M272.292 1119.51 Q268.681 1119.51 266.852 1123.07 Q265.046 1126.61 265.046 1133.74 Q265.046 1140.85 266.852 1144.41 Q268.681 1147.96 272.292 1147.96 Q275.926 1147.96 277.732 1144.41 Q279.56 1140.85 279.56 1133.74 Q279.56 1126.61 277.732 1123.07 Q275.926 1119.51 272.292 1119.51 M272.292 1115.8 Q278.102 1115.8 281.157 1120.41 Q284.236 1124.99 284.236 1133.74 Q284.236 1142.47 281.157 1147.08 Q278.102 1151.66 272.292 1151.66 Q266.482 1151.66 263.403 1147.08 Q260.347 1142.47 260.347 1133.74 Q260.347 1124.99 263.403 1120.41 Q266.482 1115.8 272.292 1115.8 Z" fill="#000000" fill-rule="nonzero" fill-opacity="1" /><path clip-path="url(#clip040)" d="M285.421 1095.5 L300.336 1095.5 L300.336 1098.69 L288.9 1098.69 L288.9 1105.58 Q289.728 1105.3 290.556 1105.16 Q291.383 1105.01 292.211 1105.01 Q296.913 1105.01 299.658 1107.59 Q302.404 1110.17 302.404 1114.57 Q302.404 1119.1 299.583 1121.62 Q296.762 1124.12 291.628 1124.12 Q289.86 1124.12 288.016 1123.82 Q286.192 1123.52 284.236 1122.92 L284.236 1119.1 Q285.929 1120.02 287.734 1120.47 Q289.54 1120.93 291.552 1120.93 Q294.806 1120.93 296.706 1119.21 Q298.605 1117.5 298.605 1114.57 Q298.605 1111.63 296.706 1109.92 Q294.806 1108.21 291.552 1108.21 Q290.029 1108.21 288.505 1108.55 Q287.001 1108.89 285.421 1109.6 L285.421 1095.5 Z" fill="#000000" fill-rule="nonzero" fill-opacity="1" /><path clip-path="url(#clip040)" d="M121.043 888.964 L137.362 888.964 L137.362 892.899 L115.418 892.899 L115.418 888.964 Q118.08 886.209 122.663 881.579 Q127.269 876.927 128.45 875.584 Q130.695 873.061 131.575 871.325 Q132.478 869.566 132.478 867.876 Q132.478 865.121 130.533 863.385 Q128.612 861.649 125.51 861.649 Q123.311 861.649 120.857 862.413 Q118.427 863.177 115.649 864.728 L115.649 860.005 Q118.473 858.871 120.927 858.292 Q123.38 857.714 125.418 857.714 Q130.788 857.714 133.982 860.399 Q137.177 863.084 137.177 867.575 Q137.177 869.704 136.367 871.626 Q135.579 873.524 133.473 876.116 Q132.894 876.788 129.792 880.005 Q126.691 883.2 121.043 888.964 Z" fill="#000000" fill-rule="nonzero" fill-opacity="1" /><path clip-path="url(#clip040)" d="M147.177 887.019 L152.061 887.019 L152.061 892.899 L147.177 892.899 L147.177 887.019 Z" fill="#000000" fill-rule="nonzero" fill-opacity="1" /><path clip-path="url(#clip040)" d="M172.246 861.417 Q168.635 861.417 166.806 864.982 Q165.001 868.524 165.001 875.653 Q165.001 882.76 166.806 886.325 Q168.635 889.866 172.246 889.866 Q175.88 889.866 177.686 886.325 Q179.514 882.76 179.514 875.653 Q179.514 868.524 177.686 864.982 Q175.88 861.417 172.246 861.417 M172.246 857.714 Q178.056 857.714 181.112 862.32 Q184.19 866.903 184.19 875.653 Q184.19 884.38 181.112 888.987 Q178.056 893.57 172.246 893.57 Q166.436 893.57 163.357 888.987 Q160.302 884.38 160.302 875.653 Q160.302 866.903 163.357 862.32 Q166.436 857.714 172.246 857.714 Z" fill="#000000" fill-rule="nonzero" fill-opacity="1" /><path clip-path="url(#clip040)" d="M220.579 867.436 L210 878.061 L220.579 888.639 L217.824 891.44 L207.199 880.815 L196.575 891.44 L193.843 888.639 L204.399 878.061 L193.843 867.436 L196.575 864.635 L207.199 875.26 L217.824 864.635 L220.579 867.436 Z" fill="#000000" fill-rule="nonzero" fill-opacity="1" /><path clip-path="url(#clip040)" d="M232.94 888.964 L240.579 888.964 L240.579 862.598 L232.269 864.265 L232.269 860.005 L240.533 858.339 L245.209 858.339 L245.209 888.964 L252.847 888.964 L252.847 892.899 L232.94 892.899 L232.94 888.964 Z" fill="#000000" fill-rule="nonzero" fill-opacity="1" /><path clip-path="url(#clip040)" d="M272.292 861.417 Q268.681 861.417 266.852 864.982 Q265.046 868.524 265.046 875.653 Q265.046 882.76 266.852 886.325 Q268.681 889.866 272.292 889.866 Q275.926 889.866 277.732 886.325 Q279.56 882.76 279.56 875.653 Q279.56 868.524 277.732 864.982 Q275.926 861.417 272.292 861.417 M272.292 857.714 Q278.102 857.714 281.157 862.32 Q284.236 866.903 284.236 875.653 Q284.236 884.38 281.157 888.987 Q278.102 893.57 272.292 893.57 Q266.482 893.57 263.403 888.987 Q260.347 884.38 260.347 875.653 Q260.347 866.903 263.403 862.32 Q266.482 857.714 272.292 857.714 Z" fill="#000000" fill-rule="nonzero" fill-opacity="1" /><path clip-path="url(#clip040)" d="M285.421 837.408 L300.336 837.408 L300.336 840.606 L288.9 840.606 L288.9 847.489 Q289.728 847.207 290.556 847.076 Q291.383 846.925 292.211 846.925 Q296.913 846.925 299.658 849.502 Q302.404 852.078 302.404 856.479 Q302.404 861.012 299.583 863.532 Q296.762 866.034 291.628 866.034 Q289.86 866.034 288.016 865.733 Q286.192 865.432 284.236 864.83 L284.236 861.012 Q285.929 861.934 287.734 862.385 Q289.54 862.836 291.552 862.836 Q294.806 862.836 296.706 861.125 Q298.605 859.413 298.605 856.479 Q298.605 853.545 296.706 851.834 Q294.806 850.122 291.552 850.122 Q290.029 850.122 288.505 850.461 Q287.001 850.799 285.421 851.514 L285.421 837.408 Z" fill="#000000" fill-rule="nonzero" fill-opacity="1" /><path clip-path="url(#clip040)" d="M131.181 616.176 Q134.538 616.893 136.413 619.162 Q138.311 621.43 138.311 624.764 Q138.311 629.879 134.792 632.68 Q131.274 635.481 124.793 635.481 Q122.617 635.481 120.302 635.041 Q118.01 634.625 115.556 633.768 L115.556 629.254 Q117.501 630.389 119.816 630.967 Q122.13 631.546 124.654 631.546 Q129.052 631.546 131.343 629.81 Q133.658 628.074 133.658 624.764 Q133.658 621.708 131.505 619.995 Q129.376 618.259 125.556 618.259 L121.529 618.259 L121.529 614.416 L125.742 614.416 Q129.191 614.416 131.019 613.051 Q132.848 611.662 132.848 609.069 Q132.848 606.407 130.95 604.995 Q129.075 603.56 125.556 603.56 Q123.635 603.56 121.436 603.977 Q119.237 604.393 116.598 605.273 L116.598 601.106 Q119.26 600.366 121.575 599.995 Q123.913 599.625 125.973 599.625 Q131.297 599.625 134.399 602.055 Q137.501 604.463 137.501 608.583 Q137.501 611.454 135.857 613.444 Q134.214 615.412 131.181 616.176 Z" fill="#000000" fill-rule="nonzero" fill-opacity="1" /><path clip-path="url(#clip040)" d="M147.177 628.93 L152.061 628.93 L152.061 634.81 L147.177 634.81 L147.177 628.93 Z" fill="#000000" fill-rule="nonzero" fill-opacity="1" /><path clip-path="url(#clip040)" d="M172.246 603.329 Q168.635 603.329 166.806 606.893 Q165.001 610.435 165.001 617.565 Q165.001 624.671 166.806 628.236 Q168.635 631.777 172.246 631.777 Q175.88 631.777 177.686 628.236 Q179.514 624.671 179.514 617.565 Q179.514 610.435 177.686 606.893 Q175.88 603.329 172.246 603.329 M172.246 599.625 Q178.056 599.625 181.112 604.231 Q184.19 608.815 184.19 617.565 Q184.19 626.291 181.112 630.898 Q178.056 635.481 172.246 635.481 Q166.436 635.481 163.357 630.898 Q160.302 626.291 160.302 617.565 Q160.302 608.815 163.357 604.231 Q166.436 599.625 172.246 599.625 Z" fill="#000000" fill-rule="nonzero" fill-opacity="1" /><path clip-path="url(#clip040)" d="M220.579 609.347 L210 619.972 L220.579 630.551 L217.824 633.352 L207.199 622.727 L196.575 633.352 L193.843 630.551 L204.399 619.972 L193.843 609.347 L196.575 606.546 L207.199 617.171 L217.824 606.546 L220.579 609.347 Z" fill="#000000" fill-rule="nonzero" fill-opacity="1" /><path clip-path="url(#clip040)" d="M232.94 630.875 L240.579 630.875 L240.579 604.509 L232.269 606.176 L232.269 601.917 L240.533 600.25 L245.209 600.25 L245.209 630.875 L252.847 630.875 L252.847 634.81 L232.94 634.81 L232.94 630.875 Z" fill="#000000" fill-rule="nonzero" fill-opacity="1" /><path clip-path="url(#clip040)" d="M272.292 603.329 Q268.681 603.329 266.852 606.893 Q265.046 610.435 265.046 617.565 Q265.046 624.671 266.852 628.236 Q268.681 631.777 272.292 631.777 Q275.926 631.777 277.732 628.236 Q279.56 624.671 279.56 617.565 Q279.56 610.435 277.732 606.893 Q275.926 603.329 272.292 603.329 M272.292 599.625 Q278.102 599.625 281.157 604.231 Q284.236 608.815 284.236 617.565 Q284.236 626.291 281.157 630.898 Q278.102 635.481 272.292 635.481 Q266.482 635.481 263.403 630.898 Q260.347 626.291 260.347 617.565 Q260.347 608.815 263.403 604.231 Q266.482 599.625 272.292 599.625 Z" fill="#000000" fill-rule="nonzero" fill-opacity="1" /><path clip-path="url(#clip040)" d="M285.421 579.319 L300.336 579.319 L300.336 582.517 L288.9 582.517 L288.9 589.4 Q289.728 589.118 290.556 588.987 Q291.383 588.836 292.211 588.836 Q296.913 588.836 299.658 591.413 Q302.404 593.99 302.404 598.391 Q302.404 602.923 299.583 605.443 Q296.762 607.945 291.628 607.945 Q289.86 607.945 288.016 607.644 Q286.192 607.343 284.236 606.741 L284.236 602.923 Q285.929 603.845 287.734 604.296 Q289.54 604.748 291.552 604.748 Q294.806 604.748 296.706 603.036 Q298.605 601.325 298.605 598.391 Q298.605 595.457 296.706 593.745 Q294.806 592.034 291.552 592.034 Q290.029 592.034 288.505 592.372 Q287.001 592.711 285.421 593.425 L285.421 579.319 Z" fill="#000000" fill-rule="nonzero" fill-opacity="1" /><path clip-path="url(#clip040)" d="M129.862 346.235 L118.056 364.684 L129.862 364.684 L129.862 346.235 M128.635 342.161 L134.515 342.161 L134.515 364.684 L139.445 364.684 L139.445 368.573 L134.515 368.573 L134.515 376.721 L129.862 376.721 L129.862 368.573 L114.26 368.573 L114.26 364.059 L128.635 342.161 Z" fill="#000000" fill-rule="nonzero" fill-opacity="1" /><path clip-path="url(#clip040)" d="M147.177 370.841 L152.061 370.841 L152.061 376.721 L147.177 376.721 L147.177 370.841 Z" fill="#000000" fill-rule="nonzero" fill-opacity="1" /><path clip-path="url(#clip040)" d="M172.246 345.24 Q168.635 345.24 166.806 348.804 Q165.001 352.346 165.001 359.476 Q165.001 366.582 166.806 370.147 Q168.635 373.689 172.246 373.689 Q175.88 373.689 177.686 370.147 Q179.514 366.582 179.514 359.476 Q179.514 352.346 177.686 348.804 Q175.88 345.24 172.246 345.24 M172.246 341.536 Q178.056 341.536 181.112 346.142 Q184.19 350.726 184.19 359.476 Q184.19 368.203 181.112 372.809 Q178.056 377.392 172.246 377.392 Q166.436 377.392 163.357 372.809 Q160.302 368.203 160.302 359.476 Q160.302 350.726 163.357 346.142 Q166.436 341.536 172.246 341.536 Z" fill="#000000" fill-rule="nonzero" fill-opacity="1" /><path clip-path="url(#clip040)" d="M220.579 351.258 L210 361.883 L220.579 372.462 L217.824 375.263 L207.199 364.638 L196.575 375.263 L193.843 372.462 L204.399 361.883 L193.843 351.258 L196.575 348.457 L207.199 359.082 L217.824 348.457 L220.579 351.258 Z" fill="#000000" fill-rule="nonzero" fill-opacity="1" /><path clip-path="url(#clip040)" d="M232.94 372.786 L240.579 372.786 L240.579 346.42 L232.269 348.087 L232.269 343.828 L240.533 342.161 L245.209 342.161 L245.209 372.786 L252.847 372.786 L252.847 376.721 L232.94 376.721 L232.94 372.786 Z" fill="#000000" fill-rule="nonzero" fill-opacity="1" /><path clip-path="url(#clip040)" d="M272.292 345.24 Q268.681 345.24 266.852 348.804 Q265.046 352.346 265.046 359.476 Q265.046 366.582 266.852 370.147 Q268.681 373.689 272.292 373.689 Q275.926 373.689 277.732 370.147 Q279.56 366.582 279.56 359.476 Q279.56 352.346 277.732 348.804 Q275.926 345.24 272.292 345.24 M272.292 341.536 Q278.102 341.536 281.157 346.142 Q284.236 350.726 284.236 359.476 Q284.236 368.203 281.157 372.809 Q278.102 377.392 272.292 377.392 Q266.482 377.392 263.403 372.809 Q260.347 368.203 260.347 359.476 Q260.347 350.726 263.403 346.142 Q266.482 341.536 272.292 341.536 Z" fill="#000000" fill-rule="nonzero" fill-opacity="1" /><path clip-path="url(#clip040)" d="M285.421 321.231 L300.336 321.231 L300.336 324.428 L288.9 324.428 L288.9 331.312 Q289.728 331.029 290.556 330.898 Q291.383 330.747 292.211 330.747 Q296.913 330.747 299.658 333.324 Q302.404 335.901 302.404 340.302 Q302.404 344.834 299.583 347.355 Q296.762 349.856 291.628 349.856 Q289.86 349.856 288.016 349.555 Q286.192 349.254 284.236 348.652 L284.236 344.834 Q285.929 345.756 287.734 346.207 Q289.54 346.659 291.552 346.659 Q294.806 346.659 296.706 344.947 Q298.605 343.236 298.605 340.302 Q298.605 337.368 296.706 335.656 Q294.806 333.945 291.552 333.945 Q290.029 333.945 288.505 334.283 Q287.001 334.622 285.421 335.336 L285.421 321.231 Z" fill="#000000" fill-rule="nonzero" fill-opacity="1" /><path clip-path="url(#clip040)" d="M117.061 84.0722 L135.417 84.0722 L135.417 88.0073 L121.343 88.0073 L121.343 96.4795 Q122.362 96.1323 123.38 95.9702 Q124.399 95.7851 125.418 95.7851 Q131.205 95.7851 134.584 98.9563 Q137.964 102.128 137.964 107.544 Q137.964 113.123 134.492 116.225 Q131.019 119.303 124.7 119.303 Q122.524 119.303 120.255 118.933 Q118.01 118.563 115.603 117.822 L115.603 113.123 Q117.686 114.257 119.908 114.813 Q122.13 115.368 124.607 115.368 Q128.612 115.368 130.95 113.262 Q133.288 111.155 133.288 107.544 Q133.288 103.933 130.95 101.827 Q128.612 99.7202 124.607 99.7202 Q122.732 99.7202 120.857 100.137 Q119.006 100.554 117.061 101.433 L117.061 84.0722 Z" fill="#000000" fill-rule="nonzero" fill-opacity="1" /><path clip-path="url(#clip040)" d="M147.177 112.753 L152.061 112.753 L152.061 118.632 L147.177 118.632 L147.177 112.753 Z" fill="#000000" fill-rule="nonzero" fill-opacity="1" /><path clip-path="url(#clip040)" d="M172.246 87.1508 Q168.635 87.1508 166.806 90.7156 Q165.001 94.2573 165.001 101.387 Q165.001 108.493 166.806 112.058 Q168.635 115.6 172.246 115.6 Q175.88 115.6 177.686 112.058 Q179.514 108.493 179.514 101.387 Q179.514 94.2573 177.686 90.7156 Q175.88 87.1508 172.246 87.1508 M172.246 83.4472 Q178.056 83.4472 181.112 88.0536 Q184.19 92.6369 184.19 101.387 Q184.19 110.114 181.112 114.72 Q178.056 119.303 172.246 119.303 Q166.436 119.303 163.357 114.72 Q160.302 110.114 160.302 101.387 Q160.302 92.6369 163.357 88.0536 Q166.436 83.4472 172.246 83.4472 Z" fill="#000000" fill-rule="nonzero" fill-opacity="1" /><path clip-path="url(#clip040)" d="M220.579 93.1693 L210 103.794 L220.579 114.373 L217.824 117.174 L207.199 106.549 L196.575 117.174 L193.843 114.373 L204.399 103.794 L193.843 93.1693 L196.575 90.3684 L207.199 100.993 L217.824 90.3684 L220.579 93.1693 Z" fill="#000000" fill-rule="nonzero" fill-opacity="1" /><path clip-path="url(#clip040)" d="M232.94 114.697 L240.579 114.697 L240.579 88.3314 L232.269 89.9981 L232.269 85.7388 L240.533 84.0722 L245.209 84.0722 L245.209 114.697 L252.847 114.697 L252.847 118.632 L232.94 118.632 L232.94 114.697 Z" fill="#000000" fill-rule="nonzero" fill-opacity="1" /><path clip-path="url(#clip040)" d="M272.292 87.1508 Q268.681 87.1508 266.852 90.7156 Q265.046 94.2573 265.046 101.387 Q265.046 108.493 266.852 112.058 Q268.681 115.6 272.292 115.6 Q275.926 115.6 277.732 112.058 Q279.56 108.493 279.56 101.387 Q279.56 94.2573 277.732 90.7156 Q275.926 87.1508 272.292 87.1508 M272.292 83.4472 Q278.102 83.4472 281.157 88.0536 Q284.236 92.6369 284.236 101.387 Q284.236 110.114 281.157 114.72 Q278.102 119.303 272.292 119.303 Q266.482 119.303 263.403 114.72 Q260.347 110.114 260.347 101.387 Q260.347 92.6369 263.403 88.0536 Q266.482 83.4472 272.292 83.4472 Z" fill="#000000" fill-rule="nonzero" fill-opacity="1" /><path clip-path="url(#clip040)" d="M285.421 63.1418 L300.336 63.1418 L300.336 66.3391 L288.9 66.3391 L288.9 73.2227 Q289.728 72.9406 290.556 72.809 Q291.383 72.6585 292.211 72.6585 Q296.913 72.6585 299.658 75.2352 Q302.404 77.8118 302.404 82.2128 Q302.404 86.7455 299.583 89.2658 Q296.762 91.7672 291.628 91.7672 Q289.86 91.7672 288.016 91.4663 Q286.192 91.1653 284.236 90.5635 L284.236 86.7455 Q285.929 87.6671 287.734 88.1185 Q289.54 88.5699 291.552 88.5699 Q294.806 88.5699 296.706 86.8584 Q298.605 85.1469 298.605 82.2128 Q298.605 79.2788 296.706 77.5673 Q294.806 75.8558 291.552 75.8558 Q290.029 75.8558 288.505 76.1944 Q287.001 76.5329 285.421 77.2476 L285.421 63.1418 Z" fill="#000000" fill-rule="nonzero" fill-opacity="1" /><path clip-path="url(#clip040)" d="M82.5735 784.322 L16.6159 784.322 L16.6159 774.37 L18.1296 774.37 L18.1296 779.91 L81.0598 779.91 L81.0598 774.37 L82.5735 774.37 L82.5735 784.322 Z" fill="#000000" fill-rule="nonzero" fill-opacity="1" /><path clip-path="url(#clip040)" d="M66.0841 766.172 L64.0551 766.172 L64.0551 764.594 Q64.0551 761.019 63.4754 760.214 Q62.8635 759.376 60.9312 759.376 L26.181 759.376 Q24.2809 759.376 23.7012 760.214 Q23.0893 761.051 23.0893 764.594 L23.0893 766.172 L21.0281 766.172 L21.0281 742.887 Q21.0281 736.22 24.6996 731.776 Q28.371 727.331 33.2985 727.331 Q38.1938 727.331 41.7365 731.872 Q45.2469 736.381 45.2469 742.372 L45.2469 753.515 L60.9312 753.515 Q62.8313 753.515 63.4432 752.71 Q64.0551 751.872 64.0551 748.297 L64.0551 746.719 L66.0841 746.719 Q65.8909 749.038 65.8909 756.478 Q65.8909 763.853 66.0841 766.172 M43.54 753.708 L43.54 744.626 Q43.54 741.663 42.7026 739.505 Q41.8653 737.347 40.8669 736.381 Q39.8363 735.383 38.1938 734.835 Q36.5191 734.256 35.6174 734.191 Q34.6834 734.127 33.2985 734.127 Q31.8493 734.127 30.9475 734.191 Q30.0135 734.256 28.371 734.835 Q26.6963 735.383 25.6979 736.381 Q24.6674 737.347 23.8944 739.505 Q23.0893 741.631 23.0893 744.626 L23.0893 750.487 Q23.0893 752.742 23.5402 753.225 Q23.991 753.708 25.7302 753.708 L43.54 753.708 Z" fill="#000000" fill-rule="nonzero" fill-opacity="1" /><path clip-path="url(#clip040)" d="M59.804 716.196 Q54.2001 716.196 51.2372 709.594 Q49.337 705.632 48.854 697.452 L46.4385 697.452 Q42.3484 697.452 40.1906 699.61 Q38.0006 701.736 38.0006 704.441 Q38.0006 709.272 41.0279 711.591 Q41.0923 709.626 42.0907 708.917 Q43.0569 708.209 44.0553 708.209 Q45.3757 708.209 46.2453 709.046 Q47.0826 709.851 47.0826 711.236 Q47.0826 712.557 46.2775 713.426 Q45.4401 714.296 43.9909 714.296 Q40.7703 714.296 38.6447 711.397 Q36.5191 708.467 36.5191 704.312 Q36.5191 698.901 40.1584 695.294 Q41.2856 694.167 42.7348 693.62 Q44.1841 693.04 45.1503 692.976 Q46.0843 692.911 47.9522 692.911 L61.1244 692.911 Q61.5109 692.911 62.155 692.782 Q62.7991 692.653 63.6364 692.074 Q64.4416 691.462 64.4416 690.463 Q64.4416 688.08 60.2226 688.112 L56.519 688.112 L56.519 686.438 L60.2226 686.438 Q63.7331 686.438 65.1179 688.306 Q66.4706 690.141 66.4706 691.848 Q66.4706 694.038 64.8603 695.423 Q63.25 696.808 61.06 697.001 Q63.572 698 65.2145 700.286 Q66.8248 702.541 66.8248 705.632 Q66.8248 708.016 66.2129 710.27 Q65.6332 712.492 63.9907 714.36 Q62.316 716.196 59.804 716.196 M59.7395 711.107 Q62.1872 711.107 63.7653 709.368 Q65.3434 707.629 65.3434 705.182 Q65.3434 702.412 63.2178 699.932 Q61.06 697.452 56.841 697.452 L50.2388 697.452 Q50.4965 704.763 53.4272 707.951 Q56.3257 711.107 59.7395 711.107 Z" fill="#000000" fill-rule="nonzero" fill-opacity="1" /><path clip-path="url(#clip040)" d="M81.0598 683.532 L81.0598 677.992 L18.1296 677.992 L18.1296 683.532 L16.6159 683.532 L16.6159 673.58 L82.5735 673.58 L82.5735 683.532 L81.0598 683.532 Z" fill="#000000" fill-rule="nonzero" fill-opacity="1" /><polyline clip-path="url(#clip042)" style="stroke:#009af9; stroke-linecap:round; stroke-linejoin:round; stroke-width:4; stroke-opacity:1; fill:none" points="338.404,86.1857 358.548,86.7545 378.691,88.4594 398.835,91.2959 418.978,95.2565 439.122,100.331 459.265,106.506 479.409,113.765 499.553,122.089 519.696,131.457 539.84,141.845 559.983,153.226 580.127,165.57 600.27,178.847 620.414,193.024 640.557,208.064 660.701,223.93 680.844,240.584 700.988,257.986 721.131,276.093 741.275,294.863 761.418,314.251 781.562,334.213 801.705,354.704 821.849,375.677 841.992,397.086 862.136,418.884 882.279,441.027 902.423,463.466 922.566,486.156 942.71,509.051 962.853,531.703 982.997,553.707 1003.14,575.082 1023.28,595.849 1043.43,616.028 1063.57,635.635 1083.71,654.688 1103.86,673.206 1124,691.204 1144.15,708.698 1164.29,724.653 1184.43,738.127 1204.58,749.255 1224.72,758.144 1244.86,764.879 1265.01,769.518 1285.15,772.101 1305.29,772.644 1325.44,771.141 1345.58,767.565 1365.72,763.611 1385.87,761.036 1406.01,759.876 1426.15,760.154 1446.3,761.878 1466.44,765.042 1486.58,769.627 1506.73,775.597 1526.87,782.904 1547.02,791.489 1567.16,800.698 1587.3,809.919 1607.45,819.149 1627.59,828.382 1647.73,837.613 1667.88,846.838 1688.02,856.053 1708.16,865.252 1728.31,874.432 1748.45,883.588 1768.59,892.536 1788.74,901.107 1808.88,909.316 1829.02,917.18 1849.17,924.712 1869.31,931.926 1889.46,938.836 1909.6,945.453 1929.74,951.788 1949.89,957.852 1970.03,963.84 1990.17,969.892 2010.32,976.261 2030.46,983.31 2050.6,991.547 2070.75,1001.67 2090.89,1014.58 2111.03,1031.39 2131.18,1053.3 2151.32,1081.44 2171.46,1116.56 2191.61,1158.18 2211.75,1204.15 2231.89,1250.57 2252.04,1292.84 2272.18,1327.25 2292.33,1352.3 2312.47,1368.75 2332.61,1378.67 2352.76,1384.24 "/>
<path clip-path="url(#clip040)" d="M1688.23 196.789 L2285.61 196.789 L2285.61 93.1086 L1688.23 93.1086  Z" fill="#ffffff" fill-rule="evenodd" fill-opacity="0.6"/>
<polyline clip-path="url(#clip040)" style="stroke:#000000; stroke-linecap:round; stroke-linejoin:round; stroke-width:4; stroke-opacity:1; fill:none" points="1688.23,196.789 2285.61,196.789 2285.61,93.1086 1688.23,93.1086 1688.23,196.789 "/>
<polyline clip-path="url(#clip040)" style="stroke:#009af9; stroke-linecap:round; stroke-linejoin:round; stroke-width:4; stroke-opacity:1; fill:none" points="1710.61,144.949 1844.9,144.949 "/>
<path clip-path="url(#clip040)" d="M1871.56 158.34 L1871.56 172.09 L1867.28 172.09 L1867.28 136.303 L1871.56 136.303 L1871.56 140.238 Q1872.91 137.923 1874.94 136.812 Q1877 135.678 1879.85 135.678 Q1884.57 135.678 1887.51 139.428 Q1890.48 143.178 1890.48 149.289 Q1890.48 155.4 1887.51 159.15 Q1884.57 162.9 1879.85 162.9 Q1877 162.9 1874.94 161.789 Q1872.91 160.655 1871.56 158.34 M1886.06 149.289 Q1886.06 144.59 1884.11 141.928 Q1882.19 139.243 1878.81 139.243 Q1875.43 139.243 1873.49 141.928 Q1871.56 144.59 1871.56 149.289 Q1871.56 153.988 1873.49 156.673 Q1875.43 159.335 1878.81 159.335 Q1882.19 159.335 1884.11 156.673 Q1886.06 153.988 1886.06 149.289 Z" fill="#000000" fill-rule="nonzero" fill-opacity="1" /><path clip-path="url(#clip040)" d="M1912.56 140.284 Q1911.84 139.868 1910.99 139.682 Q1910.15 139.474 1909.13 139.474 Q1905.52 139.474 1903.58 141.835 Q1901.66 144.173 1901.66 148.571 L1901.66 162.229 L1897.37 162.229 L1897.37 136.303 L1901.66 136.303 L1901.66 140.331 Q1903 137.969 1905.15 136.835 Q1907.31 135.678 1910.38 135.678 Q1910.82 135.678 1911.36 135.747 Q1911.89 135.794 1912.54 135.909 L1912.56 140.284 Z" fill="#000000" fill-rule="nonzero" fill-opacity="1" /><path clip-path="url(#clip040)" d="M1938.16 148.201 L1938.16 150.284 L1918.58 150.284 Q1918.86 154.682 1921.22 156.997 Q1923.6 159.289 1927.84 159.289 Q1930.29 159.289 1932.58 158.687 Q1934.9 158.085 1937.17 156.881 L1937.17 160.909 Q1934.87 161.881 1932.47 162.391 Q1930.06 162.9 1927.58 162.9 Q1921.38 162.9 1917.74 159.289 Q1914.13 155.678 1914.13 149.52 Q1914.13 143.155 1917.56 139.428 Q1921.01 135.678 1926.84 135.678 Q1932.07 135.678 1935.11 139.057 Q1938.16 142.414 1938.16 148.201 M1933.9 146.951 Q1933.86 143.456 1931.93 141.372 Q1930.04 139.289 1926.89 139.289 Q1923.32 139.289 1921.17 141.303 Q1919.04 143.317 1918.72 146.974 L1933.9 146.951 Z" fill="#000000" fill-rule="nonzero" fill-opacity="1" /><path clip-path="url(#clip040)" d="M1961.68 137.067 L1961.68 141.094 Q1959.87 140.169 1957.93 139.706 Q1955.99 139.243 1953.9 139.243 Q1950.73 139.243 1949.13 140.215 Q1947.56 141.187 1947.56 143.131 Q1947.56 144.613 1948.69 145.469 Q1949.83 146.303 1953.25 147.067 L1954.71 147.391 Q1959.25 148.363 1961.15 150.145 Q1963.07 151.905 1963.07 155.076 Q1963.07 158.687 1960.2 160.793 Q1957.35 162.9 1952.35 162.9 Q1950.27 162.9 1948 162.483 Q1945.75 162.09 1943.25 161.28 L1943.25 156.881 Q1945.62 158.108 1947.91 158.733 Q1950.2 159.335 1952.44 159.335 Q1955.45 159.335 1957.07 158.317 Q1958.69 157.275 1958.69 155.4 Q1958.69 153.664 1957.51 152.738 Q1956.36 151.812 1952.4 150.956 L1950.92 150.608 Q1946.96 149.775 1945.2 148.062 Q1943.44 146.326 1943.44 143.317 Q1943.44 139.659 1946.03 137.669 Q1948.62 135.678 1953.39 135.678 Q1955.75 135.678 1957.84 136.025 Q1959.92 136.372 1961.68 137.067 Z" fill="#000000" fill-rule="nonzero" fill-opacity="1" /><path clip-path="url(#clip040)" d="M1986.38 137.067 L1986.38 141.094 Q1984.57 140.169 1982.63 139.706 Q1980.68 139.243 1978.6 139.243 Q1975.43 139.243 1973.83 140.215 Q1972.26 141.187 1972.26 143.131 Q1972.26 144.613 1973.39 145.469 Q1974.53 146.303 1977.95 147.067 L1979.41 147.391 Q1983.95 148.363 1985.85 150.145 Q1987.77 151.905 1987.77 155.076 Q1987.77 158.687 1984.9 160.793 Q1982.05 162.9 1977.05 162.9 Q1974.97 162.9 1972.7 162.483 Q1970.45 162.09 1967.95 161.28 L1967.95 156.881 Q1970.31 158.108 1972.61 158.733 Q1974.9 159.335 1977.14 159.335 Q1980.15 159.335 1981.77 158.317 Q1983.39 157.275 1983.39 155.4 Q1983.39 153.664 1982.21 152.738 Q1981.05 151.812 1977.1 150.956 L1975.61 150.608 Q1971.66 149.775 1969.9 148.062 Q1968.14 146.326 1968.14 143.317 Q1968.14 139.659 1970.73 137.669 Q1973.32 135.678 1978.09 135.678 Q1980.45 135.678 1982.54 136.025 Q1984.62 136.372 1986.38 137.067 Z" fill="#000000" fill-rule="nonzero" fill-opacity="1" /><path clip-path="url(#clip040)" d="M1994.11 151.997 L1994.11 136.303 L1998.37 136.303 L1998.37 151.835 Q1998.37 155.516 1999.8 157.368 Q2001.24 159.196 2004.11 159.196 Q2007.56 159.196 2009.55 156.997 Q2011.56 154.798 2011.56 151.002 L2011.56 136.303 L2015.82 136.303 L2015.82 162.229 L2011.56 162.229 L2011.56 158.247 Q2010.01 160.608 2007.95 161.766 Q2005.92 162.9 2003.21 162.9 Q1998.74 162.9 1996.43 160.122 Q1994.11 157.344 1994.11 151.997 M2004.83 135.678 L2004.83 135.678 Z" fill="#000000" fill-rule="nonzero" fill-opacity="1" /><path clip-path="url(#clip040)" d="M2039.62 140.284 Q2038.9 139.868 2038.05 139.682 Q2037.21 139.474 2036.19 139.474 Q2032.58 139.474 2030.64 141.835 Q2028.72 144.173 2028.72 148.571 L2028.72 162.229 L2024.43 162.229 L2024.43 136.303 L2028.72 136.303 L2028.72 140.331 Q2030.06 137.969 2032.21 136.835 Q2034.36 135.678 2037.44 135.678 Q2037.88 135.678 2038.42 135.747 Q2038.95 135.794 2039.6 135.909 L2039.62 140.284 Z" fill="#000000" fill-rule="nonzero" fill-opacity="1" /><path clip-path="url(#clip040)" d="M2065.22 148.201 L2065.22 150.284 L2045.64 150.284 Q2045.92 154.682 2048.28 156.997 Q2050.66 159.289 2054.9 159.289 Q2057.35 159.289 2059.64 158.687 Q2061.96 158.085 2064.23 156.881 L2064.23 160.909 Q2061.93 161.881 2059.53 162.391 Q2057.12 162.9 2054.64 162.9 Q2048.44 162.9 2044.8 159.289 Q2041.19 155.678 2041.19 149.52 Q2041.19 143.155 2044.62 139.428 Q2048.07 135.678 2053.9 135.678 Q2059.13 135.678 2062.17 139.057 Q2065.22 142.414 2065.22 148.201 M2060.96 146.951 Q2060.92 143.456 2058.99 141.372 Q2057.1 139.289 2053.95 139.289 Q2050.38 139.289 2048.23 141.303 Q2046.1 143.317 2045.78 146.974 L2060.96 146.951 Z" fill="#000000" fill-rule="nonzero" fill-opacity="1" /><path clip-path="url(#clip040)" d="M2091.49 128.942 L2091.49 136.303 L2100.27 136.303 L2100.27 139.613 L2091.49 139.613 L2091.49 153.687 Q2091.49 156.858 2092.35 157.761 Q2093.23 158.664 2095.89 158.664 L2100.27 158.664 L2100.27 162.229 L2095.89 162.229 Q2090.96 162.229 2089.09 160.4 Q2087.21 158.548 2087.21 153.687 L2087.21 139.613 L2084.09 139.613 L2084.09 136.303 L2087.21 136.303 L2087.21 128.942 L2091.49 128.942 Z" fill="#000000" fill-rule="nonzero" fill-opacity="1" /><path clip-path="url(#clip040)" d="M2127.42 146.581 L2127.42 162.229 L2123.16 162.229 L2123.16 146.719 Q2123.16 143.039 2121.73 141.21 Q2120.29 139.382 2117.42 139.382 Q2113.97 139.382 2111.98 141.581 Q2109.99 143.78 2109.99 147.576 L2109.99 162.229 L2105.71 162.229 L2105.71 126.21 L2109.99 126.21 L2109.99 140.331 Q2111.52 137.993 2113.58 136.835 Q2115.66 135.678 2118.37 135.678 Q2122.84 135.678 2125.13 138.456 Q2127.42 141.21 2127.42 146.581 Z" fill="#000000" fill-rule="nonzero" fill-opacity="1" /><path clip-path="url(#clip040)" d="M2158.09 148.201 L2158.09 150.284 L2138.51 150.284 Q2138.79 154.682 2141.15 156.997 Q2143.53 159.289 2147.77 159.289 Q2150.22 159.289 2152.51 158.687 Q2154.83 158.085 2157.1 156.881 L2157.1 160.909 Q2154.8 161.881 2152.4 162.391 Q2149.99 162.9 2147.51 162.9 Q2141.31 162.9 2137.67 159.289 Q2134.06 155.678 2134.06 149.52 Q2134.06 143.155 2137.49 139.428 Q2140.94 135.678 2146.77 135.678 Q2152 135.678 2155.04 139.057 Q2158.09 142.414 2158.09 148.201 M2153.83 146.951 Q2153.79 143.456 2151.86 141.372 Q2149.97 139.289 2146.82 139.289 Q2143.25 139.289 2141.1 141.303 Q2138.97 143.317 2138.65 146.974 L2153.83 146.951 Z" fill="#000000" fill-rule="nonzero" fill-opacity="1" /><path clip-path="url(#clip040)" d="M2180.1 140.284 Q2179.39 139.868 2178.53 139.682 Q2177.7 139.474 2176.68 139.474 Q2173.07 139.474 2171.12 141.835 Q2169.2 144.173 2169.2 148.571 L2169.2 162.229 L2164.92 162.229 L2164.92 136.303 L2169.2 136.303 L2169.2 140.331 Q2170.54 137.969 2172.7 136.835 Q2174.85 135.678 2177.93 135.678 Q2178.37 135.678 2178.9 135.747 Q2179.43 135.794 2180.08 135.909 L2180.1 140.284 Z" fill="#000000" fill-rule="nonzero" fill-opacity="1" /><path clip-path="url(#clip040)" d="M2203.92 141.28 Q2205.52 138.409 2207.74 137.044 Q2209.97 135.678 2212.97 135.678 Q2217.03 135.678 2219.22 138.525 Q2221.42 141.349 2221.42 146.581 L2221.42 162.229 L2217.14 162.229 L2217.14 146.719 Q2217.14 142.993 2215.82 141.187 Q2214.5 139.382 2211.79 139.382 Q2208.48 139.382 2206.56 141.581 Q2204.64 143.78 2204.64 147.576 L2204.64 162.229 L2200.36 162.229 L2200.36 146.719 Q2200.36 142.969 2199.04 141.187 Q2197.72 139.382 2194.97 139.382 Q2191.7 139.382 2189.78 141.604 Q2187.86 143.803 2187.86 147.576 L2187.86 162.229 L2183.58 162.229 L2183.58 136.303 L2187.86 136.303 L2187.86 140.331 Q2189.32 137.946 2191.35 136.812 Q2193.39 135.678 2196.19 135.678 Q2199.02 135.678 2200.98 137.113 Q2202.97 138.548 2203.92 141.28 Z" fill="#000000" fill-rule="nonzero" fill-opacity="1" /><path clip-path="url(#clip040)" d="M2241.7 149.196 Q2236.54 149.196 2234.55 150.377 Q2232.56 151.557 2232.56 154.405 Q2232.56 156.673 2234.04 158.016 Q2235.54 159.335 2238.11 159.335 Q2241.66 159.335 2243.78 156.835 Q2245.94 154.312 2245.94 150.145 L2245.94 149.196 L2241.7 149.196 M2250.2 147.437 L2250.2 162.229 L2245.94 162.229 L2245.94 158.293 Q2244.48 160.655 2242.3 161.789 Q2240.13 162.9 2236.98 162.9 Q2233 162.9 2230.64 160.678 Q2228.3 158.432 2228.3 154.682 Q2228.3 150.307 2231.22 148.085 Q2234.16 145.863 2239.97 145.863 L2245.94 145.863 L2245.94 145.446 Q2245.94 142.507 2243.99 140.909 Q2242.07 139.289 2238.58 139.289 Q2236.35 139.289 2234.25 139.821 Q2232.14 140.354 2230.2 141.419 L2230.2 137.483 Q2232.53 136.581 2234.73 136.141 Q2236.93 135.678 2239.02 135.678 Q2244.64 135.678 2247.42 138.594 Q2250.2 141.511 2250.2 147.437 Z" fill="#000000" fill-rule="nonzero" fill-opacity="1" /><path clip-path="url(#clip040)" d="M2258.97 126.21 L2263.23 126.21 L2263.23 162.229 L2258.97 162.229 L2258.97 126.21 Z" fill="#000000" fill-rule="nonzero" fill-opacity="1" /></svg>
