<?xml version="1.0" encoding="utf-8"?>
<svg xmlns="http://www.w3.org/2000/svg" xmlns:xlink="http://www.w3.org/1999/xlink" width="600" height="400" viewBox="0 0 2400 1600">
<defs>
  <clipPath id="clip300">
    <rect x="0" y="0" width="2400" height="1600"/>
  </clipPath>
</defs>
<path clip-path="url(#clip300)" d="M0 1600 L2400 1600 L2400 0 L0 0  Z" fill="#ffffff" fill-rule="evenodd" fill-opacity="1"/>
<defs>
  <clipPath id="clip301">
    <rect x="480" y="0" width="1681" height="1600"/>
  </clipPath>
</defs>
<path clip-path="url(#clip300)" d="M193.936 1486.45 L2352.76 1486.45 L2352.76 47.2441 L193.936 47.2441  Z" fill="#ffffff" fill-rule="evenodd" fill-opacity="1"/>
<defs>
  <clipPath id="clip302">
    <rect x="193" y="47" width="2160" height="1440"/>
  </clipPath>
</defs>
<polyline clip-path="url(#clip302)" style="stroke:#000000; stroke-linecap:round; stroke-linejoin:round; stroke-width:2; stroke-opacity:0.1; fill:none" points="528.355,1486.45 528.355,47.2441 "/>
<polyline clip-path="url(#clip302)" style="stroke:#000000; stroke-linecap:round; stroke-linejoin:round; stroke-width:2; stroke-opacity:0.1; fill:none" points="1054.97,1486.45 1054.97,47.2441 "/>
<polyline clip-path="url(#clip302)" style="stroke:#000000; stroke-linecap:round; stroke-linejoin:round; stroke-width:2; stroke-opacity:0.1; fill:none" points="1581.58,1486.45 1581.58,47.2441 "/>
<polyline clip-path="url(#clip302)" style="stroke:#000000; stroke-linecap:round; stroke-linejoin:round; stroke-width:2; stroke-opacity:0.1; fill:none" points="2108.19,1486.45 2108.19,47.2441 "/>
<polyline clip-path="url(#clip302)" style="stroke:#000000; stroke-linecap:round; stroke-linejoin:round; stroke-width:2; stroke-opacity:0.1; fill:none" points="193.936,1269.01 2352.76,1269.01 "/>
<polyline clip-path="url(#clip302)" style="stroke:#000000; stroke-linecap:round; stroke-linejoin:round; stroke-width:2; stroke-opacity:0.1; fill:none" points="193.936,1005.71 2352.76,1005.71 "/>
<polyline clip-path="url(#clip302)" style="stroke:#000000; stroke-linecap:round; stroke-linejoin:round; stroke-width:2; stroke-opacity:0.1; fill:none" points="193.936,742.401 2352.76,742.401 "/>
<polyline clip-path="url(#clip302)" style="stroke:#000000; stroke-linecap:round; stroke-linejoin:round; stroke-width:2; stroke-opacity:0.1; fill:none" points="193.936,479.096 2352.76,479.096 "/>
<polyline clip-path="url(#clip302)" style="stroke:#000000; stroke-linecap:round; stroke-linejoin:round; stroke-width:2; stroke-opacity:0.1; fill:none" points="193.936,215.79 2352.76,215.79 "/>
<polyline clip-path="url(#clip300)" style="stroke:#000000; stroke-linecap:round; stroke-linejoin:round; stroke-width:4; stroke-opacity:1; fill:none" points="193.936,1486.45 2352.76,1486.45 "/>
<polyline clip-path="url(#clip300)" style="stroke:#000000; stroke-linecap:round; stroke-linejoin:round; stroke-width:4; stroke-opacity:1; fill:none" points="528.355,1486.45 528.355,1467.55 "/>
<polyline clip-path="url(#clip300)" style="stroke:#000000; stroke-linecap:round; stroke-linejoin:round; stroke-width:4; stroke-opacity:1; fill:none" points="1054.97,1486.45 1054.97,1467.55 "/>
<polyline clip-path="url(#clip300)" style="stroke:#000000; stroke-linecap:round; stroke-linejoin:round; stroke-width:4; stroke-opacity:1; fill:none" points="1581.58,1486.45 1581.58,1467.55 "/>
<polyline clip-path="url(#clip300)" style="stroke:#000000; stroke-linecap:round; stroke-linejoin:round; stroke-width:4; stroke-opacity:1; fill:none" points="2108.19,1486.45 2108.19,1467.55 "/>
<path clip-path="url(#clip300)" d="M528.355 1517.37 Q524.744 1517.37 522.915 1520.93 Q521.11 1524.47 521.11 1531.6 Q521.11 1538.71 522.915 1542.27 Q524.744 1545.82 528.355 1545.82 Q531.989 1545.82 533.795 1542.27 Q535.623 1538.71 535.623 1531.6 Q535.623 1524.47 533.795 1520.93 Q531.989 1517.37 528.355 1517.37 M528.355 1513.66 Q534.165 1513.66 537.221 1518.27 Q540.299 1522.85 540.299 1531.6 Q540.299 1540.33 537.221 1544.94 Q534.165 1549.52 528.355 1549.52 Q522.545 1549.52 519.466 1544.94 Q516.411 1540.33 516.411 1531.6 Q516.411 1522.85 519.466 1518.27 Q522.545 1513.66 528.355 1513.66 Z" fill="#000000" fill-rule="nonzero" fill-opacity="1" /><path clip-path="url(#clip300)" d="M1045.24 1514.29 L1063.6 1514.29 L1063.6 1518.22 L1049.53 1518.22 L1049.53 1526.7 Q1050.54 1526.35 1051.56 1526.19 Q1052.58 1526 1053.6 1526 Q1059.39 1526 1062.77 1529.17 Q1066.15 1532.34 1066.15 1537.76 Q1066.15 1543.34 1062.67 1546.44 Q1059.2 1549.52 1052.88 1549.52 Q1050.71 1549.52 1048.44 1549.15 Q1046.19 1548.78 1043.79 1548.04 L1043.79 1543.34 Q1045.87 1544.47 1048.09 1545.03 Q1050.31 1545.58 1052.79 1545.58 Q1056.79 1545.58 1059.13 1543.48 Q1061.47 1541.37 1061.47 1537.76 Q1061.47 1534.15 1059.13 1532.04 Q1056.79 1529.94 1052.79 1529.94 Q1050.91 1529.94 1049.04 1530.35 Q1047.19 1530.77 1045.24 1531.65 L1045.24 1514.29 Z" fill="#000000" fill-rule="nonzero" fill-opacity="1" /><path clip-path="url(#clip300)" d="M1556.26 1544.91 L1563.9 1544.91 L1563.9 1518.55 L1555.59 1520.21 L1555.59 1515.95 L1563.86 1514.29 L1568.53 1514.29 L1568.53 1544.91 L1576.17 1544.91 L1576.17 1548.85 L1556.26 1548.85 L1556.26 1544.91 Z" fill="#000000" fill-rule="nonzero" fill-opacity="1" /><path clip-path="url(#clip300)" d="M1595.62 1517.37 Q1592 1517.37 1590.18 1520.93 Q1588.37 1524.47 1588.37 1531.6 Q1588.37 1538.71 1590.18 1542.27 Q1592 1545.82 1595.62 1545.82 Q1599.25 1545.82 1601.06 1542.27 Q1602.88 1538.71 1602.88 1531.6 Q1602.88 1524.47 1601.06 1520.93 Q1599.25 1517.37 1595.62 1517.37 M1595.62 1513.66 Q1601.43 1513.66 1604.48 1518.27 Q1607.56 1522.85 1607.56 1531.6 Q1607.56 1540.33 1604.48 1544.94 Q1601.43 1549.52 1595.62 1549.52 Q1589.81 1549.52 1586.73 1544.94 Q1583.67 1540.33 1583.67 1531.6 Q1583.67 1522.85 1586.73 1518.27 Q1589.81 1513.66 1595.62 1513.66 Z" fill="#000000" fill-rule="nonzero" fill-opacity="1" /><path clip-path="url(#clip300)" d="M2083.37 1544.91 L2091.01 1544.91 L2091.01 1518.55 L2082.7 1520.21 L2082.7 1515.95 L2090.96 1514.29 L2095.64 1514.29 L2095.64 1544.91 L2103.28 1544.91 L2103.28 1548.85 L2083.37 1548.85 L2083.37 1544.91 Z" fill="#000000" fill-rule="nonzero" fill-opacity="1" /><path clip-path="url(#clip300)" d="M2112.77 1514.29 L2131.13 1514.29 L2131.13 1518.22 L2117.05 1518.22 L2117.05 1526.7 Q2118.07 1526.35 2119.09 1526.19 Q2120.11 1526 2121.13 1526 Q2126.91 1526 2130.29 1529.17 Q2133.67 1532.34 2133.67 1537.76 Q2133.67 1543.34 2130.2 1546.44 Q2126.73 1549.52 2120.41 1549.52 Q2118.23 1549.52 2115.96 1549.15 Q2113.72 1548.78 2111.31 1548.04 L2111.31 1543.34 Q2113.39 1544.47 2115.62 1545.03 Q2117.84 1545.58 2120.32 1545.58 Q2124.32 1545.58 2126.66 1543.48 Q2129 1541.37 2129 1537.76 Q2129 1534.15 2126.66 1532.04 Q2124.32 1529.94 2120.32 1529.94 Q2118.44 1529.94 2116.57 1530.35 Q2114.71 1530.77 2112.77 1531.65 L2112.77 1514.29 Z" fill="#000000" fill-rule="nonzero" fill-opacity="1" /><polyline clip-path="url(#clip300)" style="stroke:#000000; stroke-linecap:round; stroke-linejoin:round; stroke-width:4; stroke-opacity:1; fill:none" points="193.936,1486.45 193.936,47.2441 "/>
<polyline clip-path="url(#clip300)" style="stroke:#000000; stroke-linecap:round; stroke-linejoin:round; stroke-width:4; stroke-opacity:1; fill:none" points="193.936,1269.01 212.834,1269.01 "/>
<polyline clip-path="url(#clip300)" style="stroke:#000000; stroke-linecap:round; stroke-linejoin:round; stroke-width:4; stroke-opacity:1; fill:none" points="193.936,1005.71 212.834,1005.71 "/>
<polyline clip-path="url(#clip300)" style="stroke:#000000; stroke-linecap:round; stroke-linejoin:round; stroke-width:4; stroke-opacity:1; fill:none" points="193.936,742.401 212.834,742.401 "/>
<polyline clip-path="url(#clip300)" style="stroke:#000000; stroke-linecap:round; stroke-linejoin:round; stroke-width:4; stroke-opacity:1; fill:none" points="193.936,479.096 212.834,479.096 "/>
<polyline clip-path="url(#clip300)" style="stroke:#000000; stroke-linecap:round; stroke-linejoin:round; stroke-width:4; stroke-opacity:1; fill:none" points="193.936,215.79 212.834,215.79 "/>
<path clip-path="url(#clip300)" d="M50.9921 1269.46 L80.6679 1269.46 L80.6679 1273.4 L50.9921 1273.4 L50.9921 1269.46 Z" fill="#000000" fill-rule="nonzero" fill-opacity="1" /><path clip-path="url(#clip300)" d="M90.8067 1251.73 L109.163 1251.73 L109.163 1255.67 L95.0891 1255.67 L95.0891 1264.14 Q96.1076 1263.79 97.1261 1263.63 Q98.1447 1263.44 99.1632 1263.44 Q104.95 1263.44 108.33 1266.62 Q111.709 1269.79 111.709 1275.2 Q111.709 1280.78 108.237 1283.88 Q104.765 1286.96 98.4456 1286.96 Q96.2697 1286.96 94.0012 1286.59 Q91.7558 1286.22 89.3484 1285.48 L89.3484 1280.78 Q91.4317 1281.92 93.6539 1282.47 Q95.8761 1283.03 98.353 1283.03 Q102.358 1283.03 104.696 1280.92 Q107.033 1278.81 107.033 1275.2 Q107.033 1271.59 104.696 1269.49 Q102.358 1267.38 98.353 1267.38 Q96.478 1267.38 94.603 1267.8 Q92.7512 1268.21 90.8067 1269.09 L90.8067 1251.73 Z" fill="#000000" fill-rule="nonzero" fill-opacity="1" /><path clip-path="url(#clip300)" d="M120.922 1280.41 L125.807 1280.41 L125.807 1286.29 L120.922 1286.29 L120.922 1280.41 Z" fill="#000000" fill-rule="nonzero" fill-opacity="1" /><path clip-path="url(#clip300)" d="M145.992 1254.81 Q142.381 1254.81 140.552 1258.37 Q138.746 1261.92 138.746 1269.05 Q138.746 1276.15 140.552 1279.72 Q142.381 1283.26 145.992 1283.26 Q149.626 1283.26 151.431 1279.72 Q153.26 1276.15 153.26 1269.05 Q153.26 1261.92 151.431 1258.37 Q149.626 1254.81 145.992 1254.81 M145.992 1251.11 Q151.802 1251.11 154.857 1255.71 Q157.936 1260.3 157.936 1269.05 Q157.936 1277.77 154.857 1282.38 Q151.802 1286.96 145.992 1286.96 Q140.181 1286.96 137.103 1282.38 Q134.047 1277.77 134.047 1269.05 Q134.047 1260.3 137.103 1255.71 Q140.181 1251.11 145.992 1251.11 Z" fill="#000000" fill-rule="nonzero" fill-opacity="1" /><path clip-path="url(#clip300)" d="M51.9875 1006.16 L81.6633 1006.16 L81.6633 1010.09 L51.9875 1010.09 L51.9875 1006.16 Z" fill="#000000" fill-rule="nonzero" fill-opacity="1" /><path clip-path="url(#clip300)" d="M95.7836 1019.05 L112.103 1019.05 L112.103 1022.99 L90.1586 1022.99 L90.1586 1019.05 Q92.8206 1016.3 97.4039 1011.67 Q102.01 1007.01 103.191 1005.67 Q105.436 1003.15 106.316 1001.41 Q107.219 999.653 107.219 997.963 Q107.219 995.208 105.274 993.472 Q103.353 991.736 100.251 991.736 Q98.0521 991.736 95.5984 992.5 Q93.1678 993.264 90.3901 994.815 L90.3901 990.093 Q93.2141 988.958 95.6678 988.38 Q98.1215 987.801 100.159 987.801 Q105.529 987.801 108.723 990.486 Q111.918 993.171 111.918 997.662 Q111.918 999.792 111.108 1001.71 Q110.321 1003.61 108.214 1006.2 Q107.635 1006.88 104.534 1010.09 Q101.432 1013.29 95.7836 1019.05 Z" fill="#000000" fill-rule="nonzero" fill-opacity="1" /><path clip-path="url(#clip300)" d="M121.918 1017.11 L126.802 1017.11 L126.802 1022.99 L121.918 1022.99 L121.918 1017.11 Z" fill="#000000" fill-rule="nonzero" fill-opacity="1" /><path clip-path="url(#clip300)" d="M137.033 988.426 L155.39 988.426 L155.39 992.361 L141.316 992.361 L141.316 1000.83 Q142.334 1000.49 143.353 1000.32 Q144.371 1000.14 145.39 1000.14 Q151.177 1000.14 154.556 1003.31 Q157.936 1006.48 157.936 1011.9 Q157.936 1017.48 154.464 1020.58 Q150.992 1023.66 144.672 1023.66 Q142.496 1023.66 140.228 1023.29 Q137.982 1022.92 135.575 1022.18 L135.575 1017.48 Q137.658 1018.61 139.881 1019.17 Q142.103 1019.72 144.58 1019.72 Q148.584 1019.72 150.922 1017.62 Q153.26 1015.51 153.26 1011.9 Q153.26 1008.29 150.922 1006.18 Q148.584 1004.07 144.58 1004.07 Q142.705 1004.07 140.83 1004.49 Q138.978 1004.91 137.033 1005.79 L137.033 988.426 Z" fill="#000000" fill-rule="nonzero" fill-opacity="1" /><path clip-path="url(#clip300)" d="M100.76 728.199 Q97.1493 728.199 95.3206 731.764 Q93.515 735.306 93.515 742.436 Q93.515 749.542 95.3206 753.107 Q97.1493 756.648 100.76 756.648 Q104.395 756.648 106.2 753.107 Q108.029 749.542 108.029 742.436 Q108.029 735.306 106.2 731.764 Q104.395 728.199 100.76 728.199 M100.76 724.496 Q106.571 724.496 109.626 729.102 Q112.705 733.686 112.705 742.436 Q112.705 751.162 109.626 755.769 Q106.571 760.352 100.76 760.352 Q94.9502 760.352 91.8715 755.769 Q88.816 751.162 88.816 742.436 Q88.816 733.686 91.8715 729.102 Q94.9502 724.496 100.76 724.496 Z" fill="#000000" fill-rule="nonzero" fill-opacity="1" /><path clip-path="url(#clip300)" d="M120.922 753.801 L125.807 753.801 L125.807 759.681 L120.922 759.681 L120.922 753.801 Z" fill="#000000" fill-rule="nonzero" fill-opacity="1" /><path clip-path="url(#clip300)" d="M145.992 728.199 Q142.381 728.199 140.552 731.764 Q138.746 735.306 138.746 742.436 Q138.746 749.542 140.552 753.107 Q142.381 756.648 145.992 756.648 Q149.626 756.648 151.431 753.107 Q153.26 749.542 153.26 742.436 Q153.26 735.306 151.431 731.764 Q149.626 728.199 145.992 728.199 M145.992 724.496 Q151.802 724.496 154.857 729.102 Q157.936 733.686 157.936 742.436 Q157.936 751.162 154.857 755.769 Q151.802 760.352 145.992 760.352 Q140.181 760.352 137.103 755.769 Q134.047 751.162 134.047 742.436 Q134.047 733.686 137.103 729.102 Q140.181 724.496 145.992 724.496 Z" fill="#000000" fill-rule="nonzero" fill-opacity="1" /><path clip-path="url(#clip300)" d="M95.7836 492.44 L112.103 492.44 L112.103 496.376 L90.1586 496.376 L90.1586 492.44 Q92.8206 489.686 97.4039 485.056 Q102.01 480.403 103.191 479.061 Q105.436 476.538 106.316 474.802 Q107.219 473.042 107.219 471.353 Q107.219 468.598 105.274 466.862 Q103.353 465.126 100.251 465.126 Q98.0521 465.126 95.5984 465.89 Q93.1678 466.653 90.3901 468.204 L90.3901 463.482 Q93.2141 462.348 95.6678 461.769 Q98.1215 461.191 100.159 461.191 Q105.529 461.191 108.723 463.876 Q111.918 466.561 111.918 471.052 Q111.918 473.181 111.108 475.103 Q110.321 477.001 108.214 479.593 Q107.635 480.265 104.534 483.482 Q101.432 486.677 95.7836 492.44 Z" fill="#000000" fill-rule="nonzero" fill-opacity="1" /><path clip-path="url(#clip300)" d="M121.918 490.496 L126.802 490.496 L126.802 496.376 L121.918 496.376 L121.918 490.496 Z" fill="#000000" fill-rule="nonzero" fill-opacity="1" /><path clip-path="url(#clip300)" d="M137.033 461.816 L155.39 461.816 L155.39 465.751 L141.316 465.751 L141.316 474.223 Q142.334 473.876 143.353 473.714 Q144.371 473.528 145.39 473.528 Q151.177 473.528 154.556 476.7 Q157.936 479.871 157.936 485.288 Q157.936 490.866 154.464 493.968 Q150.992 497.047 144.672 497.047 Q142.496 497.047 140.228 496.676 Q137.982 496.306 135.575 495.565 L135.575 490.866 Q137.658 492.001 139.881 492.556 Q142.103 493.112 144.58 493.112 Q148.584 493.112 150.922 491.005 Q153.26 488.899 153.26 485.288 Q153.26 481.677 150.922 479.57 Q148.584 477.464 144.58 477.464 Q142.705 477.464 140.83 477.88 Q138.978 478.297 137.033 479.177 L137.033 461.816 Z" fill="#000000" fill-rule="nonzero" fill-opacity="1" /><path clip-path="url(#clip300)" d="M90.8067 198.51 L109.163 198.51 L109.163 202.445 L95.0891 202.445 L95.0891 210.918 Q96.1076 210.57 97.1261 210.408 Q98.1447 210.223 99.1632 210.223 Q104.95 210.223 108.33 213.394 Q111.709 216.566 111.709 221.982 Q111.709 227.561 108.237 230.663 Q104.765 233.742 98.4456 233.742 Q96.2697 233.742 94.0012 233.371 Q91.7558 233.001 89.3484 232.26 L89.3484 227.561 Q91.4317 228.695 93.6539 229.251 Q95.8761 229.806 98.353 229.806 Q102.358 229.806 104.696 227.7 Q107.033 225.593 107.033 221.982 Q107.033 218.371 104.696 216.265 Q102.358 214.158 98.353 214.158 Q96.478 214.158 94.603 214.575 Q92.7512 214.992 90.8067 215.871 L90.8067 198.51 Z" fill="#000000" fill-rule="nonzero" fill-opacity="1" /><path clip-path="url(#clip300)" d="M120.922 227.191 L125.807 227.191 L125.807 233.07 L120.922 233.07 L120.922 227.191 Z" fill="#000000" fill-rule="nonzero" fill-opacity="1" /><path clip-path="url(#clip300)" d="M145.992 201.589 Q142.381 201.589 140.552 205.154 Q138.746 208.695 138.746 215.825 Q138.746 222.931 140.552 226.496 Q142.381 230.038 145.992 230.038 Q149.626 230.038 151.431 226.496 Q153.26 222.931 153.26 215.825 Q153.26 208.695 151.431 205.154 Q149.626 201.589 145.992 201.589 M145.992 197.885 Q151.802 197.885 154.857 202.492 Q157.936 207.075 157.936 215.825 Q157.936 224.552 154.857 229.158 Q151.802 233.742 145.992 233.742 Q140.181 233.742 137.103 229.158 Q134.047 224.552 134.047 215.825 Q134.047 207.075 137.103 202.492 Q140.181 197.885 145.992 197.885 Z" fill="#000000" fill-rule="nonzero" fill-opacity="1" /><path clip-path="url(#clip302)" d="M942.714 162.114 L956.892 177.964 L1088.02 113.36 L1082.72 92.7709 L942.714 162.114  Z" fill="#009af9" fill-rule="evenodd" fill-opacity="1"/>
<polyline clip-path="url(#clip302)" style="stroke:#000000; stroke-linecap:round; stroke-linejoin:round; stroke-width:1; stroke-opacity:1; fill:none" points="942.714,162.114 956.892,177.964 1088.02,113.36 1082.72,92.7709 942.714,162.114 "/>
<path clip-path="url(#clip302)" d="M1088.02 113.36 L1177.41 109.176 L1178.98 87.9763 L1082.72 92.7709 L1088.02 113.36  Z" fill="#e26f46" fill-rule="evenodd" fill-opacity="1"/>
<polyline clip-path="url(#clip302)" style="stroke:#000000; stroke-linecap:round; stroke-linejoin:round; stroke-width:1; stroke-opacity:1; fill:none" points="1088.02,113.36 1177.41,109.176 1178.98,87.9763 1082.72,92.7709 1088.02,113.36 "/>
<path clip-path="url(#clip302)" d="M1177.41 109.176 L1276.53 128.721 L1283.9 108.777 L1178.98 87.9763 L1177.41 109.176  Z" fill="#3da44d" fill-rule="evenodd" fill-opacity="1"/>
<polyline clip-path="url(#clip302)" style="stroke:#000000; stroke-linecap:round; stroke-linejoin:round; stroke-width:1; stroke-opacity:1; fill:none" points="1177.41,109.176 1276.53,128.721 1283.9,108.777 1178.98,87.9763 1177.41,109.176 "/>
<path clip-path="url(#clip302)" d="M1444.77 223.589 L1458.44 207.315 L1283.9 108.777 L1276.53 128.721 L1444.77 223.589  Z" fill="#c271d2" fill-rule="evenodd" fill-opacity="1"/>
<polyline clip-path="url(#clip302)" style="stroke:#000000; stroke-linecap:round; stroke-linejoin:round; stroke-width:1; stroke-opacity:1; fill:none" points="1444.77,223.589 1458.44,207.315 1283.9,108.777 1276.53,128.721 1444.77,223.589 "/>
<path clip-path="url(#clip302)" d="M1578.01 386.171 L1596.42 375.53 L1458.44 207.315 L1444.77 223.589 L1578.01 386.171  Z" fill="#ac8d18" fill-rule="evenodd" fill-opacity="1"/>
<polyline clip-path="url(#clip302)" style="stroke:#000000; stroke-linecap:round; stroke-linejoin:round; stroke-width:1; stroke-opacity:1; fill:none" points="1578.01,386.171 1596.42,375.53 1458.44,207.315 1444.77,223.589 1578.01,386.171 "/>
<path clip-path="url(#clip302)" d="M1658.02 597.419 L1678.66 592.36 L1596.42 375.53 L1578.01 386.171 L1658.02 597.419  Z" fill="#00a9ad" fill-rule="evenodd" fill-opacity="1"/>
<polyline clip-path="url(#clip302)" style="stroke:#000000; stroke-linecap:round; stroke-linejoin:round; stroke-width:1; stroke-opacity:1; fill:none" points="1658.02,597.419 1678.66,592.36 1596.42,375.53 1578.01,386.171 1658.02,597.419 "/>
<path clip-path="url(#clip302)" d="M1675.61 745.128 L1696.86 744.427 L1678.66 592.36 L1658.02 597.419 L1675.61 745.128  Z" fill="#ed5d92" fill-rule="evenodd" fill-opacity="1"/>
<polyline clip-path="url(#clip302)" style="stroke:#000000; stroke-linecap:round; stroke-linejoin:round; stroke-width:1; stroke-opacity:1; fill:none" points="1675.61,745.128 1696.86,744.427 1678.66,592.36 1658.02,597.419 1675.61,745.128 "/>
<path clip-path="url(#clip302)" d="M1668.88 872.937 L1689.96 875.74 L1696.86 744.427 L1675.61 745.128 L1668.88 872.937  Z" fill="#c68125" fill-rule="evenodd" fill-opacity="1"/>
<polyline clip-path="url(#clip302)" style="stroke:#000000; stroke-linecap:round; stroke-linejoin:round; stroke-width:1; stroke-opacity:1; fill:none" points="1668.88,872.937 1689.96,875.74 1696.86,744.427 1675.61,745.128 1668.88,872.937 "/>
<path clip-path="url(#clip302)" d="M1642.29 996.606 L1662.59 1002.91 L1689.96 875.74 L1668.88 872.937 L1642.29 996.606  Z" fill="#00a98d" fill-rule="evenodd" fill-opacity="1"/>
<polyline clip-path="url(#clip302)" style="stroke:#000000; stroke-linecap:round; stroke-linejoin:round; stroke-width:1; stroke-opacity:1; fill:none" points="1642.29,996.606 1662.59,1002.91 1689.96,875.74 1668.88,872.937 1642.29,996.606 "/>
<path clip-path="url(#clip302)" d="M1587.72 1129.29 L1606.53 1139.2 L1662.59 1002.91 L1642.29 996.606 L1587.72 1129.29  Z" fill="#8e971d" fill-rule="evenodd" fill-opacity="1"/>
<polyline clip-path="url(#clip302)" style="stroke:#000000; stroke-linecap:round; stroke-linejoin:round; stroke-width:1; stroke-opacity:1; fill:none" points="1587.72,1129.29 1606.53,1139.2 1662.59,1002.91 1642.29,996.606 1587.72,1129.29 "/>
<path clip-path="url(#clip302)" d="M1523.07 1228.14 L1539.58 1241.53 L1606.53 1139.2 L1587.72 1129.29 L1523.07 1228.14  Z" fill="#00a8cb" fill-rule="evenodd" fill-opacity="1"/>
<polyline clip-path="url(#clip302)" style="stroke:#000000; stroke-linecap:round; stroke-linejoin:round; stroke-width:1; stroke-opacity:1; fill:none" points="1523.07,1228.14 1539.58,1241.53 1606.53,1139.2 1587.72,1129.29 1523.07,1228.14 "/>
<path clip-path="url(#clip302)" d="M1430.61 1321.06 L1443.93 1337.62 L1539.58 1241.53 L1523.07 1228.14 L1430.61 1321.06  Z" fill="#9b7fe8" fill-rule="evenodd" fill-opacity="1"/>
<polyline clip-path="url(#clip302)" style="stroke:#000000; stroke-linecap:round; stroke-linejoin:round; stroke-width:1; stroke-opacity:1; fill:none" points="1430.61,1321.06 1443.93,1337.62 1539.58,1241.53 1523.07,1228.14 1430.61,1321.06 "/>
<path clip-path="url(#clip302)" d="M1340.45 1378.42 L1349.65 1397.58 L1443.93 1337.62 L1430.61 1321.06 L1340.45 1378.42  Z" fill="#608cf6" fill-rule="evenodd" fill-opacity="1"/>
<polyline clip-path="url(#clip302)" style="stroke:#000000; stroke-linecap:round; stroke-linejoin:round; stroke-width:1; stroke-opacity:1; fill:none" points="1340.45,1378.42 1349.65,1397.58 1443.93,1337.62 1430.61,1321.06 1340.45,1378.42 "/>
<path clip-path="url(#clip302)" d="M1227.3 1416.99 L1231.54 1437.81 L1349.65 1397.58 L1340.45 1378.42 L1227.3 1416.99  Z" fill="#f05f73" fill-rule="evenodd" fill-opacity="1"/>
<polyline clip-path="url(#clip302)" style="stroke:#000000; stroke-linecap:round; stroke-linejoin:round; stroke-width:1; stroke-opacity:1; fill:none" points="1227.3,1416.99 1231.54,1437.81 1349.65,1397.58 1340.45,1378.42 1227.3,1416.99 "/>
<path clip-path="url(#clip302)" d="M1123.57 1445.72 L1231.54 1437.81 L1227.3 1416.99 L1125.21 1424.52 L1123.57 1445.72  Z" fill="#dd64b5" fill-rule="evenodd" fill-opacity="1"/>
<polyline clip-path="url(#clip302)" style="stroke:#000000; stroke-linecap:round; stroke-linejoin:round; stroke-width:1; stroke-opacity:1; fill:none" points="1123.57,1445.72 1231.54,1437.81 1227.3,1416.99 1125.21,1424.52 1123.57,1445.72 "/>
<path clip-path="url(#clip302)" d="M1123.57 1445.72 L1125.21 1424.52 L1034.51 1403.49 L1026.37 1423.14 L1123.57 1445.72  Z" fill="#6b9e32" fill-rule="evenodd" fill-opacity="1"/>
<polyline clip-path="url(#clip302)" style="stroke:#000000; stroke-linecap:round; stroke-linejoin:round; stroke-width:1; stroke-opacity:1; fill:none" points="1123.57,1445.72 1125.21,1424.52 1034.51,1403.49 1026.37,1423.14 1123.57,1445.72 "/>
<path clip-path="url(#clip302)" d="M1026.37 1423.14 L1034.51 1403.49 L956.892 1355.05 L942.743 1370.93 L1026.37 1423.14  Z" fill="#009af9" fill-rule="evenodd" fill-opacity="1"/>
<polyline clip-path="url(#clip302)" style="stroke:#000000; stroke-linecap:round; stroke-linejoin:round; stroke-width:1; stroke-opacity:1; fill:none" points="1026.37,1423.14 1034.51,1403.49 956.892,1355.05 942.743,1370.93 1026.37,1423.14 "/>
<path clip-path="url(#clip302)" d="M942.743 1370.93 L956.892 1355.05 L901.264 1285.26 L882.405 1295.07 L942.743 1370.93  Z" fill="#e26f46" fill-rule="evenodd" fill-opacity="1"/>
<polyline clip-path="url(#clip302)" style="stroke:#000000; stroke-linecap:round; stroke-linejoin:round; stroke-width:1; stroke-opacity:1; fill:none" points="942.743,1370.93 956.892,1355.05 901.264,1285.26 882.405,1295.07 942.743,1370.93 "/>
<path clip-path="url(#clip302)" d="M882.405 1295.07 L901.264 1285.26 L871.744 1185.05 L850.695 1188.1 L882.405 1295.07  Z" fill="#3da44d" fill-rule="evenodd" fill-opacity="1"/>
<polyline clip-path="url(#clip302)" style="stroke:#000000; stroke-linecap:round; stroke-linejoin:round; stroke-width:1; stroke-opacity:1; fill:none" points="882.405,1295.07 901.264,1285.26 871.744,1185.05 850.695,1188.1 882.405,1295.07 "/>
<path clip-path="url(#clip302)" d="M850.695 1188.1 L871.744 1185.05 L871.09 975.777 L849.834 975.81 L850.695 1188.1  Z" fill="#c271d2" fill-rule="evenodd" fill-opacity="1"/>
<polyline clip-path="url(#clip302)" style="stroke:#000000; stroke-linecap:round; stroke-linejoin:round; stroke-width:1; stroke-opacity:1; fill:none" points="850.695,1188.1 871.744,1185.05 871.09,975.777 849.834,975.81 850.695,1188.1 "/>
<path clip-path="url(#clip302)" d="M849.834 975.81 L871.09 975.777 L871.09 766.507 L849.834 766.298 L849.834 975.81  Z" fill="#ac8d18" fill-rule="evenodd" fill-opacity="1"/>
<polyline clip-path="url(#clip302)" style="stroke:#000000; stroke-linecap:round; stroke-linejoin:round; stroke-width:1; stroke-opacity:1; fill:none" points="849.834,975.81 871.09,975.777 871.09,766.507 849.834,766.298 849.834,975.81 "/>
<path clip-path="url(#clip302)" d="M849.834 766.298 L871.09 766.507 L871.09 609.766 L849.834 609.315 L849.834 766.298  Z" fill="#00a9ad" fill-rule="evenodd" fill-opacity="1"/>
<polyline clip-path="url(#clip302)" style="stroke:#000000; stroke-linecap:round; stroke-linejoin:round; stroke-width:1; stroke-opacity:1; fill:none" points="849.834,766.298 871.09,766.507 871.09,609.766 849.834,609.315 849.834,766.298 "/>
<path clip-path="url(#clip302)" d="M849.834 609.315 L871.09 609.766 L871.09 453.025 L849.834 452.573 L849.834 609.315  Z" fill="#ed5d92" fill-rule="evenodd" fill-opacity="1"/>
<polyline clip-path="url(#clip302)" style="stroke:#000000; stroke-linecap:round; stroke-linejoin:round; stroke-width:1; stroke-opacity:1; fill:none" points="849.834,609.315 871.09,609.766 871.09,453.025 849.834,452.573 849.834,609.315 "/>
<path clip-path="url(#clip302)" d="M849.834 452.573 L871.09 453.025 L881.069 296.495 L860.726 290.31 L849.834 452.573  Z" fill="#c68125" fill-rule="evenodd" fill-opacity="1"/>
<polyline clip-path="url(#clip302)" style="stroke:#000000; stroke-linecap:round; stroke-linejoin:round; stroke-width:1; stroke-opacity:1; fill:none" points="849.834,452.573 871.09,453.025 881.069,296.495 860.726,290.31 849.834,452.573 "/>
<path clip-path="url(#clip302)" d="M860.726 290.31 L881.069 296.495 L956.892 177.964 L942.714 162.114 L860.726 290.31  Z" fill="#00a98d" fill-rule="evenodd" fill-opacity="1"/>
<polyline clip-path="url(#clip302)" style="stroke:#000000; stroke-linecap:round; stroke-linejoin:round; stroke-width:1; stroke-opacity:1; fill:none" points="860.726,290.31 881.069,296.495 956.892,177.964 942.714,162.114 860.726,290.31 "/>
</svg>
