<?xml version="1.0" encoding="utf-8"?>
<svg xmlns="http://www.w3.org/2000/svg" xmlns:xlink="http://www.w3.org/1999/xlink" width="600" height="400" viewBox="0 0 2400 1600">
<defs>
  <clipPath id="clip700">
    <rect x="0" y="0" width="2400" height="1600"/>
  </clipPath>
</defs>
<path clip-path="url(#clip700)" d="M0 1600 L2400 1600 L2400 0 L0 0  Z" fill="#ffffff" fill-rule="evenodd" fill-opacity="1"/>
<defs>
  <clipPath id="clip701">
    <rect x="480" y="0" width="1681" height="1600"/>
  </clipPath>
</defs>
<path clip-path="url(#clip700)" d="M275.136 1486.45 L2352.76 1486.45 L2352.76 47.2441 L275.136 47.2441  Z" fill="#ffffff" fill-rule="evenodd" fill-opacity="1"/>
<defs>
  <clipPath id="clip702">
    <rect x="275" y="47" width="2079" height="1440"/>
  </clipPath>
</defs>
<polyline clip-path="url(#clip702)" style="stroke:#000000; stroke-linecap:round; stroke-linejoin:round; stroke-width:2; stroke-opacity:0.1; fill:none" points="314.337,1486.45 314.337,47.2441 "/>
<polyline clip-path="url(#clip702)" style="stroke:#000000; stroke-linecap:round; stroke-linejoin:round; stroke-width:2; stroke-opacity:0.1; fill:none" points="804.341,1486.45 804.341,47.2441 "/>
<polyline clip-path="url(#clip702)" style="stroke:#000000; stroke-linecap:round; stroke-linejoin:round; stroke-width:2; stroke-opacity:0.1; fill:none" points="1294.35,1486.45 1294.35,47.2441 "/>
<polyline clip-path="url(#clip702)" style="stroke:#000000; stroke-linecap:round; stroke-linejoin:round; stroke-width:2; stroke-opacity:0.1; fill:none" points="1784.35,1486.45 1784.35,47.2441 "/>
<polyline clip-path="url(#clip702)" style="stroke:#000000; stroke-linecap:round; stroke-linejoin:round; stroke-width:2; stroke-opacity:0.1; fill:none" points="2274.36,1486.45 2274.36,47.2441 "/>
<polyline clip-path="url(#clip702)" style="stroke:#000000; stroke-linecap:round; stroke-linejoin:round; stroke-width:2; stroke-opacity:0.1; fill:none" points="275.136,1446.26 2352.76,1446.26 "/>
<polyline clip-path="url(#clip702)" style="stroke:#000000; stroke-linecap:round; stroke-linejoin:round; stroke-width:2; stroke-opacity:0.1; fill:none" points="275.136,1164.6 2352.76,1164.6 "/>
<polyline clip-path="url(#clip702)" style="stroke:#000000; stroke-linecap:round; stroke-linejoin:round; stroke-width:2; stroke-opacity:0.1; fill:none" points="275.136,882.947 2352.76,882.947 "/>
<polyline clip-path="url(#clip702)" style="stroke:#000000; stroke-linecap:round; stroke-linejoin:round; stroke-width:2; stroke-opacity:0.1; fill:none" points="275.136,601.292 2352.76,601.292 "/>
<polyline clip-path="url(#clip702)" style="stroke:#000000; stroke-linecap:round; stroke-linejoin:round; stroke-width:2; stroke-opacity:0.1; fill:none" points="275.136,319.637 2352.76,319.637 "/>
<polyline clip-path="url(#clip700)" style="stroke:#000000; stroke-linecap:round; stroke-linejoin:round; stroke-width:4; stroke-opacity:1; fill:none" points="275.136,1486.45 2352.76,1486.45 "/>
<polyline clip-path="url(#clip700)" style="stroke:#000000; stroke-linecap:round; stroke-linejoin:round; stroke-width:4; stroke-opacity:1; fill:none" points="314.337,1486.45 314.337,1467.55 "/>
<polyline clip-path="url(#clip700)" style="stroke:#000000; stroke-linecap:round; stroke-linejoin:round; stroke-width:4; stroke-opacity:1; fill:none" points="804.341,1486.45 804.341,1467.55 "/>
<polyline clip-path="url(#clip700)" style="stroke:#000000; stroke-linecap:round; stroke-linejoin:round; stroke-width:4; stroke-opacity:1; fill:none" points="1294.35,1486.45 1294.35,1467.55 "/>
<polyline clip-path="url(#clip700)" style="stroke:#000000; stroke-linecap:round; stroke-linejoin:round; stroke-width:4; stroke-opacity:1; fill:none" points="1784.35,1486.45 1784.35,1467.55 "/>
<polyline clip-path="url(#clip700)" style="stroke:#000000; stroke-linecap:round; stroke-linejoin:round; stroke-width:4; stroke-opacity:1; fill:none" points="2274.36,1486.45 2274.36,1467.55 "/>
<path clip-path="url(#clip700)" d="M314.337 1517.37 Q310.726 1517.37 308.897 1520.93 Q307.091 1524.47 307.091 1531.6 Q307.091 1538.71 308.897 1542.27 Q310.726 1545.82 314.337 1545.82 Q317.971 1545.82 319.777 1542.27 Q321.605 1538.71 321.605 1531.6 Q321.605 1524.47 319.777 1520.93 Q317.971 1517.37 314.337 1517.37 M314.337 1513.66 Q320.147 1513.66 323.202 1518.27 Q326.281 1522.85 326.281 1531.6 Q326.281 1540.33 323.202 1544.94 Q320.147 1549.52 314.337 1549.52 Q308.527 1549.52 305.448 1544.94 Q302.392 1540.33 302.392 1531.6 Q302.392 1522.85 305.448 1518.27 Q308.527 1513.66 314.337 1513.66 Z" fill="#000000" fill-rule="nonzero" fill-opacity="1" /><path clip-path="url(#clip700)" d="M783.612 1544.91 L799.932 1544.91 L799.932 1548.85 L777.987 1548.85 L777.987 1544.91 Q780.649 1542.16 785.233 1537.53 Q789.839 1532.88 791.02 1531.53 Q793.265 1529.01 794.145 1527.27 Q795.047 1525.51 795.047 1523.82 Q795.047 1521.07 793.103 1519.33 Q791.182 1517.6 788.08 1517.6 Q785.881 1517.6 783.427 1518.36 Q780.997 1519.13 778.219 1520.68 L778.219 1515.95 Q781.043 1514.82 783.497 1514.24 Q785.95 1513.66 787.987 1513.66 Q793.358 1513.66 796.552 1516.35 Q799.746 1519.03 799.746 1523.52 Q799.746 1525.65 798.936 1527.57 Q798.149 1529.47 796.043 1532.07 Q795.464 1532.74 792.362 1535.95 Q789.26 1539.15 783.612 1544.91 Z" fill="#000000" fill-rule="nonzero" fill-opacity="1" /><path clip-path="url(#clip700)" d="M809.793 1514.29 L828.149 1514.29 L828.149 1518.22 L814.075 1518.22 L814.075 1526.7 Q815.094 1526.35 816.112 1526.19 Q817.131 1526 818.149 1526 Q823.936 1526 827.316 1529.17 Q830.695 1532.34 830.695 1537.76 Q830.695 1543.34 827.223 1546.44 Q823.751 1549.52 817.432 1549.52 Q815.256 1549.52 812.987 1549.15 Q810.742 1548.78 808.334 1548.04 L808.334 1543.34 Q810.418 1544.47 812.64 1545.03 Q814.862 1545.58 817.339 1545.58 Q821.344 1545.58 823.682 1543.48 Q826.019 1541.37 826.019 1537.76 Q826.019 1534.15 823.682 1532.04 Q821.344 1529.94 817.339 1529.94 Q815.464 1529.94 813.589 1530.35 Q811.737 1530.77 809.793 1531.65 L809.793 1514.29 Z" fill="#000000" fill-rule="nonzero" fill-opacity="1" /><path clip-path="url(#clip700)" d="M1269.05 1514.29 L1287.4 1514.29 L1287.4 1518.22 L1273.33 1518.22 L1273.33 1526.7 Q1274.35 1526.35 1275.36 1526.19 Q1276.38 1526 1277.4 1526 Q1283.19 1526 1286.57 1529.17 Q1289.95 1532.34 1289.95 1537.76 Q1289.95 1543.34 1286.48 1546.44 Q1283 1549.52 1276.68 1549.52 Q1274.51 1549.52 1272.24 1549.15 Q1269.99 1548.78 1267.59 1548.04 L1267.59 1543.34 Q1269.67 1544.47 1271.89 1545.03 Q1274.11 1545.58 1276.59 1545.58 Q1280.6 1545.58 1282.93 1543.48 Q1285.27 1541.37 1285.27 1537.76 Q1285.27 1534.15 1282.93 1532.04 Q1280.6 1529.94 1276.59 1529.94 Q1274.72 1529.94 1272.84 1530.35 Q1270.99 1530.77 1269.05 1531.65 L1269.05 1514.29 Z" fill="#000000" fill-rule="nonzero" fill-opacity="1" /><path clip-path="url(#clip700)" d="M1309.16 1517.37 Q1305.55 1517.37 1303.72 1520.93 Q1301.92 1524.47 1301.92 1531.6 Q1301.92 1538.71 1303.72 1542.27 Q1305.55 1545.82 1309.16 1545.82 Q1312.79 1545.82 1314.6 1542.27 Q1316.43 1538.71 1316.43 1531.6 Q1316.43 1524.47 1314.6 1520.93 Q1312.79 1517.37 1309.16 1517.37 M1309.16 1513.66 Q1314.97 1513.66 1318.03 1518.27 Q1321.11 1522.85 1321.11 1531.6 Q1321.11 1540.33 1318.03 1544.94 Q1314.97 1549.52 1309.16 1549.52 Q1303.35 1549.52 1300.27 1544.94 Q1297.22 1540.33 1297.22 1531.6 Q1297.22 1522.85 1300.27 1518.27 Q1303.35 1513.66 1309.16 1513.66 Z" fill="#000000" fill-rule="nonzero" fill-opacity="1" /><path clip-path="url(#clip700)" d="M1758.2 1514.29 L1780.43 1514.29 L1780.43 1516.28 L1767.88 1548.85 L1763 1548.85 L1774.8 1518.22 L1758.2 1518.22 L1758.2 1514.29 Z" fill="#000000" fill-rule="nonzero" fill-opacity="1" /><path clip-path="url(#clip700)" d="M1789.59 1514.29 L1807.95 1514.29 L1807.95 1518.22 L1793.88 1518.22 L1793.88 1526.7 Q1794.89 1526.35 1795.91 1526.19 Q1796.93 1526 1797.95 1526 Q1803.74 1526 1807.12 1529.17 Q1810.5 1532.34 1810.5 1537.76 Q1810.5 1543.34 1807.02 1546.44 Q1803.55 1549.52 1797.23 1549.52 Q1795.06 1549.52 1792.79 1549.15 Q1790.54 1548.78 1788.14 1548.04 L1788.14 1543.34 Q1790.22 1544.47 1792.44 1545.03 Q1794.66 1545.58 1797.14 1545.58 Q1801.14 1545.58 1803.48 1543.48 Q1805.82 1541.37 1805.82 1537.76 Q1805.82 1534.15 1803.48 1532.04 Q1801.14 1529.94 1797.14 1529.94 Q1795.26 1529.94 1793.39 1530.35 Q1791.54 1530.77 1789.59 1531.65 L1789.59 1514.29 Z" fill="#000000" fill-rule="nonzero" fill-opacity="1" /><path clip-path="url(#clip700)" d="M2233.96 1544.91 L2241.6 1544.91 L2241.6 1518.55 L2233.29 1520.21 L2233.29 1515.95 L2241.55 1514.29 L2246.23 1514.29 L2246.23 1544.91 L2253.87 1544.91 L2253.87 1548.85 L2233.96 1548.85 L2233.96 1544.91 Z" fill="#000000" fill-rule="nonzero" fill-opacity="1" /><path clip-path="url(#clip700)" d="M2273.31 1517.37 Q2269.7 1517.37 2267.87 1520.93 Q2266.07 1524.47 2266.07 1531.6 Q2266.07 1538.71 2267.87 1542.27 Q2269.7 1545.82 2273.31 1545.82 Q2276.95 1545.82 2278.75 1542.27 Q2280.58 1538.71 2280.58 1531.6 Q2280.58 1524.47 2278.75 1520.93 Q2276.95 1517.37 2273.31 1517.37 M2273.31 1513.66 Q2279.12 1513.66 2282.18 1518.27 Q2285.26 1522.85 2285.26 1531.6 Q2285.26 1540.33 2282.18 1544.94 Q2279.12 1549.52 2273.31 1549.52 Q2267.5 1549.52 2264.42 1544.94 Q2261.37 1540.33 2261.37 1531.6 Q2261.37 1522.85 2264.42 1518.27 Q2267.5 1513.66 2273.31 1513.66 Z" fill="#000000" fill-rule="nonzero" fill-opacity="1" /><path clip-path="url(#clip700)" d="M2303.48 1517.37 Q2299.86 1517.37 2298.04 1520.93 Q2296.23 1524.47 2296.23 1531.6 Q2296.23 1538.71 2298.04 1542.27 Q2299.86 1545.82 2303.48 1545.82 Q2307.11 1545.82 2308.92 1542.27 Q2310.74 1538.71 2310.74 1531.6 Q2310.74 1524.47 2308.92 1520.93 Q2307.11 1517.37 2303.48 1517.37 M2303.48 1513.66 Q2309.29 1513.66 2312.34 1518.27 Q2315.42 1522.85 2315.42 1531.6 Q2315.42 1540.33 2312.34 1544.94 Q2309.29 1549.52 2303.48 1549.52 Q2297.67 1549.52 2294.59 1544.94 Q2291.53 1540.33 2291.53 1531.6 Q2291.53 1522.85 2294.59 1518.27 Q2297.67 1513.66 2303.48 1513.66 Z" fill="#000000" fill-rule="nonzero" fill-opacity="1" /><polyline clip-path="url(#clip700)" style="stroke:#000000; stroke-linecap:round; stroke-linejoin:round; stroke-width:4; stroke-opacity:1; fill:none" points="275.136,1486.45 275.136,47.2441 "/>
<polyline clip-path="url(#clip700)" style="stroke:#000000; stroke-linecap:round; stroke-linejoin:round; stroke-width:4; stroke-opacity:1; fill:none" points="275.136,1446.26 294.034,1446.26 "/>
<polyline clip-path="url(#clip700)" style="stroke:#000000; stroke-linecap:round; stroke-linejoin:round; stroke-width:4; stroke-opacity:1; fill:none" points="275.136,1164.6 294.034,1164.6 "/>
<polyline clip-path="url(#clip700)" style="stroke:#000000; stroke-linecap:round; stroke-linejoin:round; stroke-width:4; stroke-opacity:1; fill:none" points="275.136,882.947 294.034,882.947 "/>
<polyline clip-path="url(#clip700)" style="stroke:#000000; stroke-linecap:round; stroke-linejoin:round; stroke-width:4; stroke-opacity:1; fill:none" points="275.136,601.292 294.034,601.292 "/>
<polyline clip-path="url(#clip700)" style="stroke:#000000; stroke-linecap:round; stroke-linejoin:round; stroke-width:4; stroke-opacity:1; fill:none" points="275.136,319.637 294.034,319.637 "/>
<path clip-path="url(#clip700)" d="M227.192 1432.06 Q223.581 1432.06 221.752 1435.62 Q219.947 1439.16 219.947 1446.29 Q219.947 1453.4 221.752 1456.96 Q223.581 1460.5 227.192 1460.5 Q230.826 1460.5 232.632 1456.96 Q234.46 1453.4 234.46 1446.29 Q234.46 1439.16 232.632 1435.62 Q230.826 1432.06 227.192 1432.06 M227.192 1428.35 Q233.002 1428.35 236.058 1432.96 Q239.136 1437.54 239.136 1446.29 Q239.136 1455.02 236.058 1459.62 Q233.002 1464.21 227.192 1464.21 Q221.382 1464.21 218.303 1459.62 Q215.248 1455.02 215.248 1446.29 Q215.248 1437.54 218.303 1432.96 Q221.382 1428.35 227.192 1428.35 Z" fill="#000000" fill-rule="nonzero" fill-opacity="1" /><path clip-path="url(#clip700)" d="M57.7745 1184.39 L74.0939 1184.39 L74.0939 1188.33 L52.1495 1188.33 L52.1495 1184.39 Q54.8115 1181.64 59.3949 1177.01 Q64.0013 1172.36 65.1819 1171.01 Q67.4272 1168.49 68.3068 1166.76 Q69.2096 1165 69.2096 1163.31 Q69.2096 1160.55 67.2652 1158.82 Q65.3439 1157.08 62.2421 1157.08 Q60.043 1157.08 57.5893 1157.84 Q55.1588 1158.61 52.381 1160.16 L52.381 1155.44 Q55.2051 1154.3 57.6588 1153.72 Q60.1124 1153.14 62.1495 1153.14 Q67.5198 1153.14 70.7142 1155.83 Q73.9087 1158.51 73.9087 1163.01 Q73.9087 1165.14 73.0985 1167.06 Q72.3115 1168.95 70.205 1171.55 Q69.6263 1172.22 66.5245 1175.44 Q63.4226 1178.63 57.7745 1184.39 Z" fill="#000000" fill-rule="nonzero" fill-opacity="1" /><path clip-path="url(#clip700)" d="M83.9086 1182.45 L88.7928 1182.45 L88.7928 1188.33 L83.9086 1188.33 L83.9086 1182.45 Z" fill="#000000" fill-rule="nonzero" fill-opacity="1" /><path clip-path="url(#clip700)" d="M108.978 1156.85 Q105.367 1156.85 103.538 1160.41 Q101.733 1163.95 101.733 1171.08 Q101.733 1178.19 103.538 1181.76 Q105.367 1185.3 108.978 1185.3 Q112.612 1185.3 114.418 1181.76 Q116.246 1178.19 116.246 1171.08 Q116.246 1163.95 114.418 1160.41 Q112.612 1156.85 108.978 1156.85 M108.978 1153.14 Q114.788 1153.14 117.844 1157.75 Q120.922 1162.33 120.922 1171.08 Q120.922 1179.81 117.844 1184.42 Q114.788 1189 108.978 1189 Q103.168 1189 100.089 1184.42 Q97.0335 1179.81 97.0335 1171.08 Q97.0335 1162.33 100.089 1157.75 Q103.168 1153.14 108.978 1153.14 Z" fill="#000000" fill-rule="nonzero" fill-opacity="1" /><path clip-path="url(#clip700)" d="M157.311 1162.87 L146.732 1173.49 L157.311 1184.07 L154.556 1186.87 L143.931 1176.25 L133.306 1186.87 L130.575 1184.07 L141.131 1173.49 L130.575 1162.87 L133.306 1160.07 L143.931 1170.69 L154.556 1160.07 L157.311 1162.87 Z" fill="#000000" fill-rule="nonzero" fill-opacity="1" /><path clip-path="url(#clip700)" d="M169.672 1184.39 L177.311 1184.39 L177.311 1158.03 L169.001 1159.7 L169.001 1155.44 L177.265 1153.77 L181.94 1153.77 L181.94 1184.39 L189.579 1184.39 L189.579 1188.33 L169.672 1188.33 L169.672 1184.39 Z" fill="#000000" fill-rule="nonzero" fill-opacity="1" /><path clip-path="url(#clip700)" d="M209.024 1156.85 Q205.413 1156.85 203.584 1160.41 Q201.778 1163.95 201.778 1171.08 Q201.778 1178.19 203.584 1181.76 Q205.413 1185.3 209.024 1185.3 Q212.658 1185.3 214.463 1181.76 Q216.292 1178.19 216.292 1171.08 Q216.292 1163.95 214.463 1160.41 Q212.658 1156.85 209.024 1156.85 M209.024 1153.14 Q214.834 1153.14 217.889 1157.75 Q220.968 1162.33 220.968 1171.08 Q220.968 1179.81 217.889 1184.42 Q214.834 1189 209.024 1189 Q203.214 1189 200.135 1184.42 Q197.079 1179.81 197.079 1171.08 Q197.079 1162.33 200.135 1157.75 Q203.214 1153.14 209.024 1153.14 Z" fill="#000000" fill-rule="nonzero" fill-opacity="1" /><path clip-path="url(#clip700)" d="M222.153 1132.84 L237.068 1132.84 L237.068 1136.04 L225.632 1136.04 L225.632 1142.92 Q226.46 1142.64 227.287 1142.51 Q228.115 1142.36 228.943 1142.36 Q233.645 1142.36 236.39 1144.93 Q239.136 1147.51 239.136 1151.91 Q239.136 1156.44 236.315 1158.96 Q233.494 1161.46 228.36 1161.46 Q226.592 1161.46 224.748 1161.16 Q222.924 1160.86 220.968 1160.26 L220.968 1156.44 Q222.661 1157.36 224.466 1157.82 Q226.272 1158.27 228.284 1158.27 Q231.538 1158.27 233.438 1156.56 Q235.337 1154.84 235.337 1151.91 Q235.337 1148.98 233.438 1147.26 Q231.538 1145.55 228.284 1145.55 Q226.761 1145.55 225.237 1145.89 Q223.733 1146.23 222.153 1146.95 L222.153 1132.84 Z" fill="#000000" fill-rule="nonzero" fill-opacity="1" /><path clip-path="url(#clip700)" d="M66.5939 876.189 L54.7884 894.638 L66.5939 894.638 L66.5939 876.189 M65.367 872.115 L71.2466 872.115 L71.2466 894.638 L76.1772 894.638 L76.1772 898.527 L71.2466 898.527 L71.2466 906.675 L66.5939 906.675 L66.5939 898.527 L50.9921 898.527 L50.9921 894.013 L65.367 872.115 Z" fill="#000000" fill-rule="nonzero" fill-opacity="1" /><path clip-path="url(#clip700)" d="M83.9086 900.795 L88.7928 900.795 L88.7928 906.675 L83.9086 906.675 L83.9086 900.795 Z" fill="#000000" fill-rule="nonzero" fill-opacity="1" /><path clip-path="url(#clip700)" d="M108.978 875.193 Q105.367 875.193 103.538 878.758 Q101.733 882.3 101.733 889.429 Q101.733 896.536 103.538 900.101 Q105.367 903.642 108.978 903.642 Q112.612 903.642 114.418 900.101 Q116.246 896.536 116.246 889.429 Q116.246 882.3 114.418 878.758 Q112.612 875.193 108.978 875.193 M108.978 871.49 Q114.788 871.49 117.844 876.096 Q120.922 880.68 120.922 889.429 Q120.922 898.156 117.844 902.763 Q114.788 907.346 108.978 907.346 Q103.168 907.346 100.089 902.763 Q97.0335 898.156 97.0335 889.429 Q97.0335 880.68 100.089 876.096 Q103.168 871.49 108.978 871.49 Z" fill="#000000" fill-rule="nonzero" fill-opacity="1" /><path clip-path="url(#clip700)" d="M157.311 881.212 L146.732 891.837 L157.311 902.416 L154.556 905.216 L143.931 894.591 L133.306 905.216 L130.575 902.416 L141.131 891.837 L130.575 881.212 L133.306 878.411 L143.931 889.036 L154.556 878.411 L157.311 881.212 Z" fill="#000000" fill-rule="nonzero" fill-opacity="1" /><path clip-path="url(#clip700)" d="M169.672 902.74 L177.311 902.74 L177.311 876.374 L169.001 878.041 L169.001 873.781 L177.265 872.115 L181.94 872.115 L181.94 902.74 L189.579 902.74 L189.579 906.675 L169.672 906.675 L169.672 902.74 Z" fill="#000000" fill-rule="nonzero" fill-opacity="1" /><path clip-path="url(#clip700)" d="M209.024 875.193 Q205.413 875.193 203.584 878.758 Q201.778 882.3 201.778 889.429 Q201.778 896.536 203.584 900.101 Q205.413 903.642 209.024 903.642 Q212.658 903.642 214.463 900.101 Q216.292 896.536 216.292 889.429 Q216.292 882.3 214.463 878.758 Q212.658 875.193 209.024 875.193 M209.024 871.49 Q214.834 871.49 217.889 876.096 Q220.968 880.68 220.968 889.429 Q220.968 898.156 217.889 902.763 Q214.834 907.346 209.024 907.346 Q203.214 907.346 200.135 902.763 Q197.079 898.156 197.079 889.429 Q197.079 880.68 200.135 876.096 Q203.214 871.49 209.024 871.49 Z" fill="#000000" fill-rule="nonzero" fill-opacity="1" /><path clip-path="url(#clip700)" d="M222.153 851.184 L237.068 851.184 L237.068 854.382 L225.632 854.382 L225.632 861.265 Q226.46 860.983 227.287 860.852 Q228.115 860.701 228.943 860.701 Q233.645 860.701 236.39 863.278 Q239.136 865.854 239.136 870.255 Q239.136 874.788 236.315 877.308 Q233.494 879.81 228.36 879.81 Q226.592 879.81 224.748 879.509 Q222.924 879.208 220.968 878.606 L220.968 874.788 Q222.661 875.71 224.466 876.161 Q226.272 876.612 228.284 876.612 Q231.538 876.612 233.438 874.901 Q235.337 873.189 235.337 870.255 Q235.337 867.321 233.438 865.61 Q231.538 863.898 228.284 863.898 Q226.761 863.898 225.237 864.237 Q223.733 864.575 222.153 865.29 L222.153 851.184 Z" fill="#000000" fill-rule="nonzero" fill-opacity="1" /><path clip-path="url(#clip700)" d="M64.3254 605.876 Q61.1773 605.876 59.3254 608.029 Q57.4967 610.182 57.4967 613.932 Q57.4967 617.659 59.3254 619.835 Q61.1773 621.987 64.3254 621.987 Q67.4735 621.987 69.3022 619.835 Q71.1541 617.659 71.1541 613.932 Q71.1541 610.182 69.3022 608.029 Q67.4735 605.876 64.3254 605.876 M73.6077 591.224 L73.6077 595.483 Q71.8485 594.65 70.0429 594.21 Q68.2606 593.77 66.5013 593.77 Q61.8717 593.77 59.418 596.895 Q56.9875 600.02 56.6402 606.339 Q58.006 604.326 60.0662 603.261 Q62.1263 602.173 64.6032 602.173 Q69.8115 602.173 72.8207 605.344 Q75.8531 608.492 75.8531 613.932 Q75.8531 619.256 72.705 622.474 Q69.5568 625.691 64.3254 625.691 Q58.33 625.691 55.1588 621.108 Q51.9875 616.501 51.9875 607.775 Q51.9875 599.58 55.8764 594.719 Q59.7652 589.835 66.3161 589.835 Q68.0754 589.835 69.8578 590.182 Q71.6633 590.529 73.6077 591.224 Z" fill="#000000" fill-rule="nonzero" fill-opacity="1" /><path clip-path="url(#clip700)" d="M83.9086 619.14 L88.7928 619.14 L88.7928 625.02 L83.9086 625.02 L83.9086 619.14 Z" fill="#000000" fill-rule="nonzero" fill-opacity="1" /><path clip-path="url(#clip700)" d="M108.978 593.539 Q105.367 593.539 103.538 597.103 Q101.733 600.645 101.733 607.775 Q101.733 614.881 103.538 618.446 Q105.367 621.987 108.978 621.987 Q112.612 621.987 114.418 618.446 Q116.246 614.881 116.246 607.775 Q116.246 600.645 114.418 597.103 Q112.612 593.539 108.978 593.539 M108.978 589.835 Q114.788 589.835 117.844 594.441 Q120.922 599.025 120.922 607.775 Q120.922 616.501 117.844 621.108 Q114.788 625.691 108.978 625.691 Q103.168 625.691 100.089 621.108 Q97.0335 616.501 97.0335 607.775 Q97.0335 599.025 100.089 594.441 Q103.168 589.835 108.978 589.835 Z" fill="#000000" fill-rule="nonzero" fill-opacity="1" /><path clip-path="url(#clip700)" d="M157.311 599.557 L146.732 610.182 L157.311 620.761 L154.556 623.562 L143.931 612.937 L133.306 623.562 L130.575 620.761 L141.131 610.182 L130.575 599.557 L133.306 596.756 L143.931 607.381 L154.556 596.756 L157.311 599.557 Z" fill="#000000" fill-rule="nonzero" fill-opacity="1" /><path clip-path="url(#clip700)" d="M169.672 621.085 L177.311 621.085 L177.311 594.719 L169.001 596.386 L169.001 592.127 L177.265 590.46 L181.94 590.46 L181.94 621.085 L189.579 621.085 L189.579 625.02 L169.672 625.02 L169.672 621.085 Z" fill="#000000" fill-rule="nonzero" fill-opacity="1" /><path clip-path="url(#clip700)" d="M209.024 593.539 Q205.413 593.539 203.584 597.103 Q201.778 600.645 201.778 607.775 Q201.778 614.881 203.584 618.446 Q205.413 621.987 209.024 621.987 Q212.658 621.987 214.463 618.446 Q216.292 614.881 216.292 607.775 Q216.292 600.645 214.463 597.103 Q212.658 593.539 209.024 593.539 M209.024 589.835 Q214.834 589.835 217.889 594.441 Q220.968 599.025 220.968 607.775 Q220.968 616.501 217.889 621.108 Q214.834 625.691 209.024 625.691 Q203.214 625.691 200.135 621.108 Q197.079 616.501 197.079 607.775 Q197.079 599.025 200.135 594.441 Q203.214 589.835 209.024 589.835 Z" fill="#000000" fill-rule="nonzero" fill-opacity="1" /><path clip-path="url(#clip700)" d="M222.153 569.529 L237.068 569.529 L237.068 572.727 L225.632 572.727 L225.632 579.61 Q226.46 579.328 227.287 579.197 Q228.115 579.046 228.943 579.046 Q233.645 579.046 236.39 581.623 Q239.136 584.2 239.136 588.601 Q239.136 593.133 236.315 595.653 Q233.494 598.155 228.36 598.155 Q226.592 598.155 224.748 597.854 Q222.924 597.553 220.968 596.951 L220.968 593.133 Q222.661 594.055 224.466 594.506 Q226.272 594.958 228.284 594.958 Q231.538 594.958 233.438 593.246 Q235.337 591.535 235.337 588.601 Q235.337 585.667 233.438 583.955 Q231.538 582.244 228.284 582.244 Q226.761 582.244 225.237 582.582 Q223.733 582.921 222.153 583.635 L222.153 569.529 Z" fill="#000000" fill-rule="nonzero" fill-opacity="1" /><path clip-path="url(#clip700)" d="M63.7467 326.953 Q60.4134 326.953 58.4921 328.735 Q56.5939 330.518 56.5939 333.643 Q56.5939 336.768 58.4921 338.55 Q60.4134 340.333 63.7467 340.333 Q67.08 340.333 69.0013 338.55 Q70.9226 336.745 70.9226 333.643 Q70.9226 330.518 69.0013 328.735 Q67.1032 326.953 63.7467 326.953 M59.0708 324.962 Q56.0615 324.222 54.3717 322.161 Q52.7051 320.101 52.7051 317.138 Q52.7051 312.995 55.6449 310.587 Q58.6078 308.18 63.7467 308.18 Q68.9087 308.18 71.8485 310.587 Q74.7883 312.995 74.7883 317.138 Q74.7883 320.101 73.0985 322.161 Q71.4318 324.222 68.4457 324.962 Q71.8253 325.749 73.7003 328.041 Q75.5985 330.333 75.5985 333.643 Q75.5985 338.666 72.5198 341.351 Q69.4642 344.036 63.7467 344.036 Q58.0291 344.036 54.9504 341.351 Q51.8949 338.666 51.8949 333.643 Q51.8949 330.333 53.793 328.041 Q55.6912 325.749 59.0708 324.962 M57.3578 317.578 Q57.3578 320.263 59.0245 321.768 Q60.7143 323.273 63.7467 323.273 Q66.7559 323.273 68.4457 321.768 Q70.1587 320.263 70.1587 317.578 Q70.1587 314.893 68.4457 313.388 Q66.7559 311.884 63.7467 311.884 Q60.7143 311.884 59.0245 313.388 Q57.3578 314.893 57.3578 317.578 Z" fill="#000000" fill-rule="nonzero" fill-opacity="1" /><path clip-path="url(#clip700)" d="M83.9086 337.485 L88.7928 337.485 L88.7928 343.365 L83.9086 343.365 L83.9086 337.485 Z" fill="#000000" fill-rule="nonzero" fill-opacity="1" /><path clip-path="url(#clip700)" d="M108.978 311.884 Q105.367 311.884 103.538 315.448 Q101.733 318.99 101.733 326.12 Q101.733 333.226 103.538 336.791 Q105.367 340.333 108.978 340.333 Q112.612 340.333 114.418 336.791 Q116.246 333.226 116.246 326.12 Q116.246 318.99 114.418 315.448 Q112.612 311.884 108.978 311.884 M108.978 308.18 Q114.788 308.18 117.844 312.786 Q120.922 317.37 120.922 326.12 Q120.922 334.847 117.844 339.453 Q114.788 344.036 108.978 344.036 Q103.168 344.036 100.089 339.453 Q97.0335 334.847 97.0335 326.12 Q97.0335 317.37 100.089 312.786 Q103.168 308.18 108.978 308.18 Z" fill="#000000" fill-rule="nonzero" fill-opacity="1" /><path clip-path="url(#clip700)" d="M157.311 317.902 L146.732 328.527 L157.311 339.106 L154.556 341.907 L143.931 331.282 L133.306 341.907 L130.575 339.106 L141.131 328.527 L130.575 317.902 L133.306 315.101 L143.931 325.726 L154.556 315.101 L157.311 317.902 Z" fill="#000000" fill-rule="nonzero" fill-opacity="1" /><path clip-path="url(#clip700)" d="M169.672 339.43 L177.311 339.43 L177.311 313.064 L169.001 314.731 L169.001 310.472 L177.265 308.805 L181.94 308.805 L181.94 339.43 L189.579 339.43 L189.579 343.365 L169.672 343.365 L169.672 339.43 Z" fill="#000000" fill-rule="nonzero" fill-opacity="1" /><path clip-path="url(#clip700)" d="M209.024 311.884 Q205.413 311.884 203.584 315.448 Q201.778 318.99 201.778 326.12 Q201.778 333.226 203.584 336.791 Q205.413 340.333 209.024 340.333 Q212.658 340.333 214.463 336.791 Q216.292 333.226 216.292 326.12 Q216.292 318.99 214.463 315.448 Q212.658 311.884 209.024 311.884 M209.024 308.18 Q214.834 308.18 217.889 312.786 Q220.968 317.37 220.968 326.12 Q220.968 334.847 217.889 339.453 Q214.834 344.036 209.024 344.036 Q203.214 344.036 200.135 339.453 Q197.079 334.847 197.079 326.12 Q197.079 317.37 200.135 312.786 Q203.214 308.18 209.024 308.18 Z" fill="#000000" fill-rule="nonzero" fill-opacity="1" /><path clip-path="url(#clip700)" d="M222.153 287.875 L237.068 287.875 L237.068 291.072 L225.632 291.072 L225.632 297.956 Q226.46 297.673 227.287 297.542 Q228.115 297.391 228.943 297.391 Q233.645 297.391 236.39 299.968 Q239.136 302.545 239.136 306.946 Q239.136 311.478 236.315 313.999 Q233.494 316.5 228.36 316.5 Q226.592 316.5 224.748 316.199 Q222.924 315.898 220.968 315.296 L220.968 311.478 Q222.661 312.4 224.466 312.851 Q226.272 313.303 228.284 313.303 Q231.538 313.303 233.438 311.591 Q235.337 309.88 235.337 306.946 Q235.337 304.012 233.438 302.3 Q231.538 300.589 228.284 300.589 Q226.761 300.589 225.237 300.927 Q223.733 301.266 222.153 301.98 L222.153 287.875 Z" fill="#000000" fill-rule="nonzero" fill-opacity="1" /><polyline clip-path="url(#clip702)" style="stroke:#009af9; stroke-linecap:round; stroke-linejoin:round; stroke-width:4; stroke-opacity:1; fill:none" points="333.937,87.9763 353.537,92.6723 373.137,97.7035 392.737,103.297 412.338,109.454 431.938,116.161 451.538,123.399 471.138,131.153 490.738,139.405 510.339,148.14 529.939,157.342 549.539,166.996 569.139,177.089 588.739,187.606 608.34,198.535 627.94,209.862 647.54,221.575 667.14,233.66 686.74,246.107 706.34,258.902 725.941,272.033 745.541,285.489 765.141,299.258 784.741,313.328 804.341,327.687 823.942,342.324 843.542,357.227 863.142,372.385 882.742,387.786 902.342,403.418 921.942,419.271 941.543,435.332 961.143,451.59 980.743,468.034 1000.34,484.652 1019.94,501.433 1039.54,518.364 1059.14,535.435 1078.74,552.634 1098.34,569.949 1117.94,587.368 1137.54,604.88 1157.14,622.473 1176.74,640.136 1196.35,657.855 1215.95,675.62 1235.55,693.419 1255.15,711.239 1274.75,729.069 1294.35,746.896 1313.95,764.707 1333.55,782.492 1353.15,800.237 1372.75,817.931 1392.35,835.559 1411.95,853.111 1431.55,870.573 1451.15,887.933 1470.75,905.177 1490.35,922.293 1509.95,939.268 1529.55,956.089 1549.15,972.741 1568.75,989.212 1588.35,1005.49 1607.95,1021.56 1627.55,1037.4 1647.15,1053.01 1666.75,1068.37 1686.35,1083.46 1705.95,1098.28 1725.55,1112.8 1745.15,1127.01 1764.75,1140.89 1784.35,1154.44 1803.95,1167.63 1823.55,1180.44 1843.15,1192.87 1862.75,1204.89 1882.35,1216.48 1901.95,1227.64 1921.55,1238.33 1941.15,1248.54 1960.75,1258.25 1980.35,1267.45 1999.95,1276.1 2019.55,1284.19 2039.15,1291.7 2058.75,1298.63 2078.35,1305 2097.95,1310.86 2117.55,1316.39 2137.15,1322.02 2156.75,1328.64 2176.35,1337.98 2195.95,1352.71 2215.55,1375.03 2235.15,1403.14 2254.75,1427.25 2274.36,1440.62 2293.96,1445.72 "/>
<path clip-path="url(#clip700)" d="M2023.31 198.898 L2283.5 198.898 L2283.5 95.2176 L2023.31 95.2176  Z" fill="#ffffff" fill-rule="evenodd" fill-opacity="1"/>
<polyline clip-path="url(#clip700)" style="stroke:#000000; stroke-linecap:round; stroke-linejoin:round; stroke-width:4; stroke-opacity:1; fill:none" points="2023.31,198.898 2283.5,198.898 2283.5,95.2176 2023.31,95.2176 2023.31,198.898 "/>
<polyline clip-path="url(#clip700)" style="stroke:#009af9; stroke-linecap:round; stroke-linejoin:round; stroke-width:4; stroke-opacity:1; fill:none" points="2046.39,147.058 2184.9,147.058 "/>
<path clip-path="url(#clip700)" d="M2221.83 166.745 Q2220.02 171.375 2218.31 172.787 Q2216.6 174.199 2213.73 174.199 L2210.32 174.199 L2210.32 170.634 L2212.82 170.634 Q2214.58 170.634 2215.56 169.8 Q2216.53 168.967 2217.71 165.865 L2218.47 163.921 L2207.99 138.412 L2212.5 138.412 L2220.6 158.689 L2228.7 138.412 L2233.22 138.412 L2221.83 166.745 Z" fill="#000000" fill-rule="nonzero" fill-opacity="1" /><path clip-path="url(#clip700)" d="M2240.51 160.402 L2248.15 160.402 L2248.15 134.037 L2239.84 135.703 L2239.84 131.444 L2248.1 129.778 L2252.78 129.778 L2252.78 160.402 L2260.42 160.402 L2260.42 164.338 L2240.51 164.338 L2240.51 160.402 Z" fill="#000000" fill-rule="nonzero" fill-opacity="1" /></svg>
