<?xml version="1.0" encoding="utf-8"?>
<svg xmlns="http://www.w3.org/2000/svg" xmlns:xlink="http://www.w3.org/1999/xlink" width="600" height="400" viewBox="0 0 2400 1600">
<defs>
  <clipPath id="clip020">
    <rect x="0" y="0" width="2400" height="1600"/>
  </clipPath>
</defs>
<path clip-path="url(#clip020)" d="M0 1600 L2400 1600 L2400 0 L0 0  Z" fill="#ffffff" fill-rule="evenodd" fill-opacity="1"/>
<defs>
  <clipPath id="clip021">
    <rect x="480" y="0" width="1681" height="1600"/>
  </clipPath>
</defs>
<path clip-path="url(#clip020)" d="M429.998 1362.7 L2352.76 1362.7 L2352.76 47.2441 L429.998 47.2441  Z" fill="#ffffff" fill-rule="evenodd" fill-opacity="1"/>
<defs>
  <clipPath id="clip022">
    <rect x="429" y="47" width="1924" height="1316"/>
  </clipPath>
</defs>
<polyline clip-path="url(#clip022)" style="stroke:#000000; stroke-linecap:round; stroke-linejoin:round; stroke-width:2; stroke-opacity:0.1; fill:none" points="429.998,1362.7 429.998,47.2441 "/>
<polyline clip-path="url(#clip022)" style="stroke:#000000; stroke-linecap:round; stroke-linejoin:round; stroke-width:2; stroke-opacity:0.1; fill:none" points="814.55,1362.7 814.55,47.2441 "/>
<polyline clip-path="url(#clip022)" style="stroke:#000000; stroke-linecap:round; stroke-linejoin:round; stroke-width:2; stroke-opacity:0.1; fill:none" points="1199.1,1362.7 1199.1,47.2441 "/>
<polyline clip-path="url(#clip022)" style="stroke:#000000; stroke-linecap:round; stroke-linejoin:round; stroke-width:2; stroke-opacity:0.1; fill:none" points="1583.65,1362.7 1583.65,47.2441 "/>
<polyline clip-path="url(#clip022)" style="stroke:#000000; stroke-linecap:round; stroke-linejoin:round; stroke-width:2; stroke-opacity:0.1; fill:none" points="1968.2,1362.7 1968.2,47.2441 "/>
<polyline clip-path="url(#clip022)" style="stroke:#000000; stroke-linecap:round; stroke-linejoin:round; stroke-width:2; stroke-opacity:0.1; fill:none" points="2352.76,1362.7 2352.76,47.2441 "/>
<polyline clip-path="url(#clip022)" style="stroke:#000000; stroke-linecap:round; stroke-linejoin:round; stroke-width:2; stroke-opacity:0.1; fill:none" points="429.998,1327.48 2352.76,1327.48 "/>
<polyline clip-path="url(#clip022)" style="stroke:#000000; stroke-linecap:round; stroke-linejoin:round; stroke-width:2; stroke-opacity:0.1; fill:none" points="429.998,1014.99 2352.76,1014.99 "/>
<polyline clip-path="url(#clip022)" style="stroke:#000000; stroke-linecap:round; stroke-linejoin:round; stroke-width:2; stroke-opacity:0.1; fill:none" points="429.998,702.501 2352.76,702.501 "/>
<polyline clip-path="url(#clip022)" style="stroke:#000000; stroke-linecap:round; stroke-linejoin:round; stroke-width:2; stroke-opacity:0.1; fill:none" points="429.998,390.014 2352.76,390.014 "/>
<polyline clip-path="url(#clip022)" style="stroke:#000000; stroke-linecap:round; stroke-linejoin:round; stroke-width:2; stroke-opacity:0.1; fill:none" points="429.998,77.5269 2352.76,77.5269 "/>
<polyline clip-path="url(#clip020)" style="stroke:#000000; stroke-linecap:round; stroke-linejoin:round; stroke-width:4; stroke-opacity:1; fill:none" points="429.998,1362.7 2352.76,1362.7 "/>
<polyline clip-path="url(#clip020)" style="stroke:#000000; stroke-linecap:round; stroke-linejoin:round; stroke-width:4; stroke-opacity:1; fill:none" points="429.998,1362.7 429.998,1343.8 "/>
<polyline clip-path="url(#clip020)" style="stroke:#000000; stroke-linecap:round; stroke-linejoin:round; stroke-width:4; stroke-opacity:1; fill:none" points="814.55,1362.7 814.55,1343.8 "/>
<polyline clip-path="url(#clip020)" style="stroke:#000000; stroke-linecap:round; stroke-linejoin:round; stroke-width:4; stroke-opacity:1; fill:none" points="1199.1,1362.7 1199.1,1343.8 "/>
<polyline clip-path="url(#clip020)" style="stroke:#000000; stroke-linecap:round; stroke-linejoin:round; stroke-width:4; stroke-opacity:1; fill:none" points="1583.65,1362.7 1583.65,1343.8 "/>
<polyline clip-path="url(#clip020)" style="stroke:#000000; stroke-linecap:round; stroke-linejoin:round; stroke-width:4; stroke-opacity:1; fill:none" points="1968.2,1362.7 1968.2,1343.8 "/>
<polyline clip-path="url(#clip020)" style="stroke:#000000; stroke-linecap:round; stroke-linejoin:round; stroke-width:4; stroke-opacity:1; fill:none" points="2352.76,1362.7 2352.76,1343.8 "/>
<path clip-path="url(#clip020)" d="M407.383 1393.62 Q403.772 1393.62 401.943 1397.18 Q400.137 1400.72 400.137 1407.85 Q400.137 1414.96 401.943 1418.53 Q403.772 1422.07 407.383 1422.07 Q411.017 1422.07 412.822 1418.53 Q414.651 1414.96 414.651 1407.85 Q414.651 1400.72 412.822 1397.18 Q411.017 1393.62 407.383 1393.62 M407.383 1389.91 Q413.193 1389.91 416.248 1394.52 Q419.327 1399.1 419.327 1407.85 Q419.327 1416.58 416.248 1421.19 Q413.193 1425.77 407.383 1425.77 Q401.572 1425.77 398.494 1421.19 Q395.438 1416.58 395.438 1407.85 Q395.438 1399.1 398.494 1394.52 Q401.572 1389.91 407.383 1389.91 Z" fill="#000000" fill-rule="nonzero" fill-opacity="1" /><path clip-path="url(#clip020)" d="M427.545 1419.22 L432.429 1419.22 L432.429 1425.1 L427.545 1425.1 L427.545 1419.22 Z" fill="#000000" fill-rule="nonzero" fill-opacity="1" /><path clip-path="url(#clip020)" d="M452.614 1393.62 Q449.003 1393.62 447.174 1397.18 Q445.369 1400.72 445.369 1407.85 Q445.369 1414.96 447.174 1418.53 Q449.003 1422.07 452.614 1422.07 Q456.248 1422.07 458.054 1418.53 Q459.882 1414.96 459.882 1407.85 Q459.882 1400.72 458.054 1397.18 Q456.248 1393.62 452.614 1393.62 M452.614 1389.91 Q458.424 1389.91 461.48 1394.52 Q464.558 1399.1 464.558 1407.85 Q464.558 1416.58 461.48 1421.19 Q458.424 1425.77 452.614 1425.77 Q446.804 1425.77 443.725 1421.19 Q440.669 1416.58 440.669 1407.85 Q440.669 1399.1 443.725 1394.52 Q446.804 1389.91 452.614 1389.91 Z" fill="#000000" fill-rule="nonzero" fill-opacity="1" /><path clip-path="url(#clip020)" d="M792.733 1393.62 Q789.122 1393.62 787.293 1397.18 Q785.487 1400.72 785.487 1407.85 Q785.487 1414.96 787.293 1418.53 Q789.122 1422.07 792.733 1422.07 Q796.367 1422.07 798.173 1418.53 Q800.001 1414.96 800.001 1407.85 Q800.001 1400.72 798.173 1397.18 Q796.367 1393.62 792.733 1393.62 M792.733 1389.91 Q798.543 1389.91 801.598 1394.52 Q804.677 1399.1 804.677 1407.85 Q804.677 1416.58 801.598 1421.19 Q798.543 1425.77 792.733 1425.77 Q786.923 1425.77 783.844 1421.19 Q780.788 1416.58 780.788 1407.85 Q780.788 1399.1 783.844 1394.52 Q786.923 1389.91 792.733 1389.91 Z" fill="#000000" fill-rule="nonzero" fill-opacity="1" /><path clip-path="url(#clip020)" d="M812.895 1419.22 L817.779 1419.22 L817.779 1425.1 L812.895 1425.1 L812.895 1419.22 Z" fill="#000000" fill-rule="nonzero" fill-opacity="1" /><path clip-path="url(#clip020)" d="M831.992 1421.16 L848.311 1421.16 L848.311 1425.1 L826.367 1425.1 L826.367 1421.16 Q829.029 1418.41 833.612 1413.78 Q838.219 1409.13 839.399 1407.79 Q841.645 1405.26 842.524 1403.53 Q843.427 1401.77 843.427 1400.08 Q843.427 1397.32 841.483 1395.59 Q839.561 1393.85 836.459 1393.85 Q834.26 1393.85 831.807 1394.61 Q829.376 1395.38 826.598 1396.93 L826.598 1392.21 Q829.422 1391.07 831.876 1390.49 Q834.33 1389.91 836.367 1389.91 Q841.737 1389.91 844.932 1392.6 Q848.126 1395.29 848.126 1399.78 Q848.126 1401.91 847.316 1403.83 Q846.529 1405.72 844.422 1408.32 Q843.844 1408.99 840.742 1412.21 Q837.64 1415.4 831.992 1421.16 Z" fill="#000000" fill-rule="nonzero" fill-opacity="1" /><path clip-path="url(#clip020)" d="M1176.24 1393.62 Q1172.63 1393.62 1170.8 1397.18 Q1169 1400.72 1169 1407.85 Q1169 1414.96 1170.8 1418.53 Q1172.63 1422.07 1176.24 1422.07 Q1179.88 1422.07 1181.68 1418.53 Q1183.51 1414.96 1183.51 1407.85 Q1183.51 1400.72 1181.68 1397.18 Q1179.88 1393.62 1176.24 1393.62 M1176.24 1389.91 Q1182.05 1389.91 1185.11 1394.52 Q1188.19 1399.1 1188.19 1407.85 Q1188.19 1416.58 1185.11 1421.19 Q1182.05 1425.77 1176.24 1425.77 Q1170.43 1425.77 1167.35 1421.19 Q1164.3 1416.58 1164.3 1407.85 Q1164.3 1399.1 1167.35 1394.52 Q1170.43 1389.91 1176.24 1389.91 Z" fill="#000000" fill-rule="nonzero" fill-opacity="1" /><path clip-path="url(#clip020)" d="M1196.4 1419.22 L1201.29 1419.22 L1201.29 1425.1 L1196.4 1425.1 L1196.4 1419.22 Z" fill="#000000" fill-rule="nonzero" fill-opacity="1" /><path clip-path="url(#clip020)" d="M1224.32 1394.61 L1212.52 1413.06 L1224.32 1413.06 L1224.32 1394.61 M1223.09 1390.54 L1228.97 1390.54 L1228.97 1413.06 L1233.9 1413.06 L1233.9 1416.95 L1228.97 1416.95 L1228.97 1425.1 L1224.32 1425.1 L1224.32 1416.95 L1208.72 1416.95 L1208.72 1412.44 L1223.09 1390.54 Z" fill="#000000" fill-rule="nonzero" fill-opacity="1" /><path clip-path="url(#clip020)" d="M1560.96 1393.62 Q1557.35 1393.62 1555.52 1397.18 Q1553.71 1400.72 1553.71 1407.85 Q1553.71 1414.96 1555.52 1418.53 Q1557.35 1422.07 1560.96 1422.07 Q1564.59 1422.07 1566.4 1418.53 Q1568.22 1414.96 1568.22 1407.85 Q1568.22 1400.72 1566.4 1397.18 Q1564.59 1393.62 1560.96 1393.62 M1560.96 1389.91 Q1566.77 1389.91 1569.82 1394.52 Q1572.9 1399.1 1572.9 1407.85 Q1572.9 1416.58 1569.82 1421.19 Q1566.77 1425.77 1560.96 1425.77 Q1555.15 1425.77 1552.07 1421.19 Q1549.01 1416.58 1549.01 1407.85 Q1549.01 1399.1 1552.07 1394.52 Q1555.15 1389.91 1560.96 1389.91 Z" fill="#000000" fill-rule="nonzero" fill-opacity="1" /><path clip-path="url(#clip020)" d="M1581.12 1419.22 L1586 1419.22 L1586 1425.1 L1581.12 1425.1 L1581.12 1419.22 Z" fill="#000000" fill-rule="nonzero" fill-opacity="1" /><path clip-path="url(#clip020)" d="M1606.77 1405.96 Q1603.62 1405.96 1601.77 1408.11 Q1599.94 1410.26 1599.94 1414.01 Q1599.94 1417.74 1601.77 1419.91 Q1603.62 1422.07 1606.77 1422.07 Q1609.91 1422.07 1611.74 1419.91 Q1613.59 1417.74 1613.59 1414.01 Q1613.59 1410.26 1611.74 1408.11 Q1609.91 1405.96 1606.77 1405.96 M1616.05 1391.3 L1616.05 1395.56 Q1614.29 1394.73 1612.48 1394.29 Q1610.7 1393.85 1608.94 1393.85 Q1604.31 1393.85 1601.86 1396.97 Q1599.43 1400.1 1599.08 1406.42 Q1600.45 1404.41 1602.51 1403.34 Q1604.57 1402.25 1607.04 1402.25 Q1612.25 1402.25 1615.26 1405.42 Q1618.29 1408.57 1618.29 1414.01 Q1618.29 1419.34 1615.15 1422.55 Q1612 1425.77 1606.77 1425.77 Q1600.77 1425.77 1597.6 1421.19 Q1594.43 1416.58 1594.43 1407.85 Q1594.43 1399.66 1598.32 1394.8 Q1602.21 1389.91 1608.76 1389.91 Q1610.52 1389.91 1612.3 1390.26 Q1614.1 1390.61 1616.05 1391.3 Z" fill="#000000" fill-rule="nonzero" fill-opacity="1" /><path clip-path="url(#clip020)" d="M1945.64 1393.62 Q1942.02 1393.62 1940.2 1397.18 Q1938.39 1400.72 1938.39 1407.85 Q1938.39 1414.96 1940.2 1418.53 Q1942.02 1422.07 1945.64 1422.07 Q1949.27 1422.07 1951.07 1418.53 Q1952.9 1414.96 1952.9 1407.85 Q1952.9 1400.72 1951.07 1397.18 Q1949.27 1393.62 1945.64 1393.62 M1945.64 1389.91 Q1951.45 1389.91 1954.5 1394.52 Q1957.58 1399.1 1957.58 1407.85 Q1957.58 1416.58 1954.5 1421.19 Q1951.45 1425.77 1945.64 1425.77 Q1939.82 1425.77 1936.75 1421.19 Q1933.69 1416.58 1933.69 1407.85 Q1933.69 1399.1 1936.75 1394.52 Q1939.82 1389.91 1945.64 1389.91 Z" fill="#000000" fill-rule="nonzero" fill-opacity="1" /><path clip-path="url(#clip020)" d="M1965.8 1419.22 L1970.68 1419.22 L1970.68 1425.1 L1965.8 1425.1 L1965.8 1419.22 Z" fill="#000000" fill-rule="nonzero" fill-opacity="1" /><path clip-path="url(#clip020)" d="M1990.87 1408.69 Q1987.53 1408.69 1985.61 1410.47 Q1983.71 1412.25 1983.71 1415.38 Q1983.71 1418.5 1985.61 1420.29 Q1987.53 1422.07 1990.87 1422.07 Q1994.2 1422.07 1996.12 1420.29 Q1998.04 1418.48 1998.04 1415.38 Q1998.04 1412.25 1996.12 1410.47 Q1994.22 1408.69 1990.87 1408.69 M1986.19 1406.7 Q1983.18 1405.96 1981.49 1403.9 Q1979.82 1401.84 1979.82 1398.87 Q1979.82 1394.73 1982.76 1392.32 Q1985.73 1389.91 1990.87 1389.91 Q1996.03 1389.91 1998.97 1392.32 Q2001.91 1394.73 2001.91 1398.87 Q2001.91 1401.84 2000.22 1403.9 Q1998.55 1405.96 1995.57 1406.7 Q1998.94 1407.48 2000.82 1409.78 Q2002.72 1412.07 2002.72 1415.38 Q2002.72 1420.4 1999.64 1423.09 Q1996.58 1425.77 1990.87 1425.77 Q1985.15 1425.77 1982.07 1423.09 Q1979.01 1420.4 1979.01 1415.38 Q1979.01 1412.07 1980.91 1409.78 Q1982.81 1407.48 1986.19 1406.7 M1984.48 1399.31 Q1984.48 1402 1986.14 1403.5 Q1987.83 1405.01 1990.87 1405.01 Q1993.88 1405.01 1995.57 1403.5 Q1997.28 1402 1997.28 1399.31 Q1997.28 1396.63 1995.57 1395.12 Q1993.88 1393.62 1990.87 1393.62 Q1987.83 1393.62 1986.14 1395.12 Q1984.48 1396.63 1984.48 1399.31 Z" fill="#000000" fill-rule="nonzero" fill-opacity="1" /><path clip-path="url(#clip020)" d="M2319.91 1421.16 L2327.55 1421.16 L2327.55 1394.8 L2319.24 1396.47 L2319.24 1392.21 L2327.5 1390.54 L2332.18 1390.54 L2332.18 1421.16 L2339.82 1421.16 L2339.82 1425.1 L2319.91 1425.1 L2319.91 1421.16 Z" fill="#000000" fill-rule="nonzero" fill-opacity="1" /><path clip-path="url(#clip020)" d="M2349.26 1419.22 L2354.14 1419.22 L2354.14 1425.1 L2349.26 1425.1 L2349.26 1419.22 Z" fill="#000000" fill-rule="nonzero" fill-opacity="1" /><path clip-path="url(#clip020)" d="M2374.33 1393.62 Q2370.72 1393.62 2368.89 1397.18 Q2367.08 1400.72 2367.08 1407.85 Q2367.08 1414.96 2368.89 1418.53 Q2370.72 1422.07 2374.33 1422.07 Q2377.96 1422.07 2379.77 1418.53 Q2381.6 1414.96 2381.6 1407.85 Q2381.6 1400.72 2379.77 1397.18 Q2377.96 1393.62 2374.33 1393.62 M2374.33 1389.91 Q2380.14 1389.91 2383.2 1394.52 Q2386.27 1399.1 2386.27 1407.85 Q2386.27 1416.58 2383.2 1421.19 Q2380.14 1425.77 2374.33 1425.77 Q2368.52 1425.77 2365.44 1421.19 Q2362.39 1416.58 2362.39 1407.85 Q2362.39 1399.1 2365.44 1394.52 Q2368.52 1389.91 2374.33 1389.91 Z" fill="#000000" fill-rule="nonzero" fill-opacity="1" /><path clip-path="url(#clip020)" d="M1423.81 1490.33 Q1423.81 1501.16 1418.24 1511.33 Q1412.75 1521.51 1404.12 1527.66 Q1395.55 1533.8 1386.92 1533.8 Q1377.18 1533.8 1372.13 1523.7 Q1362.98 1560.37 1362.47 1561.33 Q1360.35 1564.47 1357.27 1564.47 Q1355.37 1564.47 1354.2 1563.3 Q1353.03 1562.2 1353.03 1560.45 Q1353.1 1559.86 1353.54 1558.03 L1368.18 1499.11 Q1371.55 1485.42 1381.72 1475.69 Q1391.97 1465.88 1402.95 1465.88 Q1411.66 1465.88 1417.73 1472.39 Q1423.81 1478.91 1423.81 1490.33 M1413.05 1483.89 Q1413.05 1476.57 1410.12 1472.91 Q1407.19 1469.17 1402.65 1469.17 Q1398.48 1469.17 1393.43 1472.54 Q1388.45 1475.91 1384.06 1483.37 Q1381.72 1487.69 1380.04 1493.03 Q1378.35 1498.38 1375.06 1511.55 Q1373.89 1516.82 1373.89 1517.12 Q1373.89 1517.7 1374.18 1519.02 Q1374.55 1520.34 1375.43 1522.39 Q1376.38 1524.36 1377.69 1526.12 Q1379.01 1527.88 1381.43 1529.19 Q1383.84 1530.44 1386.77 1530.44 Q1391.31 1530.44 1396.14 1526.78 Q1401.04 1523.04 1404.63 1516.24 Q1407.63 1510.75 1410.34 1500.43 Q1413.05 1490.03 1413.05 1483.89 Z" fill="#000000" fill-rule="nonzero" fill-opacity="1" /><polyline clip-path="url(#clip020)" style="stroke:#000000; stroke-linecap:round; stroke-linejoin:round; stroke-width:4; stroke-opacity:1; fill:none" points="429.998,1362.7 429.998,47.2441 "/>
<polyline clip-path="url(#clip020)" style="stroke:#000000; stroke-linecap:round; stroke-linejoin:round; stroke-width:4; stroke-opacity:1; fill:none" points="429.998,1327.48 448.896,1327.48 "/>
<polyline clip-path="url(#clip020)" style="stroke:#000000; stroke-linecap:round; stroke-linejoin:round; stroke-width:4; stroke-opacity:1; fill:none" points="429.998,1014.99 448.896,1014.99 "/>
<polyline clip-path="url(#clip020)" style="stroke:#000000; stroke-linecap:round; stroke-linejoin:round; stroke-width:4; stroke-opacity:1; fill:none" points="429.998,702.501 448.896,702.501 "/>
<polyline clip-path="url(#clip020)" style="stroke:#000000; stroke-linecap:round; stroke-linejoin:round; stroke-width:4; stroke-opacity:1; fill:none" points="429.998,390.014 448.896,390.014 "/>
<polyline clip-path="url(#clip020)" style="stroke:#000000; stroke-linecap:round; stroke-linejoin:round; stroke-width:4; stroke-opacity:1; fill:none" points="429.998,77.5269 448.896,77.5269 "/>
<path clip-path="url(#clip020)" d="M382.054 1313.27 Q378.443 1313.27 376.614 1316.84 Q374.809 1320.38 374.809 1327.51 Q374.809 1334.62 376.614 1338.18 Q378.443 1341.72 382.054 1341.72 Q385.688 1341.72 387.494 1338.18 Q389.322 1334.62 389.322 1327.51 Q389.322 1320.38 387.494 1316.84 Q385.688 1313.27 382.054 1313.27 M382.054 1309.57 Q387.864 1309.57 390.92 1314.18 Q393.998 1318.76 393.998 1327.51 Q393.998 1336.24 390.92 1340.84 Q387.864 1345.43 382.054 1345.43 Q376.244 1345.43 373.165 1340.84 Q370.109 1336.24 370.109 1327.51 Q370.109 1318.76 373.165 1314.18 Q376.244 1309.57 382.054 1309.57 Z" fill="#000000" fill-rule="nonzero" fill-opacity="1" /><path clip-path="url(#clip020)" d="M176.198 1004.16 L194.555 1004.16 L194.555 1008.09 L180.481 1008.09 L180.481 1016.56 Q181.499 1016.22 182.518 1016.05 Q183.536 1015.87 184.555 1015.87 Q190.342 1015.87 193.722 1019.04 Q197.101 1022.21 197.101 1027.63 Q197.101 1033.21 193.629 1036.31 Q190.157 1039.39 183.837 1039.39 Q181.661 1039.39 179.393 1039.02 Q177.148 1038.65 174.74 1037.91 L174.74 1033.21 Q176.823 1034.34 179.046 1034.9 Q181.268 1035.45 183.745 1035.45 Q187.749 1035.45 190.087 1033.35 Q192.425 1031.24 192.425 1027.63 Q192.425 1024.02 190.087 1021.91 Q187.749 1019.8 183.745 1019.8 Q181.87 1019.8 179.995 1020.22 Q178.143 1020.64 176.198 1021.52 L176.198 1004.16 Z" fill="#000000" fill-rule="nonzero" fill-opacity="1" /><path clip-path="url(#clip020)" d="M206.314 1032.84 L211.198 1032.84 L211.198 1038.72 L206.314 1038.72 L206.314 1032.84 Z" fill="#000000" fill-rule="nonzero" fill-opacity="1" /><path clip-path="url(#clip020)" d="M231.383 1007.23 Q227.772 1007.23 225.944 1010.8 Q224.138 1014.34 224.138 1021.47 Q224.138 1028.58 225.944 1032.14 Q227.772 1035.68 231.383 1035.68 Q235.018 1035.68 236.823 1032.14 Q238.652 1028.58 238.652 1021.47 Q238.652 1014.34 236.823 1010.8 Q235.018 1007.23 231.383 1007.23 M231.383 1003.53 Q237.194 1003.53 240.249 1008.14 Q243.328 1012.72 243.328 1021.47 Q243.328 1030.2 240.249 1034.8 Q237.194 1039.39 231.383 1039.39 Q225.573 1039.39 222.495 1034.8 Q219.439 1030.2 219.439 1021.47 Q219.439 1012.72 222.495 1008.14 Q225.573 1003.53 231.383 1003.53 Z" fill="#000000" fill-rule="nonzero" fill-opacity="1" /><path clip-path="url(#clip020)" d="M261.545 1007.23 Q257.934 1007.23 256.105 1010.8 Q254.3 1014.34 254.3 1021.47 Q254.3 1028.58 256.105 1032.14 Q257.934 1035.68 261.545 1035.68 Q265.179 1035.68 266.985 1032.14 Q268.814 1028.58 268.814 1021.47 Q268.814 1014.34 266.985 1010.8 Q265.179 1007.23 261.545 1007.23 M261.545 1003.53 Q267.355 1003.53 270.411 1008.14 Q273.49 1012.72 273.49 1021.47 Q273.49 1030.2 270.411 1034.8 Q267.355 1039.39 261.545 1039.39 Q255.735 1039.39 252.656 1034.8 Q249.601 1030.2 249.601 1021.47 Q249.601 1012.72 252.656 1008.14 Q255.735 1003.53 261.545 1003.53 Z" fill="#000000" fill-rule="nonzero" fill-opacity="1" /><path clip-path="url(#clip020)" d="M309.878 1013.25 L299.3 1023.88 L309.878 1034.46 L307.124 1037.26 L296.499 1026.63 L285.874 1037.26 L283.142 1034.46 L293.698 1023.88 L283.142 1013.25 L285.874 1010.45 L296.499 1021.08 L307.124 1010.45 L309.878 1013.25 Z" fill="#000000" fill-rule="nonzero" fill-opacity="1" /><path clip-path="url(#clip020)" d="M322.239 1034.78 L329.878 1034.78 L329.878 1008.42 L321.568 1010.08 L321.568 1005.82 L329.832 1004.16 L334.508 1004.16 L334.508 1034.78 L342.147 1034.78 L342.147 1038.72 L322.239 1038.72 L322.239 1034.78 Z" fill="#000000" fill-rule="nonzero" fill-opacity="1" /><path clip-path="url(#clip020)" d="M361.591 1007.23 Q357.98 1007.23 356.151 1010.8 Q354.346 1014.34 354.346 1021.47 Q354.346 1028.58 356.151 1032.14 Q357.98 1035.68 361.591 1035.68 Q365.225 1035.68 367.031 1032.14 Q368.859 1028.58 368.859 1021.47 Q368.859 1014.34 367.031 1010.8 Q365.225 1007.23 361.591 1007.23 M361.591 1003.53 Q367.401 1003.53 370.457 1008.14 Q373.535 1012.72 373.535 1021.47 Q373.535 1030.2 370.457 1034.8 Q367.401 1039.39 361.591 1039.39 Q355.781 1039.39 352.702 1034.8 Q349.647 1030.2 349.647 1021.47 Q349.647 1012.72 352.702 1008.14 Q355.781 1003.53 361.591 1003.53 Z" fill="#000000" fill-rule="nonzero" fill-opacity="1" /><path clip-path="url(#clip020)" d="M386.212 986.536 L376.62 1001.53 L386.212 1001.53 L386.212 986.536 M385.215 983.226 L389.992 983.226 L389.992 1001.53 L393.998 1001.53 L393.998 1004.69 L389.992 1004.69 L389.992 1011.31 L386.212 1011.31 L386.212 1004.69 L373.535 1004.69 L373.535 1001.02 L385.215 983.226 Z" fill="#000000" fill-rule="nonzero" fill-opacity="1" /><path clip-path="url(#clip020)" d="M179.257 722.294 L186.896 722.294 L186.896 695.928 L178.586 697.595 L178.586 693.335 L186.849 691.669 L191.525 691.669 L191.525 722.294 L199.164 722.294 L199.164 726.229 L179.257 726.229 L179.257 722.294 Z" fill="#000000" fill-rule="nonzero" fill-opacity="1" /><path clip-path="url(#clip020)" d="M208.609 720.349 L213.493 720.349 L213.493 726.229 L208.609 726.229 L208.609 720.349 Z" fill="#000000" fill-rule="nonzero" fill-opacity="1" /><path clip-path="url(#clip020)" d="M233.678 694.747 Q230.067 694.747 228.238 698.312 Q226.433 701.854 226.433 708.984 Q226.433 716.09 228.238 719.655 Q230.067 723.196 233.678 723.196 Q237.312 723.196 239.118 719.655 Q240.946 716.09 240.946 708.984 Q240.946 701.854 239.118 698.312 Q237.312 694.747 233.678 694.747 M233.678 691.044 Q239.488 691.044 242.544 695.65 Q245.622 700.234 245.622 708.984 Q245.622 717.71 242.544 722.317 Q239.488 726.9 233.678 726.9 Q227.868 726.9 224.789 722.317 Q221.734 717.71 221.734 708.984 Q221.734 700.234 224.789 695.65 Q227.868 691.044 233.678 691.044 Z" fill="#000000" fill-rule="nonzero" fill-opacity="1" /><path clip-path="url(#clip020)" d="M263.84 694.747 Q260.229 694.747 258.4 698.312 Q256.594 701.854 256.594 708.984 Q256.594 716.09 258.4 719.655 Q260.229 723.196 263.84 723.196 Q267.474 723.196 269.28 719.655 Q271.108 716.09 271.108 708.984 Q271.108 701.854 269.28 698.312 Q267.474 694.747 263.84 694.747 M263.84 691.044 Q269.65 691.044 272.705 695.65 Q275.784 700.234 275.784 708.984 Q275.784 717.71 272.705 722.317 Q269.65 726.9 263.84 726.9 Q258.03 726.9 254.951 722.317 Q251.895 717.71 251.895 708.984 Q251.895 700.234 254.951 695.65 Q258.03 691.044 263.84 691.044 Z" fill="#000000" fill-rule="nonzero" fill-opacity="1" /><path clip-path="url(#clip020)" d="M312.173 700.766 L301.594 711.391 L312.173 721.97 L309.418 724.77 L298.793 714.146 L288.168 724.77 L285.437 721.97 L295.992 711.391 L285.437 700.766 L288.168 697.965 L298.793 708.59 L309.418 697.965 L312.173 700.766 Z" fill="#000000" fill-rule="nonzero" fill-opacity="1" /><path clip-path="url(#clip020)" d="M324.534 722.294 L332.173 722.294 L332.173 695.928 L323.863 697.595 L323.863 693.335 L332.126 691.669 L336.802 691.669 L336.802 722.294 L344.441 722.294 L344.441 726.229 L324.534 726.229 L324.534 722.294 Z" fill="#000000" fill-rule="nonzero" fill-opacity="1" /><path clip-path="url(#clip020)" d="M363.886 694.747 Q360.274 694.747 358.446 698.312 Q356.64 701.854 356.64 708.984 Q356.64 716.09 358.446 719.655 Q360.274 723.196 363.886 723.196 Q367.52 723.196 369.325 719.655 Q371.154 716.09 371.154 708.984 Q371.154 701.854 369.325 698.312 Q367.52 694.747 363.886 694.747 M363.886 691.044 Q369.696 691.044 372.751 695.65 Q375.83 700.234 375.83 708.984 Q375.83 717.71 372.751 722.317 Q369.696 726.9 363.886 726.9 Q358.075 726.9 354.997 722.317 Q351.941 717.71 351.941 708.984 Q351.941 700.234 354.997 695.65 Q358.075 691.044 363.886 691.044 Z" fill="#000000" fill-rule="nonzero" fill-opacity="1" /><path clip-path="url(#clip020)" d="M377.015 670.738 L391.929 670.738 L391.929 673.936 L380.494 673.936 L380.494 680.819 Q381.322 680.537 382.149 680.406 Q382.977 680.255 383.804 680.255 Q388.506 680.255 391.252 682.832 Q393.998 685.408 393.998 689.809 Q393.998 694.342 391.177 696.862 Q388.356 699.364 383.221 699.364 Q381.453 699.364 379.61 699.063 Q377.786 698.762 375.83 698.16 L375.83 694.342 Q377.523 695.264 379.328 695.715 Q381.134 696.167 383.146 696.167 Q386.4 696.167 388.299 694.455 Q390.199 692.744 390.199 689.809 Q390.199 686.875 388.299 685.164 Q386.4 683.452 383.146 683.452 Q381.623 683.452 380.099 683.791 Q378.595 684.13 377.015 684.844 L377.015 670.738 Z" fill="#000000" fill-rule="nonzero" fill-opacity="1" /><path clip-path="url(#clip020)" d="M179.257 409.807 L186.896 409.807 L186.896 383.441 L178.586 385.108 L178.586 380.848 L186.849 379.182 L191.525 379.182 L191.525 409.807 L199.164 409.807 L199.164 413.742 L179.257 413.742 L179.257 409.807 Z" fill="#000000" fill-rule="nonzero" fill-opacity="1" /><path clip-path="url(#clip020)" d="M208.609 407.862 L213.493 407.862 L213.493 413.742 L208.609 413.742 L208.609 407.862 Z" fill="#000000" fill-rule="nonzero" fill-opacity="1" /><path clip-path="url(#clip020)" d="M223.724 379.182 L242.081 379.182 L242.081 383.117 L228.007 383.117 L228.007 391.589 Q229.025 391.242 230.044 391.08 Q231.062 390.895 232.081 390.895 Q237.868 390.895 241.247 394.066 Q244.627 397.237 244.627 402.654 Q244.627 408.232 241.155 411.334 Q237.683 414.413 231.363 414.413 Q229.187 414.413 226.919 414.043 Q224.673 413.672 222.266 412.931 L222.266 408.232 Q224.349 409.367 226.571 409.922 Q228.794 410.478 231.271 410.478 Q235.275 410.478 237.613 408.371 Q239.951 406.265 239.951 402.654 Q239.951 399.043 237.613 396.936 Q235.275 394.83 231.271 394.83 Q229.396 394.83 227.521 395.246 Q225.669 395.663 223.724 396.543 L223.724 379.182 Z" fill="#000000" fill-rule="nonzero" fill-opacity="1" /><path clip-path="url(#clip020)" d="M263.84 382.26 Q260.229 382.26 258.4 385.825 Q256.594 389.367 256.594 396.496 Q256.594 403.603 258.4 407.168 Q260.229 410.709 263.84 410.709 Q267.474 410.709 269.28 407.168 Q271.108 403.603 271.108 396.496 Q271.108 389.367 269.28 385.825 Q267.474 382.26 263.84 382.26 M263.84 378.557 Q269.65 378.557 272.705 383.163 Q275.784 387.746 275.784 396.496 Q275.784 405.223 272.705 409.83 Q269.65 414.413 263.84 414.413 Q258.03 414.413 254.951 409.83 Q251.895 405.223 251.895 396.496 Q251.895 387.746 254.951 383.163 Q258.03 378.557 263.84 378.557 Z" fill="#000000" fill-rule="nonzero" fill-opacity="1" /><path clip-path="url(#clip020)" d="M312.173 388.279 L301.594 398.904 L312.173 409.482 L309.418 412.283 L298.793 401.658 L288.168 412.283 L285.437 409.482 L295.992 398.904 L285.437 388.279 L288.168 385.478 L298.793 396.103 L309.418 385.478 L312.173 388.279 Z" fill="#000000" fill-rule="nonzero" fill-opacity="1" /><path clip-path="url(#clip020)" d="M324.534 409.807 L332.173 409.807 L332.173 383.441 L323.863 385.108 L323.863 380.848 L332.126 379.182 L336.802 379.182 L336.802 409.807 L344.441 409.807 L344.441 413.742 L324.534 413.742 L324.534 409.807 Z" fill="#000000" fill-rule="nonzero" fill-opacity="1" /><path clip-path="url(#clip020)" d="M363.886 382.26 Q360.274 382.26 358.446 385.825 Q356.64 389.367 356.64 396.496 Q356.64 403.603 358.446 407.168 Q360.274 410.709 363.886 410.709 Q367.52 410.709 369.325 407.168 Q371.154 403.603 371.154 396.496 Q371.154 389.367 369.325 385.825 Q367.52 382.26 363.886 382.26 M363.886 378.557 Q369.696 378.557 372.751 383.163 Q375.83 387.746 375.83 396.496 Q375.83 405.223 372.751 409.83 Q369.696 414.413 363.886 414.413 Q358.075 414.413 354.997 409.83 Q351.941 405.223 351.941 396.496 Q351.941 387.746 354.997 383.163 Q358.075 378.557 363.886 378.557 Z" fill="#000000" fill-rule="nonzero" fill-opacity="1" /><path clip-path="url(#clip020)" d="M377.015 358.251 L391.929 358.251 L391.929 361.449 L380.494 361.449 L380.494 368.332 Q381.322 368.05 382.149 367.918 Q382.977 367.768 383.804 367.768 Q388.506 367.768 391.252 370.345 Q393.998 372.921 393.998 377.322 Q393.998 381.855 391.177 384.375 Q388.356 386.877 383.221 386.877 Q381.453 386.877 379.61 386.576 Q377.786 386.275 375.83 385.673 L375.83 381.855 Q377.523 382.777 379.328 383.228 Q381.134 383.679 383.146 383.679 Q386.4 383.679 388.299 381.968 Q390.199 380.256 390.199 377.322 Q390.199 374.388 388.299 372.677 Q386.4 370.965 383.146 370.965 Q381.623 370.965 380.099 371.304 Q378.595 371.642 377.015 372.357 L377.015 358.251 Z" fill="#000000" fill-rule="nonzero" fill-opacity="1" /><path clip-path="url(#clip020)" d="M182.474 97.3194 L198.794 97.3194 L198.794 101.255 L176.85 101.255 L176.85 97.3194 Q179.512 94.5648 184.095 89.9352 Q188.701 85.2824 189.882 83.9398 Q192.127 81.4167 193.007 79.6806 Q193.91 77.9213 193.91 76.2315 Q193.91 73.4769 191.965 71.7408 Q190.044 70.0047 186.942 70.0047 Q184.743 70.0047 182.289 70.7686 Q179.859 71.5325 177.081 73.0834 L177.081 68.3612 Q179.905 67.227 182.359 66.6483 Q184.812 66.0696 186.849 66.0696 Q192.22 66.0696 195.414 68.7547 Q198.609 71.4399 198.609 75.9306 Q198.609 78.0602 197.798 79.9815 Q197.011 81.8797 194.905 84.4722 Q194.326 85.1435 191.224 88.3611 Q188.123 91.5555 182.474 97.3194 Z" fill="#000000" fill-rule="nonzero" fill-opacity="1" /><path clip-path="url(#clip020)" d="M208.609 95.3749 L213.493 95.3749 L213.493 101.255 L208.609 101.255 L208.609 95.3749 Z" fill="#000000" fill-rule="nonzero" fill-opacity="1" /><path clip-path="url(#clip020)" d="M233.678 69.7732 Q230.067 69.7732 228.238 73.338 Q226.433 76.8797 226.433 84.0093 Q226.433 91.1157 228.238 94.6805 Q230.067 98.2222 233.678 98.2222 Q237.312 98.2222 239.118 94.6805 Q240.946 91.1157 240.946 84.0093 Q240.946 76.8797 239.118 73.338 Q237.312 69.7732 233.678 69.7732 M233.678 66.0696 Q239.488 66.0696 242.544 70.676 Q245.622 75.2593 245.622 84.0093 Q245.622 92.7361 242.544 97.3425 Q239.488 101.926 233.678 101.926 Q227.868 101.926 224.789 97.3425 Q221.734 92.7361 221.734 84.0093 Q221.734 75.2593 224.789 70.676 Q227.868 66.0696 233.678 66.0696 Z" fill="#000000" fill-rule="nonzero" fill-opacity="1" /><path clip-path="url(#clip020)" d="M263.84 69.7732 Q260.229 69.7732 258.4 73.338 Q256.594 76.8797 256.594 84.0093 Q256.594 91.1157 258.4 94.6805 Q260.229 98.2222 263.84 98.2222 Q267.474 98.2222 269.28 94.6805 Q271.108 91.1157 271.108 84.0093 Q271.108 76.8797 269.28 73.338 Q267.474 69.7732 263.84 69.7732 M263.84 66.0696 Q269.65 66.0696 272.705 70.676 Q275.784 75.2593 275.784 84.0093 Q275.784 92.7361 272.705 97.3425 Q269.65 101.926 263.84 101.926 Q258.03 101.926 254.951 97.3425 Q251.895 92.7361 251.895 84.0093 Q251.895 75.2593 254.951 70.676 Q258.03 66.0696 263.84 66.0696 Z" fill="#000000" fill-rule="nonzero" fill-opacity="1" /><path clip-path="url(#clip020)" d="M312.173 75.7917 L301.594 86.4167 L312.173 96.9953 L309.418 99.7962 L298.793 89.1713 L288.168 99.7962 L285.437 96.9953 L295.992 86.4167 L285.437 75.7917 L288.168 72.9908 L298.793 83.6158 L309.418 72.9908 L312.173 75.7917 Z" fill="#000000" fill-rule="nonzero" fill-opacity="1" /><path clip-path="url(#clip020)" d="M324.534 97.3194 L332.173 97.3194 L332.173 70.9538 L323.863 72.6204 L323.863 68.3612 L332.126 66.6945 L336.802 66.6945 L336.802 97.3194 L344.441 97.3194 L344.441 101.255 L324.534 101.255 L324.534 97.3194 Z" fill="#000000" fill-rule="nonzero" fill-opacity="1" /><path clip-path="url(#clip020)" d="M363.886 69.7732 Q360.274 69.7732 358.446 73.338 Q356.64 76.8797 356.64 84.0093 Q356.64 91.1157 358.446 94.6805 Q360.274 98.2222 363.886 98.2222 Q367.52 98.2222 369.325 94.6805 Q371.154 91.1157 371.154 84.0093 Q371.154 76.8797 369.325 73.338 Q367.52 69.7732 363.886 69.7732 M363.886 66.0696 Q369.696 66.0696 372.751 70.676 Q375.83 75.2593 375.83 84.0093 Q375.83 92.7361 372.751 97.3425 Q369.696 101.926 363.886 101.926 Q358.075 101.926 354.997 97.3425 Q351.941 92.7361 351.941 84.0093 Q351.941 75.2593 354.997 70.676 Q358.075 66.0696 363.886 66.0696 Z" fill="#000000" fill-rule="nonzero" fill-opacity="1" /><path clip-path="url(#clip020)" d="M377.015 45.7641 L391.929 45.7641 L391.929 48.9615 L380.494 48.9615 L380.494 55.8451 Q381.322 55.563 382.149 55.4313 Q382.977 55.2809 383.804 55.2809 Q388.506 55.2809 391.252 57.8575 Q393.998 60.4342 393.998 64.8352 Q393.998 69.3679 391.177 71.8881 Q388.356 74.3896 383.221 74.3896 Q381.453 74.3896 379.61 74.0886 Q377.786 73.7877 375.83 73.1859 L375.83 69.3679 Q377.523 70.2895 379.328 70.7409 Q381.134 71.1923 383.146 71.1923 Q386.4 71.1923 388.299 69.4807 Q390.199 67.7692 390.199 64.8352 Q390.199 61.9012 388.299 60.1897 Q386.4 58.4782 383.146 58.4782 Q381.623 58.4782 380.099 58.8167 Q378.595 59.1553 377.015 59.87 L377.015 45.7641 Z" fill="#000000" fill-rule="nonzero" fill-opacity="1" /><path clip-path="url(#clip020)" d="M148.533 816.536 L-1.37039 816.536 L-1.37039 793.919 L2.06978 793.919 L2.06978 806.509 L145.093 806.509 L145.093 793.919 L148.533 793.919 L148.533 816.536 Z" fill="#000000" fill-rule="nonzero" fill-opacity="1" /><path clip-path="url(#clip020)" d="M111.057 775.287 L106.446 775.287 L106.446 771.7 Q106.446 763.576 105.129 761.746 Q103.738 759.843 99.3461 759.843 L20.3686 759.843 Q16.0501 759.843 14.7325 761.746 Q13.3418 763.649 13.3418 771.7 L13.3418 775.287 L8.65734 775.287 L8.65734 722.367 Q8.65734 707.215 17.0016 697.115 Q25.3458 687.014 36.5447 687.014 Q47.6704 687.014 55.7218 697.334 Q63.7001 707.581 63.7001 721.196 L63.7001 746.521 L99.3461 746.521 Q103.665 746.521 105.055 744.691 Q106.446 742.788 106.446 734.664 L106.446 731.077 L111.057 731.077 Q110.618 736.347 110.618 753.255 Q110.618 770.017 111.057 775.287 M59.8207 746.96 L59.8207 726.319 Q59.8207 719.585 57.9177 714.681 Q56.0146 709.777 53.7456 707.581 Q51.4033 705.312 47.6704 704.068 Q43.8642 702.751 41.8147 702.604 Q39.6921 702.458 36.5447 702.458 Q33.2509 702.458 31.2014 702.604 Q29.0788 702.751 25.3458 704.068 Q21.5397 705.312 19.2706 707.581 Q16.9284 709.777 15.1717 714.681 Q13.3418 719.512 13.3418 726.319 L13.3418 739.641 Q13.3418 744.765 14.3666 745.863 Q15.3913 746.96 19.3438 746.96 L59.8207 746.96 Z" fill="#000000" fill-rule="nonzero" fill-opacity="1" /><path clip-path="url(#clip020)" d="M96.7843 661.8 Q84.0483 661.8 77.3144 646.795 Q72.9959 637.792 71.8979 619.2 L66.4083 619.2 Q57.1125 619.2 52.2085 624.104 Q47.2312 628.935 47.2312 635.083 Q47.2312 646.063 54.1115 651.333 Q54.2579 646.868 56.527 645.257 Q58.7228 643.647 60.9919 643.647 Q63.9929 643.647 65.9691 645.55 Q67.8722 647.38 67.8722 650.528 Q67.8722 653.529 66.0423 655.505 Q64.1393 657.481 60.8455 657.481 Q53.526 657.481 48.6951 650.894 Q43.8642 644.233 43.8642 634.791 Q43.8642 622.494 52.1353 614.296 Q54.6971 611.734 57.9909 610.49 Q61.2847 609.172 63.4805 609.026 Q65.6032 608.88 69.8485 608.88 L99.7853 608.88 Q100.664 608.88 102.128 608.587 Q103.591 608.294 105.495 606.976 Q107.324 605.586 107.324 603.317 Q107.324 597.9 97.7358 597.973 L89.3184 597.973 L89.3184 594.167 L97.7358 594.167 Q105.714 594.167 108.861 598.413 Q111.936 602.585 111.936 606.464 Q111.936 611.441 108.276 614.589 Q104.616 617.736 99.6389 618.175 Q105.348 620.444 109.081 625.641 Q112.741 630.765 112.741 637.792 Q112.741 643.208 111.35 648.332 Q110.033 653.382 106.3 657.627 Q102.494 661.8 96.7843 661.8 M96.6379 650.235 Q102.201 650.235 105.787 646.282 Q109.374 642.33 109.374 636.767 Q109.374 630.472 104.543 624.836 Q99.6389 619.2 90.0503 619.2 L75.0453 619.2 Q75.6309 635.815 82.2917 643.062 Q88.8792 650.235 96.6379 650.235 Z" fill="#000000" fill-rule="nonzero" fill-opacity="1" /><path clip-path="url(#clip020)" d="M145.093 587.565 L145.093 574.976 L2.06978 574.976 L2.06978 587.565 L-1.37039 587.565 L-1.37039 564.948 L148.533 564.948 L148.533 587.565 L145.093 587.565 Z" fill="#000000" fill-rule="nonzero" fill-opacity="1" /><polyline clip-path="url(#clip022)" style="stroke:#ff0000; stroke-linecap:round; stroke-linejoin:round; stroke-width:8; stroke-opacity:1; fill:none" points="429.998,1213.63 449.226,1213.42 468.453,1212.77 487.681,1211.68 506.909,1210.14 526.136,1208.13 545.364,1205.63 564.591,1202.59 583.819,1199 603.046,1194.81 622.274,1189.95 641.502,1184.37 660.729,1177.99 679.957,1170.74 699.184,1162.5 718.412,1153.16 737.639,1142.59 756.867,1130.61 776.095,1117.05 795.322,1101.69 814.55,1084.25 833.777,1064.45 853.005,1041.92 872.233,1016.24 891.46,986.906 910.688,953.335 929.915,914.82 949.143,870.524 968.37,819.446 987.598,760.384 1006.83,691.907 1026.05,617.784 1045.28,544.008 1064.51,472.412 1083.74,404.942 1102.96,343.559 1122.19,290.152 1141.42,246.441 1160.65,213.885 1179.87,193.604 1199.1,186.309 1218.33,185.008 1237.56,182.452 1256.78,178.631 1276.01,173.529 1295.24,167.13 1314.47,159.41 1333.69,150.342 1352.92,139.893 1372.15,128.027 1391.38,114.701 1410.6,102.213 1429.83,92.9618 1449.06,87.0305 1468.29,84.474 1487.51,85.3174 1506.74,89.5555 1525.97,97.1531 1545.2,108.045 1564.43,122.139 1583.65,139.314 1602.88,157.884 1622.11,176.255 1641.34,194.419 1660.56,212.372 1679.79,230.106 1699.02,247.617 1718.25,264.898 1737.47,281.942 1756.7,298.743 1775.93,315.296 1795.16,331.445 1814.38,347.057 1833.61,362.157 1852.84,376.765 1872.07,390.902 1891.29,404.589 1910.52,417.842 1929.75,430.681 1948.98,443.122 1968.2,455.18 1987.43,466.376 2006.66,476.838 2025.89,486.584 2045.11,495.667 2064.34,504.199 2083.57,512.398 2102.8,520.659 2122.02,529.69 2141.25,540.749 2160.48,556.049 2179.71,579.39 2198.94,616.935 2218.16,677.797 2237.39,770.244 2256.62,891.408 2275.85,1032.98 2295.07,1163.25 2314.3,1254.55 2333.53,1303.87 2352.76,1325.47 "/>
</svg>
