<?xml version="1.0" encoding="utf-8"?>
<svg xmlns="http://www.w3.org/2000/svg" xmlns:xlink="http://www.w3.org/1999/xlink" width="600" height="400" viewBox="0 0 2400 1600">
<defs>
  <clipPath id="clip900">
    <rect x="0" y="0" width="2400" height="1600"/>
  </clipPath>
</defs>
<path clip-path="url(#clip900)" d="M0 1600 L2400 1600 L2400 0 L0 0  Z" fill="#ffffff" fill-rule="evenodd" fill-opacity="1"/>
<defs>
  <clipPath id="clip901">
    <rect x="480" y="0" width="1681" height="1600"/>
  </clipPath>
</defs>
<path clip-path="url(#clip900)" d="M306.25 1486.45 L2352.76 1486.45 L2352.76 47.2441 L306.25 47.2441  Z" fill="#ffffff" fill-rule="evenodd" fill-opacity="1"/>
<defs>
  <clipPath id="clip902">
    <rect x="306" y="47" width="2048" height="1440"/>
  </clipPath>
</defs>
<polyline clip-path="url(#clip902)" style="stroke:#000000; stroke-linecap:round; stroke-linejoin:round; stroke-width:2; stroke-opacity:0.1; fill:none" points="344.864,1486.45 344.864,47.2441 "/>
<polyline clip-path="url(#clip902)" style="stroke:#000000; stroke-linecap:round; stroke-linejoin:round; stroke-width:2; stroke-opacity:0.1; fill:none" points="827.53,1486.45 827.53,47.2441 "/>
<polyline clip-path="url(#clip902)" style="stroke:#000000; stroke-linecap:round; stroke-linejoin:round; stroke-width:2; stroke-opacity:0.1; fill:none" points="1310.2,1486.45 1310.2,47.2441 "/>
<polyline clip-path="url(#clip902)" style="stroke:#000000; stroke-linecap:round; stroke-linejoin:round; stroke-width:2; stroke-opacity:0.1; fill:none" points="1792.86,1486.45 1792.86,47.2441 "/>
<polyline clip-path="url(#clip902)" style="stroke:#000000; stroke-linecap:round; stroke-linejoin:round; stroke-width:2; stroke-opacity:0.1; fill:none" points="2275.53,1486.45 2275.53,47.2441 "/>
<polyline clip-path="url(#clip902)" style="stroke:#000000; stroke-linecap:round; stroke-linejoin:round; stroke-width:2; stroke-opacity:0.1; fill:none" points="306.25,1447.91 2352.76,1447.91 "/>
<polyline clip-path="url(#clip902)" style="stroke:#000000; stroke-linecap:round; stroke-linejoin:round; stroke-width:2; stroke-opacity:0.1; fill:none" points="306.25,1106.03 2352.76,1106.03 "/>
<polyline clip-path="url(#clip902)" style="stroke:#000000; stroke-linecap:round; stroke-linejoin:round; stroke-width:2; stroke-opacity:0.1; fill:none" points="306.25,764.143 2352.76,764.143 "/>
<polyline clip-path="url(#clip902)" style="stroke:#000000; stroke-linecap:round; stroke-linejoin:round; stroke-width:2; stroke-opacity:0.1; fill:none" points="306.25,422.259 2352.76,422.259 "/>
<polyline clip-path="url(#clip902)" style="stroke:#000000; stroke-linecap:round; stroke-linejoin:round; stroke-width:2; stroke-opacity:0.1; fill:none" points="306.25,80.3757 2352.76,80.3757 "/>
<polyline clip-path="url(#clip900)" style="stroke:#000000; stroke-linecap:round; stroke-linejoin:round; stroke-width:4; stroke-opacity:1; fill:none" points="306.25,1486.45 2352.76,1486.45 "/>
<polyline clip-path="url(#clip900)" style="stroke:#000000; stroke-linecap:round; stroke-linejoin:round; stroke-width:4; stroke-opacity:1; fill:none" points="344.864,1486.45 344.864,1467.55 "/>
<polyline clip-path="url(#clip900)" style="stroke:#000000; stroke-linecap:round; stroke-linejoin:round; stroke-width:4; stroke-opacity:1; fill:none" points="827.53,1486.45 827.53,1467.55 "/>
<polyline clip-path="url(#clip900)" style="stroke:#000000; stroke-linecap:round; stroke-linejoin:round; stroke-width:4; stroke-opacity:1; fill:none" points="1310.2,1486.45 1310.2,1467.55 "/>
<polyline clip-path="url(#clip900)" style="stroke:#000000; stroke-linecap:round; stroke-linejoin:round; stroke-width:4; stroke-opacity:1; fill:none" points="1792.86,1486.45 1792.86,1467.55 "/>
<polyline clip-path="url(#clip900)" style="stroke:#000000; stroke-linecap:round; stroke-linejoin:round; stroke-width:4; stroke-opacity:1; fill:none" points="2275.53,1486.45 2275.53,1467.55 "/>
<path clip-path="url(#clip900)" d="M344.864 1517.37 Q341.252 1517.37 339.424 1520.93 Q337.618 1524.47 337.618 1531.6 Q337.618 1538.71 339.424 1542.27 Q341.252 1545.82 344.864 1545.82 Q348.498 1545.82 350.303 1542.27 Q352.132 1538.71 352.132 1531.6 Q352.132 1524.47 350.303 1520.93 Q348.498 1517.37 344.864 1517.37 M344.864 1513.66 Q350.674 1513.66 353.729 1518.27 Q356.808 1522.85 356.808 1531.6 Q356.808 1540.33 353.729 1544.94 Q350.674 1549.52 344.864 1549.52 Q339.053 1549.52 335.975 1544.94 Q332.919 1540.33 332.919 1531.6 Q332.919 1522.85 335.975 1518.27 Q339.053 1513.66 344.864 1513.66 Z" fill="#000000" fill-rule="nonzero" fill-opacity="1" /><path clip-path="url(#clip900)" d="M806.801 1544.91 L823.12 1544.91 L823.12 1548.85 L801.176 1548.85 L801.176 1544.91 Q803.838 1542.16 808.421 1537.53 Q813.028 1532.88 814.208 1531.53 Q816.454 1529.01 817.333 1527.27 Q818.236 1525.51 818.236 1523.82 Q818.236 1521.07 816.292 1519.33 Q814.37 1517.6 811.268 1517.6 Q809.069 1517.6 806.616 1518.36 Q804.185 1519.13 801.407 1520.68 L801.407 1515.95 Q804.231 1514.82 806.685 1514.24 Q809.139 1513.66 811.176 1513.66 Q816.546 1513.66 819.741 1516.35 Q822.935 1519.03 822.935 1523.52 Q822.935 1525.65 822.125 1527.57 Q821.338 1529.47 819.231 1532.07 Q818.653 1532.74 815.551 1535.95 Q812.449 1539.15 806.801 1544.91 Z" fill="#000000" fill-rule="nonzero" fill-opacity="1" /><path clip-path="url(#clip900)" d="M832.981 1514.29 L851.338 1514.29 L851.338 1518.22 L837.264 1518.22 L837.264 1526.7 Q838.282 1526.35 839.301 1526.19 Q840.319 1526 841.338 1526 Q847.125 1526 850.504 1529.17 Q853.884 1532.34 853.884 1537.76 Q853.884 1543.34 850.412 1546.44 Q846.94 1549.52 840.62 1549.52 Q838.444 1549.52 836.176 1549.15 Q833.93 1548.78 831.523 1548.04 L831.523 1543.34 Q833.606 1544.47 835.829 1545.03 Q838.051 1545.58 840.528 1545.58 Q844.532 1545.58 846.87 1543.48 Q849.208 1541.37 849.208 1537.76 Q849.208 1534.15 846.87 1532.04 Q844.532 1529.94 840.528 1529.94 Q838.653 1529.94 836.778 1530.35 Q834.926 1530.77 832.981 1531.65 L832.981 1514.29 Z" fill="#000000" fill-rule="nonzero" fill-opacity="1" /><path clip-path="url(#clip900)" d="M1284.9 1514.29 L1303.25 1514.29 L1303.25 1518.22 L1289.18 1518.22 L1289.18 1526.7 Q1290.2 1526.35 1291.22 1526.19 Q1292.23 1526 1293.25 1526 Q1299.04 1526 1302.42 1529.17 Q1305.8 1532.34 1305.8 1537.76 Q1305.8 1543.34 1302.33 1546.44 Q1298.85 1549.52 1292.53 1549.52 Q1290.36 1549.52 1288.09 1549.15 Q1285.84 1548.78 1283.44 1548.04 L1283.44 1543.34 Q1285.52 1544.47 1287.74 1545.03 Q1289.97 1545.58 1292.44 1545.58 Q1296.45 1545.58 1298.78 1543.48 Q1301.12 1541.37 1301.12 1537.76 Q1301.12 1534.15 1298.78 1532.04 Q1296.45 1529.94 1292.44 1529.94 Q1290.57 1529.94 1288.69 1530.35 Q1286.84 1530.77 1284.9 1531.65 L1284.9 1514.29 Z" fill="#000000" fill-rule="nonzero" fill-opacity="1" /><path clip-path="url(#clip900)" d="M1325.01 1517.37 Q1321.4 1517.37 1319.57 1520.93 Q1317.77 1524.47 1317.77 1531.6 Q1317.77 1538.71 1319.57 1542.27 Q1321.4 1545.82 1325.01 1545.82 Q1328.65 1545.82 1330.45 1542.27 Q1332.28 1538.71 1332.28 1531.6 Q1332.28 1524.47 1330.45 1520.93 Q1328.65 1517.37 1325.01 1517.37 M1325.01 1513.66 Q1330.82 1513.66 1333.88 1518.27 Q1336.96 1522.85 1336.96 1531.6 Q1336.96 1540.33 1333.88 1544.94 Q1330.82 1549.52 1325.01 1549.52 Q1319.2 1549.52 1316.12 1544.94 Q1313.07 1540.33 1313.07 1531.6 Q1313.07 1522.85 1316.12 1518.27 Q1319.2 1513.66 1325.01 1513.66 Z" fill="#000000" fill-rule="nonzero" fill-opacity="1" /><path clip-path="url(#clip900)" d="M1766.72 1514.29 L1788.94 1514.29 L1788.94 1516.28 L1776.39 1548.85 L1771.51 1548.85 L1783.31 1518.22 L1766.72 1518.22 L1766.72 1514.29 Z" fill="#000000" fill-rule="nonzero" fill-opacity="1" /><path clip-path="url(#clip900)" d="M1798.11 1514.29 L1816.46 1514.29 L1816.46 1518.22 L1802.39 1518.22 L1802.39 1526.7 Q1803.41 1526.35 1804.43 1526.19 Q1805.44 1526 1806.46 1526 Q1812.25 1526 1815.63 1529.17 Q1819.01 1532.34 1819.01 1537.76 Q1819.01 1543.34 1815.54 1546.44 Q1812.06 1549.52 1805.74 1549.52 Q1803.57 1549.52 1801.3 1549.15 Q1799.05 1548.78 1796.65 1548.04 L1796.65 1543.34 Q1798.73 1544.47 1800.95 1545.03 Q1803.18 1545.58 1805.65 1545.58 Q1809.66 1545.58 1811.99 1543.48 Q1814.33 1541.37 1814.33 1537.76 Q1814.33 1534.15 1811.99 1532.04 Q1809.66 1529.94 1805.65 1529.94 Q1803.78 1529.94 1801.9 1530.35 Q1800.05 1530.77 1798.11 1531.65 L1798.11 1514.29 Z" fill="#000000" fill-rule="nonzero" fill-opacity="1" /><path clip-path="url(#clip900)" d="M2235.14 1544.91 L2242.77 1544.91 L2242.77 1518.55 L2234.46 1520.21 L2234.46 1515.95 L2242.73 1514.29 L2247.4 1514.29 L2247.4 1544.91 L2255.04 1544.91 L2255.04 1548.85 L2235.14 1548.85 L2235.14 1544.91 Z" fill="#000000" fill-rule="nonzero" fill-opacity="1" /><path clip-path="url(#clip900)" d="M2274.49 1517.37 Q2270.88 1517.37 2269.05 1520.93 Q2267.24 1524.47 2267.24 1531.6 Q2267.24 1538.71 2269.05 1542.27 Q2270.88 1545.82 2274.49 1545.82 Q2278.12 1545.82 2279.93 1542.27 Q2281.76 1538.71 2281.76 1531.6 Q2281.76 1524.47 2279.93 1520.93 Q2278.12 1517.37 2274.49 1517.37 M2274.49 1513.66 Q2280.3 1513.66 2283.35 1518.27 Q2286.43 1522.85 2286.43 1531.6 Q2286.43 1540.33 2283.35 1544.94 Q2280.3 1549.52 2274.49 1549.52 Q2268.68 1549.52 2265.6 1544.94 Q2262.54 1540.33 2262.54 1531.6 Q2262.54 1522.85 2265.6 1518.27 Q2268.68 1513.66 2274.49 1513.66 Z" fill="#000000" fill-rule="nonzero" fill-opacity="1" /><path clip-path="url(#clip900)" d="M2304.65 1517.37 Q2301.04 1517.37 2299.21 1520.93 Q2297.4 1524.47 2297.4 1531.6 Q2297.4 1538.71 2299.21 1542.27 Q2301.04 1545.82 2304.65 1545.82 Q2308.28 1545.82 2310.09 1542.27 Q2311.92 1538.71 2311.92 1531.6 Q2311.92 1524.47 2310.09 1520.93 Q2308.28 1517.37 2304.65 1517.37 M2304.65 1513.66 Q2310.46 1513.66 2313.52 1518.27 Q2316.59 1522.85 2316.59 1531.6 Q2316.59 1540.33 2313.52 1544.94 Q2310.46 1549.52 2304.65 1549.52 Q2298.84 1549.52 2295.76 1544.94 Q2292.71 1540.33 2292.71 1531.6 Q2292.71 1522.85 2295.76 1518.27 Q2298.84 1513.66 2304.65 1513.66 Z" fill="#000000" fill-rule="nonzero" fill-opacity="1" /><polyline clip-path="url(#clip900)" style="stroke:#000000; stroke-linecap:round; stroke-linejoin:round; stroke-width:4; stroke-opacity:1; fill:none" points="306.25,1486.45 306.25,47.2441 "/>
<polyline clip-path="url(#clip900)" style="stroke:#000000; stroke-linecap:round; stroke-linejoin:round; stroke-width:4; stroke-opacity:1; fill:none" points="306.25,1447.91 325.148,1447.91 "/>
<polyline clip-path="url(#clip900)" style="stroke:#000000; stroke-linecap:round; stroke-linejoin:round; stroke-width:4; stroke-opacity:1; fill:none" points="306.25,1106.03 325.148,1106.03 "/>
<polyline clip-path="url(#clip900)" style="stroke:#000000; stroke-linecap:round; stroke-linejoin:round; stroke-width:4; stroke-opacity:1; fill:none" points="306.25,764.143 325.148,764.143 "/>
<polyline clip-path="url(#clip900)" style="stroke:#000000; stroke-linecap:round; stroke-linejoin:round; stroke-width:4; stroke-opacity:1; fill:none" points="306.25,422.259 325.148,422.259 "/>
<polyline clip-path="url(#clip900)" style="stroke:#000000; stroke-linecap:round; stroke-linejoin:round; stroke-width:4; stroke-opacity:1; fill:none" points="306.25,80.3757 325.148,80.3757 "/>
<path clip-path="url(#clip900)" d="M258.306 1433.71 Q254.695 1433.71 252.866 1437.27 Q251.06 1440.82 251.06 1447.94 Q251.06 1455.05 252.866 1458.62 Q254.695 1462.16 258.306 1462.16 Q261.94 1462.16 263.746 1458.62 Q265.574 1455.05 265.574 1447.94 Q265.574 1440.82 263.746 1437.27 Q261.94 1433.71 258.306 1433.71 M258.306 1430 Q264.116 1430 267.172 1434.61 Q270.25 1439.19 270.25 1447.94 Q270.25 1456.67 267.172 1461.28 Q264.116 1465.86 258.306 1465.86 Q252.496 1465.86 249.417 1461.28 Q246.361 1456.67 246.361 1447.94 Q246.361 1439.19 249.417 1434.61 Q252.496 1430 258.306 1430 Z" fill="#000000" fill-rule="nonzero" fill-opacity="1" /><path clip-path="url(#clip900)" d="M52.4505 1095.19 L70.8068 1095.19 L70.8068 1099.13 L56.7328 1099.13 L56.7328 1107.6 Q57.7513 1107.25 58.7699 1107.09 Q59.7884 1106.91 60.8069 1106.91 Q66.5939 1106.91 69.9735 1110.08 Q73.3531 1113.25 73.3531 1118.67 Q73.3531 1124.24 69.8809 1127.35 Q66.4087 1130.43 60.0893 1130.43 Q57.9134 1130.43 55.6449 1130.05 Q53.3995 1129.68 50.9921 1128.94 L50.9921 1124.24 Q53.0754 1125.38 55.2977 1125.93 Q57.5199 1126.49 59.9967 1126.49 Q64.0013 1126.49 66.3393 1124.38 Q68.6772 1122.28 68.6772 1118.67 Q68.6772 1115.05 66.3393 1112.95 Q64.0013 1110.84 59.9967 1110.84 Q58.1217 1110.84 56.2467 1111.26 Q54.3949 1111.68 52.4505 1112.55 L52.4505 1095.19 Z" fill="#000000" fill-rule="nonzero" fill-opacity="1" /><path clip-path="url(#clip900)" d="M82.566 1123.87 L87.4503 1123.87 L87.4503 1129.75 L82.566 1129.75 L82.566 1123.87 Z" fill="#000000" fill-rule="nonzero" fill-opacity="1" /><path clip-path="url(#clip900)" d="M107.635 1098.27 Q104.024 1098.27 102.196 1101.84 Q100.39 1105.38 100.39 1112.51 Q100.39 1119.62 102.196 1123.18 Q104.024 1126.72 107.635 1126.72 Q111.27 1126.72 113.075 1123.18 Q114.904 1119.62 114.904 1112.51 Q114.904 1105.38 113.075 1101.84 Q111.27 1098.27 107.635 1098.27 M107.635 1094.57 Q113.445 1094.57 116.501 1099.18 Q119.58 1103.76 119.58 1112.51 Q119.58 1121.24 116.501 1125.84 Q113.445 1130.43 107.635 1130.43 Q101.825 1130.43 98.7465 1125.84 Q95.691 1121.24 95.691 1112.51 Q95.691 1103.76 98.7465 1099.18 Q101.825 1094.57 107.635 1094.57 Z" fill="#000000" fill-rule="nonzero" fill-opacity="1" /><path clip-path="url(#clip900)" d="M137.797 1098.27 Q134.186 1098.27 132.357 1101.84 Q130.552 1105.38 130.552 1112.51 Q130.552 1119.62 132.357 1123.18 Q134.186 1126.72 137.797 1126.72 Q141.431 1126.72 143.237 1123.18 Q145.066 1119.62 145.066 1112.51 Q145.066 1105.38 143.237 1101.84 Q141.431 1098.27 137.797 1098.27 M137.797 1094.57 Q143.607 1094.57 146.663 1099.18 Q149.742 1103.76 149.742 1112.51 Q149.742 1121.24 146.663 1125.84 Q143.607 1130.43 137.797 1130.43 Q131.987 1130.43 128.908 1125.84 Q125.853 1121.24 125.853 1112.51 Q125.853 1103.76 128.908 1099.18 Q131.987 1094.57 137.797 1094.57 Z" fill="#000000" fill-rule="nonzero" fill-opacity="1" /><path clip-path="url(#clip900)" d="M186.13 1104.29 L175.552 1114.92 L186.13 1125.49 L183.376 1128.3 L172.751 1117.67 L162.126 1128.3 L159.394 1125.49 L169.95 1114.92 L159.394 1104.29 L162.126 1101.49 L172.751 1112.12 L183.376 1101.49 L186.13 1104.29 Z" fill="#000000" fill-rule="nonzero" fill-opacity="1" /><path clip-path="url(#clip900)" d="M198.491 1125.82 L206.13 1125.82 L206.13 1099.45 L197.82 1101.12 L197.82 1096.86 L206.084 1095.19 L210.76 1095.19 L210.76 1125.82 L218.399 1125.82 L218.399 1129.75 L198.491 1129.75 L198.491 1125.82 Z" fill="#000000" fill-rule="nonzero" fill-opacity="1" /><path clip-path="url(#clip900)" d="M237.843 1098.27 Q234.232 1098.27 232.403 1101.84 Q230.598 1105.38 230.598 1112.51 Q230.598 1119.62 232.403 1123.18 Q234.232 1126.72 237.843 1126.72 Q241.477 1126.72 243.283 1123.18 Q245.111 1119.62 245.111 1112.51 Q245.111 1105.38 243.283 1101.84 Q241.477 1098.27 237.843 1098.27 M237.843 1094.57 Q243.653 1094.57 246.709 1099.18 Q249.787 1103.76 249.787 1112.51 Q249.787 1121.24 246.709 1125.84 Q243.653 1130.43 237.843 1130.43 Q232.033 1130.43 228.954 1125.84 Q225.899 1121.24 225.899 1112.51 Q225.899 1103.76 228.954 1099.18 Q232.033 1094.57 237.843 1094.57 Z" fill="#000000" fill-rule="nonzero" fill-opacity="1" /><path clip-path="url(#clip900)" d="M262.464 1077.57 L252.872 1092.56 L262.464 1092.56 L262.464 1077.57 M261.467 1074.26 L266.244 1074.26 L266.244 1092.56 L270.25 1092.56 L270.25 1095.72 L266.244 1095.72 L266.244 1102.34 L262.464 1102.34 L262.464 1095.72 L249.787 1095.72 L249.787 1092.06 L261.467 1074.26 Z" fill="#000000" fill-rule="nonzero" fill-opacity="1" /><path clip-path="url(#clip900)" d="M55.5089 783.935 L63.1477 783.935 L63.1477 757.57 L54.8376 759.236 L54.8376 754.977 L63.1014 753.31 L67.7773 753.31 L67.7773 783.935 L75.4162 783.935 L75.4162 787.87 L55.5089 787.87 L55.5089 783.935 Z" fill="#000000" fill-rule="nonzero" fill-opacity="1" /><path clip-path="url(#clip900)" d="M84.8606 781.991 L89.7448 781.991 L89.7448 787.87 L84.8606 787.87 L84.8606 781.991 Z" fill="#000000" fill-rule="nonzero" fill-opacity="1" /><path clip-path="url(#clip900)" d="M109.93 756.389 Q106.319 756.389 104.49 759.954 Q102.685 763.496 102.685 770.625 Q102.685 777.732 104.49 781.296 Q106.319 784.838 109.93 784.838 Q113.564 784.838 115.37 781.296 Q117.198 777.732 117.198 770.625 Q117.198 763.496 115.37 759.954 Q113.564 756.389 109.93 756.389 M109.93 752.685 Q115.74 752.685 118.796 757.292 Q121.874 761.875 121.874 770.625 Q121.874 779.352 118.796 783.958 Q115.74 788.542 109.93 788.542 Q104.12 788.542 101.041 783.958 Q97.9855 779.352 97.9855 770.625 Q97.9855 761.875 101.041 757.292 Q104.12 752.685 109.93 752.685 Z" fill="#000000" fill-rule="nonzero" fill-opacity="1" /><path clip-path="url(#clip900)" d="M140.092 756.389 Q136.481 756.389 134.652 759.954 Q132.846 763.496 132.846 770.625 Q132.846 777.732 134.652 781.296 Q136.481 784.838 140.092 784.838 Q143.726 784.838 145.532 781.296 Q147.36 777.732 147.36 770.625 Q147.36 763.496 145.532 759.954 Q143.726 756.389 140.092 756.389 M140.092 752.685 Q145.902 752.685 148.957 757.292 Q152.036 761.875 152.036 770.625 Q152.036 779.352 148.957 783.958 Q145.902 788.542 140.092 788.542 Q134.282 788.542 131.203 783.958 Q128.147 779.352 128.147 770.625 Q128.147 761.875 131.203 757.292 Q134.282 752.685 140.092 752.685 Z" fill="#000000" fill-rule="nonzero" fill-opacity="1" /><path clip-path="url(#clip900)" d="M188.425 762.408 L177.846 773.033 L188.425 783.611 L185.67 786.412 L175.045 775.787 L164.42 786.412 L161.689 783.611 L172.244 773.033 L161.689 762.408 L164.42 759.607 L175.045 770.232 L185.67 759.607 L188.425 762.408 Z" fill="#000000" fill-rule="nonzero" fill-opacity="1" /><path clip-path="url(#clip900)" d="M200.786 783.935 L208.425 783.935 L208.425 757.57 L200.115 759.236 L200.115 754.977 L208.378 753.31 L213.054 753.31 L213.054 783.935 L220.693 783.935 L220.693 787.87 L200.786 787.87 L200.786 783.935 Z" fill="#000000" fill-rule="nonzero" fill-opacity="1" /><path clip-path="url(#clip900)" d="M240.138 756.389 Q236.526 756.389 234.698 759.954 Q232.892 763.496 232.892 770.625 Q232.892 777.732 234.698 781.296 Q236.526 784.838 240.138 784.838 Q243.772 784.838 245.577 781.296 Q247.406 777.732 247.406 770.625 Q247.406 763.496 245.577 759.954 Q243.772 756.389 240.138 756.389 M240.138 752.685 Q245.948 752.685 249.003 757.292 Q252.082 761.875 252.082 770.625 Q252.082 779.352 249.003 783.958 Q245.948 788.542 240.138 788.542 Q234.327 788.542 231.249 783.958 Q228.193 779.352 228.193 770.625 Q228.193 761.875 231.249 757.292 Q234.327 752.685 240.138 752.685 Z" fill="#000000" fill-rule="nonzero" fill-opacity="1" /><path clip-path="url(#clip900)" d="M253.267 732.38 L268.181 732.38 L268.181 735.577 L256.746 735.577 L256.746 742.461 Q257.574 742.179 258.401 742.047 Q259.229 741.897 260.056 741.897 Q264.758 741.897 267.504 744.473 Q270.25 747.05 270.25 751.451 Q270.25 755.984 267.429 758.504 Q264.608 761.005 259.473 761.005 Q257.705 761.005 255.862 760.704 Q254.038 760.404 252.082 759.802 L252.082 755.984 Q253.775 756.905 255.58 757.357 Q257.386 757.808 259.398 757.808 Q262.652 757.808 264.551 756.097 Q266.451 754.385 266.451 751.451 Q266.451 748.517 264.551 746.806 Q262.652 745.094 259.398 745.094 Q257.875 745.094 256.351 745.433 Q254.847 745.771 253.267 746.486 L253.267 732.38 Z" fill="#000000" fill-rule="nonzero" fill-opacity="1" /><path clip-path="url(#clip900)" d="M55.5089 442.052 L63.1477 442.052 L63.1477 415.686 L54.8376 417.353 L54.8376 413.094 L63.1014 411.427 L67.7773 411.427 L67.7773 442.052 L75.4162 442.052 L75.4162 445.987 L55.5089 445.987 L55.5089 442.052 Z" fill="#000000" fill-rule="nonzero" fill-opacity="1" /><path clip-path="url(#clip900)" d="M84.8606 440.107 L89.7448 440.107 L89.7448 445.987 L84.8606 445.987 L84.8606 440.107 Z" fill="#000000" fill-rule="nonzero" fill-opacity="1" /><path clip-path="url(#clip900)" d="M99.9762 411.427 L118.333 411.427 L118.333 415.362 L104.259 415.362 L104.259 423.834 Q105.277 423.487 106.296 423.325 Q107.314 423.14 108.333 423.14 Q114.12 423.14 117.499 426.311 Q120.879 429.482 120.879 434.899 Q120.879 440.478 117.407 443.579 Q113.934 446.658 107.615 446.658 Q105.439 446.658 103.171 446.288 Q100.925 445.917 98.5179 445.177 L98.5179 440.478 Q100.601 441.612 102.823 442.167 Q105.046 442.723 107.522 442.723 Q111.527 442.723 113.865 440.617 Q116.203 438.51 116.203 434.899 Q116.203 431.288 113.865 429.181 Q111.527 427.075 107.522 427.075 Q105.648 427.075 103.773 427.492 Q101.921 427.908 99.9762 428.788 L99.9762 411.427 Z" fill="#000000" fill-rule="nonzero" fill-opacity="1" /><path clip-path="url(#clip900)" d="M140.092 414.506 Q136.481 414.506 134.652 418.07 Q132.846 421.612 132.846 428.742 Q132.846 435.848 134.652 439.413 Q136.481 442.954 140.092 442.954 Q143.726 442.954 145.532 439.413 Q147.36 435.848 147.36 428.742 Q147.36 421.612 145.532 418.07 Q143.726 414.506 140.092 414.506 M140.092 410.802 Q145.902 410.802 148.957 415.408 Q152.036 419.992 152.036 428.742 Q152.036 437.468 148.957 442.075 Q145.902 446.658 140.092 446.658 Q134.282 446.658 131.203 442.075 Q128.147 437.468 128.147 428.742 Q128.147 419.992 131.203 415.408 Q134.282 410.802 140.092 410.802 Z" fill="#000000" fill-rule="nonzero" fill-opacity="1" /><path clip-path="url(#clip900)" d="M188.425 420.524 L177.846 431.149 L188.425 441.728 L185.67 444.529 L175.045 433.904 L164.42 444.529 L161.689 441.728 L172.244 431.149 L161.689 420.524 L164.42 417.723 L175.045 428.348 L185.67 417.723 L188.425 420.524 Z" fill="#000000" fill-rule="nonzero" fill-opacity="1" /><path clip-path="url(#clip900)" d="M200.786 442.052 L208.425 442.052 L208.425 415.686 L200.115 417.353 L200.115 413.094 L208.378 411.427 L213.054 411.427 L213.054 442.052 L220.693 442.052 L220.693 445.987 L200.786 445.987 L200.786 442.052 Z" fill="#000000" fill-rule="nonzero" fill-opacity="1" /><path clip-path="url(#clip900)" d="M240.138 414.506 Q236.526 414.506 234.698 418.07 Q232.892 421.612 232.892 428.742 Q232.892 435.848 234.698 439.413 Q236.526 442.954 240.138 442.954 Q243.772 442.954 245.577 439.413 Q247.406 435.848 247.406 428.742 Q247.406 421.612 245.577 418.07 Q243.772 414.506 240.138 414.506 M240.138 410.802 Q245.948 410.802 249.003 415.408 Q252.082 419.992 252.082 428.742 Q252.082 437.468 249.003 442.075 Q245.948 446.658 240.138 446.658 Q234.327 446.658 231.249 442.075 Q228.193 437.468 228.193 428.742 Q228.193 419.992 231.249 415.408 Q234.327 410.802 240.138 410.802 Z" fill="#000000" fill-rule="nonzero" fill-opacity="1" /><path clip-path="url(#clip900)" d="M253.267 390.496 L268.181 390.496 L268.181 393.694 L256.746 393.694 L256.746 400.577 Q257.574 400.295 258.401 400.164 Q259.229 400.013 260.056 400.013 Q264.758 400.013 267.504 402.59 Q270.25 405.167 270.25 409.568 Q270.25 414.1 267.429 416.62 Q264.608 419.122 259.473 419.122 Q257.705 419.122 255.862 418.821 Q254.038 418.52 252.082 417.918 L252.082 414.1 Q253.775 415.022 255.58 415.473 Q257.386 415.925 259.398 415.925 Q262.652 415.925 264.551 414.213 Q266.451 412.502 266.451 409.568 Q266.451 406.634 264.551 404.922 Q262.652 403.211 259.398 403.211 Q257.875 403.211 256.351 403.549 Q254.847 403.888 253.267 404.602 L253.267 390.496 Z" fill="#000000" fill-rule="nonzero" fill-opacity="1" /><path clip-path="url(#clip900)" d="M58.7265 100.168 L75.0458 100.168 L75.0458 104.103 L53.1015 104.103 L53.1015 100.168 Q55.7635 97.4135 60.3468 92.7839 Q64.9533 88.1312 66.1338 86.7886 Q68.3792 84.2655 69.2588 82.5294 Q70.1616 80.7701 70.1616 79.0803 Q70.1616 76.3257 68.2171 74.5896 Q66.2959 72.8535 63.194 72.8535 Q60.995 72.8535 58.5413 73.6174 Q56.1107 74.3813 53.333 75.9322 L53.333 71.21 Q56.157 70.0757 58.6107 69.497 Q61.0644 68.9183 63.1014 68.9183 Q68.4718 68.9183 71.6662 71.6035 Q74.8606 74.2887 74.8606 78.7794 Q74.8606 80.909 74.0505 82.8303 Q73.2634 84.7284 71.1569 87.321 Q70.5782 87.9923 67.4764 91.2099 Q64.3746 94.4043 58.7265 100.168 Z" fill="#000000" fill-rule="nonzero" fill-opacity="1" /><path clip-path="url(#clip900)" d="M84.8606 98.2237 L89.7448 98.2237 L89.7448 104.103 L84.8606 104.103 L84.8606 98.2237 Z" fill="#000000" fill-rule="nonzero" fill-opacity="1" /><path clip-path="url(#clip900)" d="M109.93 72.622 Q106.319 72.622 104.49 76.1868 Q102.685 79.7285 102.685 86.858 Q102.685 93.9645 104.49 97.5293 Q106.319 101.071 109.93 101.071 Q113.564 101.071 115.37 97.5293 Q117.198 93.9645 117.198 86.858 Q117.198 79.7285 115.37 76.1868 Q113.564 72.622 109.93 72.622 M109.93 68.9183 Q115.74 68.9183 118.796 73.5248 Q121.874 78.1081 121.874 86.858 Q121.874 95.5849 118.796 100.191 Q115.74 104.775 109.93 104.775 Q104.12 104.775 101.041 100.191 Q97.9855 95.5849 97.9855 86.858 Q97.9855 78.1081 101.041 73.5248 Q104.12 68.9183 109.93 68.9183 Z" fill="#000000" fill-rule="nonzero" fill-opacity="1" /><path clip-path="url(#clip900)" d="M140.092 72.622 Q136.481 72.622 134.652 76.1868 Q132.846 79.7285 132.846 86.858 Q132.846 93.9645 134.652 97.5293 Q136.481 101.071 140.092 101.071 Q143.726 101.071 145.532 97.5293 Q147.36 93.9645 147.36 86.858 Q147.36 79.7285 145.532 76.1868 Q143.726 72.622 140.092 72.622 M140.092 68.9183 Q145.902 68.9183 148.957 73.5248 Q152.036 78.1081 152.036 86.858 Q152.036 95.5849 148.957 100.191 Q145.902 104.775 140.092 104.775 Q134.282 104.775 131.203 100.191 Q128.147 95.5849 128.147 86.858 Q128.147 78.1081 131.203 73.5248 Q134.282 68.9183 140.092 68.9183 Z" fill="#000000" fill-rule="nonzero" fill-opacity="1" /><path clip-path="url(#clip900)" d="M188.425 78.6405 L177.846 89.2654 L188.425 99.8441 L185.67 102.645 L175.045 92.0201 L164.42 102.645 L161.689 99.8441 L172.244 89.2654 L161.689 78.6405 L164.42 75.8396 L175.045 86.4645 L185.67 75.8396 L188.425 78.6405 Z" fill="#000000" fill-rule="nonzero" fill-opacity="1" /><path clip-path="url(#clip900)" d="M200.786 100.168 L208.425 100.168 L208.425 73.8026 L200.115 75.4692 L200.115 71.21 L208.378 69.5433 L213.054 69.5433 L213.054 100.168 L220.693 100.168 L220.693 104.103 L200.786 104.103 L200.786 100.168 Z" fill="#000000" fill-rule="nonzero" fill-opacity="1" /><path clip-path="url(#clip900)" d="M240.138 72.622 Q236.526 72.622 234.698 76.1868 Q232.892 79.7285 232.892 86.858 Q232.892 93.9645 234.698 97.5293 Q236.526 101.071 240.138 101.071 Q243.772 101.071 245.577 97.5293 Q247.406 93.9645 247.406 86.858 Q247.406 79.7285 245.577 76.1868 Q243.772 72.622 240.138 72.622 M240.138 68.9183 Q245.948 68.9183 249.003 73.5248 Q252.082 78.1081 252.082 86.858 Q252.082 95.5849 249.003 100.191 Q245.948 104.775 240.138 104.775 Q234.327 104.775 231.249 100.191 Q228.193 95.5849 228.193 86.858 Q228.193 78.1081 231.249 73.5248 Q234.327 68.9183 240.138 68.9183 Z" fill="#000000" fill-rule="nonzero" fill-opacity="1" /><path clip-path="url(#clip900)" d="M253.267 48.6129 L268.181 48.6129 L268.181 51.8102 L256.746 51.8102 L256.746 58.6939 Q257.574 58.4118 258.401 58.2801 Q259.229 58.1297 260.056 58.1297 Q264.758 58.1297 267.504 60.7063 Q270.25 63.283 270.25 67.684 Q270.25 72.2167 267.429 74.7369 Q264.608 77.2384 259.473 77.2384 Q257.705 77.2384 255.862 76.9374 Q254.038 76.6365 252.082 76.0347 L252.082 72.2167 Q253.775 73.1383 255.58 73.5896 Q257.386 74.041 259.398 74.041 Q262.652 74.041 264.551 72.3295 Q266.451 70.618 266.451 67.684 Q266.451 64.75 264.551 63.0385 Q262.652 61.327 259.398 61.327 Q257.875 61.327 256.351 61.6655 Q254.847 62.0041 253.267 62.7188 L253.267 48.6129 Z" fill="#000000" fill-rule="nonzero" fill-opacity="1" /><polyline clip-path="url(#clip902)" style="stroke:#009af9; stroke-linecap:round; stroke-linejoin:round; stroke-width:4; stroke-opacity:1; fill:none" points="364.17,1323.36 383.477,1323.12 402.783,1322.41 422.09,1321.22 441.397,1319.54 460.703,1317.34 480.01,1314.6 499.317,1311.28 518.623,1307.35 537.93,1302.76 557.237,1297.44 576.543,1291.34 595.85,1284.37 615.157,1276.43 634.463,1267.42 653.77,1257.2 673.077,1245.63 692.383,1232.53 711.69,1217.69 730.997,1200.88 750.303,1181.81 769.61,1160.14 788.917,1135.49 808.223,1107.39 827.53,1075.3 846.837,1038.57 866.143,996.435 885.45,947.972 904.757,892.088 924.063,827.471 943.37,752.552 962.677,671.456 981.983,590.74 1001.29,512.408 1020.6,438.591 1039.9,371.434 1059.21,313.003 1078.52,265.18 1097.82,229.562 1117.13,207.372 1136.44,199.391 1155.74,197.968 1175.05,195.172 1194.36,190.99 1213.66,185.409 1232.97,178.408 1252.28,169.962 1271.58,160.04 1290.89,148.609 1310.2,135.627 1329.5,121.047 1348.81,107.384 1368.12,97.2625 1387.42,90.7732 1406.73,87.9763 1426.04,88.899 1445.34,93.5358 1464.65,101.848 1483.96,113.765 1503.26,129.185 1522.57,147.975 1541.88,168.293 1561.18,188.391 1580.49,208.264 1599.8,227.906 1619.1,247.309 1638.41,266.467 1657.72,285.373 1677.02,304.021 1696.33,322.402 1715.64,340.512 1734.94,358.18 1754.25,375.262 1773.56,391.781 1792.86,407.764 1812.17,423.231 1831.48,438.205 1850.78,452.705 1870.09,466.752 1889.4,480.363 1908.7,493.556 1928.01,505.804 1947.32,517.251 1966.62,527.914 1985.93,537.851 2005.24,547.186 2024.54,556.157 2043.85,565.195 2063.16,575.074 2082.46,587.174 2101.77,603.914 2121.08,629.451 2140.38,670.528 2159.69,737.115 2179,838.258 2198.3,970.82 2217.61,1125.71 2236.92,1268.24 2256.22,1368.12 2275.53,1422.08 2294.84,1445.72 "/>
<path clip-path="url(#clip900)" d="M2027.46 198.898 L2284.54 198.898 L2284.54 95.2176 L2027.46 95.2176  Z" fill="#ffffff" fill-rule="evenodd" fill-opacity="1"/>
<polyline clip-path="url(#clip900)" style="stroke:#000000; stroke-linecap:round; stroke-linejoin:round; stroke-width:4; stroke-opacity:1; fill:none" points="2027.46,198.898 2284.54,198.898 2284.54,95.2176 2027.46,95.2176 2027.46,198.898 "/>
<polyline clip-path="url(#clip900)" style="stroke:#009af9; stroke-linecap:round; stroke-linejoin:round; stroke-width:4; stroke-opacity:1; fill:none" points="2050.2,147.058 2186.63,147.058 "/>
<path clip-path="url(#clip900)" d="M2223.21 166.745 Q2221.41 171.375 2219.69 172.787 Q2217.98 174.199 2215.11 174.199 L2211.71 174.199 L2211.71 170.634 L2214.21 170.634 Q2215.97 170.634 2216.94 169.8 Q2217.91 168.967 2219.09 165.865 L2219.86 163.921 L2209.37 138.412 L2213.88 138.412 L2221.99 158.689 L2230.09 138.412 L2234.6 138.412 L2223.21 166.745 Z" fill="#000000" fill-rule="nonzero" fill-opacity="1" /><path clip-path="url(#clip900)" d="M2241.89 160.402 L2249.53 160.402 L2249.53 134.037 L2241.22 135.703 L2241.22 131.444 L2249.49 129.778 L2254.16 129.778 L2254.16 160.402 L2261.8 160.402 L2261.8 164.338 L2241.89 164.338 L2241.89 160.402 Z" fill="#000000" fill-rule="nonzero" fill-opacity="1" /></svg>
