<?xml version="1.0" encoding="utf-8"?>
<svg xmlns="http://www.w3.org/2000/svg" xmlns:xlink="http://www.w3.org/1999/xlink" width="600" height="400" viewBox="0 0 2400 1600">
<defs>
  <clipPath id="clip950">
    <rect x="0" y="0" width="2400" height="1600"/>
  </clipPath>
</defs>
<path clip-path="url(#clip950)" d="M0 1600 L2400 1600 L2400 0 L0 0  Z" fill="#ffffff" fill-rule="evenodd" fill-opacity="1"/>
<defs>
  <clipPath id="clip951">
    <rect x="480" y="0" width="1681" height="1600"/>
  </clipPath>
</defs>
<path clip-path="url(#clip950)" d="M398.884 1362.7 L2352.76 1362.7 L2352.76 47.2441 L398.884 47.2441  Z" fill="#ffffff" fill-rule="evenodd" fill-opacity="1"/>
<defs>
  <clipPath id="clip952">
    <rect x="398" y="47" width="1955" height="1316"/>
  </clipPath>
</defs>
<polyline clip-path="url(#clip952)" style="stroke:#000000; stroke-linecap:round; stroke-linejoin:round; stroke-width:2; stroke-opacity:0.1; fill:none" points="398.884,1362.7 398.884,47.2441 "/>
<polyline clip-path="url(#clip952)" style="stroke:#000000; stroke-linecap:round; stroke-linejoin:round; stroke-width:2; stroke-opacity:0.1; fill:none" points="789.659,1362.7 789.659,47.2441 "/>
<polyline clip-path="url(#clip952)" style="stroke:#000000; stroke-linecap:round; stroke-linejoin:round; stroke-width:2; stroke-opacity:0.1; fill:none" points="1180.43,1362.7 1180.43,47.2441 "/>
<polyline clip-path="url(#clip952)" style="stroke:#000000; stroke-linecap:round; stroke-linejoin:round; stroke-width:2; stroke-opacity:0.1; fill:none" points="1571.21,1362.7 1571.21,47.2441 "/>
<polyline clip-path="url(#clip952)" style="stroke:#000000; stroke-linecap:round; stroke-linejoin:round; stroke-width:2; stroke-opacity:0.1; fill:none" points="1961.98,1362.7 1961.98,47.2441 "/>
<polyline clip-path="url(#clip952)" style="stroke:#000000; stroke-linecap:round; stroke-linejoin:round; stroke-width:2; stroke-opacity:0.1; fill:none" points="2352.76,1362.7 2352.76,47.2441 "/>
<polyline clip-path="url(#clip952)" style="stroke:#000000; stroke-linecap:round; stroke-linejoin:round; stroke-width:2; stroke-opacity:0.1; fill:none" points="398.884,1326.18 2352.76,1326.18 "/>
<polyline clip-path="url(#clip952)" style="stroke:#000000; stroke-linecap:round; stroke-linejoin:round; stroke-width:2; stroke-opacity:0.1; fill:none" points="398.884,982.738 2352.76,982.738 "/>
<polyline clip-path="url(#clip952)" style="stroke:#000000; stroke-linecap:round; stroke-linejoin:round; stroke-width:2; stroke-opacity:0.1; fill:none" points="398.884,639.297 2352.76,639.297 "/>
<polyline clip-path="url(#clip952)" style="stroke:#000000; stroke-linecap:round; stroke-linejoin:round; stroke-width:2; stroke-opacity:0.1; fill:none" points="398.884,295.856 2352.76,295.856 "/>
<polyline clip-path="url(#clip950)" style="stroke:#000000; stroke-linecap:round; stroke-linejoin:round; stroke-width:4; stroke-opacity:1; fill:none" points="398.884,1362.7 2352.76,1362.7 "/>
<polyline clip-path="url(#clip950)" style="stroke:#000000; stroke-linecap:round; stroke-linejoin:round; stroke-width:4; stroke-opacity:1; fill:none" points="398.884,1362.7 398.884,1343.8 "/>
<polyline clip-path="url(#clip950)" style="stroke:#000000; stroke-linecap:round; stroke-linejoin:round; stroke-width:4; stroke-opacity:1; fill:none" points="789.659,1362.7 789.659,1343.8 "/>
<polyline clip-path="url(#clip950)" style="stroke:#000000; stroke-linecap:round; stroke-linejoin:round; stroke-width:4; stroke-opacity:1; fill:none" points="1180.43,1362.7 1180.43,1343.8 "/>
<polyline clip-path="url(#clip950)" style="stroke:#000000; stroke-linecap:round; stroke-linejoin:round; stroke-width:4; stroke-opacity:1; fill:none" points="1571.21,1362.7 1571.21,1343.8 "/>
<polyline clip-path="url(#clip950)" style="stroke:#000000; stroke-linecap:round; stroke-linejoin:round; stroke-width:4; stroke-opacity:1; fill:none" points="1961.98,1362.7 1961.98,1343.8 "/>
<polyline clip-path="url(#clip950)" style="stroke:#000000; stroke-linecap:round; stroke-linejoin:round; stroke-width:4; stroke-opacity:1; fill:none" points="2352.76,1362.7 2352.76,1343.8 "/>
<path clip-path="url(#clip950)" d="M376.269 1393.62 Q372.658 1393.62 370.829 1397.18 Q369.023 1400.72 369.023 1407.85 Q369.023 1414.96 370.829 1418.53 Q372.658 1422.07 376.269 1422.07 Q379.903 1422.07 381.709 1418.53 Q383.537 1414.96 383.537 1407.85 Q383.537 1400.72 381.709 1397.18 Q379.903 1393.62 376.269 1393.62 M376.269 1389.91 Q382.079 1389.91 385.134 1394.52 Q388.213 1399.1 388.213 1407.85 Q388.213 1416.58 385.134 1421.19 Q382.079 1425.77 376.269 1425.77 Q370.459 1425.77 367.38 1421.19 Q364.324 1416.58 364.324 1407.85 Q364.324 1399.1 367.38 1394.52 Q370.459 1389.91 376.269 1389.91 Z" fill="#000000" fill-rule="nonzero" fill-opacity="1" /><path clip-path="url(#clip950)" d="M396.431 1419.22 L401.315 1419.22 L401.315 1425.1 L396.431 1425.1 L396.431 1419.22 Z" fill="#000000" fill-rule="nonzero" fill-opacity="1" /><path clip-path="url(#clip950)" d="M421.5 1393.62 Q417.889 1393.62 416.06 1397.18 Q414.255 1400.72 414.255 1407.85 Q414.255 1414.96 416.06 1418.53 Q417.889 1422.07 421.5 1422.07 Q425.134 1422.07 426.94 1418.53 Q428.769 1414.96 428.769 1407.85 Q428.769 1400.72 426.94 1397.18 Q425.134 1393.62 421.5 1393.62 M421.5 1389.91 Q427.31 1389.91 430.366 1394.52 Q433.444 1399.1 433.444 1407.85 Q433.444 1416.58 430.366 1421.19 Q427.31 1425.77 421.5 1425.77 Q415.69 1425.77 412.611 1421.19 Q409.556 1416.58 409.556 1407.85 Q409.556 1399.1 412.611 1394.52 Q415.69 1389.91 421.5 1389.91 Z" fill="#000000" fill-rule="nonzero" fill-opacity="1" /><path clip-path="url(#clip950)" d="M767.842 1393.62 Q764.231 1393.62 762.402 1397.18 Q760.596 1400.72 760.596 1407.85 Q760.596 1414.96 762.402 1418.53 Q764.231 1422.07 767.842 1422.07 Q771.476 1422.07 773.281 1418.53 Q775.11 1414.96 775.11 1407.85 Q775.11 1400.72 773.281 1397.18 Q771.476 1393.62 767.842 1393.62 M767.842 1389.91 Q773.652 1389.91 776.707 1394.52 Q779.786 1399.1 779.786 1407.85 Q779.786 1416.58 776.707 1421.19 Q773.652 1425.77 767.842 1425.77 Q762.032 1425.77 758.953 1421.19 Q755.897 1416.58 755.897 1407.85 Q755.897 1399.1 758.953 1394.52 Q762.032 1389.91 767.842 1389.91 Z" fill="#000000" fill-rule="nonzero" fill-opacity="1" /><path clip-path="url(#clip950)" d="M788.004 1419.22 L792.888 1419.22 L792.888 1425.1 L788.004 1425.1 L788.004 1419.22 Z" fill="#000000" fill-rule="nonzero" fill-opacity="1" /><path clip-path="url(#clip950)" d="M807.101 1421.16 L823.42 1421.16 L823.42 1425.1 L801.476 1425.1 L801.476 1421.16 Q804.138 1418.41 808.721 1413.78 Q813.328 1409.13 814.508 1407.79 Q816.753 1405.26 817.633 1403.53 Q818.536 1401.77 818.536 1400.08 Q818.536 1397.32 816.591 1395.59 Q814.67 1393.85 811.568 1393.85 Q809.369 1393.85 806.916 1394.61 Q804.485 1395.38 801.707 1396.93 L801.707 1392.21 Q804.531 1391.07 806.985 1390.49 Q809.439 1389.91 811.476 1389.91 Q816.846 1389.91 820.04 1392.6 Q823.235 1395.29 823.235 1399.78 Q823.235 1401.91 822.425 1403.83 Q821.638 1405.72 819.531 1408.32 Q818.953 1408.99 815.851 1412.21 Q812.749 1415.4 807.101 1421.16 Z" fill="#000000" fill-rule="nonzero" fill-opacity="1" /><path clip-path="url(#clip950)" d="M1157.57 1393.62 Q1153.96 1393.62 1152.13 1397.18 Q1150.33 1400.72 1150.33 1407.85 Q1150.33 1414.96 1152.13 1418.53 Q1153.96 1422.07 1157.57 1422.07 Q1161.21 1422.07 1163.01 1418.53 Q1164.84 1414.96 1164.84 1407.85 Q1164.84 1400.72 1163.01 1397.18 Q1161.21 1393.62 1157.57 1393.62 M1157.57 1389.91 Q1163.38 1389.91 1166.44 1394.52 Q1169.52 1399.1 1169.52 1407.85 Q1169.52 1416.58 1166.44 1421.19 Q1163.38 1425.77 1157.57 1425.77 Q1151.76 1425.77 1148.69 1421.19 Q1145.63 1416.58 1145.63 1407.85 Q1145.63 1399.1 1148.69 1394.52 Q1151.76 1389.91 1157.57 1389.91 Z" fill="#000000" fill-rule="nonzero" fill-opacity="1" /><path clip-path="url(#clip950)" d="M1177.74 1419.22 L1182.62 1419.22 L1182.62 1425.1 L1177.74 1425.1 L1177.74 1419.22 Z" fill="#000000" fill-rule="nonzero" fill-opacity="1" /><path clip-path="url(#clip950)" d="M1205.65 1394.61 L1193.85 1413.06 L1205.65 1413.06 L1205.65 1394.61 M1204.43 1390.54 L1210.31 1390.54 L1210.31 1413.06 L1215.24 1413.06 L1215.24 1416.95 L1210.31 1416.95 L1210.31 1425.1 L1205.65 1425.1 L1205.65 1416.95 L1190.05 1416.95 L1190.05 1412.44 L1204.43 1390.54 Z" fill="#000000" fill-rule="nonzero" fill-opacity="1" /><path clip-path="url(#clip950)" d="M1548.51 1393.62 Q1544.9 1393.62 1543.07 1397.18 Q1541.27 1400.72 1541.27 1407.85 Q1541.27 1414.96 1543.07 1418.53 Q1544.9 1422.07 1548.51 1422.07 Q1552.14 1422.07 1553.95 1418.53 Q1555.78 1414.96 1555.78 1407.85 Q1555.78 1400.72 1553.95 1397.18 Q1552.14 1393.62 1548.51 1393.62 M1548.51 1389.91 Q1554.32 1389.91 1557.38 1394.52 Q1560.46 1399.1 1560.46 1407.85 Q1560.46 1416.58 1557.38 1421.19 Q1554.32 1425.77 1548.51 1425.77 Q1542.7 1425.77 1539.62 1421.19 Q1536.57 1416.58 1536.57 1407.85 Q1536.57 1399.1 1539.62 1394.52 Q1542.7 1389.91 1548.51 1389.91 Z" fill="#000000" fill-rule="nonzero" fill-opacity="1" /><path clip-path="url(#clip950)" d="M1568.67 1419.22 L1573.56 1419.22 L1573.56 1425.1 L1568.67 1425.1 L1568.67 1419.22 Z" fill="#000000" fill-rule="nonzero" fill-opacity="1" /><path clip-path="url(#clip950)" d="M1594.32 1405.96 Q1591.17 1405.96 1589.32 1408.11 Q1587.49 1410.26 1587.49 1414.01 Q1587.49 1417.74 1589.32 1419.91 Q1591.17 1422.07 1594.32 1422.07 Q1597.47 1422.07 1599.3 1419.91 Q1601.15 1417.74 1601.15 1414.01 Q1601.15 1410.26 1599.3 1408.11 Q1597.47 1405.96 1594.32 1405.96 M1603.6 1391.3 L1603.6 1395.56 Q1601.84 1394.73 1600.04 1394.29 Q1598.26 1393.85 1596.5 1393.85 Q1591.87 1393.85 1589.41 1396.97 Q1586.98 1400.1 1586.64 1406.42 Q1588 1404.41 1590.06 1403.34 Q1592.12 1402.25 1594.6 1402.25 Q1599.81 1402.25 1602.82 1405.42 Q1605.85 1408.57 1605.85 1414.01 Q1605.85 1419.34 1602.7 1422.55 Q1599.55 1425.77 1594.32 1425.77 Q1588.33 1425.77 1585.15 1421.19 Q1581.98 1416.58 1581.98 1407.85 Q1581.98 1399.66 1585.87 1394.8 Q1589.76 1389.91 1596.31 1389.91 Q1598.07 1389.91 1599.85 1390.26 Q1601.66 1390.61 1603.6 1391.3 Z" fill="#000000" fill-rule="nonzero" fill-opacity="1" /><path clip-path="url(#clip950)" d="M1939.41 1393.62 Q1935.8 1393.62 1933.97 1397.18 Q1932.17 1400.72 1932.17 1407.85 Q1932.17 1414.96 1933.97 1418.53 Q1935.8 1422.07 1939.41 1422.07 Q1943.05 1422.07 1944.85 1418.53 Q1946.68 1414.96 1946.68 1407.85 Q1946.68 1400.72 1944.85 1397.18 Q1943.05 1393.62 1939.41 1393.62 M1939.41 1389.91 Q1945.22 1389.91 1948.28 1394.52 Q1951.36 1399.1 1951.36 1407.85 Q1951.36 1416.58 1948.28 1421.19 Q1945.22 1425.77 1939.41 1425.77 Q1933.6 1425.77 1930.52 1421.19 Q1927.47 1416.58 1927.47 1407.85 Q1927.47 1399.1 1930.52 1394.52 Q1933.6 1389.91 1939.41 1389.91 Z" fill="#000000" fill-rule="nonzero" fill-opacity="1" /><path clip-path="url(#clip950)" d="M1959.57 1419.22 L1964.46 1419.22 L1964.46 1425.1 L1959.57 1425.1 L1959.57 1419.22 Z" fill="#000000" fill-rule="nonzero" fill-opacity="1" /><path clip-path="url(#clip950)" d="M1984.64 1408.69 Q1981.31 1408.69 1979.39 1410.47 Q1977.49 1412.25 1977.49 1415.38 Q1977.49 1418.5 1979.39 1420.29 Q1981.31 1422.07 1984.64 1422.07 Q1987.98 1422.07 1989.9 1420.29 Q1991.82 1418.48 1991.82 1415.38 Q1991.82 1412.25 1989.9 1410.47 Q1988 1408.69 1984.64 1408.69 M1979.97 1406.7 Q1976.96 1405.96 1975.27 1403.9 Q1973.6 1401.84 1973.6 1398.87 Q1973.6 1394.73 1976.54 1392.32 Q1979.5 1389.91 1984.64 1389.91 Q1989.81 1389.91 1992.75 1392.32 Q1995.69 1394.73 1995.69 1398.87 Q1995.69 1401.84 1994 1403.9 Q1992.33 1405.96 1989.34 1406.7 Q1992.72 1407.48 1994.6 1409.78 Q1996.5 1412.07 1996.5 1415.38 Q1996.5 1420.4 1993.42 1423.09 Q1990.36 1425.77 1984.64 1425.77 Q1978.93 1425.77 1975.85 1423.09 Q1972.79 1420.4 1972.79 1415.38 Q1972.79 1412.07 1974.69 1409.78 Q1976.59 1407.48 1979.97 1406.7 M1978.25 1399.31 Q1978.25 1402 1979.92 1403.5 Q1981.61 1405.01 1984.64 1405.01 Q1987.65 1405.01 1989.34 1403.5 Q1991.06 1402 1991.06 1399.31 Q1991.06 1396.63 1989.34 1395.12 Q1987.65 1393.62 1984.64 1393.62 Q1981.61 1393.62 1979.92 1395.12 Q1978.25 1396.63 1978.25 1399.31 Z" fill="#000000" fill-rule="nonzero" fill-opacity="1" /><path clip-path="url(#clip950)" d="M2319.91 1421.16 L2327.55 1421.16 L2327.55 1394.8 L2319.24 1396.47 L2319.24 1392.21 L2327.5 1390.54 L2332.18 1390.54 L2332.18 1421.16 L2339.82 1421.16 L2339.82 1425.1 L2319.91 1425.1 L2319.91 1421.16 Z" fill="#000000" fill-rule="nonzero" fill-opacity="1" /><path clip-path="url(#clip950)" d="M2349.26 1419.22 L2354.14 1419.22 L2354.14 1425.1 L2349.26 1425.1 L2349.26 1419.22 Z" fill="#000000" fill-rule="nonzero" fill-opacity="1" /><path clip-path="url(#clip950)" d="M2374.33 1393.62 Q2370.72 1393.62 2368.89 1397.18 Q2367.08 1400.72 2367.08 1407.85 Q2367.08 1414.96 2368.89 1418.53 Q2370.72 1422.07 2374.33 1422.07 Q2377.96 1422.07 2379.77 1418.53 Q2381.6 1414.96 2381.6 1407.85 Q2381.6 1400.72 2379.77 1397.18 Q2377.96 1393.62 2374.33 1393.62 M2374.33 1389.91 Q2380.14 1389.91 2383.2 1394.52 Q2386.27 1399.1 2386.27 1407.85 Q2386.27 1416.58 2383.2 1421.19 Q2380.14 1425.77 2374.33 1425.77 Q2368.52 1425.77 2365.44 1421.19 Q2362.39 1416.58 2362.39 1407.85 Q2362.39 1399.1 2365.44 1394.52 Q2368.52 1389.91 2374.33 1389.91 Z" fill="#000000" fill-rule="nonzero" fill-opacity="1" /><path clip-path="url(#clip950)" d="M1408.25 1490.33 Q1408.25 1501.16 1402.69 1511.33 Q1397.2 1521.51 1388.56 1527.66 Q1380 1533.8 1371.36 1533.8 Q1361.62 1533.8 1356.57 1523.7 Q1347.43 1560.37 1346.91 1561.33 Q1344.79 1564.47 1341.72 1564.47 Q1339.81 1564.47 1338.64 1563.3 Q1337.47 1562.2 1337.47 1560.45 Q1337.54 1559.86 1337.98 1558.03 L1352.62 1499.11 Q1355.99 1485.42 1366.16 1475.69 Q1376.41 1465.88 1387.39 1465.88 Q1396.1 1465.88 1402.18 1472.39 Q1408.25 1478.91 1408.25 1490.33 M1397.49 1483.89 Q1397.49 1476.57 1394.56 1472.91 Q1391.63 1469.17 1387.1 1469.17 Q1382.92 1469.17 1377.87 1472.54 Q1372.9 1475.91 1368.51 1483.37 Q1366.16 1487.69 1364.48 1493.03 Q1362.8 1498.38 1359.5 1511.55 Q1358.33 1516.82 1358.33 1517.12 Q1358.33 1517.7 1358.62 1519.02 Q1358.99 1520.34 1359.87 1522.39 Q1360.82 1524.36 1362.14 1526.12 Q1363.45 1527.88 1365.87 1529.19 Q1368.29 1530.44 1371.21 1530.44 Q1375.75 1530.44 1380.58 1526.78 Q1385.49 1523.04 1389.07 1516.24 Q1392.07 1510.75 1394.78 1500.43 Q1397.49 1490.03 1397.49 1483.89 Z" fill="#000000" fill-rule="nonzero" fill-opacity="1" /><polyline clip-path="url(#clip950)" style="stroke:#000000; stroke-linecap:round; stroke-linejoin:round; stroke-width:4; stroke-opacity:1; fill:none" points="398.884,1362.7 398.884,47.2441 "/>
<polyline clip-path="url(#clip950)" style="stroke:#000000; stroke-linecap:round; stroke-linejoin:round; stroke-width:4; stroke-opacity:1; fill:none" points="398.884,1326.18 417.782,1326.18 "/>
<polyline clip-path="url(#clip950)" style="stroke:#000000; stroke-linecap:round; stroke-linejoin:round; stroke-width:4; stroke-opacity:1; fill:none" points="398.884,982.738 417.782,982.738 "/>
<polyline clip-path="url(#clip950)" style="stroke:#000000; stroke-linecap:round; stroke-linejoin:round; stroke-width:4; stroke-opacity:1; fill:none" points="398.884,639.297 417.782,639.297 "/>
<polyline clip-path="url(#clip950)" style="stroke:#000000; stroke-linecap:round; stroke-linejoin:round; stroke-width:4; stroke-opacity:1; fill:none" points="398.884,295.856 417.782,295.856 "/>
<path clip-path="url(#clip950)" d="M350.94 1311.98 Q347.329 1311.98 345.5 1315.54 Q343.695 1319.08 343.695 1326.21 Q343.695 1333.32 345.5 1336.89 Q347.329 1340.43 350.94 1340.43 Q354.574 1340.43 356.38 1336.89 Q358.209 1333.32 358.209 1326.21 Q358.209 1319.08 356.38 1315.54 Q354.574 1311.98 350.94 1311.98 M350.94 1308.27 Q356.75 1308.27 359.806 1312.88 Q362.884 1317.46 362.884 1326.21 Q362.884 1334.94 359.806 1339.55 Q356.75 1344.13 350.94 1344.13 Q345.13 1344.13 342.051 1339.55 Q338.996 1334.94 338.996 1326.21 Q338.996 1317.46 342.051 1312.88 Q345.13 1308.27 350.94 1308.27 Z" fill="#000000" fill-rule="nonzero" fill-opacity="1" /><path clip-path="url(#clip950)" d="M181.523 1002.53 L197.842 1002.53 L197.842 1006.47 L175.898 1006.47 L175.898 1002.53 Q178.56 999.776 183.143 995.146 Q187.749 990.494 188.93 989.151 Q191.175 986.628 192.055 984.892 Q192.958 983.133 192.958 981.443 Q192.958 978.688 191.013 976.952 Q189.092 975.216 185.99 975.216 Q183.791 975.216 181.337 975.98 Q178.907 976.744 176.129 978.295 L176.129 973.573 Q178.953 972.438 181.407 971.86 Q183.86 971.281 185.898 971.281 Q191.268 971.281 194.462 973.966 Q197.657 976.651 197.657 981.142 Q197.657 983.272 196.847 985.193 Q196.059 987.091 193.953 989.684 Q193.374 990.355 190.272 993.572 Q187.171 996.767 181.523 1002.53 Z" fill="#000000" fill-rule="nonzero" fill-opacity="1" /><path clip-path="url(#clip950)" d="M207.657 1000.59 L212.541 1000.59 L212.541 1006.47 L207.657 1006.47 L207.657 1000.59 Z" fill="#000000" fill-rule="nonzero" fill-opacity="1" /><path clip-path="url(#clip950)" d="M232.726 974.985 Q229.115 974.985 227.286 978.549 Q225.481 982.091 225.481 989.221 Q225.481 996.327 227.286 999.892 Q229.115 1003.43 232.726 1003.43 Q236.36 1003.43 238.166 999.892 Q239.994 996.327 239.994 989.221 Q239.994 982.091 238.166 978.549 Q236.36 974.985 232.726 974.985 M232.726 971.281 Q238.536 971.281 241.592 975.887 Q244.67 980.471 244.67 989.221 Q244.67 997.947 241.592 1002.55 Q238.536 1007.14 232.726 1007.14 Q226.916 1007.14 223.837 1002.55 Q220.782 997.947 220.782 989.221 Q220.782 980.471 223.837 975.887 Q226.916 971.281 232.726 971.281 Z" fill="#000000" fill-rule="nonzero" fill-opacity="1" /><path clip-path="url(#clip950)" d="M281.059 981.003 L270.48 991.628 L281.059 1002.21 L278.304 1005.01 L267.679 994.383 L257.055 1005.01 L254.323 1002.21 L264.879 991.628 L254.323 981.003 L257.055 978.202 L267.679 988.827 L278.304 978.202 L281.059 981.003 Z" fill="#000000" fill-rule="nonzero" fill-opacity="1" /><path clip-path="url(#clip950)" d="M293.42 1002.53 L301.059 1002.53 L301.059 976.165 L292.749 977.832 L292.749 973.573 L301.013 971.906 L305.689 971.906 L305.689 1002.53 L313.327 1002.53 L313.327 1006.47 L293.42 1006.47 L293.42 1002.53 Z" fill="#000000" fill-rule="nonzero" fill-opacity="1" /><path clip-path="url(#clip950)" d="M332.772 974.985 Q329.161 974.985 327.332 978.549 Q325.526 982.091 325.526 989.221 Q325.526 996.327 327.332 999.892 Q329.161 1003.43 332.772 1003.43 Q336.406 1003.43 338.212 999.892 Q340.04 996.327 340.04 989.221 Q340.04 982.091 338.212 978.549 Q336.406 974.985 332.772 974.985 M332.772 971.281 Q338.582 971.281 341.637 975.887 Q344.716 980.471 344.716 989.221 Q344.716 997.947 341.637 1002.55 Q338.582 1007.14 332.772 1007.14 Q326.962 1007.14 323.883 1002.55 Q320.827 997.947 320.827 989.221 Q320.827 980.471 323.883 975.887 Q326.962 971.281 332.772 971.281 Z" fill="#000000" fill-rule="nonzero" fill-opacity="1" /><path clip-path="url(#clip950)" d="M345.901 950.975 L360.816 950.975 L360.816 954.173 L349.38 954.173 L349.38 961.056 Q350.208 960.774 351.036 960.643 Q351.863 960.492 352.691 960.492 Q357.393 960.492 360.138 963.069 Q362.884 965.646 362.884 970.047 Q362.884 974.579 360.063 977.099 Q357.242 979.601 352.108 979.601 Q350.34 979.601 348.496 979.3 Q346.672 978.999 344.716 978.397 L344.716 974.579 Q346.409 975.501 348.214 975.952 Q350.02 976.404 352.032 976.404 Q355.286 976.404 357.186 974.692 Q359.085 972.981 359.085 970.047 Q359.085 967.113 357.186 965.401 Q355.286 963.69 352.032 963.69 Q350.509 963.69 348.985 964.028 Q347.481 964.367 345.901 965.081 L345.901 950.975 Z" fill="#000000" fill-rule="nonzero" fill-opacity="1" /><path clip-path="url(#clip950)" d="M190.342 632.539 L178.536 650.988 L190.342 650.988 L190.342 632.539 M189.115 628.465 L194.995 628.465 L194.995 650.988 L199.925 650.988 L199.925 654.877 L194.995 654.877 L194.995 663.025 L190.342 663.025 L190.342 654.877 L174.74 654.877 L174.74 650.363 L189.115 628.465 Z" fill="#000000" fill-rule="nonzero" fill-opacity="1" /><path clip-path="url(#clip950)" d="M207.657 657.145 L212.541 657.145 L212.541 663.025 L207.657 663.025 L207.657 657.145 Z" fill="#000000" fill-rule="nonzero" fill-opacity="1" /><path clip-path="url(#clip950)" d="M232.726 631.543 Q229.115 631.543 227.286 635.108 Q225.481 638.65 225.481 645.779 Q225.481 652.886 227.286 656.451 Q229.115 659.992 232.726 659.992 Q236.36 659.992 238.166 656.451 Q239.994 652.886 239.994 645.779 Q239.994 638.65 238.166 635.108 Q236.36 631.543 232.726 631.543 M232.726 627.84 Q238.536 627.84 241.592 632.446 Q244.67 637.029 244.67 645.779 Q244.67 654.506 241.592 659.113 Q238.536 663.696 232.726 663.696 Q226.916 663.696 223.837 659.113 Q220.782 654.506 220.782 645.779 Q220.782 637.029 223.837 632.446 Q226.916 627.84 232.726 627.84 Z" fill="#000000" fill-rule="nonzero" fill-opacity="1" /><path clip-path="url(#clip950)" d="M281.059 637.562 L270.48 648.187 L281.059 658.765 L278.304 661.566 L267.679 650.941 L257.055 661.566 L254.323 658.765 L264.879 648.187 L254.323 637.562 L257.055 634.761 L267.679 645.386 L278.304 634.761 L281.059 637.562 Z" fill="#000000" fill-rule="nonzero" fill-opacity="1" /><path clip-path="url(#clip950)" d="M293.42 659.089 L301.059 659.089 L301.059 632.724 L292.749 634.391 L292.749 630.131 L301.013 628.465 L305.689 628.465 L305.689 659.089 L313.327 659.089 L313.327 663.025 L293.42 663.025 L293.42 659.089 Z" fill="#000000" fill-rule="nonzero" fill-opacity="1" /><path clip-path="url(#clip950)" d="M332.772 631.543 Q329.161 631.543 327.332 635.108 Q325.526 638.65 325.526 645.779 Q325.526 652.886 327.332 656.451 Q329.161 659.992 332.772 659.992 Q336.406 659.992 338.212 656.451 Q340.04 652.886 340.04 645.779 Q340.04 638.65 338.212 635.108 Q336.406 631.543 332.772 631.543 M332.772 627.84 Q338.582 627.84 341.637 632.446 Q344.716 637.029 344.716 645.779 Q344.716 654.506 341.637 659.113 Q338.582 663.696 332.772 663.696 Q326.962 663.696 323.883 659.113 Q320.827 654.506 320.827 645.779 Q320.827 637.029 323.883 632.446 Q326.962 627.84 332.772 627.84 Z" fill="#000000" fill-rule="nonzero" fill-opacity="1" /><path clip-path="url(#clip950)" d="M345.901 607.534 L360.816 607.534 L360.816 610.732 L349.38 610.732 L349.38 617.615 Q350.208 617.333 351.036 617.201 Q351.863 617.051 352.691 617.051 Q357.393 617.051 360.138 619.628 Q362.884 622.204 362.884 626.605 Q362.884 631.138 360.063 633.658 Q357.242 636.16 352.108 636.16 Q350.34 636.16 348.496 635.859 Q346.672 635.558 344.716 634.956 L344.716 631.138 Q346.409 632.06 348.214 632.511 Q350.02 632.962 352.032 632.962 Q355.286 632.962 357.186 631.251 Q359.085 629.539 359.085 626.605 Q359.085 623.671 357.186 621.96 Q355.286 620.248 352.032 620.248 Q350.509 620.248 348.985 620.587 Q347.481 620.925 345.901 621.64 L345.901 607.534 Z" fill="#000000" fill-rule="nonzero" fill-opacity="1" /><path clip-path="url(#clip950)" d="M188.073 300.44 Q184.925 300.44 183.073 302.593 Q181.245 304.745 181.245 308.495 Q181.245 312.222 183.073 314.398 Q184.925 316.551 188.073 316.551 Q191.222 316.551 193.05 314.398 Q194.902 312.222 194.902 308.495 Q194.902 304.745 193.05 302.593 Q191.222 300.44 188.073 300.44 M197.356 285.787 L197.356 290.046 Q195.597 289.213 193.791 288.773 Q192.009 288.334 190.249 288.334 Q185.62 288.334 183.166 291.459 Q180.735 294.583 180.388 300.903 Q181.754 298.889 183.814 297.824 Q185.874 296.736 188.351 296.736 Q193.56 296.736 196.569 299.908 Q199.601 303.056 199.601 308.495 Q199.601 313.82 196.453 317.037 Q193.305 320.255 188.073 320.255 Q182.078 320.255 178.907 315.671 Q175.736 311.065 175.736 302.338 Q175.736 294.144 179.624 289.283 Q183.513 284.398 190.064 284.398 Q191.823 284.398 193.606 284.746 Q195.411 285.093 197.356 285.787 Z" fill="#000000" fill-rule="nonzero" fill-opacity="1" /><path clip-path="url(#clip950)" d="M207.657 313.704 L212.541 313.704 L212.541 319.583 L207.657 319.583 L207.657 313.704 Z" fill="#000000" fill-rule="nonzero" fill-opacity="1" /><path clip-path="url(#clip950)" d="M232.726 288.102 Q229.115 288.102 227.286 291.667 Q225.481 295.208 225.481 302.338 Q225.481 309.445 227.286 313.009 Q229.115 316.551 232.726 316.551 Q236.36 316.551 238.166 313.009 Q239.994 309.445 239.994 302.338 Q239.994 295.208 238.166 291.667 Q236.36 288.102 232.726 288.102 M232.726 284.398 Q238.536 284.398 241.592 289.005 Q244.67 293.588 244.67 302.338 Q244.67 311.065 241.592 315.671 Q238.536 320.255 232.726 320.255 Q226.916 320.255 223.837 315.671 Q220.782 311.065 220.782 302.338 Q220.782 293.588 223.837 289.005 Q226.916 284.398 232.726 284.398 Z" fill="#000000" fill-rule="nonzero" fill-opacity="1" /><path clip-path="url(#clip950)" d="M281.059 294.121 L270.48 304.745 L281.059 315.324 L278.304 318.125 L267.679 307.5 L257.055 318.125 L254.323 315.324 L264.879 304.745 L254.323 294.121 L257.055 291.32 L267.679 301.945 L278.304 291.32 L281.059 294.121 Z" fill="#000000" fill-rule="nonzero" fill-opacity="1" /><path clip-path="url(#clip950)" d="M293.42 315.648 L301.059 315.648 L301.059 289.283 L292.749 290.949 L292.749 286.69 L301.013 285.023 L305.689 285.023 L305.689 315.648 L313.327 315.648 L313.327 319.583 L293.42 319.583 L293.42 315.648 Z" fill="#000000" fill-rule="nonzero" fill-opacity="1" /><path clip-path="url(#clip950)" d="M332.772 288.102 Q329.161 288.102 327.332 291.667 Q325.526 295.208 325.526 302.338 Q325.526 309.445 327.332 313.009 Q329.161 316.551 332.772 316.551 Q336.406 316.551 338.212 313.009 Q340.04 309.445 340.04 302.338 Q340.04 295.208 338.212 291.667 Q336.406 288.102 332.772 288.102 M332.772 284.398 Q338.582 284.398 341.637 289.005 Q344.716 293.588 344.716 302.338 Q344.716 311.065 341.637 315.671 Q338.582 320.255 332.772 320.255 Q326.962 320.255 323.883 315.671 Q320.827 311.065 320.827 302.338 Q320.827 293.588 323.883 289.005 Q326.962 284.398 332.772 284.398 Z" fill="#000000" fill-rule="nonzero" fill-opacity="1" /><path clip-path="url(#clip950)" d="M345.901 264.093 L360.816 264.093 L360.816 267.29 L349.38 267.29 L349.38 274.174 Q350.208 273.892 351.036 273.76 Q351.863 273.61 352.691 273.61 Q357.393 273.61 360.138 276.186 Q362.884 278.763 362.884 283.164 Q362.884 287.697 360.063 290.217 Q357.242 292.718 352.108 292.718 Q350.34 292.718 348.496 292.417 Q346.672 292.117 344.716 291.515 L344.716 287.697 Q346.409 288.618 348.214 289.07 Q350.02 289.521 352.032 289.521 Q355.286 289.521 357.186 287.81 Q359.085 286.098 359.085 283.164 Q359.085 280.23 357.186 278.519 Q355.286 276.807 352.032 276.807 Q350.509 276.807 348.985 277.146 Q347.481 277.484 345.901 278.199 L345.901 264.093 Z" fill="#000000" fill-rule="nonzero" fill-opacity="1" /><path clip-path="url(#clip950)" d="M148.533 816.536 L-1.37039 816.536 L-1.37039 793.919 L2.06978 793.919 L2.06978 806.509 L145.093 806.509 L145.093 793.919 L148.533 793.919 L148.533 816.536 Z" fill="#000000" fill-rule="nonzero" fill-opacity="1" /><path clip-path="url(#clip950)" d="M111.057 775.287 L106.446 775.287 L106.446 771.7 Q106.446 763.576 105.129 761.746 Q103.738 759.843 99.3461 759.843 L20.3686 759.843 Q16.0501 759.843 14.7325 761.746 Q13.3418 763.649 13.3418 771.7 L13.3418 775.287 L8.65734 775.287 L8.65734 722.367 Q8.65734 707.215 17.0016 697.115 Q25.3458 687.014 36.5447 687.014 Q47.6704 687.014 55.7218 697.334 Q63.7001 707.581 63.7001 721.196 L63.7001 746.521 L99.3461 746.521 Q103.665 746.521 105.055 744.691 Q106.446 742.788 106.446 734.664 L106.446 731.077 L111.057 731.077 Q110.618 736.347 110.618 753.255 Q110.618 770.017 111.057 775.287 M59.8207 746.96 L59.8207 726.319 Q59.8207 719.585 57.9177 714.681 Q56.0146 709.777 53.7456 707.581 Q51.4033 705.312 47.6704 704.068 Q43.8642 702.751 41.8147 702.604 Q39.6921 702.458 36.5447 702.458 Q33.2509 702.458 31.2014 702.604 Q29.0788 702.751 25.3458 704.068 Q21.5397 705.312 19.2706 707.581 Q16.9284 709.777 15.1717 714.681 Q13.3418 719.512 13.3418 726.319 L13.3418 739.641 Q13.3418 744.765 14.3666 745.863 Q15.3913 746.96 19.3438 746.96 L59.8207 746.96 Z" fill="#000000" fill-rule="nonzero" fill-opacity="1" /><path clip-path="url(#clip950)" d="M96.7843 661.8 Q84.0483 661.8 77.3144 646.795 Q72.9959 637.792 71.8979 619.2 L66.4083 619.2 Q57.1125 619.2 52.2085 624.104 Q47.2312 628.935 47.2312 635.083 Q47.2312 646.063 54.1115 651.333 Q54.2579 646.868 56.527 645.257 Q58.7228 643.647 60.9919 643.647 Q63.9929 643.647 65.9691 645.55 Q67.8722 647.38 67.8722 650.528 Q67.8722 653.529 66.0423 655.505 Q64.1393 657.481 60.8455 657.481 Q53.526 657.481 48.6951 650.894 Q43.8642 644.233 43.8642 634.791 Q43.8642 622.494 52.1353 614.296 Q54.6971 611.734 57.9909 610.49 Q61.2847 609.172 63.4805 609.026 Q65.6032 608.88 69.8485 608.88 L99.7853 608.88 Q100.664 608.88 102.128 608.587 Q103.591 608.294 105.495 606.976 Q107.324 605.586 107.324 603.317 Q107.324 597.9 97.7358 597.973 L89.3184 597.973 L89.3184 594.167 L97.7358 594.167 Q105.714 594.167 108.861 598.413 Q111.936 602.585 111.936 606.464 Q111.936 611.441 108.276 614.589 Q104.616 617.736 99.6389 618.175 Q105.348 620.444 109.081 625.641 Q112.741 630.765 112.741 637.792 Q112.741 643.208 111.35 648.332 Q110.033 653.382 106.3 657.627 Q102.494 661.8 96.7843 661.8 M96.6379 650.235 Q102.201 650.235 105.787 646.282 Q109.374 642.33 109.374 636.767 Q109.374 630.472 104.543 624.836 Q99.6389 619.2 90.0503 619.2 L75.0453 619.2 Q75.6309 635.815 82.2917 643.062 Q88.8792 650.235 96.6379 650.235 Z" fill="#000000" fill-rule="nonzero" fill-opacity="1" /><path clip-path="url(#clip950)" d="M145.093 587.565 L145.093 574.976 L2.06978 574.976 L2.06978 587.565 L-1.37039 587.565 L-1.37039 564.948 L148.533 564.948 L148.533 587.565 L145.093 587.565 Z" fill="#000000" fill-rule="nonzero" fill-opacity="1" /><polyline clip-path="url(#clip952)" style="stroke:#ff0000; stroke-linecap:round; stroke-linejoin:round; stroke-width:8; stroke-opacity:1; fill:none" points="398.884,84.474 418.423,88.7979 437.962,93.4736 457.501,98.7016 477.039,104.48 496.578,110.792 516.117,117.622 535.655,124.952 555.194,132.766 574.733,141.047 594.272,149.781 613.81,158.953 633.349,168.55 652.888,178.558 672.426,188.965 691.965,199.757 711.504,210.923 731.043,222.449 750.581,234.325 770.12,246.537 789.659,259.076 809.197,271.928 828.736,285.083 848.275,298.53 867.814,312.256 887.352,326.251 906.891,340.503 926.43,355.001 945.968,369.735 965.507,384.693 985.046,399.863 1004.58,415.236 1024.12,430.799 1043.66,446.541 1063.2,462.452 1082.74,478.519 1102.28,494.733 1121.82,511.082 1141.36,527.554 1160.89,544.139 1180.43,560.824 1199.97,577.6 1219.51,594.453 1239.05,611.374 1258.59,628.35 1278.13,645.37 1297.67,662.422 1317.2,679.495 1336.74,696.577 1356.28,713.657 1375.82,730.722 1395.36,747.76 1414.9,764.761 1434.44,781.711 1453.98,798.599 1473.51,815.412 1493.05,832.139 1512.59,848.767 1532.13,865.283 1551.67,881.675 1571.21,897.931 1590.75,914.037 1610.28,929.98 1629.82,945.749 1649.36,961.329 1668.9,976.708 1688.44,991.871 1707.98,1006.81 1727.52,1021.5 1747.06,1035.93 1766.59,1050.1 1786.13,1063.98 1805.67,1077.56 1825.21,1090.83 1844.75,1103.77 1864.29,1116.36 1883.83,1128.59 1903.37,1140.45 1922.9,1151.91 1942.44,1162.96 1961.98,1173.59 1981.52,1183.77 2001.06,1193.48 2020.6,1202.71 2040.14,1211.43 2059.68,1219.63 2079.21,1227.29 2098.75,1234.37 2118.29,1240.88 2137.83,1246.79 2157.37,1252.13 2176.91,1256.97 2196.45,1261.48 2215.98,1266.07 2235.52,1271.54 2255.06,1279.14 2274.6,1290.13 2294.14,1304.03 2313.68,1316.04 2333.22,1322.81 2352.76,1325.47 "/>
</svg>
