<?xml version="1.0" encoding="utf-8"?>
<svg xmlns="http://www.w3.org/2000/svg" xmlns:xlink="http://www.w3.org/1999/xlink" width="600" height="400" viewBox="0 0 2400 1600">
<defs>
  <clipPath id="clip950">
    <rect x="0" y="0" width="2400" height="1600"/>
  </clipPath>
</defs>
<path clip-path="url(#clip950)" d="M0 1600 L2400 1600 L2400 0 L0 0  Z" fill="#ffffff" fill-rule="evenodd" fill-opacity="1"/>
<defs>
  <clipPath id="clip951">
    <rect x="480" y="0" width="1681" height="1600"/>
  </clipPath>
</defs>
<path clip-path="url(#clip950)" d="M275.136 1486.45 L2352.76 1486.45 L2352.76 47.2441 L275.136 47.2441  Z" fill="#ffffff" fill-rule="evenodd" fill-opacity="1"/>
<defs>
  <clipPath id="clip952">
    <rect x="275" y="47" width="2079" height="1440"/>
  </clipPath>
</defs>
<polyline clip-path="url(#clip952)" style="stroke:#000000; stroke-linecap:round; stroke-linejoin:round; stroke-width:2; stroke-opacity:0.1; fill:none" points="314.337,1486.45 314.337,47.2441 "/>
<polyline clip-path="url(#clip952)" style="stroke:#000000; stroke-linecap:round; stroke-linejoin:round; stroke-width:2; stroke-opacity:0.1; fill:none" points="804.341,1486.45 804.341,47.2441 "/>
<polyline clip-path="url(#clip952)" style="stroke:#000000; stroke-linecap:round; stroke-linejoin:round; stroke-width:2; stroke-opacity:0.1; fill:none" points="1294.35,1486.45 1294.35,47.2441 "/>
<polyline clip-path="url(#clip952)" style="stroke:#000000; stroke-linecap:round; stroke-linejoin:round; stroke-width:2; stroke-opacity:0.1; fill:none" points="1784.35,1486.45 1784.35,47.2441 "/>
<polyline clip-path="url(#clip952)" style="stroke:#000000; stroke-linecap:round; stroke-linejoin:round; stroke-width:2; stroke-opacity:0.1; fill:none" points="2274.36,1486.45 2274.36,47.2441 "/>
<polyline clip-path="url(#clip952)" style="stroke:#000000; stroke-linecap:round; stroke-linejoin:round; stroke-width:2; stroke-opacity:0.1; fill:none" points="275.136,1446.79 2352.76,1446.79 "/>
<polyline clip-path="url(#clip952)" style="stroke:#000000; stroke-linecap:round; stroke-linejoin:round; stroke-width:2; stroke-opacity:0.1; fill:none" points="275.136,1208.31 2352.76,1208.31 "/>
<polyline clip-path="url(#clip952)" style="stroke:#000000; stroke-linecap:round; stroke-linejoin:round; stroke-width:2; stroke-opacity:0.1; fill:none" points="275.136,969.834 2352.76,969.834 "/>
<polyline clip-path="url(#clip952)" style="stroke:#000000; stroke-linecap:round; stroke-linejoin:round; stroke-width:2; stroke-opacity:0.1; fill:none" points="275.136,731.357 2352.76,731.357 "/>
<polyline clip-path="url(#clip952)" style="stroke:#000000; stroke-linecap:round; stroke-linejoin:round; stroke-width:2; stroke-opacity:0.1; fill:none" points="275.136,492.88 2352.76,492.88 "/>
<polyline clip-path="url(#clip952)" style="stroke:#000000; stroke-linecap:round; stroke-linejoin:round; stroke-width:2; stroke-opacity:0.1; fill:none" points="275.136,254.404 2352.76,254.404 "/>
<polyline clip-path="url(#clip950)" style="stroke:#000000; stroke-linecap:round; stroke-linejoin:round; stroke-width:4; stroke-opacity:1; fill:none" points="275.136,1486.45 2352.76,1486.45 "/>
<polyline clip-path="url(#clip950)" style="stroke:#000000; stroke-linecap:round; stroke-linejoin:round; stroke-width:4; stroke-opacity:1; fill:none" points="314.337,1486.45 314.337,1467.55 "/>
<polyline clip-path="url(#clip950)" style="stroke:#000000; stroke-linecap:round; stroke-linejoin:round; stroke-width:4; stroke-opacity:1; fill:none" points="804.341,1486.45 804.341,1467.55 "/>
<polyline clip-path="url(#clip950)" style="stroke:#000000; stroke-linecap:round; stroke-linejoin:round; stroke-width:4; stroke-opacity:1; fill:none" points="1294.35,1486.45 1294.35,1467.55 "/>
<polyline clip-path="url(#clip950)" style="stroke:#000000; stroke-linecap:round; stroke-linejoin:round; stroke-width:4; stroke-opacity:1; fill:none" points="1784.35,1486.45 1784.35,1467.55 "/>
<polyline clip-path="url(#clip950)" style="stroke:#000000; stroke-linecap:round; stroke-linejoin:round; stroke-width:4; stroke-opacity:1; fill:none" points="2274.36,1486.45 2274.36,1467.55 "/>
<path clip-path="url(#clip950)" d="M314.337 1517.37 Q310.726 1517.37 308.897 1520.93 Q307.091 1524.47 307.091 1531.6 Q307.091 1538.71 308.897 1542.27 Q310.726 1545.82 314.337 1545.82 Q317.971 1545.82 319.777 1542.27 Q321.605 1538.71 321.605 1531.6 Q321.605 1524.47 319.777 1520.93 Q317.971 1517.37 314.337 1517.37 M314.337 1513.66 Q320.147 1513.66 323.202 1518.27 Q326.281 1522.85 326.281 1531.6 Q326.281 1540.33 323.202 1544.94 Q320.147 1549.52 314.337 1549.52 Q308.527 1549.52 305.448 1544.94 Q302.392 1540.33 302.392 1531.6 Q302.392 1522.85 305.448 1518.27 Q308.527 1513.66 314.337 1513.66 Z" fill="#000000" fill-rule="nonzero" fill-opacity="1" /><path clip-path="url(#clip950)" d="M783.612 1544.91 L799.932 1544.91 L799.932 1548.85 L777.987 1548.85 L777.987 1544.91 Q780.649 1542.16 785.233 1537.53 Q789.839 1532.88 791.02 1531.53 Q793.265 1529.01 794.145 1527.27 Q795.047 1525.51 795.047 1523.82 Q795.047 1521.07 793.103 1519.33 Q791.182 1517.6 788.08 1517.6 Q785.881 1517.6 783.427 1518.36 Q780.997 1519.13 778.219 1520.68 L778.219 1515.95 Q781.043 1514.82 783.497 1514.24 Q785.95 1513.66 787.987 1513.66 Q793.358 1513.66 796.552 1516.35 Q799.746 1519.03 799.746 1523.52 Q799.746 1525.65 798.936 1527.57 Q798.149 1529.47 796.043 1532.07 Q795.464 1532.74 792.362 1535.95 Q789.26 1539.15 783.612 1544.91 Z" fill="#000000" fill-rule="nonzero" fill-opacity="1" /><path clip-path="url(#clip950)" d="M809.793 1514.29 L828.149 1514.29 L828.149 1518.22 L814.075 1518.22 L814.075 1526.7 Q815.094 1526.35 816.112 1526.19 Q817.131 1526 818.149 1526 Q823.936 1526 827.316 1529.17 Q830.695 1532.34 830.695 1537.76 Q830.695 1543.34 827.223 1546.44 Q823.751 1549.52 817.432 1549.52 Q815.256 1549.52 812.987 1549.15 Q810.742 1548.78 808.334 1548.04 L808.334 1543.34 Q810.418 1544.47 812.64 1545.03 Q814.862 1545.58 817.339 1545.58 Q821.344 1545.58 823.682 1543.48 Q826.019 1541.37 826.019 1537.76 Q826.019 1534.15 823.682 1532.04 Q821.344 1529.94 817.339 1529.94 Q815.464 1529.94 813.589 1530.35 Q811.737 1530.77 809.793 1531.65 L809.793 1514.29 Z" fill="#000000" fill-rule="nonzero" fill-opacity="1" /><path clip-path="url(#clip950)" d="M1269.05 1514.29 L1287.4 1514.29 L1287.4 1518.22 L1273.33 1518.22 L1273.33 1526.7 Q1274.35 1526.35 1275.36 1526.19 Q1276.38 1526 1277.4 1526 Q1283.19 1526 1286.57 1529.17 Q1289.95 1532.34 1289.95 1537.76 Q1289.95 1543.34 1286.48 1546.44 Q1283 1549.52 1276.68 1549.52 Q1274.51 1549.52 1272.24 1549.15 Q1269.99 1548.78 1267.59 1548.04 L1267.59 1543.34 Q1269.67 1544.47 1271.89 1545.03 Q1274.11 1545.58 1276.59 1545.58 Q1280.6 1545.58 1282.93 1543.48 Q1285.27 1541.37 1285.27 1537.76 Q1285.27 1534.15 1282.93 1532.04 Q1280.6 1529.94 1276.59 1529.94 Q1274.72 1529.94 1272.84 1530.35 Q1270.99 1530.77 1269.05 1531.65 L1269.05 1514.29 Z" fill="#000000" fill-rule="nonzero" fill-opacity="1" /><path clip-path="url(#clip950)" d="M1309.16 1517.37 Q1305.55 1517.37 1303.72 1520.93 Q1301.92 1524.47 1301.92 1531.6 Q1301.92 1538.71 1303.72 1542.27 Q1305.55 1545.82 1309.16 1545.82 Q1312.79 1545.82 1314.6 1542.27 Q1316.43 1538.71 1316.43 1531.6 Q1316.43 1524.47 1314.6 1520.93 Q1312.79 1517.37 1309.16 1517.37 M1309.16 1513.66 Q1314.97 1513.66 1318.03 1518.27 Q1321.11 1522.85 1321.11 1531.6 Q1321.11 1540.33 1318.03 1544.94 Q1314.97 1549.52 1309.16 1549.52 Q1303.35 1549.52 1300.27 1544.94 Q1297.22 1540.33 1297.22 1531.6 Q1297.22 1522.85 1300.27 1518.27 Q1303.35 1513.66 1309.16 1513.66 Z" fill="#000000" fill-rule="nonzero" fill-opacity="1" /><path clip-path="url(#clip950)" d="M1758.2 1514.29 L1780.43 1514.29 L1780.43 1516.28 L1767.88 1548.85 L1763 1548.85 L1774.8 1518.22 L1758.2 1518.22 L1758.2 1514.29 Z" fill="#000000" fill-rule="nonzero" fill-opacity="1" /><path clip-path="url(#clip950)" d="M1789.59 1514.29 L1807.95 1514.29 L1807.95 1518.22 L1793.88 1518.22 L1793.88 1526.7 Q1794.89 1526.35 1795.91 1526.19 Q1796.93 1526 1797.95 1526 Q1803.74 1526 1807.12 1529.17 Q1810.5 1532.34 1810.5 1537.76 Q1810.5 1543.34 1807.02 1546.44 Q1803.55 1549.52 1797.23 1549.52 Q1795.06 1549.52 1792.79 1549.15 Q1790.54 1548.78 1788.14 1548.04 L1788.14 1543.34 Q1790.22 1544.47 1792.44 1545.03 Q1794.66 1545.58 1797.14 1545.58 Q1801.14 1545.58 1803.48 1543.48 Q1805.82 1541.37 1805.82 1537.76 Q1805.82 1534.15 1803.48 1532.04 Q1801.14 1529.94 1797.14 1529.94 Q1795.26 1529.94 1793.39 1530.35 Q1791.54 1530.77 1789.59 1531.65 L1789.59 1514.29 Z" fill="#000000" fill-rule="nonzero" fill-opacity="1" /><path clip-path="url(#clip950)" d="M2233.96 1544.91 L2241.6 1544.91 L2241.6 1518.55 L2233.29 1520.21 L2233.29 1515.95 L2241.55 1514.29 L2246.23 1514.29 L2246.23 1544.91 L2253.87 1544.91 L2253.87 1548.85 L2233.96 1548.85 L2233.96 1544.91 Z" fill="#000000" fill-rule="nonzero" fill-opacity="1" /><path clip-path="url(#clip950)" d="M2273.31 1517.37 Q2269.7 1517.37 2267.87 1520.93 Q2266.07 1524.47 2266.07 1531.6 Q2266.07 1538.71 2267.87 1542.27 Q2269.7 1545.82 2273.31 1545.82 Q2276.95 1545.82 2278.75 1542.27 Q2280.58 1538.71 2280.58 1531.6 Q2280.58 1524.47 2278.75 1520.93 Q2276.95 1517.37 2273.31 1517.37 M2273.31 1513.66 Q2279.12 1513.66 2282.18 1518.27 Q2285.26 1522.85 2285.26 1531.6 Q2285.26 1540.33 2282.18 1544.94 Q2279.12 1549.52 2273.31 1549.52 Q2267.5 1549.52 2264.42 1544.94 Q2261.37 1540.33 2261.37 1531.6 Q2261.37 1522.85 2264.42 1518.27 Q2267.5 1513.66 2273.31 1513.66 Z" fill="#000000" fill-rule="nonzero" fill-opacity="1" /><path clip-path="url(#clip950)" d="M2303.48 1517.37 Q2299.86 1517.37 2298.04 1520.93 Q2296.23 1524.47 2296.23 1531.6 Q2296.23 1538.71 2298.04 1542.27 Q2299.86 1545.82 2303.48 1545.82 Q2307.11 1545.82 2308.92 1542.27 Q2310.74 1538.71 2310.74 1531.6 Q2310.74 1524.47 2308.92 1520.93 Q2307.11 1517.37 2303.48 1517.37 M2303.48 1513.66 Q2309.29 1513.66 2312.34 1518.27 Q2315.42 1522.85 2315.42 1531.6 Q2315.42 1540.33 2312.34 1544.94 Q2309.29 1549.52 2303.48 1549.52 Q2297.67 1549.52 2294.59 1544.94 Q2291.53 1540.33 2291.53 1531.6 Q2291.53 1522.85 2294.59 1518.27 Q2297.67 1513.66 2303.48 1513.66 Z" fill="#000000" fill-rule="nonzero" fill-opacity="1" /><polyline clip-path="url(#clip950)" style="stroke:#000000; stroke-linecap:round; stroke-linejoin:round; stroke-width:4; stroke-opacity:1; fill:none" points="275.136,1486.45 275.136,47.2441 "/>
<polyline clip-path="url(#clip950)" style="stroke:#000000; stroke-linecap:round; stroke-linejoin:round; stroke-width:4; stroke-opacity:1; fill:none" points="275.136,1446.79 294.034,1446.79 "/>
<polyline clip-path="url(#clip950)" style="stroke:#000000; stroke-linecap:round; stroke-linejoin:round; stroke-width:4; stroke-opacity:1; fill:none" points="275.136,1208.31 294.034,1208.31 "/>
<polyline clip-path="url(#clip950)" style="stroke:#000000; stroke-linecap:round; stroke-linejoin:round; stroke-width:4; stroke-opacity:1; fill:none" points="275.136,969.834 294.034,969.834 "/>
<polyline clip-path="url(#clip950)" style="stroke:#000000; stroke-linecap:round; stroke-linejoin:round; stroke-width:4; stroke-opacity:1; fill:none" points="275.136,731.357 294.034,731.357 "/>
<polyline clip-path="url(#clip950)" style="stroke:#000000; stroke-linecap:round; stroke-linejoin:round; stroke-width:4; stroke-opacity:1; fill:none" points="275.136,492.88 294.034,492.88 "/>
<polyline clip-path="url(#clip950)" style="stroke:#000000; stroke-linecap:round; stroke-linejoin:round; stroke-width:4; stroke-opacity:1; fill:none" points="275.136,254.404 294.034,254.404 "/>
<path clip-path="url(#clip950)" d="M227.192 1432.59 Q223.581 1432.59 221.752 1436.15 Q219.947 1439.69 219.947 1446.82 Q219.947 1453.93 221.752 1457.49 Q223.581 1461.03 227.192 1461.03 Q230.826 1461.03 232.632 1457.49 Q234.46 1453.93 234.46 1446.82 Q234.46 1439.69 232.632 1436.15 Q230.826 1432.59 227.192 1432.59 M227.192 1428.88 Q233.002 1428.88 236.058 1433.49 Q239.136 1438.07 239.136 1446.82 Q239.136 1455.55 236.058 1460.15 Q233.002 1464.74 227.192 1464.74 Q221.382 1464.74 218.303 1460.15 Q215.248 1455.55 215.248 1446.82 Q215.248 1438.07 218.303 1433.49 Q221.382 1428.88 227.192 1428.88 Z" fill="#000000" fill-rule="nonzero" fill-opacity="1" /><path clip-path="url(#clip950)" d="M54.5569 1228.1 L62.1958 1228.1 L62.1958 1201.74 L53.8856 1203.4 L53.8856 1199.14 L62.1495 1197.48 L66.8254 1197.48 L66.8254 1228.1 L74.4642 1228.1 L74.4642 1232.04 L54.5569 1232.04 L54.5569 1228.1 Z" fill="#000000" fill-rule="nonzero" fill-opacity="1" /><path clip-path="url(#clip950)" d="M83.9086 1226.16 L88.7928 1226.16 L88.7928 1232.04 L83.9086 1232.04 L83.9086 1226.16 Z" fill="#000000" fill-rule="nonzero" fill-opacity="1" /><path clip-path="url(#clip950)" d="M108.978 1200.56 Q105.367 1200.56 103.538 1204.12 Q101.733 1207.66 101.733 1214.79 Q101.733 1221.9 103.538 1225.46 Q105.367 1229.01 108.978 1229.01 Q112.612 1229.01 114.418 1225.46 Q116.246 1221.9 116.246 1214.79 Q116.246 1207.66 114.418 1204.12 Q112.612 1200.56 108.978 1200.56 M108.978 1196.85 Q114.788 1196.85 117.844 1201.46 Q120.922 1206.04 120.922 1214.79 Q120.922 1223.52 117.844 1228.13 Q114.788 1232.71 108.978 1232.71 Q103.168 1232.71 100.089 1228.13 Q97.0335 1223.52 97.0335 1214.79 Q97.0335 1206.04 100.089 1201.46 Q103.168 1196.85 108.978 1196.85 Z" fill="#000000" fill-rule="nonzero" fill-opacity="1" /><path clip-path="url(#clip950)" d="M157.311 1206.58 L146.732 1217.2 L157.311 1227.78 L154.556 1230.58 L143.931 1219.95 L133.306 1230.58 L130.575 1227.78 L141.131 1217.2 L130.575 1206.58 L133.306 1203.77 L143.931 1214.4 L154.556 1203.77 L157.311 1206.58 Z" fill="#000000" fill-rule="nonzero" fill-opacity="1" /><path clip-path="url(#clip950)" d="M169.672 1228.1 L177.311 1228.1 L177.311 1201.74 L169.001 1203.4 L169.001 1199.14 L177.265 1197.48 L181.94 1197.48 L181.94 1228.1 L189.579 1228.1 L189.579 1232.04 L169.672 1232.04 L169.672 1228.1 Z" fill="#000000" fill-rule="nonzero" fill-opacity="1" /><path clip-path="url(#clip950)" d="M209.024 1200.56 Q205.413 1200.56 203.584 1204.12 Q201.778 1207.66 201.778 1214.79 Q201.778 1221.9 203.584 1225.46 Q205.413 1229.01 209.024 1229.01 Q212.658 1229.01 214.463 1225.46 Q216.292 1221.9 216.292 1214.79 Q216.292 1207.66 214.463 1204.12 Q212.658 1200.56 209.024 1200.56 M209.024 1196.85 Q214.834 1196.85 217.889 1201.46 Q220.968 1206.04 220.968 1214.79 Q220.968 1223.52 217.889 1228.13 Q214.834 1232.71 209.024 1232.71 Q203.214 1232.71 200.135 1228.13 Q197.079 1223.52 197.079 1214.79 Q197.079 1206.04 200.135 1201.46 Q203.214 1196.85 209.024 1196.85 Z" fill="#000000" fill-rule="nonzero" fill-opacity="1" /><path clip-path="url(#clip950)" d="M222.153 1176.55 L237.068 1176.55 L237.068 1179.74 L225.632 1179.74 L225.632 1186.63 Q226.46 1186.35 227.287 1186.21 Q228.115 1186.06 228.943 1186.06 Q233.645 1186.06 236.39 1188.64 Q239.136 1191.22 239.136 1195.62 Q239.136 1200.15 236.315 1202.67 Q233.494 1205.17 228.36 1205.17 Q226.592 1205.17 224.748 1204.87 Q222.924 1204.57 220.968 1203.97 L220.968 1200.15 Q222.661 1201.07 224.466 1201.52 Q226.272 1201.98 228.284 1201.98 Q231.538 1201.98 233.438 1200.26 Q235.337 1198.55 235.337 1195.62 Q235.337 1192.68 233.438 1190.97 Q231.538 1189.26 228.284 1189.26 Q226.761 1189.26 225.237 1189.6 Q223.733 1189.94 222.153 1190.65 L222.153 1176.55 Z" fill="#000000" fill-rule="nonzero" fill-opacity="1" /><path clip-path="url(#clip950)" d="M57.7745 989.626 L74.0939 989.626 L74.0939 993.561 L52.1495 993.561 L52.1495 989.626 Q54.8115 986.872 59.3949 982.242 Q64.0013 977.589 65.1819 976.247 Q67.4272 973.723 68.3068 971.987 Q69.2096 970.228 69.2096 968.538 Q69.2096 965.784 67.2652 964.048 Q65.3439 962.311 62.2421 962.311 Q60.043 962.311 57.5893 963.075 Q55.1588 963.839 52.381 965.39 L52.381 960.668 Q55.2051 959.534 57.6588 958.955 Q60.1124 958.376 62.1495 958.376 Q67.5198 958.376 70.7142 961.061 Q73.9087 963.747 73.9087 968.237 Q73.9087 970.367 73.0985 972.288 Q72.3115 974.186 70.205 976.779 Q69.6263 977.45 66.5245 980.668 Q63.4226 983.862 57.7745 989.626 Z" fill="#000000" fill-rule="nonzero" fill-opacity="1" /><path clip-path="url(#clip950)" d="M83.9086 987.682 L88.7928 987.682 L88.7928 993.561 L83.9086 993.561 L83.9086 987.682 Z" fill="#000000" fill-rule="nonzero" fill-opacity="1" /><path clip-path="url(#clip950)" d="M108.978 962.08 Q105.367 962.08 103.538 965.645 Q101.733 969.186 101.733 976.316 Q101.733 983.422 103.538 986.987 Q105.367 990.529 108.978 990.529 Q112.612 990.529 114.418 986.987 Q116.246 983.422 116.246 976.316 Q116.246 969.186 114.418 965.645 Q112.612 962.08 108.978 962.08 M108.978 958.376 Q114.788 958.376 117.844 962.983 Q120.922 967.566 120.922 976.316 Q120.922 985.043 117.844 989.649 Q114.788 994.233 108.978 994.233 Q103.168 994.233 100.089 989.649 Q97.0335 985.043 97.0335 976.316 Q97.0335 967.566 100.089 962.983 Q103.168 958.376 108.978 958.376 Z" fill="#000000" fill-rule="nonzero" fill-opacity="1" /><path clip-path="url(#clip950)" d="M157.311 968.098 L146.732 978.723 L157.311 989.302 L154.556 992.103 L143.931 981.478 L133.306 992.103 L130.575 989.302 L141.131 978.723 L130.575 968.098 L133.306 965.298 L143.931 975.923 L154.556 965.298 L157.311 968.098 Z" fill="#000000" fill-rule="nonzero" fill-opacity="1" /><path clip-path="url(#clip950)" d="M169.672 989.626 L177.311 989.626 L177.311 963.261 L169.001 964.927 L169.001 960.668 L177.265 959.001 L181.94 959.001 L181.94 989.626 L189.579 989.626 L189.579 993.561 L169.672 993.561 L169.672 989.626 Z" fill="#000000" fill-rule="nonzero" fill-opacity="1" /><path clip-path="url(#clip950)" d="M209.024 962.08 Q205.413 962.08 203.584 965.645 Q201.778 969.186 201.778 976.316 Q201.778 983.422 203.584 986.987 Q205.413 990.529 209.024 990.529 Q212.658 990.529 214.463 986.987 Q216.292 983.422 216.292 976.316 Q216.292 969.186 214.463 965.645 Q212.658 962.08 209.024 962.08 M209.024 958.376 Q214.834 958.376 217.889 962.983 Q220.968 967.566 220.968 976.316 Q220.968 985.043 217.889 989.649 Q214.834 994.233 209.024 994.233 Q203.214 994.233 200.135 989.649 Q197.079 985.043 197.079 976.316 Q197.079 967.566 200.135 962.983 Q203.214 958.376 209.024 958.376 Z" fill="#000000" fill-rule="nonzero" fill-opacity="1" /><path clip-path="url(#clip950)" d="M222.153 938.071 L237.068 938.071 L237.068 941.268 L225.632 941.268 L225.632 948.152 Q226.46 947.87 227.287 947.738 Q228.115 947.588 228.943 947.588 Q233.645 947.588 236.39 950.164 Q239.136 952.741 239.136 957.142 Q239.136 961.675 236.315 964.195 Q233.494 966.696 228.36 966.696 Q226.592 966.696 224.748 966.395 Q222.924 966.094 220.968 965.493 L220.968 961.675 Q222.661 962.596 224.466 963.048 Q226.272 963.499 228.284 963.499 Q231.538 963.499 233.438 961.787 Q235.337 960.076 235.337 957.142 Q235.337 954.208 233.438 952.496 Q231.538 950.785 228.284 950.785 Q226.761 950.785 225.237 951.123 Q223.733 951.462 222.153 952.177 L222.153 938.071 Z" fill="#000000" fill-rule="nonzero" fill-opacity="1" /><path clip-path="url(#clip950)" d="M67.9133 736.451 Q71.2698 737.168 73.1448 739.437 Q75.0429 741.705 75.0429 745.038 Q75.0429 750.154 71.5244 752.955 Q68.0059 755.756 61.5245 755.756 Q59.3486 755.756 57.0338 755.316 Q54.7421 754.899 52.2884 754.043 L52.2884 749.529 Q54.2328 750.663 56.5477 751.242 Q58.8625 751.821 61.3856 751.821 Q65.7837 751.821 68.0754 750.085 Q70.3902 748.349 70.3902 745.038 Q70.3902 741.983 68.2374 740.27 Q66.1078 738.534 62.2884 738.534 L58.2606 738.534 L58.2606 734.691 L62.4735 734.691 Q65.9226 734.691 67.7513 733.326 Q69.58 731.937 69.58 729.344 Q69.58 726.682 67.6819 725.27 Q65.8069 723.835 62.2884 723.835 Q60.3671 723.835 58.168 724.252 Q55.969 724.668 53.3301 725.548 L53.3301 721.381 Q55.9921 720.64 58.3069 720.27 Q60.6449 719.9 62.705 719.9 Q68.0291 719.9 71.1309 722.33 Q74.2327 724.738 74.2327 728.858 Q74.2327 731.728 72.5892 733.719 Q70.9457 735.687 67.9133 736.451 Z" fill="#000000" fill-rule="nonzero" fill-opacity="1" /><path clip-path="url(#clip950)" d="M83.9086 749.205 L88.7928 749.205 L88.7928 755.085 L83.9086 755.085 L83.9086 749.205 Z" fill="#000000" fill-rule="nonzero" fill-opacity="1" /><path clip-path="url(#clip950)" d="M108.978 723.603 Q105.367 723.603 103.538 727.168 Q101.733 730.71 101.733 737.839 Q101.733 744.946 103.538 748.511 Q105.367 752.052 108.978 752.052 Q112.612 752.052 114.418 748.511 Q116.246 744.946 116.246 737.839 Q116.246 730.71 114.418 727.168 Q112.612 723.603 108.978 723.603 M108.978 719.9 Q114.788 719.9 117.844 724.506 Q120.922 729.089 120.922 737.839 Q120.922 746.566 117.844 751.173 Q114.788 755.756 108.978 755.756 Q103.168 755.756 100.089 751.173 Q97.0335 746.566 97.0335 737.839 Q97.0335 729.089 100.089 724.506 Q103.168 719.9 108.978 719.9 Z" fill="#000000" fill-rule="nonzero" fill-opacity="1" /><path clip-path="url(#clip950)" d="M157.311 729.622 L146.732 740.247 L157.311 750.825 L154.556 753.626 L143.931 743.001 L133.306 753.626 L130.575 750.825 L141.131 740.247 L130.575 729.622 L133.306 726.821 L143.931 737.446 L154.556 726.821 L157.311 729.622 Z" fill="#000000" fill-rule="nonzero" fill-opacity="1" /><path clip-path="url(#clip950)" d="M169.672 751.15 L177.311 751.15 L177.311 724.784 L169.001 726.451 L169.001 722.191 L177.265 720.525 L181.94 720.525 L181.94 751.15 L189.579 751.15 L189.579 755.085 L169.672 755.085 L169.672 751.15 Z" fill="#000000" fill-rule="nonzero" fill-opacity="1" /><path clip-path="url(#clip950)" d="M209.024 723.603 Q205.413 723.603 203.584 727.168 Q201.778 730.71 201.778 737.839 Q201.778 744.946 203.584 748.511 Q205.413 752.052 209.024 752.052 Q212.658 752.052 214.463 748.511 Q216.292 744.946 216.292 737.839 Q216.292 730.71 214.463 727.168 Q212.658 723.603 209.024 723.603 M209.024 719.9 Q214.834 719.9 217.889 724.506 Q220.968 729.089 220.968 737.839 Q220.968 746.566 217.889 751.173 Q214.834 755.756 209.024 755.756 Q203.214 755.756 200.135 751.173 Q197.079 746.566 197.079 737.839 Q197.079 729.089 200.135 724.506 Q203.214 719.9 209.024 719.9 Z" fill="#000000" fill-rule="nonzero" fill-opacity="1" /><path clip-path="url(#clip950)" d="M222.153 699.594 L237.068 699.594 L237.068 702.792 L225.632 702.792 L225.632 709.675 Q226.46 709.393 227.287 709.261 Q228.115 709.111 228.943 709.111 Q233.645 709.111 236.39 711.688 Q239.136 714.264 239.136 718.665 Q239.136 723.198 236.315 725.718 Q233.494 728.22 228.36 728.22 Q226.592 728.22 224.748 727.919 Q222.924 727.618 220.968 727.016 L220.968 723.198 Q222.661 724.12 224.466 724.571 Q226.272 725.022 228.284 725.022 Q231.538 725.022 233.438 723.311 Q235.337 721.599 235.337 718.665 Q235.337 715.731 233.438 714.02 Q231.538 712.308 228.284 712.308 Q226.761 712.308 225.237 712.647 Q223.733 712.985 222.153 713.7 L222.153 699.594 Z" fill="#000000" fill-rule="nonzero" fill-opacity="1" /><path clip-path="url(#clip950)" d="M66.5939 486.122 L54.7884 504.571 L66.5939 504.571 L66.5939 486.122 M65.367 482.048 L71.2466 482.048 L71.2466 504.571 L76.1772 504.571 L76.1772 508.46 L71.2466 508.46 L71.2466 516.608 L66.5939 516.608 L66.5939 508.46 L50.9921 508.46 L50.9921 503.946 L65.367 482.048 Z" fill="#000000" fill-rule="nonzero" fill-opacity="1" /><path clip-path="url(#clip950)" d="M83.9086 510.728 L88.7928 510.728 L88.7928 516.608 L83.9086 516.608 L83.9086 510.728 Z" fill="#000000" fill-rule="nonzero" fill-opacity="1" /><path clip-path="url(#clip950)" d="M108.978 485.127 Q105.367 485.127 103.538 488.692 Q101.733 492.233 101.733 499.363 Q101.733 506.469 103.538 510.034 Q105.367 513.576 108.978 513.576 Q112.612 513.576 114.418 510.034 Q116.246 506.469 116.246 499.363 Q116.246 492.233 114.418 488.692 Q112.612 485.127 108.978 485.127 M108.978 481.423 Q114.788 481.423 117.844 486.03 Q120.922 490.613 120.922 499.363 Q120.922 508.09 117.844 512.696 Q114.788 517.279 108.978 517.279 Q103.168 517.279 100.089 512.696 Q97.0335 508.09 97.0335 499.363 Q97.0335 490.613 100.089 486.03 Q103.168 481.423 108.978 481.423 Z" fill="#000000" fill-rule="nonzero" fill-opacity="1" /><path clip-path="url(#clip950)" d="M157.311 491.145 L146.732 501.77 L157.311 512.349 L154.556 515.15 L143.931 504.525 L133.306 515.15 L130.575 512.349 L141.131 501.77 L130.575 491.145 L133.306 488.344 L143.931 498.969 L154.556 488.344 L157.311 491.145 Z" fill="#000000" fill-rule="nonzero" fill-opacity="1" /><path clip-path="url(#clip950)" d="M169.672 512.673 L177.311 512.673 L177.311 486.307 L169.001 487.974 L169.001 483.715 L177.265 482.048 L181.94 482.048 L181.94 512.673 L189.579 512.673 L189.579 516.608 L169.672 516.608 L169.672 512.673 Z" fill="#000000" fill-rule="nonzero" fill-opacity="1" /><path clip-path="url(#clip950)" d="M209.024 485.127 Q205.413 485.127 203.584 488.692 Q201.778 492.233 201.778 499.363 Q201.778 506.469 203.584 510.034 Q205.413 513.576 209.024 513.576 Q212.658 513.576 214.463 510.034 Q216.292 506.469 216.292 499.363 Q216.292 492.233 214.463 488.692 Q212.658 485.127 209.024 485.127 M209.024 481.423 Q214.834 481.423 217.889 486.03 Q220.968 490.613 220.968 499.363 Q220.968 508.09 217.889 512.696 Q214.834 517.279 209.024 517.279 Q203.214 517.279 200.135 512.696 Q197.079 508.09 197.079 499.363 Q197.079 490.613 200.135 486.03 Q203.214 481.423 209.024 481.423 Z" fill="#000000" fill-rule="nonzero" fill-opacity="1" /><path clip-path="url(#clip950)" d="M222.153 461.118 L237.068 461.118 L237.068 464.315 L225.632 464.315 L225.632 471.199 Q226.46 470.917 227.287 470.785 Q228.115 470.634 228.943 470.634 Q233.645 470.634 236.39 473.211 Q239.136 475.788 239.136 480.189 Q239.136 484.721 236.315 487.242 Q233.494 489.743 228.36 489.743 Q226.592 489.743 224.748 489.442 Q222.924 489.141 220.968 488.539 L220.968 484.721 Q222.661 485.643 224.466 486.094 Q226.272 486.546 228.284 486.546 Q231.538 486.546 233.438 484.834 Q235.337 483.123 235.337 480.189 Q235.337 477.255 233.438 475.543 Q231.538 473.832 228.284 473.832 Q226.761 473.832 225.237 474.17 Q223.733 474.509 222.153 475.223 L222.153 461.118 Z" fill="#000000" fill-rule="nonzero" fill-opacity="1" /><path clip-path="url(#clip950)" d="M53.793 243.571 L72.1494 243.571 L72.1494 247.507 L58.0754 247.507 L58.0754 255.979 Q59.0939 255.632 60.1124 255.47 Q61.131 255.284 62.1495 255.284 Q67.9365 255.284 71.3161 258.456 Q74.6957 261.627 74.6957 267.044 Q74.6957 272.622 71.2235 275.724 Q67.7513 278.803 61.4319 278.803 Q59.256 278.803 56.9875 278.432 Q54.7421 278.062 52.3347 277.321 L52.3347 272.622 Q54.418 273.756 56.6402 274.312 Q58.8625 274.868 61.3393 274.868 Q65.3439 274.868 67.6819 272.761 Q70.0198 270.655 70.0198 267.044 Q70.0198 263.432 67.6819 261.326 Q65.3439 259.22 61.3393 259.22 Q59.4643 259.22 57.5893 259.636 Q55.7375 260.053 53.793 260.932 L53.793 243.571 Z" fill="#000000" fill-rule="nonzero" fill-opacity="1" /><path clip-path="url(#clip950)" d="M83.9086 272.252 L88.7928 272.252 L88.7928 278.131 L83.9086 278.131 L83.9086 272.252 Z" fill="#000000" fill-rule="nonzero" fill-opacity="1" /><path clip-path="url(#clip950)" d="M108.978 246.65 Q105.367 246.65 103.538 250.215 Q101.733 253.757 101.733 260.886 Q101.733 267.993 103.538 271.557 Q105.367 275.099 108.978 275.099 Q112.612 275.099 114.418 271.557 Q116.246 267.993 116.246 260.886 Q116.246 253.757 114.418 250.215 Q112.612 246.65 108.978 246.65 M108.978 242.946 Q114.788 242.946 117.844 247.553 Q120.922 252.136 120.922 260.886 Q120.922 269.613 117.844 274.219 Q114.788 278.803 108.978 278.803 Q103.168 278.803 100.089 274.219 Q97.0335 269.613 97.0335 260.886 Q97.0335 252.136 100.089 247.553 Q103.168 242.946 108.978 242.946 Z" fill="#000000" fill-rule="nonzero" fill-opacity="1" /><path clip-path="url(#clip950)" d="M157.311 252.669 L146.732 263.294 L157.311 273.872 L154.556 276.673 L143.931 266.048 L133.306 276.673 L130.575 273.872 L141.131 263.294 L130.575 252.669 L133.306 249.868 L143.931 260.493 L154.556 249.868 L157.311 252.669 Z" fill="#000000" fill-rule="nonzero" fill-opacity="1" /><path clip-path="url(#clip950)" d="M169.672 274.196 L177.311 274.196 L177.311 247.831 L169.001 249.497 L169.001 245.238 L177.265 243.571 L181.94 243.571 L181.94 274.196 L189.579 274.196 L189.579 278.131 L169.672 278.131 L169.672 274.196 Z" fill="#000000" fill-rule="nonzero" fill-opacity="1" /><path clip-path="url(#clip950)" d="M209.024 246.65 Q205.413 246.65 203.584 250.215 Q201.778 253.757 201.778 260.886 Q201.778 267.993 203.584 271.557 Q205.413 275.099 209.024 275.099 Q212.658 275.099 214.463 271.557 Q216.292 267.993 216.292 260.886 Q216.292 253.757 214.463 250.215 Q212.658 246.65 209.024 246.65 M209.024 242.946 Q214.834 242.946 217.889 247.553 Q220.968 252.136 220.968 260.886 Q220.968 269.613 217.889 274.219 Q214.834 278.803 209.024 278.803 Q203.214 278.803 200.135 274.219 Q197.079 269.613 197.079 260.886 Q197.079 252.136 200.135 247.553 Q203.214 242.946 209.024 242.946 Z" fill="#000000" fill-rule="nonzero" fill-opacity="1" /><path clip-path="url(#clip950)" d="M222.153 222.641 L237.068 222.641 L237.068 225.838 L225.632 225.838 L225.632 232.722 Q226.46 232.44 227.287 232.308 Q228.115 232.158 228.943 232.158 Q233.645 232.158 236.39 234.734 Q239.136 237.311 239.136 241.712 Q239.136 246.245 236.315 248.765 Q233.494 251.266 228.36 251.266 Q226.592 251.266 224.748 250.966 Q222.924 250.665 220.968 250.063 L220.968 246.245 Q222.661 247.166 224.466 247.618 Q226.272 248.069 228.284 248.069 Q231.538 248.069 233.438 246.358 Q235.337 244.646 235.337 241.712 Q235.337 238.778 233.438 237.067 Q231.538 235.355 228.284 235.355 Q226.761 235.355 225.237 235.694 Q223.733 236.032 222.153 236.747 L222.153 222.641 Z" fill="#000000" fill-rule="nonzero" fill-opacity="1" /><polyline clip-path="url(#clip952)" style="stroke:#009af9; stroke-linecap:round; stroke-linejoin:round; stroke-width:4; stroke-opacity:1; fill:none" points="333.937,87.9763 353.537,88.6683 373.137,90.7422 392.737,94.1916 412.338,99.0061 431.938,105.171 451.538,112.668 471.138,121.473 490.738,131.561 510.339,142.902 529.939,155.46 549.539,169.201 569.139,184.081 588.739,200.06 608.34,217.089 627.94,235.121 647.54,254.105 667.14,273.986 686.74,294.71 706.34,316.22 725.941,338.458 745.541,361.365 765.141,384.88 784.741,408.944 804.341,433.496 823.942,458.473 843.542,483.817 863.142,509.466 882.742,535.36 902.342,561.442 921.942,587.652 941.543,613.333 961.143,637.902 980.743,661.411 1000.34,683.911 1019.94,705.451 1039.54,726.075 1059.14,745.826 1078.74,764.744 1098.34,782.869 1117.94,800.236 1137.54,815.887 1157.14,828.95 1176.74,839.569 1196.35,847.858 1215.95,853.901 1235.55,857.759 1255.15,859.466 1274.75,859.029 1294.35,856.436 1313.95,851.643 1333.55,846.506 1353.15,842.957 1372.75,841.042 1392.35,840.792 1411.95,842.219 1431.55,845.318 1451.15,850.068 1470.75,856.426 1490.35,864.338 1509.95,873.731 1529.55,883.76 1549.15,893.637 1568.75,903.362 1588.35,912.937 1607.95,922.364 1627.55,931.642 1647.15,940.774 1666.75,949.76 1686.35,958.602 1705.95,967.302 1725.55,975.758 1745.15,983.878 1764.75,991.679 1784.35,999.171 1803.95,1006.37 1823.55,1013.29 1843.15,1019.93 1862.75,1026.32 1882.35,1032.45 1901.95,1038.34 1921.55,1044.25 1941.15,1050.33 1960.75,1056.87 1980.35,1064.24 1999.95,1072.97 2019.55,1083.75 2039.15,1097.46 2058.75,1115.12 2078.35,1137.76 2097.95,1166.36 2117.55,1201.07 2137.15,1241.1 2156.75,1284.15 2176.35,1326.6 2195.95,1364.55 2215.55,1395.08 2235.15,1417.2 2254.75,1431.78 2274.36,1440.65 2293.96,1445.72 "/>
<path clip-path="url(#clip950)" d="M2023.31 198.898 L2283.5 198.898 L2283.5 95.2176 L2023.31 95.2176  Z" fill="#ffffff" fill-rule="evenodd" fill-opacity="1"/>
<polyline clip-path="url(#clip950)" style="stroke:#000000; stroke-linecap:round; stroke-linejoin:round; stroke-width:4; stroke-opacity:1; fill:none" points="2023.31,198.898 2283.5,198.898 2283.5,95.2176 2023.31,95.2176 2023.31,198.898 "/>
<polyline clip-path="url(#clip950)" style="stroke:#009af9; stroke-linecap:round; stroke-linejoin:round; stroke-width:4; stroke-opacity:1; fill:none" points="2046.39,147.058 2184.9,147.058 "/>
<path clip-path="url(#clip950)" d="M2221.83 166.745 Q2220.02 171.375 2218.31 172.787 Q2216.6 174.199 2213.73 174.199 L2210.32 174.199 L2210.32 170.634 L2212.82 170.634 Q2214.58 170.634 2215.56 169.8 Q2216.53 168.967 2217.71 165.865 L2218.47 163.921 L2207.99 138.412 L2212.5 138.412 L2220.6 158.689 L2228.7 138.412 L2233.22 138.412 L2221.83 166.745 Z" fill="#000000" fill-rule="nonzero" fill-opacity="1" /><path clip-path="url(#clip950)" d="M2240.51 160.402 L2248.15 160.402 L2248.15 134.037 L2239.84 135.703 L2239.84 131.444 L2248.1 129.778 L2252.78 129.778 L2252.78 160.402 L2260.42 160.402 L2260.42 164.338 L2240.51 164.338 L2240.51 160.402 Z" fill="#000000" fill-rule="nonzero" fill-opacity="1" /></svg>
