<?xml version="1.0" encoding="utf-8"?>
<svg xmlns="http://www.w3.org/2000/svg" xmlns:xlink="http://www.w3.org/1999/xlink" width="600" height="400" viewBox="0 0 2400 1600">
<defs>
  <clipPath id="clip430">
    <rect x="0" y="0" width="2400" height="1600"/>
  </clipPath>
</defs>
<path clip-path="url(#clip430)" d="M0 1600 L2400 1600 L2400 0 L0 0  Z" fill="#ffffff" fill-rule="evenodd" fill-opacity="1"/>
<defs>
  <clipPath id="clip431">
    <rect x="480" y="0" width="1681" height="1600"/>
  </clipPath>
</defs>
<path clip-path="url(#clip430)" d="M398.884 1362.7 L2352.76 1362.7 L2352.76 47.2441 L398.884 47.2441  Z" fill="#ffffff" fill-rule="evenodd" fill-opacity="1"/>
<defs>
  <clipPath id="clip432">
    <rect x="398" y="47" width="1955" height="1316"/>
  </clipPath>
</defs>
<polyline clip-path="url(#clip432)" style="stroke:#000000; stroke-linecap:round; stroke-linejoin:round; stroke-width:2; stroke-opacity:0.1; fill:none" points="398.884,1362.7 398.884,47.2441 "/>
<polyline clip-path="url(#clip432)" style="stroke:#000000; stroke-linecap:round; stroke-linejoin:round; stroke-width:2; stroke-opacity:0.1; fill:none" points="789.659,1362.7 789.659,47.2441 "/>
<polyline clip-path="url(#clip432)" style="stroke:#000000; stroke-linecap:round; stroke-linejoin:round; stroke-width:2; stroke-opacity:0.1; fill:none" points="1180.43,1362.7 1180.43,47.2441 "/>
<polyline clip-path="url(#clip432)" style="stroke:#000000; stroke-linecap:round; stroke-linejoin:round; stroke-width:2; stroke-opacity:0.1; fill:none" points="1571.21,1362.7 1571.21,47.2441 "/>
<polyline clip-path="url(#clip432)" style="stroke:#000000; stroke-linecap:round; stroke-linejoin:round; stroke-width:2; stroke-opacity:0.1; fill:none" points="1961.98,1362.7 1961.98,47.2441 "/>
<polyline clip-path="url(#clip432)" style="stroke:#000000; stroke-linecap:round; stroke-linejoin:round; stroke-width:2; stroke-opacity:0.1; fill:none" points="2352.76,1362.7 2352.76,47.2441 "/>
<polyline clip-path="url(#clip432)" style="stroke:#000000; stroke-linecap:round; stroke-linejoin:round; stroke-width:2; stroke-opacity:0.1; fill:none" points="398.884,1325.96 2352.76,1325.96 "/>
<polyline clip-path="url(#clip432)" style="stroke:#000000; stroke-linecap:round; stroke-linejoin:round; stroke-width:2; stroke-opacity:0.1; fill:none" points="398.884,1068.52 2352.76,1068.52 "/>
<polyline clip-path="url(#clip432)" style="stroke:#000000; stroke-linecap:round; stroke-linejoin:round; stroke-width:2; stroke-opacity:0.1; fill:none" points="398.884,811.088 2352.76,811.088 "/>
<polyline clip-path="url(#clip432)" style="stroke:#000000; stroke-linecap:round; stroke-linejoin:round; stroke-width:2; stroke-opacity:0.1; fill:none" points="398.884,553.652 2352.76,553.652 "/>
<polyline clip-path="url(#clip432)" style="stroke:#000000; stroke-linecap:round; stroke-linejoin:round; stroke-width:2; stroke-opacity:0.1; fill:none" points="398.884,296.215 2352.76,296.215 "/>
<polyline clip-path="url(#clip430)" style="stroke:#000000; stroke-linecap:round; stroke-linejoin:round; stroke-width:4; stroke-opacity:1; fill:none" points="398.884,1362.7 2352.76,1362.7 "/>
<polyline clip-path="url(#clip430)" style="stroke:#000000; stroke-linecap:round; stroke-linejoin:round; stroke-width:4; stroke-opacity:1; fill:none" points="398.884,1362.7 398.884,1343.8 "/>
<polyline clip-path="url(#clip430)" style="stroke:#000000; stroke-linecap:round; stroke-linejoin:round; stroke-width:4; stroke-opacity:1; fill:none" points="789.659,1362.7 789.659,1343.8 "/>
<polyline clip-path="url(#clip430)" style="stroke:#000000; stroke-linecap:round; stroke-linejoin:round; stroke-width:4; stroke-opacity:1; fill:none" points="1180.43,1362.7 1180.43,1343.8 "/>
<polyline clip-path="url(#clip430)" style="stroke:#000000; stroke-linecap:round; stroke-linejoin:round; stroke-width:4; stroke-opacity:1; fill:none" points="1571.21,1362.7 1571.21,1343.8 "/>
<polyline clip-path="url(#clip430)" style="stroke:#000000; stroke-linecap:round; stroke-linejoin:round; stroke-width:4; stroke-opacity:1; fill:none" points="1961.98,1362.7 1961.98,1343.8 "/>
<polyline clip-path="url(#clip430)" style="stroke:#000000; stroke-linecap:round; stroke-linejoin:round; stroke-width:4; stroke-opacity:1; fill:none" points="2352.76,1362.7 2352.76,1343.8 "/>
<path clip-path="url(#clip430)" d="M376.269 1393.62 Q372.658 1393.62 370.829 1397.18 Q369.023 1400.72 369.023 1407.85 Q369.023 1414.96 370.829 1418.53 Q372.658 1422.07 376.269 1422.07 Q379.903 1422.07 381.709 1418.53 Q383.537 1414.96 383.537 1407.85 Q383.537 1400.72 381.709 1397.18 Q379.903 1393.62 376.269 1393.62 M376.269 1389.91 Q382.079 1389.91 385.134 1394.52 Q388.213 1399.1 388.213 1407.85 Q388.213 1416.58 385.134 1421.19 Q382.079 1425.77 376.269 1425.77 Q370.459 1425.77 367.38 1421.19 Q364.324 1416.58 364.324 1407.85 Q364.324 1399.1 367.38 1394.52 Q370.459 1389.91 376.269 1389.91 Z" fill="#000000" fill-rule="nonzero" fill-opacity="1" /><path clip-path="url(#clip430)" d="M396.431 1419.22 L401.315 1419.22 L401.315 1425.1 L396.431 1425.1 L396.431 1419.22 Z" fill="#000000" fill-rule="nonzero" fill-opacity="1" /><path clip-path="url(#clip430)" d="M421.5 1393.62 Q417.889 1393.62 416.06 1397.18 Q414.255 1400.72 414.255 1407.85 Q414.255 1414.96 416.06 1418.53 Q417.889 1422.07 421.5 1422.07 Q425.134 1422.07 426.94 1418.53 Q428.769 1414.96 428.769 1407.85 Q428.769 1400.72 426.94 1397.18 Q425.134 1393.62 421.5 1393.62 M421.5 1389.91 Q427.31 1389.91 430.366 1394.52 Q433.444 1399.1 433.444 1407.85 Q433.444 1416.58 430.366 1421.19 Q427.31 1425.77 421.5 1425.77 Q415.69 1425.77 412.611 1421.19 Q409.556 1416.58 409.556 1407.85 Q409.556 1399.1 412.611 1394.52 Q415.69 1389.91 421.5 1389.91 Z" fill="#000000" fill-rule="nonzero" fill-opacity="1" /><path clip-path="url(#clip430)" d="M767.842 1393.62 Q764.231 1393.62 762.402 1397.18 Q760.596 1400.72 760.596 1407.85 Q760.596 1414.96 762.402 1418.53 Q764.231 1422.07 767.842 1422.07 Q771.476 1422.07 773.281 1418.53 Q775.11 1414.96 775.11 1407.85 Q775.11 1400.72 773.281 1397.18 Q771.476 1393.62 767.842 1393.62 M767.842 1389.91 Q773.652 1389.91 776.707 1394.52 Q779.786 1399.1 779.786 1407.85 Q779.786 1416.58 776.707 1421.19 Q773.652 1425.77 767.842 1425.77 Q762.032 1425.77 758.953 1421.19 Q755.897 1416.58 755.897 1407.85 Q755.897 1399.1 758.953 1394.52 Q762.032 1389.91 767.842 1389.91 Z" fill="#000000" fill-rule="nonzero" fill-opacity="1" /><path clip-path="url(#clip430)" d="M788.004 1419.22 L792.888 1419.22 L792.888 1425.1 L788.004 1425.1 L788.004 1419.22 Z" fill="#000000" fill-rule="nonzero" fill-opacity="1" /><path clip-path="url(#clip430)" d="M807.101 1421.16 L823.42 1421.16 L823.42 1425.1 L801.476 1425.1 L801.476 1421.16 Q804.138 1418.41 808.721 1413.78 Q813.328 1409.13 814.508 1407.79 Q816.753 1405.26 817.633 1403.53 Q818.536 1401.77 818.536 1400.08 Q818.536 1397.32 816.591 1395.59 Q814.67 1393.85 811.568 1393.85 Q809.369 1393.85 806.916 1394.61 Q804.485 1395.38 801.707 1396.93 L801.707 1392.21 Q804.531 1391.07 806.985 1390.49 Q809.439 1389.91 811.476 1389.91 Q816.846 1389.91 820.04 1392.6 Q823.235 1395.29 823.235 1399.78 Q823.235 1401.91 822.425 1403.83 Q821.638 1405.72 819.531 1408.32 Q818.953 1408.99 815.851 1412.21 Q812.749 1415.4 807.101 1421.16 Z" fill="#000000" fill-rule="nonzero" fill-opacity="1" /><path clip-path="url(#clip430)" d="M1157.57 1393.62 Q1153.96 1393.62 1152.13 1397.18 Q1150.33 1400.72 1150.33 1407.85 Q1150.33 1414.96 1152.13 1418.53 Q1153.96 1422.07 1157.57 1422.07 Q1161.21 1422.07 1163.01 1418.53 Q1164.84 1414.96 1164.84 1407.85 Q1164.84 1400.72 1163.01 1397.18 Q1161.21 1393.62 1157.57 1393.62 M1157.57 1389.91 Q1163.38 1389.91 1166.44 1394.52 Q1169.52 1399.1 1169.52 1407.85 Q1169.52 1416.58 1166.44 1421.19 Q1163.38 1425.77 1157.57 1425.77 Q1151.76 1425.77 1148.69 1421.19 Q1145.63 1416.58 1145.63 1407.85 Q1145.63 1399.1 1148.69 1394.52 Q1151.76 1389.91 1157.57 1389.91 Z" fill="#000000" fill-rule="nonzero" fill-opacity="1" /><path clip-path="url(#clip430)" d="M1177.74 1419.22 L1182.62 1419.22 L1182.62 1425.1 L1177.74 1425.1 L1177.74 1419.22 Z" fill="#000000" fill-rule="nonzero" fill-opacity="1" /><path clip-path="url(#clip430)" d="M1205.65 1394.61 L1193.85 1413.06 L1205.65 1413.06 L1205.65 1394.61 M1204.43 1390.54 L1210.31 1390.54 L1210.31 1413.06 L1215.24 1413.06 L1215.24 1416.95 L1210.31 1416.95 L1210.31 1425.1 L1205.65 1425.1 L1205.65 1416.95 L1190.05 1416.95 L1190.05 1412.44 L1204.43 1390.54 Z" fill="#000000" fill-rule="nonzero" fill-opacity="1" /><path clip-path="url(#clip430)" d="M1548.51 1393.62 Q1544.9 1393.62 1543.07 1397.18 Q1541.27 1400.72 1541.27 1407.85 Q1541.27 1414.96 1543.07 1418.53 Q1544.9 1422.07 1548.51 1422.07 Q1552.14 1422.07 1553.95 1418.53 Q1555.78 1414.96 1555.78 1407.85 Q1555.78 1400.72 1553.95 1397.18 Q1552.14 1393.62 1548.51 1393.62 M1548.51 1389.91 Q1554.32 1389.91 1557.38 1394.52 Q1560.46 1399.1 1560.46 1407.85 Q1560.46 1416.58 1557.38 1421.19 Q1554.32 1425.77 1548.51 1425.77 Q1542.7 1425.77 1539.62 1421.19 Q1536.57 1416.58 1536.57 1407.85 Q1536.57 1399.1 1539.62 1394.52 Q1542.7 1389.91 1548.51 1389.91 Z" fill="#000000" fill-rule="nonzero" fill-opacity="1" /><path clip-path="url(#clip430)" d="M1568.67 1419.22 L1573.56 1419.22 L1573.56 1425.1 L1568.67 1425.1 L1568.67 1419.22 Z" fill="#000000" fill-rule="nonzero" fill-opacity="1" /><path clip-path="url(#clip430)" d="M1594.32 1405.96 Q1591.17 1405.96 1589.32 1408.11 Q1587.49 1410.26 1587.49 1414.01 Q1587.49 1417.74 1589.32 1419.91 Q1591.17 1422.07 1594.32 1422.07 Q1597.47 1422.07 1599.3 1419.91 Q1601.15 1417.74 1601.15 1414.01 Q1601.15 1410.26 1599.3 1408.11 Q1597.47 1405.96 1594.32 1405.96 M1603.6 1391.3 L1603.6 1395.56 Q1601.84 1394.73 1600.04 1394.29 Q1598.26 1393.85 1596.5 1393.85 Q1591.87 1393.85 1589.41 1396.97 Q1586.98 1400.1 1586.64 1406.42 Q1588 1404.41 1590.06 1403.34 Q1592.12 1402.25 1594.6 1402.25 Q1599.81 1402.25 1602.82 1405.42 Q1605.85 1408.57 1605.85 1414.01 Q1605.85 1419.34 1602.7 1422.55 Q1599.55 1425.77 1594.32 1425.77 Q1588.33 1425.77 1585.15 1421.19 Q1581.98 1416.58 1581.98 1407.85 Q1581.98 1399.66 1585.87 1394.8 Q1589.76 1389.91 1596.31 1389.91 Q1598.07 1389.91 1599.85 1390.26 Q1601.66 1390.61 1603.6 1391.3 Z" fill="#000000" fill-rule="nonzero" fill-opacity="1" /><path clip-path="url(#clip430)" d="M1939.41 1393.62 Q1935.8 1393.62 1933.97 1397.18 Q1932.17 1400.72 1932.17 1407.85 Q1932.17 1414.96 1933.97 1418.53 Q1935.8 1422.07 1939.41 1422.07 Q1943.05 1422.07 1944.85 1418.53 Q1946.68 1414.96 1946.68 1407.85 Q1946.68 1400.72 1944.85 1397.18 Q1943.05 1393.62 1939.41 1393.62 M1939.41 1389.91 Q1945.22 1389.91 1948.28 1394.52 Q1951.36 1399.1 1951.36 1407.85 Q1951.36 1416.58 1948.28 1421.19 Q1945.22 1425.77 1939.41 1425.77 Q1933.6 1425.77 1930.52 1421.19 Q1927.47 1416.58 1927.47 1407.85 Q1927.47 1399.1 1930.52 1394.52 Q1933.6 1389.91 1939.41 1389.91 Z" fill="#000000" fill-rule="nonzero" fill-opacity="1" /><path clip-path="url(#clip430)" d="M1959.57 1419.22 L1964.46 1419.22 L1964.46 1425.1 L1959.57 1425.1 L1959.57 1419.22 Z" fill="#000000" fill-rule="nonzero" fill-opacity="1" /><path clip-path="url(#clip430)" d="M1984.64 1408.69 Q1981.31 1408.69 1979.39 1410.47 Q1977.49 1412.25 1977.49 1415.38 Q1977.49 1418.5 1979.39 1420.29 Q1981.31 1422.07 1984.64 1422.07 Q1987.98 1422.07 1989.9 1420.29 Q1991.82 1418.48 1991.82 1415.38 Q1991.82 1412.25 1989.9 1410.47 Q1988 1408.69 1984.64 1408.69 M1979.97 1406.7 Q1976.96 1405.96 1975.27 1403.9 Q1973.6 1401.84 1973.6 1398.87 Q1973.6 1394.73 1976.54 1392.32 Q1979.5 1389.91 1984.64 1389.91 Q1989.81 1389.91 1992.75 1392.32 Q1995.69 1394.73 1995.69 1398.87 Q1995.69 1401.84 1994 1403.9 Q1992.33 1405.96 1989.34 1406.7 Q1992.72 1407.48 1994.6 1409.78 Q1996.5 1412.07 1996.5 1415.38 Q1996.5 1420.4 1993.42 1423.09 Q1990.36 1425.77 1984.64 1425.77 Q1978.93 1425.77 1975.85 1423.09 Q1972.79 1420.4 1972.79 1415.38 Q1972.79 1412.07 1974.69 1409.78 Q1976.59 1407.48 1979.97 1406.7 M1978.25 1399.31 Q1978.25 1402 1979.92 1403.5 Q1981.61 1405.01 1984.64 1405.01 Q1987.65 1405.01 1989.34 1403.5 Q1991.06 1402 1991.06 1399.31 Q1991.06 1396.63 1989.34 1395.12 Q1987.65 1393.62 1984.64 1393.62 Q1981.61 1393.62 1979.92 1395.12 Q1978.25 1396.63 1978.25 1399.31 Z" fill="#000000" fill-rule="nonzero" fill-opacity="1" /><path clip-path="url(#clip430)" d="M2319.91 1421.16 L2327.55 1421.16 L2327.55 1394.8 L2319.24 1396.47 L2319.24 1392.21 L2327.5 1390.54 L2332.18 1390.54 L2332.18 1421.16 L2339.82 1421.16 L2339.82 1425.1 L2319.91 1425.1 L2319.91 1421.16 Z" fill="#000000" fill-rule="nonzero" fill-opacity="1" /><path clip-path="url(#clip430)" d="M2349.26 1419.22 L2354.14 1419.22 L2354.14 1425.1 L2349.26 1425.1 L2349.26 1419.22 Z" fill="#000000" fill-rule="nonzero" fill-opacity="1" /><path clip-path="url(#clip430)" d="M2374.33 1393.62 Q2370.72 1393.62 2368.89 1397.18 Q2367.08 1400.72 2367.08 1407.85 Q2367.08 1414.96 2368.89 1418.53 Q2370.72 1422.07 2374.33 1422.07 Q2377.96 1422.07 2379.77 1418.53 Q2381.6 1414.96 2381.6 1407.85 Q2381.6 1400.72 2379.77 1397.18 Q2377.96 1393.62 2374.33 1393.62 M2374.33 1389.91 Q2380.14 1389.91 2383.2 1394.52 Q2386.27 1399.1 2386.27 1407.85 Q2386.27 1416.58 2383.2 1421.19 Q2380.14 1425.77 2374.33 1425.77 Q2368.52 1425.77 2365.44 1421.19 Q2362.39 1416.58 2362.39 1407.85 Q2362.39 1399.1 2365.44 1394.52 Q2368.52 1389.91 2374.33 1389.91 Z" fill="#000000" fill-rule="nonzero" fill-opacity="1" /><path clip-path="url(#clip430)" d="M1408.25 1490.33 Q1408.25 1501.16 1402.69 1511.33 Q1397.2 1521.51 1388.56 1527.66 Q1380 1533.8 1371.36 1533.8 Q1361.62 1533.8 1356.57 1523.7 Q1347.43 1560.37 1346.91 1561.33 Q1344.79 1564.47 1341.72 1564.47 Q1339.81 1564.47 1338.64 1563.3 Q1337.47 1562.2 1337.47 1560.45 Q1337.54 1559.86 1337.98 1558.03 L1352.62 1499.11 Q1355.99 1485.42 1366.16 1475.69 Q1376.41 1465.88 1387.39 1465.88 Q1396.1 1465.88 1402.18 1472.39 Q1408.25 1478.91 1408.25 1490.33 M1397.49 1483.89 Q1397.49 1476.57 1394.56 1472.91 Q1391.63 1469.17 1387.1 1469.17 Q1382.92 1469.17 1377.87 1472.54 Q1372.9 1475.91 1368.51 1483.37 Q1366.16 1487.69 1364.48 1493.03 Q1362.8 1498.38 1359.5 1511.55 Q1358.33 1516.82 1358.33 1517.12 Q1358.33 1517.7 1358.62 1519.02 Q1358.99 1520.34 1359.87 1522.39 Q1360.82 1524.36 1362.14 1526.12 Q1363.45 1527.88 1365.87 1529.19 Q1368.29 1530.44 1371.21 1530.44 Q1375.75 1530.44 1380.58 1526.78 Q1385.49 1523.04 1389.07 1516.24 Q1392.07 1510.75 1394.78 1500.43 Q1397.49 1490.03 1397.49 1483.89 Z" fill="#000000" fill-rule="nonzero" fill-opacity="1" /><polyline clip-path="url(#clip430)" style="stroke:#000000; stroke-linecap:round; stroke-linejoin:round; stroke-width:4; stroke-opacity:1; fill:none" points="398.884,1362.7 398.884,47.2441 "/>
<polyline clip-path="url(#clip430)" style="stroke:#000000; stroke-linecap:round; stroke-linejoin:round; stroke-width:4; stroke-opacity:1; fill:none" points="398.884,1325.96 417.782,1325.96 "/>
<polyline clip-path="url(#clip430)" style="stroke:#000000; stroke-linecap:round; stroke-linejoin:round; stroke-width:4; stroke-opacity:1; fill:none" points="398.884,1068.52 417.782,1068.52 "/>
<polyline clip-path="url(#clip430)" style="stroke:#000000; stroke-linecap:round; stroke-linejoin:round; stroke-width:4; stroke-opacity:1; fill:none" points="398.884,811.088 417.782,811.088 "/>
<polyline clip-path="url(#clip430)" style="stroke:#000000; stroke-linecap:round; stroke-linejoin:round; stroke-width:4; stroke-opacity:1; fill:none" points="398.884,553.652 417.782,553.652 "/>
<polyline clip-path="url(#clip430)" style="stroke:#000000; stroke-linecap:round; stroke-linejoin:round; stroke-width:4; stroke-opacity:1; fill:none" points="398.884,296.215 417.782,296.215 "/>
<path clip-path="url(#clip430)" d="M350.94 1311.76 Q347.329 1311.76 345.5 1315.32 Q343.695 1318.87 343.695 1326 Q343.695 1333.1 345.5 1336.67 Q347.329 1340.21 350.94 1340.21 Q354.574 1340.21 356.38 1336.67 Q358.209 1333.1 358.209 1326 Q358.209 1318.87 356.38 1315.32 Q354.574 1311.76 350.94 1311.76 M350.94 1308.06 Q356.75 1308.06 359.806 1312.66 Q362.884 1317.25 362.884 1326 Q362.884 1334.72 359.806 1339.33 Q356.75 1343.91 350.94 1343.91 Q345.13 1343.91 342.051 1339.33 Q338.996 1334.72 338.996 1326 Q338.996 1317.25 342.051 1312.66 Q345.13 1308.06 350.94 1308.06 Z" fill="#000000" fill-rule="nonzero" fill-opacity="1" /><path clip-path="url(#clip430)" d="M181.523 1088.32 L197.842 1088.32 L197.842 1092.25 L175.898 1092.25 L175.898 1088.32 Q178.56 1085.56 183.143 1080.93 Q187.749 1076.28 188.93 1074.94 Q191.175 1072.41 192.055 1070.68 Q192.958 1068.92 192.958 1067.23 Q192.958 1064.47 191.013 1062.74 Q189.092 1061 185.99 1061 Q183.791 1061 181.337 1061.77 Q178.907 1062.53 176.129 1064.08 L176.129 1059.36 Q178.953 1058.22 181.407 1057.65 Q183.86 1057.07 185.898 1057.07 Q191.268 1057.07 194.462 1059.75 Q197.657 1062.44 197.657 1066.93 Q197.657 1069.06 196.847 1070.98 Q196.059 1072.88 193.953 1075.47 Q193.374 1076.14 190.272 1079.36 Q187.171 1082.55 181.523 1088.32 Z" fill="#000000" fill-rule="nonzero" fill-opacity="1" /><path clip-path="url(#clip430)" d="M207.657 1086.37 L212.541 1086.37 L212.541 1092.25 L207.657 1092.25 L207.657 1086.37 Z" fill="#000000" fill-rule="nonzero" fill-opacity="1" /><path clip-path="url(#clip430)" d="M232.726 1060.77 Q229.115 1060.77 227.286 1064.34 Q225.481 1067.88 225.481 1075.01 Q225.481 1082.11 227.286 1085.68 Q229.115 1089.22 232.726 1089.22 Q236.36 1089.22 238.166 1085.68 Q239.994 1082.11 239.994 1075.01 Q239.994 1067.88 238.166 1064.34 Q236.36 1060.77 232.726 1060.77 M232.726 1057.07 Q238.536 1057.07 241.592 1061.67 Q244.67 1066.26 244.67 1075.01 Q244.67 1083.73 241.592 1088.34 Q238.536 1092.92 232.726 1092.92 Q226.916 1092.92 223.837 1088.34 Q220.782 1083.73 220.782 1075.01 Q220.782 1066.26 223.837 1061.67 Q226.916 1057.07 232.726 1057.07 Z" fill="#000000" fill-rule="nonzero" fill-opacity="1" /><path clip-path="url(#clip430)" d="M281.059 1066.79 L270.48 1077.41 L281.059 1087.99 L278.304 1090.79 L267.679 1080.17 L257.055 1090.79 L254.323 1087.99 L264.879 1077.41 L254.323 1066.79 L257.055 1063.99 L267.679 1074.61 L278.304 1063.99 L281.059 1066.79 Z" fill="#000000" fill-rule="nonzero" fill-opacity="1" /><path clip-path="url(#clip430)" d="M293.42 1088.32 L301.059 1088.32 L301.059 1061.95 L292.749 1063.62 L292.749 1059.36 L301.013 1057.69 L305.689 1057.69 L305.689 1088.32 L313.327 1088.32 L313.327 1092.25 L293.42 1092.25 L293.42 1088.32 Z" fill="#000000" fill-rule="nonzero" fill-opacity="1" /><path clip-path="url(#clip430)" d="M332.772 1060.77 Q329.161 1060.77 327.332 1064.34 Q325.526 1067.88 325.526 1075.01 Q325.526 1082.11 327.332 1085.68 Q329.161 1089.22 332.772 1089.22 Q336.406 1089.22 338.212 1085.68 Q340.04 1082.11 340.04 1075.01 Q340.04 1067.88 338.212 1064.34 Q336.406 1060.77 332.772 1060.77 M332.772 1057.07 Q338.582 1057.07 341.637 1061.67 Q344.716 1066.26 344.716 1075.01 Q344.716 1083.73 341.637 1088.34 Q338.582 1092.92 332.772 1092.92 Q326.962 1092.92 323.883 1088.34 Q320.827 1083.73 320.827 1075.01 Q320.827 1066.26 323.883 1061.67 Q326.962 1057.07 332.772 1057.07 Z" fill="#000000" fill-rule="nonzero" fill-opacity="1" /><path clip-path="url(#clip430)" d="M345.901 1036.76 L360.816 1036.76 L360.816 1039.96 L349.38 1039.96 L349.38 1046.84 Q350.208 1046.56 351.036 1046.43 Q351.863 1046.28 352.691 1046.28 Q357.393 1046.28 360.138 1048.86 Q362.884 1051.43 362.884 1055.83 Q362.884 1060.37 360.063 1062.89 Q357.242 1065.39 352.108 1065.39 Q350.34 1065.39 348.496 1065.09 Q346.672 1064.79 344.716 1064.18 L344.716 1060.37 Q346.409 1061.29 348.214 1061.74 Q350.02 1062.19 352.032 1062.19 Q355.286 1062.19 357.186 1060.48 Q359.085 1058.77 359.085 1055.83 Q359.085 1052.9 357.186 1051.19 Q355.286 1049.48 352.032 1049.48 Q350.509 1049.48 348.985 1049.81 Q347.481 1050.15 345.901 1050.87 L345.901 1036.76 Z" fill="#000000" fill-rule="nonzero" fill-opacity="1" /><path clip-path="url(#clip430)" d="M190.342 804.33 L178.536 822.779 L190.342 822.779 L190.342 804.33 M189.115 800.256 L194.995 800.256 L194.995 822.779 L199.925 822.779 L199.925 826.668 L194.995 826.668 L194.995 834.816 L190.342 834.816 L190.342 826.668 L174.74 826.668 L174.74 822.154 L189.115 800.256 Z" fill="#000000" fill-rule="nonzero" fill-opacity="1" /><path clip-path="url(#clip430)" d="M207.657 828.936 L212.541 828.936 L212.541 834.816 L207.657 834.816 L207.657 828.936 Z" fill="#000000" fill-rule="nonzero" fill-opacity="1" /><path clip-path="url(#clip430)" d="M232.726 803.335 Q229.115 803.335 227.286 806.9 Q225.481 810.441 225.481 817.571 Q225.481 824.677 227.286 828.242 Q229.115 831.784 232.726 831.784 Q236.36 831.784 238.166 828.242 Q239.994 824.677 239.994 817.571 Q239.994 810.441 238.166 806.9 Q236.36 803.335 232.726 803.335 M232.726 799.631 Q238.536 799.631 241.592 804.238 Q244.67 808.821 244.67 817.571 Q244.67 826.298 241.592 830.904 Q238.536 835.487 232.726 835.487 Q226.916 835.487 223.837 830.904 Q220.782 826.298 220.782 817.571 Q220.782 808.821 223.837 804.238 Q226.916 799.631 232.726 799.631 Z" fill="#000000" fill-rule="nonzero" fill-opacity="1" /><path clip-path="url(#clip430)" d="M281.059 809.353 L270.48 819.978 L281.059 830.557 L278.304 833.358 L267.679 822.733 L257.055 833.358 L254.323 830.557 L264.879 819.978 L254.323 809.353 L257.055 806.552 L267.679 817.177 L278.304 806.552 L281.059 809.353 Z" fill="#000000" fill-rule="nonzero" fill-opacity="1" /><path clip-path="url(#clip430)" d="M293.42 830.881 L301.059 830.881 L301.059 804.515 L292.749 806.182 L292.749 801.923 L301.013 800.256 L305.689 800.256 L305.689 830.881 L313.327 830.881 L313.327 834.816 L293.42 834.816 L293.42 830.881 Z" fill="#000000" fill-rule="nonzero" fill-opacity="1" /><path clip-path="url(#clip430)" d="M332.772 803.335 Q329.161 803.335 327.332 806.9 Q325.526 810.441 325.526 817.571 Q325.526 824.677 327.332 828.242 Q329.161 831.784 332.772 831.784 Q336.406 831.784 338.212 828.242 Q340.04 824.677 340.04 817.571 Q340.04 810.441 338.212 806.9 Q336.406 803.335 332.772 803.335 M332.772 799.631 Q338.582 799.631 341.637 804.238 Q344.716 808.821 344.716 817.571 Q344.716 826.298 341.637 830.904 Q338.582 835.487 332.772 835.487 Q326.962 835.487 323.883 830.904 Q320.827 826.298 320.827 817.571 Q320.827 808.821 323.883 804.238 Q326.962 799.631 332.772 799.631 Z" fill="#000000" fill-rule="nonzero" fill-opacity="1" /><path clip-path="url(#clip430)" d="M345.901 779.326 L360.816 779.326 L360.816 782.523 L349.38 782.523 L349.38 789.407 Q350.208 789.125 351.036 788.993 Q351.863 788.842 352.691 788.842 Q357.393 788.842 360.138 791.419 Q362.884 793.996 362.884 798.397 Q362.884 802.929 360.063 805.45 Q357.242 807.951 352.108 807.951 Q350.34 807.951 348.496 807.65 Q346.672 807.349 344.716 806.747 L344.716 802.929 Q346.409 803.851 348.214 804.302 Q350.02 804.754 352.032 804.754 Q355.286 804.754 357.186 803.042 Q359.085 801.331 359.085 798.397 Q359.085 795.463 357.186 793.751 Q355.286 792.04 352.032 792.04 Q350.509 792.04 348.985 792.378 Q347.481 792.717 345.901 793.431 L345.901 779.326 Z" fill="#000000" fill-rule="nonzero" fill-opacity="1" /><path clip-path="url(#clip430)" d="M188.073 558.236 Q184.925 558.236 183.073 560.389 Q181.245 562.542 181.245 566.292 Q181.245 570.018 183.073 572.194 Q184.925 574.347 188.073 574.347 Q191.222 574.347 193.05 572.194 Q194.902 570.018 194.902 566.292 Q194.902 562.542 193.05 560.389 Q191.222 558.236 188.073 558.236 M197.356 543.583 L197.356 547.843 Q195.597 547.009 193.791 546.57 Q192.009 546.13 190.249 546.13 Q185.62 546.13 183.166 549.255 Q180.735 552.38 180.388 558.699 Q181.754 556.685 183.814 555.62 Q185.874 554.532 188.351 554.532 Q193.56 554.532 196.569 557.704 Q199.601 560.852 199.601 566.292 Q199.601 571.616 196.453 574.833 Q193.305 578.051 188.073 578.051 Q182.078 578.051 178.907 573.468 Q175.736 568.861 175.736 560.134 Q175.736 551.94 179.624 547.079 Q183.513 542.195 190.064 542.195 Q191.823 542.195 193.606 542.542 Q195.411 542.889 197.356 543.583 Z" fill="#000000" fill-rule="nonzero" fill-opacity="1" /><path clip-path="url(#clip430)" d="M207.657 571.5 L212.541 571.5 L212.541 577.38 L207.657 577.38 L207.657 571.5 Z" fill="#000000" fill-rule="nonzero" fill-opacity="1" /><path clip-path="url(#clip430)" d="M232.726 545.898 Q229.115 545.898 227.286 549.463 Q225.481 553.005 225.481 560.134 Q225.481 567.241 227.286 570.806 Q229.115 574.347 232.726 574.347 Q236.36 574.347 238.166 570.806 Q239.994 567.241 239.994 560.134 Q239.994 553.005 238.166 549.463 Q236.36 545.898 232.726 545.898 M232.726 542.195 Q238.536 542.195 241.592 546.801 Q244.67 551.384 244.67 560.134 Q244.67 568.861 241.592 573.468 Q238.536 578.051 232.726 578.051 Q226.916 578.051 223.837 573.468 Q220.782 568.861 220.782 560.134 Q220.782 551.384 223.837 546.801 Q226.916 542.195 232.726 542.195 Z" fill="#000000" fill-rule="nonzero" fill-opacity="1" /><path clip-path="url(#clip430)" d="M281.059 551.917 L270.48 562.542 L281.059 573.12 L278.304 575.921 L267.679 565.296 L257.055 575.921 L254.323 573.12 L264.879 562.542 L254.323 551.917 L257.055 549.116 L267.679 559.741 L278.304 549.116 L281.059 551.917 Z" fill="#000000" fill-rule="nonzero" fill-opacity="1" /><path clip-path="url(#clip430)" d="M293.42 573.444 L301.059 573.444 L301.059 547.079 L292.749 548.745 L292.749 544.486 L301.013 542.82 L305.689 542.82 L305.689 573.444 L313.327 573.444 L313.327 577.38 L293.42 577.38 L293.42 573.444 Z" fill="#000000" fill-rule="nonzero" fill-opacity="1" /><path clip-path="url(#clip430)" d="M332.772 545.898 Q329.161 545.898 327.332 549.463 Q325.526 553.005 325.526 560.134 Q325.526 567.241 327.332 570.806 Q329.161 574.347 332.772 574.347 Q336.406 574.347 338.212 570.806 Q340.04 567.241 340.04 560.134 Q340.04 553.005 338.212 549.463 Q336.406 545.898 332.772 545.898 M332.772 542.195 Q338.582 542.195 341.637 546.801 Q344.716 551.384 344.716 560.134 Q344.716 568.861 341.637 573.468 Q338.582 578.051 332.772 578.051 Q326.962 578.051 323.883 573.468 Q320.827 568.861 320.827 560.134 Q320.827 551.384 323.883 546.801 Q326.962 542.195 332.772 542.195 Z" fill="#000000" fill-rule="nonzero" fill-opacity="1" /><path clip-path="url(#clip430)" d="M345.901 521.889 L360.816 521.889 L360.816 525.086 L349.38 525.086 L349.38 531.97 Q350.208 531.688 351.036 531.556 Q351.863 531.406 352.691 531.406 Q357.393 531.406 360.138 533.983 Q362.884 536.559 362.884 540.96 Q362.884 545.493 360.063 548.013 Q357.242 550.515 352.108 550.515 Q350.34 550.515 348.496 550.214 Q346.672 549.913 344.716 549.311 L344.716 545.493 Q346.409 546.414 348.214 546.866 Q350.02 547.317 352.032 547.317 Q355.286 547.317 357.186 545.606 Q359.085 543.894 359.085 540.96 Q359.085 538.026 357.186 536.315 Q355.286 534.603 352.032 534.603 Q350.509 534.603 348.985 534.942 Q347.481 535.28 345.901 535.995 L345.901 521.889 Z" fill="#000000" fill-rule="nonzero" fill-opacity="1" /><path clip-path="url(#clip430)" d="M187.495 303.531 Q184.161 303.531 182.24 305.314 Q180.342 307.096 180.342 310.221 Q180.342 313.346 182.24 315.128 Q184.161 316.911 187.495 316.911 Q190.828 316.911 192.749 315.128 Q194.671 313.323 194.671 310.221 Q194.671 307.096 192.749 305.314 Q190.851 303.531 187.495 303.531 M182.819 301.54 Q179.81 300.8 178.12 298.739 Q176.453 296.679 176.453 293.716 Q176.453 289.573 179.393 287.165 Q182.356 284.758 187.495 284.758 Q192.657 284.758 195.597 287.165 Q198.536 289.573 198.536 293.716 Q198.536 296.679 196.847 298.739 Q195.18 300.8 192.194 301.54 Q195.573 302.327 197.448 304.619 Q199.347 306.911 199.347 310.221 Q199.347 315.244 196.268 317.929 Q193.212 320.614 187.495 320.614 Q181.777 320.614 178.698 317.929 Q175.643 315.244 175.643 310.221 Q175.643 306.911 177.541 304.619 Q179.439 302.327 182.819 301.54 M181.106 294.156 Q181.106 296.841 182.773 298.346 Q184.462 299.851 187.495 299.851 Q190.504 299.851 192.194 298.346 Q193.907 296.841 193.907 294.156 Q193.907 291.471 192.194 289.966 Q190.504 288.462 187.495 288.462 Q184.462 288.462 182.773 289.966 Q181.106 291.471 181.106 294.156 Z" fill="#000000" fill-rule="nonzero" fill-opacity="1" /><path clip-path="url(#clip430)" d="M207.657 314.063 L212.541 314.063 L212.541 319.943 L207.657 319.943 L207.657 314.063 Z" fill="#000000" fill-rule="nonzero" fill-opacity="1" /><path clip-path="url(#clip430)" d="M232.726 288.462 Q229.115 288.462 227.286 292.027 Q225.481 295.568 225.481 302.698 Q225.481 309.804 227.286 313.369 Q229.115 316.911 232.726 316.911 Q236.36 316.911 238.166 313.369 Q239.994 309.804 239.994 302.698 Q239.994 295.568 238.166 292.027 Q236.36 288.462 232.726 288.462 M232.726 284.758 Q238.536 284.758 241.592 289.365 Q244.67 293.948 244.67 302.698 Q244.67 311.425 241.592 316.031 Q238.536 320.614 232.726 320.614 Q226.916 320.614 223.837 316.031 Q220.782 311.425 220.782 302.698 Q220.782 293.948 223.837 289.365 Q226.916 284.758 232.726 284.758 Z" fill="#000000" fill-rule="nonzero" fill-opacity="1" /><path clip-path="url(#clip430)" d="M281.059 294.48 L270.48 305.105 L281.059 315.684 L278.304 318.485 L267.679 307.86 L257.055 318.485 L254.323 315.684 L264.879 305.105 L254.323 294.48 L257.055 291.679 L267.679 302.304 L278.304 291.679 L281.059 294.48 Z" fill="#000000" fill-rule="nonzero" fill-opacity="1" /><path clip-path="url(#clip430)" d="M293.42 316.008 L301.059 316.008 L301.059 289.642 L292.749 291.309 L292.749 287.05 L301.013 285.383 L305.689 285.383 L305.689 316.008 L313.327 316.008 L313.327 319.943 L293.42 319.943 L293.42 316.008 Z" fill="#000000" fill-rule="nonzero" fill-opacity="1" /><path clip-path="url(#clip430)" d="M332.772 288.462 Q329.161 288.462 327.332 292.027 Q325.526 295.568 325.526 302.698 Q325.526 309.804 327.332 313.369 Q329.161 316.911 332.772 316.911 Q336.406 316.911 338.212 313.369 Q340.04 309.804 340.04 302.698 Q340.04 295.568 338.212 292.027 Q336.406 288.462 332.772 288.462 M332.772 284.758 Q338.582 284.758 341.637 289.365 Q344.716 293.948 344.716 302.698 Q344.716 311.425 341.637 316.031 Q338.582 320.614 332.772 320.614 Q326.962 320.614 323.883 316.031 Q320.827 311.425 320.827 302.698 Q320.827 293.948 323.883 289.365 Q326.962 284.758 332.772 284.758 Z" fill="#000000" fill-rule="nonzero" fill-opacity="1" /><path clip-path="url(#clip430)" d="M345.901 264.453 L360.816 264.453 L360.816 267.65 L349.38 267.65 L349.38 274.534 Q350.208 274.252 351.036 274.12 Q351.863 273.969 352.691 273.969 Q357.393 273.969 360.138 276.546 Q362.884 279.123 362.884 283.524 Q362.884 288.056 360.063 290.577 Q357.242 293.078 352.108 293.078 Q350.34 293.078 348.496 292.777 Q346.672 292.476 344.716 291.874 L344.716 288.056 Q346.409 288.978 348.214 289.429 Q350.02 289.881 352.032 289.881 Q355.286 289.881 357.186 288.169 Q359.085 286.458 359.085 283.524 Q359.085 280.59 357.186 278.878 Q355.286 277.167 352.032 277.167 Q350.509 277.167 348.985 277.505 Q347.481 277.844 345.901 278.559 L345.901 264.453 Z" fill="#000000" fill-rule="nonzero" fill-opacity="1" /><path clip-path="url(#clip430)" d="M148.533 816.536 L-1.37039 816.536 L-1.37039 793.919 L2.06978 793.919 L2.06978 806.509 L145.093 806.509 L145.093 793.919 L148.533 793.919 L148.533 816.536 Z" fill="#000000" fill-rule="nonzero" fill-opacity="1" /><path clip-path="url(#clip430)" d="M111.057 775.287 L106.446 775.287 L106.446 771.7 Q106.446 763.576 105.129 761.746 Q103.738 759.843 99.3461 759.843 L20.3686 759.843 Q16.0501 759.843 14.7325 761.746 Q13.3418 763.649 13.3418 771.7 L13.3418 775.287 L8.65734 775.287 L8.65734 722.367 Q8.65734 707.215 17.0016 697.115 Q25.3458 687.014 36.5447 687.014 Q47.6704 687.014 55.7218 697.334 Q63.7001 707.581 63.7001 721.196 L63.7001 746.521 L99.3461 746.521 Q103.665 746.521 105.055 744.691 Q106.446 742.788 106.446 734.664 L106.446 731.077 L111.057 731.077 Q110.618 736.347 110.618 753.255 Q110.618 770.017 111.057 775.287 M59.8207 746.96 L59.8207 726.319 Q59.8207 719.585 57.9177 714.681 Q56.0146 709.777 53.7456 707.581 Q51.4033 705.312 47.6704 704.068 Q43.8642 702.751 41.8147 702.604 Q39.6921 702.458 36.5447 702.458 Q33.2509 702.458 31.2014 702.604 Q29.0788 702.751 25.3458 704.068 Q21.5397 705.312 19.2706 707.581 Q16.9284 709.777 15.1717 714.681 Q13.3418 719.512 13.3418 726.319 L13.3418 739.641 Q13.3418 744.765 14.3666 745.863 Q15.3913 746.96 19.3438 746.96 L59.8207 746.96 Z" fill="#000000" fill-rule="nonzero" fill-opacity="1" /><path clip-path="url(#clip430)" d="M96.7843 661.8 Q84.0483 661.8 77.3144 646.795 Q72.9959 637.792 71.8979 619.2 L66.4083 619.2 Q57.1125 619.2 52.2085 624.104 Q47.2312 628.935 47.2312 635.083 Q47.2312 646.063 54.1115 651.333 Q54.2579 646.868 56.527 645.257 Q58.7228 643.647 60.9919 643.647 Q63.9929 643.647 65.9691 645.55 Q67.8722 647.38 67.8722 650.528 Q67.8722 653.529 66.0423 655.505 Q64.1393 657.481 60.8455 657.481 Q53.526 657.481 48.6951 650.894 Q43.8642 644.233 43.8642 634.791 Q43.8642 622.494 52.1353 614.296 Q54.6971 611.734 57.9909 610.49 Q61.2847 609.172 63.4805 609.026 Q65.6032 608.88 69.8485 608.88 L99.7853 608.88 Q100.664 608.88 102.128 608.587 Q103.591 608.294 105.495 606.976 Q107.324 605.586 107.324 603.317 Q107.324 597.9 97.7358 597.973 L89.3184 597.973 L89.3184 594.167 L97.7358 594.167 Q105.714 594.167 108.861 598.413 Q111.936 602.585 111.936 606.464 Q111.936 611.441 108.276 614.589 Q104.616 617.736 99.6389 618.175 Q105.348 620.444 109.081 625.641 Q112.741 630.765 112.741 637.792 Q112.741 643.208 111.35 648.332 Q110.033 653.382 106.3 657.627 Q102.494 661.8 96.7843 661.8 M96.6379 650.235 Q102.201 650.235 105.787 646.282 Q109.374 642.33 109.374 636.767 Q109.374 630.472 104.543 624.836 Q99.6389 619.2 90.0503 619.2 L75.0453 619.2 Q75.6309 635.815 82.2917 643.062 Q88.8792 650.235 96.6379 650.235 Z" fill="#000000" fill-rule="nonzero" fill-opacity="1" /><path clip-path="url(#clip430)" d="M145.093 587.565 L145.093 574.976 L2.06978 574.976 L2.06978 587.565 L-1.37039 587.565 L-1.37039 564.948 L148.533 564.948 L148.533 587.565 L145.093 587.565 Z" fill="#000000" fill-rule="nonzero" fill-opacity="1" /><polyline clip-path="url(#clip432)" style="stroke:#ff0000; stroke-linecap:round; stroke-linejoin:round; stroke-width:8; stroke-opacity:1; fill:none" points="398.884,84.474 418.423,88.7664 437.962,93.3655 457.501,98.4789 477.039,104.108 496.578,110.239 516.117,116.857 535.655,123.945 555.194,131.49 574.733,139.476 594.272,147.888 613.81,156.715 633.349,165.943 652.888,175.559 672.426,185.551 691.965,195.907 711.504,206.616 731.043,217.666 750.581,229.046 770.12,240.744 789.659,252.75 809.197,265.053 828.736,277.642 848.275,290.506 867.814,303.635 887.352,317.018 906.891,330.644 926.43,344.503 945.968,358.585 965.507,372.878 985.046,387.372 1004.58,402.057 1024.12,416.922 1043.66,431.957 1063.2,447.151 1082.74,462.494 1102.28,477.975 1121.82,493.584 1141.36,509.309 1160.89,525.14 1180.43,541.067 1199.97,557.079 1219.51,573.165 1239.05,589.314 1258.59,605.516 1278.13,621.759 1297.67,638.033 1317.2,654.326 1336.74,670.628 1356.28,686.928 1375.82,703.214 1395.36,719.475 1414.9,735.7 1434.44,751.877 1453.98,767.996 1473.51,784.044 1493.05,800.01 1512.59,815.882 1532.13,831.649 1551.67,847.299 1571.21,862.82 1590.75,878.199 1610.28,893.425 1629.82,908.485 1649.36,923.367 1668.9,938.058 1688.44,952.546 1707.98,966.818 1727.52,980.861 1747.06,994.661 1766.59,1008.21 1786.13,1021.48 1805.67,1034.47 1825.21,1047.17 1844.75,1059.55 1864.29,1071.61 1883.83,1083.33 1903.37,1094.69 1922.9,1105.68 1942.44,1116.28 1961.98,1126.48 1981.52,1136.25 2001.06,1145.59 2020.6,1154.47 2040.14,1162.87 2059.68,1170.78 2079.21,1178.18 2098.75,1185.05 2118.29,1191.39 2137.83,1197.2 2157.37,1202.56 2176.91,1207.62 2196.45,1212.76 2215.98,1218.8 2235.52,1227.31 2255.06,1240.73 2274.6,1261.07 2294.14,1286.69 2313.68,1308.65 2333.22,1320.83 2352.76,1325.47 "/>
</svg>
