<?xml version="1.0" encoding="utf-8"?>
<svg xmlns="http://www.w3.org/2000/svg" xmlns:xlink="http://www.w3.org/1999/xlink" width="600" height="400" viewBox="0 0 2400 1600">
<defs>
  <clipPath id="clip250">
    <rect x="0" y="0" width="2400" height="1600"/>
  </clipPath>
</defs>
<path clip-path="url(#clip250)" d="M0 1600 L2400 1600 L2400 0 L0 0  Z" fill="#ffffff" fill-rule="evenodd" fill-opacity="1"/>
<defs>
  <clipPath id="clip251">
    <rect x="480" y="0" width="1681" height="1600"/>
  </clipPath>
</defs>
<path clip-path="url(#clip250)" d="M193.936 1486.45 L2352.76 1486.45 L2352.76 47.2441 L193.936 47.2441  Z" fill="#ffffff" fill-rule="evenodd" fill-opacity="1"/>
<defs>
  <clipPath id="clip252">
    <rect x="193" y="47" width="2160" height="1440"/>
  </clipPath>
</defs>
<polyline clip-path="url(#clip252)" style="stroke:#000000; stroke-linecap:round; stroke-linejoin:round; stroke-width:2; stroke-opacity:0.1; fill:none" points="529.176,1486.45 529.176,47.2441 "/>
<polyline clip-path="url(#clip252)" style="stroke:#000000; stroke-linecap:round; stroke-linejoin:round; stroke-width:2; stroke-opacity:0.1; fill:none" points="1056.54,1486.45 1056.54,47.2441 "/>
<polyline clip-path="url(#clip252)" style="stroke:#000000; stroke-linecap:round; stroke-linejoin:round; stroke-width:2; stroke-opacity:0.1; fill:none" points="1583.91,1486.45 1583.91,47.2441 "/>
<polyline clip-path="url(#clip252)" style="stroke:#000000; stroke-linecap:round; stroke-linejoin:round; stroke-width:2; stroke-opacity:0.1; fill:none" points="2111.27,1486.45 2111.27,47.2441 "/>
<polyline clip-path="url(#clip252)" style="stroke:#000000; stroke-linecap:round; stroke-linejoin:round; stroke-width:2; stroke-opacity:0.1; fill:none" points="193.936,1271.31 2352.76,1271.31 "/>
<polyline clip-path="url(#clip252)" style="stroke:#000000; stroke-linecap:round; stroke-linejoin:round; stroke-width:2; stroke-opacity:0.1; fill:none" points="193.936,1007.63 2352.76,1007.63 "/>
<polyline clip-path="url(#clip252)" style="stroke:#000000; stroke-linecap:round; stroke-linejoin:round; stroke-width:2; stroke-opacity:0.1; fill:none" points="193.936,743.946 2352.76,743.946 "/>
<polyline clip-path="url(#clip252)" style="stroke:#000000; stroke-linecap:round; stroke-linejoin:round; stroke-width:2; stroke-opacity:0.1; fill:none" points="193.936,480.264 2352.76,480.264 "/>
<polyline clip-path="url(#clip252)" style="stroke:#000000; stroke-linecap:round; stroke-linejoin:round; stroke-width:2; stroke-opacity:0.1; fill:none" points="193.936,216.581 2352.76,216.581 "/>
<polyline clip-path="url(#clip250)" style="stroke:#000000; stroke-linecap:round; stroke-linejoin:round; stroke-width:4; stroke-opacity:1; fill:none" points="193.936,1486.45 2352.76,1486.45 "/>
<polyline clip-path="url(#clip250)" style="stroke:#000000; stroke-linecap:round; stroke-linejoin:round; stroke-width:4; stroke-opacity:1; fill:none" points="529.176,1486.45 529.176,1467.55 "/>
<polyline clip-path="url(#clip250)" style="stroke:#000000; stroke-linecap:round; stroke-linejoin:round; stroke-width:4; stroke-opacity:1; fill:none" points="1056.54,1486.45 1056.54,1467.55 "/>
<polyline clip-path="url(#clip250)" style="stroke:#000000; stroke-linecap:round; stroke-linejoin:round; stroke-width:4; stroke-opacity:1; fill:none" points="1583.91,1486.45 1583.91,1467.55 "/>
<polyline clip-path="url(#clip250)" style="stroke:#000000; stroke-linecap:round; stroke-linejoin:round; stroke-width:4; stroke-opacity:1; fill:none" points="2111.27,1486.45 2111.27,1467.55 "/>
<path clip-path="url(#clip250)" d="M529.176 1517.37 Q525.565 1517.37 523.737 1520.93 Q521.931 1524.47 521.931 1531.6 Q521.931 1538.71 523.737 1542.27 Q525.565 1545.82 529.176 1545.82 Q532.811 1545.82 534.616 1542.27 Q536.445 1538.71 536.445 1531.6 Q536.445 1524.47 534.616 1520.93 Q532.811 1517.37 529.176 1517.37 M529.176 1513.66 Q534.987 1513.66 538.042 1518.27 Q541.121 1522.85 541.121 1531.6 Q541.121 1540.33 538.042 1544.94 Q534.987 1549.52 529.176 1549.52 Q523.366 1549.52 520.288 1544.94 Q517.232 1540.33 517.232 1531.6 Q517.232 1522.85 520.288 1518.27 Q523.366 1513.66 529.176 1513.66 Z" fill="#000000" fill-rule="nonzero" fill-opacity="1" /><path clip-path="url(#clip250)" d="M1046.82 1514.29 L1065.18 1514.29 L1065.18 1518.22 L1051.1 1518.22 L1051.1 1526.7 Q1052.12 1526.35 1053.14 1526.19 Q1054.16 1526 1055.18 1526 Q1060.96 1526 1064.34 1529.17 Q1067.72 1532.34 1067.72 1537.76 Q1067.72 1543.34 1064.25 1546.44 Q1060.78 1549.52 1054.46 1549.52 Q1052.28 1549.52 1050.01 1549.15 Q1047.77 1548.78 1045.36 1548.04 L1045.36 1543.34 Q1047.44 1544.47 1049.67 1545.03 Q1051.89 1545.58 1054.36 1545.58 Q1058.37 1545.58 1060.71 1543.48 Q1063.05 1541.37 1063.05 1537.76 Q1063.05 1534.15 1060.71 1532.04 Q1058.37 1529.94 1054.36 1529.94 Q1052.49 1529.94 1050.61 1530.35 Q1048.76 1530.77 1046.82 1531.65 L1046.82 1514.29 Z" fill="#000000" fill-rule="nonzero" fill-opacity="1" /><path clip-path="url(#clip250)" d="M1558.59 1544.91 L1566.23 1544.91 L1566.23 1518.55 L1557.92 1520.21 L1557.92 1515.95 L1566.19 1514.29 L1570.86 1514.29 L1570.86 1544.91 L1578.5 1544.91 L1578.5 1548.85 L1558.59 1548.85 L1558.59 1544.91 Z" fill="#000000" fill-rule="nonzero" fill-opacity="1" /><path clip-path="url(#clip250)" d="M1597.94 1517.37 Q1594.33 1517.37 1592.5 1520.93 Q1590.7 1524.47 1590.7 1531.6 Q1590.7 1538.71 1592.5 1542.27 Q1594.33 1545.82 1597.94 1545.82 Q1601.58 1545.82 1603.38 1542.27 Q1605.21 1538.71 1605.21 1531.6 Q1605.21 1524.47 1603.38 1520.93 Q1601.58 1517.37 1597.94 1517.37 M1597.94 1513.66 Q1603.75 1513.66 1606.81 1518.27 Q1609.89 1522.85 1609.89 1531.6 Q1609.89 1540.33 1606.81 1544.94 Q1603.75 1549.52 1597.94 1549.52 Q1592.13 1549.52 1589.06 1544.94 Q1586 1540.33 1586 1531.6 Q1586 1522.85 1589.06 1518.27 Q1592.13 1513.66 1597.94 1513.66 Z" fill="#000000" fill-rule="nonzero" fill-opacity="1" /><path clip-path="url(#clip250)" d="M2086.45 1544.91 L2094.09 1544.91 L2094.09 1518.55 L2085.78 1520.21 L2085.78 1515.95 L2094.05 1514.29 L2098.72 1514.29 L2098.72 1544.91 L2106.36 1544.91 L2106.36 1548.85 L2086.45 1548.85 L2086.45 1544.91 Z" fill="#000000" fill-rule="nonzero" fill-opacity="1" /><path clip-path="url(#clip250)" d="M2115.85 1514.29 L2134.21 1514.29 L2134.21 1518.22 L2120.14 1518.22 L2120.14 1526.7 Q2121.15 1526.35 2122.17 1526.19 Q2123.19 1526 2124.21 1526 Q2130 1526 2133.38 1529.17 Q2136.76 1532.34 2136.76 1537.76 Q2136.76 1543.34 2133.28 1546.44 Q2129.81 1549.52 2123.49 1549.52 Q2121.32 1549.52 2119.05 1549.15 Q2116.8 1548.78 2114.39 1548.04 L2114.39 1543.34 Q2116.48 1544.47 2118.7 1545.03 Q2120.92 1545.58 2123.4 1545.58 Q2127.4 1545.58 2129.74 1543.48 Q2132.08 1541.37 2132.08 1537.76 Q2132.08 1534.15 2129.74 1532.04 Q2127.4 1529.94 2123.4 1529.94 Q2121.52 1529.94 2119.65 1530.35 Q2117.8 1530.77 2115.85 1531.65 L2115.85 1514.29 Z" fill="#000000" fill-rule="nonzero" fill-opacity="1" /><polyline clip-path="url(#clip250)" style="stroke:#000000; stroke-linecap:round; stroke-linejoin:round; stroke-width:4; stroke-opacity:1; fill:none" points="193.936,1486.45 193.936,47.2441 "/>
<polyline clip-path="url(#clip250)" style="stroke:#000000; stroke-linecap:round; stroke-linejoin:round; stroke-width:4; stroke-opacity:1; fill:none" points="193.936,1271.31 212.834,1271.31 "/>
<polyline clip-path="url(#clip250)" style="stroke:#000000; stroke-linecap:round; stroke-linejoin:round; stroke-width:4; stroke-opacity:1; fill:none" points="193.936,1007.63 212.834,1007.63 "/>
<polyline clip-path="url(#clip250)" style="stroke:#000000; stroke-linecap:round; stroke-linejoin:round; stroke-width:4; stroke-opacity:1; fill:none" points="193.936,743.946 212.834,743.946 "/>
<polyline clip-path="url(#clip250)" style="stroke:#000000; stroke-linecap:round; stroke-linejoin:round; stroke-width:4; stroke-opacity:1; fill:none" points="193.936,480.264 212.834,480.264 "/>
<polyline clip-path="url(#clip250)" style="stroke:#000000; stroke-linecap:round; stroke-linejoin:round; stroke-width:4; stroke-opacity:1; fill:none" points="193.936,216.581 212.834,216.581 "/>
<path clip-path="url(#clip250)" d="M50.9921 1271.76 L80.6679 1271.76 L80.6679 1275.7 L50.9921 1275.7 L50.9921 1271.76 Z" fill="#000000" fill-rule="nonzero" fill-opacity="1" /><path clip-path="url(#clip250)" d="M90.8067 1254.03 L109.163 1254.03 L109.163 1257.97 L95.0891 1257.97 L95.0891 1266.44 Q96.1076 1266.09 97.1261 1265.93 Q98.1447 1265.74 99.1632 1265.74 Q104.95 1265.74 108.33 1268.91 Q111.709 1272.09 111.709 1277.5 Q111.709 1283.08 108.237 1286.18 Q104.765 1289.26 98.4456 1289.26 Q96.2697 1289.26 94.0012 1288.89 Q91.7558 1288.52 89.3484 1287.78 L89.3484 1283.08 Q91.4317 1284.22 93.6539 1284.77 Q95.8761 1285.33 98.353 1285.33 Q102.358 1285.33 104.696 1283.22 Q107.033 1281.11 107.033 1277.5 Q107.033 1273.89 104.696 1271.78 Q102.358 1269.68 98.353 1269.68 Q96.478 1269.68 94.603 1270.1 Q92.7512 1270.51 90.8067 1271.39 L90.8067 1254.03 Z" fill="#000000" fill-rule="nonzero" fill-opacity="1" /><path clip-path="url(#clip250)" d="M120.922 1282.71 L125.807 1282.71 L125.807 1288.59 L120.922 1288.59 L120.922 1282.71 Z" fill="#000000" fill-rule="nonzero" fill-opacity="1" /><path clip-path="url(#clip250)" d="M145.992 1257.11 Q142.381 1257.11 140.552 1260.67 Q138.746 1264.22 138.746 1271.35 Q138.746 1278.45 140.552 1282.02 Q142.381 1285.56 145.992 1285.56 Q149.626 1285.56 151.431 1282.02 Q153.26 1278.45 153.26 1271.35 Q153.26 1264.22 151.431 1260.67 Q149.626 1257.11 145.992 1257.11 M145.992 1253.41 Q151.802 1253.41 154.857 1258.01 Q157.936 1262.6 157.936 1271.35 Q157.936 1280.07 154.857 1284.68 Q151.802 1289.26 145.992 1289.26 Q140.181 1289.26 137.103 1284.68 Q134.047 1280.07 134.047 1271.35 Q134.047 1262.6 137.103 1258.01 Q140.181 1253.41 145.992 1253.41 Z" fill="#000000" fill-rule="nonzero" fill-opacity="1" /><path clip-path="url(#clip250)" d="M51.9875 1008.08 L81.6633 1008.08 L81.6633 1012.01 L51.9875 1012.01 L51.9875 1008.08 Z" fill="#000000" fill-rule="nonzero" fill-opacity="1" /><path clip-path="url(#clip250)" d="M95.7836 1020.97 L112.103 1020.97 L112.103 1024.91 L90.1586 1024.91 L90.1586 1020.97 Q92.8206 1018.22 97.4039 1013.59 Q102.01 1008.94 103.191 1007.59 Q105.436 1005.07 106.316 1003.33 Q107.219 1001.57 107.219 999.885 Q107.219 997.13 105.274 995.394 Q103.353 993.658 100.251 993.658 Q98.0521 993.658 95.5984 994.422 Q93.1678 995.186 90.3901 996.737 L90.3901 992.015 Q93.2141 990.881 95.6678 990.302 Q98.1215 989.723 100.159 989.723 Q105.529 989.723 108.723 992.408 Q111.918 995.093 111.918 999.584 Q111.918 1001.71 111.108 1003.64 Q110.321 1005.53 108.214 1008.13 Q107.635 1008.8 104.534 1012.01 Q101.432 1015.21 95.7836 1020.97 Z" fill="#000000" fill-rule="nonzero" fill-opacity="1" /><path clip-path="url(#clip250)" d="M121.918 1019.03 L126.802 1019.03 L126.802 1024.91 L121.918 1024.91 L121.918 1019.03 Z" fill="#000000" fill-rule="nonzero" fill-opacity="1" /><path clip-path="url(#clip250)" d="M137.033 990.348 L155.39 990.348 L155.39 994.283 L141.316 994.283 L141.316 1002.76 Q142.334 1002.41 143.353 1002.25 Q144.371 1002.06 145.39 1002.06 Q151.177 1002.06 154.556 1005.23 Q157.936 1008.4 157.936 1013.82 Q157.936 1019.4 154.464 1022.5 Q150.992 1025.58 144.672 1025.58 Q142.496 1025.58 140.228 1025.21 Q137.982 1024.84 135.575 1024.1 L135.575 1019.4 Q137.658 1020.53 139.881 1021.09 Q142.103 1021.64 144.58 1021.64 Q148.584 1021.64 150.922 1019.54 Q153.26 1017.43 153.26 1013.82 Q153.26 1010.21 150.922 1008.1 Q148.584 1006 144.58 1006 Q142.705 1006 140.83 1006.41 Q138.978 1006.83 137.033 1007.71 L137.033 990.348 Z" fill="#000000" fill-rule="nonzero" fill-opacity="1" /><path clip-path="url(#clip250)" d="M100.76 729.745 Q97.1493 729.745 95.3206 733.309 Q93.515 736.851 93.515 743.981 Q93.515 751.087 95.3206 754.652 Q97.1493 758.194 100.76 758.194 Q104.395 758.194 106.2 754.652 Q108.029 751.087 108.029 743.981 Q108.029 736.851 106.2 733.309 Q104.395 729.745 100.76 729.745 M100.76 726.041 Q106.571 726.041 109.626 730.647 Q112.705 735.231 112.705 743.981 Q112.705 752.707 109.626 757.314 Q106.571 761.897 100.76 761.897 Q94.9502 761.897 91.8715 757.314 Q88.816 752.707 88.816 743.981 Q88.816 735.231 91.8715 730.647 Q94.9502 726.041 100.76 726.041 Z" fill="#000000" fill-rule="nonzero" fill-opacity="1" /><path clip-path="url(#clip250)" d="M120.922 755.346 L125.807 755.346 L125.807 761.226 L120.922 761.226 L120.922 755.346 Z" fill="#000000" fill-rule="nonzero" fill-opacity="1" /><path clip-path="url(#clip250)" d="M145.992 729.745 Q142.381 729.745 140.552 733.309 Q138.746 736.851 138.746 743.981 Q138.746 751.087 140.552 754.652 Q142.381 758.194 145.992 758.194 Q149.626 758.194 151.431 754.652 Q153.26 751.087 153.26 743.981 Q153.26 736.851 151.431 733.309 Q149.626 729.745 145.992 729.745 M145.992 726.041 Q151.802 726.041 154.857 730.647 Q157.936 735.231 157.936 743.981 Q157.936 752.707 154.857 757.314 Q151.802 761.897 145.992 761.897 Q140.181 761.897 137.103 757.314 Q134.047 752.707 134.047 743.981 Q134.047 735.231 137.103 730.647 Q140.181 726.041 145.992 726.041 Z" fill="#000000" fill-rule="nonzero" fill-opacity="1" /><path clip-path="url(#clip250)" d="M95.7836 493.609 L112.103 493.609 L112.103 497.544 L90.1586 497.544 L90.1586 493.609 Q92.8206 490.854 97.4039 486.224 Q102.01 481.572 103.191 480.229 Q105.436 477.706 106.316 475.97 Q107.219 474.21 107.219 472.521 Q107.219 469.766 105.274 468.03 Q103.353 466.294 100.251 466.294 Q98.0521 466.294 95.5984 467.058 Q93.1678 467.822 90.3901 469.373 L90.3901 464.65 Q93.2141 463.516 95.6678 462.937 Q98.1215 462.359 100.159 462.359 Q105.529 462.359 108.723 465.044 Q111.918 467.729 111.918 472.22 Q111.918 474.349 111.108 476.271 Q110.321 478.169 108.214 480.761 Q107.635 481.433 104.534 484.65 Q101.432 487.845 95.7836 493.609 Z" fill="#000000" fill-rule="nonzero" fill-opacity="1" /><path clip-path="url(#clip250)" d="M121.918 491.664 L126.802 491.664 L126.802 497.544 L121.918 497.544 L121.918 491.664 Z" fill="#000000" fill-rule="nonzero" fill-opacity="1" /><path clip-path="url(#clip250)" d="M137.033 462.984 L155.39 462.984 L155.39 466.919 L141.316 466.919 L141.316 475.391 Q142.334 475.044 143.353 474.882 Q144.371 474.697 145.39 474.697 Q151.177 474.697 154.556 477.868 Q157.936 481.039 157.936 486.456 Q157.936 492.034 154.464 495.136 Q150.992 498.215 144.672 498.215 Q142.496 498.215 140.228 497.845 Q137.982 497.474 135.575 496.734 L135.575 492.034 Q137.658 493.169 139.881 493.724 Q142.103 494.28 144.58 494.28 Q148.584 494.28 150.922 492.173 Q153.26 490.067 153.26 486.456 Q153.26 482.845 150.922 480.738 Q148.584 478.632 144.58 478.632 Q142.705 478.632 140.83 479.048 Q138.978 479.465 137.033 480.345 L137.033 462.984 Z" fill="#000000" fill-rule="nonzero" fill-opacity="1" /><path clip-path="url(#clip250)" d="M90.8067 199.301 L109.163 199.301 L109.163 203.237 L95.0891 203.237 L95.0891 211.709 Q96.1076 211.362 97.1261 211.2 Q98.1447 211.014 99.1632 211.014 Q104.95 211.014 108.33 214.186 Q111.709 217.357 111.709 222.774 Q111.709 228.352 108.237 231.454 Q104.765 234.533 98.4456 234.533 Q96.2697 234.533 94.0012 234.162 Q91.7558 233.792 89.3484 233.051 L89.3484 228.352 Q91.4317 229.487 93.6539 230.042 Q95.8761 230.598 98.353 230.598 Q102.358 230.598 104.696 228.491 Q107.033 226.385 107.033 222.774 Q107.033 219.162 104.696 217.056 Q102.358 214.95 98.353 214.95 Q96.478 214.95 94.603 215.366 Q92.7512 215.783 90.8067 216.663 L90.8067 199.301 Z" fill="#000000" fill-rule="nonzero" fill-opacity="1" /><path clip-path="url(#clip250)" d="M120.922 227.982 L125.807 227.982 L125.807 233.861 L120.922 233.861 L120.922 227.982 Z" fill="#000000" fill-rule="nonzero" fill-opacity="1" /><path clip-path="url(#clip250)" d="M145.992 202.38 Q142.381 202.38 140.552 205.945 Q138.746 209.487 138.746 216.616 Q138.746 223.723 140.552 227.287 Q142.381 230.829 145.992 230.829 Q149.626 230.829 151.431 227.287 Q153.26 223.723 153.26 216.616 Q153.26 209.487 151.431 205.945 Q149.626 202.38 145.992 202.38 M145.992 198.676 Q151.802 198.676 154.857 203.283 Q157.936 207.866 157.936 216.616 Q157.936 225.343 154.857 229.949 Q151.802 234.533 145.992 234.533 Q140.181 234.533 137.103 229.949 Q134.047 225.343 134.047 216.616 Q134.047 207.866 137.103 203.283 Q140.181 198.676 145.992 198.676 Z" fill="#000000" fill-rule="nonzero" fill-opacity="1" /><path clip-path="url(#clip252)" d="M914.759 192.056 L930.788 206.064 L1016.94 142.949 L1008.15 123.566 L914.759 192.056  Z" fill="#009af9" fill-rule="evenodd" fill-opacity="1"/>
<polyline clip-path="url(#clip252)" style="stroke:#000000; stroke-linecap:round; stroke-linejoin:round; stroke-width:1; stroke-opacity:1; fill:none" points="914.759,192.056 930.788,206.064 1016.94,142.949 1008.15,123.566 914.759,192.056 "/>
<path clip-path="url(#clip252)" d="M1008.15 123.566 L1016.94 142.949 L1167.68 109.266 L1167.72 87.9763 L1008.15 123.566  Z" fill="#e26f46" fill-rule="evenodd" fill-opacity="1"/>
<polyline clip-path="url(#clip252)" style="stroke:#000000; stroke-linecap:round; stroke-linejoin:round; stroke-width:1; stroke-opacity:1; fill:none" points="1008.15,123.566 1016.94,142.949 1167.68,109.266 1167.72,87.9763 1008.15,123.566 "/>
<path clip-path="url(#clip252)" d="M1339.74 148.356 L1348.65 129.02 L1167.72 87.9763 L1167.68 109.266 L1339.74 148.356  Z" fill="#3da44d" fill-rule="evenodd" fill-opacity="1"/>
<polyline clip-path="url(#clip252)" style="stroke:#000000; stroke-linecap:round; stroke-linejoin:round; stroke-width:1; stroke-opacity:1; fill:none" points="1339.74,148.356 1348.65,129.02 1167.72,87.9763 1167.68,109.266 1339.74,148.356 "/>
<path clip-path="url(#clip252)" d="M1493.62 262.879 L1509.04 248.209 L1348.65 129.02 L1339.74 148.356 L1493.62 262.879  Z" fill="#c271d2" fill-rule="evenodd" fill-opacity="1"/>
<polyline clip-path="url(#clip252)" style="stroke:#000000; stroke-linecap:round; stroke-linejoin:round; stroke-width:1; stroke-opacity:1; fill:none" points="1493.62,262.879 1509.04,248.209 1348.65,129.02 1339.74,148.356 1493.62,262.879 "/>
<path clip-path="url(#clip252)" d="M1600.81 423.091 L1619.79 413.469 L1509.04 248.209 L1493.62 262.879 L1600.81 423.091  Z" fill="#ac8d18" fill-rule="evenodd" fill-opacity="1"/>
<polyline clip-path="url(#clip252)" style="stroke:#000000; stroke-linecap:round; stroke-linejoin:round; stroke-width:1; stroke-opacity:1; fill:none" points="1600.81,423.091 1619.79,413.469 1509.04,248.209 1493.62,262.879 1600.81,423.091 "/>
<path clip-path="url(#clip252)" d="M1649.99 558.486 L1670.58 553.083 L1619.79 413.469 L1600.81 423.091 L1649.99 558.486  Z" fill="#00a9ad" fill-rule="evenodd" fill-opacity="1"/>
<polyline clip-path="url(#clip252)" style="stroke:#000000; stroke-linecap:round; stroke-linejoin:round; stroke-width:1; stroke-opacity:1; fill:none" points="1649.99,558.486 1670.58,553.083 1619.79,413.469 1600.81,423.091 1649.99,558.486 "/>
<path clip-path="url(#clip252)" d="M1674.36 705.081 L1695.58 703.33 L1670.58 553.083 L1649.99 558.486 L1674.36 705.081  Z" fill="#ed5d92" fill-rule="evenodd" fill-opacity="1"/>
<polyline clip-path="url(#clip252)" style="stroke:#000000; stroke-linecap:round; stroke-linejoin:round; stroke-width:1; stroke-opacity:1; fill:none" points="1674.36,705.081 1695.58,703.33 1670.58,553.083 1649.99,558.486 1674.36,705.081 "/>
<path clip-path="url(#clip252)" d="M1674.36 833.764 L1695.58 835.516 L1695.58 703.33 L1674.36 705.081 L1674.36 833.764  Z" fill="#c68125" fill-rule="evenodd" fill-opacity="1"/>
<polyline clip-path="url(#clip252)" style="stroke:#000000; stroke-linecap:round; stroke-linejoin:round; stroke-width:1; stroke-opacity:1; fill:none" points="1674.36,833.764 1695.58,835.516 1695.58,703.33 1674.36,705.081 1674.36,833.764 "/>
<path clip-path="url(#clip252)" d="M1649.99 980.36 L1670.61 985.624 L1695.58 835.516 L1674.36 833.764 L1649.99 980.36  Z" fill="#00a98d" fill-rule="evenodd" fill-opacity="1"/>
<polyline clip-path="url(#clip252)" style="stroke:#000000; stroke-linecap:round; stroke-linejoin:round; stroke-width:1; stroke-opacity:1; fill:none" points="1649.99,980.36 1670.61,985.624 1695.58,835.516 1674.36,833.764 1649.99,980.36 "/>
<path clip-path="url(#clip252)" d="M1609.26 1097.38 L1628.64 1106.16 L1670.61 985.624 L1649.99 980.36 L1609.26 1097.38  Z" fill="#8e971d" fill-rule="evenodd" fill-opacity="1"/>
<polyline clip-path="url(#clip252)" style="stroke:#000000; stroke-linecap:round; stroke-linejoin:round; stroke-width:1; stroke-opacity:1; fill:none" points="1609.26,1097.38 1628.64,1106.16 1670.61,985.624 1649.99,980.36 1609.26,1097.38 "/>
<path clip-path="url(#clip252)" d="M1541.1 1217.5 L1558.39 1229.92 L1628.64 1106.16 L1609.26 1097.38 L1541.1 1217.5  Z" fill="#00a8cb" fill-rule="evenodd" fill-opacity="1"/>
<polyline clip-path="url(#clip252)" style="stroke:#000000; stroke-linecap:round; stroke-linejoin:round; stroke-width:1; stroke-opacity:1; fill:none" points="1541.1,1217.5 1558.39,1229.92 1628.64,1106.16 1609.26,1097.38 1541.1,1217.5 "/>
<path clip-path="url(#clip252)" d="M1454.62 1314.23 L1468.7 1330.2 L1558.39 1229.92 L1541.1 1217.5 L1454.62 1314.23  Z" fill="#9b7fe8" fill-rule="evenodd" fill-opacity="1"/>
<polyline clip-path="url(#clip252)" style="stroke:#000000; stroke-linecap:round; stroke-linejoin:round; stroke-width:1; stroke-opacity:1; fill:none" points="1454.62,1314.23 1468.7,1330.2 1558.39,1229.92 1541.1,1217.5 1454.62,1314.23 "/>
<path clip-path="url(#clip252)" d="M1354.79 1383.1 L1364.29 1402.15 L1468.7 1330.2 L1454.62 1314.23 L1354.79 1383.1  Z" fill="#608cf6" fill-rule="evenodd" fill-opacity="1"/>
<polyline clip-path="url(#clip252)" style="stroke:#000000; stroke-linecap:round; stroke-linejoin:round; stroke-width:1; stroke-opacity:1; fill:none" points="1354.79,1383.1 1364.29,1402.15 1468.7,1330.2 1454.62,1314.23 1354.79,1383.1 "/>
<path clip-path="url(#clip252)" d="M1231.06 1424.4 L1234.5 1445.41 L1364.29 1402.15 L1354.79 1383.1 L1231.06 1424.4  Z" fill="#f05f73" fill-rule="evenodd" fill-opacity="1"/>
<polyline clip-path="url(#clip252)" style="stroke:#000000; stroke-linecap:round; stroke-linejoin:round; stroke-width:1; stroke-opacity:1; fill:none" points="1231.06,1424.4 1234.5,1445.41 1364.29,1402.15 1354.79,1383.1 1231.06,1424.4 "/>
<path clip-path="url(#clip252)" d="M1105 1445.72 L1234.5 1445.41 L1231.06 1424.4 L1108.51 1424.71 L1105 1445.72  Z" fill="#dd64b5" fill-rule="evenodd" fill-opacity="1"/>
<polyline clip-path="url(#clip252)" style="stroke:#000000; stroke-linecap:round; stroke-linejoin:round; stroke-width:1; stroke-opacity:1; fill:none" points="1105,1445.72 1234.5,1445.41 1231.06,1424.4 1108.51,1424.71 1105,1445.72 "/>
<path clip-path="url(#clip252)" d="M1105 1445.72 L1108.51 1424.71 L1000.43 1387.3 L989.949 1405.84 L1105 1445.72  Z" fill="#6b9e32" fill-rule="evenodd" fill-opacity="1"/>
<polyline clip-path="url(#clip252)" style="stroke:#000000; stroke-linecap:round; stroke-linejoin:round; stroke-width:1; stroke-opacity:1; fill:none" points="1105,1445.72 1108.51,1424.71 1000.43,1387.3 989.949,1405.84 1105,1445.72 "/>
<path clip-path="url(#clip252)" d="M989.949 1405.84 L1000.43 1387.3 L919.834 1319.99 L902.648 1332.55 L989.949 1405.84  Z" fill="#009af9" fill-rule="evenodd" fill-opacity="1"/>
<polyline clip-path="url(#clip252)" style="stroke:#000000; stroke-linecap:round; stroke-linejoin:round; stroke-width:1; stroke-opacity:1; fill:none" points="989.949,1405.84 1000.43,1387.3 919.834,1319.99 902.648,1332.55 989.949,1405.84 "/>
<path clip-path="url(#clip252)" d="M902.648 1332.55 L919.834 1319.99 L873.026 1205.23 L852.079 1209.35 L902.648 1332.55  Z" fill="#e26f46" fill-rule="evenodd" fill-opacity="1"/>
<polyline clip-path="url(#clip252)" style="stroke:#000000; stroke-linecap:round; stroke-linejoin:round; stroke-width:1; stroke-opacity:1; fill:none" points="902.648,1332.55 919.834,1319.99 873.026,1205.23 852.079,1209.35 902.648,1332.55 "/>
<path clip-path="url(#clip252)" d="M852.079 1209.35 L873.026 1205.23 L872.402 995.724 L851.116 995.756 L852.079 1209.35  Z" fill="#3da44d" fill-rule="evenodd" fill-opacity="1"/>
<polyline clip-path="url(#clip252)" style="stroke:#000000; stroke-linecap:round; stroke-linejoin:round; stroke-width:1; stroke-opacity:1; fill:none" points="852.079,1209.35 873.026,1205.23 872.402,995.724 851.116,995.756 852.079,1209.35 "/>
<path clip-path="url(#clip252)" d="M851.116 995.756 L872.402 995.724 L872.402 786.216 L851.116 786.114 L851.116 995.756  Z" fill="#c271d2" fill-rule="evenodd" fill-opacity="1"/>
<polyline clip-path="url(#clip252)" style="stroke:#000000; stroke-linecap:round; stroke-linejoin:round; stroke-width:1; stroke-opacity:1; fill:none" points="851.116,995.756 872.402,995.724 872.402,786.216 851.116,786.114 851.116,995.756 "/>
<path clip-path="url(#clip252)" d="M851.116 786.114 L872.402 786.216 L872.402 625.344 L851.116 625.109 L851.116 786.114  Z" fill="#ac8d18" fill-rule="evenodd" fill-opacity="1"/>
<polyline clip-path="url(#clip252)" style="stroke:#000000; stroke-linecap:round; stroke-linejoin:round; stroke-width:1; stroke-opacity:1; fill:none" points="851.116,786.114 872.402,786.216 872.402,625.344 851.116,625.109 851.116,786.114 "/>
<path clip-path="url(#clip252)" d="M851.116 625.109 L872.402 625.344 L872.402 464.473 L851.116 464.238 L851.116 625.109  Z" fill="#00a9ad" fill-rule="evenodd" fill-opacity="1"/>
<polyline clip-path="url(#clip252)" style="stroke:#000000; stroke-linecap:round; stroke-linejoin:round; stroke-width:1; stroke-opacity:1; fill:none" points="851.116,625.109 872.402,625.344 872.402,464.473 851.116,464.238 851.116,625.109 "/>
<path clip-path="url(#clip252)" d="M851.116 464.238 L872.402 464.473 L877.739 303.66 L857.136 298.301 L851.116 464.238  Z" fill="#ed5d92" fill-rule="evenodd" fill-opacity="1"/>
<polyline clip-path="url(#clip252)" style="stroke:#000000; stroke-linecap:round; stroke-linejoin:round; stroke-width:1; stroke-opacity:1; fill:none" points="851.116,464.238 872.402,464.473 877.739,303.66 857.136,298.301 851.116,464.238 "/>
<path clip-path="url(#clip252)" d="M857.136 298.301 L877.739 303.66 L930.788 206.064 L914.759 192.056 L857.136 298.301  Z" fill="#c68125" fill-rule="evenodd" fill-opacity="1"/>
<polyline clip-path="url(#clip252)" style="stroke:#000000; stroke-linecap:round; stroke-linejoin:round; stroke-width:1; stroke-opacity:1; fill:none" points="857.136,298.301 877.739,303.66 930.788,206.064 914.759,192.056 857.136,298.301 "/>
</svg>
