<?xml version="1.0" encoding="utf-8"?>
<svg xmlns="http://www.w3.org/2000/svg" xmlns:xlink="http://www.w3.org/1999/xlink" width="600" height="400" viewBox="0 0 2400 1600">
<defs>
  <clipPath id="clip680">
    <rect x="0" y="0" width="2400" height="1600"/>
  </clipPath>
</defs>
<path clip-path="url(#clip680)" d="M0 1600 L2400 1600 L2400 0 L0 0  Z" fill="#ffffff" fill-rule="evenodd" fill-opacity="1"/>
<defs>
  <clipPath id="clip681">
    <rect x="480" y="0" width="1681" height="1600"/>
  </clipPath>
</defs>
<path clip-path="url(#clip680)" d="M338.404 1423.18 L2352.76 1423.18 L2352.76 47.2441 L338.404 47.2441  Z" fill="#ffffff" fill-rule="evenodd" fill-opacity="1"/>
<defs>
  <clipPath id="clip682">
    <rect x="338" y="47" width="2015" height="1377"/>
  </clipPath>
</defs>
<polyline clip-path="url(#clip682)" style="stroke:#000000; stroke-linecap:round; stroke-linejoin:round; stroke-width:2; stroke-opacity:0.1; fill:none" points="338.404,1423.18 338.404,47.2441 "/>
<polyline clip-path="url(#clip682)" style="stroke:#000000; stroke-linecap:round; stroke-linejoin:round; stroke-width:2; stroke-opacity:0.1; fill:none" points="741.275,1423.18 741.275,47.2441 "/>
<polyline clip-path="url(#clip682)" style="stroke:#000000; stroke-linecap:round; stroke-linejoin:round; stroke-width:2; stroke-opacity:0.1; fill:none" points="1144.15,1423.18 1144.15,47.2441 "/>
<polyline clip-path="url(#clip682)" style="stroke:#000000; stroke-linecap:round; stroke-linejoin:round; stroke-width:2; stroke-opacity:0.1; fill:none" points="1547.02,1423.18 1547.02,47.2441 "/>
<polyline clip-path="url(#clip682)" style="stroke:#000000; stroke-linecap:round; stroke-linejoin:round; stroke-width:2; stroke-opacity:0.1; fill:none" points="1949.89,1423.18 1949.89,47.2441 "/>
<polyline clip-path="url(#clip682)" style="stroke:#000000; stroke-linecap:round; stroke-linejoin:round; stroke-width:2; stroke-opacity:0.1; fill:none" points="2352.76,1423.18 2352.76,47.2441 "/>
<polyline clip-path="url(#clip682)" style="stroke:#000000; stroke-linecap:round; stroke-linejoin:round; stroke-width:2; stroke-opacity:0.1; fill:none" points="338.404,1385.26 2352.76,1385.26 "/>
<polyline clip-path="url(#clip682)" style="stroke:#000000; stroke-linecap:round; stroke-linejoin:round; stroke-width:2; stroke-opacity:0.1; fill:none" points="338.404,1157.27 2352.76,1157.27 "/>
<polyline clip-path="url(#clip682)" style="stroke:#000000; stroke-linecap:round; stroke-linejoin:round; stroke-width:2; stroke-opacity:0.1; fill:none" points="338.404,929.276 2352.76,929.276 "/>
<polyline clip-path="url(#clip682)" style="stroke:#000000; stroke-linecap:round; stroke-linejoin:round; stroke-width:2; stroke-opacity:0.1; fill:none" points="338.404,701.283 2352.76,701.283 "/>
<polyline clip-path="url(#clip682)" style="stroke:#000000; stroke-linecap:round; stroke-linejoin:round; stroke-width:2; stroke-opacity:0.1; fill:none" points="338.404,473.29 2352.76,473.29 "/>
<polyline clip-path="url(#clip682)" style="stroke:#000000; stroke-linecap:round; stroke-linejoin:round; stroke-width:2; stroke-opacity:0.1; fill:none" points="338.404,245.297 2352.76,245.297 "/>
<polyline clip-path="url(#clip680)" style="stroke:#000000; stroke-linecap:round; stroke-linejoin:round; stroke-width:4; stroke-opacity:1; fill:none" points="338.404,1423.18 2352.76,1423.18 "/>
<polyline clip-path="url(#clip680)" style="stroke:#000000; stroke-linecap:round; stroke-linejoin:round; stroke-width:4; stroke-opacity:1; fill:none" points="338.404,1423.18 338.404,1404.28 "/>
<polyline clip-path="url(#clip680)" style="stroke:#000000; stroke-linecap:round; stroke-linejoin:round; stroke-width:4; stroke-opacity:1; fill:none" points="741.275,1423.18 741.275,1404.28 "/>
<polyline clip-path="url(#clip680)" style="stroke:#000000; stroke-linecap:round; stroke-linejoin:round; stroke-width:4; stroke-opacity:1; fill:none" points="1144.15,1423.18 1144.15,1404.28 "/>
<polyline clip-path="url(#clip680)" style="stroke:#000000; stroke-linecap:round; stroke-linejoin:round; stroke-width:4; stroke-opacity:1; fill:none" points="1547.02,1423.18 1547.02,1404.28 "/>
<polyline clip-path="url(#clip680)" style="stroke:#000000; stroke-linecap:round; stroke-linejoin:round; stroke-width:4; stroke-opacity:1; fill:none" points="1949.89,1423.18 1949.89,1404.28 "/>
<polyline clip-path="url(#clip680)" style="stroke:#000000; stroke-linecap:round; stroke-linejoin:round; stroke-width:4; stroke-opacity:1; fill:none" points="2352.76,1423.18 2352.76,1404.28 "/>
<path clip-path="url(#clip680)" d="M315.789 1454.1 Q312.178 1454.1 310.349 1457.66 Q308.543 1461.2 308.543 1468.33 Q308.543 1475.44 310.349 1479.01 Q312.178 1482.55 315.789 1482.55 Q319.423 1482.55 321.229 1479.01 Q323.057 1475.44 323.057 1468.33 Q323.057 1461.2 321.229 1457.66 Q319.423 1454.1 315.789 1454.1 M315.789 1450.39 Q321.599 1450.39 324.654 1455 Q327.733 1459.58 327.733 1468.33 Q327.733 1477.06 324.654 1481.67 Q321.599 1486.25 315.789 1486.25 Q309.979 1486.25 306.9 1481.67 Q303.844 1477.06 303.844 1468.33 Q303.844 1459.58 306.9 1455 Q309.979 1450.39 315.789 1450.39 Z" fill="#000000" fill-rule="nonzero" fill-opacity="1" /><path clip-path="url(#clip680)" d="M335.951 1479.7 L340.835 1479.7 L340.835 1485.58 L335.951 1485.58 L335.951 1479.7 Z" fill="#000000" fill-rule="nonzero" fill-opacity="1" /><path clip-path="url(#clip680)" d="M361.02 1454.1 Q357.409 1454.1 355.58 1457.66 Q353.775 1461.2 353.775 1468.33 Q353.775 1475.44 355.58 1479.01 Q357.409 1482.55 361.02 1482.55 Q364.654 1482.55 366.46 1479.01 Q368.289 1475.44 368.289 1468.33 Q368.289 1461.2 366.46 1457.66 Q364.654 1454.1 361.02 1454.1 M361.02 1450.39 Q366.83 1450.39 369.886 1455 Q372.964 1459.58 372.964 1468.33 Q372.964 1477.06 369.886 1481.67 Q366.83 1486.25 361.02 1486.25 Q355.21 1486.25 352.131 1481.67 Q349.076 1477.06 349.076 1468.33 Q349.076 1459.58 352.131 1455 Q355.21 1450.39 361.02 1450.39 Z" fill="#000000" fill-rule="nonzero" fill-opacity="1" /><path clip-path="url(#clip680)" d="M719.458 1454.1 Q715.847 1454.1 714.018 1457.66 Q712.212 1461.2 712.212 1468.33 Q712.212 1475.44 714.018 1479.01 Q715.847 1482.55 719.458 1482.55 Q723.092 1482.55 724.897 1479.01 Q726.726 1475.44 726.726 1468.33 Q726.726 1461.2 724.897 1457.66 Q723.092 1454.1 719.458 1454.1 M719.458 1450.39 Q725.268 1450.39 728.323 1455 Q731.402 1459.58 731.402 1468.33 Q731.402 1477.06 728.323 1481.67 Q725.268 1486.25 719.458 1486.25 Q713.648 1486.25 710.569 1481.67 Q707.513 1477.06 707.513 1468.33 Q707.513 1459.58 710.569 1455 Q713.648 1450.39 719.458 1450.39 Z" fill="#000000" fill-rule="nonzero" fill-opacity="1" /><path clip-path="url(#clip680)" d="M739.62 1479.7 L744.504 1479.7 L744.504 1485.58 L739.62 1485.58 L739.62 1479.7 Z" fill="#000000" fill-rule="nonzero" fill-opacity="1" /><path clip-path="url(#clip680)" d="M758.717 1481.64 L775.036 1481.64 L775.036 1485.58 L753.092 1485.58 L753.092 1481.64 Q755.754 1478.89 760.337 1474.26 Q764.944 1469.61 766.124 1468.27 Q768.369 1465.74 769.249 1464.01 Q770.152 1462.25 770.152 1460.56 Q770.152 1457.8 768.207 1456.07 Q766.286 1454.33 763.184 1454.33 Q760.985 1454.33 758.532 1455.09 Q756.101 1455.86 753.323 1457.41 L753.323 1452.69 Q756.147 1451.55 758.601 1450.97 Q761.055 1450.39 763.092 1450.39 Q768.462 1450.39 771.656 1453.08 Q774.851 1455.77 774.851 1460.26 Q774.851 1462.39 774.041 1464.31 Q773.254 1466.2 771.147 1468.8 Q770.569 1469.47 767.467 1472.69 Q764.365 1475.88 758.717 1481.64 Z" fill="#000000" fill-rule="nonzero" fill-opacity="1" /><path clip-path="url(#clip680)" d="M1121.29 1454.1 Q1117.68 1454.1 1115.85 1457.66 Q1114.04 1461.2 1114.04 1468.33 Q1114.04 1475.44 1115.85 1479.01 Q1117.68 1482.55 1121.29 1482.55 Q1124.92 1482.55 1126.73 1479.01 Q1128.55 1475.44 1128.55 1468.33 Q1128.55 1461.2 1126.73 1457.66 Q1124.92 1454.1 1121.29 1454.1 M1121.29 1450.39 Q1127.1 1450.39 1130.15 1455 Q1133.23 1459.58 1133.23 1468.33 Q1133.23 1477.06 1130.15 1481.67 Q1127.1 1486.25 1121.29 1486.25 Q1115.48 1486.25 1112.4 1481.67 Q1109.34 1477.06 1109.34 1468.33 Q1109.34 1459.58 1112.4 1455 Q1115.48 1450.39 1121.29 1450.39 Z" fill="#000000" fill-rule="nonzero" fill-opacity="1" /><path clip-path="url(#clip680)" d="M1141.45 1479.7 L1146.33 1479.7 L1146.33 1485.58 L1141.45 1485.58 L1141.45 1479.7 Z" fill="#000000" fill-rule="nonzero" fill-opacity="1" /><path clip-path="url(#clip680)" d="M1169.36 1455.09 L1157.56 1473.54 L1169.36 1473.54 L1169.36 1455.09 M1168.14 1451.02 L1174.02 1451.02 L1174.02 1473.54 L1178.95 1473.54 L1178.95 1477.43 L1174.02 1477.43 L1174.02 1485.58 L1169.36 1485.58 L1169.36 1477.43 L1153.76 1477.43 L1153.76 1472.92 L1168.14 1451.02 Z" fill="#000000" fill-rule="nonzero" fill-opacity="1" /><path clip-path="url(#clip680)" d="M1524.32 1454.1 Q1520.71 1454.1 1518.88 1457.66 Q1517.07 1461.2 1517.07 1468.33 Q1517.07 1475.44 1518.88 1479.01 Q1520.71 1482.55 1524.32 1482.55 Q1527.95 1482.55 1529.76 1479.01 Q1531.59 1475.44 1531.59 1468.33 Q1531.59 1461.2 1529.76 1457.66 Q1527.95 1454.1 1524.32 1454.1 M1524.32 1450.39 Q1530.13 1450.39 1533.18 1455 Q1536.26 1459.58 1536.26 1468.33 Q1536.26 1477.06 1533.18 1481.67 Q1530.13 1486.25 1524.32 1486.25 Q1518.51 1486.25 1515.43 1481.67 Q1512.37 1477.06 1512.37 1468.33 Q1512.37 1459.58 1515.43 1455 Q1518.51 1450.39 1524.32 1450.39 Z" fill="#000000" fill-rule="nonzero" fill-opacity="1" /><path clip-path="url(#clip680)" d="M1544.48 1479.7 L1549.36 1479.7 L1549.36 1485.58 L1544.48 1485.58 L1544.48 1479.7 Z" fill="#000000" fill-rule="nonzero" fill-opacity="1" /><path clip-path="url(#clip680)" d="M1570.13 1466.44 Q1566.98 1466.44 1565.13 1468.59 Q1563.3 1470.74 1563.3 1474.49 Q1563.3 1478.22 1565.13 1480.39 Q1566.98 1482.55 1570.13 1482.55 Q1573.28 1482.55 1575.11 1480.39 Q1576.96 1478.22 1576.96 1474.49 Q1576.96 1470.74 1575.11 1468.59 Q1573.28 1466.44 1570.13 1466.44 M1579.41 1451.78 L1579.41 1456.04 Q1577.65 1455.21 1575.85 1454.77 Q1574.06 1454.33 1572.3 1454.33 Q1567.67 1454.33 1565.22 1457.45 Q1562.79 1460.58 1562.44 1466.9 Q1563.81 1464.89 1565.87 1463.82 Q1567.93 1462.73 1570.41 1462.73 Q1575.61 1462.73 1578.62 1465.9 Q1581.66 1469.05 1581.66 1474.49 Q1581.66 1479.82 1578.51 1483.03 Q1575.36 1486.25 1570.13 1486.25 Q1564.13 1486.25 1560.96 1481.67 Q1557.79 1477.06 1557.79 1468.33 Q1557.79 1460.14 1561.68 1455.28 Q1565.57 1450.39 1572.12 1450.39 Q1573.88 1450.39 1575.66 1450.74 Q1577.47 1451.09 1579.41 1451.78 Z" fill="#000000" fill-rule="nonzero" fill-opacity="1" /><path clip-path="url(#clip680)" d="M1927.32 1454.1 Q1923.71 1454.1 1921.88 1457.66 Q1920.07 1461.2 1920.07 1468.33 Q1920.07 1475.44 1921.88 1479.01 Q1923.71 1482.55 1927.32 1482.55 Q1930.95 1482.55 1932.76 1479.01 Q1934.58 1475.44 1934.58 1468.33 Q1934.58 1461.2 1932.76 1457.66 Q1930.95 1454.1 1927.32 1454.1 M1927.32 1450.39 Q1933.13 1450.39 1936.18 1455 Q1939.26 1459.58 1939.26 1468.33 Q1939.26 1477.06 1936.18 1481.67 Q1933.13 1486.25 1927.32 1486.25 Q1921.51 1486.25 1918.43 1481.67 Q1915.37 1477.06 1915.37 1468.33 Q1915.37 1459.58 1918.43 1455 Q1921.51 1450.39 1927.32 1450.39 Z" fill="#000000" fill-rule="nonzero" fill-opacity="1" /><path clip-path="url(#clip680)" d="M1947.48 1479.7 L1952.36 1479.7 L1952.36 1485.58 L1947.48 1485.58 L1947.48 1479.7 Z" fill="#000000" fill-rule="nonzero" fill-opacity="1" /><path clip-path="url(#clip680)" d="M1972.55 1469.17 Q1969.21 1469.17 1967.29 1470.95 Q1965.39 1472.73 1965.39 1475.86 Q1965.39 1478.98 1967.29 1480.77 Q1969.21 1482.55 1972.55 1482.55 Q1975.88 1482.55 1977.8 1480.77 Q1979.72 1478.96 1979.72 1475.86 Q1979.72 1472.73 1977.8 1470.95 Q1975.9 1469.17 1972.55 1469.17 M1967.87 1467.18 Q1964.86 1466.44 1963.17 1464.38 Q1961.51 1462.32 1961.51 1459.35 Q1961.51 1455.21 1964.45 1452.8 Q1967.41 1450.39 1972.55 1450.39 Q1977.71 1450.39 1980.65 1452.8 Q1983.59 1455.21 1983.59 1459.35 Q1983.59 1462.32 1981.9 1464.38 Q1980.23 1466.44 1977.25 1467.18 Q1980.63 1467.96 1982.5 1470.26 Q1984.4 1472.55 1984.4 1475.86 Q1984.4 1480.88 1981.32 1483.57 Q1978.27 1486.25 1972.55 1486.25 Q1966.83 1486.25 1963.75 1483.57 Q1960.7 1480.88 1960.7 1475.86 Q1960.7 1472.55 1962.59 1470.26 Q1964.49 1467.96 1967.87 1467.18 M1966.16 1459.79 Q1966.16 1462.48 1967.83 1463.98 Q1969.52 1465.49 1972.55 1465.49 Q1975.56 1465.49 1977.25 1463.98 Q1978.96 1462.48 1978.96 1459.79 Q1978.96 1457.11 1977.25 1455.6 Q1975.56 1454.1 1972.55 1454.1 Q1969.52 1454.1 1967.83 1455.6 Q1966.16 1457.11 1966.16 1459.79 Z" fill="#000000" fill-rule="nonzero" fill-opacity="1" /><path clip-path="url(#clip680)" d="M2319.91 1481.64 L2327.55 1481.64 L2327.55 1455.28 L2319.24 1456.95 L2319.24 1452.69 L2327.5 1451.02 L2332.18 1451.02 L2332.18 1481.64 L2339.82 1481.64 L2339.82 1485.58 L2319.91 1485.58 L2319.91 1481.64 Z" fill="#000000" fill-rule="nonzero" fill-opacity="1" /><path clip-path="url(#clip680)" d="M2349.26 1479.7 L2354.14 1479.7 L2354.14 1485.58 L2349.26 1485.58 L2349.26 1479.7 Z" fill="#000000" fill-rule="nonzero" fill-opacity="1" /><path clip-path="url(#clip680)" d="M2374.33 1454.1 Q2370.72 1454.1 2368.89 1457.66 Q2367.08 1461.2 2367.08 1468.33 Q2367.08 1475.44 2368.89 1479.01 Q2370.72 1482.55 2374.33 1482.55 Q2377.96 1482.55 2379.77 1479.01 Q2381.6 1475.44 2381.6 1468.33 Q2381.6 1461.2 2379.77 1457.66 Q2377.96 1454.1 2374.33 1454.1 M2374.33 1450.39 Q2380.14 1450.39 2383.2 1455 Q2386.27 1459.58 2386.27 1468.33 Q2386.27 1477.06 2383.2 1481.67 Q2380.14 1486.25 2374.33 1486.25 Q2368.52 1486.25 2365.44 1481.67 Q2362.39 1477.06 2362.39 1468.33 Q2362.39 1459.58 2365.44 1455 Q2368.52 1450.39 2374.33 1450.39 Z" fill="#000000" fill-rule="nonzero" fill-opacity="1" /><path clip-path="url(#clip680)" d="M1359.85 1528.53 Q1359.85 1533.3 1357.4 1537.78 Q1354.99 1542.25 1351.19 1544.96 Q1347.42 1547.66 1343.62 1547.66 Q1339.33 1547.66 1337.11 1543.22 Q1333.09 1559.35 1332.86 1559.77 Q1331.93 1561.16 1330.57 1561.16 Q1329.74 1561.16 1329.22 1560.64 Q1328.71 1560.16 1328.71 1559.39 Q1328.74 1559.13 1328.93 1558.32 L1335.37 1532.4 Q1336.85 1526.38 1341.33 1522.09 Q1345.84 1517.78 1350.67 1517.78 Q1354.5 1517.78 1357.18 1520.64 Q1359.85 1523.51 1359.85 1528.53 M1355.11 1525.7 Q1355.11 1522.48 1353.83 1520.87 Q1352.54 1519.23 1350.54 1519.23 Q1348.71 1519.23 1346.48 1520.71 Q1344.29 1522.19 1342.36 1525.47 Q1341.33 1527.37 1340.59 1529.72 Q1339.85 1532.08 1338.4 1537.87 Q1337.88 1540.19 1337.88 1540.32 Q1337.88 1540.58 1338.01 1541.16 Q1338.17 1541.74 1338.56 1542.64 Q1338.98 1543.51 1339.56 1544.28 Q1340.14 1545.05 1341.2 1545.63 Q1342.26 1546.18 1343.55 1546.18 Q1345.55 1546.18 1347.68 1544.57 Q1349.83 1542.93 1351.41 1539.93 Q1352.73 1537.52 1353.92 1532.98 Q1355.11 1528.4 1355.11 1525.7 Z" fill="#000000" fill-rule="nonzero" fill-opacity="1" /><polyline clip-path="url(#clip680)" style="stroke:#000000; stroke-linecap:round; stroke-linejoin:round; stroke-width:4; stroke-opacity:1; fill:none" points="338.404,1423.18 338.404,47.2441 "/>
<polyline clip-path="url(#clip680)" style="stroke:#000000; stroke-linecap:round; stroke-linejoin:round; stroke-width:4; stroke-opacity:1; fill:none" points="338.404,1385.26 357.302,1385.26 "/>
<polyline clip-path="url(#clip680)" style="stroke:#000000; stroke-linecap:round; stroke-linejoin:round; stroke-width:4; stroke-opacity:1; fill:none" points="338.404,1157.27 357.302,1157.27 "/>
<polyline clip-path="url(#clip680)" style="stroke:#000000; stroke-linecap:round; stroke-linejoin:round; stroke-width:4; stroke-opacity:1; fill:none" points="338.404,929.276 357.302,929.276 "/>
<polyline clip-path="url(#clip680)" style="stroke:#000000; stroke-linecap:round; stroke-linejoin:round; stroke-width:4; stroke-opacity:1; fill:none" points="338.404,701.283 357.302,701.283 "/>
<polyline clip-path="url(#clip680)" style="stroke:#000000; stroke-linecap:round; stroke-linejoin:round; stroke-width:4; stroke-opacity:1; fill:none" points="338.404,473.29 357.302,473.29 "/>
<polyline clip-path="url(#clip680)" style="stroke:#000000; stroke-linecap:round; stroke-linejoin:round; stroke-width:4; stroke-opacity:1; fill:none" points="338.404,245.297 357.302,245.297 "/>
<path clip-path="url(#clip680)" d="M290.46 1371.06 Q286.849 1371.06 285.02 1374.63 Q283.215 1378.17 283.215 1385.3 Q283.215 1392.4 285.02 1395.97 Q286.849 1399.51 290.46 1399.51 Q294.094 1399.51 295.9 1395.97 Q297.729 1392.4 297.729 1385.3 Q297.729 1378.17 295.9 1374.63 Q294.094 1371.06 290.46 1371.06 M290.46 1367.36 Q296.27 1367.36 299.326 1371.96 Q302.404 1376.55 302.404 1385.3 Q302.404 1394.02 299.326 1398.63 Q296.27 1403.21 290.46 1403.21 Q284.65 1403.21 281.571 1398.63 Q278.516 1394.02 278.516 1385.3 Q278.516 1376.55 281.571 1371.96 Q284.65 1367.36 290.46 1367.36 Z" fill="#000000" fill-rule="nonzero" fill-opacity="1" /><path clip-path="url(#clip680)" d="M117.825 1177.06 L125.464 1177.06 L125.464 1150.7 L117.154 1152.36 L117.154 1148.1 L125.418 1146.44 L130.093 1146.44 L130.093 1177.06 L137.732 1177.06 L137.732 1181 L117.825 1181 L117.825 1177.06 Z" fill="#000000" fill-rule="nonzero" fill-opacity="1" /><path clip-path="url(#clip680)" d="M147.177 1175.12 L152.061 1175.12 L152.061 1181 L147.177 1181 L147.177 1175.12 Z" fill="#000000" fill-rule="nonzero" fill-opacity="1" /><path clip-path="url(#clip680)" d="M172.246 1149.52 Q168.635 1149.52 166.806 1153.08 Q165.001 1156.62 165.001 1163.75 Q165.001 1170.86 166.806 1174.42 Q168.635 1177.96 172.246 1177.96 Q175.88 1177.96 177.686 1174.42 Q179.514 1170.86 179.514 1163.75 Q179.514 1156.62 177.686 1153.08 Q175.88 1149.52 172.246 1149.52 M172.246 1145.81 Q178.056 1145.81 181.112 1150.42 Q184.19 1155 184.19 1163.75 Q184.19 1172.48 181.112 1177.08 Q178.056 1181.67 172.246 1181.67 Q166.436 1181.67 163.357 1177.08 Q160.302 1172.48 160.302 1163.75 Q160.302 1155 163.357 1150.42 Q166.436 1145.81 172.246 1145.81 Z" fill="#000000" fill-rule="nonzero" fill-opacity="1" /><path clip-path="url(#clip680)" d="M220.579 1155.53 L210 1166.16 L220.579 1176.74 L217.824 1179.54 L207.199 1168.91 L196.575 1179.54 L193.843 1176.74 L204.399 1166.16 L193.843 1155.53 L196.575 1152.73 L207.199 1163.36 L217.824 1152.73 L220.579 1155.53 Z" fill="#000000" fill-rule="nonzero" fill-opacity="1" /><path clip-path="url(#clip680)" d="M232.94 1177.06 L240.579 1177.06 L240.579 1150.7 L232.269 1152.36 L232.269 1148.1 L240.533 1146.44 L245.209 1146.44 L245.209 1177.06 L252.847 1177.06 L252.847 1181 L232.94 1181 L232.94 1177.06 Z" fill="#000000" fill-rule="nonzero" fill-opacity="1" /><path clip-path="url(#clip680)" d="M272.292 1149.52 Q268.681 1149.52 266.852 1153.08 Q265.046 1156.62 265.046 1163.75 Q265.046 1170.86 266.852 1174.42 Q268.681 1177.96 272.292 1177.96 Q275.926 1177.96 277.732 1174.42 Q279.56 1170.86 279.56 1163.75 Q279.56 1156.62 277.732 1153.08 Q275.926 1149.52 272.292 1149.52 M272.292 1145.81 Q278.102 1145.81 281.157 1150.42 Q284.236 1155 284.236 1163.75 Q284.236 1172.48 281.157 1177.08 Q278.102 1181.67 272.292 1181.67 Q266.482 1181.67 263.403 1177.08 Q260.347 1172.48 260.347 1163.75 Q260.347 1155 263.403 1150.42 Q266.482 1145.81 272.292 1145.81 Z" fill="#000000" fill-rule="nonzero" fill-opacity="1" /><path clip-path="url(#clip680)" d="M285.421 1125.51 L300.336 1125.51 L300.336 1128.7 L288.9 1128.7 L288.9 1135.59 Q289.728 1135.31 290.556 1135.17 Q291.383 1135.02 292.211 1135.02 Q296.913 1135.02 299.658 1137.6 Q302.404 1140.18 302.404 1144.58 Q302.404 1149.11 299.583 1151.63 Q296.762 1154.13 291.628 1154.13 Q289.86 1154.13 288.016 1153.83 Q286.192 1153.53 284.236 1152.93 L284.236 1149.11 Q285.929 1150.03 287.734 1150.48 Q289.54 1150.93 291.552 1150.93 Q294.806 1150.93 296.706 1149.22 Q298.605 1147.51 298.605 1144.58 Q298.605 1141.64 296.706 1139.93 Q294.806 1138.22 291.552 1138.22 Q290.029 1138.22 288.505 1138.56 Q287.001 1138.9 285.421 1139.61 L285.421 1125.51 Z" fill="#000000" fill-rule="nonzero" fill-opacity="1" /><path clip-path="url(#clip680)" d="M121.043 949.069 L137.362 949.069 L137.362 953.004 L115.418 953.004 L115.418 949.069 Q118.08 946.314 122.663 941.684 Q127.269 937.032 128.45 935.689 Q130.695 933.166 131.575 931.43 Q132.478 929.671 132.478 927.981 Q132.478 925.226 130.533 923.49 Q128.612 921.754 125.51 921.754 Q123.311 921.754 120.857 922.518 Q118.427 923.282 115.649 924.833 L115.649 920.111 Q118.473 918.976 120.927 918.398 Q123.38 917.819 125.418 917.819 Q130.788 917.819 133.982 920.504 Q137.177 923.189 137.177 927.68 Q137.177 929.81 136.367 931.731 Q135.579 933.629 133.473 936.222 Q132.894 936.893 129.792 940.11 Q126.691 943.305 121.043 949.069 Z" fill="#000000" fill-rule="nonzero" fill-opacity="1" /><path clip-path="url(#clip680)" d="M147.177 947.124 L152.061 947.124 L152.061 953.004 L147.177 953.004 L147.177 947.124 Z" fill="#000000" fill-rule="nonzero" fill-opacity="1" /><path clip-path="url(#clip680)" d="M172.246 921.523 Q168.635 921.523 166.806 925.087 Q165.001 928.629 165.001 935.759 Q165.001 942.865 166.806 946.43 Q168.635 949.971 172.246 949.971 Q175.88 949.971 177.686 946.43 Q179.514 942.865 179.514 935.759 Q179.514 928.629 177.686 925.087 Q175.88 921.523 172.246 921.523 M172.246 917.819 Q178.056 917.819 181.112 922.425 Q184.19 927.009 184.19 935.759 Q184.19 944.485 181.112 949.092 Q178.056 953.675 172.246 953.675 Q166.436 953.675 163.357 949.092 Q160.302 944.485 160.302 935.759 Q160.302 927.009 163.357 922.425 Q166.436 917.819 172.246 917.819 Z" fill="#000000" fill-rule="nonzero" fill-opacity="1" /><path clip-path="url(#clip680)" d="M220.579 927.541 L210 938.166 L220.579 948.745 L217.824 951.546 L207.199 940.921 L196.575 951.546 L193.843 948.745 L204.399 938.166 L193.843 927.541 L196.575 924.74 L207.199 935.365 L217.824 924.74 L220.579 927.541 Z" fill="#000000" fill-rule="nonzero" fill-opacity="1" /><path clip-path="url(#clip680)" d="M232.94 949.069 L240.579 949.069 L240.579 922.703 L232.269 924.37 L232.269 920.111 L240.533 918.444 L245.209 918.444 L245.209 949.069 L252.847 949.069 L252.847 953.004 L232.94 953.004 L232.94 949.069 Z" fill="#000000" fill-rule="nonzero" fill-opacity="1" /><path clip-path="url(#clip680)" d="M272.292 921.523 Q268.681 921.523 266.852 925.087 Q265.046 928.629 265.046 935.759 Q265.046 942.865 266.852 946.43 Q268.681 949.971 272.292 949.971 Q275.926 949.971 277.732 946.43 Q279.56 942.865 279.56 935.759 Q279.56 928.629 277.732 925.087 Q275.926 921.523 272.292 921.523 M272.292 917.819 Q278.102 917.819 281.157 922.425 Q284.236 927.009 284.236 935.759 Q284.236 944.485 281.157 949.092 Q278.102 953.675 272.292 953.675 Q266.482 953.675 263.403 949.092 Q260.347 944.485 260.347 935.759 Q260.347 927.009 263.403 922.425 Q266.482 917.819 272.292 917.819 Z" fill="#000000" fill-rule="nonzero" fill-opacity="1" /><path clip-path="url(#clip680)" d="M285.421 897.513 L300.336 897.513 L300.336 900.711 L288.9 900.711 L288.9 907.594 Q289.728 907.312 290.556 907.181 Q291.383 907.03 292.211 907.03 Q296.913 907.03 299.658 909.607 Q302.404 912.184 302.404 916.585 Q302.404 921.117 299.583 923.637 Q296.762 926.139 291.628 926.139 Q289.86 926.139 288.016 925.838 Q286.192 925.537 284.236 924.935 L284.236 921.117 Q285.929 922.039 287.734 922.49 Q289.54 922.942 291.552 922.942 Q294.806 922.942 296.706 921.23 Q298.605 919.519 298.605 916.585 Q298.605 913.651 296.706 911.939 Q294.806 910.228 291.552 910.228 Q290.029 910.228 288.505 910.566 Q287.001 910.905 285.421 911.619 L285.421 897.513 Z" fill="#000000" fill-rule="nonzero" fill-opacity="1" /><path clip-path="url(#clip680)" d="M131.181 706.377 Q134.538 707.094 136.413 709.363 Q138.311 711.631 138.311 714.965 Q138.311 720.08 134.792 722.881 Q131.274 725.682 124.793 725.682 Q122.617 725.682 120.302 725.242 Q118.01 724.826 115.556 723.969 L115.556 719.455 Q117.501 720.59 119.816 721.168 Q122.13 721.747 124.654 721.747 Q129.052 721.747 131.343 720.011 Q133.658 718.275 133.658 714.965 Q133.658 711.909 131.505 710.196 Q129.376 708.46 125.556 708.46 L121.529 708.46 L121.529 704.617 L125.742 704.617 Q129.191 704.617 131.019 703.252 Q132.848 701.863 132.848 699.27 Q132.848 696.608 130.95 695.196 Q129.075 693.761 125.556 693.761 Q123.635 693.761 121.436 694.178 Q119.237 694.594 116.598 695.474 L116.598 691.307 Q119.26 690.567 121.575 690.196 Q123.913 689.826 125.973 689.826 Q131.297 689.826 134.399 692.256 Q137.501 694.664 137.501 698.784 Q137.501 701.654 135.857 703.645 Q134.214 705.613 131.181 706.377 Z" fill="#000000" fill-rule="nonzero" fill-opacity="1" /><path clip-path="url(#clip680)" d="M147.177 719.131 L152.061 719.131 L152.061 725.011 L147.177 725.011 L147.177 719.131 Z" fill="#000000" fill-rule="nonzero" fill-opacity="1" /><path clip-path="url(#clip680)" d="M172.246 693.529 Q168.635 693.529 166.806 697.094 Q165.001 700.636 165.001 707.765 Q165.001 714.872 166.806 718.437 Q168.635 721.978 172.246 721.978 Q175.88 721.978 177.686 718.437 Q179.514 714.872 179.514 707.765 Q179.514 700.636 177.686 697.094 Q175.88 693.529 172.246 693.529 M172.246 689.826 Q178.056 689.826 181.112 694.432 Q184.19 699.016 184.19 707.765 Q184.19 716.492 181.112 721.099 Q178.056 725.682 172.246 725.682 Q166.436 725.682 163.357 721.099 Q160.302 716.492 160.302 707.765 Q160.302 699.016 163.357 694.432 Q166.436 689.826 172.246 689.826 Z" fill="#000000" fill-rule="nonzero" fill-opacity="1" /><path clip-path="url(#clip680)" d="M220.579 699.548 L210 710.173 L220.579 720.752 L217.824 723.552 L207.199 712.928 L196.575 723.552 L193.843 720.752 L204.399 710.173 L193.843 699.548 L196.575 696.747 L207.199 707.372 L217.824 696.747 L220.579 699.548 Z" fill="#000000" fill-rule="nonzero" fill-opacity="1" /><path clip-path="url(#clip680)" d="M232.94 721.076 L240.579 721.076 L240.579 694.71 L232.269 696.377 L232.269 692.117 L240.533 690.451 L245.209 690.451 L245.209 721.076 L252.847 721.076 L252.847 725.011 L232.94 725.011 L232.94 721.076 Z" fill="#000000" fill-rule="nonzero" fill-opacity="1" /><path clip-path="url(#clip680)" d="M272.292 693.529 Q268.681 693.529 266.852 697.094 Q265.046 700.636 265.046 707.765 Q265.046 714.872 266.852 718.437 Q268.681 721.978 272.292 721.978 Q275.926 721.978 277.732 718.437 Q279.56 714.872 279.56 707.765 Q279.56 700.636 277.732 697.094 Q275.926 693.529 272.292 693.529 M272.292 689.826 Q278.102 689.826 281.157 694.432 Q284.236 699.016 284.236 707.765 Q284.236 716.492 281.157 721.099 Q278.102 725.682 272.292 725.682 Q266.482 725.682 263.403 721.099 Q260.347 716.492 260.347 707.765 Q260.347 699.016 263.403 694.432 Q266.482 689.826 272.292 689.826 Z" fill="#000000" fill-rule="nonzero" fill-opacity="1" /><path clip-path="url(#clip680)" d="M285.421 669.52 L300.336 669.52 L300.336 672.718 L288.9 672.718 L288.9 679.601 Q289.728 679.319 290.556 679.188 Q291.383 679.037 292.211 679.037 Q296.913 679.037 299.658 681.614 Q302.404 684.19 302.404 688.591 Q302.404 693.124 299.583 695.644 Q296.762 698.146 291.628 698.146 Q289.86 698.146 288.016 697.845 Q286.192 697.544 284.236 696.942 L284.236 693.124 Q285.929 694.046 287.734 694.497 Q289.54 694.948 291.552 694.948 Q294.806 694.948 296.706 693.237 Q298.605 691.525 298.605 688.591 Q298.605 685.657 296.706 683.946 Q294.806 682.234 291.552 682.234 Q290.029 682.234 288.505 682.573 Q287.001 682.912 285.421 683.626 L285.421 669.52 Z" fill="#000000" fill-rule="nonzero" fill-opacity="1" /><path clip-path="url(#clip680)" d="M129.862 466.532 L118.056 484.981 L129.862 484.981 L129.862 466.532 M128.635 462.458 L134.515 462.458 L134.515 484.981 L139.445 484.981 L139.445 488.87 L134.515 488.87 L134.515 497.018 L129.862 497.018 L129.862 488.87 L114.26 488.87 L114.26 484.356 L128.635 462.458 Z" fill="#000000" fill-rule="nonzero" fill-opacity="1" /><path clip-path="url(#clip680)" d="M147.177 491.138 L152.061 491.138 L152.061 497.018 L147.177 497.018 L147.177 491.138 Z" fill="#000000" fill-rule="nonzero" fill-opacity="1" /><path clip-path="url(#clip680)" d="M172.246 465.536 Q168.635 465.536 166.806 469.101 Q165.001 472.643 165.001 479.772 Q165.001 486.879 166.806 490.444 Q168.635 493.985 172.246 493.985 Q175.88 493.985 177.686 490.444 Q179.514 486.879 179.514 479.772 Q179.514 472.643 177.686 469.101 Q175.88 465.536 172.246 465.536 M172.246 461.833 Q178.056 461.833 181.112 466.439 Q184.19 471.022 184.19 479.772 Q184.19 488.499 181.112 493.106 Q178.056 497.689 172.246 497.689 Q166.436 497.689 163.357 493.106 Q160.302 488.499 160.302 479.772 Q160.302 471.022 163.357 466.439 Q166.436 461.833 172.246 461.833 Z" fill="#000000" fill-rule="nonzero" fill-opacity="1" /><path clip-path="url(#clip680)" d="M220.579 471.555 L210 482.18 L220.579 492.758 L217.824 495.559 L207.199 484.934 L196.575 495.559 L193.843 492.758 L204.399 482.18 L193.843 471.555 L196.575 468.754 L207.199 479.379 L217.824 468.754 L220.579 471.555 Z" fill="#000000" fill-rule="nonzero" fill-opacity="1" /><path clip-path="url(#clip680)" d="M232.94 493.083 L240.579 493.083 L240.579 466.717 L232.269 468.384 L232.269 464.124 L240.533 462.458 L245.209 462.458 L245.209 493.083 L252.847 493.083 L252.847 497.018 L232.94 497.018 L232.94 493.083 Z" fill="#000000" fill-rule="nonzero" fill-opacity="1" /><path clip-path="url(#clip680)" d="M272.292 465.536 Q268.681 465.536 266.852 469.101 Q265.046 472.643 265.046 479.772 Q265.046 486.879 266.852 490.444 Q268.681 493.985 272.292 493.985 Q275.926 493.985 277.732 490.444 Q279.56 486.879 279.56 479.772 Q279.56 472.643 277.732 469.101 Q275.926 465.536 272.292 465.536 M272.292 461.833 Q278.102 461.833 281.157 466.439 Q284.236 471.022 284.236 479.772 Q284.236 488.499 281.157 493.106 Q278.102 497.689 272.292 497.689 Q266.482 497.689 263.403 493.106 Q260.347 488.499 260.347 479.772 Q260.347 471.022 263.403 466.439 Q266.482 461.833 272.292 461.833 Z" fill="#000000" fill-rule="nonzero" fill-opacity="1" /><path clip-path="url(#clip680)" d="M285.421 441.527 L300.336 441.527 L300.336 444.725 L288.9 444.725 L288.9 451.608 Q289.728 451.326 290.556 451.194 Q291.383 451.044 292.211 451.044 Q296.913 451.044 299.658 453.621 Q302.404 456.197 302.404 460.598 Q302.404 465.131 299.583 467.651 Q296.762 470.153 291.628 470.153 Q289.86 470.153 288.016 469.852 Q286.192 469.551 284.236 468.949 L284.236 465.131 Q285.929 466.053 287.734 466.504 Q289.54 466.955 291.552 466.955 Q294.806 466.955 296.706 465.244 Q298.605 463.532 298.605 460.598 Q298.605 457.664 296.706 455.953 Q294.806 454.241 291.552 454.241 Q290.029 454.241 288.505 454.58 Q287.001 454.918 285.421 455.633 L285.421 441.527 Z" fill="#000000" fill-rule="nonzero" fill-opacity="1" /><path clip-path="url(#clip680)" d="M117.061 234.465 L135.417 234.465 L135.417 238.4 L121.343 238.4 L121.343 246.872 Q122.362 246.525 123.38 246.363 Q124.399 246.178 125.418 246.178 Q131.205 246.178 134.584 249.349 Q137.964 252.52 137.964 257.937 Q137.964 263.515 134.492 266.617 Q131.019 269.696 124.7 269.696 Q122.524 269.696 120.255 269.326 Q118.01 268.955 115.603 268.214 L115.603 263.515 Q117.686 264.65 119.908 265.205 Q122.13 265.761 124.607 265.761 Q128.612 265.761 130.95 263.654 Q133.288 261.548 133.288 257.937 Q133.288 254.326 130.95 252.219 Q128.612 250.113 124.607 250.113 Q122.732 250.113 120.857 250.529 Q119.006 250.946 117.061 251.826 L117.061 234.465 Z" fill="#000000" fill-rule="nonzero" fill-opacity="1" /><path clip-path="url(#clip680)" d="M147.177 263.145 L152.061 263.145 L152.061 269.025 L147.177 269.025 L147.177 263.145 Z" fill="#000000" fill-rule="nonzero" fill-opacity="1" /><path clip-path="url(#clip680)" d="M172.246 237.543 Q168.635 237.543 166.806 241.108 Q165.001 244.65 165.001 251.779 Q165.001 258.886 166.806 262.451 Q168.635 265.992 172.246 265.992 Q175.88 265.992 177.686 262.451 Q179.514 258.886 179.514 251.779 Q179.514 244.65 177.686 241.108 Q175.88 237.543 172.246 237.543 M172.246 233.84 Q178.056 233.84 181.112 238.446 Q184.19 243.029 184.19 251.779 Q184.19 260.506 181.112 265.113 Q178.056 269.696 172.246 269.696 Q166.436 269.696 163.357 265.113 Q160.302 260.506 160.302 251.779 Q160.302 243.029 163.357 238.446 Q166.436 233.84 172.246 233.84 Z" fill="#000000" fill-rule="nonzero" fill-opacity="1" /><path clip-path="url(#clip680)" d="M220.579 243.562 L210 254.187 L220.579 264.765 L217.824 267.566 L207.199 256.941 L196.575 267.566 L193.843 264.765 L204.399 254.187 L193.843 243.562 L196.575 240.761 L207.199 251.386 L217.824 240.761 L220.579 243.562 Z" fill="#000000" fill-rule="nonzero" fill-opacity="1" /><path clip-path="url(#clip680)" d="M232.94 265.089 L240.579 265.089 L240.579 238.724 L232.269 240.391 L232.269 236.131 L240.533 234.465 L245.209 234.465 L245.209 265.089 L252.847 265.089 L252.847 269.025 L232.94 269.025 L232.94 265.089 Z" fill="#000000" fill-rule="nonzero" fill-opacity="1" /><path clip-path="url(#clip680)" d="M272.292 237.543 Q268.681 237.543 266.852 241.108 Q265.046 244.65 265.046 251.779 Q265.046 258.886 266.852 262.451 Q268.681 265.992 272.292 265.992 Q275.926 265.992 277.732 262.451 Q279.56 258.886 279.56 251.779 Q279.56 244.65 277.732 241.108 Q275.926 237.543 272.292 237.543 M272.292 233.84 Q278.102 233.84 281.157 238.446 Q284.236 243.029 284.236 251.779 Q284.236 260.506 281.157 265.113 Q278.102 269.696 272.292 269.696 Q266.482 269.696 263.403 265.113 Q260.347 260.506 260.347 251.779 Q260.347 243.029 263.403 238.446 Q266.482 233.84 272.292 233.84 Z" fill="#000000" fill-rule="nonzero" fill-opacity="1" /><path clip-path="url(#clip680)" d="M285.421 213.534 L300.336 213.534 L300.336 216.732 L288.9 216.732 L288.9 223.615 Q289.728 223.333 290.556 223.201 Q291.383 223.051 292.211 223.051 Q296.913 223.051 299.658 225.628 Q302.404 228.204 302.404 232.605 Q302.404 237.138 299.583 239.658 Q296.762 242.16 291.628 242.16 Q289.86 242.16 288.016 241.859 Q286.192 241.558 284.236 240.956 L284.236 237.138 Q285.929 238.06 287.734 238.511 Q289.54 238.962 291.552 238.962 Q294.806 238.962 296.706 237.251 Q298.605 235.539 298.605 232.605 Q298.605 229.671 296.706 227.96 Q294.806 226.248 291.552 226.248 Q290.029 226.248 288.505 226.587 Q287.001 226.925 285.421 227.64 L285.421 213.534 Z" fill="#000000" fill-rule="nonzero" fill-opacity="1" /><path clip-path="url(#clip680)" d="M82.5735 784.322 L16.6159 784.322 L16.6159 774.37 L18.1296 774.37 L18.1296 779.91 L81.0598 779.91 L81.0598 774.37 L82.5735 774.37 L82.5735 784.322 Z" fill="#000000" fill-rule="nonzero" fill-opacity="1" /><path clip-path="url(#clip680)" d="M66.0841 766.172 L64.0551 766.172 L64.0551 764.594 Q64.0551 761.019 63.4754 760.214 Q62.8635 759.376 60.9312 759.376 L26.181 759.376 Q24.2809 759.376 23.7012 760.214 Q23.0893 761.051 23.0893 764.594 L23.0893 766.172 L21.0281 766.172 L21.0281 742.887 Q21.0281 736.22 24.6996 731.776 Q28.371 727.331 33.2985 727.331 Q38.1938 727.331 41.7365 731.872 Q45.2469 736.381 45.2469 742.372 L45.2469 753.515 L60.9312 753.515 Q62.8313 753.515 63.4432 752.71 Q64.0551 751.872 64.0551 748.297 L64.0551 746.719 L66.0841 746.719 Q65.8909 749.038 65.8909 756.478 Q65.8909 763.853 66.0841 766.172 M43.54 753.708 L43.54 744.626 Q43.54 741.663 42.7026 739.505 Q41.8653 737.347 40.8669 736.381 Q39.8363 735.383 38.1938 734.835 Q36.5191 734.256 35.6174 734.191 Q34.6834 734.127 33.2985 734.127 Q31.8493 734.127 30.9475 734.191 Q30.0135 734.256 28.371 734.835 Q26.6963 735.383 25.6979 736.381 Q24.6674 737.347 23.8944 739.505 Q23.0893 741.631 23.0893 744.626 L23.0893 750.487 Q23.0893 752.742 23.5402 753.225 Q23.991 753.708 25.7302 753.708 L43.54 753.708 Z" fill="#000000" fill-rule="nonzero" fill-opacity="1" /><path clip-path="url(#clip680)" d="M59.804 716.196 Q54.2001 716.196 51.2372 709.594 Q49.337 705.632 48.854 697.452 L46.4385 697.452 Q42.3484 697.452 40.1906 699.61 Q38.0006 701.736 38.0006 704.441 Q38.0006 709.272 41.0279 711.591 Q41.0923 709.626 42.0907 708.917 Q43.0569 708.209 44.0553 708.209 Q45.3757 708.209 46.2453 709.046 Q47.0826 709.851 47.0826 711.236 Q47.0826 712.557 46.2775 713.426 Q45.4401 714.296 43.9909 714.296 Q40.7703 714.296 38.6447 711.397 Q36.5191 708.467 36.5191 704.312 Q36.5191 698.901 40.1584 695.294 Q41.2856 694.167 42.7348 693.62 Q44.1841 693.04 45.1503 692.976 Q46.0843 692.911 47.9522 692.911 L61.1244 692.911 Q61.5109 692.911 62.155 692.782 Q62.7991 692.653 63.6364 692.074 Q64.4416 691.462 64.4416 690.463 Q64.4416 688.08 60.2226 688.112 L56.519 688.112 L56.519 686.438 L60.2226 686.438 Q63.7331 686.438 65.1179 688.306 Q66.4706 690.141 66.4706 691.848 Q66.4706 694.038 64.8603 695.423 Q63.25 696.808 61.06 697.001 Q63.572 698 65.2145 700.286 Q66.8248 702.541 66.8248 705.632 Q66.8248 708.016 66.2129 710.27 Q65.6332 712.492 63.9907 714.36 Q62.316 716.196 59.804 716.196 M59.7395 711.107 Q62.1872 711.107 63.7653 709.368 Q65.3434 707.629 65.3434 705.182 Q65.3434 702.412 63.2178 699.932 Q61.06 697.452 56.841 697.452 L50.2388 697.452 Q50.4965 704.763 53.4272 707.951 Q56.3257 711.107 59.7395 711.107 Z" fill="#000000" fill-rule="nonzero" fill-opacity="1" /><path clip-path="url(#clip680)" d="M81.0598 683.532 L81.0598 677.992 L18.1296 677.992 L18.1296 683.532 L16.6159 683.532 L16.6159 673.58 L82.5735 673.58 L82.5735 683.532 L81.0598 683.532 Z" fill="#000000" fill-rule="nonzero" fill-opacity="1" /><polyline clip-path="url(#clip682)" style="stroke:#009af9; stroke-linecap:round; stroke-linejoin:round; stroke-width:4; stroke-opacity:1; fill:none" points="338.404,86.1857 358.548,86.8473 378.691,88.83 398.835,92.1278 418.978,96.7307 439.122,102.625 459.265,109.792 479.409,118.21 499.553,127.855 519.696,138.697 539.84,150.703 559.983,163.839 580.127,178.066 600.27,193.342 620.414,209.623 640.557,226.862 660.701,245.011 680.844,264.018 700.988,283.831 721.131,304.395 741.275,325.656 761.418,347.556 781.562,370.038 801.705,393.044 821.849,416.516 841.992,440.396 862.136,464.625 882.279,489.146 902.423,513.902 922.566,538.837 942.71,563.895 962.853,588.448 982.997,611.936 1003.14,634.412 1023.28,655.923 1043.43,676.516 1063.57,696.233 1083.71,715.116 1103.86,733.203 1124,750.531 1144.15,767.134 1164.29,782.097 1184.43,794.586 1204.58,804.738 1224.72,812.662 1244.86,818.44 1265.01,822.129 1285.15,823.76 1305.29,823.343 1325.44,820.863 1345.58,816.282 1365.72,811.37 1385.87,807.977 1406.01,806.146 1426.15,805.907 1446.3,807.271 1466.44,810.235 1486.58,814.775 1506.73,820.854 1526.87,828.419 1547.02,837.399 1567.16,846.987 1587.3,856.429 1607.45,865.727 1627.59,874.881 1647.73,883.893 1667.88,892.763 1688.02,901.494 1708.16,910.085 1728.31,918.539 1748.45,926.856 1768.59,934.94 1788.74,942.704 1808.88,950.161 1829.02,957.324 1849.17,964.206 1869.31,970.818 1889.46,977.171 1909.6,983.275 1929.74,989.14 1949.89,994.774 1970.03,1000.42 1990.17,1006.24 2010.32,1012.48 2030.46,1019.53 2050.6,1027.88 2070.75,1038.19 2090.89,1051.29 2111.03,1068.17 2131.18,1089.82 2151.32,1117.16 2171.46,1150.35 2191.61,1188.62 2211.75,1229.77 2231.89,1270.36 2252.04,1306.64 2272.18,1335.82 2292.33,1356.98 2312.47,1370.91 2332.61,1379.4 2352.76,1384.24 "/>
<path clip-path="url(#clip680)" d="M1423.39 196.789 L2285.61 196.789 L2285.61 93.1086 L1423.39 93.1086  Z" fill="#ffffff" fill-rule="evenodd" fill-opacity="0.6"/>
<polyline clip-path="url(#clip680)" style="stroke:#000000; stroke-linecap:round; stroke-linejoin:round; stroke-width:4; stroke-opacity:1; fill:none" points="1423.39,196.789 2285.61,196.789 2285.61,93.1086 1423.39,93.1086 1423.39,196.789 "/>
<polyline clip-path="url(#clip680)" style="stroke:#009af9; stroke-linecap:round; stroke-linejoin:round; stroke-width:4; stroke-opacity:1; fill:none" points="1445.77,144.949 1580.06,144.949 "/>
<path clip-path="url(#clip680)" d="M1606.73 158.34 L1606.73 172.09 L1602.45 172.09 L1602.45 136.303 L1606.73 136.303 L1606.73 140.238 Q1608.07 137.923 1610.11 136.812 Q1612.17 135.678 1615.02 135.678 Q1619.74 135.678 1622.68 139.428 Q1625.64 143.178 1625.64 149.289 Q1625.64 155.4 1622.68 159.15 Q1619.74 162.9 1615.02 162.9 Q1612.17 162.9 1610.11 161.789 Q1608.07 160.655 1606.73 158.34 M1621.22 149.289 Q1621.22 144.59 1619.27 141.928 Q1617.35 139.243 1613.97 139.243 Q1610.59 139.243 1608.65 141.928 Q1606.73 144.59 1606.73 149.289 Q1606.73 153.988 1608.65 156.673 Q1610.59 159.335 1613.97 159.335 Q1617.35 159.335 1619.27 156.673 Q1621.22 153.988 1621.22 149.289 Z" fill="#000000" fill-rule="nonzero" fill-opacity="1" /><path clip-path="url(#clip680)" d="M1647.72 140.284 Q1647.01 139.868 1646.15 139.682 Q1645.32 139.474 1644.3 139.474 Q1640.69 139.474 1638.74 141.835 Q1636.82 144.173 1636.82 148.571 L1636.82 162.229 L1632.54 162.229 L1632.54 136.303 L1636.82 136.303 L1636.82 140.331 Q1638.16 137.969 1640.32 136.835 Q1642.47 135.678 1645.55 135.678 Q1645.99 135.678 1646.52 135.747 Q1647.05 135.794 1647.7 135.909 L1647.72 140.284 Z" fill="#000000" fill-rule="nonzero" fill-opacity="1" /><path clip-path="url(#clip680)" d="M1661.2 139.289 Q1657.77 139.289 1655.78 141.974 Q1653.79 144.636 1653.79 149.289 Q1653.79 153.942 1655.76 156.627 Q1657.75 159.289 1661.2 159.289 Q1664.6 159.289 1666.59 156.604 Q1668.58 153.918 1668.58 149.289 Q1668.58 144.682 1666.59 141.997 Q1664.6 139.289 1661.2 139.289 M1661.2 135.678 Q1666.75 135.678 1669.92 139.289 Q1673.09 142.9 1673.09 149.289 Q1673.09 155.655 1669.92 159.289 Q1666.75 162.9 1661.2 162.9 Q1655.62 162.9 1652.45 159.289 Q1649.3 155.655 1649.3 149.289 Q1649.3 142.9 1652.45 139.289 Q1655.62 135.678 1661.2 135.678 Z" fill="#000000" fill-rule="nonzero" fill-opacity="1" /><path clip-path="url(#clip680)" d="M1693.28 126.21 L1693.28 129.752 L1689.2 129.752 Q1686.91 129.752 1686.01 130.678 Q1685.13 131.604 1685.13 134.011 L1685.13 136.303 L1692.14 136.303 L1692.14 139.613 L1685.13 139.613 L1685.13 162.229 L1680.85 162.229 L1680.85 139.613 L1676.77 139.613 L1676.77 136.303 L1680.85 136.303 L1680.85 134.497 Q1680.85 130.169 1682.86 128.201 Q1684.88 126.21 1689.25 126.21 L1693.28 126.21 Z" fill="#000000" fill-rule="nonzero" fill-opacity="1" /><path clip-path="url(#clip680)" d="M1696.84 136.303 L1701.1 136.303 L1701.1 162.229 L1696.84 162.229 L1696.84 136.303 M1696.84 126.21 L1701.1 126.21 L1701.1 131.604 L1696.84 131.604 L1696.84 126.21 Z" fill="#000000" fill-rule="nonzero" fill-opacity="1" /><path clip-path="url(#clip680)" d="M1710.01 126.21 L1714.27 126.21 L1714.27 162.229 L1710.01 162.229 L1710.01 126.21 Z" fill="#000000" fill-rule="nonzero" fill-opacity="1" /><path clip-path="url(#clip680)" d="M1745.36 148.201 L1745.36 150.284 L1725.78 150.284 Q1726.06 154.682 1728.42 156.997 Q1730.8 159.289 1735.04 159.289 Q1737.49 159.289 1739.78 158.687 Q1742.1 158.085 1744.37 156.881 L1744.37 160.909 Q1742.07 161.881 1739.67 162.391 Q1737.26 162.9 1734.78 162.9 Q1728.58 162.9 1724.95 159.289 Q1721.33 155.678 1721.33 149.52 Q1721.33 143.155 1724.76 139.428 Q1728.21 135.678 1734.04 135.678 Q1739.27 135.678 1742.31 139.057 Q1745.36 142.414 1745.36 148.201 M1741.1 146.951 Q1741.06 143.456 1739.13 141.372 Q1737.24 139.289 1734.09 139.289 Q1730.52 139.289 1728.37 141.303 Q1726.24 143.317 1725.92 146.974 L1741.1 146.951 Z" fill="#000000" fill-rule="nonzero" fill-opacity="1" /><path clip-path="url(#clip680)" d="M1768.88 137.067 L1768.88 141.094 Q1767.07 140.169 1765.13 139.706 Q1763.19 139.243 1761.1 139.243 Q1757.93 139.243 1756.33 140.215 Q1754.76 141.187 1754.76 143.131 Q1754.76 144.613 1755.89 145.469 Q1757.03 146.303 1760.45 147.067 L1761.91 147.391 Q1766.45 148.363 1768.35 150.145 Q1770.27 151.905 1770.27 155.076 Q1770.27 158.687 1767.4 160.793 Q1764.55 162.9 1759.55 162.9 Q1757.47 162.9 1755.2 162.483 Q1752.95 162.09 1750.45 161.28 L1750.45 156.881 Q1752.82 158.108 1755.11 158.733 Q1757.4 159.335 1759.64 159.335 Q1762.65 159.335 1764.27 158.317 Q1765.89 157.275 1765.89 155.4 Q1765.89 153.664 1764.71 152.738 Q1763.56 151.812 1759.6 150.956 L1758.12 150.608 Q1754.16 149.775 1752.4 148.062 Q1750.64 146.326 1750.64 143.317 Q1750.64 139.659 1753.23 137.669 Q1755.82 135.678 1760.59 135.678 Q1762.95 135.678 1765.04 136.025 Q1767.12 136.372 1768.88 137.067 Z" fill="#000000" fill-rule="nonzero" fill-opacity="1" /><path clip-path="url(#clip680)" d="M1793.53 158.293 L1801.17 158.293 L1801.17 131.928 L1792.86 133.595 L1792.86 129.335 L1801.13 127.669 L1805.8 127.669 L1805.8 158.293 L1813.44 158.293 L1813.44 162.229 L1793.53 162.229 L1793.53 158.293 Z" fill="#000000" fill-rule="nonzero" fill-opacity="1" /><path clip-path="url(#clip680)" d="M1839.34 140.238 L1839.34 126.21 L1843.6 126.21 L1843.6 162.229 L1839.34 162.229 L1839.34 158.34 Q1838 160.655 1835.94 161.789 Q1833.9 162.9 1831.03 162.9 Q1826.33 162.9 1823.37 159.15 Q1820.43 155.4 1820.43 149.289 Q1820.43 143.178 1823.37 139.428 Q1826.33 135.678 1831.03 135.678 Q1833.9 135.678 1835.94 136.812 Q1838 137.923 1839.34 140.238 M1824.83 149.289 Q1824.83 153.988 1826.75 156.673 Q1828.69 159.335 1832.07 159.335 Q1835.45 159.335 1837.4 156.673 Q1839.34 153.988 1839.34 149.289 Q1839.34 144.59 1837.4 141.928 Q1835.45 139.243 1832.07 139.243 Q1828.69 139.243 1826.75 141.928 Q1824.83 144.59 1824.83 149.289 Z" fill="#000000" fill-rule="nonzero" fill-opacity="1" /><path clip-path="url(#clip680)" d="M1871.56 158.34 L1871.56 172.09 L1867.28 172.09 L1867.28 136.303 L1871.56 136.303 L1871.56 140.238 Q1872.91 137.923 1874.94 136.812 Q1877 135.678 1879.85 135.678 Q1884.57 135.678 1887.51 139.428 Q1890.48 143.178 1890.48 149.289 Q1890.48 155.4 1887.51 159.15 Q1884.57 162.9 1879.85 162.9 Q1877 162.9 1874.94 161.789 Q1872.91 160.655 1871.56 158.34 M1886.06 149.289 Q1886.06 144.59 1884.11 141.928 Q1882.19 139.243 1878.81 139.243 Q1875.43 139.243 1873.49 141.928 Q1871.56 144.59 1871.56 149.289 Q1871.56 153.988 1873.49 156.673 Q1875.43 159.335 1878.81 159.335 Q1882.19 159.335 1884.11 156.673 Q1886.06 153.988 1886.06 149.289 Z" fill="#000000" fill-rule="nonzero" fill-opacity="1" /><path clip-path="url(#clip680)" d="M1912.56 140.284 Q1911.84 139.868 1910.99 139.682 Q1910.15 139.474 1909.13 139.474 Q1905.52 139.474 1903.58 141.835 Q1901.66 144.173 1901.66 148.571 L1901.66 162.229 L1897.37 162.229 L1897.37 136.303 L1901.66 136.303 L1901.66 140.331 Q1903 137.969 1905.15 136.835 Q1907.31 135.678 1910.38 135.678 Q1910.82 135.678 1911.36 135.747 Q1911.89 135.794 1912.54 135.909 L1912.56 140.284 Z" fill="#000000" fill-rule="nonzero" fill-opacity="1" /><path clip-path="url(#clip680)" d="M1938.16 148.201 L1938.16 150.284 L1918.58 150.284 Q1918.86 154.682 1921.22 156.997 Q1923.6 159.289 1927.84 159.289 Q1930.29 159.289 1932.58 158.687 Q1934.9 158.085 1937.17 156.881 L1937.17 160.909 Q1934.87 161.881 1932.47 162.391 Q1930.06 162.9 1927.58 162.9 Q1921.38 162.9 1917.74 159.289 Q1914.13 155.678 1914.13 149.52 Q1914.13 143.155 1917.56 139.428 Q1921.01 135.678 1926.84 135.678 Q1932.07 135.678 1935.11 139.057 Q1938.16 142.414 1938.16 148.201 M1933.9 146.951 Q1933.86 143.456 1931.93 141.372 Q1930.04 139.289 1926.89 139.289 Q1923.32 139.289 1921.17 141.303 Q1919.04 143.317 1918.72 146.974 L1933.9 146.951 Z" fill="#000000" fill-rule="nonzero" fill-opacity="1" /><path clip-path="url(#clip680)" d="M1961.68 137.067 L1961.68 141.094 Q1959.87 140.169 1957.93 139.706 Q1955.99 139.243 1953.9 139.243 Q1950.73 139.243 1949.13 140.215 Q1947.56 141.187 1947.56 143.131 Q1947.56 144.613 1948.69 145.469 Q1949.83 146.303 1953.25 147.067 L1954.71 147.391 Q1959.25 148.363 1961.15 150.145 Q1963.07 151.905 1963.07 155.076 Q1963.07 158.687 1960.2 160.793 Q1957.35 162.9 1952.35 162.9 Q1950.27 162.9 1948 162.483 Q1945.75 162.09 1943.25 161.28 L1943.25 156.881 Q1945.62 158.108 1947.91 158.733 Q1950.2 159.335 1952.44 159.335 Q1955.45 159.335 1957.07 158.317 Q1958.69 157.275 1958.69 155.4 Q1958.69 153.664 1957.51 152.738 Q1956.36 151.812 1952.4 150.956 L1950.92 150.608 Q1946.96 149.775 1945.2 148.062 Q1943.44 146.326 1943.44 143.317 Q1943.44 139.659 1946.03 137.669 Q1948.62 135.678 1953.39 135.678 Q1955.75 135.678 1957.84 136.025 Q1959.92 136.372 1961.68 137.067 Z" fill="#000000" fill-rule="nonzero" fill-opacity="1" /><path clip-path="url(#clip680)" d="M1986.38 137.067 L1986.38 141.094 Q1984.57 140.169 1982.63 139.706 Q1980.68 139.243 1978.6 139.243 Q1975.43 139.243 1973.83 140.215 Q1972.26 141.187 1972.26 143.131 Q1972.26 144.613 1973.39 145.469 Q1974.53 146.303 1977.95 147.067 L1979.41 147.391 Q1983.95 148.363 1985.85 150.145 Q1987.77 151.905 1987.77 155.076 Q1987.77 158.687 1984.9 160.793 Q1982.05 162.9 1977.05 162.9 Q1974.97 162.9 1972.7 162.483 Q1970.45 162.09 1967.95 161.28 L1967.95 156.881 Q1970.31 158.108 1972.61 158.733 Q1974.9 159.335 1977.14 159.335 Q1980.15 159.335 1981.77 158.317 Q1983.39 157.275 1983.39 155.4 Q1983.39 153.664 1982.21 152.738 Q1981.05 151.812 1977.1 150.956 L1975.61 150.608 Q1971.66 149.775 1969.9 148.062 Q1968.14 146.326 1968.14 143.317 Q1968.14 139.659 1970.73 137.669 Q1973.32 135.678 1978.09 135.678 Q1980.45 135.678 1982.54 136.025 Q1984.62 136.372 1986.38 137.067 Z" fill="#000000" fill-rule="nonzero" fill-opacity="1" /><path clip-path="url(#clip680)" d="M1994.11 151.997 L1994.11 136.303 L1998.37 136.303 L1998.37 151.835 Q1998.37 155.516 1999.8 157.368 Q2001.24 159.196 2004.11 159.196 Q2007.56 159.196 2009.55 156.997 Q2011.56 154.798 2011.56 151.002 L2011.56 136.303 L2015.82 136.303 L2015.82 162.229 L2011.56 162.229 L2011.56 158.247 Q2010.01 160.608 2007.95 161.766 Q2005.92 162.9 2003.21 162.9 Q1998.74 162.9 1996.43 160.122 Q1994.11 157.344 1994.11 151.997 M2004.83 135.678 L2004.83 135.678 Z" fill="#000000" fill-rule="nonzero" fill-opacity="1" /><path clip-path="url(#clip680)" d="M2039.62 140.284 Q2038.9 139.868 2038.05 139.682 Q2037.21 139.474 2036.19 139.474 Q2032.58 139.474 2030.64 141.835 Q2028.72 144.173 2028.72 148.571 L2028.72 162.229 L2024.43 162.229 L2024.43 136.303 L2028.72 136.303 L2028.72 140.331 Q2030.06 137.969 2032.21 136.835 Q2034.36 135.678 2037.44 135.678 Q2037.88 135.678 2038.42 135.747 Q2038.95 135.794 2039.6 135.909 L2039.62 140.284 Z" fill="#000000" fill-rule="nonzero" fill-opacity="1" /><path clip-path="url(#clip680)" d="M2065.22 148.201 L2065.22 150.284 L2045.64 150.284 Q2045.92 154.682 2048.28 156.997 Q2050.66 159.289 2054.9 159.289 Q2057.35 159.289 2059.64 158.687 Q2061.96 158.085 2064.23 156.881 L2064.23 160.909 Q2061.93 161.881 2059.53 162.391 Q2057.12 162.9 2054.64 162.9 Q2048.44 162.9 2044.8 159.289 Q2041.19 155.678 2041.19 149.52 Q2041.19 143.155 2044.62 139.428 Q2048.07 135.678 2053.9 135.678 Q2059.13 135.678 2062.17 139.057 Q2065.22 142.414 2065.22 148.201 M2060.96 146.951 Q2060.92 143.456 2058.99 141.372 Q2057.1 139.289 2053.95 139.289 Q2050.38 139.289 2048.23 141.303 Q2046.1 143.317 2045.78 146.974 L2060.96 146.951 Z" fill="#000000" fill-rule="nonzero" fill-opacity="1" /><path clip-path="url(#clip680)" d="M2091.49 128.942 L2091.49 136.303 L2100.27 136.303 L2100.27 139.613 L2091.49 139.613 L2091.49 153.687 Q2091.49 156.858 2092.35 157.761 Q2093.23 158.664 2095.89 158.664 L2100.27 158.664 L2100.27 162.229 L2095.89 162.229 Q2090.96 162.229 2089.09 160.4 Q2087.21 158.548 2087.21 153.687 L2087.21 139.613 L2084.09 139.613 L2084.09 136.303 L2087.21 136.303 L2087.21 128.942 L2091.49 128.942 Z" fill="#000000" fill-rule="nonzero" fill-opacity="1" /><path clip-path="url(#clip680)" d="M2127.42 146.581 L2127.42 162.229 L2123.16 162.229 L2123.16 146.719 Q2123.16 143.039 2121.73 141.21 Q2120.29 139.382 2117.42 139.382 Q2113.97 139.382 2111.98 141.581 Q2109.99 143.78 2109.99 147.576 L2109.99 162.229 L2105.71 162.229 L2105.71 126.21 L2109.99 126.21 L2109.99 140.331 Q2111.52 137.993 2113.58 136.835 Q2115.66 135.678 2118.37 135.678 Q2122.84 135.678 2125.13 138.456 Q2127.42 141.21 2127.42 146.581 Z" fill="#000000" fill-rule="nonzero" fill-opacity="1" /><path clip-path="url(#clip680)" d="M2158.09 148.201 L2158.09 150.284 L2138.51 150.284 Q2138.79 154.682 2141.15 156.997 Q2143.53 159.289 2147.77 159.289 Q2150.22 159.289 2152.51 158.687 Q2154.83 158.085 2157.1 156.881 L2157.1 160.909 Q2154.8 161.881 2152.4 162.391 Q2149.99 162.9 2147.51 162.9 Q2141.31 162.9 2137.67 159.289 Q2134.06 155.678 2134.06 149.52 Q2134.06 143.155 2137.49 139.428 Q2140.94 135.678 2146.77 135.678 Q2152 135.678 2155.04 139.057 Q2158.09 142.414 2158.09 148.201 M2153.83 146.951 Q2153.79 143.456 2151.86 141.372 Q2149.97 139.289 2146.82 139.289 Q2143.25 139.289 2141.1 141.303 Q2138.97 143.317 2138.65 146.974 L2153.83 146.951 Z" fill="#000000" fill-rule="nonzero" fill-opacity="1" /><path clip-path="url(#clip680)" d="M2180.1 140.284 Q2179.39 139.868 2178.53 139.682 Q2177.7 139.474 2176.68 139.474 Q2173.07 139.474 2171.12 141.835 Q2169.2 144.173 2169.2 148.571 L2169.2 162.229 L2164.92 162.229 L2164.92 136.303 L2169.2 136.303 L2169.2 140.331 Q2170.54 137.969 2172.7 136.835 Q2174.85 135.678 2177.93 135.678 Q2178.37 135.678 2178.9 135.747 Q2179.43 135.794 2180.08 135.909 L2180.1 140.284 Z" fill="#000000" fill-rule="nonzero" fill-opacity="1" /><path clip-path="url(#clip680)" d="M2203.92 141.28 Q2205.52 138.409 2207.74 137.044 Q2209.97 135.678 2212.97 135.678 Q2217.03 135.678 2219.22 138.525 Q2221.42 141.349 2221.42 146.581 L2221.42 162.229 L2217.14 162.229 L2217.14 146.719 Q2217.14 142.993 2215.82 141.187 Q2214.5 139.382 2211.79 139.382 Q2208.48 139.382 2206.56 141.581 Q2204.64 143.78 2204.64 147.576 L2204.64 162.229 L2200.36 162.229 L2200.36 146.719 Q2200.36 142.969 2199.04 141.187 Q2197.72 139.382 2194.97 139.382 Q2191.7 139.382 2189.78 141.604 Q2187.86 143.803 2187.86 147.576 L2187.86 162.229 L2183.58 162.229 L2183.58 136.303 L2187.86 136.303 L2187.86 140.331 Q2189.32 137.946 2191.35 136.812 Q2193.39 135.678 2196.19 135.678 Q2199.02 135.678 2200.98 137.113 Q2202.97 138.548 2203.92 141.28 Z" fill="#000000" fill-rule="nonzero" fill-opacity="1" /><path clip-path="url(#clip680)" d="M2241.7 149.196 Q2236.54 149.196 2234.55 150.377 Q2232.56 151.557 2232.56 154.405 Q2232.56 156.673 2234.04 158.016 Q2235.54 159.335 2238.11 159.335 Q2241.66 159.335 2243.78 156.835 Q2245.94 154.312 2245.94 150.145 L2245.94 149.196 L2241.7 149.196 M2250.2 147.437 L2250.2 162.229 L2245.94 162.229 L2245.94 158.293 Q2244.48 160.655 2242.3 161.789 Q2240.13 162.9 2236.98 162.9 Q2233 162.9 2230.64 160.678 Q2228.3 158.432 2228.3 154.682 Q2228.3 150.307 2231.22 148.085 Q2234.16 145.863 2239.97 145.863 L2245.94 145.863 L2245.94 145.446 Q2245.94 142.507 2243.99 140.909 Q2242.07 139.289 2238.58 139.289 Q2236.35 139.289 2234.25 139.821 Q2232.14 140.354 2230.2 141.419 L2230.2 137.483 Q2232.53 136.581 2234.73 136.141 Q2236.93 135.678 2239.02 135.678 Q2244.64 135.678 2247.42 138.594 Q2250.2 141.511 2250.2 147.437 Z" fill="#000000" fill-rule="nonzero" fill-opacity="1" /><path clip-path="url(#clip680)" d="M2258.97 126.21 L2263.23 126.21 L2263.23 162.229 L2258.97 162.229 L2258.97 126.21 Z" fill="#000000" fill-rule="nonzero" fill-opacity="1" /></svg>
