<?xml version="1.0" encoding="UTF-8" standalone="no"?>
<!DOCTYPE svg PUBLIC "-//W3C//DTD SVG 1.1//EN"
 "http://www.w3.org/Graphics/SVG/1.1/DTD/svg11.dtd">
<!-- Generated by graphviz version 12.1.2 (20240928.0832)
 -->
<!-- Title: G Pages: 1 -->
<svg width="979pt" height="674pt"
 viewBox="0.00 0.00 979.02 674.00" xmlns="http://www.w3.org/2000/svg" xmlns:xlink="http://www.w3.org/1999/xlink">
<g id="graph0" class="graph" transform="scale(1 1) rotate(0) translate(4 670)">
<title>G</title>
<polygon fill="white" stroke="none" points="-4,4 -4,-670 975.02,-670 975.02,4 -4,4"/>
<!-- VacuumFields -->
<g id="node1" class="node">
<title>VacuumFields</title>
<ellipse fill="none" stroke="black" stroke-width="3" cx="182.27" cy="-452" rx="56.14" ry="18"/>
<text text-anchor="middle" x="182.27" y="-446.98" font-family="Helvetica,sans-Serif" font-size="12.00">VacuumFields</text>
</g>
<!-- FusionMaterials -->
<g id="node2" class="node">
<title>FusionMaterials</title>
<ellipse fill="none" stroke="black" stroke-width="3" cx="386.88" cy="-437" rx="62.1" ry="18"/>
<text text-anchor="middle" x="386.88" y="-431.98" font-family="Helvetica,sans-Serif" font-size="12.00">FusionMaterials</text>
</g>
<!-- VacuumFields&#45;&gt;FusionMaterials -->
<g id="edge1" class="edge">
<title>VacuumFields&#45;&gt;FusionMaterials</title>
<path fill="none" stroke="#b8a58b" stroke-width="2" d="M238.37,-447.92C261.11,-446.24 287.81,-444.26 312.2,-442.45"/>
<polygon fill="#b8a58b" stroke="#b8a58b" stroke-width="2" points="312.36,-445.95 322.07,-441.72 311.84,-438.97 312.36,-445.95"/>
</g>
<!-- MXHEquilibrium -->
<g id="node3" class="node">
<title>MXHEquilibrium</title>
<ellipse fill="none" stroke="black" stroke-width="3" cx="579.09" cy="-575" rx="63.48" ry="18"/>
<text text-anchor="middle" x="579.09" y="-569.98" font-family="Helvetica,sans-Serif" font-size="12.00">MXHEquilibrium</text>
</g>
<!-- VacuumFields&#45;&gt;MXHEquilibrium -->
<g id="edge2" class="edge">
<title>VacuumFields&#45;&gt;MXHEquilibrium</title>
<path fill="none" stroke="#e9244b" stroke-width="2" d="M238.72,-455.52C252.18,-458.8 265.56,-464.45 275.58,-474 309.08,-505.92 267.63,-546.14 304.58,-574 335.28,-597.15 436.56,-591.41 506.86,-584.07"/>
<polygon fill="#e9244b" stroke="#e9244b" stroke-width="2" points="507.03,-587.57 516.6,-583.02 506.28,-580.62 507.03,-587.57"/>
</g>
<!-- IMAS -->
<g id="node9" class="node">
<title>IMAS</title>
<ellipse fill="none" stroke="black" stroke-width="3" cx="579.09" cy="-365" rx="27.69" ry="18"/>
<text text-anchor="middle" x="579.09" y="-359.98" font-family="Helvetica,sans-Serif" font-size="12.00">IMAS</text>
</g>
<!-- VacuumFields&#45;&gt;IMAS -->
<g id="edge16" class="edge">
<title>VacuumFields&#45;&gt;IMAS</title>
<path fill="none" stroke="#8dde75" stroke-width="2" d="M237.27,-457.79C308.08,-464.59 428.12,-473.14 469.17,-458 504.98,-444.79 537,-413.99 556.91,-391.44"/>
<polygon fill="#8dde75" stroke="#8dde75" stroke-width="2" points="559.38,-393.93 563.21,-384.06 554.06,-389.39 559.38,-393.93"/>
</g>
<!-- MillerExtendedHarmonic -->
<g id="node20" class="node">
<title>MillerExtendedHarmonic</title>
<ellipse fill="none" stroke="black" stroke-width="3" cx="779.57" cy="-503" rx="90.56" ry="18"/>
<text text-anchor="middle" x="779.57" y="-497.98" font-family="Helvetica,sans-Serif" font-size="12.00">MillerExtendedHarmonic</text>
</g>
<!-- VacuumFields&#45;&gt;MillerExtendedHarmonic -->
<g id="edge24" class="edge">
<title>VacuumFields&#45;&gt;MillerExtendedHarmonic</title>
<path fill="none" stroke="#07dddd" stroke-width="2" d="M235.76,-459.04C257.09,-461.76 281.99,-464.75 304.58,-467 433.53,-479.86 582.63,-490.49 678.64,-496.79"/>
<polygon fill="#07dddd" stroke="#07dddd" stroke-width="2" points="678.31,-500.27 688.51,-497.43 678.76,-493.29 678.31,-500.27"/>
</g>
<!-- TEQUILA -->
<g id="node22" class="node">
<title>TEQUILA</title>
<ellipse fill="none" stroke="black" stroke-width="3" cx="386.88" cy="-510" rx="41.45" ry="18"/>
<text text-anchor="middle" x="386.88" y="-504.98" font-family="Helvetica,sans-Serif" font-size="12.00">TEQUILA</text>
</g>
<!-- VacuumFields&#45;&gt;TEQUILA -->
<g id="edge25" class="edge">
<title>VacuumFields&#45;&gt;TEQUILA</title>
<path fill="none" stroke="#dde744" stroke-width="2" d="M231.58,-461.99C245.88,-465.36 261.47,-469.43 275.58,-474 288.85,-478.3 291.43,-481.35 304.58,-486 315.15,-489.74 326.63,-493.37 337.54,-496.64"/>
<polygon fill="#dde744" stroke="#dde744" stroke-width="2" points="336.52,-499.99 347.1,-499.44 338.48,-493.27 336.52,-499.99"/>
</g>
<!-- FusionMaterials&#45;&gt;IMAS -->
<g id="edge21" class="edge">
<title>FusionMaterials&#45;&gt;IMAS</title>
<path fill="none" stroke="#bf90fc" stroke-width="2" d="M436.86,-425.16C447.61,-422.17 458.86,-418.73 469.17,-415 495.01,-405.65 523.18,-392.63 544.4,-382.23"/>
<polygon fill="#bf90fc" stroke="#bf90fc" stroke-width="2" points="545.91,-385.39 553.31,-377.8 542.79,-379.12 545.91,-385.39"/>
</g>
<!-- EFIT -->
<g id="node10" class="node">
<title>EFIT</title>
<ellipse fill="none" stroke="black" stroke-width="3" cx="779.57" cy="-604" rx="27" ry="18"/>
<text text-anchor="middle" x="779.57" y="-598.98" font-family="Helvetica,sans-Serif" font-size="12.00">EFIT</text>
</g>
<!-- MXHEquilibrium&#45;&gt;EFIT -->
<g id="edge7" class="edge">
<title>MXHEquilibrium&#45;&gt;EFIT</title>
<path fill="none" stroke="#170ba0" stroke-width="2" d="M637.5,-583.39C670.16,-588.16 710.23,-594.01 739.3,-598.26"/>
<polygon fill="#170ba0" stroke="#170ba0" stroke-width="2" points="738.42,-601.67 748.82,-599.65 739.44,-594.75 738.42,-601.67"/>
</g>
<!-- CoordinateConventions -->
<g id="node19" class="node">
<title>CoordinateConventions</title>
<ellipse fill="none" stroke="black" stroke-width="3" cx="779.57" cy="-445" rx="87.34" ry="18"/>
<text text-anchor="middle" x="779.57" y="-439.98" font-family="Helvetica,sans-Serif" font-size="12.00">CoordinateConventions</text>
</g>
<!-- MXHEquilibrium&#45;&gt;CoordinateConventions -->
<g id="edge17" class="edge">
<title>MXHEquilibrium&#45;&gt;CoordinateConventions</title>
<path fill="none" stroke="#3d3ff1" stroke-width="2" d="M637.13,-566.29C645.47,-563.13 653.44,-558.83 660.01,-553 685.51,-530.38 664.96,-506.15 689.01,-482 695.54,-475.44 703.4,-470 711.71,-465.49"/>
<polygon fill="#3d3ff1" stroke="#3d3ff1" stroke-width="2" points="713.05,-468.73 720.52,-461.22 710,-462.43 713.05,-468.73"/>
</g>
<!-- MXHEquilibrium&#45;&gt;MillerExtendedHarmonic -->
<g id="edge47" class="edge">
<title>MXHEquilibrium&#45;&gt;MillerExtendedHarmonic</title>
<path fill="none" stroke="#fd5f4c" stroke-width="2" d="M629.07,-562.79C639.38,-559.87 650.12,-556.55 660.01,-553 673.3,-548.22 676.04,-545.59 689.01,-540 700.48,-535.06 712.82,-529.88 724.57,-525"/>
<polygon fill="#fd5f4c" stroke="#fd5f4c" stroke-width="2" points="725.84,-528.27 733.74,-521.22 723.17,-521.8 725.84,-528.27"/>
</g>
<!-- MeshTools -->
<g id="node27" class="node">
<title>MeshTools</title>
<ellipse fill="none" stroke="black" stroke-width="3" cx="779.57" cy="-561" rx="45.12" ry="18"/>
<text text-anchor="middle" x="779.57" y="-555.98" font-family="Helvetica,sans-Serif" font-size="12.00">MeshTools</text>
</g>
<!-- MXHEquilibrium&#45;&gt;MeshTools -->
<g id="edge37" class="edge">
<title>MXHEquilibrium&#45;&gt;MeshTools</title>
<path fill="none" stroke="#5fda6b" stroke-width="2" d="M642.35,-570.61C667.5,-568.83 696.35,-566.8 721,-565.06"/>
<polygon fill="#5fda6b" stroke="#5fda6b" stroke-width="2" points="721.1,-568.56 730.82,-564.37 720.6,-561.58 721.1,-568.56"/>
</g>
<!-- ThermalSystemModels -->
<g id="node4" class="node">
<title>ThermalSystemModels</title>
<ellipse fill="none" stroke="black" stroke-width="3" cx="182.27" cy="-394" rx="85.05" ry="18"/>
<text text-anchor="middle" x="182.27" y="-388.98" font-family="Helvetica,sans-Serif" font-size="12.00">ThermalSystemModels</text>
</g>
<!-- XSteam -->
<g id="node5" class="node">
<title>XSteam</title>
<ellipse fill="none" stroke="black" stroke-width="3" cx="386.88" cy="-394" rx="35.95" ry="18"/>
<text text-anchor="middle" x="386.88" y="-388.98" font-family="Helvetica,sans-Serif" font-size="12.00">XSteam</text>
</g>
<!-- ThermalSystemModels&#45;&gt;XSteam -->
<g id="edge3" class="edge">
<title>ThermalSystemModels&#45;&gt;XSteam</title>
<path fill="none" stroke="#7c94e8" stroke-width="2" d="M268.61,-394C291.85,-394 316.24,-394 336.73,-394"/>
<polygon fill="#7c94e8" stroke="#7c94e8" stroke-width="2" points="336.54,-397.5 346.54,-394 336.54,-390.5 336.54,-397.5"/>
</g>
<!-- FUSE -->
<g id="node6" class="node">
<title>FUSE</title>
<ellipse fill="none" stroke="black" stroke-width="3" cx="29.98" cy="-350" rx="29.98" ry="18"/>
<text text-anchor="middle" x="29.98" y="-344.98" font-family="Helvetica,sans-Serif" font-size="12.00">FUSE</text>
</g>
<!-- FUSE&#45;&gt;VacuumFields -->
<g id="edge30" class="edge">
<title>FUSE&#45;&gt;VacuumFields</title>
<path fill="none" stroke="#1ed07f" stroke-width="2" d="M39.88,-368.32C49.52,-386.22 66.57,-412.91 88.96,-428 97.27,-433.6 106.8,-437.89 116.51,-441.18"/>
<polygon fill="#1ed07f" stroke="#1ed07f" stroke-width="2" points="115.35,-444.48 125.94,-443.97 117.35,-437.77 115.35,-444.48"/>
</g>
<!-- FUSE&#45;&gt;FusionMaterials -->
<g id="edge49" class="edge">
<title>FUSE&#45;&gt;FusionMaterials</title>
<path fill="none" stroke="#9a7fb9" stroke-width="2" d="M41.51,-368.13C51.55,-383.55 68.21,-404.77 88.96,-415 98.82,-419.86 226.64,-427.97 311.33,-432.87"/>
<polygon fill="#9a7fb9" stroke="#9a7fb9" stroke-width="2" points="311.06,-436.36 321.24,-433.44 311.46,-429.37 311.06,-436.36"/>
</g>
<!-- FUSE&#45;&gt;MXHEquilibrium -->
<g id="edge48" class="edge">
<title>FUSE&#45;&gt;MXHEquilibrium</title>
<path fill="none" stroke="#0b2a1a" stroke-width="2" d="M33.71,-369.29C40.66,-415.61 60.53,-531.08 88.96,-556 152.72,-611.87 384.53,-591.65 469.17,-587 481.3,-586.33 494.15,-585.25 506.61,-584.01"/>
<polygon fill="#0b2a1a" stroke="#0b2a1a" stroke-width="2" points="506.81,-587.51 516.39,-582.98 506.08,-580.54 506.81,-587.51"/>
</g>
<!-- FUSE&#45;&gt;ThermalSystemModels -->
<g id="edge40" class="edge">
<title>FUSE&#45;&gt;ThermalSystemModels</title>
<path fill="none" stroke="#01d90f" stroke-width="2" d="M57.11,-359.5C67.03,-362.97 78.46,-366.83 88.96,-370 96.07,-372.15 103.52,-374.28 110.98,-376.33"/>
<polygon fill="#01d90f" stroke="#01d90f" stroke-width="2" points="109.98,-379.69 120.54,-378.92 111.8,-372.93 109.98,-379.69"/>
</g>
<!-- Metaheuristics -->
<g id="node7" class="node">
<title>Metaheuristics</title>
<ellipse fill="none" stroke="black" stroke-width="3" cx="182.27" cy="-495" rx="57.06" ry="18"/>
<text text-anchor="middle" x="182.27" y="-489.98" font-family="Helvetica,sans-Serif" font-size="12.00">Metaheuristics</text>
</g>
<!-- FUSE&#45;&gt;Metaheuristics -->
<g id="edge4" class="edge">
<title>FUSE&#45;&gt;Metaheuristics</title>
<path fill="none" stroke="#c371db" stroke-width="2" d="M34.56,-369C40.71,-396.28 55.98,-446.21 88.96,-473 96.17,-478.86 104.68,-483.2 113.57,-486.41"/>
<polygon fill="#c371db" stroke="#c371db" stroke-width="2" points="112.36,-489.7 122.94,-489.25 114.39,-483 112.36,-489.7"/>
</g>
<!-- QED -->
<g id="node8" class="node">
<title>QED</title>
<ellipse fill="none" stroke="black" stroke-width="3" cx="386.88" cy="-553" rx="27" ry="18"/>
<text text-anchor="middle" x="386.88" y="-547.98" font-family="Helvetica,sans-Serif" font-size="12.00">QED</text>
</g>
<!-- FUSE&#45;&gt;QED -->
<g id="edge5" class="edge">
<title>FUSE&#45;&gt;QED</title>
<path fill="none" stroke="#34d840" stroke-width="2" d="M30.78,-369.2C31.55,-406.74 39.13,-489.59 88.96,-529 164.17,-588.47 286.17,-574.39 347.74,-562.1"/>
<polygon fill="#34d840" stroke="#34d840" stroke-width="2" points="348.26,-565.57 357.32,-560.08 346.81,-558.72 348.26,-565.57"/>
</g>
<!-- FUSE&#45;&gt;IMAS -->
<g id="edge6" class="edge">
<title>FUSE&#45;&gt;IMAS</title>
<path fill="none" stroke="#98aa01" stroke-width="2" d="M61.18,-350.83C153.46,-353.36 431.87,-360.99 537.16,-363.88"/>
<polygon fill="#98aa01" stroke="#98aa01" stroke-width="2" points="536.86,-367.37 546.95,-364.15 537.05,-360.37 536.86,-367.37"/>
</g>
<!-- TGLFNN -->
<g id="node11" class="node">
<title>TGLFNN</title>
<ellipse fill="none" stroke="black" stroke-width="3" cx="386.88" cy="-336" rx="39.62" ry="18"/>
<text text-anchor="middle" x="386.88" y="-330.98" font-family="Helvetica,sans-Serif" font-size="12.00">TGLFNN</text>
</g>
<!-- FUSE&#45;&gt;TGLFNN -->
<g id="edge8" class="edge">
<title>FUSE&#45;&gt;TGLFNN</title>
<path fill="none" stroke="#813ddb" stroke-width="2" d="M61.11,-349.22C107.29,-347.99 198.33,-345.36 275.58,-342 294.39,-341.18 314.99,-340.11 333.25,-339.1"/>
<polygon fill="#813ddb" stroke="#813ddb" stroke-width="2" points="333.26,-342.6 343.04,-338.54 332.86,-335.61 333.26,-342.6"/>
</g>
<!-- NEO -->
<g id="node12" class="node">
<title>NEO</title>
<ellipse fill="none" stroke="black" stroke-width="3" cx="386.88" cy="-293" rx="27" ry="18"/>
<text text-anchor="middle" x="386.88" y="-287.98" font-family="Helvetica,sans-Serif" font-size="12.00">NEO</text>
</g>
<!-- FUSE&#45;&gt;NEO -->
<g id="edge9" class="edge">
<title>FUSE&#45;&gt;NEO</title>
<path fill="none" stroke="#5999e9" stroke-width="2" d="M44.76,-333.12C55.44,-321.43 71.35,-306.78 88.96,-300 176.23,-266.39 288.88,-276.89 347.14,-285.87"/>
<polygon fill="#5999e9" stroke="#5999e9" stroke-width="2" points="346.31,-289.28 356.74,-287.43 347.43,-282.37 346.31,-289.28"/>
</g>
<!-- FuseUtils -->
<g id="node13" class="node">
<title>FuseUtils</title>
<ellipse fill="none" stroke="black" stroke-width="3" cx="779.57" cy="-249" rx="40.99" ry="18"/>
<text text-anchor="middle" x="779.57" y="-243.97" font-family="Helvetica,sans-Serif" font-size="12.00">FuseUtils</text>
</g>
<!-- FUSE&#45;&gt;FuseUtils -->
<g id="edge29" class="edge">
<title>FUSE&#45;&gt;FuseUtils</title>
<path fill="none" stroke="#642148" stroke-width="2" d="M30.75,-330.75C31.44,-293.13 38.91,-210.13 88.96,-171 122.27,-144.96 427.34,-149.85 469.17,-156 566.88,-170.37 676.55,-208.97 735.5,-231.67"/>
<polygon fill="#642148" stroke="#642148" stroke-width="2" points="734.22,-234.93 744.81,-235.29 736.76,-228.4 734.22,-234.93"/>
</g>
<!-- TJLF -->
<g id="node14" class="node">
<title>TJLF</title>
<ellipse fill="none" stroke="black" stroke-width="3" cx="182.27" cy="-321" rx="27" ry="18"/>
<text text-anchor="middle" x="182.27" y="-315.98" font-family="Helvetica,sans-Serif" font-size="12.00">TJLF</text>
</g>
<!-- FUSE&#45;&gt;TJLF -->
<g id="edge11" class="edge">
<title>FUSE&#45;&gt;TJLF</title>
<path fill="none" stroke="#443e08" stroke-width="2" d="M59.96,-344.41C83.35,-339.9 116.48,-333.5 142.21,-328.54"/>
<polygon fill="#443e08" stroke="#443e08" stroke-width="2" points="142.77,-331.99 151.93,-326.66 141.45,-325.12 142.77,-331.99"/>
</g>
<!-- CHEASE -->
<g id="node15" class="node">
<title>CHEASE</title>
<ellipse fill="none" stroke="black" stroke-width="3" cx="386.88" cy="-626" rx="40.99" ry="18"/>
<text text-anchor="middle" x="386.88" y="-620.98" font-family="Helvetica,sans-Serif" font-size="12.00">CHEASE</text>
</g>
<!-- FUSE&#45;&gt;CHEASE -->
<g id="edge34" class="edge">
<title>FUSE&#45;&gt;CHEASE</title>
<path fill="none" stroke="#72cc02" stroke-width="2" d="M32.54,-369.26C37.28,-422.77 53.47,-571.33 88.96,-602 157.79,-661.47 272.19,-650.55 337.06,-637.89"/>
<polygon fill="#72cc02" stroke="#72cc02" stroke-width="2" points="337.68,-641.34 346.77,-635.89 336.26,-634.48 337.68,-641.34"/>
</g>
<!-- BoundaryPlasmaModels -->
<g id="node17" class="node">
<title>BoundaryPlasmaModels</title>
<ellipse fill="none" stroke="black" stroke-width="3" cx="182.27" cy="-249" rx="90.1" ry="18"/>
<text text-anchor="middle" x="182.27" y="-243.97" font-family="Helvetica,sans-Serif" font-size="12.00">BoundaryPlasmaModels</text>
</g>
<!-- FUSE&#45;&gt;BoundaryPlasmaModels -->
<g id="edge43" class="edge">
<title>FUSE&#45;&gt;BoundaryPlasmaModels</title>
<path fill="none" stroke="#64cc16" stroke-width="2" d="M43.6,-332.54C54.36,-318.67 70.91,-299.58 88.96,-287 98.26,-280.52 108.83,-274.87 119.42,-270.05"/>
<polygon fill="#64cc16" stroke="#64cc16" stroke-width="2" points="120.71,-273.31 128.53,-266.15 117.96,-266.87 120.71,-273.31"/>
</g>
<!-- SimulationParameters -->
<g id="node18" class="node">
<title>SimulationParameters</title>
<ellipse fill="none" stroke="black" stroke-width="3" cx="386.88" cy="-177" rx="82.3" ry="18"/>
<text text-anchor="middle" x="386.88" y="-171.97" font-family="Helvetica,sans-Serif" font-size="12.00">SimulationParameters</text>
</g>
<!-- FUSE&#45;&gt;SimulationParameters -->
<g id="edge26" class="edge">
<title>FUSE&#45;&gt;SimulationParameters</title>
<path fill="none" stroke="#0b6ecb" stroke-width="2" d="M34.32,-330.7C40.19,-303.05 55.1,-252.67 88.96,-227 147.23,-182.84 230.46,-172.01 293.98,-171.27"/>
<polygon fill="#0b6ecb" stroke="#0b6ecb" stroke-width="2" points="293.79,-174.77 303.78,-171.26 293.78,-167.77 293.79,-174.77"/>
</g>
<!-- RABBIT -->
<g id="node21" class="node">
<title>RABBIT</title>
<ellipse fill="none" stroke="black" stroke-width="3" cx="579.09" cy="-119" rx="36.86" ry="18"/>
<text text-anchor="middle" x="579.09" y="-113.97" font-family="Helvetica,sans-Serif" font-size="12.00">RABBIT</text>
</g>
<!-- FUSE&#45;&gt;RABBIT -->
<g id="edge19" class="edge">
<title>FUSE&#45;&gt;RABBIT</title>
<path fill="none" stroke="#1baf0c" stroke-width="2" d="M33.5,-330.79C40.05,-284.09 59.2,-166.74 88.96,-143 105.92,-129.47 406.74,-122.26 528.02,-119.89"/>
<polygon fill="#1baf0c" stroke="#1baf0c" stroke-width="2" points="527.92,-123.39 537.85,-119.7 527.79,-116.4 527.92,-123.39"/>
</g>
<!-- FUSE&#45;&gt;TEQUILA -->
<g id="edge22" class="edge">
<title>FUSE&#45;&gt;TEQUILA</title>
<path fill="none" stroke="#051f59" stroke-width="2" d="M31.07,-369.29C32.41,-405.26 41.05,-481.98 88.96,-516 126.94,-542.96 259.17,-528.88 333.72,-518.26"/>
<polygon fill="#051f59" stroke="#051f59" stroke-width="2" points="334.11,-521.74 343.5,-516.83 333.1,-514.81 334.11,-521.74"/>
</g>
<!-- EPEDNN -->
<g id="node25" class="node">
<title>EPEDNN</title>
<ellipse fill="none" stroke="black" stroke-width="3" cx="182.27" cy="-104" rx="41.45" ry="18"/>
<text text-anchor="middle" x="182.27" y="-98.97" font-family="Helvetica,sans-Serif" font-size="12.00">EPEDNN</text>
</g>
<!-- FUSE&#45;&gt;EPEDNN -->
<g id="edge28" class="edge">
<title>FUSE&#45;&gt;EPEDNN</title>
<path fill="none" stroke="#83afb0" stroke-width="2" d="M33.48,-330.87C40.18,-282.47 60,-156.93 88.96,-128 99.19,-117.79 113.17,-111.75 127.16,-108.22"/>
<polygon fill="#83afb0" stroke="#83afb0" stroke-width="2" points="127.83,-111.66 136.94,-106.25 126.44,-104.8 127.83,-111.66"/>
</g>
<!-- BalanceOfPlantSurrogate -->
<g id="node29" class="node">
<title>BalanceOfPlantSurrogate</title>
<ellipse fill="none" stroke="black" stroke-width="3" cx="182.27" cy="-61" rx="93.31" ry="18"/>
<text text-anchor="middle" x="182.27" y="-55.98" font-family="Helvetica,sans-Serif" font-size="12.00">BalanceOfPlantSurrogate</text>
</g>
<!-- FUSE&#45;&gt;BalanceOfPlantSurrogate -->
<g id="edge39" class="edge">
<title>FUSE&#45;&gt;BalanceOfPlantSurrogate</title>
<path fill="none" stroke="#835c14" stroke-width="2" d="M32.55,-330.68C37.42,-275.45 54.1,-118.57 88.96,-83 90.33,-81.6 91.77,-80.29 93.28,-79.05"/>
<polygon fill="#835c14" stroke="#835c14" stroke-width="2" points="95.06,-82.07 101.47,-73.63 91.2,-76.23 95.06,-82.07"/>
</g>
<!-- NNeutronics -->
<g id="node31" class="node">
<title>NNeutronics</title>
<ellipse fill="none" stroke="black" stroke-width="3" cx="182.27" cy="-18" rx="50.63" ry="18"/>
<text text-anchor="middle" x="182.27" y="-12.97" font-family="Helvetica,sans-Serif" font-size="12.00">NNeutronics</text>
</g>
<!-- FUSE&#45;&gt;NNeutronics -->
<g id="edge46" class="edge">
<title>FUSE&#45;&gt;NNeutronics</title>
<path fill="none" stroke="#ad4c71" stroke-width="2" d="M31.91,-330.71C35.25,-269.67 48.66,-82.33 88.96,-40 96.8,-31.76 107.13,-26.37 118.02,-22.88"/>
<polygon fill="#ad4c71" stroke="#ad4c71" stroke-width="2" points="118.71,-26.32 127.54,-20.46 116.98,-19.54 118.71,-26.32"/>
</g>
<!-- FiniteElementHermite -->
<g id="node16" class="node">
<title>FiniteElementHermite</title>
<ellipse fill="none" stroke="black" stroke-width="3" cx="579.09" cy="-532" rx="80.92" ry="18"/>
<text text-anchor="middle" x="579.09" y="-526.98" font-family="Helvetica,sans-Serif" font-size="12.00">FiniteElementHermite</text>
</g>
<!-- QED&#45;&gt;FiniteElementHermite -->
<g id="edge13" class="edge">
<title>QED&#45;&gt;FiniteElementHermite</title>
<path fill="none" stroke="#86bf83" stroke-width="2" d="M414.73,-550.04C434.97,-547.8 463.95,-544.6 491.88,-541.52"/>
<polygon fill="#86bf83" stroke="#86bf83" stroke-width="2" points="492.05,-545.02 501.6,-540.44 491.28,-538.06 492.05,-545.02"/>
</g>
<!-- IMAS&#45;&gt;FuseUtils -->
<g id="edge10" class="edge">
<title>IMAS&#45;&gt;FuseUtils</title>
<path fill="none" stroke="#de7ec9" stroke-width="2" d="M601.36,-352.46C623.3,-339.53 658.52,-318.81 689.01,-301 706.25,-290.93 725.38,-279.81 741.53,-270.45"/>
<polygon fill="#de7ec9" stroke="#de7ec9" stroke-width="2" points="743.17,-273.54 750.06,-265.5 739.65,-267.49 743.17,-273.54"/>
</g>
<!-- IMAS&#45;&gt;CoordinateConventions -->
<g id="edge51" class="edge">
<title>IMAS&#45;&gt;CoordinateConventions</title>
<path fill="none" stroke="#857278" stroke-width="2" d="M604.03,-374.65C633.68,-386.6 685.08,-407.32 724.45,-423.19"/>
<polygon fill="#857278" stroke="#857278" stroke-width="2" points="723.11,-426.42 733.7,-426.91 725.73,-419.93 723.11,-426.42"/>
</g>
<!-- IMAS&#45;&gt;MillerExtendedHarmonic -->
<g id="edge18" class="edge">
<title>IMAS&#45;&gt;MillerExtendedHarmonic</title>
<path fill="none" stroke="#f2266f" stroke-width="2" d="M594.09,-381.48C613.5,-403.47 650.56,-442.49 689.01,-467 697.75,-472.57 707.5,-477.55 717.25,-481.9"/>
<polygon fill="#f2266f" stroke="#f2266f" stroke-width="2" points="715.72,-485.05 726.29,-485.72 718.44,-478.6 715.72,-485.05"/>
</g>
<!-- GraphRecipes -->
<g id="node23" class="node">
<title>GraphRecipes</title>
<ellipse fill="none" stroke="black" stroke-width="3" cx="779.57" cy="-322" rx="57.06" ry="18"/>
<text text-anchor="middle" x="779.57" y="-316.98" font-family="Helvetica,sans-Serif" font-size="12.00">GraphRecipes</text>
</g>
<!-- IMAS&#45;&gt;GraphRecipes -->
<g id="edge23" class="edge">
<title>IMAS&#45;&gt;GraphRecipes</title>
<path fill="none" stroke="#73bdb7" stroke-width="2" d="M606.86,-359.2C635.16,-353.07 680.75,-343.19 717.84,-335.16"/>
<polygon fill="#73bdb7" stroke="#73bdb7" stroke-width="2" points="718.58,-338.58 727.61,-333.04 717.09,-331.74 718.58,-338.58"/>
</g>
<!-- IMASdd -->
<g id="node26" class="node">
<title>IMASdd</title>
<ellipse fill="none" stroke="black" stroke-width="3" cx="935.07" cy="-394" rx="35.95" ry="18"/>
<text text-anchor="middle" x="935.07" y="-388.98" font-family="Helvetica,sans-Serif" font-size="12.00">IMASdd</text>
</g>
<!-- IMAS&#45;&gt;IMASdd -->
<g id="edge52" class="edge">
<title>IMAS&#45;&gt;IMASdd</title>
<path fill="none" stroke="#b4f984" stroke-width="2" d="M606.32,-371.27C628.28,-376.22 660.49,-382.81 689.01,-386 756.63,-393.57 835.35,-394.81 884.94,-394.67"/>
<polygon fill="#b4f984" stroke="#b4f984" stroke-width="2" points="884.81,-398.17 894.79,-394.61 884.77,-391.17 884.81,-398.17"/>
</g>
<!-- FuseExchangeProtocol -->
<g id="node30" class="node">
<title>FuseExchangeProtocol</title>
<ellipse fill="none" stroke="black" stroke-width="3" cx="779.57" cy="-365" rx="86.43" ry="18"/>
<text text-anchor="middle" x="779.57" y="-359.98" font-family="Helvetica,sans-Serif" font-size="12.00">FuseExchangeProtocol</text>
</g>
<!-- IMAS&#45;&gt;FuseExchangeProtocol -->
<g id="edge42" class="edge">
<title>IMAS&#45;&gt;FuseExchangeProtocol</title>
<path fill="none" stroke="#7a8ff6" stroke-width="2" d="M608.11,-365C626.93,-365 652.98,-365 679.06,-365"/>
<polygon fill="#7a8ff6" stroke="#7a8ff6" stroke-width="2" points="678.8,-368.5 688.8,-365 678.8,-361.5 678.8,-368.5"/>
</g>
<!-- EFIT&#45;&gt;IMASdd -->
<g id="edge36" class="edge">
<title>EFIT&#45;&gt;IMASdd</title>
<path fill="none" stroke="#69e94c" stroke-width="2" d="M808.06,-603.94C827.64,-602.45 853.36,-597.36 870.12,-582 914.65,-541.19 928.18,-468.19 932.29,-426.17"/>
<polygon fill="#69e94c" stroke="#69e94c" stroke-width="2" points="935.77,-426.47 933.1,-416.22 928.8,-425.9 935.77,-426.47"/>
</g>
<!-- TGLFNN&#45;&gt;IMAS -->
<g id="edge44" class="edge">
<title>TGLFNN&#45;&gt;IMAS</title>
<path fill="none" stroke="#9d38cd" stroke-width="2" d="M425.91,-341.8C458.31,-346.74 504.73,-353.82 537.77,-358.85"/>
<polygon fill="#9d38cd" stroke="#9d38cd" stroke-width="2" points="537.18,-362.3 547.6,-360.35 538.24,-355.38 537.18,-362.3"/>
</g>
<!-- NEO&#45;&gt;IMAS -->
<g id="edge20" class="edge">
<title>NEO&#45;&gt;IMAS</title>
<path fill="none" stroke="#8757c8" stroke-width="2" d="M413.85,-298.86C429.98,-302.79 451.02,-308.43 469.17,-315 495.01,-324.35 523.18,-337.37 544.4,-347.77"/>
<polygon fill="#8757c8" stroke="#8757c8" stroke-width="2" points="542.79,-350.88 553.31,-352.2 545.91,-344.61 542.79,-350.88"/>
</g>
<!-- CHEASE&#45;&gt;MXHEquilibrium -->
<g id="edge12" class="edge">
<title>CHEASE&#45;&gt;MXHEquilibrium</title>
<path fill="none" stroke="#f4b3fd" stroke-width="2" d="M423.65,-616.41C450.14,-609.31 486.84,-599.47 517.82,-591.16"/>
<polygon fill="#f4b3fd" stroke="#f4b3fd" stroke-width="2" points="518.58,-594.58 527.34,-588.61 516.77,-587.82 518.58,-594.58"/>
</g>
<!-- CHEASE&#45;&gt;EFIT -->
<g id="edge35" class="edge">
<title>CHEASE&#45;&gt;EFIT</title>
<path fill="none" stroke="#db87c4" stroke-width="2" d="M428.95,-623.69C504.38,-619.44 664.08,-610.45 738.65,-606.25"/>
<polygon fill="#db87c4" stroke="#db87c4" stroke-width="2" points="738.73,-609.75 748.52,-605.69 738.34,-602.76 738.73,-609.75"/>
</g>
<!-- CHEASE&#45;&gt;MillerExtendedHarmonic -->
<g id="edge50" class="edge">
<title>CHEASE&#45;&gt;MillerExtendedHarmonic</title>
<path fill="none" stroke="#1c71ea" stroke-width="2" d="M427.67,-620.68C448.63,-617.94 474.77,-614.64 498.17,-612 534.08,-607.95 630.1,-616.28 660.01,-596 683.21,-580.27 668.36,-558.95 689.01,-540 695.83,-533.74 703.85,-528.47 712.24,-524.04"/>
<polygon fill="#1c71ea" stroke="#1c71ea" stroke-width="2" points="713.59,-527.28 721.11,-519.82 710.58,-520.96 713.59,-527.28"/>
</g>
<!-- Fortran90Namelists -->
<g id="node24" class="node">
<title>Fortran90Namelists</title>
<ellipse fill="none" stroke="black" stroke-width="3" cx="579.09" cy="-648" rx="74.04" ry="18"/>
<text text-anchor="middle" x="579.09" y="-642.98" font-family="Helvetica,sans-Serif" font-size="12.00">Fortran90Namelists</text>
</g>
<!-- CHEASE&#45;&gt;Fortran90Namelists -->
<g id="edge27" class="edge">
<title>CHEASE&#45;&gt;Fortran90Namelists</title>
<path fill="none" stroke="#7e0b8f" stroke-width="2" d="M427.75,-630.61C447.98,-632.95 473.3,-635.88 497.36,-638.66"/>
<polygon fill="#7e0b8f" stroke="#7e0b8f" stroke-width="2" points="496.83,-642.13 507.17,-639.8 497.64,-635.17 496.83,-642.13"/>
</g>
<!-- BoundaryPlasmaModels&#45;&gt;IMAS -->
<g id="edge14" class="edge">
<title>BoundaryPlasmaModels&#45;&gt;IMAS</title>
<path fill="none" stroke="#2c8b1a" stroke-width="2" d="M271.48,-253.36C348.67,-257.62 451.21,-264.54 469.17,-272 504.22,-286.55 536.19,-316.81 556.3,-338.87"/>
<polygon fill="#2c8b1a" stroke="#2c8b1a" stroke-width="2" points="553.42,-340.9 562.67,-346.08 558.67,-336.27 553.42,-340.9"/>
</g>
<!-- BoundaryPlasmaModels&#45;&gt;FuseUtils -->
<g id="edge41" class="edge">
<title>BoundaryPlasmaModels&#45;&gt;FuseUtils</title>
<path fill="none" stroke="#6f6815" stroke-width="2" d="M273.68,-249C399.1,-249 621.98,-249 724.38,-249"/>
<polygon fill="#6f6815" stroke="#6f6815" stroke-width="2" points="724.1,-252.5 734.1,-249 724.1,-245.5 724.1,-252.5"/>
</g>
<!-- BoundaryPlasmaModels&#45;&gt;SimulationParameters -->
<g id="edge15" class="edge">
<title>BoundaryPlasmaModels&#45;&gt;SimulationParameters</title>
<path fill="none" stroke="#2d951a" stroke-width="2" d="M222.13,-231.51C245.7,-221.27 276.54,-208.53 304.58,-199 308.72,-197.59 313,-196.21 317.34,-194.88"/>
<polygon fill="#2d951a" stroke="#2d951a" stroke-width="2" points="318.13,-198.29 326.72,-192.09 316.13,-191.58 318.13,-198.29"/>
</g>
<!-- ADAS -->
<g id="node28" class="node">
<title>ADAS</title>
<ellipse fill="none" stroke="black" stroke-width="3" cx="386.88" cy="-220" rx="30.44" ry="18"/>
<text text-anchor="middle" x="386.88" y="-214.97" font-family="Helvetica,sans-Serif" font-size="12.00">ADAS</text>
</g>
<!-- BoundaryPlasmaModels&#45;&gt;ADAS -->
<g id="edge38" class="edge">
<title>BoundaryPlasmaModels&#45;&gt;ADAS</title>
<path fill="none" stroke="#e21435" stroke-width="2" d="M258.43,-238.24C286.93,-234.16 318.4,-229.66 342.94,-226.15"/>
<polygon fill="#e21435" stroke="#e21435" stroke-width="2" points="343.4,-229.62 352.8,-224.73 342.4,-222.69 343.4,-229.62"/>
</g>
<!-- RABBIT&#45;&gt;IMASdd -->
<g id="edge32" class="edge">
<title>RABBIT&#45;&gt;IMASdd</title>
<path fill="none" stroke="#5db640" stroke-width="2" d="M616.57,-122.71C677.35,-130.79 799.6,-155.44 870.12,-227 907,-264.42 923.06,-325.34 929.72,-362.34"/>
<polygon fill="#5db640" stroke="#5db640" stroke-width="2" points="926.2,-362.51 931.27,-371.81 933.11,-361.38 926.2,-362.51"/>
</g>
<!-- TEQUILA&#45;&gt;MXHEquilibrium -->
<g id="edge31" class="edge">
<title>TEQUILA&#45;&gt;MXHEquilibrium</title>
<path fill="none" stroke="#190a4c" stroke-width="2" d="M426.54,-517.43C440.38,-520.87 455.85,-525.64 469.17,-532 483.53,-538.86 483.83,-546.11 498.17,-553 503.27,-555.45 508.69,-557.66 514.21,-559.66"/>
<polygon fill="#190a4c" stroke="#190a4c" stroke-width="2" points="512.9,-562.91 523.49,-562.73 515.1,-556.27 512.9,-562.91"/>
</g>
<!-- TEQUILA&#45;&gt;FiniteElementHermite -->
<g id="edge45" class="edge">
<title>TEQUILA&#45;&gt;FiniteElementHermite</title>
<path fill="none" stroke="#768795" stroke-width="2" d="M428.22,-514.67C446.99,-516.84 470.09,-519.51 492.47,-522.1"/>
<polygon fill="#768795" stroke="#768795" stroke-width="2" points="491.83,-525.55 502.16,-523.22 492.63,-518.59 491.83,-525.55"/>
</g>
<!-- TEQUILA&#45;&gt;MillerExtendedHarmonic -->
<g id="edge33" class="edge">
<title>TEQUILA&#45;&gt;MillerExtendedHarmonic</title>
<path fill="none" stroke="#800038" stroke-width="2" d="M429.69,-509.25C487.89,-508.21 595.22,-506.28 675.53,-504.85"/>
<polygon fill="#800038" stroke="#800038" stroke-width="2" points="675.21,-508.35 685.15,-504.67 675.09,-501.35 675.21,-508.35"/>
</g>
</g>
</svg>
