<?xml version="1.0" encoding="UTF-8" standalone="no"?>
<!DOCTYPE svg PUBLIC "-//W3C//DTD SVG 1.1//EN"
 "http://www.w3.org/Graphics/SVG/1.1/DTD/svg11.dtd">
<!-- Generated by graphviz version 12.1.2 (20240928.0832)
 -->
<!-- Title: G Pages: 1 -->
<svg width="878pt" height="689pt"
 viewBox="0.00 0.00 878.12 688.56" xmlns="http://www.w3.org/2000/svg" xmlns:xlink="http://www.w3.org/1999/xlink">
<g id="graph0" class="graph" transform="scale(1 1) rotate(0) translate(4 684.56)">
<title>G</title>
<polygon fill="white" stroke="none" points="-4,4 -4,-684.56 874.12,-684.56 874.12,4 -4,4"/>
<!-- VacuumFields -->
<g id="node1" class="node">
<title>VacuumFields</title>
<ellipse fill="none" stroke="black" stroke-width="3" cx="182.27" cy="-336" rx="56.14" ry="18"/>
<text text-anchor="middle" x="182.27" y="-330.98" font-family="Helvetica,sans-Serif" font-size="12.00">VacuumFields</text>
</g>
<!-- FusionMaterials -->
<g id="node2" class="node">
<title>FusionMaterials</title>
<ellipse fill="none" stroke="black" stroke-width="3" cx="386.88" cy="-380" rx="62.1" ry="18"/>
<text text-anchor="middle" x="386.88" y="-374.98" font-family="Helvetica,sans-Serif" font-size="12.00">FusionMaterials</text>
</g>
<!-- VacuumFields&#45;&gt;FusionMaterials -->
<g id="edge1" class="edge">
<title>VacuumFields&#45;&gt;FusionMaterials</title>
<path fill="none" stroke="#47de2d" stroke-width="2" d="M231.03,-346.37C258.24,-352.28 292.68,-359.76 322.17,-366.16"/>
<polygon fill="#47de2d" stroke="#47de2d" stroke-width="2" points="321.42,-369.58 331.94,-368.29 322.91,-362.74 321.42,-369.58"/>
</g>
<!-- MXHEquilibrium -->
<g id="node3" class="node">
<title>MXHEquilibrium</title>
<ellipse fill="none" stroke="black" stroke-width="3" cx="579.09" cy="-306" rx="63.48" ry="18"/>
<text text-anchor="middle" x="579.09" y="-300.98" font-family="Helvetica,sans-Serif" font-size="12.00">MXHEquilibrium</text>
</g>
<!-- VacuumFields&#45;&gt;MXHEquilibrium -->
<g id="edge2" class="edge">
<title>VacuumFields&#45;&gt;MXHEquilibrium</title>
<path fill="none" stroke="#115594" stroke-width="2" d="M238.17,-331.83C307.17,-326.59 425.92,-317.56 503.21,-311.69"/>
<polygon fill="#115594" stroke="#115594" stroke-width="2" points="503.47,-315.18 513.17,-310.93 502.94,-308.2 503.47,-315.18"/>
</g>
<!-- IMAS -->
<g id="node6" class="node">
<title>IMAS</title>
<ellipse fill="none" stroke="black" stroke-width="3" cx="579.09" cy="-423" rx="27.69" ry="18"/>
<text text-anchor="middle" x="579.09" y="-417.98" font-family="Helvetica,sans-Serif" font-size="12.00">IMAS</text>
</g>
<!-- VacuumFields&#45;&gt;IMAS -->
<g id="edge13" class="edge">
<title>VacuumFields&#45;&gt;IMAS</title>
<path fill="none" stroke="#57a580" stroke-width="2" d="M238.9,-339.13C315.88,-343.67 447.86,-352.27 469.17,-359 498.42,-368.23 528.22,-386.48 549.24,-401.14"/>
<polygon fill="#57a580" stroke="#57a580" stroke-width="2" points="547.04,-403.87 557.21,-406.85 551.12,-398.18 547.04,-403.87"/>
</g>
<!-- MillerExtendedHarmonic -->
<g id="node16" class="node">
<title>MillerExtendedHarmonic</title>
<ellipse fill="none" stroke="black" stroke-width="3" cx="779.57" cy="-321" rx="90.56" ry="18"/>
<text text-anchor="middle" x="779.57" y="-315.98" font-family="Helvetica,sans-Serif" font-size="12.00">MillerExtendedHarmonic</text>
</g>
<!-- VacuumFields&#45;&gt;MillerExtendedHarmonic -->
<g id="edge20" class="edge">
<title>VacuumFields&#45;&gt;MillerExtendedHarmonic</title>
<path fill="none" stroke="#f205b5" stroke-width="2" d="M239.8,-335.82C329.09,-335.37 508.22,-333.75 660.01,-328 666.07,-327.77 672.29,-327.5 678.57,-327.2"/>
<polygon fill="#f205b5" stroke="#f205b5" stroke-width="2" points="678.66,-330.7 688.48,-326.71 678.32,-323.71 678.66,-330.7"/>
</g>
<!-- TEQUILA -->
<g id="node18" class="node">
<title>TEQUILA</title>
<ellipse fill="none" stroke="black" stroke-width="3" cx="386.88" cy="-277" rx="41.45" ry="18"/>
<text text-anchor="middle" x="386.88" y="-271.98" font-family="Helvetica,sans-Serif" font-size="12.00">TEQUILA</text>
</g>
<!-- VacuumFields&#45;&gt;TEQUILA -->
<g id="edge21" class="edge">
<title>VacuumFields&#45;&gt;TEQUILA</title>
<path fill="none" stroke="#2d0048" stroke-width="2" d="M226.24,-323.49C259.1,-313.92 304.37,-300.73 338.32,-290.85"/>
<polygon fill="#2d0048" stroke="#2d0048" stroke-width="2" points="339.19,-294.24 347.82,-288.08 337.24,-287.52 339.19,-294.24"/>
</g>
<!-- FusionMaterials&#45;&gt;IMAS -->
<g id="edge18" class="edge">
<title>FusionMaterials&#45;&gt;IMAS</title>
<path fill="none" stroke="#19326e" stroke-width="2" d="M438.35,-391.41C469.85,-398.53 509.79,-407.56 538.9,-414.14"/>
<polygon fill="#19326e" stroke="#19326e" stroke-width="2" points="537.96,-417.52 548.49,-416.31 539.51,-410.69 537.96,-417.52"/>
</g>
<!-- CoordinateConventions -->
<g id="node15" class="node">
<title>CoordinateConventions</title>
<ellipse fill="none" stroke="black" stroke-width="3" cx="779.57" cy="-368" rx="87.34" ry="18"/>
<text text-anchor="middle" x="779.57" y="-362.98" font-family="Helvetica,sans-Serif" font-size="12.00">CoordinateConventions</text>
</g>
<!-- MXHEquilibrium&#45;&gt;CoordinateConventions -->
<g id="edge14" class="edge">
<title>MXHEquilibrium&#45;&gt;CoordinateConventions</title>
<path fill="none" stroke="#1c04cf" stroke-width="2" d="M621.55,-320.69C641.81,-327.71 666.59,-336.07 689.01,-343 696.02,-345.17 703.37,-347.36 710.72,-349.49"/>
<polygon fill="#1c04cf" stroke="#1c04cf" stroke-width="2" points="709.52,-352.79 720.1,-352.17 711.45,-346.06 709.52,-352.79"/>
</g>
<!-- MXHEquilibrium&#45;&gt;MillerExtendedHarmonic -->
<g id="edge39" class="edge">
<title>MXHEquilibrium&#45;&gt;MillerExtendedHarmonic</title>
<path fill="none" stroke="#1316f8" stroke-width="2" d="M642.07,-310.68C654.19,-311.6 667.17,-312.58 680.13,-313.56"/>
<polygon fill="#1316f8" stroke="#1316f8" stroke-width="2" points="679.8,-317.05 690.03,-314.31 680.32,-310.07 679.8,-317.05"/>
</g>
<!-- MeshTools -->
<g id="node20" class="node">
<title>MeshTools</title>
<ellipse fill="none" stroke="black" stroke-width="3" cx="779.57" cy="-278" rx="45.12" ry="18"/>
<text text-anchor="middle" x="779.57" y="-272.98" font-family="Helvetica,sans-Serif" font-size="12.00">MeshTools</text>
</g>
<!-- MXHEquilibrium&#45;&gt;MeshTools -->
<g id="edge29" class="edge">
<title>MXHEquilibrium&#45;&gt;MeshTools</title>
<path fill="none" stroke="#c857b0" stroke-width="2" d="M638.03,-297.83C664.66,-294.07 696.11,-289.63 722.5,-285.91"/>
<polygon fill="#c857b0" stroke="#c857b0" stroke-width="2" points="722.98,-289.38 732.4,-284.51 722,-282.44 722.98,-289.38"/>
</g>
<!-- FUSE -->
<g id="node4" class="node">
<title>FUSE</title>
<ellipse fill="none" stroke="black" stroke-width="3" cx="29.98" cy="-299" rx="29.98" ry="18"/>
<text text-anchor="middle" x="29.98" y="-293.98" font-family="Helvetica,sans-Serif" font-size="12.00">FUSE</text>
</g>
<!-- FUSE&#45;&gt;VacuumFields -->
<g id="edge25" class="edge">
<title>FUSE&#45;&gt;VacuumFields</title>
<path fill="none" stroke="#05aa27" stroke-width="2" d="M59.25,-305.96C77.16,-310.37 100.99,-316.24 122.84,-321.61"/>
<polygon fill="#05aa27" stroke="#05aa27" stroke-width="2" points="121.92,-324.99 132.47,-323.99 123.6,-318.2 121.92,-324.99"/>
</g>
<!-- FUSE&#45;&gt;FusionMaterials -->
<g id="edge41" class="edge">
<title>FUSE&#45;&gt;FusionMaterials</title>
<path fill="none" stroke="#5d0dc9" stroke-width="2" d="M42.73,-316.59C53.09,-330.49 69.55,-349 88.96,-358 160.77,-391.28 252.89,-392.62 315.34,-388.32"/>
<polygon fill="#5d0dc9" stroke="#5d0dc9" stroke-width="2" points="315.48,-391.82 325.18,-387.56 314.94,-384.84 315.48,-391.82"/>
</g>
<!-- FUSE&#45;&gt;MXHEquilibrium -->
<g id="edge40" class="edge">
<title>FUSE&#45;&gt;MXHEquilibrium</title>
<path fill="none" stroke="#f00b0c" stroke-width="2" d="M61.18,-299.39C144.39,-300.45 378.95,-303.45 501.44,-305.02"/>
<polygon fill="#f00b0c" stroke="#f00b0c" stroke-width="2" points="501.3,-308.52 511.35,-305.15 501.39,-301.52 501.3,-308.52"/>
</g>
<!-- QED -->
<g id="node5" class="node">
<title>QED</title>
<ellipse fill="none" stroke="black" stroke-width="3" cx="386.88" cy="-191" rx="27" ry="18"/>
<text text-anchor="middle" x="386.88" y="-185.97" font-family="Helvetica,sans-Serif" font-size="12.00">QED</text>
</g>
<!-- FUSE&#45;&gt;QED -->
<g id="edge3" class="edge">
<title>FUSE&#45;&gt;QED</title>
<path fill="none" stroke="#96042c" stroke-width="2" d="M40.13,-280.66C49.74,-263.55 66.58,-238.92 88.96,-227 125.7,-207.44 234.32,-216.5 275.58,-211 299.43,-207.82 325.97,-203.05 347.04,-198.96"/>
<polygon fill="#96042c" stroke="#96042c" stroke-width="2" points="347.59,-202.42 356.72,-197.05 346.23,-195.55 347.59,-202.42"/>
</g>
<!-- FUSE&#45;&gt;IMAS -->
<g id="edge4" class="edge">
<title>FUSE&#45;&gt;IMAS</title>
<path fill="none" stroke="#8977f5" stroke-width="2" d="M33.07,-318.32C37.51,-349.37 50.82,-410.15 88.96,-442 154.27,-496.53 387.08,-509.33 469.17,-487 498.95,-478.9 528.9,-460.37 549.84,-445.32"/>
<polygon fill="#8977f5" stroke="#8977f5" stroke-width="2" points="551.83,-448.2 557.77,-439.43 547.65,-442.58 551.83,-448.2"/>
</g>
<!-- TGLFNN -->
<g id="node7" class="node">
<title>TGLFNN</title>
<ellipse fill="none" stroke="black" stroke-width="3" cx="386.88" cy="-466" rx="39.62" ry="18"/>
<text text-anchor="middle" x="386.88" y="-460.98" font-family="Helvetica,sans-Serif" font-size="12.00">TGLFNN</text>
</g>
<!-- FUSE&#45;&gt;TGLFNN -->
<g id="edge5" class="edge">
<title>FUSE&#45;&gt;TGLFNN</title>
<path fill="none" stroke="#ee78b5" stroke-width="2" d="M35.67,-318.13C42.79,-342.94 58.82,-385.68 88.96,-408 161.17,-461.47 269.47,-469.38 333.38,-468.74"/>
<polygon fill="#ee78b5" stroke="#ee78b5" stroke-width="2" points="333.35,-472.24 343.28,-468.55 333.22,-465.24 333.35,-472.24"/>
</g>
<!-- NEO -->
<g id="node8" class="node">
<title>NEO</title>
<ellipse fill="none" stroke="black" stroke-width="3" cx="386.88" cy="-423" rx="27" ry="18"/>
<text text-anchor="middle" x="386.88" y="-417.98" font-family="Helvetica,sans-Serif" font-size="12.00">NEO</text>
</g>
<!-- FUSE&#45;&gt;NEO -->
<g id="edge6" class="edge">
<title>FUSE&#45;&gt;NEO</title>
<path fill="none" stroke="#5e9723" stroke-width="2" d="M39.08,-317.61C48.3,-336.38 65.21,-364.59 88.96,-379 170.14,-428.26 286.19,-429.69 346.33,-426.42"/>
<polygon fill="#5e9723" stroke="#5e9723" stroke-width="2" points="346.2,-429.93 355.96,-425.81 345.76,-422.95 346.2,-429.93"/>
</g>
<!-- IMASutils -->
<g id="node9" class="node">
<title>IMASutils</title>
<ellipse fill="none" stroke="black" stroke-width="3" cx="779.57" cy="-611" rx="40.99" ry="18"/>
<text text-anchor="middle" x="779.57" y="-605.98" font-family="Helvetica,sans-Serif" font-size="12.00">IMASutils</text>
</g>
<!-- FUSE&#45;&gt;IMASutils -->
<g id="edge24" class="edge">
<title>FUSE&#45;&gt;IMASutils</title>
<path fill="none" stroke="#b203b9" stroke-width="2" d="M32.29,-318.25C36.55,-374.84 51.93,-538.99 88.96,-575 267.45,-748.54 610.1,-664.24 733.16,-626.2"/>
<polygon fill="#b203b9" stroke="#b203b9" stroke-width="2" points="734.01,-629.6 742.5,-623.26 731.91,-622.93 734.01,-629.6"/>
</g>
<!-- TJLF -->
<g id="node10" class="node">
<title>TJLF</title>
<ellipse fill="none" stroke="black" stroke-width="3" cx="182.27" cy="-248" rx="27" ry="18"/>
<text text-anchor="middle" x="182.27" y="-242.97" font-family="Helvetica,sans-Serif" font-size="12.00">TJLF</text>
</g>
<!-- FUSE&#45;&gt;TJLF -->
<g id="edge8" class="edge">
<title>FUSE&#45;&gt;TJLF</title>
<path fill="none" stroke="#ffe4e4" stroke-width="2" d="M54.55,-286.84C64.92,-281.8 77.36,-276.17 88.96,-272 106.18,-265.81 125.72,-260.5 142.38,-256.45"/>
<polygon fill="#ffe4e4" stroke="#ffe4e4" stroke-width="2" points="143.14,-259.87 152.08,-254.18 141.54,-253.05 143.14,-259.87"/>
</g>
<!-- CHEASE -->
<g id="node11" class="node">
<title>CHEASE</title>
<ellipse fill="none" stroke="black" stroke-width="3" cx="386.88" cy="-234" rx="40.99" ry="18"/>
<text text-anchor="middle" x="386.88" y="-228.97" font-family="Helvetica,sans-Serif" font-size="12.00">CHEASE</text>
</g>
<!-- FUSE&#45;&gt;CHEASE -->
<g id="edge28" class="edge">
<title>FUSE&#45;&gt;CHEASE</title>
<path fill="none" stroke="#5e0c31" stroke-width="2" d="M58.82,-291.37C68.32,-289.01 79.05,-286.61 88.96,-285 171.13,-271.64 195,-289.88 275.58,-269 289.25,-265.46 291.28,-260.75 304.58,-256 314.87,-252.33 326.09,-248.92 336.81,-245.94"/>
<polygon fill="#5e0c31" stroke="#5e0c31" stroke-width="2" points="337.4,-249.41 346.15,-243.44 335.59,-242.65 337.4,-249.41"/>
</g>
<!-- BoundaryPlasmaModels -->
<g id="node13" class="node">
<title>BoundaryPlasmaModels</title>
<ellipse fill="none" stroke="black" stroke-width="3" cx="182.27" cy="-553" rx="90.1" ry="18"/>
<text text-anchor="middle" x="182.27" y="-547.98" font-family="Helvetica,sans-Serif" font-size="12.00">BoundaryPlasmaModels</text>
</g>
<!-- FUSE&#45;&gt;BoundaryPlasmaModels -->
<g id="edge35" class="edge">
<title>FUSE&#45;&gt;BoundaryPlasmaModels</title>
<path fill="none" stroke="#7e9150" stroke-width="2" d="M30.25,-318.26C29.72,-360.81 34.53,-463.64 88.96,-522 93.39,-526.75 98.56,-530.77 104.16,-534.17"/>
<polygon fill="#7e9150" stroke="#7e9150" stroke-width="2" points="102.19,-537.09 112.68,-538.59 105.42,-530.88 102.19,-537.09"/>
</g>
<!-- SimulationParameters -->
<g id="node14" class="node">
<title>SimulationParameters</title>
<ellipse fill="none" stroke="black" stroke-width="3" cx="386.88" cy="-524" rx="82.3" ry="18"/>
<text text-anchor="middle" x="386.88" y="-518.98" font-family="Helvetica,sans-Serif" font-size="12.00">SimulationParameters</text>
</g>
<!-- FUSE&#45;&gt;SimulationParameters -->
<g id="edge22" class="edge">
<title>FUSE&#45;&gt;SimulationParameters</title>
<path fill="none" stroke="#5bdfbe" stroke-width="2" d="M33.74,-318.28C40.69,-363.95 60.42,-476.67 88.96,-500 119.15,-524.68 216.77,-528.61 291.93,-527.68"/>
<polygon fill="#5bdfbe" stroke="#5bdfbe" stroke-width="2" points="291.76,-531.18 301.7,-527.52 291.64,-524.18 291.76,-531.18"/>
</g>
<!-- RABBIT -->
<g id="node17" class="node">
<title>RABBIT</title>
<ellipse fill="none" stroke="black" stroke-width="3" cx="182.27" cy="-190" rx="36.86" ry="18"/>
<text text-anchor="middle" x="182.27" y="-184.97" font-family="Helvetica,sans-Serif" font-size="12.00">RABBIT</text>
</g>
<!-- FUSE&#45;&gt;RABBIT -->
<g id="edge16" class="edge">
<title>FUSE&#45;&gt;RABBIT</title>
<path fill="none" stroke="#1de8f8" stroke-width="2" d="M38.78,-280.49C47.95,-261 65.01,-230.86 88.96,-214 101.53,-205.15 117.12,-199.57 131.89,-196.04"/>
<polygon fill="#1de8f8" stroke="#1de8f8" stroke-width="2" points="132.5,-199.49 141.59,-194.05 131.09,-192.63 132.5,-199.49"/>
</g>
<!-- FUSE&#45;&gt;TEQUILA -->
<g id="edge19" class="edge">
<title>FUSE&#45;&gt;TEQUILA</title>
<path fill="none" stroke="#d4f5da" stroke-width="2" d="M61.24,-297.12C121.17,-293.41 255.7,-285.07 331.43,-280.38"/>
<polygon fill="#d4f5da" stroke="#d4f5da" stroke-width="2" points="331.61,-283.87 341.38,-279.76 331.18,-276.88 331.61,-283.87"/>
</g>
<!-- EPEDNN -->
<g id="node19" class="node">
<title>EPEDNN</title>
<ellipse fill="none" stroke="black" stroke-width="3" cx="182.27" cy="-147" rx="41.45" ry="18"/>
<text text-anchor="middle" x="182.27" y="-141.97" font-family="Helvetica,sans-Serif" font-size="12.00">EPEDNN</text>
</g>
<!-- FUSE&#45;&gt;EPEDNN -->
<g id="edge23" class="edge">
<title>FUSE&#45;&gt;EPEDNN</title>
<path fill="none" stroke="#65c662" stroke-width="2" d="M34.04,-279.89C39.65,-251.31 54.35,-197.72 88.96,-169 99.83,-159.98 113.78,-154.53 127.52,-151.28"/>
<polygon fill="#65c662" stroke="#65c662" stroke-width="2" points="127.86,-154.78 137.02,-149.44 126.53,-147.91 127.86,-154.78"/>
</g>
<!-- BalanceOfPlantSurrogate -->
<g id="node22" class="node">
<title>BalanceOfPlantSurrogate</title>
<ellipse fill="none" stroke="black" stroke-width="3" cx="182.27" cy="-104" rx="93.31" ry="18"/>
<text text-anchor="middle" x="182.27" y="-98.97" font-family="Helvetica,sans-Serif" font-size="12.00">BalanceOfPlantSurrogate</text>
</g>
<!-- FUSE&#45;&gt;BalanceOfPlantSurrogate -->
<g id="edge31" class="edge">
<title>FUSE&#45;&gt;BalanceOfPlantSurrogate</title>
<path fill="none" stroke="#52e01d" stroke-width="2" d="M31.62,-279.66C33.91,-243.83 44.08,-167.04 88.96,-126 90.59,-124.51 92.31,-123.11 94.09,-121.81"/>
<polygon fill="#52e01d" stroke="#52e01d" stroke-width="2" points="95.59,-124.99 102.36,-116.84 91.99,-118.99 95.59,-124.99"/>
</g>
<!-- ThermalSystemModels -->
<g id="node23" class="node">
<title>ThermalSystemModels</title>
<ellipse fill="none" stroke="black" stroke-width="3" cx="182.27" cy="-61" rx="85.05" ry="18"/>
<text text-anchor="middle" x="182.27" y="-55.98" font-family="Helvetica,sans-Serif" font-size="12.00">ThermalSystemModels</text>
</g>
<!-- FUSE&#45;&gt;ThermalSystemModels -->
<g id="edge32" class="edge">
<title>FUSE&#45;&gt;ThermalSystemModels</title>
<path fill="none" stroke="#17cf14" stroke-width="2" d="M30.08,-279.65C29.25,-237.5 33.56,-136.86 88.96,-83 91.21,-80.82 93.62,-78.84 96.18,-77.05"/>
<polygon fill="#17cf14" stroke="#17cf14" stroke-width="2" points="97.77,-80.17 104.72,-72.17 94.3,-74.09 97.77,-80.17"/>
</g>
<!-- NNeutronics -->
<g id="node25" class="node">
<title>NNeutronics</title>
<ellipse fill="none" stroke="black" stroke-width="3" cx="182.27" cy="-18" rx="50.63" ry="18"/>
<text text-anchor="middle" x="182.27" y="-12.97" font-family="Helvetica,sans-Serif" font-size="12.00">NNeutronics</text>
</g>
<!-- FUSE&#45;&gt;NNeutronics -->
<g id="edge38" class="edge">
<title>FUSE&#45;&gt;NNeutronics</title>
<path fill="none" stroke="#0e9062" stroke-width="2" d="M32.67,-279.87C37.82,-225.94 55.07,-74.36 88.96,-40 96.95,-31.9 107.34,-26.57 118.26,-23.11"/>
<polygon fill="#0e9062" stroke="#0e9062" stroke-width="2" points="118.94,-26.54 127.77,-20.69 117.22,-19.76 118.94,-26.54"/>
</g>
<!-- FiniteElementHermite -->
<g id="node12" class="node">
<title>FiniteElementHermite</title>
<ellipse fill="none" stroke="black" stroke-width="3" cx="579.09" cy="-198" rx="80.92" ry="18"/>
<text text-anchor="middle" x="579.09" y="-192.97" font-family="Helvetica,sans-Serif" font-size="12.00">FiniteElementHermite</text>
</g>
<!-- QED&#45;&gt;FiniteElementHermite -->
<g id="edge10" class="edge">
<title>QED&#45;&gt;FiniteElementHermite</title>
<path fill="none" stroke="#bdc1ef" stroke-width="2" d="M415.13,-192C433.67,-192.69 459.4,-193.63 484.93,-194.57"/>
<polygon fill="#bdc1ef" stroke="#bdc1ef" stroke-width="2" points="484.67,-198.06 494.8,-194.93 484.93,-191.07 484.67,-198.06"/>
</g>
<!-- IMAS&#45;&gt;IMASutils -->
<g id="edge7" class="edge">
<title>IMAS&#45;&gt;IMASutils</title>
<path fill="none" stroke="#628fe7" stroke-width="2" d="M596.33,-438.38C630.27,-470.53 709.04,-545.14 751.04,-584.93"/>
<polygon fill="#628fe7" stroke="#628fe7" stroke-width="2" points="748.52,-587.36 758.19,-591.7 753.34,-582.28 748.52,-587.36"/>
</g>
<!-- IMAS&#45;&gt;CoordinateConventions -->
<g id="edge43" class="edge">
<title>IMAS&#45;&gt;CoordinateConventions</title>
<path fill="none" stroke="#314656" stroke-width="2" d="M606.04,-415.81C632.73,-408.41 675.41,-396.59 711.64,-386.55"/>
<polygon fill="#314656" stroke="#314656" stroke-width="2" points="712.53,-389.93 721.23,-383.89 710.66,-383.19 712.53,-389.93"/>
</g>
<!-- IMAS&#45;&gt;MillerExtendedHarmonic -->
<g id="edge15" class="edge">
<title>IMAS&#45;&gt;MillerExtendedHarmonic</title>
<path fill="none" stroke="#0f3abd" stroke-width="2" d="M597.46,-408.15C618.07,-391.22 654.06,-363.71 689.01,-347 694.47,-344.39 700.25,-341.98 706.14,-339.78"/>
<polygon fill="#0f3abd" stroke="#0f3abd" stroke-width="2" points="707.15,-343.14 715.44,-336.55 704.85,-336.53 707.15,-343.14"/>
</g>
<!-- FuseExchangeProtocol -->
<g id="node24" class="node">
<title>FuseExchangeProtocol</title>
<ellipse fill="none" stroke="black" stroke-width="3" cx="779.57" cy="-458" rx="86.43" ry="18"/>
<text text-anchor="middle" x="779.57" y="-452.98" font-family="Helvetica,sans-Serif" font-size="12.00">FuseExchangeProtocol</text>
</g>
<!-- IMAS&#45;&gt;FuseExchangeProtocol -->
<g id="edge34" class="edge">
<title>IMAS&#45;&gt;FuseExchangeProtocol</title>
<path fill="none" stroke="#9e4e8a" stroke-width="2" d="M607.27,-427.79C630.7,-431.93 665.76,-438.11 698.07,-443.81"/>
<polygon fill="#9e4e8a" stroke="#9e4e8a" stroke-width="2" points="697.32,-447.23 707.78,-445.52 698.54,-440.33 697.32,-447.23"/>
</g>
<!-- IMASdd -->
<g id="node26" class="node">
<title>IMASdd</title>
<ellipse fill="none" stroke="black" stroke-width="3" cx="779.57" cy="-415" rx="35.95" ry="18"/>
<text text-anchor="middle" x="779.57" y="-409.98" font-family="Helvetica,sans-Serif" font-size="12.00">IMASdd</text>
</g>
<!-- IMAS&#45;&gt;IMASdd -->
<g id="edge44" class="edge">
<title>IMAS&#45;&gt;IMASdd</title>
<path fill="none" stroke="#ef2cf7" stroke-width="2" d="M608.11,-421.87C639.55,-420.6 691.17,-418.52 729.38,-416.98"/>
<polygon fill="#ef2cf7" stroke="#ef2cf7" stroke-width="2" points="729.4,-420.48 739.25,-416.58 729.12,-413.49 729.4,-420.48"/>
</g>
<!-- TGLFNN&#45;&gt;IMAS -->
<g id="edge36" class="edge">
<title>TGLFNN&#45;&gt;IMAS</title>
<path fill="none" stroke="#54b2e8" stroke-width="2" d="M424.1,-457.81C456.93,-450.39 505.19,-439.48 538.91,-431.86"/>
<polygon fill="#54b2e8" stroke="#54b2e8" stroke-width="2" points="539.56,-435.3 548.55,-429.68 538.02,-428.47 539.56,-435.3"/>
</g>
<!-- NEO&#45;&gt;IMAS -->
<g id="edge17" class="edge">
<title>NEO&#45;&gt;IMAS</title>
<path fill="none" stroke="#7eed42" stroke-width="2" d="M415.13,-423C447.06,-423 500.28,-423 537.18,-423"/>
<polygon fill="#7eed42" stroke="#7eed42" stroke-width="2" points="536.93,-426.5 546.93,-423 536.93,-419.5 536.93,-426.5"/>
</g>
<!-- CHEASE&#45;&gt;MXHEquilibrium -->
<g id="edge9" class="edge">
<title>CHEASE&#45;&gt;MXHEquilibrium</title>
<path fill="none" stroke="#8b4dca" stroke-width="2" d="M424.7,-242.58C438.78,-246.22 454.87,-250.82 469.17,-256 491.04,-263.92 514.59,-274.46 534.17,-283.82"/>
<polygon fill="#8b4dca" stroke="#8b4dca" stroke-width="2" points="532.55,-286.92 543.07,-288.14 535.6,-280.62 532.55,-286.92"/>
</g>
<!-- CHEASE&#45;&gt;MillerExtendedHarmonic -->
<g id="edge42" class="edge">
<title>CHEASE&#45;&gt;MillerExtendedHarmonic</title>
<path fill="none" stroke="#492a9e" stroke-width="2" d="M428.57,-231.12C483.98,-228.94 584.87,-231.29 660.01,-269 676.58,-277.32 672.93,-289.76 689.01,-299 691.97,-300.7 695.05,-302.27 698.22,-303.72"/>
<polygon fill="#492a9e" stroke="#492a9e" stroke-width="2" points="696.61,-306.84 707.19,-307.32 699.22,-300.35 696.61,-306.84"/>
</g>
<!-- BoundaryPlasmaModels&#45;&gt;IMAS -->
<g id="edge11" class="edge">
<title>BoundaryPlasmaModels&#45;&gt;IMAS</title>
<path fill="none" stroke="#db56c5" stroke-width="2" d="M270.6,-558.03C341.5,-560.74 435.12,-560.82 469.17,-545 511.23,-525.46 543.95,-481.2 562.14,-451.71"/>
<polygon fill="#db56c5" stroke="#db56c5" stroke-width="2" points="564.95,-453.83 567.05,-443.44 558.93,-450.25 564.95,-453.83"/>
</g>
<!-- BoundaryPlasmaModels&#45;&gt;IMASutils -->
<g id="edge33" class="edge">
<title>BoundaryPlasmaModels&#45;&gt;IMASutils</title>
<path fill="none" stroke="#7b5b47" stroke-width="2" d="M217.21,-571.02C240.95,-582.6 273.8,-596.63 304.58,-603 383.22,-619.26 617.41,-615.38 724.29,-612.62"/>
<polygon fill="#7b5b47" stroke="#7b5b47" stroke-width="2" points="724.36,-616.11 734.26,-612.35 724.17,-609.12 724.36,-616.11"/>
</g>
<!-- BoundaryPlasmaModels&#45;&gt;SimulationParameters -->
<g id="edge12" class="edge">
<title>BoundaryPlasmaModels&#45;&gt;SimulationParameters</title>
<path fill="none" stroke="#693fad" stroke-width="2" d="M258.43,-542.24C272.89,-540.17 288.11,-537.99 302.8,-535.89"/>
<polygon fill="#693fad" stroke="#693fad" stroke-width="2" points="303.14,-539.38 312.55,-534.5 302.15,-532.45 303.14,-539.38"/>
</g>
<!-- ADAS -->
<g id="node21" class="node">
<title>ADAS</title>
<ellipse fill="none" stroke="black" stroke-width="3" cx="386.88" cy="-582" rx="30.44" ry="18"/>
<text text-anchor="middle" x="386.88" y="-576.98" font-family="Helvetica,sans-Serif" font-size="12.00">ADAS</text>
</g>
<!-- BoundaryPlasmaModels&#45;&gt;ADAS -->
<g id="edge30" class="edge">
<title>BoundaryPlasmaModels&#45;&gt;ADAS</title>
<path fill="none" stroke="#e08743" stroke-width="2" d="M258.43,-563.76C286.93,-567.84 318.4,-572.34 342.94,-575.85"/>
<polygon fill="#e08743" stroke="#e08743" stroke-width="2" points="342.4,-579.31 352.8,-577.27 343.4,-572.38 342.4,-579.31"/>
</g>
<!-- TEQUILA&#45;&gt;MXHEquilibrium -->
<g id="edge26" class="edge">
<title>TEQUILA&#45;&gt;MXHEquilibrium</title>
<path fill="none" stroke="#c02989" stroke-width="2" d="M427.29,-283.01C450.68,-286.58 481.01,-291.2 508.33,-295.36"/>
<polygon fill="#c02989" stroke="#c02989" stroke-width="2" points="507.64,-298.8 518.05,-296.85 508.7,-291.88 507.64,-298.8"/>
</g>
<!-- TEQUILA&#45;&gt;FiniteElementHermite -->
<g id="edge37" class="edge">
<title>TEQUILA&#45;&gt;FiniteElementHermite</title>
<path fill="none" stroke="#7dcf1a" stroke-width="2" d="M425.25,-268.7C439.25,-265.12 455.15,-260.49 469.17,-255 492.43,-245.89 517.19,-233.2 537.21,-222.1"/>
<polygon fill="#7dcf1a" stroke="#7dcf1a" stroke-width="2" points="538.78,-225.24 545.77,-217.28 535.34,-219.14 538.78,-225.24"/>
</g>
<!-- TEQUILA&#45;&gt;MillerExtendedHarmonic -->
<g id="edge27" class="edge">
<title>TEQUILA&#45;&gt;MillerExtendedHarmonic</title>
<path fill="none" stroke="#018373" stroke-width="2" d="M428.7,-272.97C482.55,-268.82 579.89,-265.43 660.01,-285 673.91,-288.4 675.54,-294.16 689.01,-299 693.41,-300.58 697.98,-302.09 702.61,-303.52"/>
<polygon fill="#018373" stroke="#018373" stroke-width="2" points="701.47,-306.84 712.05,-306.28 703.43,-300.12 701.47,-306.84"/>
</g>
</g>
</svg>
