<?xml version="1.0" encoding="UTF-8" standalone="no"?>
<!DOCTYPE svg PUBLIC "-//W3C//DTD SVG 1.1//EN"
 "http://www.w3.org/Graphics/SVG/1.1/DTD/svg11.dtd">
<!-- Generated by graphviz version 12.2.1 (20241206.2353)
 -->
<!-- Title: G Pages: 1 -->
<svg width="1295pt" height="692pt"
 viewBox="0.00 0.00 1294.67 691.87" xmlns="http://www.w3.org/2000/svg" xmlns:xlink="http://www.w3.org/1999/xlink">
<g id="graph0" class="graph" transform="scale(1 1) rotate(0) translate(4 687.87)">
<title>G</title>
<polygon fill="white" stroke="none" points="-4,4 -4,-687.87 1290.67,-687.87 1290.67,4 -4,4"/>
<!-- IMAS -->
<g id="node1" class="node">
<title>IMAS</title>
<ellipse fill="none" stroke="black" stroke-width="3" cx="790.58" cy="-371" rx="27.69" ry="18"/>
<text text-anchor="middle" x="790.58" y="-365.98" font-family="Helvetica,sans-Serif" font-size="12.00">IMAS</text>
</g>
<!-- TurbulentTransport -->
<g id="node2" class="node">
<title>TurbulentTransport</title>
<ellipse fill="none" stroke="black" stroke-width="3" cx="387.34" cy="-265" rx="71.28" ry="18"/>
<text text-anchor="middle" x="387.34" y="-259.98" font-family="Helvetica,sans-Serif" font-size="12.00">TurbulentTransport</text>
</g>
<!-- IMAS&#45;&gt;TurbulentTransport -->
<g id="edge1" class="edge">
<title>IMAS&#45;&gt;TurbulentTransport</title>
<path fill="none" stroke="#e97757" stroke-width="2" d="M774.06,-355.42C754.08,-336.47 717.39,-305.26 679.28,-291 603.98,-262.82 579.17,-282.17 499.09,-275 489.36,-274.13 479.14,-273.21 469.01,-272.3"/>
<polygon fill="#e97757" stroke="#e97757" stroke-width="2" points="469.57,-268.83 459.29,-271.42 468.94,-275.81 469.57,-268.83"/>
</g>
<!-- TORBEAM -->
<g id="node3" class="node">
<title>TORBEAM</title>
<ellipse fill="none" stroke="black" stroke-width="3" cx="387.34" cy="-396" rx="46.5" ry="18"/>
<text text-anchor="middle" x="387.34" y="-390.98" font-family="Helvetica,sans-Serif" font-size="12.00">TORBEAM</text>
</g>
<!-- IMAS&#45;&gt;TORBEAM -->
<g id="edge25" class="edge">
<title>IMAS&#45;&gt;TORBEAM</title>
<path fill="none" stroke="#48e12d" stroke-width="2" d="M761.68,-372.74C696.94,-376.77 535.32,-386.84 447.46,-392.32"/>
<polygon fill="#48e12d" stroke="#48e12d" stroke-width="2" points="447.32,-388.82 437.55,-392.93 447.75,-395.8 447.32,-388.82"/>
</g>
<!-- FUSE -->
<g id="node4" class="node">
<title>FUSE</title>
<ellipse fill="none" stroke="black" stroke-width="3" cx="29.98" cy="-316" rx="29.98" ry="18"/>
<text text-anchor="middle" x="29.98" y="-310.98" font-family="Helvetica,sans-Serif" font-size="12.00">FUSE</text>
</g>
<!-- IMAS&#45;&gt;FUSE -->
<g id="edge11" class="edge">
<title>IMAS&#45;&gt;FUSE</title>
<path fill="none" stroke="#61c4bc" stroke-width="2" d="M761.78,-369.47C659.57,-363.86 310.3,-344.65 304.58,-344 291.59,-342.52 288.55,-340.67 275.58,-339 193.02,-328.36 171.77,-331.55 88.96,-323 83.94,-322.48 78.68,-321.9 73.47,-321.3"/>
<polygon fill="#61c4bc" stroke="#61c4bc" stroke-width="2" points="74.1,-317.85 63.76,-320.15 73.28,-324.8 74.1,-317.85"/>
</g>
<!-- BoundaryPlasmaModels -->
<g id="node11" class="node">
<title>BoundaryPlasmaModels</title>
<ellipse fill="none" stroke="black" stroke-width="3" cx="589.19" cy="-196" rx="90.1" ry="18"/>
<text text-anchor="middle" x="589.19" y="-190.97" font-family="Helvetica,sans-Serif" font-size="12.00">BoundaryPlasmaModels</text>
</g>
<!-- IMAS&#45;&gt;BoundaryPlasmaModels -->
<g id="edge36" class="edge">
<title>IMAS&#45;&gt;BoundaryPlasmaModels</title>
<path fill="none" stroke="#0fd646" stroke-width="2" d="M779.57,-353.38C762.44,-324.61 724.87,-267.3 679.28,-233 671.29,-226.98 662.17,-221.76 652.88,-217.28"/>
<polygon fill="#0fd646" stroke="#0fd646" stroke-width="2" points="654.43,-214.14 643.88,-213.25 651.57,-220.53 654.43,-214.14"/>
</g>
<!-- VacuumFields -->
<g id="node13" class="node">
<title>VacuumFields</title>
<ellipse fill="none" stroke="black" stroke-width="3" cx="387.34" cy="-469" rx="56.14" ry="18"/>
<text text-anchor="middle" x="387.34" y="-463.98" font-family="Helvetica,sans-Serif" font-size="12.00">VacuumFields</text>
</g>
<!-- IMAS&#45;&gt;VacuumFields -->
<g id="edge64" class="edge">
<title>IMAS&#45;&gt;VacuumFields</title>
<path fill="none" stroke="#7c4c43" stroke-width="2" d="M775.57,-387.6C756.38,-408.94 719.66,-445.04 679.28,-460 640.06,-474.54 529.88,-474.04 456.93,-471.87"/>
<polygon fill="#7c4c43" stroke="#7c4c43" stroke-width="2" points="457.35,-468.38 447.24,-471.56 457.12,-475.38 457.35,-468.38"/>
</g>
<!-- FusionMaterials -->
<g id="node14" class="node">
<title>FusionMaterials</title>
<ellipse fill="none" stroke="black" stroke-width="3" cx="589.19" cy="-439" rx="62.1" ry="18"/>
<text text-anchor="middle" x="589.19" y="-433.98" font-family="Helvetica,sans-Serif" font-size="12.00">FusionMaterials</text>
</g>
<!-- IMAS&#45;&gt;FusionMaterials -->
<g id="edge62" class="edge">
<title>IMAS&#45;&gt;FusionMaterials</title>
<path fill="none" stroke="#9dcfa2" stroke-width="2" d="M766.21,-381.25C744.08,-390.73 709.8,-404.84 679.28,-415 670.3,-417.99 660.72,-420.88 651.29,-423.55"/>
<polygon fill="#9dcfa2" stroke="#9dcfa2" stroke-width="2" points="650.67,-420.09 641.96,-426.13 652.53,-426.84 650.67,-420.09"/>
</g>
<!-- EGGO -->
<g id="node15" class="node">
<title>EGGO</title>
<ellipse fill="none" stroke="black" stroke-width="3" cx="182.27" cy="-418" rx="31.36" ry="18"/>
<text text-anchor="middle" x="182.27" y="-412.98" font-family="Helvetica,sans-Serif" font-size="12.00">EGGO</text>
</g>
<!-- IMAS&#45;&gt;EGGO -->
<g id="edge32" class="edge">
<title>IMAS&#45;&gt;EGGO</title>
<path fill="none" stroke="#405e83" stroke-width="2" d="M762.42,-375.66C740.11,-379.43 707.69,-384.78 679.28,-389 586.5,-402.78 563.68,-410.6 470.09,-417 384.32,-422.87 283.77,-421.27 227.4,-419.62"/>
<polygon fill="#405e83" stroke="#405e83" stroke-width="2" points="227.86,-416.13 217.75,-419.31 227.64,-423.13 227.86,-416.13"/>
</g>
<!-- GACODE -->
<g id="node17" class="node">
<title>GACODE</title>
<ellipse fill="none" stroke="black" stroke-width="3" cx="589.19" cy="-254" rx="41.91" ry="18"/>
<text text-anchor="middle" x="589.19" y="-248.97" font-family="Helvetica,sans-Serif" font-size="12.00">GACODE</text>
</g>
<!-- IMAS&#45;&gt;GACODE -->
<g id="edge43" class="edge">
<title>IMAS&#45;&gt;GACODE</title>
<path fill="none" stroke="#a4a90d" stroke-width="2" d="M774.77,-354.7C754.98,-333.9 717.9,-298.2 679.28,-278 667.79,-271.99 654.64,-267.38 642.05,-263.88"/>
<polygon fill="#a4a90d" stroke="#a4a90d" stroke-width="2" points="643.21,-260.57 632.65,-261.5 641.48,-267.35 643.21,-260.57"/>
</g>
<!-- NeoclassicalTransport -->
<g id="node18" class="node">
<title>NeoclassicalTransport</title>
<ellipse fill="none" stroke="black" stroke-width="3" cx="387.34" cy="-323" rx="82.75" ry="18"/>
<text text-anchor="middle" x="387.34" y="-317.98" font-family="Helvetica,sans-Serif" font-size="12.00">NeoclassicalTransport</text>
</g>
<!-- IMAS&#45;&gt;NeoclassicalTransport -->
<g id="edge15" class="edge">
<title>IMAS&#45;&gt;NeoclassicalTransport</title>
<path fill="none" stroke="#67da99" stroke-width="2" d="M762.93,-365.52C740.66,-361.1 708.01,-354.98 679.28,-351 659.73,-348.29 556.48,-338.53 478.48,-331.29"/>
<polygon fill="#67da99" stroke="#67da99" stroke-width="2" points="479,-327.83 468.72,-330.39 478.36,-334.8 479,-327.83"/>
</g>
<!-- TroyonBetaNN -->
<g id="node24" class="node">
<title>TroyonBetaNN</title>
<ellipse fill="none" stroke="black" stroke-width="3" cx="182.27" cy="-360" rx="58.43" ry="18"/>
<text text-anchor="middle" x="182.27" y="-354.98" font-family="Helvetica,sans-Serif" font-size="12.00">TroyonBetaNN</text>
</g>
<!-- IMAS&#45;&gt;TroyonBetaNN -->
<g id="edge45" class="edge">
<title>IMAS&#45;&gt;TroyonBetaNN</title>
<path fill="none" stroke="#87834f" stroke-width="2" d="M761.55,-370.49C671.62,-368.86 388.42,-363.72 254.62,-361.29"/>
<polygon fill="#87834f" stroke="#87834f" stroke-width="2" points="254.85,-357.8 244.79,-361.12 254.72,-364.8 254.85,-357.8"/>
</g>
<!-- FRESCO -->
<g id="node26" class="node">
<title>FRESCO</title>
<ellipse fill="none" stroke="black" stroke-width="3" cx="182.27" cy="-498" rx="40.99" ry="18"/>
<text text-anchor="middle" x="182.27" y="-492.98" font-family="Helvetica,sans-Serif" font-size="12.00">FRESCO</text>
</g>
<!-- IMAS&#45;&gt;FRESCO -->
<g id="edge38" class="edge">
<title>IMAS&#45;&gt;FRESCO</title>
<path fill="none" stroke="#cf1fee" stroke-width="2" d="M777.2,-387.85C758.81,-411.38 721.84,-453.32 679.28,-472 601.42,-506.18 349.11,-503.13 237.38,-499.92"/>
<polygon fill="#cf1fee" stroke="#cf1fee" stroke-width="2" points="237.6,-496.43 227.49,-499.62 237.38,-503.42 237.6,-496.43"/>
</g>
<!-- TurbulentTransport&#45;&gt;FUSE -->
<g id="edge35" class="edge">
<title>TurbulentTransport&#45;&gt;FUSE</title>
<path fill="none" stroke="#34e75a" stroke-width="2" d="M314.85,-263.73C253.86,-264.3 164.33,-269.1 88.96,-289 80.93,-291.12 72.64,-294.31 64.93,-297.76"/>
<polygon fill="#34e75a" stroke="#34e75a" stroke-width="2" points="63.65,-294.49 56.14,-301.97 66.67,-300.8 63.65,-294.49"/>
</g>
<!-- TORBEAM&#45;&gt;FUSE -->
<g id="edge2" class="edge">
<title>TORBEAM&#45;&gt;FUSE</title>
<path fill="none" stroke="#c45a88" stroke-width="2" d="M339.49,-395.61C261.38,-394.67 110.91,-391.5 88.96,-381 72.39,-373.07 58.48,-358.02 48.45,-344.4"/>
<polygon fill="#c45a88" stroke="#c45a88" stroke-width="2" points="51.52,-342.69 42.97,-336.44 45.76,-346.66 51.52,-342.69"/>
</g>
<!-- MillerExtendedHarmonic -->
<g id="node5" class="node">
<title>MillerExtendedHarmonic</title>
<ellipse fill="none" stroke="black" stroke-width="3" cx="992.43" cy="-527" rx="90.56" ry="18"/>
<text text-anchor="middle" x="992.43" y="-521.98" font-family="Helvetica,sans-Serif" font-size="12.00">MillerExtendedHarmonic</text>
</g>
<!-- MillerExtendedHarmonic&#45;&gt;IMAS -->
<g id="edge18" class="edge">
<title>MillerExtendedHarmonic&#45;&gt;IMAS</title>
<path fill="none" stroke="#3abb02" stroke-width="2" d="M967.72,-508.49C930.78,-479.66 859.64,-424.12 820,-393.19"/>
<polygon fill="#3abb02" stroke="#3abb02" stroke-width="2" points="822.37,-390.59 812.33,-387.2 818.06,-396.11 822.37,-390.59"/>
</g>
<!-- TEQUILA -->
<g id="node6" class="node">
<title>TEQUILA</title>
<ellipse fill="none" stroke="black" stroke-width="3" cx="387.34" cy="-585" rx="41.45" ry="18"/>
<text text-anchor="middle" x="387.34" y="-579.98" font-family="Helvetica,sans-Serif" font-size="12.00">TEQUILA</text>
</g>
<!-- MillerExtendedHarmonic&#45;&gt;TEQUILA -->
<g id="edge3" class="edge">
<title>MillerExtendedHarmonic&#45;&gt;TEQUILA</title>
<path fill="none" stroke="#cbae57" stroke-width="2" d="M913.27,-536.88C850.19,-544.64 759.11,-555.38 679.28,-563 596.95,-570.86 501.28,-577.64 442.78,-581.53"/>
<polygon fill="#cbae57" stroke="#cbae57" stroke-width="2" points="442.58,-578.03 432.84,-582.18 443.04,-585.02 442.58,-578.03"/>
</g>
<!-- MXHEquilibrium -->
<g id="node12" class="node">
<title>MXHEquilibrium</title>
<ellipse fill="none" stroke="black" stroke-width="3" cx="589.19" cy="-601" rx="63.48" ry="18"/>
<text text-anchor="middle" x="589.19" y="-595.98" font-family="Helvetica,sans-Serif" font-size="12.00">MXHEquilibrium</text>
</g>
<!-- MillerExtendedHarmonic&#45;&gt;MXHEquilibrium -->
<g id="edge23" class="edge">
<title>MillerExtendedHarmonic&#45;&gt;MXHEquilibrium</title>
<path fill="none" stroke="#dfcee6" stroke-width="2" d="M956.33,-544.82C933.22,-555.71 901.97,-568.88 872.88,-576 835.03,-585.26 736.05,-592.62 665.92,-596.9"/>
<polygon fill="#dfcee6" stroke="#dfcee6" stroke-width="2" points="665.98,-593.39 656.2,-597.48 666.4,-600.37 665.98,-593.39"/>
</g>
<!-- MillerExtendedHarmonic&#45;&gt;VacuumFields -->
<g id="edge40" class="edge">
<title>MillerExtendedHarmonic&#45;&gt;VacuumFields</title>
<path fill="none" stroke="#d4cd40" stroke-width="2" d="M908.52,-519.03C787.86,-507.42 566.22,-486.11 455.28,-475.44"/>
<polygon fill="#d4cd40" stroke="#d4cd40" stroke-width="2" points="455.94,-471.99 445.65,-474.51 455.27,-478.95 455.94,-471.99"/>
</g>
<!-- TEQUILA&#45;&gt;FUSE -->
<g id="edge56" class="edge">
<title>TEQUILA&#45;&gt;FUSE</title>
<path fill="none" stroke="#1f29ea" stroke-width="2" d="M344.57,-583.89C271.74,-581.08 125.76,-571.34 88.96,-538 61,-512.67 42.67,-403.25 35.03,-348.08"/>
<polygon fill="#1f29ea" stroke="#1f29ea" stroke-width="2" points="38.52,-347.75 33.72,-338.3 31.58,-348.68 38.52,-347.75"/>
</g>
<!-- FiniteElementHermite -->
<g id="node7" class="node">
<title>FiniteElementHermite</title>
<ellipse fill="none" stroke="black" stroke-width="3" cx="589.19" cy="-542" rx="80.92" ry="18"/>
<text text-anchor="middle" x="589.19" y="-536.98" font-family="Helvetica,sans-Serif" font-size="12.00">FiniteElementHermite</text>
</g>
<!-- FiniteElementHermite&#45;&gt;TEQUILA -->
<g id="edge14" class="edge">
<title>FiniteElementHermite&#45;&gt;TEQUILA</title>
<path fill="none" stroke="#f02d9e" stroke-width="2" d="M527.95,-554.96C499.51,-561.08 465.94,-568.3 438.85,-574.13"/>
<polygon fill="#f02d9e" stroke="#f02d9e" stroke-width="2" points="438.12,-570.71 429.08,-576.23 439.59,-577.55 438.12,-570.71"/>
</g>
<!-- QED -->
<g id="node8" class="node">
<title>QED</title>
<ellipse fill="none" stroke="black" stroke-width="3" cx="387.34" cy="-542" rx="27" ry="18"/>
<text text-anchor="middle" x="387.34" y="-536.98" font-family="Helvetica,sans-Serif" font-size="12.00">QED</text>
</g>
<!-- FiniteElementHermite&#45;&gt;QED -->
<g id="edge4" class="edge">
<title>FiniteElementHermite&#45;&gt;QED</title>
<path fill="none" stroke="#039ded" stroke-width="2" d="M506.9,-542C479.93,-542 451.07,-542 428.58,-542"/>
<polygon fill="#039ded" stroke="#039ded" stroke-width="2" points="428.84,-538.5 418.84,-542 428.84,-545.5 428.84,-538.5"/>
</g>
<!-- QED&#45;&gt;FUSE -->
<g id="edge21" class="edge">
<title>QED&#45;&gt;FUSE</title>
<path fill="none" stroke="#cd7a56" stroke-width="2" d="M359.1,-543.8C293.62,-547.55 129.79,-553.28 88.96,-520 62.31,-498.27 43.68,-399.63 35.56,-347.89"/>
<polygon fill="#cd7a56" stroke="#cd7a56" stroke-width="2" points="39.05,-347.59 34.09,-338.23 32.13,-348.64 39.05,-347.59"/>
</g>
<!-- QED&#45;&gt;FRESCO -->
<g id="edge33" class="edge">
<title>QED&#45;&gt;FRESCO</title>
<path fill="none" stroke="#4d6fe5" stroke-width="2" d="M360.2,-536.34C328.21,-529.41 273.33,-517.51 233.16,-508.81"/>
<polygon fill="#4d6fe5" stroke="#4d6fe5" stroke-width="2" points="234.15,-505.44 223.64,-506.75 232.67,-512.29 234.15,-505.44"/>
</g>
<!-- TJLF -->
<g id="node9" class="node">
<title>TJLF</title>
<ellipse fill="none" stroke="black" stroke-width="3" cx="589.19" cy="-312" rx="27" ry="18"/>
<text text-anchor="middle" x="589.19" y="-306.98" font-family="Helvetica,sans-Serif" font-size="12.00">TJLF</text>
</g>
<!-- TJLF&#45;&gt;TurbulentTransport -->
<g id="edge39" class="edge">
<title>TJLF&#45;&gt;TurbulentTransport</title>
<path fill="none" stroke="#b84219" stroke-width="2" d="M562.47,-305.95C535.29,-299.56 491.32,-289.22 454.36,-280.53"/>
<polygon fill="#b84219" stroke="#b84219" stroke-width="2" points="455.62,-277.23 445.08,-278.35 454.02,-284.04 455.62,-277.23"/>
</g>
<!-- TJLF&#45;&gt;FUSE -->
<g id="edge5" class="edge">
<title>TJLF&#45;&gt;FUSE</title>
<path fill="none" stroke="#d23e38" stroke-width="2" d="M561.02,-309.04C537.11,-306.6 501.34,-303.32 470.09,-302 324.75,-295.86 152.26,-306.64 73.73,-312.53"/>
<polygon fill="#d23e38" stroke="#d23e38" stroke-width="2" points="73.79,-309.02 64.09,-313.27 74.33,-316 73.79,-309.02"/>
</g>
<!-- SimulationParameters -->
<g id="node10" class="node">
<title>SimulationParameters</title>
<ellipse fill="none" stroke="black" stroke-width="3" cx="790.58" cy="-150" rx="82.3" ry="18"/>
<text text-anchor="middle" x="790.58" y="-144.97" font-family="Helvetica,sans-Serif" font-size="12.00">SimulationParameters</text>
</g>
<!-- SimulationParameters&#45;&gt;FUSE -->
<g id="edge24" class="edge">
<title>SimulationParameters&#45;&gt;FUSE</title>
<path fill="none" stroke="#3a0df0" stroke-width="2" d="M707.24,-148.71C527.46,-146.22 113.81,-142.46 88.96,-160 49.19,-188.07 36.66,-246.76 32.73,-283.61"/>
<polygon fill="#3a0df0" stroke="#3a0df0" stroke-width="2" points="29.25,-283.27 31.87,-293.54 36.22,-283.88 29.25,-283.27"/>
</g>
<!-- SimulationParameters&#45;&gt;BoundaryPlasmaModels -->
<g id="edge6" class="edge">
<title>SimulationParameters&#45;&gt;BoundaryPlasmaModels</title>
<path fill="none" stroke="#de5bf2" stroke-width="2" d="M730.83,-163.55C710,-168.36 686.27,-173.83 664.32,-178.9"/>
<polygon fill="#de5bf2" stroke="#de5bf2" stroke-width="2" points="663.54,-175.49 654.58,-181.14 665.11,-182.31 663.54,-175.49"/>
</g>
<!-- BoundaryPlasmaModels&#45;&gt;FUSE -->
<g id="edge63" class="edge">
<title>BoundaryPlasmaModels&#45;&gt;FUSE</title>
<path fill="none" stroke="#18cb29" stroke-width="2" d="M501.7,-201.61C363.55,-210.84 106.7,-229.18 88.96,-239 69.81,-249.6 55.09,-269.48 45.28,-286.38"/>
<polygon fill="#18cb29" stroke="#18cb29" stroke-width="2" points="42.41,-284.33 40.71,-294.79 48.56,-287.67 42.41,-284.33"/>
</g>
<!-- MXHEquilibrium&#45;&gt;FUSE -->
<g id="edge9" class="edge">
<title>MXHEquilibrium&#45;&gt;FUSE</title>
<path fill="none" stroke="#c32ca6" stroke-width="2" d="M556.64,-617.73C533.43,-629.06 500.72,-643.01 470.09,-649 302.64,-681.73 208.95,-724.3 88.96,-603 53.59,-567.24 38.25,-415.22 33.12,-348.09"/>
<polygon fill="#c32ca6" stroke="#c32ca6" stroke-width="2" points="36.61,-347.86 32.39,-338.14 29.63,-348.37 36.61,-347.86"/>
</g>
<!-- MXHEquilibrium&#45;&gt;TEQUILA -->
<g id="edge12" class="edge">
<title>MXHEquilibrium&#45;&gt;TEQUILA</title>
<path fill="none" stroke="#731f47" stroke-width="2" d="M526.59,-596.07C499.61,-593.91 468.24,-591.4 442.2,-589.31"/>
<polygon fill="#731f47" stroke="#731f47" stroke-width="2" points="442.77,-585.85 432.53,-588.54 442.22,-592.82 442.77,-585.85"/>
</g>
<!-- MXHEquilibrium&#45;&gt;VacuumFields -->
<g id="edge7" class="edge">
<title>MXHEquilibrium&#45;&gt;VacuumFields</title>
<path fill="none" stroke="#f4e4e0" stroke-width="2" d="M541.87,-587.64C527.18,-581.93 511.54,-574.18 499.09,-564 481.25,-549.41 486.61,-537.08 470.09,-521 458.6,-509.82 444.34,-499.75 430.95,-491.52"/>
<polygon fill="#f4e4e0" stroke="#f4e4e0" stroke-width="2" points="433,-488.67 422.61,-486.6 429.44,-494.7 433,-488.67"/>
</g>
<!-- CHEASE -->
<g id="node22" class="node">
<title>CHEASE</title>
<ellipse fill="none" stroke="black" stroke-width="3" cx="387.34" cy="-628" rx="40.99" ry="18"/>
<text text-anchor="middle" x="387.34" y="-622.98" font-family="Helvetica,sans-Serif" font-size="12.00">CHEASE</text>
</g>
<!-- MXHEquilibrium&#45;&gt;CHEASE -->
<g id="edge55" class="edge">
<title>MXHEquilibrium&#45;&gt;CHEASE</title>
<path fill="none" stroke="#6a7d1d" stroke-width="2" d="M529.84,-608.88C501.73,-612.68 468.26,-617.2 440.93,-620.89"/>
<polygon fill="#6a7d1d" stroke="#6a7d1d" stroke-width="2" points="440.5,-617.42 431.06,-622.23 441.44,-624.36 440.5,-617.42"/>
</g>
<!-- VacuumFields&#45;&gt;FUSE -->
<g id="edge44" class="edge">
<title>VacuumFields&#45;&gt;FUSE</title>
<path fill="none" stroke="#ef20c5" stroke-width="2" d="M330.83,-472.6C255.68,-476.34 126.62,-478.46 88.96,-452 54.97,-428.11 40.78,-380.06 34.94,-347.95"/>
<polygon fill="#ef20c5" stroke="#ef20c5" stroke-width="2" points="38.43,-347.59 33.4,-338.27 31.52,-348.7 38.43,-347.59"/>
</g>
<!-- VacuumFields&#45;&gt;EGGO -->
<g id="edge47" class="edge">
<title>VacuumFields&#45;&gt;EGGO</title>
<path fill="none" stroke="#e1e01d" stroke-width="2" d="M340.76,-457.55C306.03,-448.83 258.59,-436.92 224.87,-428.45"/>
<polygon fill="#e1e01d" stroke="#e1e01d" stroke-width="2" points="226.17,-425.16 215.62,-426.12 224.46,-431.95 226.17,-425.16"/>
</g>
<!-- VacuumFields&#45;&gt;FRESCO -->
<g id="edge49" class="edge">
<title>VacuumFields&#45;&gt;FRESCO</title>
<path fill="none" stroke="#81ba8b" stroke-width="2" d="M334.31,-476.43C303.87,-480.78 265.58,-486.25 235.17,-490.59"/>
<polygon fill="#81ba8b" stroke="#81ba8b" stroke-width="2" points="235.06,-487.07 225.66,-491.95 236.05,-494 235.06,-487.07"/>
</g>
<!-- FusionMaterials&#45;&gt;FUSE -->
<g id="edge29" class="edge">
<title>FusionMaterials&#45;&gt;FUSE</title>
<path fill="none" stroke="#f09d35" stroke-width="2" d="M526.2,-440.76C396.54,-444.19 107.1,-450.5 88.96,-439 57.5,-419.05 42.79,-376.94 36.14,-347.59"/>
<polygon fill="#f09d35" stroke="#f09d35" stroke-width="2" points="39.63,-347.2 34.22,-338.09 32.77,-348.59 39.63,-347.2"/>
</g>
<!-- FusionMaterials&#45;&gt;VacuumFields -->
<g id="edge8" class="edge">
<title>FusionMaterials&#45;&gt;VacuumFields</title>
<path fill="none" stroke="#f6ada7" stroke-width="2" d="M531.99,-447.44C507.29,-451.14 478.17,-455.52 452.62,-459.35"/>
<polygon fill="#f6ada7" stroke="#f6ada7" stroke-width="2" points="452.37,-455.85 443,-460.79 453.41,-462.77 452.37,-455.85"/>
</g>
<!-- EGGO&#45;&gt;FUSE -->
<g id="edge10" class="edge">
<title>EGGO&#45;&gt;FUSE</title>
<path fill="none" stroke="#18d10c" stroke-width="2" d="M150.04,-415.16C131.06,-412.21 107.09,-406.21 88.96,-394 70.77,-381.74 56.1,-361.82 46.07,-345.18"/>
<polygon fill="#18d10c" stroke="#18d10c" stroke-width="2" points="49.37,-343.9 41.38,-336.94 43.29,-347.37 49.37,-343.9"/>
</g>
<!-- IMASutils -->
<g id="node16" class="node">
<title>IMASutils</title>
<ellipse fill="none" stroke="black" stroke-width="3" cx="992.43" cy="-252" rx="40.99" ry="18"/>
<text text-anchor="middle" x="992.43" y="-246.97" font-family="Helvetica,sans-Serif" font-size="12.00">IMASutils</text>
</g>
<!-- IMASutils&#45;&gt;IMAS -->
<g id="edge16" class="edge">
<title>IMASutils&#45;&gt;IMAS</title>
<path fill="none" stroke="#ac4a4c" stroke-width="2" d="M966.12,-267.07C929.97,-288.6 863.54,-328.15 823.88,-351.77"/>
<polygon fill="#ac4a4c" stroke="#ac4a4c" stroke-width="2" points="822.14,-348.73 815.34,-356.85 825.72,-354.75 822.14,-348.73"/>
</g>
<!-- IMASutils&#45;&gt;TurbulentTransport -->
<g id="edge50" class="edge">
<title>IMASutils&#45;&gt;TurbulentTransport</title>
<path fill="none" stroke="#ca3679" stroke-width="2" d="M950.63,-255.07C895.18,-258.28 793.19,-260.8 708.28,-244 694.76,-241.32 692.84,-235.49 679.28,-233 600.51,-218.56 578.39,-221.77 499.09,-233 480.75,-235.6 461.2,-240.5 443.71,-245.7"/>
<polygon fill="#ca3679" stroke="#ca3679" stroke-width="2" points="442.79,-242.32 434.27,-248.61 444.86,-249 442.79,-242.32"/>
</g>
<!-- IMASutils&#45;&gt;FUSE -->
<g id="edge41" class="edge">
<title>IMASutils&#45;&gt;FUSE</title>
<path fill="none" stroke="#7d1323" stroke-width="2" d="M968.65,-235.88C945.67,-220.57 908.58,-198.41 872.88,-188 767.11,-157.17 340.14,-173.08 275.58,-173 234.11,-172.95 123.36,-149.83 88.96,-173 52.35,-197.66 38.85,-249.83 33.87,-283.87"/>
<polygon fill="#7d1323" stroke="#7d1323" stroke-width="2" points="30.4,-283.43 32.64,-293.79 37.35,-284.3 30.4,-283.43"/>
</g>
<!-- IMASutils&#45;&gt;SimulationParameters -->
<g id="edge54" class="edge">
<title>IMASutils&#45;&gt;SimulationParameters</title>
<path fill="none" stroke="#e198ad" stroke-width="2" d="M970.7,-235.61C947.87,-218.24 909.53,-191.01 872.88,-174 868.62,-172.03 864.16,-170.17 859.62,-168.44"/>
<polygon fill="#e198ad" stroke="#e198ad" stroke-width="2" points="860.93,-165.19 850.34,-165.14 858.59,-171.78 860.93,-165.19"/>
</g>
<!-- IMASutils&#45;&gt;BoundaryPlasmaModels -->
<g id="edge30" class="edge">
<title>IMASutils&#45;&gt;BoundaryPlasmaModels</title>
<path fill="none" stroke="#6167ba" stroke-width="2" d="M965.07,-237.46C941.65,-225.38 906.08,-209.08 872.88,-202 812.54,-189.13 743.32,-187.45 688.47,-189.08"/>
<polygon fill="#6167ba" stroke="#6167ba" stroke-width="2" points="688.47,-185.57 678.6,-189.42 688.71,-192.57 688.47,-185.57"/>
</g>
<!-- IMASutils&#45;&gt;GACODE -->
<g id="edge13" class="edge">
<title>IMASutils&#45;&gt;GACODE</title>
<path fill="none" stroke="#cb5353" stroke-width="2" d="M950.29,-254.16C927.49,-255.25 898.62,-256.46 872.88,-257 799.74,-258.54 781.43,-257.93 708.28,-257 687.69,-256.74 665.08,-256.22 645.21,-255.69"/>
<polygon fill="#cb5353" stroke="#cb5353" stroke-width="2" points="645.39,-252.19 635.29,-255.41 645.19,-259.19 645.39,-252.19"/>
</g>
<!-- IMASutils&#45;&gt;FRESCO -->
<g id="edge42" class="edge">
<title>IMASutils&#45;&gt;FRESCO</title>
<path fill="none" stroke="#913326" stroke-width="2" d="M977.63,-270.2C951.9,-303.81 897.04,-373.93 872.88,-393 797.33,-452.62 772.08,-464.51 679.28,-490 522.36,-533.1 326.86,-516.93 235.22,-505.51"/>
<polygon fill="#913326" stroke="#913326" stroke-width="2" points="235.84,-502.06 225.47,-504.25 234.95,-509 235.84,-502.06"/>
</g>
<!-- GACODE&#45;&gt;TurbulentTransport -->
<g id="edge61" class="edge">
<title>GACODE&#45;&gt;TurbulentTransport</title>
<path fill="none" stroke="#392045" stroke-width="2" d="M546.29,-256.31C524.55,-257.5 497.21,-259.01 471.41,-260.43"/>
<polygon fill="#392045" stroke="#392045" stroke-width="2" points="471.31,-256.93 461.52,-260.97 471.7,-263.92 471.31,-256.93"/>
</g>
<!-- GACODE&#45;&gt;FUSE -->
<g id="edge48" class="edge">
<title>GACODE&#45;&gt;FUSE</title>
<path fill="none" stroke="#7f850d" stroke-width="2" d="M546.98,-249.65C524.32,-247.48 495.68,-245.08 470.09,-244 385.35,-240.42 166.68,-230.05 88.96,-264 75.77,-269.76 63.51,-279.73 53.71,-289.41"/>
<polygon fill="#7f850d" stroke="#7f850d" stroke-width="2" points="51.2,-286.96 46.85,-296.63 56.28,-291.78 51.2,-286.96"/>
</g>
<!-- GACODE&#45;&gt;NeoclassicalTransport -->
<g id="edge27" class="edge">
<title>GACODE&#45;&gt;NeoclassicalTransport</title>
<path fill="none" stroke="#f7d985" stroke-width="2" d="M554.74,-265.55C525.31,-275.71 481.82,-290.72 446.68,-302.86"/>
<polygon fill="#f7d985" stroke="#f7d985" stroke-width="2" points="445.8,-299.46 437.49,-306.03 448.09,-306.07 445.8,-299.46"/>
</g>
<!-- NeoclassicalTransport&#45;&gt;FUSE -->
<g id="edge37" class="edge">
<title>NeoclassicalTransport&#45;&gt;FUSE</title>
<path fill="none" stroke="#cc15fc" stroke-width="2" d="M303.47,-321.37C231.7,-319.95 130.74,-317.97 74.03,-316.85"/>
<polygon fill="#cc15fc" stroke="#cc15fc" stroke-width="2" points="74.37,-313.35 64.3,-316.66 74.23,-320.35 74.37,-313.35"/>
</g>
<!-- HelpPlots -->
<g id="node19" class="node">
<title>HelpPlots</title>
<ellipse fill="none" stroke="black" stroke-width="3" cx="992.43" cy="-150" rx="41.91" ry="18"/>
<text text-anchor="middle" x="992.43" y="-144.97" font-family="Helvetica,sans-Serif" font-size="12.00">HelpPlots</text>
</g>
<!-- HelpPlots&#45;&gt;IMAS -->
<g id="edge46" class="edge">
<title>HelpPlots&#45;&gt;IMAS</title>
<path fill="none" stroke="#8f0728" stroke-width="2" d="M970.97,-166.79C952.21,-182.57 924.06,-207.26 901.88,-231 867.41,-267.89 832.08,-314.62 810.98,-343.67"/>
<polygon fill="#8f0728" stroke="#8f0728" stroke-width="2" points="808.4,-341.26 805.39,-351.42 814.08,-345.36 808.4,-341.26"/>
</g>
<!-- HelpPlots&#45;&gt;FUSE -->
<g id="edge17" class="edge">
<title>HelpPlots&#45;&gt;FUSE</title>
<path fill="none" stroke="#ff3045" stroke-width="2" d="M953.48,-141.53C930.33,-136.8 900.05,-131.39 872.88,-129 800,-122.6 781.43,-127.94 708.28,-129 673.87,-129.5 116.68,-126.59 88.96,-147 45.84,-178.75 34.51,-244.54 31.7,-284.02"/>
<polygon fill="#ff3045" stroke="#ff3045" stroke-width="2" points="28.22,-283.59 31.19,-293.76 35.21,-283.96 28.22,-283.59"/>
</g>
<!-- HelpPlots&#45;&gt;SimulationParameters -->
<g id="edge52" class="edge">
<title>HelpPlots&#45;&gt;SimulationParameters</title>
<path fill="none" stroke="#bec76e" stroke-width="2" d="M949.05,-150C930.85,-150 908.79,-150 887.01,-150"/>
<polygon fill="#bec76e" stroke="#bec76e" stroke-width="2" points="887.28,-146.5 877.28,-150 887.28,-153.5 887.28,-146.5"/>
</g>
<!-- BalanceOfPlantSurrogate -->
<g id="node20" class="node">
<title>BalanceOfPlantSurrogate</title>
<ellipse fill="none" stroke="black" stroke-width="3" cx="182.27" cy="-194" rx="93.31" ry="18"/>
<text text-anchor="middle" x="182.27" y="-188.97" font-family="Helvetica,sans-Serif" font-size="12.00">BalanceOfPlantSurrogate</text>
</g>
<!-- BalanceOfPlantSurrogate&#45;&gt;FUSE -->
<g id="edge19" class="edge">
<title>BalanceOfPlantSurrogate&#45;&gt;FUSE</title>
<path fill="none" stroke="#7dc48b" stroke-width="2" d="M109.59,-206.51C102.23,-209.55 95.18,-213.32 88.96,-218 66.52,-234.9 51.13,-263.24 41.87,-285.1"/>
<polygon fill="#7dc48b" stroke="#7dc48b" stroke-width="2" points="38.67,-283.7 38.24,-294.28 45.17,-286.27 38.67,-283.7"/>
</g>
<!-- FuseExchangeProtocol -->
<g id="node21" class="node">
<title>FuseExchangeProtocol</title>
<ellipse fill="none" stroke="black" stroke-width="3" cx="992.43" cy="-429" rx="86.43" ry="18"/>
<text text-anchor="middle" x="992.43" y="-423.98" font-family="Helvetica,sans-Serif" font-size="12.00">FuseExchangeProtocol</text>
</g>
<!-- FuseExchangeProtocol&#45;&gt;IMAS -->
<g id="edge20" class="edge">
<title>FuseExchangeProtocol&#45;&gt;IMAS</title>
<path fill="none" stroke="#431e94" stroke-width="2" d="M931.53,-414.94C921.59,-412.42 911.42,-409.73 901.88,-407 877.22,-399.96 849.81,-391.02 828.48,-383.81"/>
<polygon fill="#431e94" stroke="#431e94" stroke-width="2" points="829.84,-380.57 819.25,-380.66 827.59,-387.2 829.84,-380.57"/>
</g>
<!-- CHEASE&#45;&gt;FUSE -->
<g id="edge22" class="edge">
<title>CHEASE&#45;&gt;FUSE</title>
<path fill="none" stroke="#848d45" stroke-width="2" d="M345.71,-631.81C281.91,-635.38 158.37,-632.19 88.96,-564 58.46,-534.03 40.95,-407.76 34.21,-347.83"/>
<polygon fill="#848d45" stroke="#848d45" stroke-width="2" points="37.72,-347.68 33.16,-338.12 30.76,-348.44 37.72,-347.68"/>
</g>
<!-- CoordinateConventions -->
<g id="node23" class="node">
<title>CoordinateConventions</title>
<ellipse fill="none" stroke="black" stroke-width="3" cx="1199.33" cy="-386" rx="87.34" ry="18"/>
<text text-anchor="middle" x="1199.33" y="-380.98" font-family="Helvetica,sans-Serif" font-size="12.00">CoordinateConventions</text>
</g>
<!-- CoordinateConventions&#45;&gt;IMAS -->
<g id="edge26" class="edge">
<title>CoordinateConventions&#45;&gt;IMAS</title>
<path fill="none" stroke="#bdd0bf" stroke-width="2" d="M1135.76,-372.49C1118.72,-369.39 1100.22,-366.56 1082.99,-365 993.83,-356.95 888.73,-362.89 832.3,-367.33"/>
<polygon fill="#bdd0bf" stroke="#bdd0bf" stroke-width="2" points="832.07,-363.84 822.39,-368.14 832.64,-370.81 832.07,-363.84"/>
</g>
<!-- CoordinateConventions&#45;&gt;MXHEquilibrium -->
<g id="edge57" class="edge">
<title>CoordinateConventions&#45;&gt;MXHEquilibrium</title>
<path fill="none" stroke="#265a5e" stroke-width="2" d="M1190.55,-405.24C1175.43,-440.01 1138.6,-513.05 1082.99,-549 952.34,-633.45 760.39,-624.54 658.92,-612.03"/>
<polygon fill="#265a5e" stroke="#265a5e" stroke-width="2" points="659.48,-608.57 649.11,-610.76 658.58,-615.51 659.48,-608.57"/>
</g>
<!-- IMASdd -->
<g id="node25" class="node">
<title>IMASdd</title>
<ellipse fill="none" stroke="black" stroke-width="3" cx="992.43" cy="-386" rx="35.95" ry="18"/>
<text text-anchor="middle" x="992.43" y="-380.98" font-family="Helvetica,sans-Serif" font-size="12.00">IMASdd</text>
</g>
<!-- CoordinateConventions&#45;&gt;IMASdd -->
<g id="edge31" class="edge">
<title>CoordinateConventions&#45;&gt;IMASdd</title>
<path fill="none" stroke="#aa8d12" stroke-width="2" d="M1110.54,-386C1087.29,-386 1063,-386 1042.62,-386"/>
<polygon fill="#aa8d12" stroke="#aa8d12" stroke-width="2" points="1042.86,-382.5 1032.86,-386 1042.86,-389.5 1042.86,-382.5"/>
</g>
<!-- TroyonBetaNN&#45;&gt;FUSE -->
<g id="edge28" class="edge">
<title>TroyonBetaNN&#45;&gt;FUSE</title>
<path fill="none" stroke="#f326be" stroke-width="2" d="M134.11,-348.49C119.57,-344.74 103.55,-340.4 88.96,-336 82.56,-334.07 75.82,-331.88 69.28,-329.68"/>
<polygon fill="#f326be" stroke="#f326be" stroke-width="2" points="70.56,-326.42 59.97,-326.48 68.29,-333.04 70.56,-326.42"/>
</g>
<!-- IMASdd&#45;&gt;IMAS -->
<g id="edge59" class="edge">
<title>IMASdd&#45;&gt;IMAS</title>
<path fill="none" stroke="#8ff081" stroke-width="2" d="M955.7,-383.32C921,-380.71 868.4,-376.77 832.14,-374.04"/>
<polygon fill="#8ff081" stroke="#8ff081" stroke-width="2" points="832.84,-370.59 822.61,-373.33 832.32,-377.57 832.84,-370.59"/>
</g>
<!-- FRESCO&#45;&gt;FUSE -->
<g id="edge51" class="edge">
<title>FRESCO&#45;&gt;FUSE</title>
<path fill="none" stroke="#cea23c" stroke-width="2" d="M140.9,-493.86C123.08,-490.15 103.02,-483.16 88.96,-470 54.45,-437.68 40.33,-382.77 34.65,-348"/>
<polygon fill="#cea23c" stroke="#cea23c" stroke-width="2" points="38.15,-347.7 33.25,-338.31 31.22,-348.71 38.15,-347.7"/>
</g>
<!-- RABBIT -->
<g id="node27" class="node">
<title>RABBIT</title>
<ellipse fill="none" stroke="black" stroke-width="3" cx="182.27" cy="-104" rx="36.86" ry="18"/>
<text text-anchor="middle" x="182.27" y="-98.97" font-family="Helvetica,sans-Serif" font-size="12.00">RABBIT</text>
</g>
<!-- RABBIT&#45;&gt;FUSE -->
<g id="edge34" class="edge">
<title>RABBIT&#45;&gt;FUSE</title>
<path fill="none" stroke="#649dd1" stroke-width="2" d="M144.33,-105.31C125.57,-107.83 103.68,-113.92 88.96,-128 45.82,-169.25 34.56,-241.78 31.76,-283.67"/>
<polygon fill="#649dd1" stroke="#649dd1" stroke-width="2" points="28.27,-283.42 31.25,-293.59 35.26,-283.78 28.27,-283.42"/>
</g>
<!-- EPEDNN -->
<g id="node28" class="node">
<title>EPEDNN</title>
<ellipse fill="none" stroke="black" stroke-width="3" cx="182.27" cy="-61" rx="41.45" ry="18"/>
<text text-anchor="middle" x="182.27" y="-55.98" font-family="Helvetica,sans-Serif" font-size="12.00">EPEDNN</text>
</g>
<!-- EPEDNN&#45;&gt;FUSE -->
<g id="edge53" class="edge">
<title>EPEDNN&#45;&gt;FUSE</title>
<path fill="none" stroke="#669b72" stroke-width="2" d="M139.42,-61.66C121.73,-64.08 102.19,-69.9 88.96,-83 60.71,-110.98 42.37,-226.65 34.85,-283.78"/>
<polygon fill="#669b72" stroke="#669b72" stroke-width="2" points="31.39,-283.27 33.6,-293.63 38.33,-284.15 31.39,-283.27"/>
</g>
<!-- ADAS -->
<g id="node29" class="node">
<title>ADAS</title>
<ellipse fill="none" stroke="black" stroke-width="3" cx="790.58" cy="-223" rx="30.44" ry="18"/>
<text text-anchor="middle" x="790.58" y="-217.97" font-family="Helvetica,sans-Serif" font-size="12.00">ADAS</text>
</g>
<!-- ADAS&#45;&gt;BoundaryPlasmaModels -->
<g id="edge58" class="edge">
<title>ADAS&#45;&gt;BoundaryPlasmaModels</title>
<path fill="none" stroke="#fa5743" stroke-width="2" d="M759.73,-218.96C738.25,-216.05 708.07,-211.96 679.12,-208.04"/>
<polygon fill="#fa5743" stroke="#fa5743" stroke-width="2" points="679.76,-204.6 669.38,-206.72 678.82,-211.53 679.76,-204.6"/>
</g>
<!-- NNeutronics -->
<g id="node30" class="node">
<title>NNeutronics</title>
<ellipse fill="none" stroke="black" stroke-width="3" cx="182.27" cy="-18" rx="50.63" ry="18"/>
<text text-anchor="middle" x="182.27" y="-12.97" font-family="Helvetica,sans-Serif" font-size="12.00">NNeutronics</text>
</g>
<!-- NNeutronics&#45;&gt;FUSE -->
<g id="edge60" class="edge">
<title>NNeutronics&#45;&gt;FUSE</title>
<path fill="none" stroke="#c4433a" stroke-width="2" d="M130.62,-19.85C115.41,-22.86 99.88,-28.79 88.96,-40 55.39,-74.48 39.19,-218.75 33.48,-283.86"/>
<polygon fill="#c4433a" stroke="#c4433a" stroke-width="2" points="29.99,-283.57 32.64,-293.83 36.97,-284.16 29.99,-283.57"/>
</g>
</g>
</svg>
