<?xml version="1.0" encoding="utf-8"?>
<svg xmlns="http://www.w3.org/2000/svg" xmlns:xlink="http://www.w3.org/1999/xlink" width="600" height="400" viewBox="0 0 2400 1600">
<defs>
  <clipPath id="clip470">
    <rect x="0" y="0" width="2400" height="1600"/>
  </clipPath>
</defs>
<path clip-path="url(#clip470)" d="M0 1600 L2400 1600 L2400 0 L0 0  Z" fill="#ffffff" fill-rule="evenodd" fill-opacity="1"/>
<defs>
  <clipPath id="clip471">
    <rect x="480" y="0" width="1681" height="1600"/>
  </clipPath>
</defs>
<path clip-path="url(#clip470)" d="M275.136 1486.45 L2352.76 1486.45 L2352.76 47.2441 L275.136 47.2441  Z" fill="#ffffff" fill-rule="evenodd" fill-opacity="1"/>
<defs>
  <clipPath id="clip472">
    <rect x="275" y="47" width="2079" height="1440"/>
  </clipPath>
</defs>
<polyline clip-path="url(#clip472)" style="stroke:#000000; stroke-linecap:round; stroke-linejoin:round; stroke-width:2; stroke-opacity:0.1; fill:none" points="314.337,1486.45 314.337,47.2441 "/>
<polyline clip-path="url(#clip472)" style="stroke:#000000; stroke-linecap:round; stroke-linejoin:round; stroke-width:2; stroke-opacity:0.1; fill:none" points="804.341,1486.45 804.341,47.2441 "/>
<polyline clip-path="url(#clip472)" style="stroke:#000000; stroke-linecap:round; stroke-linejoin:round; stroke-width:2; stroke-opacity:0.1; fill:none" points="1294.35,1486.45 1294.35,47.2441 "/>
<polyline clip-path="url(#clip472)" style="stroke:#000000; stroke-linecap:round; stroke-linejoin:round; stroke-width:2; stroke-opacity:0.1; fill:none" points="1784.35,1486.45 1784.35,47.2441 "/>
<polyline clip-path="url(#clip472)" style="stroke:#000000; stroke-linecap:round; stroke-linejoin:round; stroke-width:2; stroke-opacity:0.1; fill:none" points="2274.36,1486.45 2274.36,47.2441 "/>
<polyline clip-path="url(#clip472)" style="stroke:#000000; stroke-linecap:round; stroke-linejoin:round; stroke-width:2; stroke-opacity:0.1; fill:none" points="275.136,1446.49 2352.76,1446.49 "/>
<polyline clip-path="url(#clip472)" style="stroke:#000000; stroke-linecap:round; stroke-linejoin:round; stroke-width:2; stroke-opacity:0.1; fill:none" points="275.136,1232.4 2352.76,1232.4 "/>
<polyline clip-path="url(#clip472)" style="stroke:#000000; stroke-linecap:round; stroke-linejoin:round; stroke-width:2; stroke-opacity:0.1; fill:none" points="275.136,1018.31 2352.76,1018.31 "/>
<polyline clip-path="url(#clip472)" style="stroke:#000000; stroke-linecap:round; stroke-linejoin:round; stroke-width:2; stroke-opacity:0.1; fill:none" points="275.136,804.217 2352.76,804.217 "/>
<polyline clip-path="url(#clip472)" style="stroke:#000000; stroke-linecap:round; stroke-linejoin:round; stroke-width:2; stroke-opacity:0.1; fill:none" points="275.136,590.125 2352.76,590.125 "/>
<polyline clip-path="url(#clip472)" style="stroke:#000000; stroke-linecap:round; stroke-linejoin:round; stroke-width:2; stroke-opacity:0.1; fill:none" points="275.136,376.033 2352.76,376.033 "/>
<polyline clip-path="url(#clip472)" style="stroke:#000000; stroke-linecap:round; stroke-linejoin:round; stroke-width:2; stroke-opacity:0.1; fill:none" points="275.136,161.941 2352.76,161.941 "/>
<polyline clip-path="url(#clip470)" style="stroke:#000000; stroke-linecap:round; stroke-linejoin:round; stroke-width:4; stroke-opacity:1; fill:none" points="275.136,1486.45 2352.76,1486.45 "/>
<polyline clip-path="url(#clip470)" style="stroke:#000000; stroke-linecap:round; stroke-linejoin:round; stroke-width:4; stroke-opacity:1; fill:none" points="314.337,1486.45 314.337,1467.55 "/>
<polyline clip-path="url(#clip470)" style="stroke:#000000; stroke-linecap:round; stroke-linejoin:round; stroke-width:4; stroke-opacity:1; fill:none" points="804.341,1486.45 804.341,1467.55 "/>
<polyline clip-path="url(#clip470)" style="stroke:#000000; stroke-linecap:round; stroke-linejoin:round; stroke-width:4; stroke-opacity:1; fill:none" points="1294.35,1486.45 1294.35,1467.55 "/>
<polyline clip-path="url(#clip470)" style="stroke:#000000; stroke-linecap:round; stroke-linejoin:round; stroke-width:4; stroke-opacity:1; fill:none" points="1784.35,1486.45 1784.35,1467.55 "/>
<polyline clip-path="url(#clip470)" style="stroke:#000000; stroke-linecap:round; stroke-linejoin:round; stroke-width:4; stroke-opacity:1; fill:none" points="2274.36,1486.45 2274.36,1467.55 "/>
<path clip-path="url(#clip470)" d="M314.337 1517.37 Q310.726 1517.37 308.897 1520.93 Q307.091 1524.47 307.091 1531.6 Q307.091 1538.71 308.897 1542.27 Q310.726 1545.82 314.337 1545.82 Q317.971 1545.82 319.777 1542.27 Q321.605 1538.71 321.605 1531.6 Q321.605 1524.47 319.777 1520.93 Q317.971 1517.37 314.337 1517.37 M314.337 1513.66 Q320.147 1513.66 323.202 1518.27 Q326.281 1522.85 326.281 1531.6 Q326.281 1540.33 323.202 1544.94 Q320.147 1549.52 314.337 1549.52 Q308.527 1549.52 305.448 1544.94 Q302.392 1540.33 302.392 1531.6 Q302.392 1522.85 305.448 1518.27 Q308.527 1513.66 314.337 1513.66 Z" fill="#000000" fill-rule="nonzero" fill-opacity="1" /><path clip-path="url(#clip470)" d="M783.612 1544.91 L799.932 1544.91 L799.932 1548.85 L777.987 1548.85 L777.987 1544.91 Q780.649 1542.16 785.233 1537.53 Q789.839 1532.88 791.02 1531.53 Q793.265 1529.01 794.145 1527.27 Q795.047 1525.51 795.047 1523.82 Q795.047 1521.07 793.103 1519.33 Q791.182 1517.6 788.08 1517.6 Q785.881 1517.6 783.427 1518.36 Q780.997 1519.13 778.219 1520.68 L778.219 1515.95 Q781.043 1514.82 783.497 1514.24 Q785.95 1513.66 787.987 1513.66 Q793.358 1513.66 796.552 1516.35 Q799.746 1519.03 799.746 1523.52 Q799.746 1525.65 798.936 1527.57 Q798.149 1529.47 796.043 1532.07 Q795.464 1532.74 792.362 1535.95 Q789.26 1539.15 783.612 1544.91 Z" fill="#000000" fill-rule="nonzero" fill-opacity="1" /><path clip-path="url(#clip470)" d="M809.793 1514.29 L828.149 1514.29 L828.149 1518.22 L814.075 1518.22 L814.075 1526.7 Q815.094 1526.35 816.112 1526.19 Q817.131 1526 818.149 1526 Q823.936 1526 827.316 1529.17 Q830.695 1532.34 830.695 1537.76 Q830.695 1543.34 827.223 1546.44 Q823.751 1549.52 817.432 1549.52 Q815.256 1549.52 812.987 1549.15 Q810.742 1548.78 808.334 1548.04 L808.334 1543.34 Q810.418 1544.47 812.64 1545.03 Q814.862 1545.58 817.339 1545.58 Q821.344 1545.58 823.682 1543.48 Q826.019 1541.37 826.019 1537.76 Q826.019 1534.15 823.682 1532.04 Q821.344 1529.94 817.339 1529.94 Q815.464 1529.94 813.589 1530.35 Q811.737 1530.77 809.793 1531.65 L809.793 1514.29 Z" fill="#000000" fill-rule="nonzero" fill-opacity="1" /><path clip-path="url(#clip470)" d="M1269.05 1514.29 L1287.4 1514.29 L1287.4 1518.22 L1273.33 1518.22 L1273.33 1526.7 Q1274.35 1526.35 1275.36 1526.19 Q1276.38 1526 1277.4 1526 Q1283.19 1526 1286.57 1529.17 Q1289.95 1532.34 1289.95 1537.76 Q1289.95 1543.34 1286.48 1546.44 Q1283 1549.52 1276.68 1549.52 Q1274.51 1549.52 1272.24 1549.15 Q1269.99 1548.78 1267.59 1548.04 L1267.59 1543.34 Q1269.67 1544.47 1271.89 1545.03 Q1274.11 1545.58 1276.59 1545.58 Q1280.6 1545.58 1282.93 1543.48 Q1285.27 1541.37 1285.27 1537.76 Q1285.27 1534.15 1282.93 1532.04 Q1280.6 1529.94 1276.59 1529.94 Q1274.72 1529.94 1272.84 1530.35 Q1270.99 1530.77 1269.05 1531.65 L1269.05 1514.29 Z" fill="#000000" fill-rule="nonzero" fill-opacity="1" /><path clip-path="url(#clip470)" d="M1309.16 1517.37 Q1305.55 1517.37 1303.72 1520.93 Q1301.92 1524.47 1301.92 1531.6 Q1301.92 1538.71 1303.72 1542.27 Q1305.55 1545.82 1309.16 1545.82 Q1312.79 1545.82 1314.6 1542.27 Q1316.43 1538.71 1316.43 1531.6 Q1316.43 1524.47 1314.6 1520.93 Q1312.79 1517.37 1309.16 1517.37 M1309.16 1513.66 Q1314.97 1513.66 1318.03 1518.27 Q1321.11 1522.85 1321.11 1531.6 Q1321.11 1540.33 1318.03 1544.94 Q1314.97 1549.52 1309.16 1549.52 Q1303.35 1549.52 1300.27 1544.94 Q1297.22 1540.33 1297.22 1531.6 Q1297.22 1522.85 1300.27 1518.27 Q1303.35 1513.66 1309.16 1513.66 Z" fill="#000000" fill-rule="nonzero" fill-opacity="1" /><path clip-path="url(#clip470)" d="M1758.2 1514.29 L1780.43 1514.29 L1780.43 1516.28 L1767.88 1548.85 L1763 1548.85 L1774.8 1518.22 L1758.2 1518.22 L1758.2 1514.29 Z" fill="#000000" fill-rule="nonzero" fill-opacity="1" /><path clip-path="url(#clip470)" d="M1789.59 1514.29 L1807.95 1514.29 L1807.95 1518.22 L1793.88 1518.22 L1793.88 1526.7 Q1794.89 1526.35 1795.91 1526.19 Q1796.93 1526 1797.95 1526 Q1803.74 1526 1807.12 1529.17 Q1810.5 1532.34 1810.5 1537.76 Q1810.5 1543.34 1807.02 1546.44 Q1803.55 1549.52 1797.23 1549.52 Q1795.06 1549.52 1792.79 1549.15 Q1790.54 1548.78 1788.14 1548.04 L1788.14 1543.34 Q1790.22 1544.47 1792.44 1545.03 Q1794.66 1545.58 1797.14 1545.58 Q1801.14 1545.58 1803.48 1543.48 Q1805.82 1541.37 1805.82 1537.76 Q1805.82 1534.15 1803.48 1532.04 Q1801.14 1529.94 1797.14 1529.94 Q1795.26 1529.94 1793.39 1530.35 Q1791.54 1530.77 1789.59 1531.65 L1789.59 1514.29 Z" fill="#000000" fill-rule="nonzero" fill-opacity="1" /><path clip-path="url(#clip470)" d="M2233.96 1544.91 L2241.6 1544.91 L2241.6 1518.55 L2233.29 1520.21 L2233.29 1515.95 L2241.55 1514.29 L2246.23 1514.29 L2246.23 1544.91 L2253.87 1544.91 L2253.87 1548.85 L2233.96 1548.85 L2233.96 1544.91 Z" fill="#000000" fill-rule="nonzero" fill-opacity="1" /><path clip-path="url(#clip470)" d="M2273.31 1517.37 Q2269.7 1517.37 2267.87 1520.93 Q2266.07 1524.47 2266.07 1531.6 Q2266.07 1538.71 2267.87 1542.27 Q2269.7 1545.82 2273.31 1545.82 Q2276.95 1545.82 2278.75 1542.27 Q2280.58 1538.71 2280.58 1531.6 Q2280.58 1524.47 2278.75 1520.93 Q2276.95 1517.37 2273.31 1517.37 M2273.31 1513.66 Q2279.12 1513.66 2282.18 1518.27 Q2285.26 1522.85 2285.26 1531.6 Q2285.26 1540.33 2282.18 1544.94 Q2279.12 1549.52 2273.31 1549.52 Q2267.5 1549.52 2264.42 1544.94 Q2261.37 1540.33 2261.37 1531.6 Q2261.37 1522.85 2264.42 1518.27 Q2267.5 1513.66 2273.31 1513.66 Z" fill="#000000" fill-rule="nonzero" fill-opacity="1" /><path clip-path="url(#clip470)" d="M2303.48 1517.37 Q2299.86 1517.37 2298.04 1520.93 Q2296.23 1524.47 2296.23 1531.6 Q2296.23 1538.71 2298.04 1542.27 Q2299.86 1545.82 2303.48 1545.82 Q2307.11 1545.82 2308.92 1542.27 Q2310.74 1538.71 2310.74 1531.6 Q2310.74 1524.47 2308.92 1520.93 Q2307.11 1517.37 2303.48 1517.37 M2303.48 1513.66 Q2309.29 1513.66 2312.34 1518.27 Q2315.42 1522.85 2315.42 1531.6 Q2315.42 1540.33 2312.34 1544.94 Q2309.29 1549.52 2303.48 1549.52 Q2297.67 1549.52 2294.59 1544.94 Q2291.53 1540.33 2291.53 1531.6 Q2291.53 1522.85 2294.59 1518.27 Q2297.67 1513.66 2303.48 1513.66 Z" fill="#000000" fill-rule="nonzero" fill-opacity="1" /><polyline clip-path="url(#clip470)" style="stroke:#000000; stroke-linecap:round; stroke-linejoin:round; stroke-width:4; stroke-opacity:1; fill:none" points="275.136,1486.45 275.136,47.2441 "/>
<polyline clip-path="url(#clip470)" style="stroke:#000000; stroke-linecap:round; stroke-linejoin:round; stroke-width:4; stroke-opacity:1; fill:none" points="275.136,1446.49 294.034,1446.49 "/>
<polyline clip-path="url(#clip470)" style="stroke:#000000; stroke-linecap:round; stroke-linejoin:round; stroke-width:4; stroke-opacity:1; fill:none" points="275.136,1232.4 294.034,1232.4 "/>
<polyline clip-path="url(#clip470)" style="stroke:#000000; stroke-linecap:round; stroke-linejoin:round; stroke-width:4; stroke-opacity:1; fill:none" points="275.136,1018.31 294.034,1018.31 "/>
<polyline clip-path="url(#clip470)" style="stroke:#000000; stroke-linecap:round; stroke-linejoin:round; stroke-width:4; stroke-opacity:1; fill:none" points="275.136,804.217 294.034,804.217 "/>
<polyline clip-path="url(#clip470)" style="stroke:#000000; stroke-linecap:round; stroke-linejoin:round; stroke-width:4; stroke-opacity:1; fill:none" points="275.136,590.125 294.034,590.125 "/>
<polyline clip-path="url(#clip470)" style="stroke:#000000; stroke-linecap:round; stroke-linejoin:round; stroke-width:4; stroke-opacity:1; fill:none" points="275.136,376.033 294.034,376.033 "/>
<polyline clip-path="url(#clip470)" style="stroke:#000000; stroke-linecap:round; stroke-linejoin:round; stroke-width:4; stroke-opacity:1; fill:none" points="275.136,161.941 294.034,161.941 "/>
<path clip-path="url(#clip470)" d="M227.192 1432.29 Q223.581 1432.29 221.752 1435.86 Q219.947 1439.4 219.947 1446.53 Q219.947 1453.63 221.752 1457.2 Q223.581 1460.74 227.192 1460.74 Q230.826 1460.74 232.632 1457.2 Q234.46 1453.63 234.46 1446.53 Q234.46 1439.4 232.632 1435.86 Q230.826 1432.29 227.192 1432.29 M227.192 1428.59 Q233.002 1428.59 236.058 1433.19 Q239.136 1437.78 239.136 1446.53 Q239.136 1455.25 236.058 1459.86 Q233.002 1464.44 227.192 1464.44 Q221.382 1464.44 218.303 1459.86 Q215.248 1455.25 215.248 1446.53 Q215.248 1437.78 218.303 1433.19 Q221.382 1428.59 227.192 1428.59 Z" fill="#000000" fill-rule="nonzero" fill-opacity="1" /><path clip-path="url(#clip470)" d="M54.5569 1252.19 L62.1958 1252.19 L62.1958 1225.83 L53.8856 1227.49 L53.8856 1223.23 L62.1495 1221.57 L66.8254 1221.57 L66.8254 1252.19 L74.4642 1252.19 L74.4642 1256.13 L54.5569 1256.13 L54.5569 1252.19 Z" fill="#000000" fill-rule="nonzero" fill-opacity="1" /><path clip-path="url(#clip470)" d="M83.9086 1250.25 L88.7928 1250.25 L88.7928 1256.13 L83.9086 1256.13 L83.9086 1250.25 Z" fill="#000000" fill-rule="nonzero" fill-opacity="1" /><path clip-path="url(#clip470)" d="M108.978 1224.65 Q105.367 1224.65 103.538 1228.21 Q101.733 1231.75 101.733 1238.88 Q101.733 1245.99 103.538 1249.55 Q105.367 1253.1 108.978 1253.1 Q112.612 1253.1 114.418 1249.55 Q116.246 1245.99 116.246 1238.88 Q116.246 1231.75 114.418 1228.21 Q112.612 1224.65 108.978 1224.65 M108.978 1220.94 Q114.788 1220.94 117.844 1225.55 Q120.922 1230.13 120.922 1238.88 Q120.922 1247.61 117.844 1252.22 Q114.788 1256.8 108.978 1256.8 Q103.168 1256.8 100.089 1252.22 Q97.0335 1247.61 97.0335 1238.88 Q97.0335 1230.13 100.089 1225.55 Q103.168 1220.94 108.978 1220.94 Z" fill="#000000" fill-rule="nonzero" fill-opacity="1" /><path clip-path="url(#clip470)" d="M157.311 1230.66 L146.732 1241.29 L157.311 1251.87 L154.556 1254.67 L143.931 1244.04 L133.306 1254.67 L130.575 1251.87 L141.131 1241.29 L130.575 1230.66 L133.306 1227.86 L143.931 1238.49 L154.556 1227.86 L157.311 1230.66 Z" fill="#000000" fill-rule="nonzero" fill-opacity="1" /><path clip-path="url(#clip470)" d="M169.672 1252.19 L177.311 1252.19 L177.311 1225.83 L169.001 1227.49 L169.001 1223.23 L177.265 1221.57 L181.94 1221.57 L181.94 1252.19 L189.579 1252.19 L189.579 1256.13 L169.672 1256.13 L169.672 1252.19 Z" fill="#000000" fill-rule="nonzero" fill-opacity="1" /><path clip-path="url(#clip470)" d="M209.024 1224.65 Q205.413 1224.65 203.584 1228.21 Q201.778 1231.75 201.778 1238.88 Q201.778 1245.99 203.584 1249.55 Q205.413 1253.1 209.024 1253.1 Q212.658 1253.1 214.463 1249.55 Q216.292 1245.99 216.292 1238.88 Q216.292 1231.75 214.463 1228.21 Q212.658 1224.65 209.024 1224.65 M209.024 1220.94 Q214.834 1220.94 217.889 1225.55 Q220.968 1230.13 220.968 1238.88 Q220.968 1247.61 217.889 1252.22 Q214.834 1256.8 209.024 1256.8 Q203.214 1256.8 200.135 1252.22 Q197.079 1247.61 197.079 1238.88 Q197.079 1230.13 200.135 1225.55 Q203.214 1220.94 209.024 1220.94 Z" fill="#000000" fill-rule="nonzero" fill-opacity="1" /><path clip-path="url(#clip470)" d="M222.153 1200.64 L237.068 1200.64 L237.068 1203.83 L225.632 1203.83 L225.632 1210.72 Q226.46 1210.44 227.287 1210.3 Q228.115 1210.15 228.943 1210.15 Q233.645 1210.15 236.39 1212.73 Q239.136 1215.31 239.136 1219.71 Q239.136 1224.24 236.315 1226.76 Q233.494 1229.26 228.36 1229.26 Q226.592 1229.26 224.748 1228.96 Q222.924 1228.66 220.968 1228.06 L220.968 1224.24 Q222.661 1225.16 224.466 1225.61 Q226.272 1226.07 228.284 1226.07 Q231.538 1226.07 233.438 1224.35 Q235.337 1222.64 235.337 1219.71 Q235.337 1216.77 233.438 1215.06 Q231.538 1213.35 228.284 1213.35 Q226.761 1213.35 225.237 1213.69 Q223.733 1214.03 222.153 1214.74 L222.153 1200.64 Z" fill="#000000" fill-rule="nonzero" fill-opacity="1" /><path clip-path="url(#clip470)" d="M57.7745 1038.1 L74.0939 1038.1 L74.0939 1042.04 L52.1495 1042.04 L52.1495 1038.1 Q54.8115 1035.35 59.3949 1030.72 Q64.0013 1026.06 65.1819 1024.72 Q67.4272 1022.2 68.3068 1020.46 Q69.2096 1018.7 69.2096 1017.01 Q69.2096 1014.26 67.2652 1012.52 Q65.3439 1010.79 62.2421 1010.79 Q60.043 1010.79 57.5893 1011.55 Q55.1588 1012.31 52.381 1013.86 L52.381 1009.14 Q55.2051 1008.01 57.6588 1007.43 Q60.1124 1006.85 62.1495 1006.85 Q67.5198 1006.85 70.7142 1009.54 Q73.9087 1012.22 73.9087 1016.71 Q73.9087 1018.84 73.0985 1020.76 Q72.3115 1022.66 70.205 1025.25 Q69.6263 1025.93 66.5245 1029.14 Q63.4226 1032.34 57.7745 1038.1 Z" fill="#000000" fill-rule="nonzero" fill-opacity="1" /><path clip-path="url(#clip470)" d="M83.9086 1036.16 L88.7928 1036.16 L88.7928 1042.04 L83.9086 1042.04 L83.9086 1036.16 Z" fill="#000000" fill-rule="nonzero" fill-opacity="1" /><path clip-path="url(#clip470)" d="M108.978 1010.55 Q105.367 1010.55 103.538 1014.12 Q101.733 1017.66 101.733 1024.79 Q101.733 1031.9 103.538 1035.46 Q105.367 1039 108.978 1039 Q112.612 1039 114.418 1035.46 Q116.246 1031.9 116.246 1024.79 Q116.246 1017.66 114.418 1014.12 Q112.612 1010.55 108.978 1010.55 M108.978 1006.85 Q114.788 1006.85 117.844 1011.46 Q120.922 1016.04 120.922 1024.79 Q120.922 1033.52 117.844 1038.12 Q114.788 1042.71 108.978 1042.71 Q103.168 1042.71 100.089 1038.12 Q97.0335 1033.52 97.0335 1024.79 Q97.0335 1016.04 100.089 1011.46 Q103.168 1006.85 108.978 1006.85 Z" fill="#000000" fill-rule="nonzero" fill-opacity="1" /><path clip-path="url(#clip470)" d="M157.311 1016.57 L146.732 1027.2 L157.311 1037.78 L154.556 1040.58 L143.931 1029.95 L133.306 1040.58 L130.575 1037.78 L141.131 1027.2 L130.575 1016.57 L133.306 1013.77 L143.931 1024.4 L154.556 1013.77 L157.311 1016.57 Z" fill="#000000" fill-rule="nonzero" fill-opacity="1" /><path clip-path="url(#clip470)" d="M169.672 1038.1 L177.311 1038.1 L177.311 1011.74 L169.001 1013.4 L169.001 1009.14 L177.265 1007.48 L181.94 1007.48 L181.94 1038.1 L189.579 1038.1 L189.579 1042.04 L169.672 1042.04 L169.672 1038.1 Z" fill="#000000" fill-rule="nonzero" fill-opacity="1" /><path clip-path="url(#clip470)" d="M209.024 1010.55 Q205.413 1010.55 203.584 1014.12 Q201.778 1017.66 201.778 1024.79 Q201.778 1031.9 203.584 1035.46 Q205.413 1039 209.024 1039 Q212.658 1039 214.463 1035.46 Q216.292 1031.9 216.292 1024.79 Q216.292 1017.66 214.463 1014.12 Q212.658 1010.55 209.024 1010.55 M209.024 1006.85 Q214.834 1006.85 217.889 1011.46 Q220.968 1016.04 220.968 1024.79 Q220.968 1033.52 217.889 1038.12 Q214.834 1042.71 209.024 1042.71 Q203.214 1042.71 200.135 1038.12 Q197.079 1033.52 197.079 1024.79 Q197.079 1016.04 200.135 1011.46 Q203.214 1006.85 209.024 1006.85 Z" fill="#000000" fill-rule="nonzero" fill-opacity="1" /><path clip-path="url(#clip470)" d="M222.153 986.546 L237.068 986.546 L237.068 989.743 L225.632 989.743 L225.632 996.627 Q226.46 996.344 227.287 996.213 Q228.115 996.062 228.943 996.062 Q233.645 996.062 236.39 998.639 Q239.136 1001.22 239.136 1005.62 Q239.136 1010.15 236.315 1012.67 Q233.494 1015.17 228.36 1015.17 Q226.592 1015.17 224.748 1014.87 Q222.924 1014.57 220.968 1013.97 L220.968 1010.15 Q222.661 1011.07 224.466 1011.52 Q226.272 1011.97 228.284 1011.97 Q231.538 1011.97 233.438 1010.26 Q235.337 1008.55 235.337 1005.62 Q235.337 1002.68 233.438 1000.97 Q231.538 999.26 228.284 999.26 Q226.761 999.26 225.237 999.598 Q223.733 999.937 222.153 1000.65 L222.153 986.546 Z" fill="#000000" fill-rule="nonzero" fill-opacity="1" /><path clip-path="url(#clip470)" d="M67.9133 809.31 Q71.2698 810.028 73.1448 812.296 Q75.0429 814.565 75.0429 817.898 Q75.0429 823.014 71.5244 825.815 Q68.0059 828.616 61.5245 828.616 Q59.3486 828.616 57.0338 828.176 Q54.7421 827.759 52.2884 826.903 L52.2884 822.389 Q54.2328 823.523 56.5477 824.102 Q58.8625 824.68 61.3856 824.68 Q65.7837 824.68 68.0754 822.944 Q70.3902 821.208 70.3902 817.898 Q70.3902 814.842 68.2374 813.13 Q66.1078 811.393 62.2884 811.393 L58.2606 811.393 L58.2606 807.551 L62.4735 807.551 Q65.9226 807.551 67.7513 806.185 Q69.58 804.796 69.58 802.204 Q69.58 799.542 67.6819 798.13 Q65.8069 796.694 62.2884 796.694 Q60.3671 796.694 58.168 797.111 Q55.969 797.528 53.3301 798.407 L53.3301 794.241 Q55.9921 793.5 58.3069 793.13 Q60.6449 792.759 62.705 792.759 Q68.0291 792.759 71.1309 795.19 Q74.2327 797.597 74.2327 801.718 Q74.2327 804.588 72.5892 806.579 Q70.9457 808.546 67.9133 809.31 Z" fill="#000000" fill-rule="nonzero" fill-opacity="1" /><path clip-path="url(#clip470)" d="M83.9086 822.065 L88.7928 822.065 L88.7928 827.944 L83.9086 827.944 L83.9086 822.065 Z" fill="#000000" fill-rule="nonzero" fill-opacity="1" /><path clip-path="url(#clip470)" d="M108.978 796.463 Q105.367 796.463 103.538 800.028 Q101.733 803.569 101.733 810.699 Q101.733 817.805 103.538 821.37 Q105.367 824.912 108.978 824.912 Q112.612 824.912 114.418 821.37 Q116.246 817.805 116.246 810.699 Q116.246 803.569 114.418 800.028 Q112.612 796.463 108.978 796.463 M108.978 792.759 Q114.788 792.759 117.844 797.366 Q120.922 801.949 120.922 810.699 Q120.922 819.426 117.844 824.032 Q114.788 828.616 108.978 828.616 Q103.168 828.616 100.089 824.032 Q97.0335 819.426 97.0335 810.699 Q97.0335 801.949 100.089 797.366 Q103.168 792.759 108.978 792.759 Z" fill="#000000" fill-rule="nonzero" fill-opacity="1" /><path clip-path="url(#clip470)" d="M157.311 802.481 L146.732 813.106 L157.311 823.685 L154.556 826.486 L143.931 815.861 L133.306 826.486 L130.575 823.685 L141.131 813.106 L130.575 802.481 L133.306 799.681 L143.931 810.305 L154.556 799.681 L157.311 802.481 Z" fill="#000000" fill-rule="nonzero" fill-opacity="1" /><path clip-path="url(#clip470)" d="M169.672 824.009 L177.311 824.009 L177.311 797.643 L169.001 799.31 L169.001 795.051 L177.265 793.384 L181.94 793.384 L181.94 824.009 L189.579 824.009 L189.579 827.944 L169.672 827.944 L169.672 824.009 Z" fill="#000000" fill-rule="nonzero" fill-opacity="1" /><path clip-path="url(#clip470)" d="M209.024 796.463 Q205.413 796.463 203.584 800.028 Q201.778 803.569 201.778 810.699 Q201.778 817.805 203.584 821.37 Q205.413 824.912 209.024 824.912 Q212.658 824.912 214.463 821.37 Q216.292 817.805 216.292 810.699 Q216.292 803.569 214.463 800.028 Q212.658 796.463 209.024 796.463 M209.024 792.759 Q214.834 792.759 217.889 797.366 Q220.968 801.949 220.968 810.699 Q220.968 819.426 217.889 824.032 Q214.834 828.616 209.024 828.616 Q203.214 828.616 200.135 824.032 Q197.079 819.426 197.079 810.699 Q197.079 801.949 200.135 797.366 Q203.214 792.759 209.024 792.759 Z" fill="#000000" fill-rule="nonzero" fill-opacity="1" /><path clip-path="url(#clip470)" d="M222.153 772.454 L237.068 772.454 L237.068 775.651 L225.632 775.651 L225.632 782.535 Q226.46 782.253 227.287 782.121 Q228.115 781.971 228.943 781.971 Q233.645 781.971 236.39 784.547 Q239.136 787.124 239.136 791.525 Q239.136 796.058 236.315 798.578 Q233.494 801.079 228.36 801.079 Q226.592 801.079 224.748 800.778 Q222.924 800.477 220.968 799.876 L220.968 796.058 Q222.661 796.979 224.466 797.431 Q226.272 797.882 228.284 797.882 Q231.538 797.882 233.438 796.17 Q235.337 794.459 235.337 791.525 Q235.337 788.591 233.438 786.879 Q231.538 785.168 228.284 785.168 Q226.761 785.168 225.237 785.506 Q223.733 785.845 222.153 786.56 L222.153 772.454 Z" fill="#000000" fill-rule="nonzero" fill-opacity="1" /><path clip-path="url(#clip470)" d="M66.5939 583.367 L54.7884 601.816 L66.5939 601.816 L66.5939 583.367 M65.367 579.292 L71.2466 579.292 L71.2466 601.816 L76.1772 601.816 L76.1772 605.704 L71.2466 605.704 L71.2466 613.852 L66.5939 613.852 L66.5939 605.704 L50.9921 605.704 L50.9921 601.191 L65.367 579.292 Z" fill="#000000" fill-rule="nonzero" fill-opacity="1" /><path clip-path="url(#clip470)" d="M83.9086 607.973 L88.7928 607.973 L88.7928 613.852 L83.9086 613.852 L83.9086 607.973 Z" fill="#000000" fill-rule="nonzero" fill-opacity="1" /><path clip-path="url(#clip470)" d="M108.978 582.371 Q105.367 582.371 103.538 585.936 Q101.733 589.478 101.733 596.607 Q101.733 603.714 103.538 607.278 Q105.367 610.82 108.978 610.82 Q112.612 610.82 114.418 607.278 Q116.246 603.714 116.246 596.607 Q116.246 589.478 114.418 585.936 Q112.612 582.371 108.978 582.371 M108.978 578.667 Q114.788 578.667 117.844 583.274 Q120.922 587.857 120.922 596.607 Q120.922 605.334 117.844 609.94 Q114.788 614.524 108.978 614.524 Q103.168 614.524 100.089 609.94 Q97.0335 605.334 97.0335 596.607 Q97.0335 587.857 100.089 583.274 Q103.168 578.667 108.978 578.667 Z" fill="#000000" fill-rule="nonzero" fill-opacity="1" /><path clip-path="url(#clip470)" d="M157.311 588.39 L146.732 599.015 L157.311 609.593 L154.556 612.394 L143.931 601.769 L133.306 612.394 L130.575 609.593 L141.131 599.015 L130.575 588.39 L133.306 585.589 L143.931 596.214 L154.556 585.589 L157.311 588.39 Z" fill="#000000" fill-rule="nonzero" fill-opacity="1" /><path clip-path="url(#clip470)" d="M169.672 609.917 L177.311 609.917 L177.311 583.552 L169.001 585.218 L169.001 580.959 L177.265 579.292 L181.94 579.292 L181.94 609.917 L189.579 609.917 L189.579 613.852 L169.672 613.852 L169.672 609.917 Z" fill="#000000" fill-rule="nonzero" fill-opacity="1" /><path clip-path="url(#clip470)" d="M209.024 582.371 Q205.413 582.371 203.584 585.936 Q201.778 589.478 201.778 596.607 Q201.778 603.714 203.584 607.278 Q205.413 610.82 209.024 610.82 Q212.658 610.82 214.463 607.278 Q216.292 603.714 216.292 596.607 Q216.292 589.478 214.463 585.936 Q212.658 582.371 209.024 582.371 M209.024 578.667 Q214.834 578.667 217.889 583.274 Q220.968 587.857 220.968 596.607 Q220.968 605.334 217.889 609.94 Q214.834 614.524 209.024 614.524 Q203.214 614.524 200.135 609.94 Q197.079 605.334 197.079 596.607 Q197.079 587.857 200.135 583.274 Q203.214 578.667 209.024 578.667 Z" fill="#000000" fill-rule="nonzero" fill-opacity="1" /><path clip-path="url(#clip470)" d="M222.153 558.362 L237.068 558.362 L237.068 561.559 L225.632 561.559 L225.632 568.443 Q226.46 568.161 227.287 568.029 Q228.115 567.879 228.943 567.879 Q233.645 567.879 236.39 570.455 Q239.136 573.032 239.136 577.433 Q239.136 581.966 236.315 584.486 Q233.494 586.988 228.36 586.988 Q226.592 586.988 224.748 586.687 Q222.924 586.386 220.968 585.784 L220.968 581.966 Q222.661 582.887 224.466 583.339 Q226.272 583.79 228.284 583.79 Q231.538 583.79 233.438 582.079 Q235.337 580.367 235.337 577.433 Q235.337 574.499 233.438 572.788 Q231.538 571.076 228.284 571.076 Q226.761 571.076 225.237 571.415 Q223.733 571.753 222.153 572.468 L222.153 558.362 Z" fill="#000000" fill-rule="nonzero" fill-opacity="1" /><path clip-path="url(#clip470)" d="M53.793 365.201 L72.1494 365.201 L72.1494 369.136 L58.0754 369.136 L58.0754 377.608 Q59.0939 377.261 60.1124 377.099 Q61.131 376.914 62.1495 376.914 Q67.9365 376.914 71.3161 380.085 Q74.6957 383.256 74.6957 388.673 Q74.6957 394.251 71.2235 397.353 Q67.7513 400.432 61.4319 400.432 Q59.256 400.432 56.9875 400.062 Q54.7421 399.691 52.3347 398.951 L52.3347 394.251 Q54.418 395.386 56.6402 395.941 Q58.8625 396.497 61.3393 396.497 Q65.3439 396.497 67.6819 394.39 Q70.0198 392.284 70.0198 388.673 Q70.0198 385.062 67.6819 382.955 Q65.3439 380.849 61.3393 380.849 Q59.4643 380.849 57.5893 381.265 Q55.7375 381.682 53.793 382.562 L53.793 365.201 Z" fill="#000000" fill-rule="nonzero" fill-opacity="1" /><path clip-path="url(#clip470)" d="M83.9086 393.881 L88.7928 393.881 L88.7928 399.761 L83.9086 399.761 L83.9086 393.881 Z" fill="#000000" fill-rule="nonzero" fill-opacity="1" /><path clip-path="url(#clip470)" d="M108.978 368.279 Q105.367 368.279 103.538 371.844 Q101.733 375.386 101.733 382.515 Q101.733 389.622 103.538 393.187 Q105.367 396.728 108.978 396.728 Q112.612 396.728 114.418 393.187 Q116.246 389.622 116.246 382.515 Q116.246 375.386 114.418 371.844 Q112.612 368.279 108.978 368.279 M108.978 364.576 Q114.788 364.576 117.844 369.182 Q120.922 373.765 120.922 382.515 Q120.922 391.242 117.844 395.849 Q114.788 400.432 108.978 400.432 Q103.168 400.432 100.089 395.849 Q97.0335 391.242 97.0335 382.515 Q97.0335 373.765 100.089 369.182 Q103.168 364.576 108.978 364.576 Z" fill="#000000" fill-rule="nonzero" fill-opacity="1" /><path clip-path="url(#clip470)" d="M157.311 374.298 L146.732 384.923 L157.311 395.501 L154.556 398.302 L143.931 387.677 L133.306 398.302 L130.575 395.501 L141.131 384.923 L130.575 374.298 L133.306 371.497 L143.931 382.122 L154.556 371.497 L157.311 374.298 Z" fill="#000000" fill-rule="nonzero" fill-opacity="1" /><path clip-path="url(#clip470)" d="M169.672 395.826 L177.311 395.826 L177.311 369.46 L169.001 371.127 L169.001 366.867 L177.265 365.201 L181.94 365.201 L181.94 395.826 L189.579 395.826 L189.579 399.761 L169.672 399.761 L169.672 395.826 Z" fill="#000000" fill-rule="nonzero" fill-opacity="1" /><path clip-path="url(#clip470)" d="M209.024 368.279 Q205.413 368.279 203.584 371.844 Q201.778 375.386 201.778 382.515 Q201.778 389.622 203.584 393.187 Q205.413 396.728 209.024 396.728 Q212.658 396.728 214.463 393.187 Q216.292 389.622 216.292 382.515 Q216.292 375.386 214.463 371.844 Q212.658 368.279 209.024 368.279 M209.024 364.576 Q214.834 364.576 217.889 369.182 Q220.968 373.765 220.968 382.515 Q220.968 391.242 217.889 395.849 Q214.834 400.432 209.024 400.432 Q203.214 400.432 200.135 395.849 Q197.079 391.242 197.079 382.515 Q197.079 373.765 200.135 369.182 Q203.214 364.576 209.024 364.576 Z" fill="#000000" fill-rule="nonzero" fill-opacity="1" /><path clip-path="url(#clip470)" d="M222.153 344.27 L237.068 344.27 L237.068 347.468 L225.632 347.468 L225.632 354.351 Q226.46 354.069 227.287 353.937 Q228.115 353.787 228.943 353.787 Q233.645 353.787 236.39 356.364 Q239.136 358.94 239.136 363.341 Q239.136 367.874 236.315 370.394 Q233.494 372.896 228.36 372.896 Q226.592 372.896 224.748 372.595 Q222.924 372.294 220.968 371.692 L220.968 367.874 Q222.661 368.796 224.466 369.247 Q226.272 369.698 228.284 369.698 Q231.538 369.698 233.438 367.987 Q235.337 366.275 235.337 363.341 Q235.337 360.407 233.438 358.696 Q231.538 356.984 228.284 356.984 Q226.761 356.984 225.237 357.323 Q223.733 357.661 222.153 358.376 L222.153 344.27 Z" fill="#000000" fill-rule="nonzero" fill-opacity="1" /><path clip-path="url(#clip470)" d="M64.3254 166.526 Q61.1773 166.526 59.3254 168.678 Q57.4967 170.831 57.4967 174.581 Q57.4967 178.308 59.3254 180.484 Q61.1773 182.637 64.3254 182.637 Q67.4735 182.637 69.3022 180.484 Q71.1541 178.308 71.1541 174.581 Q71.1541 170.831 69.3022 168.678 Q67.4735 166.526 64.3254 166.526 M73.6077 151.873 L73.6077 156.132 Q71.8485 155.299 70.0429 154.859 Q68.2606 154.419 66.5013 154.419 Q61.8717 154.419 59.418 157.544 Q56.9875 160.669 56.6402 166.988 Q58.006 164.975 60.0662 163.91 Q62.1263 162.822 64.6032 162.822 Q69.8115 162.822 72.8207 165.993 Q75.8531 169.141 75.8531 174.581 Q75.8531 179.905 72.705 183.123 Q69.5568 186.34 64.3254 186.34 Q58.33 186.34 55.1588 181.757 Q51.9875 177.15 51.9875 168.424 Q51.9875 160.229 55.8764 155.368 Q59.7652 150.484 66.3161 150.484 Q68.0754 150.484 69.8578 150.831 Q71.6633 151.178 73.6077 151.873 Z" fill="#000000" fill-rule="nonzero" fill-opacity="1" /><path clip-path="url(#clip470)" d="M83.9086 179.789 L88.7928 179.789 L88.7928 185.669 L83.9086 185.669 L83.9086 179.789 Z" fill="#000000" fill-rule="nonzero" fill-opacity="1" /><path clip-path="url(#clip470)" d="M108.978 154.188 Q105.367 154.188 103.538 157.752 Q101.733 161.294 101.733 168.424 Q101.733 175.53 103.538 179.095 Q105.367 182.637 108.978 182.637 Q112.612 182.637 114.418 179.095 Q116.246 175.53 116.246 168.424 Q116.246 161.294 114.418 157.752 Q112.612 154.188 108.978 154.188 M108.978 150.484 Q114.788 150.484 117.844 155.09 Q120.922 159.674 120.922 168.424 Q120.922 177.15 117.844 181.757 Q114.788 186.34 108.978 186.34 Q103.168 186.34 100.089 181.757 Q97.0335 177.15 97.0335 168.424 Q97.0335 159.674 100.089 155.09 Q103.168 150.484 108.978 150.484 Z" fill="#000000" fill-rule="nonzero" fill-opacity="1" /><path clip-path="url(#clip470)" d="M157.311 160.206 L146.732 170.831 L157.311 181.41 L154.556 184.211 L143.931 173.586 L133.306 184.211 L130.575 181.41 L141.131 170.831 L130.575 160.206 L133.306 157.405 L143.931 168.03 L154.556 157.405 L157.311 160.206 Z" fill="#000000" fill-rule="nonzero" fill-opacity="1" /><path clip-path="url(#clip470)" d="M169.672 181.734 L177.311 181.734 L177.311 155.368 L169.001 157.035 L169.001 152.776 L177.265 151.109 L181.94 151.109 L181.94 181.734 L189.579 181.734 L189.579 185.669 L169.672 185.669 L169.672 181.734 Z" fill="#000000" fill-rule="nonzero" fill-opacity="1" /><path clip-path="url(#clip470)" d="M209.024 154.188 Q205.413 154.188 203.584 157.752 Q201.778 161.294 201.778 168.424 Q201.778 175.53 203.584 179.095 Q205.413 182.637 209.024 182.637 Q212.658 182.637 214.463 179.095 Q216.292 175.53 216.292 168.424 Q216.292 161.294 214.463 157.752 Q212.658 154.188 209.024 154.188 M209.024 150.484 Q214.834 150.484 217.889 155.09 Q220.968 159.674 220.968 168.424 Q220.968 177.15 217.889 181.757 Q214.834 186.34 209.024 186.34 Q203.214 186.34 200.135 181.757 Q197.079 177.15 197.079 168.424 Q197.079 159.674 200.135 155.09 Q203.214 150.484 209.024 150.484 Z" fill="#000000" fill-rule="nonzero" fill-opacity="1" /><path clip-path="url(#clip470)" d="M222.153 130.179 L237.068 130.179 L237.068 133.376 L225.632 133.376 L225.632 140.259 Q226.46 139.977 227.287 139.846 Q228.115 139.695 228.943 139.695 Q233.645 139.695 236.39 142.272 Q239.136 144.849 239.136 149.25 Q239.136 153.782 236.315 156.303 Q233.494 158.804 228.36 158.804 Q226.592 158.804 224.748 158.503 Q222.924 158.202 220.968 157.6 L220.968 153.782 Q222.661 154.704 224.466 155.155 Q226.272 155.607 228.284 155.607 Q231.538 155.607 233.438 153.895 Q235.337 152.184 235.337 149.25 Q235.337 146.316 233.438 144.604 Q231.538 142.893 228.284 142.893 Q226.761 142.893 225.237 143.231 Q223.733 143.57 222.153 144.284 L222.153 130.179 Z" fill="#000000" fill-rule="nonzero" fill-opacity="1" /><polyline clip-path="url(#clip472)" style="stroke:#009af9; stroke-linecap:round; stroke-linejoin:round; stroke-width:4; stroke-opacity:1; fill:none" points="333.937,87.9763 353.537,92.7069 373.137,97.8225 392.737,103.542 412.338,109.864 431.938,116.771 451.538,124.243 471.138,132.262 490.738,140.811 510.339,149.871 529.939,159.426 549.539,169.462 569.139,179.962 588.739,190.911 608.34,202.297 627.94,214.104 647.54,226.32 667.14,238.931 686.74,251.924 706.34,265.285 725.941,279.003 745.541,293.065 765.141,307.457 784.741,322.169 804.341,337.186 823.942,352.497 843.542,368.09 863.142,383.953 882.742,400.073 902.342,416.437 921.942,433.035 941.543,449.853 961.143,466.88 980.743,484.104 1000.34,501.511 1019.94,519.091 1039.54,536.83 1059.14,554.716 1078.74,572.738 1098.34,590.883 1117.94,609.138 1137.54,627.492 1157.14,645.931 1176.74,664.443 1196.35,683.016 1215.95,701.637 1235.55,720.293 1255.15,738.972 1274.75,757.661 1294.35,776.348 1313.95,795.018 1333.55,813.66 1353.15,832.259 1372.75,850.804 1392.35,869.281 1411.95,887.676 1431.55,905.976 1451.15,924.168 1470.75,942.238 1490.35,960.172 1509.95,977.957 1529.55,995.578 1549.15,1013.02 1568.75,1030.27 1588.35,1047.32 1607.95,1064.14 1627.55,1080.73 1647.15,1097.07 1666.75,1113.15 1686.35,1128.94 1705.95,1144.44 1725.55,1159.63 1745.15,1174.49 1764.75,1189 1784.35,1203.16 1803.95,1216.93 1823.55,1230.32 1843.15,1243.29 1862.75,1255.83 1882.35,1267.92 1901.95,1279.55 1921.55,1290.68 1941.15,1301.31 1960.75,1311.41 1980.35,1320.95 1999.95,1329.92 2019.55,1338.29 2039.15,1346.05 2058.75,1353.16 2078.35,1359.64 2097.95,1365.48 2117.55,1370.77 2137.15,1375.71 2156.75,1380.73 2176.35,1386.72 2195.95,1395.02 2215.55,1407.06 2235.15,1422.26 2254.75,1435.4 2274.36,1442.8 2293.96,1445.72 "/>
<path clip-path="url(#clip470)" d="M2023.31 198.898 L2283.5 198.898 L2283.5 95.2176 L2023.31 95.2176  Z" fill="#ffffff" fill-rule="evenodd" fill-opacity="1"/>
<polyline clip-path="url(#clip470)" style="stroke:#000000; stroke-linecap:round; stroke-linejoin:round; stroke-width:4; stroke-opacity:1; fill:none" points="2023.31,198.898 2283.5,198.898 2283.5,95.2176 2023.31,95.2176 2023.31,198.898 "/>
<polyline clip-path="url(#clip470)" style="stroke:#009af9; stroke-linecap:round; stroke-linejoin:round; stroke-width:4; stroke-opacity:1; fill:none" points="2046.39,147.058 2184.9,147.058 "/>
<path clip-path="url(#clip470)" d="M2221.83 166.745 Q2220.02 171.375 2218.31 172.787 Q2216.6 174.199 2213.73 174.199 L2210.32 174.199 L2210.32 170.634 L2212.82 170.634 Q2214.58 170.634 2215.56 169.8 Q2216.53 168.967 2217.71 165.865 L2218.47 163.921 L2207.99 138.412 L2212.5 138.412 L2220.6 158.689 L2228.7 138.412 L2233.22 138.412 L2221.83 166.745 Z" fill="#000000" fill-rule="nonzero" fill-opacity="1" /><path clip-path="url(#clip470)" d="M2240.51 160.402 L2248.15 160.402 L2248.15 134.037 L2239.84 135.703 L2239.84 131.444 L2248.1 129.778 L2252.78 129.778 L2252.78 160.402 L2260.42 160.402 L2260.42 164.338 L2240.51 164.338 L2240.51 160.402 Z" fill="#000000" fill-rule="nonzero" fill-opacity="1" /></svg>
