<?xml version="1.0" encoding="utf-8"?>
<svg xmlns="http://www.w3.org/2000/svg" xmlns:xlink="http://www.w3.org/1999/xlink" width="600" height="400" viewBox="0 0 2400 1600">
<defs>
  <clipPath id="clip510">
    <rect x="0" y="0" width="2400" height="1600"/>
  </clipPath>
</defs>
<path clip-path="url(#clip510)" d="M0 1600 L2400 1600 L2400 0 L0 0  Z" fill="#ffffff" fill-rule="evenodd" fill-opacity="1"/>
<defs>
  <clipPath id="clip511">
    <rect x="480" y="0" width="1681" height="1600"/>
  </clipPath>
</defs>
<path clip-path="url(#clip510)" d="M193.936 1486.45 L2352.76 1486.45 L2352.76 47.2441 L193.936 47.2441  Z" fill="#ffffff" fill-rule="evenodd" fill-opacity="1"/>
<defs>
  <clipPath id="clip512">
    <rect x="193" y="47" width="2160" height="1440"/>
  </clipPath>
</defs>
<polyline clip-path="url(#clip512)" style="stroke:#000000; stroke-linecap:round; stroke-linejoin:round; stroke-width:2; stroke-opacity:0.1; fill:none" points="529.818,1486.45 529.818,47.2441 "/>
<polyline clip-path="url(#clip512)" style="stroke:#000000; stroke-linecap:round; stroke-linejoin:round; stroke-width:2; stroke-opacity:0.1; fill:none" points="1055.97,1486.45 1055.97,47.2441 "/>
<polyline clip-path="url(#clip512)" style="stroke:#000000; stroke-linecap:round; stroke-linejoin:round; stroke-width:2; stroke-opacity:0.1; fill:none" points="1582.12,1486.45 1582.12,47.2441 "/>
<polyline clip-path="url(#clip512)" style="stroke:#000000; stroke-linecap:round; stroke-linejoin:round; stroke-width:2; stroke-opacity:0.1; fill:none" points="2108.27,1486.45 2108.27,47.2441 "/>
<polyline clip-path="url(#clip512)" style="stroke:#000000; stroke-linecap:round; stroke-linejoin:round; stroke-width:2; stroke-opacity:0.1; fill:none" points="193.936,1267.93 2352.76,1267.93 "/>
<polyline clip-path="url(#clip512)" style="stroke:#000000; stroke-linecap:round; stroke-linejoin:round; stroke-width:2; stroke-opacity:0.1; fill:none" points="193.936,1004.85 2352.76,1004.85 "/>
<polyline clip-path="url(#clip512)" style="stroke:#000000; stroke-linecap:round; stroke-linejoin:round; stroke-width:2; stroke-opacity:0.1; fill:none" points="193.936,741.779 2352.76,741.779 "/>
<polyline clip-path="url(#clip512)" style="stroke:#000000; stroke-linecap:round; stroke-linejoin:round; stroke-width:2; stroke-opacity:0.1; fill:none" points="193.936,478.703 2352.76,478.703 "/>
<polyline clip-path="url(#clip512)" style="stroke:#000000; stroke-linecap:round; stroke-linejoin:round; stroke-width:2; stroke-opacity:0.1; fill:none" points="193.936,215.628 2352.76,215.628 "/>
<polyline clip-path="url(#clip510)" style="stroke:#000000; stroke-linecap:round; stroke-linejoin:round; stroke-width:4; stroke-opacity:1; fill:none" points="193.936,1486.45 2352.76,1486.45 "/>
<polyline clip-path="url(#clip510)" style="stroke:#000000; stroke-linecap:round; stroke-linejoin:round; stroke-width:4; stroke-opacity:1; fill:none" points="529.818,1486.45 529.818,1467.55 "/>
<polyline clip-path="url(#clip510)" style="stroke:#000000; stroke-linecap:round; stroke-linejoin:round; stroke-width:4; stroke-opacity:1; fill:none" points="1055.97,1486.45 1055.97,1467.55 "/>
<polyline clip-path="url(#clip510)" style="stroke:#000000; stroke-linecap:round; stroke-linejoin:round; stroke-width:4; stroke-opacity:1; fill:none" points="1582.12,1486.45 1582.12,1467.55 "/>
<polyline clip-path="url(#clip510)" style="stroke:#000000; stroke-linecap:round; stroke-linejoin:round; stroke-width:4; stroke-opacity:1; fill:none" points="2108.27,1486.45 2108.27,1467.55 "/>
<path clip-path="url(#clip510)" d="M529.818 1517.37 Q526.207 1517.37 524.378 1520.93 Q522.573 1524.47 522.573 1531.6 Q522.573 1538.71 524.378 1542.27 Q526.207 1545.82 529.818 1545.82 Q533.452 1545.82 535.258 1542.27 Q537.086 1538.71 537.086 1531.6 Q537.086 1524.47 535.258 1520.93 Q533.452 1517.37 529.818 1517.37 M529.818 1513.66 Q535.628 1513.66 538.684 1518.27 Q541.762 1522.85 541.762 1531.6 Q541.762 1540.33 538.684 1544.94 Q535.628 1549.52 529.818 1549.52 Q524.008 1549.52 520.929 1544.94 Q517.874 1540.33 517.874 1531.6 Q517.874 1522.85 520.929 1518.27 Q524.008 1513.66 529.818 1513.66 Z" fill="#000000" fill-rule="nonzero" fill-opacity="1" /><path clip-path="url(#clip510)" d="M1046.25 1514.29 L1064.6 1514.29 L1064.6 1518.22 L1050.53 1518.22 L1050.53 1526.7 Q1051.55 1526.35 1052.57 1526.19 Q1053.59 1526 1054.6 1526 Q1060.39 1526 1063.77 1529.17 Q1067.15 1532.34 1067.15 1537.76 Q1067.15 1543.34 1063.68 1546.44 Q1060.21 1549.52 1053.89 1549.52 Q1051.71 1549.52 1049.44 1549.15 Q1047.2 1548.78 1044.79 1548.04 L1044.79 1543.34 Q1046.87 1544.47 1049.09 1545.03 Q1051.32 1545.58 1053.79 1545.58 Q1057.8 1545.58 1060.14 1543.48 Q1062.47 1541.37 1062.47 1537.76 Q1062.47 1534.15 1060.14 1532.04 Q1057.8 1529.94 1053.79 1529.94 Q1051.92 1529.94 1050.04 1530.35 Q1048.19 1530.77 1046.25 1531.65 L1046.25 1514.29 Z" fill="#000000" fill-rule="nonzero" fill-opacity="1" /><path clip-path="url(#clip510)" d="M1556.81 1544.91 L1564.45 1544.91 L1564.45 1518.55 L1556.14 1520.21 L1556.14 1515.95 L1564.4 1514.29 L1569.08 1514.29 L1569.08 1544.91 L1576.72 1544.91 L1576.72 1548.85 L1556.81 1548.85 L1556.81 1544.91 Z" fill="#000000" fill-rule="nonzero" fill-opacity="1" /><path clip-path="url(#clip510)" d="M1596.16 1517.37 Q1592.55 1517.37 1590.72 1520.93 Q1588.91 1524.47 1588.91 1531.6 Q1588.91 1538.71 1590.72 1542.27 Q1592.55 1545.82 1596.16 1545.82 Q1599.79 1545.82 1601.6 1542.27 Q1603.43 1538.71 1603.43 1531.6 Q1603.43 1524.47 1601.6 1520.93 Q1599.79 1517.37 1596.16 1517.37 M1596.16 1513.66 Q1601.97 1513.66 1605.03 1518.27 Q1608.1 1522.85 1608.1 1531.6 Q1608.1 1540.33 1605.03 1544.94 Q1601.97 1549.52 1596.16 1549.52 Q1590.35 1549.52 1587.27 1544.94 Q1584.22 1540.33 1584.22 1531.6 Q1584.22 1522.85 1587.27 1518.27 Q1590.35 1513.66 1596.16 1513.66 Z" fill="#000000" fill-rule="nonzero" fill-opacity="1" /><path clip-path="url(#clip510)" d="M2083.46 1544.91 L2091.1 1544.91 L2091.1 1518.55 L2082.79 1520.21 L2082.79 1515.95 L2091.05 1514.29 L2095.73 1514.29 L2095.73 1544.91 L2103.36 1544.91 L2103.36 1548.85 L2083.46 1548.85 L2083.46 1544.91 Z" fill="#000000" fill-rule="nonzero" fill-opacity="1" /><path clip-path="url(#clip510)" d="M2112.86 1514.29 L2131.21 1514.29 L2131.21 1518.22 L2117.14 1518.22 L2117.14 1526.7 Q2118.16 1526.35 2119.17 1526.19 Q2120.19 1526 2121.21 1526 Q2127 1526 2130.38 1529.17 Q2133.76 1532.34 2133.76 1537.76 Q2133.76 1543.34 2130.29 1546.44 Q2126.81 1549.52 2120.49 1549.52 Q2118.32 1549.52 2116.05 1549.15 Q2113.8 1548.78 2111.4 1548.04 L2111.4 1543.34 Q2113.48 1544.47 2115.7 1545.03 Q2117.92 1545.58 2120.4 1545.58 Q2124.41 1545.58 2126.74 1543.48 Q2129.08 1541.37 2129.08 1537.76 Q2129.08 1534.15 2126.74 1532.04 Q2124.41 1529.94 2120.4 1529.94 Q2118.53 1529.94 2116.65 1530.35 Q2114.8 1530.77 2112.86 1531.65 L2112.86 1514.29 Z" fill="#000000" fill-rule="nonzero" fill-opacity="1" /><polyline clip-path="url(#clip510)" style="stroke:#000000; stroke-linecap:round; stroke-linejoin:round; stroke-width:4; stroke-opacity:1; fill:none" points="193.936,1486.45 193.936,47.2441 "/>
<polyline clip-path="url(#clip510)" style="stroke:#000000; stroke-linecap:round; stroke-linejoin:round; stroke-width:4; stroke-opacity:1; fill:none" points="193.936,1267.93 212.834,1267.93 "/>
<polyline clip-path="url(#clip510)" style="stroke:#000000; stroke-linecap:round; stroke-linejoin:round; stroke-width:4; stroke-opacity:1; fill:none" points="193.936,1004.85 212.834,1004.85 "/>
<polyline clip-path="url(#clip510)" style="stroke:#000000; stroke-linecap:round; stroke-linejoin:round; stroke-width:4; stroke-opacity:1; fill:none" points="193.936,741.779 212.834,741.779 "/>
<polyline clip-path="url(#clip510)" style="stroke:#000000; stroke-linecap:round; stroke-linejoin:round; stroke-width:4; stroke-opacity:1; fill:none" points="193.936,478.703 212.834,478.703 "/>
<polyline clip-path="url(#clip510)" style="stroke:#000000; stroke-linecap:round; stroke-linejoin:round; stroke-width:4; stroke-opacity:1; fill:none" points="193.936,215.628 212.834,215.628 "/>
<path clip-path="url(#clip510)" d="M50.9921 1268.38 L80.6679 1268.38 L80.6679 1272.32 L50.9921 1272.32 L50.9921 1268.38 Z" fill="#000000" fill-rule="nonzero" fill-opacity="1" /><path clip-path="url(#clip510)" d="M90.8067 1250.65 L109.163 1250.65 L109.163 1254.59 L95.0891 1254.59 L95.0891 1263.06 Q96.1076 1262.71 97.1261 1262.55 Q98.1447 1262.36 99.1632 1262.36 Q104.95 1262.36 108.33 1265.53 Q111.709 1268.71 111.709 1274.12 Q111.709 1279.7 108.237 1282.8 Q104.765 1285.88 98.4456 1285.88 Q96.2697 1285.88 94.0012 1285.51 Q91.7558 1285.14 89.3484 1284.4 L89.3484 1279.7 Q91.4317 1280.84 93.6539 1281.39 Q95.8761 1281.95 98.353 1281.95 Q102.358 1281.95 104.696 1279.84 Q107.033 1277.73 107.033 1274.12 Q107.033 1270.51 104.696 1268.4 Q102.358 1266.3 98.353 1266.3 Q96.478 1266.3 94.603 1266.72 Q92.7512 1267.13 90.8067 1268.01 L90.8067 1250.65 Z" fill="#000000" fill-rule="nonzero" fill-opacity="1" /><path clip-path="url(#clip510)" d="M120.922 1279.33 L125.807 1279.33 L125.807 1285.21 L120.922 1285.21 L120.922 1279.33 Z" fill="#000000" fill-rule="nonzero" fill-opacity="1" /><path clip-path="url(#clip510)" d="M145.992 1253.73 Q142.381 1253.73 140.552 1257.29 Q138.746 1260.84 138.746 1267.97 Q138.746 1275.07 140.552 1278.64 Q142.381 1282.18 145.992 1282.18 Q149.626 1282.18 151.431 1278.64 Q153.26 1275.07 153.26 1267.97 Q153.26 1260.84 151.431 1257.29 Q149.626 1253.73 145.992 1253.73 M145.992 1250.03 Q151.802 1250.03 154.857 1254.63 Q157.936 1259.22 157.936 1267.97 Q157.936 1276.69 154.857 1281.3 Q151.802 1285.88 145.992 1285.88 Q140.181 1285.88 137.103 1281.3 Q134.047 1276.69 134.047 1267.97 Q134.047 1259.22 137.103 1254.63 Q140.181 1250.03 145.992 1250.03 Z" fill="#000000" fill-rule="nonzero" fill-opacity="1" /><path clip-path="url(#clip510)" d="M51.9875 1005.31 L81.6633 1005.31 L81.6633 1009.24 L51.9875 1009.24 L51.9875 1005.31 Z" fill="#000000" fill-rule="nonzero" fill-opacity="1" /><path clip-path="url(#clip510)" d="M95.7836 1018.2 L112.103 1018.2 L112.103 1022.13 L90.1586 1022.13 L90.1586 1018.2 Q92.8206 1015.44 97.4039 1010.82 Q102.01 1006.16 103.191 1004.82 Q105.436 1002.3 106.316 1000.56 Q107.219 998.801 107.219 997.112 Q107.219 994.357 105.274 992.621 Q103.353 990.885 100.251 990.885 Q98.0521 990.885 95.5984 991.649 Q93.1678 992.413 90.3901 993.964 L90.3901 989.241 Q93.2141 988.107 95.6678 987.528 Q98.1215 986.95 100.159 986.95 Q105.529 986.95 108.723 989.635 Q111.918 992.32 111.918 996.811 Q111.918 998.94 111.108 1000.86 Q110.321 1002.76 108.214 1005.35 Q107.635 1006.02 104.534 1009.24 Q101.432 1012.44 95.7836 1018.2 Z" fill="#000000" fill-rule="nonzero" fill-opacity="1" /><path clip-path="url(#clip510)" d="M121.918 1016.26 L126.802 1016.26 L126.802 1022.13 L121.918 1022.13 L121.918 1016.26 Z" fill="#000000" fill-rule="nonzero" fill-opacity="1" /><path clip-path="url(#clip510)" d="M137.033 987.575 L155.39 987.575 L155.39 991.51 L141.316 991.51 L141.316 999.982 Q142.334 999.635 143.353 999.473 Q144.371 999.288 145.39 999.288 Q151.177 999.288 154.556 1002.46 Q157.936 1005.63 157.936 1011.05 Q157.936 1016.63 154.464 1019.73 Q150.992 1022.81 144.672 1022.81 Q142.496 1022.81 140.228 1022.44 Q137.982 1022.07 135.575 1021.32 L135.575 1016.63 Q137.658 1017.76 139.881 1018.32 Q142.103 1018.87 144.58 1018.87 Q148.584 1018.87 150.922 1016.76 Q153.26 1014.66 153.26 1011.05 Q153.26 1007.44 150.922 1005.33 Q148.584 1003.22 144.58 1003.22 Q142.705 1003.22 140.83 1003.64 Q138.978 1004.06 137.033 1004.94 L137.033 987.575 Z" fill="#000000" fill-rule="nonzero" fill-opacity="1" /><path clip-path="url(#clip510)" d="M100.76 727.578 Q97.1493 727.578 95.3206 731.142 Q93.515 734.684 93.515 741.814 Q93.515 748.92 95.3206 752.485 Q97.1493 756.027 100.76 756.027 Q104.395 756.027 106.2 752.485 Q108.029 748.92 108.029 741.814 Q108.029 734.684 106.2 731.142 Q104.395 727.578 100.76 727.578 M100.76 723.874 Q106.571 723.874 109.626 728.48 Q112.705 733.064 112.705 741.814 Q112.705 750.541 109.626 755.147 Q106.571 759.73 100.76 759.73 Q94.9502 759.73 91.8715 755.147 Q88.816 750.541 88.816 741.814 Q88.816 733.064 91.8715 728.48 Q94.9502 723.874 100.76 723.874 Z" fill="#000000" fill-rule="nonzero" fill-opacity="1" /><path clip-path="url(#clip510)" d="M120.922 753.179 L125.807 753.179 L125.807 759.059 L120.922 759.059 L120.922 753.179 Z" fill="#000000" fill-rule="nonzero" fill-opacity="1" /><path clip-path="url(#clip510)" d="M145.992 727.578 Q142.381 727.578 140.552 731.142 Q138.746 734.684 138.746 741.814 Q138.746 748.92 140.552 752.485 Q142.381 756.027 145.992 756.027 Q149.626 756.027 151.431 752.485 Q153.26 748.92 153.26 741.814 Q153.26 734.684 151.431 731.142 Q149.626 727.578 145.992 727.578 M145.992 723.874 Q151.802 723.874 154.857 728.48 Q157.936 733.064 157.936 741.814 Q157.936 750.541 154.857 755.147 Q151.802 759.73 145.992 759.73 Q140.181 759.73 137.103 755.147 Q134.047 750.541 134.047 741.814 Q134.047 733.064 137.103 728.48 Q140.181 723.874 145.992 723.874 Z" fill="#000000" fill-rule="nonzero" fill-opacity="1" /><path clip-path="url(#clip510)" d="M95.7836 492.048 L112.103 492.048 L112.103 495.983 L90.1586 495.983 L90.1586 492.048 Q92.8206 489.294 97.4039 484.664 Q102.01 480.011 103.191 478.669 Q105.436 476.145 106.316 474.409 Q107.219 472.65 107.219 470.96 Q107.219 468.206 105.274 466.47 Q103.353 464.733 100.251 464.733 Q98.0521 464.733 95.5984 465.497 Q93.1678 466.261 90.3901 467.812 L90.3901 463.09 Q93.2141 461.956 95.6678 461.377 Q98.1215 460.798 100.159 460.798 Q105.529 460.798 108.723 463.483 Q111.918 466.169 111.918 470.659 Q111.918 472.789 111.108 474.71 Q110.321 476.608 108.214 479.201 Q107.635 479.872 104.534 483.09 Q101.432 486.284 95.7836 492.048 Z" fill="#000000" fill-rule="nonzero" fill-opacity="1" /><path clip-path="url(#clip510)" d="M121.918 490.104 L126.802 490.104 L126.802 495.983 L121.918 495.983 L121.918 490.104 Z" fill="#000000" fill-rule="nonzero" fill-opacity="1" /><path clip-path="url(#clip510)" d="M137.033 461.423 L155.39 461.423 L155.39 465.358 L141.316 465.358 L141.316 473.831 Q142.334 473.483 143.353 473.321 Q144.371 473.136 145.39 473.136 Q151.177 473.136 154.556 476.307 Q157.936 479.479 157.936 484.895 Q157.936 490.474 154.464 493.576 Q150.992 496.655 144.672 496.655 Q142.496 496.655 140.228 496.284 Q137.982 495.914 135.575 495.173 L135.575 490.474 Q137.658 491.608 139.881 492.164 Q142.103 492.719 144.58 492.719 Q148.584 492.719 150.922 490.613 Q153.26 488.506 153.26 484.895 Q153.26 481.284 150.922 479.178 Q148.584 477.071 144.58 477.071 Q142.705 477.071 140.83 477.488 Q138.978 477.905 137.033 478.784 L137.033 461.423 Z" fill="#000000" fill-rule="nonzero" fill-opacity="1" /><path clip-path="url(#clip510)" d="M90.8067 198.348 L109.163 198.348 L109.163 202.283 L95.0891 202.283 L95.0891 210.755 Q96.1076 210.408 97.1261 210.246 Q98.1447 210.06 99.1632 210.06 Q104.95 210.06 108.33 213.232 Q111.709 216.403 111.709 221.82 Q111.709 227.398 108.237 230.5 Q104.765 233.579 98.4456 233.579 Q96.2697 233.579 94.0012 233.209 Q91.7558 232.838 89.3484 232.097 L89.3484 227.398 Q91.4317 228.533 93.6539 229.088 Q95.8761 229.644 98.353 229.644 Q102.358 229.644 104.696 227.537 Q107.033 225.431 107.033 221.82 Q107.033 218.209 104.696 216.102 Q102.358 213.996 98.353 213.996 Q96.478 213.996 94.603 214.412 Q92.7512 214.829 90.8067 215.709 L90.8067 198.348 Z" fill="#000000" fill-rule="nonzero" fill-opacity="1" /><path clip-path="url(#clip510)" d="M120.922 227.028 L125.807 227.028 L125.807 232.908 L120.922 232.908 L120.922 227.028 Z" fill="#000000" fill-rule="nonzero" fill-opacity="1" /><path clip-path="url(#clip510)" d="M145.992 201.426 Q142.381 201.426 140.552 204.991 Q138.746 208.533 138.746 215.662 Q138.746 222.769 140.552 226.334 Q142.381 229.875 145.992 229.875 Q149.626 229.875 151.431 226.334 Q153.26 222.769 153.26 215.662 Q153.26 208.533 151.431 204.991 Q149.626 201.426 145.992 201.426 M145.992 197.723 Q151.802 197.723 154.857 202.329 Q157.936 206.912 157.936 215.662 Q157.936 224.389 154.857 228.996 Q151.802 233.579 145.992 233.579 Q140.181 233.579 137.103 228.996 Q134.047 224.389 134.047 215.662 Q134.047 206.912 137.103 202.329 Q140.181 197.723 145.992 197.723 Z" fill="#000000" fill-rule="nonzero" fill-opacity="1" /><path clip-path="url(#clip512)" d="M925.577 179.73 L940.974 194.369 L1045.3 126.051 L1038.15 106.053 L925.577 179.73  Z" fill="#009af9" fill-rule="evenodd" fill-opacity="1"/>
<polyline clip-path="url(#clip512)" style="stroke:#000000; stroke-linecap:round; stroke-linejoin:round; stroke-width:1; stroke-opacity:1; fill:none" points="925.577,179.73 940.974,194.369 1045.3,126.051 1038.15,106.053 925.577,179.73 "/>
<path clip-path="url(#clip512)" d="M1045.3 126.051 L1203.5 109.076 L1205.93 87.9763 L1038.15 106.053 L1045.3 126.051  Z" fill="#e26f46" fill-rule="evenodd" fill-opacity="1"/>
<polyline clip-path="url(#clip512)" style="stroke:#000000; stroke-linecap:round; stroke-linejoin:round; stroke-width:1; stroke-opacity:1; fill:none" points="1045.3,126.051 1203.5,109.076 1205.93,87.9763 1038.15,106.053 1045.3,126.051 "/>
<path clip-path="url(#clip512)" d="M1376.42 169.453 L1387.25 151.179 L1205.93 87.9763 L1203.5 109.076 L1376.42 169.453  Z" fill="#3da44d" fill-rule="evenodd" fill-opacity="1"/>
<polyline clip-path="url(#clip512)" style="stroke:#000000; stroke-linecap:round; stroke-linejoin:round; stroke-width:1; stroke-opacity:1; fill:none" points="1376.42,169.453 1387.25,151.179 1205.93,87.9763 1203.5,109.076 1376.42,169.453 "/>
<path clip-path="url(#clip512)" d="M1524.72 303.108 L1541.32 289.863 L1387.25 151.179 L1376.42 169.453 L1524.72 303.108  Z" fill="#c271d2" fill-rule="evenodd" fill-opacity="1"/>
<polyline clip-path="url(#clip512)" style="stroke:#000000; stroke-linecap:round; stroke-linejoin:round; stroke-width:1; stroke-opacity:1; fill:none" points="1524.72,303.108 1541.32,289.863 1387.25,151.179 1376.42,169.453 1524.72,303.108 "/>
<path clip-path="url(#clip512)" d="M1621.48 476.26 L1641.11 468.157 L1541.32 289.863 L1524.72 303.108 L1621.48 476.26  Z" fill="#ac8d18" fill-rule="evenodd" fill-opacity="1"/>
<polyline clip-path="url(#clip512)" style="stroke:#000000; stroke-linecap:round; stroke-linejoin:round; stroke-width:1; stroke-opacity:1; fill:none" points="1621.48,476.26 1641.11,468.157 1541.32,289.863 1524.72,303.108 1621.48,476.26 "/>
<path clip-path="url(#clip512)" d="M1661 617.181 L1681.89 613.342 L1641.11 468.157 L1621.48 476.26 L1661 617.181  Z" fill="#00a9ad" fill-rule="evenodd" fill-opacity="1"/>
<polyline clip-path="url(#clip512)" style="stroke:#000000; stroke-linecap:round; stroke-linejoin:round; stroke-width:1; stroke-opacity:1; fill:none" points="1661,617.181 1681.89,613.342 1641.11,468.157 1621.48,476.26 1661,617.181 "/>
<path clip-path="url(#clip512)" d="M1674.44 765.991 L1695.68 765.855 L1681.89 613.342 L1661 617.181 L1674.44 765.991  Z" fill="#ed5d92" fill-rule="evenodd" fill-opacity="1"/>
<polyline clip-path="url(#clip512)" style="stroke:#000000; stroke-linecap:round; stroke-linejoin:round; stroke-width:1; stroke-opacity:1; fill:none" points="1674.44,765.991 1695.68,765.855 1681.89,613.342 1661,617.181 1674.44,765.991 "/>
<path clip-path="url(#clip512)" d="M1664.55 893.846 L1685.51 897.271 L1695.68 765.855 L1674.44 765.991 L1664.55 893.846  Z" fill="#c68125" fill-rule="evenodd" fill-opacity="1"/>
<polyline clip-path="url(#clip512)" style="stroke:#000000; stroke-linecap:round; stroke-linejoin:round; stroke-width:1; stroke-opacity:1; fill:none" points="1664.55,893.846 1685.51,897.271 1695.68,765.855 1674.44,765.991 1664.55,893.846 "/>
<path clip-path="url(#clip512)" d="M1628.65 1036.36 L1648.7 1043.35 L1685.51 897.271 L1664.55 893.846 L1628.65 1036.36  Z" fill="#00a98d" fill-rule="evenodd" fill-opacity="1"/>
<polyline clip-path="url(#clip512)" style="stroke:#000000; stroke-linecap:round; stroke-linejoin:round; stroke-width:1; stroke-opacity:1; fill:none" points="1628.65,1036.36 1648.7,1043.35 1685.51,897.271 1664.55,893.846 1628.65,1036.36 "/>
<path clip-path="url(#clip512)" d="M1578.52 1147.42 L1596.96 1157.95 L1648.7 1043.35 L1628.65 1036.36 L1578.52 1147.42  Z" fill="#8e971d" fill-rule="evenodd" fill-opacity="1"/>
<polyline clip-path="url(#clip512)" style="stroke:#000000; stroke-linecap:round; stroke-linejoin:round; stroke-width:1; stroke-opacity:1; fill:none" points="1578.52,1147.42 1596.96,1157.95 1648.7,1043.35 1628.65,1036.36 1578.52,1147.42 "/>
<path clip-path="url(#clip512)" d="M1500.51 1258.12 L1516.4 1272.21 L1596.96 1157.95 L1578.52 1147.42 L1500.51 1258.12  Z" fill="#00a8cb" fill-rule="evenodd" fill-opacity="1"/>
<polyline clip-path="url(#clip512)" style="stroke:#000000; stroke-linecap:round; stroke-linejoin:round; stroke-width:1; stroke-opacity:1; fill:none" points="1500.51,1258.12 1516.4,1272.21 1596.96,1157.95 1578.52,1147.42 1500.51,1258.12 "/>
<path clip-path="url(#clip512)" d="M1405.82 1343.4 L1417.98 1360.81 L1516.4 1272.21 L1500.51 1258.12 L1405.82 1343.4  Z" fill="#9b7fe8" fill-rule="evenodd" fill-opacity="1"/>
<polyline clip-path="url(#clip512)" style="stroke:#000000; stroke-linecap:round; stroke-linejoin:round; stroke-width:1; stroke-opacity:1; fill:none" points="1405.82,1343.4 1417.98,1360.81 1516.4,1272.21 1500.51,1258.12 1405.82,1343.4 "/>
<path clip-path="url(#clip512)" d="M1299.65 1399.54 L1306.99 1419.47 L1417.98 1360.81 L1405.82 1343.4 L1299.65 1399.54  Z" fill="#608cf6" fill-rule="evenodd" fill-opacity="1"/>
<polyline clip-path="url(#clip512)" style="stroke:#000000; stroke-linecap:round; stroke-linejoin:round; stroke-width:1; stroke-opacity:1; fill:none" points="1299.65,1399.54 1306.99,1419.47 1417.98,1360.81 1405.82,1343.4 1299.65,1399.54 "/>
<path clip-path="url(#clip512)" d="M1187.25 1424.53 L1188.82 1445.72 L1306.99 1419.47 L1299.65 1399.54 L1187.25 1424.53  Z" fill="#f05f73" fill-rule="evenodd" fill-opacity="1"/>
<polyline clip-path="url(#clip512)" style="stroke:#000000; stroke-linecap:round; stroke-linejoin:round; stroke-width:1; stroke-opacity:1; fill:none" points="1187.25,1424.53 1188.82,1445.72 1306.99,1419.47 1299.65,1399.54 1187.25,1424.53 "/>
<path clip-path="url(#clip512)" d="M1075.43 1437.5 L1188.82 1445.72 L1187.25 1424.53 L1080.63 1416.91 L1075.43 1437.5  Z" fill="#dd64b5" fill-rule="evenodd" fill-opacity="1"/>
<polyline clip-path="url(#clip512)" style="stroke:#000000; stroke-linecap:round; stroke-linejoin:round; stroke-width:1; stroke-opacity:1; fill:none" points="1075.43,1437.5 1188.82,1445.72 1187.25,1424.53 1080.63,1416.91 1075.43,1437.5 "/>
<path clip-path="url(#clip512)" d="M1075.43 1437.5 L1080.63 1416.91 L981.182 1372.07 L968.926 1389.42 L1075.43 1437.5  Z" fill="#6b9e32" fill-rule="evenodd" fill-opacity="1"/>
<polyline clip-path="url(#clip512)" style="stroke:#000000; stroke-linecap:round; stroke-linejoin:round; stroke-width:1; stroke-opacity:1; fill:none" points="1075.43,1437.5 1080.63,1416.91 981.182,1372.07 968.926,1389.42 1075.43,1437.5 "/>
<path clip-path="url(#clip512)" d="M968.926 1389.42 L981.182 1372.07 L909.174 1297.01 L890.986 1307.98 L968.926 1389.42  Z" fill="#009af9" fill-rule="evenodd" fill-opacity="1"/>
<polyline clip-path="url(#clip512)" style="stroke:#000000; stroke-linecap:round; stroke-linejoin:round; stroke-width:1; stroke-opacity:1; fill:none" points="968.926,1389.42 981.182,1372.07 909.174,1297.01 890.986,1307.98 968.926,1389.42 "/>
<path clip-path="url(#clip512)" d="M890.986 1307.98 L909.174 1297.01 L872.869 1187.69 L851.876 1191.1 L890.986 1307.98  Z" fill="#e26f46" fill-rule="evenodd" fill-opacity="1"/>
<polyline clip-path="url(#clip512)" style="stroke:#000000; stroke-linecap:round; stroke-linejoin:round; stroke-width:1; stroke-opacity:1; fill:none" points="890.986,1307.98 909.174,1297.01 872.869,1187.69 851.876,1191.1 890.986,1307.98 "/>
<path clip-path="url(#clip512)" d="M851.876 1191.1 L872.869 1187.69 L872.254 976.841 L851.017 976.872 L851.876 1191.1  Z" fill="#3da44d" fill-rule="evenodd" fill-opacity="1"/>
<polyline clip-path="url(#clip512)" style="stroke:#000000; stroke-linecap:round; stroke-linejoin:round; stroke-width:1; stroke-opacity:1; fill:none" points="851.876,1191.1 872.869,1187.69 872.254,976.841 851.017,976.872 851.876,1191.1 "/>
<path clip-path="url(#clip512)" d="M851.017 976.872 L872.254 976.841 L872.254 765.991 L851.017 765.796 L851.017 976.872  Z" fill="#c271d2" fill-rule="evenodd" fill-opacity="1"/>
<polyline clip-path="url(#clip512)" style="stroke:#000000; stroke-linecap:round; stroke-linejoin:round; stroke-width:1; stroke-opacity:1; fill:none" points="851.017,976.872 872.254,976.841 872.254,765.991 851.017,765.796 851.017,976.872 "/>
<path clip-path="url(#clip512)" d="M851.017 765.796 L872.254 765.991 L872.254 609.206 L851.017 608.783 L851.017 765.796  Z" fill="#ac8d18" fill-rule="evenodd" fill-opacity="1"/>
<polyline clip-path="url(#clip512)" style="stroke:#000000; stroke-linecap:round; stroke-linejoin:round; stroke-width:1; stroke-opacity:1; fill:none" points="851.017,765.796 872.254,765.991 872.254,609.206 851.017,608.783 851.017,765.796 "/>
<path clip-path="url(#clip512)" d="M851.017 608.783 L872.254 609.206 L872.254 452.42 L851.017 451.997 L851.017 608.783  Z" fill="#00a9ad" fill-rule="evenodd" fill-opacity="1"/>
<polyline clip-path="url(#clip512)" style="stroke:#000000; stroke-linecap:round; stroke-linejoin:round; stroke-width:1; stroke-opacity:1; fill:none" points="851.017,608.783 872.254,609.206 872.254,452.42 851.017,451.997 851.017,608.783 "/>
<path clip-path="url(#clip512)" d="M851.017 451.997 L872.254 452.42 L881.616 295.82 L861.169 290.059 L851.017 451.997  Z" fill="#ed5d92" fill-rule="evenodd" fill-opacity="1"/>
<polyline clip-path="url(#clip512)" style="stroke:#000000; stroke-linecap:round; stroke-linejoin:round; stroke-width:1; stroke-opacity:1; fill:none" points="851.017,451.997 872.254,452.42 881.616,295.82 861.169,290.059 851.017,451.997 "/>
<path clip-path="url(#clip512)" d="M861.169 290.059 L881.616 295.82 L940.974 194.369 L925.577 179.73 L861.169 290.059  Z" fill="#c68125" fill-rule="evenodd" fill-opacity="1"/>
<polyline clip-path="url(#clip512)" style="stroke:#000000; stroke-linecap:round; stroke-linejoin:round; stroke-width:1; stroke-opacity:1; fill:none" points="861.169,290.059 881.616,295.82 940.974,194.369 925.577,179.73 861.169,290.059 "/>
</svg>
